<svg id="ico_time" xmlns="http://www.w3.org/2000/svg" xmlns:xlink="http://www.w3.org/1999/xlink" width="16.996" height="16.996" viewBox="0 0 16.996 16.996">
  <defs>
    <clipPath id="clip-path">
      <rect id="사각형_98" data-name="사각형 98" width="16.996" height="16.996" fill="none"/>
    </clipPath>
  </defs>
  <g id="그룹_28" data-name="그룹 28" clip-path="url(#clip-path)">
    <path id="패스_103" data-name="패스 103" d="M8.5,0A8.5,8.5,0,1,0,17,8.5,8.5,8.5,0,0,0,8.5,0m0,14.747A6.249,6.249,0,1,1,14.747,8.5,6.249,6.249,0,0,1,8.5,14.747" fill="#27ad98"/>
    <path id="패스_105" data-name="패스 105" d="M61.855,19.565v.7a.2.2,0,0,0,.4,0v-.7a.2.2,0,0,0-.4,0" transform="translate(-53.509 -16.75)" fill="#27ad98" opacity="0.499"/>
    <path id="패스_106" data-name="패스 106" d="M62.26,98.94a.2.2,0,0,0-.4,0v.7a.2.2,0,0,0,.4,0Z" transform="translate(-53.509 -85.415)" fill="#27ad98" opacity="0.499"/>
    <path id="패스_107" data-name="패스 107" d="M99.859,61.634h-.7a.2.2,0,0,0,0,.4h.7a.2.2,0,0,0,0-.4" transform="translate(-85.607 -53.318)" fill="#27ad98" opacity="0.499"/>
    <path id="패스_108" data-name="패스 108" d="M20.483,61.634h-.7a.2.2,0,1,0,0,.4h.7a.2.2,0,1,0,0-.4" transform="translate(-16.942 -53.318)" fill="#27ad98" opacity="0.499"/>
    <path id="패스_109" data-name="패스 109" d="M61.11,32.936a.4.4,0,0,0-.81,0v3.958a.5.5,0,0,0,.45.45H63.9a.4.4,0,0,0,0-.81H61.11Z" transform="translate(-52.164 -28.142)" fill="#27ad98"/>
  </g>
</svg>
