<svg xmlns="http://www.w3.org/2000/svg" xmlns:xlink="http://www.w3.org/1999/xlink" width="24" height="24" viewBox="0 0 24 24">
  <defs>
    <clipPath id="clip-path">
      <rect id="mask" width="24" height="24" transform="translate(-2 -2)" fill="#454545"/>
    </clipPath>
  </defs>
  <g id="ico_per-policy" transform="translate(2 2)" clip-path="url(#clip-path)">
    <g id="img">
      <path id="pass4" d="M19.526,8.336a.505.505,0,0,0-.256-.136l-.479-.1a8.869,8.869,0,0,0-1.233-2.98l.27-.406a.5.5,0,0,0,.084-.278,2.329,2.329,0,0,0-.841-1.512,2.326,2.326,0,0,0-1.512-.841.5.5,0,0,0-.278.084l-.405.27A8.886,8.886,0,0,0,11.9,1.209L11.8.729a.5.5,0,0,0-.137-.256A2.322,2.322,0,0,0,10,0,2.328,2.328,0,0,0,8.336.474.506.506,0,0,0,8.2.729l-.1.479a8.886,8.886,0,0,0-2.98,1.233l-.405-.27a.5.5,0,0,0-.278-.084,2.33,2.33,0,0,0-1.512.842A2.324,2.324,0,0,0,2.088,4.44a.5.5,0,0,0,.084.278l.27.406A8.869,8.869,0,0,0,1.209,8.1l-.48.1a.505.505,0,0,0-.255.137A2.327,2.327,0,0,0,0,10a2.331,2.331,0,0,0,.474,1.664.5.5,0,0,0,.255.137l.48.1a8.869,8.869,0,0,0,1.233,2.98l-.27.405a.5.5,0,0,0-.084.278,2.331,2.331,0,0,0,.841,1.512,2.323,2.323,0,0,0,1.512.841.5.5,0,0,0,.278-.084l.405-.27A8.887,8.887,0,0,0,8.1,18.791l.1.48a.506.506,0,0,0,.137.255A2.328,2.328,0,0,0,10,20a2.328,2.328,0,0,0,1.664-.474.5.5,0,0,0,.137-.255l.1-.48a8.887,8.887,0,0,0,2.98-1.232l.405.27a.5.5,0,0,0,.278.084,2.33,2.33,0,0,0,1.512-.841,2.324,2.324,0,0,0,.841-1.512.5.5,0,0,0-.084-.278l-.27-.405a8.869,8.869,0,0,0,1.233-2.98l.479-.1a.5.5,0,0,0,.256-.137A2.331,2.331,0,0,0,20,10a2.331,2.331,0,0,0-.474-1.664M10,17a7,7,0,1,1,7-7,7.008,7.008,0,0,1-7,7" fill="#454545"/>
      <path id="pass3" d="M82.942,119.2v-4.983a2.075,2.075,0,0,0-1.684.016,4.433,4.433,0,0,1-1.234.246l1.317,2.618h-.709l-1.023-2.035L78.586,117.1h-.709l1.372-2.728a2.982,2.982,0,0,1-.336-.124.371.371,0,0,1,.3-.68,2.45,2.45,0,0,0,1.834-.044,2.849,2.849,0,0,1,1.9-.115v-.123a.372.372,0,1,1,.744,0v.123a2.85,2.85,0,0,1,1.9.115,2.45,2.45,0,0,0,1.834.044.371.371,0,0,1,.3.68,2.942,2.942,0,0,1-.331.122l1.373,2.73h-.709l-1.023-2.035L86,117.1h-.709l1.316-2.618a4.409,4.409,0,0,1-1.24-.246,2.075,2.075,0,0,0-1.684-.016V119.2h-.744Z" transform="translate(-73.314 -106.3)" fill="#454545" fill-rule="evenodd"/>
      <path id="pass2" d="M200.869,191.012a2.192,2.192,0,0,1-4.384,0Z" transform="translate(-184.972 -179.82)" fill="#454545" fill-rule="evenodd"/>
      <path id="pass1" d="M74.4,191.012a2.192,2.192,0,0,1-4.384,0Z" transform="translate(-65.918 -179.82)" fill="#454545" fill-rule="evenodd"/>
    </g>
  </g>
</svg>
