<svg xmlns="http://www.w3.org/2000/svg" xmlns:xlink="http://www.w3.org/1999/xlink" width="60" height="45" viewBox="0 0 60 45">
  <defs>
    <clipPath id="clip-path">
      <rect id="mask" width="60" height="45" fill="#c78d8d" opacity="0.75"/>
    </clipPath>
    <clipPath id="clip-path-2">
      <rect id="사각형_15733" data-name="사각형 15733" width="39.075" height="45.121" fill="none"/>
    </clipPath>
    <clipPath id="clip-path-4">
      <rect id="사각형_15728" data-name="사각형 15728" width="38.858" height="44.064" fill="none"/>
    </clipPath>
  </defs>
  <g id="ico_uem" clip-path="url(#clip-path)">
    <g id="그룹_1023" data-name="그룹 1023" transform="translate(10.463)">
      <g id="그룹_1019" data-name="그룹 1019" clip-path="url(#clip-path-2)">
        <path id="패스_762" data-name="패스 762" d="M19.551,0,0,11.3V33.861l19.552,11.26,19.523-11.3V11.262Z" transform="translate(0 0)" fill="#308a36"/>
        <path id="패스_763" data-name="패스 763" d="M9.507,0V45.121l19.523-11.3V11.262Z" transform="translate(10.044 0)" fill="#317430"/>
        <path id="패스_764" data-name="패스 764" d="M1.826,32.8V12.348L19.552,2.108l17.7,10.211V32.773L19.543,43.021ZM19.552,0,0,11.3V33.853L19.552,45.115l19.523-11.3V11.262Z" fill="#392e2d"/>
        <path id="패스_765" data-name="패스 765" d="M34.671,30.422,18.052,40.039,1.413,30.451v-19.2L18.052,1.63l16.619,9.588Z" transform="translate(1.492 1.723)" fill="#106a31"/>
        <path id="패스_766" data-name="패스 766" d="M31.029,27.6,16.814,35.83l-14.229-8.2V11.209L16.814,2.982l14.215,8.2Z" transform="translate(2.731 3.151)" fill="#095f2c"/>
        <path id="패스_767" data-name="패스 767" d="M26.911,24.418,15.419,31.073,3.9,24.447l.008-13.281L15.419,4.51l11.492,6.634Z" transform="translate(4.125 4.765)" fill="#174b22"/>
        <path id="패스_768" data-name="패스 768" d="M9.525,42.629l19.009-9.855L27.9,10.9,9.525.975Z" transform="translate(10.063 1.03)" fill="#317430"/>
        <g id="그룹_1016" data-name="그룹 1016" transform="translate(0 0)">
          <g id="그룹_1015" data-name="그룹 1015" clip-path="url(#clip-path-2)">
            <g id="그룹_1014" data-name="그룹 1014" transform="translate(0.101 0.5)" opacity="0.43" style="mix-blend-mode: multiply;isolation: isolate">
              <g id="그룹_1013" data-name="그룹 1013">
                <g id="그룹_1012" data-name="그룹 1012" clip-path="url(#clip-path-4)">
                  <path id="패스_769" data-name="패스 769" d="M.093,11.453l-.043-.08L19.492.243l.023.014L38.906,11.324l-.043.078L19.492.346Z" transform="translate(-0.049 -0.244)" fill="#aca6a5"/>
                  <path id="패스_770" data-name="패스 770" d="M.093,11.441l-.043-.08L19.492.514l.023.014L38.906,11.318l-.043.08L19.492.615Z" transform="translate(-0.049 0.043)" fill="#aca6a5"/>
                  <path id="패스_771" data-name="패스 771" d="M.093,11.438l-.043-.08L19.492.785l.023.008L38.906,11.308l-.043.078L19.492.888Z" transform="translate(-0.049 0.329)" fill="#aca6a5"/>
                  <path id="패스_772" data-name="패스 772" d="M.093,11.426l-.043-.08L19.492,1.057l.023.006L38.906,11.3l-.043.08L19.492,1.157Z" transform="translate(-0.049 0.616)" fill="#aca6a5"/>
                  <path id="패스_773" data-name="패스 773" d="M.093,11.422l-.043-.08L19.492,1.328l.014.006,19.4,9.958-.043.078L19.492,1.429Z" transform="translate(-0.049 0.903)" fill="#aca6a5"/>
                  <path id="패스_774" data-name="패스 774" d="M.093,11.415l-.043-.08,19.443-9.74.014.014,19.4,9.676-.043.086L19.492,1.7Z" transform="translate(-0.049 1.185)" fill="#aca6a5"/>
                  <path id="패스_775" data-name="패스 775" d="M.093,11.411l-.043-.08L19.492,1.866l.014.014,19.4,9.4-.035.078L19.492,1.967Z" transform="translate(-0.049 1.472)" fill="#aca6a5"/>
                  <path id="패스_776" data-name="패스 776" d="M.093,11.4l-.043-.08L19.492,2.137l.014.008,19.4,9.125-.035.086L19.492,2.24Z" transform="translate(-0.049 1.758)" fill="#aca6a5"/>
                  <path id="패스_777" data-name="패스 777" d="M.093,11.4l-.043-.086,19.443-8.9.014.008,19.4,8.849-.035.078L19.492,2.511Z" transform="translate(-0.049 2.044)" fill="#aca6a5"/>
                  <path id="패스_778" data-name="패스 778" d="M.086,11.383.049,11.3,19.494,2.68l.014.006,19.4,8.568-.037.086L19.494,2.781Z" transform="translate(-0.05 2.332)" fill="#aca6a5"/>
                  <path id="패스_779" data-name="패스 779" d="M.086,11.38l-.037-.086L19.494,2.95l.014.008,19.4,8.292-.037.078L19.494,3.053Z" transform="translate(-0.05 2.617)" fill="#aca6a5"/>
                  <path id="패스_780" data-name="패스 780" d="M.082,11.368l-.029-.08L19.49,3.222l.014.006,19.4,8.01-.037.086L19.49,3.317Z" transform="translate(-0.045 2.904)" fill="#aca6a5"/>
                  <path id="패스_781" data-name="패스 781" d="M.082,11.364l-.029-.086L19.49,3.494,19.5,3.5l19.4,7.726-.037.086L19.49,3.586Z" transform="translate(-0.045 3.191)" fill="#aca6a5"/>
                  <path id="패스_782" data-name="패스 782" d="M.082,11.353l-.029-.08L19.49,3.764H19.5L38.9,11.223l-.029.086L19.49,3.859Z" transform="translate(-0.045 3.477)" fill="#aca6a5"/>
                  <path id="패스_783" data-name="패스 783" d="M.082,11.353l-.029-.086L19.49,4.032l.014.008L38.9,11.215l-.029.086L19.49,4.132Z" transform="translate(-0.045 3.759)" fill="#aca6a5"/>
                  <path id="패스_784" data-name="패스 784" d="M.082,11.342l-.029-.086L19.49,4.3l.014.008,19.391,6.9-.029.086L19.49,4.405Z" transform="translate(-0.045 4.045)" fill="#aca6a5"/>
                  <path id="패스_785" data-name="패스 785" d="M.082,11.338l-.029-.086L19.49,4.574,38.9,11.2l-.029.086L19.49,4.668Z" transform="translate(-0.045 4.332)" fill="#aca6a5"/>
                  <path id="패스_786" data-name="패스 786" d="M.082,11.326l-.029-.086L19.49,4.846l.014.006L38.9,11.2l-.029.086L19.49,4.938Z" transform="translate(-0.045 4.62)" fill="#aca6a5"/>
                  <path id="패스_787" data-name="패스 787" d="M.082,11.322l-.029-.086L19.49,5.116H19.5L38.9,11.185l-.029.086L19.49,5.21Z" transform="translate(-0.045 4.905)" fill="#aca6a5"/>
                  <path id="패스_788" data-name="패스 788" d="M.082,11.311l-.029-.086L19.49,5.388H19.5l19.4,5.793-.029.086L19.49,5.48Z" transform="translate(-0.045 5.192)" fill="#aca6a5"/>
                  <path id="패스_789" data-name="패스 789" d="M.082,11.307l-.029-.086L19.49,5.658H19.5l19.4,5.512-.021.086L19.49,5.752Z" transform="translate(-0.045 5.478)" fill="#aca6a5"/>
                  <path id="패스_790" data-name="패스 790" d="M.082,11.3l-.029-.086L19.49,5.93H19.5l19.4,5.228-.021.095L19.49,6.024Z" transform="translate(-0.045 5.765)" fill="#aca6a5"/>
                  <path id="패스_791" data-name="패스 791" d="M.075,11.3.053,11.2l19.437-5,.008.008,19.4,4.952-.023.086L19.489,6.292Z" transform="translate(-0.046 6.047)" fill="#aca6a5"/>
                  <path id="패스_792" data-name="패스 792" d="M.075,11.285.053,11.2l19.437-4.73.008.008,19.4,4.67-.023.095L19.489,6.563Z" transform="translate(-0.046 6.334)" fill="#aca6a5"/>
                  <path id="패스_793" data-name="패스 793" d="M.071,11.28l-.014-.095L19.485,6.739h.008l19.4,4.4-.023.086L19.485,6.834Z" transform="translate(-0.042 6.62)" fill="#aca6a5"/>
                  <path id="패스_794" data-name="패스 794" d="M.071,11.269l-.014-.086L19.485,7.01h.008l19.4,4.121-.023.086L19.485,7.1Z" transform="translate(-0.042 6.907)" fill="#aca6a5"/>
                  <path id="패스_795" data-name="패스 795" d="M.071,11.265.056,11.17,19.485,7.281h.008l19.391,3.846-.014.086L19.485,7.376Z" transform="translate(-0.042 7.193)" fill="#aca6a5"/>
                  <path id="패스_796" data-name="패스 796" d="M.071,11.253l-.014-.086L19.485,7.553h.008l19.391,3.562-.014.086L19.485,7.64Z" transform="translate(-0.042 7.48)" fill="#aca6a5"/>
                  <path id="패스_797" data-name="패스 797" d="M.071,11.249l-.014-.095,19.428-3.33h.008l19.391,3.286-.014.086L19.485,7.911Z" transform="translate(-0.042 7.767)" fill="#aca6a5"/>
                  <path id="패스_798" data-name="패스 798" d="M.071,11.242l-.014-.086L19.485,8.091l.008.008,19.391,3-.014.086-19.385-3Z" transform="translate(-0.042 8.049)" fill="#aca6a5"/>
                  <path id="패스_799" data-name="패스 799" d="M.071,11.23l-.014-.086,19.428-2.78,19.4,2.729-.014.095L19.485,8.456Z" transform="translate(-0.042 8.336)" fill="#aca6a5"/>
                  <path id="패스_800" data-name="패스 800" d="M.071,11.227l-.014-.095,19.428-2.5,19.4,2.456-.014.086L19.485,8.728Z" transform="translate(-0.042 8.622)" fill="#aca6a5"/>
                  <path id="패스_801" data-name="패스 801" d="M.071,11.215l-.014-.086L19.485,8.905l19.4,2.172-.006.095L19.485,9Z" transform="translate(-0.042 8.909)" fill="#aca6a5"/>
                  <path id="패스_802" data-name="패스 802" d="M.071,11.211l-.014-.095L19.479,9.177l19.406,1.9-.006.086-19.4-1.9Z" transform="translate(-0.042 9.196)" fill="#aca6a5"/>
                  <path id="패스_803" data-name="패스 803" d="M.064,11.2l-.008-.086L19.478,9.447l19.408,1.614-.008.095-19.4-1.623Z" transform="translate(-0.042 9.482)" fill="#aca6a5"/>
                  <path id="패스_804" data-name="패스 804" d="M.064,11.2.056,11.1,19.478,9.719l19.408,1.339-.008.086-19.4-1.339Z" transform="translate(-0.042 9.768)" fill="#aca6a5"/>
                  <path id="패스_805" data-name="패스 805" d="M.06,11.189V11.1L19.474,9.986l19.408,1.065-.008.095-19.4-1.065Z" transform="translate(-0.038 10.05)" fill="#aca6a5"/>
                  <path id="패스_806" data-name="패스 806" d="M.06,11.185V11.09l19.414-.833,19.4.79v.086l-19.4-.781Z" transform="translate(-0.038 10.337)" fill="#aca6a5"/>
                  <path id="패스_807" data-name="패스 807" d="M.06,11.172v-.086l19.414-.557,19.4.506v.095l-19.4-.508Z" transform="translate(-0.038 10.624)" fill="#aca6a5"/>
                  <path id="패스_808" data-name="패스 808" d="M.06,11.169v-.095L19.482,10.8l19.391.226v.093l-19.391-.224Z" transform="translate(-0.038 10.91)" fill="#aca6a5"/>
                  <path id="패스_809" data-name="패스 809" d="M19.482,11.184H.06V11.1H19.482l19.393-.051v.095Z" transform="translate(-0.038 11.17)" fill="#aca6a5"/>
                  <path id="패스_810" data-name="패스 810" d="M19.482,11.6.06,11.324v-.095l19.422.284,19.393-.333v.095Z" transform="translate(-0.038 11.312)" fill="#aca6a5"/>
                  <path id="패스_811" data-name="패스 811" d="M19.482,12.012.06,11.455V11.36l19.422.557,19.393-.6V11.4Z" transform="translate(-0.038 11.457)" fill="#aca6a5"/>
                  <path id="패스_812" data-name="패스 812" d="M19.482,12.428.06,11.595V11.5l19.422.833,19.393-.882v.093Z" transform="translate(-0.038 11.599)" fill="#aca6a5"/>
                  <path id="패스_813" data-name="패스 813" d="M19.482,12.841.06,11.726v-.095l19.422,1.115,19.393-1.158.006.086Z" transform="translate(-0.038 11.744)" fill="#aca6a5"/>
                  <path id="패스_814" data-name="패스 814" d="M19.485,13.257.057,11.858l.006-.086,19.422,1.39,19.393-1.44.006.093Z" transform="translate(-0.042 11.885)" fill="#aca6a5"/>
                  <path id="패스_815" data-name="패스 815" d="M19.485,13.662.057,12,.063,11.9l19.422,1.674,19.393-1.717.006.086Z" transform="translate(-0.042 12.029)" fill="#aca6a5"/>
                  <path id="패스_816" data-name="패스 816" d="M19.485,14.079h-.006L.057,12.131l.014-.086,19.414,1.948,19.393-2,.006.095Z" transform="translate(-0.042 12.171)" fill="#aca6a5"/>
                  <path id="패스_817" data-name="패스 817" d="M19.485,14.491h-.006L.057,12.268l.014-.095L19.485,14.4,38.87,12.13l.014.086Z" transform="translate(-0.042 12.316)" fill="#aca6a5"/>
                  <path id="패스_818" data-name="패스 818" d="M19.485,14.907h-.006L.057,12.4l.014-.088,19.414,2.5L38.87,12.264l.014.093Z" transform="translate(-0.042 12.458)" fill="#aca6a5"/>
                  <path id="패스_819" data-name="패스 819" d="M19.485,15.32h-.006L.057,12.539l.014-.095,19.414,2.78L38.87,12.4l.014.086Z" transform="translate(-0.042 12.603)" fill="#aca6a5"/>
                  <path id="패스_820" data-name="패스 820" d="M19.485,15.736h-.006L.057,12.673l.014-.088,19.414,3.056L38.87,12.536l.014.095Z" transform="translate(-0.042 12.745)" fill="#aca6a5"/>
                  <path id="패스_821" data-name="패스 821" d="M19.485,16.148l-.006-.006L.057,12.81l.014-.095,19.414,3.338L38.87,12.673l.014.086Z" transform="translate(-0.042 12.889)" fill="#aca6a5"/>
                  <path id="패스_822" data-name="패스 822" d="M19.485,16.557h-.006L.057,12.944l.014-.086,19.414,3.613L38.87,12.806l.014.086Z" transform="translate(-0.042 13.03)" fill="#aca6a5"/>
                  <path id="패스_823" data-name="패스 823" d="M19.485,16.97h-.014L.057,13.075l.014-.088,19.414,3.9,19.385-3.94.014.086Z" transform="translate(-0.042 13.176)" fill="#aca6a5"/>
                  <path id="패스_824" data-name="패스 824" d="M19.485,17.386h-.014L.057,13.215l.014-.086,19.414,4.162L38.87,13.078l.023.086Z" transform="translate(-0.042 13.317)" fill="#aca6a5"/>
                  <path id="패스_825" data-name="패스 825" d="M19.485,17.8h-.014L.057,13.35l.014-.088,19.414,4.446,19.385-4.5.023.093Z" transform="translate(-0.042 13.459)" fill="#aca6a5"/>
                  <path id="패스_826" data-name="패스 826" d="M19.489,18.215h-.014L.053,13.487.075,13.4l19.414,4.72,19.385-4.771.023.086Z" transform="translate(-0.046 13.604)" fill="#aca6a5"/>
                  <path id="패스_827" data-name="패스 827" d="M19.489,18.63l-.014-.006L.053,13.619l.023-.086,19.414,5,19.385-5.053.023.093Z" transform="translate(-0.046 13.745)" fill="#aca6a5"/>
                  <path id="패스_828" data-name="패스 828" d="M19.489,19.043l-.014-.006L.053,13.758l.029-.088,19.408,5.279L38.874,13.62l.023.086Z" transform="translate(-0.046 13.89)" fill="#aca6a5"/>
                  <path id="패스_829" data-name="패스 829" d="M19.489,19.46.053,13.891.081,13.8l19.408,5.555,19.379-5.606.029.088Z" transform="translate(-0.046 14.031)" fill="#aca6a5"/>
                  <path id="패스_830" data-name="패스 830" d="M19.489,19.865h-.014L.053,14.029l.029-.095L19.489,19.77l19.379-5.88.029.086Z" transform="translate(-0.046 14.176)" fill="#aca6a5"/>
                  <path id="패스_831" data-name="패스 831" d="M19.489,20.281h-.014L.053,14.163l.029-.088,19.408,6.112,19.379-6.161.029.086Z" transform="translate(-0.046 14.318)" fill="#aca6a5"/>
                  <path id="패스_832" data-name="패스 832" d="M19.489,20.694h-.014L.053,14.292l.029-.086L19.489,20.6l19.379-6.437.029.086Z" transform="translate(-0.046 14.463)" fill="#aca6a5"/>
                  <path id="패스_833" data-name="패스 833" d="M19.489,21.11l-.014-.006L.053,14.434l.029-.088,19.408,6.669L38.868,14.3l.029.086Z" transform="translate(-0.046 14.605)" fill="#aca6a5"/>
                  <path id="패스_834" data-name="패스 834" d="M19.489,21.522l-.014-.008L.053,14.563l.029-.086,19.408,6.951,19.379-6.994.029.086Z" transform="translate(-0.046 14.749)" fill="#aca6a5"/>
                  <path id="패스_835" data-name="패스 835" d="M19.489,21.939l-.023-.008L.053,14.7l.029-.086,19.408,7.221,19.379-7.272.029.088Z" transform="translate(-0.046 14.89)" fill="#aca6a5"/>
                  <path id="패스_836" data-name="패스 836" d="M19.489,22.351l-.023-.008L.053,14.834l.029-.086,19.408,7.5L38.868,14.7l.029.086Z" transform="translate(-0.046 15.036)" fill="#aca6a5"/>
                  <path id="패스_837" data-name="패스 837" d="M19.489,22.768l-.023-.008L.053,14.976l.029-.086,19.408,7.778,19.379-7.829.035.088Z" transform="translate(-0.046 15.177)" fill="#aca6a5"/>
                  <path id="패스_838" data-name="패스 838" d="M19.489,23.173l-.023-.006L.053,15.105l.029-.086,19.408,8.06,19.379-8.1.035.08Z" transform="translate(-0.046 15.322)" fill="#aca6a5"/>
                  <path id="패스_839" data-name="패스 839" d="M19.492,23.589.049,15.239l.035-.08,19.408,8.335L38.871,15.11l.035.086Z" transform="translate(-0.049 15.464)" fill="#aca6a5"/>
                  <path id="패스_840" data-name="패스 840" d="M19.492,24,19.472,24,.049,15.376l.035-.086L19.492,23.9l19.379-8.654.035.08Z" transform="translate(-0.049 15.609)" fill="#aca6a5"/>
                  <path id="패스_841" data-name="패스 841" d="M19.492,24.417l-.021-.006L.049,15.51l.043-.08,19.4,8.886,19.379-8.936.035.086Z" transform="translate(-0.049 15.75)" fill="#aca6a5"/>
                  <path id="패스_842" data-name="패스 842" d="M19.492,24.83l-.021-.006L.049,15.648l.043-.086,19.4,9.168,19.379-9.211.035.08Z" transform="translate(-0.049 15.896)" fill="#aca6a5"/>
                  <path id="패스_843" data-name="패스 843" d="M19.492,25.246l-.021-.008L.049,15.782l.043-.08,19.4,9.444,19.371-9.493.043.086Z" transform="translate(-0.049 16.037)" fill="#aca6a5"/>
                  <path id="패스_844" data-name="패스 844" d="M19.492,25.659.049,15.919l.043-.086,19.4,9.725,19.371-9.769.043.08Z" transform="translate(-0.049 16.182)" fill="#aca6a5"/>
                  <path id="패스_845" data-name="패스 845" d="M19.492,26.075l-.021-.014L.049,16.054l.043-.08,19.4,9.993L38.863,15.922l.043.08Z" transform="translate(-0.049 16.323)" fill="#aca6a5"/>
                  <path id="패스_846" data-name="패스 846" d="M19.492,26.481l-.021-.008L.049,16.183l.043-.08,19.4,10.277L38.863,16.06l.043.08Z" transform="translate(-0.049 16.468)" fill="#aca6a5"/>
                  <path id="패스_847" data-name="패스 847" d="M19.492,26.9l-.021-.006L.049,16.324l.043-.08L19.492,26.8l19.371-10.6.043.08Z" transform="translate(-0.049 16.61)" fill="#aca6a5"/>
                  <path id="패스_848" data-name="패스 848" d="M19.492,27.309l-.021-.006L.049,16.454l.043-.08,19.4,10.834L38.863,16.331l.043.08Z" transform="translate(-0.049 16.755)" fill="#aca6a5"/>
                </g>
              </g>
            </g>
          </g>
        </g>
        <path id="패스_849" data-name="패스 849" d="M14.007,33.838l4.128-2.381V6.009l-4.128-2.4Z" transform="translate(14.799 3.817)" fill="#fff"/>
        <g id="그룹_1018" data-name="그룹 1018" transform="translate(0 0)">
          <g id="그룹_1017" data-name="그룹 1017" clip-path="url(#clip-path-2)">
            <path id="패스_850" data-name="패스 850" d="M8.051,7.443C5.328,6.429,3.193,9.065,3,13.156c-.189,4.012,1.534,8.625,4.1,10.567,2.918,2.194,5.874.247,6.229-4.744.362-5.1-2.188-10.384-5.287-11.535m2.384,13.534c-.95,1.232-2.34,1.3-3.628.066a8.639,8.639,0,0,1-2.2-4.576c-.187-.117-.376-.232-.566-.348a.385.385,0,0,1-.093-.4c.354-.666.724-1.347,1.092-2.034.066-.117.189-.051.232.121q.435,1.607.884,3.26a.256.256,0,0,1-.029.253.082.082,0,0,1-.117.023c-.173-.109-.348-.218-.52-.319.73,2.694,2.867,4.329,4.1,2.657.411-.566,1.259.738.825,1.3Zm1.491-5.213q-.771,1.172-1.505,2.3c-.08.123-.232.037-.3-.167-.354-1.209-.7-2.4-1.049-3.576A.3.3,0,0,1,9.1,14.04.093.093,0,0,1,9.232,14c.21.109.428.218.646.327-.841-2.9-3.085-4.128-4.187-2.266-.339.578-1.006-.465-.672-1.043a2.165,2.165,0,0,1,3.352-.89,7.69,7.69,0,0,1,2.657,4.779c.247.121.5.253.755.376a.4.4,0,0,1,.13.477Z" transform="translate(3.159 7.634)" fill="#8dc162"/>
            <path id="패스_851" data-name="패스 851" d="M9.609,9.518v8.2l17.61-4V9.865Z" transform="translate(10.153 10.056)" fill="#fff"/>
            <rect id="사각형_15730" data-name="사각형 15730" width="0.21" height="41.654" transform="translate(19.552 2.005)" fill="#6ea34a"/>
            <rect id="사각형_15731" data-name="사각형 15731" width="0.21" height="41.654" transform="translate(19.334 2.005)" fill="#6ea34a"/>
            <path id="패스_852" data-name="패스 852" d="M19.552,2.108l17.7,10.209V32.775L19.543,43.021,1.824,32.8V12.348Zm0-2.108L0,11.3V33.853L19.552,45.115l19.523-11.3V11.26Z" transform="translate(0 0)" fill="#392e2d"/>
          </g>
        </g>
      </g>
    </g>
  </g>
</svg>
