<svg xmlns="http://www.w3.org/2000/svg" xmlns:xlink="http://www.w3.org/1999/xlink" width="24" height="24" viewBox="0 0 24 24">
  <defs>
    <clipPath id="clip-path">
      <rect id="mask" width="24" height="24" transform="translate(-2 -2.063)" fill="#121212"/>
    </clipPath>
  </defs>
  <g id="ico_system" transform="translate(2 2.063)" clip-path="url(#clip-path)">
    <g id="img" transform="translate(1.667 1.604)">
      <path id="pass6" d="M24.735.606A.6.6,0,0,0,24.129,0h-6.7a.632.632,0,0,0-.642.606V4.385h7.949Z" transform="translate(-16.202)" fill="#121212"/>
      <path id="pass5" d="M8.855,145.525l.214-.57A.388.388,0,0,0,9,144.562a.439.439,0,0,0-.356-.178H.442a.439.439,0,0,0-.356.178.5.5,0,0,0-.071.392l.214.57v.036a.463.463,0,0,0,.428.285H8.427a.514.514,0,0,0,.428-.321" transform="translate(0 -139.358)" fill="#121212"/>
      <path id="pass4" d="M262.686,316.416H256.02a.632.632,0,0,0-.642.606V320.8h7.914v-3.743A.571.571,0,0,0,262.686,316.416Z" transform="translate(-246.488 -305.401)" fill="#121212"/>
      <path id="pass3" d="M247.661,458.93a.439.439,0,0,0-.356-.178h-8.27a.439.439,0,0,0-.356.178.5.5,0,0,0-.071.392l.214.535v.036a.463.463,0,0,0,.428.285h7.771a.463.463,0,0,0,.428-.285v-.036l.214-.57c.107-.071.071-.214,0-.357" transform="translate(-230.286 -442.782)" fill="#121212"/>
      <path id="pass2" d="M263.35,27.922a.267.267,0,0,0,.25.214l.285.036c0,.036,0,.036.036.071l-.178.214a.267.267,0,0,0,0,.321,2.741,2.741,0,0,0,.642.642.229.229,0,0,0,.321-.036l.214-.178c.036,0,.036.036.071.036l.036.285a.306.306,0,0,0,.214.25,1.544,1.544,0,0,1,.178.036v4.848h.535V29.847a.393.393,0,0,0,.392-.285l.036-.285c.036,0,.036-.036.071-.036l.214.178a.347.347,0,0,0,.321.036,2.741,2.741,0,0,0,.642-.642.229.229,0,0,0-.036-.321l-.178-.214c0-.036.036-.036.036-.071l.285-.036a.306.306,0,0,0,.25-.214,2.033,2.033,0,0,0,.036-.463v-.178a.886.886,0,0,0-.036-.285.267.267,0,0,0-.25-.214l-.285-.036c0-.036-.036-.036-.036-.071l.178-.214a.347.347,0,0,0,.036-.321,1.4,1.4,0,0,0-.285-.356,2.5,2.5,0,0,0-.356-.285.266.266,0,0,0-.321,0l-.214.178c-.036,0-.036-.036-.071-.036l-.036-.285a.306.306,0,0,0-.214-.25,2.186,2.186,0,0,0-.962,0c-.036-.036-.143.036-.143.178l-.036.285c-.036,0-.036.036-.071.036l-.214-.178a.267.267,0,0,0-.321,0,2.5,2.5,0,0,0-.356.285,1.4,1.4,0,0,0-.285.356.266.266,0,0,0,0,.321l.178.214c0,.036-.036.036-.036.071l-.25.036a.306.306,0,0,0-.25.214,1.543,1.543,0,0,1-.036.178H260.5v.535h2.816A.529.529,0,0,0,263.35,27.922Zm2.353-1.248a.713.713,0,1,1-.713.713.766.766,0,0,1,.713-.713" transform="translate(-251.43 -24.215)" fill="#121212"/>
      <path id="pass1" d="M29.5,208.679H26.683a.321.321,0,0,0-.036-.178.267.267,0,0,0-.25-.214l-.285-.036c0-.036-.036-.036-.036-.071l.178-.214a.347.347,0,0,0,.036-.321,1.4,1.4,0,0,0-.285-.356c-.107-.107-.25-.214-.356-.321a.226.226,0,0,0-.321.036l-.214.178c-.036,0-.036-.036-.071-.036l-.036-.285a.306.306,0,0,0-.214-.25,1.543,1.543,0,0,1-.178-.036v-4.848h-.606v4.812a.393.393,0,0,0-.392.285l-.036.285c-.036,0-.036.036-.071.036l-.214-.178a.346.346,0,0,0-.321-.036,2.5,2.5,0,0,0-.356.285,1.4,1.4,0,0,0-.285.357.267.267,0,0,0,0,.321l.178.214c0,.036-.036.036-.036.071l-.285.036a.306.306,0,0,0-.25.214.607.607,0,0,0-.036.25v.214a2.033,2.033,0,0,0,.036.463c0,.143.071.25.214.25l.285.036v.036a.035.035,0,0,0,.036.036l-.178.214a.267.267,0,0,0,0,.321,2.741,2.741,0,0,0,.642.642.229.229,0,0,0,.321-.036l.214-.143c.036,0,.036.036.071.036l.036.285a.306.306,0,0,0,.214.25,3.03,3.03,0,0,0,.927,0,.267.267,0,0,0,.214-.25l.036-.285c.036,0,.036-.036.071-.036l.214.178a.346.346,0,0,0,.321.036,2.741,2.741,0,0,0,.642-.642.229.229,0,0,0-.036-.321l-.178-.214c0-.036.036-.036.036-.071l.285-.036a.306.306,0,0,0,.25-.214c0-.071.036-.143.036-.214H29.5Zm-5.2,1.034a.713.713,0,1,1,.713-.713.766.766,0,0,1-.713.713" transform="translate(-21.143 -194.705)" fill="#121212"/>
    </g>
  </g>
</svg>
