<svg xmlns="http://www.w3.org/2000/svg" xmlns:xlink="http://www.w3.org/1999/xlink" width="24" height="24" viewBox="0 0 24 24">
  <defs>
    <clipPath id="clip-path">
      <rect id="mask" width="24" height="24" transform="translate(-2 -3)" fill="#121212" stroke="#121212" stroke-width="1.5"/>
    </clipPath>
  </defs>
  <g id="ico_play" transform="translate(2 3)" clip-path="url(#clip-path)">
    <g id="play" transform="translate(0.5 0.034)">
      <g id="roudn" transform="translate(0 -0.034)" fill="none" stroke="#121212" stroke-width="1">
        <circle cx="9.448" cy="9.448" r="9.448" stroke="none"/>
        <circle cx="9.448" cy="9.448" r="8.948" fill="none"/>
      </g>
      <g id="triangle" transform="translate(14.5 4.966) rotate(90)" fill="#121212">
        <path d="M 7.29015064239502 7.499998092651367 L 1.709850430488586 7.499998092651367 C 1.450990438461304 7.499998092651367 1.321780443191528 7.326858043670654 1.278240442276001 7.25242805480957 C 1.234710454940796 7.177988052368164 1.14715051651001 6.980487823486328 1.274060487747192 6.754868030548096 L 4.064210414886475 1.794597864151001 C 4.193600654602051 1.564567923545837 4.41208028793335 1.539727926254272 4.500000476837158 1.539727926254272 C 4.587920665740967 1.539727926254272 4.806390285491943 1.564567923545837 4.93578052520752 1.794597864151001 L 7.725940704345703 6.754868030548096 C 7.852850437164307 6.980487823486328 7.765290260314941 7.177988052368164 7.721760272979736 7.25242805480957 C 7.678220272064209 7.326858043670654 7.549010276794434 7.499998092651367 7.29015064239502 7.499998092651367 Z" stroke="none"/>
        <path d="M 4.499990463256836 2.039718151092529 L 4.500000476837158 2.039727687835693 L 1.709850311279297 6.999998092651367 L 7.29015064239502 6.999998092651367 C 7.290153503417969 6.999998092651367 7.290153503417969 6.999991416931152 7.290160179138184 6.999998092651367 L 4.499990463256836 2.039718151092529 M 4.499999046325684 1.039730548858643 C 4.840210437774658 1.039730548858643 5.180420398712158 1.209642887115479 5.371570587158203 1.549468040466309 L 8.161730766296387 6.509737968444824 C 8.536690711975098 7.176338195800781 8.054980278015137 7.999998092651367 7.29015064239502 7.999998092651367 L 1.709850311279297 7.999998092651367 C 0.9450206756591797 7.999998092651367 0.4633102416992188 7.176338195800781 0.8382701873779297 6.509737968444824 L 3.628420352935791 1.549468040466309 C 3.819575309753418 1.209642887115479 4.159788131713867 1.039730548858643 4.499999046325684 1.039730548858643 Z" stroke="none" fill="#121212"/>
      </g>
    </g>
  </g>
</svg>
