<svg xmlns="http://www.w3.org/2000/svg" xmlns:xlink="http://www.w3.org/1999/xlink" width="36" height="36" viewBox="0 0 36 36">
  <defs>
    <clipPath id="clip-path">
      <rect id="사각형_15558" data-name="사각형 15558" width="36" height="36" transform="translate(1.5 1.092)" fill="none" stroke="#999" stroke-width="1"/>
    </clipPath>
  </defs>
  <g id="icon_net" transform="translate(-1.5 -1.092)" clip-path="url(#clip-path)">
    <g id="그룹_837" data-name="그룹 837" transform="translate(6 1.592)">
      <path id="패스_581" data-name="패스 581" d="M14.655,1a1,1,0,1,1,0,2c-.532,0-1.385.9-2.091,2.9a25.982,25.982,0,0,0-1.2,8.293,1,1,0,0,1-1,1H2.457a1,1,0,0,1-1-1A13.213,13.213,0,0,1,14.655,1ZM9.377,13.2a26.978,26.978,0,0,1,1.3-7.957,12.284,12.284,0,0,1,.773-1.773A11.225,11.225,0,0,0,3.5,13.2Z" transform="translate(-1.045 -1)" fill="#27ad98"/>
      <path id="패스_582" data-name="패스 582" d="M2.457,14.543h7.907a1,1,0,0,1,1,1,25.982,25.982,0,0,0,1.2,8.293c.706,2.006,1.559,2.9,2.091,2.9a1,1,0,1,1,0,2,13.213,13.213,0,0,1-13.2-13.2A1,1,0,0,1,2.457,14.543Zm6.92,2H3.5a11.224,11.224,0,0,0,7.946,9.729,12.242,12.242,0,0,1-.771-1.773A26.978,26.978,0,0,1,9.377,16.543Z" transform="translate(-1.045 -2.346)" fill="#27ad98"/>
      <path id="패스_583" data-name="패스 583" d="M16,1A13.211,13.211,0,0,1,29.2,14.2a1,1,0,0,1-1,1H20.291a1,1,0,0,1-1-1A25.985,25.985,0,0,0,18.09,5.9C17.385,3.9,16.532,3,16,3a1,1,0,0,1,0-2ZM27.152,13.2a11.224,11.224,0,0,0-7.946-9.73,12.247,12.247,0,0,1,.771,1.773,26.984,26.984,0,0,1,1.3,7.957Z" transform="translate(-2.391 -1)" fill="#27ad98"/>
      <path id="패스_584" data-name="패스 584" d="M16,28.74a1,1,0,0,1,0-2c.532,0,1.384-.9,2.089-2.9a25.985,25.985,0,0,0,1.2-8.293,1,1,0,0,1,1-1H28.2a1,1,0,0,1,1,1A13.211,13.211,0,0,1,16,28.74Zm5.276-12.2a26.982,26.982,0,0,1-1.3,7.957,12.29,12.29,0,0,1-.773,1.773,11.224,11.224,0,0,0,7.948-9.73Z" transform="translate(-2.391 -2.346)" fill="#27ad98"/>
      <path id="패스_585" data-name="패스 585" d="M19.816,15.2h-8.58a1,1,0,0,1-1-1A28,28,0,0,1,11.549,5.24C12.23,3.306,13.473,1,15.527,1c1.133,0,2.743.736,3.976,4.241A28.009,28.009,0,0,1,20.816,14.2,1,1,0,0,1,19.816,15.2Zm-7.566-2H18.8A24.89,24.89,0,0,0,17.616,5.9C16.911,3.9,16.059,3,15.527,3s-1.385.9-2.091,2.9A24.88,24.88,0,0,0,12.25,13.2Z" transform="translate(-1.918 -1)" fill="#27ad98"/>
      <path id="패스_586" data-name="패스 586" d="M11.237,14.543h8.58a1,1,0,0,1,1,1A28,28,0,0,1,19.5,24.5c-.681,1.934-1.923,4.24-3.976,4.24-1.134,0-2.745-.736-3.978-4.241a28.006,28.006,0,0,1-1.313-8.957A1,1,0,0,1,11.237,14.543Zm7.566,2H12.251a24.888,24.888,0,0,0,1.185,7.293c.706,2.006,1.559,2.9,2.091,2.9s1.384-.9,2.089-2.9A24.883,24.883,0,0,0,18.8,16.543Z" transform="translate(-1.918 -2.346)" fill="#27ad98"/>
      <path id="선_239" data-name="선 239" d="M.5,4.521a1,1,0,0,1-1-1V.5a1,1,0,0,1,2,0V3.521A1,1,0,0,1,.5,4.521Z" transform="translate(0.5 30.068)" fill="#27ad98"/>
      <path id="선_240" data-name="선 240" d="M.5,4.521a1,1,0,0,1-1-1V.5a1,1,0,0,1,2,0V3.521A1,1,0,0,1,.5,4.521Z" transform="translate(13.109 30.068)" fill="#27ad98"/>
      <path id="선_241" data-name="선 241" d="M.5,4.521a1,1,0,0,1-1-1V.5a1,1,0,0,1,2,0V3.521A1,1,0,0,1,.5,4.521Z" transform="translate(25.718 30.068)" fill="#27ad98"/>
    </g>
  </g>
</svg>
