<svg xmlns="http://www.w3.org/2000/svg" xmlns:xlink="http://www.w3.org/1999/xlink" width="20" height="20" viewBox="0 0 20 20">
  <defs>
    <clipPath id="clip-path">
      <rect id="mask" width="20" height="20" fill="#999"/>
    </clipPath>
  </defs>
  <g id="icon-locked2" clip-path="url(#clip-path)">
    <path id="passs" d="M10.243,6.6a.409.409,0,0,0,.023-.115V3.8A3.844,3.844,0,0,0,6.137,0a3.844,3.844,0,0,0-4.13,3.8v2.69a.4.4,0,0,0,.023.114A4.15,4.15,0,0,0,0,10.163v2.348a4.167,4.167,0,0,0,4.167,4.167H8.106a4.167,4.167,0,0,0,4.167-4.167V10.163A4.151,4.151,0,0,0,10.243,6.6m-3.69,5.983H5.72v-2.5h.833ZM4.167,6a4.113,4.113,0,0,0-1.326.236V3.8A3.041,3.041,0,0,1,6.137.833,3.04,3.04,0,0,1,9.433,3.8V6.233A4.123,4.123,0,0,0,8.106,6Z" transform="translate(4.167 1.667)" fill="#999"/>
  </g>
</svg>
