<svg xmlns="http://www.w3.org/2000/svg" xmlns:xlink="http://www.w3.org/1999/xlink" width="24" height="24" viewBox="0 0 24 24">
  <defs>
    <clipPath id="clip-path">
      <rect id="사각형_15476" data-name="사각형 15476" width="24" height="24" transform="translate(0 -0.176)" fill="none" stroke="#707070" stroke-width="1"/>
    </clipPath>
  </defs>
  <g id="icon_setting" transform="translate(0 0.176)" clip-path="url(#clip-path)">
    <path id="패스_449" data-name="패스 449" d="M18.252,8.706l-.5-1.225a22.349,22.349,0,0,0,1.07-2.81L17.263,3.12A21.186,21.186,0,0,0,14.5,4.248l-1.223-.505A22.255,22.255,0,0,0,12.052,1H9.857A21.224,21.224,0,0,0,8.7,3.751l-1.221.5a22.47,22.47,0,0,0-2.811-1.07L3.121,4.739A21.287,21.287,0,0,0,4.249,7.5l-.5,1.223A22.722,22.722,0,0,0,1,9.946v2.2A21.029,21.029,0,0,0,3.751,13.3l.5,1.221a22.643,22.643,0,0,0-1.072,2.809l1.555,1.554A21.5,21.5,0,0,0,7.5,17.752l1.224.507A22.085,22.085,0,0,0,9.949,21h2.194A21.082,21.082,0,0,0,13.3,18.249l1.225-.505a22.587,22.587,0,0,0,2.806,1.072l1.555-1.553A21.15,21.15,0,0,0,17.751,14.5l.5-1.224A22.44,22.44,0,0,0,21,12.052v-2.2A21.078,21.078,0,0,0,18.252,8.706ZM14.207,11A3.206,3.206,0,1,1,11,7.8,3.211,3.211,0,0,1,14.207,11Z" transform="translate(1 0.824)" fill="none" stroke="#121212" stroke-miterlimit="10" stroke-width="1"/>
  </g>
</svg>
