<svg xmlns="http://www.w3.org/2000/svg" xmlns:xlink="http://www.w3.org/1999/xlink" width="36" height="36" viewBox="0 0 36 36">
  <defs>
    <clipPath id="clip-path">
      <rect id="사각형_15556" data-name="사각형 15556" width="36" height="36" transform="translate(5214 1665)" fill="#999"/>
    </clipPath>
  </defs>
  <g id="icon_os" transform="translate(-5214 -1665)" clip-path="url(#clip-path)">
    <g id="icon" transform="translate(5213.981 1664.982)">
      <path id="타원_91" data-name="타원 91" d="M17.518-.5A18.018,18.018,0,1,1-.5,17.518,18.039,18.039,0,0,1,17.518-.5Zm0,34.037A16.018,16.018,0,1,0,1.5,17.518,16.037,16.037,0,0,0,17.518,33.537Z" transform="translate(0.5 0.5)" fill="#27ad98"/>
      <g id="Page-1" transform="translate(12.529 13.693)">
        <g id="_023---OS-Solutions" data-name="023---OS-Solutions">
          <path id="Path" d="M31.311,25.034A2.413,2.413,0,0,0,28.9,22.624a1.033,1.033,0,1,1,0-2.066h1.033a.689.689,0,1,0,0-1.377H28.9A2.411,2.411,0,1,0,28.9,24a1.033,1.033,0,0,1,0,2.066H27.179a.689.689,0,1,0,0,1.377H28.9A2.413,2.413,0,0,0,31.311,25.034Z" transform="translate(-20.291 -19.18)" fill="#27ad98"/>
          <path id="Shape" d="M19.9,19.18a2.413,2.413,0,0,0-2.411,2.411v3.444a2.411,2.411,0,0,0,4.821,0V21.591A2.413,2.413,0,0,0,19.9,19.18Zm1.033,5.854a1.033,1.033,0,1,1-2.066,0V21.591a1.033,1.033,0,1,1,2.066,0Z" transform="translate(-17.49 -19.18)" fill="#27ad98"/>
        </g>
      </g>
      <path id="Path-2" data-name="Path" d="M31.262,40.037A1.706,1.706,0,0,1,30.4,39.8a1.687,1.687,0,0,1-.8-1.155l-.586-3.331a1,1,0,1,1,1.97-.347l.522,2.968a11.456,11.456,0,0,0,6.755-6.761l-2.97-.51a1,1,0,1,1,.339-1.971l3.327.572a1.7,1.7,0,0,1,1.158.8,1.719,1.719,0,0,1,.161,1.411l0,.01a13.456,13.456,0,0,1-8.456,8.463A1.7,1.7,0,0,1,31.262,40.037Z" transform="translate(-9.196 -9.1)" fill="#27ad98"/>
      <path id="Path-3" data-name="Path" d="M12.229,18.391a1.006,1.006,0,0,1-.171-.015l-3.327-.572a1.692,1.692,0,0,1-1.158-.792A1.721,1.721,0,0,1,7.412,15.6l0-.01a13.456,13.456,0,0,1,8.456-8.463,1.705,1.705,0,0,1,1.413.147,1.687,1.687,0,0,1,.8,1.155l.586,3.331a1,1,0,0,1-1.97.347l-.522-2.968A11.456,11.456,0,0,0,9.427,15.9l2.97.51a1,1,0,0,1-.168,1.986Z" transform="translate(-2.453 -2.362)" fill="#27ad98"/>
    </g>
  </g>
</svg>
