<svg width="18" height="12" viewBox="0 0 18 12" fill="none" xmlns="http://www.w3.org/2000/svg">
<path d="M18 6.13506C18 6.3449 17.9186 6.54667 17.764 6.70809L13.3937 11.0421C13.0763 11.3569 12.5636 11.3569 12.2462 11.0421C11.9288 10.7274 11.9288 10.2189 12.2462 9.90413L16.0387 6.13506L12.238 2.37406C11.9207 2.0593 11.9207 1.55083 12.238 1.23607C12.5554 0.921309 13.0682 0.921309 13.3856 1.23607L17.7558 5.5701C17.9186 5.73152 17.9919 5.93329 17.9919 6.14313L18 6.13506Z" fill="#6E6F72"/>
<path d="M6 5.99602C6 6.20586 5.91862 6.40763 5.76399 6.56905L1.39369 10.9031C1.0763 11.2178 0.563581 11.2178 0.246185 10.9031C-0.0712106 10.5883 -0.0712106 10.0799 0.246185 9.7651L4.03866 5.99602L0.238047 2.23502C-0.0793489 1.92026 -0.0793489 1.4118 0.238047 1.09703C0.555443 0.782271 1.06816 0.782271 1.38555 1.09703L5.75585 5.43106C5.91862 5.59248 5.99186 5.79425 5.99186 6.00409L6 5.99602Z" fill="#2772FB"/>
</svg>
