<svg width="137" height="28" viewBox="0 0 137 28" fill="none" xmlns="http://www.w3.org/2000/svg">
<g clip-path="url(#clip0_1584_4493)">
<path d="M6.6289 15.8659C6.6289 15.6084 6.55749 15.3984 6.41071 15.236C6.26394 15.0736 6.07749 14.9389 5.84344 14.8319C5.60939 14.7249 5.33964 14.6299 5.03815 14.5506C4.73666 14.4714 4.42327 14.3843 4.10195 14.2931C3.72906 14.1822 3.38393 14.0475 3.05864 13.897C2.73732 13.7464 2.45566 13.5603 2.22161 13.3384C1.9836 13.1166 1.79715 12.8472 1.66227 12.5342C1.5274 12.2213 1.45996 11.8568 1.45996 11.4408C1.45996 10.914 1.5631 10.4307 1.76541 9.99885C1.96773 9.56309 2.25732 9.1907 2.63418 8.8817C3.01104 8.57271 3.46327 8.33502 3.99484 8.16467C4.52641 7.99829 5.12146 7.91113 5.776 7.91113C6.47419 7.91113 7.16444 7.98244 7.85072 8.12506C8.537 8.26767 9.13998 8.44594 9.65965 8.65986L9.27882 10.3673C8.61237 10.1137 8.01733 9.93151 7.49369 9.82058C6.97005 9.70966 6.44642 9.6542 5.91881 9.6542C5.21666 9.6542 4.66526 9.79681 4.26856 10.0741C3.87187 10.3554 3.67352 10.7317 3.67352 11.2032C3.67352 11.4567 3.72509 11.6706 3.8322 11.8489C3.9393 12.0271 4.08211 12.1737 4.25666 12.2965C4.43517 12.4193 4.64145 12.5223 4.88344 12.6095C5.12542 12.6966 5.37534 12.7798 5.64113 12.8591C6.02592 12.97 6.41071 13.0928 6.79154 13.2196C7.17634 13.3503 7.52146 13.5167 7.82692 13.7187C8.13237 13.9208 8.38229 14.1862 8.5727 14.5071C8.76312 14.8279 8.85436 15.2241 8.85436 15.6955C8.85436 16.3056 8.73138 16.8523 8.48543 17.3356C8.23948 17.8189 7.89039 18.2269 7.43815 18.5637C6.98592 18.9004 6.43848 19.1579 5.79584 19.3322C5.15319 19.5065 4.43517 19.5976 3.64178 19.5976C3.22922 19.5976 2.83252 19.5738 2.4517 19.5223C2.07087 19.4708 1.72178 19.4075 1.40442 19.3322C1.08707 19.2569 0.809379 19.1737 0.567395 19.0786C0.325411 18.9875 0.134998 18.8964 -0.0078125 18.8132L0.365081 17.1137C0.813346 17.3197 1.32112 17.498 1.88046 17.6406C2.4398 17.7832 3.03484 17.8545 3.66162 17.8545C4.10988 17.8545 4.51848 17.811 4.87947 17.7198C5.24443 17.6287 5.55385 17.502 5.8117 17.3356C6.06956 17.1692 6.2679 16.9632 6.41071 16.7136C6.55352 16.464 6.62493 16.1828 6.62493 15.8659H6.6289Z" fill="#090A11"/>
<path d="M18.1766 7.91124C18.7954 7.91124 19.3865 7.96274 19.9498 8.06574C20.5092 8.16874 21.009 8.29947 21.4454 8.45793L21.0725 10.1574C20.5766 9.98312 20.1045 9.85635 19.6602 9.77316C19.2159 9.68996 18.7716 9.65035 18.3273 9.65035C17.7601 9.65035 17.2325 9.72166 16.7405 9.86031C16.2486 9.99896 15.8162 10.197 15.4394 10.4466C15.0625 10.6962 14.7333 10.9893 14.4516 11.33C14.17 11.6707 13.9399 12.0391 13.7574 12.4353C13.5749 12.8354 13.4361 13.2514 13.3448 13.6911C13.2536 14.1308 13.206 14.5706 13.206 15.0142C13.206 15.9531 13.4202 16.6583 13.8447 17.1337C14.2691 17.609 14.9078 17.8507 15.7607 17.8507C16.1495 17.8507 16.5144 17.8111 16.8556 17.7279C17.1967 17.6447 17.4982 17.5179 17.7601 17.3397C18.0219 17.1614 18.244 16.9356 18.4305 16.6543C18.6129 16.373 18.7478 16.0363 18.8311 15.6441L18.9462 15.0816H16.2963L16.6691 13.3544H21.489L20.9416 15.8699C20.7829 16.5949 20.529 17.1931 20.1878 17.6724C19.8467 18.1478 19.4341 18.5281 18.962 18.8133C18.486 19.0946 17.9584 19.2966 17.3792 19.4155C16.8001 19.5343 16.1931 19.5938 15.5624 19.5938C14.9316 19.5938 14.3009 19.4987 13.7495 19.3085C13.1981 19.1184 12.7181 18.8371 12.3174 18.4608C11.9167 18.0884 11.6033 17.6249 11.3772 17.0703C11.1511 16.5196 11.04 15.8779 11.04 15.1569C11.04 14.4874 11.1114 13.8456 11.2582 13.2236C11.405 12.6017 11.6152 12.0273 11.8969 11.4885C12.1786 10.9537 12.5237 10.4625 12.9323 10.0227C13.3448 9.583 13.8129 9.20666 14.3405 8.88974C14.8681 8.57678 15.4553 8.33116 16.0979 8.16082C16.7405 7.99047 17.4348 7.90332 18.1806 7.90332L18.1766 7.91124Z" fill="#090A11"/>
<path d="M29.9623 16.5155H25.7534L24.115 19.3876H21.7031L28.316 8.125H30.3352L32.7471 19.3876H30.5296L29.9623 16.5155ZM26.7451 14.7883H29.6251L29.3871 13.576C29.1927 12.6055 29.0341 11.7062 28.919 10.8743H28.8674C28.4469 11.7617 27.9947 12.6292 27.5028 13.477L26.7491 14.7922L26.7451 14.7883Z" fill="#090A11"/>
<path d="M37.3807 18.2468L45.1281 9.84441H39.2332L39.6061 8.11719H48.4326L48.1866 9.26207L40.4392 17.6565H46.6157L46.2428 19.3837H37.1069L37.3807 18.2468Z" fill="#090A11"/>
<path d="M53.3436 19.3837H51.1816L53.2642 9.84832H49.5432L49.9082 8.12109H59.5241L59.1512 9.84832H55.4302L53.3475 19.3837H53.3436Z" fill="#090A11"/>
<path d="M65.4745 16.5155H61.2656L59.6272 19.3876H57.2153L63.8282 8.125H65.8474L68.2593 19.3876H66.0418L65.4745 16.5155ZM62.2573 14.7883H65.1373L64.8993 13.576C64.7049 12.6055 64.5463 11.7062 64.4312 10.8743H64.3796C63.9591 11.7617 63.5069 12.6292 63.015 13.477L62.2613 14.7922L62.2573 14.7883Z" fill="#090A11"/>
<path d="M62.5905 2.95925C62.289 2.95925 62.0193 3.06621 61.7971 3.23656C59.2821 1.14488 56.1482 0 52.8358 0C49.091 0 45.5683 1.45784 42.9224 4.10017C42.8351 4.18732 42.8351 4.32994 42.9224 4.41709C43.0097 4.50425 43.1525 4.50425 43.2397 4.41709C45.8024 1.85795 49.21 0.447651 52.8358 0.447651C56.0332 0.447651 59.0639 1.54895 61.4917 3.56537C61.3647 3.7674 61.2854 4.00509 61.2854 4.25863C61.2854 4.97567 61.8686 5.55801 62.5866 5.55801C63.3046 5.55801 63.8877 4.97567 63.8877 4.25863C63.8877 3.5416 63.3046 2.95925 62.5866 2.95925H62.5905Z" fill="#090A11"/>
<path d="M62.7255 23.2818C60.1311 26.035 56.6203 27.5523 52.8358 27.5523C49.5552 27.5523 46.457 26.3955 43.9975 24.2761C44.1324 24.0701 44.2117 23.8285 44.2117 23.563C44.2117 22.846 43.6286 22.2637 42.9105 22.2637C42.1925 22.2637 41.6094 22.846 41.6094 23.563C41.6094 24.2801 42.1925 24.8624 42.9105 24.8624C43.2041 24.8624 43.4699 24.7634 43.6881 24.601C46.2309 26.7956 49.4441 27.9999 52.8398 27.9999C56.7473 27.9999 60.377 26.4312 63.0547 23.5868C63.142 23.4957 63.134 23.3531 63.0468 23.2699C62.9555 23.1867 62.8127 23.1907 62.7294 23.2778L62.7255 23.2818Z" fill="#090A11"/>
</g>
<g clip-path="url(#clip1_1584_4493)">
<path fill-rule="evenodd" clip-rule="evenodd" d="M107.842 9.95301C109.219 9.95301 110.263 10.7801 110.364 12.0838H110.368L110.37 12.1081L110.373 12.1582L110.373 12.1583L110.373 12.1585C110.378 12.2338 110.382 12.2797 110.376 12.3162H112.335C112.343 12.2335 112.351 12.1468 112.343 12.005C112.242 9.70488 110.453 8.18457 107.97 8.18457C104.458 8.18457 102.029 11.0243 102.029 14.9787C102.029 17.9287 103.849 19.8153 106.693 19.8153C109.149 19.8153 111.109 18.299 111.649 15.9909H109.689C109.227 17.2631 108.129 18.0351 106.775 18.0351C105.09 18.0351 104.062 16.8338 104.062 14.8763C104.062 12.0208 105.607 9.95301 107.842 9.95301ZM75.6837 12.9109H74.372L74.6864 11.3906H75.9786L76.1493 10.5084C76.4637 8.9014 77.3989 8.20033 79.1296 8.20033C79.6147 8.20033 80.0299 8.26334 80.352 8.33424L80.0687 9.74033C79.9135 9.69307 79.5991 9.66156 79.3236 9.66156C78.5553 9.66156 78.1323 9.99634 77.9926 10.6974L77.8607 11.3906H79.6379L79.3314 12.9109H77.5774L76.1881 19.6263H74.2944L75.6837 12.9109ZM87.2205 14.8527C87.2205 17.6688 85.3462 19.7996 82.8161 19.7996C80.643 19.7996 79.2266 18.3265 79.2266 16.1091C79.2266 13.3008 81.1009 11.17 83.631 11.17C85.8041 11.17 87.2205 12.6352 87.2205 14.8527ZM85.3152 14.9078C85.3152 13.6199 84.64 12.777 83.5845 12.777C82.1642 12.777 81.132 14.187 81.132 16.0618C81.132 17.3498 81.8072 18.1926 82.8627 18.1926C84.2674 18.1926 85.3152 16.7668 85.3152 14.9078ZM91.1554 11.3434H89.3509V11.3512L87.6125 19.6342H89.4868L90.4569 15.0378C90.7479 13.679 91.4464 12.9779 92.6843 12.9779C93.0995 12.9779 93.5303 13.0763 93.7748 13.1945L94.1512 11.4142C93.9222 11.304 93.5691 11.2173 93.1539 11.2173C92.1721 11.2173 91.4348 11.7175 90.973 12.4737H90.9264L91.1554 11.3434ZM97.2517 19.6263L99.6111 8.36969H101.61L99.2502 19.6263H97.2517ZM119.122 16.7511H115.017L113.449 19.6302H111.311L117.64 8.36969H119.891L121.42 19.6263H119.46L119.122 16.7472V16.7511ZM115.828 15.1599H118.971L118.401 10.4493H118.354L115.824 15.1599H115.828ZM124.943 8.36969L122.584 19.6263H122.588H124.392L126.107 11.4497H126.162L127.621 19.5711H129.018L133.907 11.4497H133.977L132.246 19.6263H134.051L136.41 8.36969H133.934L128.793 17.0071H128.754L127.186 8.36969H124.943Z" fill="url(#paint0_linear_1584_4493)"/>
</g>
<defs>
<linearGradient id="paint0_linear_1584_4493" x1="76.4487" y1="15.9384" x2="136.405" y2="16.6034" gradientUnits="userSpaceOnUse">
<stop stop-color="#2E6AF7"/>
<stop offset="1" stop-color="#6022D4"/>
</linearGradient>
<clipPath id="clip0_1584_4493">
<rect width="68.2554" height="28" fill="white"/>
</clipPath>
<clipPath id="clip1_1584_4493">
<rect width="62.1159" height="11.6308" fill="white" transform="translate(74.2944 8.18457)"/>
</clipPath>
</defs>
</svg>
