<svg width="18" height="18" viewBox="0 0 18 18" fill="none" xmlns="http://www.w3.org/2000/svg">
<path d="M11.0521 17.6006C10.8284 17.6006 10.6526 17.4248 10.6526 17.2011V12.4075C10.6526 12.1838 10.8284 12.0081 11.0521 12.0081H15.8457C16.0694 12.0081 16.2451 12.1838 16.2451 12.4075C16.2451 12.6312 16.0694 12.807 15.8457 12.807H11.4515V17.2011C11.4515 17.4248 11.2758 17.6006 11.0521 17.6006Z" fill="#304B79"/>
<path d="M11.0519 18H2.79893C2.35952 18 2 17.6405 2 17.2011V0.798935C2 0.359521 2.35952 0 2.79893 0H15.8456C16.285 0 16.6445 0.359521 16.6445 0.798935V12.4075C16.6445 12.6232 16.5566 12.8229 16.4128 12.9747L11.6192 17.7683C11.4674 17.9201 11.2677 18 11.0519 18ZM3.59787 16.4021H10.7244L15.0466 12.0799V1.60584H3.59787V16.4021Z" fill="#304B79"/>
<path d="M11.8749 7.89346H6.77769C6.33828 7.89346 5.97876 7.53394 5.97876 7.09453C5.97876 6.65511 6.33828 6.29559 6.77769 6.29559H11.8749C12.3143 6.29559 12.6738 6.65511 12.6738 7.09453C12.6738 7.53394 12.3143 7.89346 11.8749 7.89346Z" fill="#304B79"/>
<path d="M9.32603 10.4421C8.88662 10.4421 8.5271 10.0825 8.5271 9.64313V4.54594C8.5271 4.10653 8.88662 3.74701 9.32603 3.74701C9.76545 3.74701 10.125 4.10653 10.125 4.54594V9.64313C10.125 10.0825 9.76545 10.4421 9.32603 10.4421Z" fill="#304B79"/>
</svg>
