<svg width="14" height="35" viewBox="0 0 14 35" fill="none" xmlns="http://www.w3.org/2000/svg">
<path d="M13.1202 2.47146H3.48154C3.0947 2.47146 2.77234 2.78308 2.77234 3.18066V15.3015C2.77234 15.6884 3.0947 16.0107 3.48154 16.0107H9.58497C9.77838 16.0107 9.95031 15.9355 10.09 15.8066L13.636 12.2606C13.765 12.1316 13.8402 11.949 13.8402 11.7555V3.16991C13.8294 2.78308 13.5071 2.47146 13.1202 2.47146ZM11.7018 12.1639L9.98255 13.8831V12.1639H11.7018ZM9.16589 11.7555V14.5923H4.19074V3.87911H12.411V11.3365H9.57422C9.34856 11.3365 9.16589 11.5191 9.16589 11.7555Z" fill="#727376"/>
<path d="M11.0571 0.709201C11.0571 0.322364 10.7347 0 10.3479 0H1.3002C0.580255 0 0 0.580255 0 1.3002V13.1847C0 13.5715 0.322364 13.8939 0.709201 13.8939C1.09604 13.8939 1.4184 13.5715 1.4184 13.1847V1.4184H10.3479C10.7347 1.4184 11.0571 1.09604 11.0571 0.709201Z" fill="#727376"/>
<path d="M13.1202 20.4715H3.48154C3.0947 20.4715 2.77234 20.7831 2.77234 21.1807V33.3015C2.77234 33.6884 3.0947 34.0107 3.48154 34.0107H9.58497C9.77838 34.0107 9.95031 33.9355 10.09 33.8066L13.636 30.2606C13.765 30.1316 13.8402 29.949 13.8402 29.7555V21.1699C13.8294 20.7831 13.5071 20.4715 13.1202 20.4715ZM11.7018 30.1639L9.98255 31.8831V30.1639H11.7018ZM9.16589 29.7555V32.5923H4.19074V21.8791H12.411V29.3365H9.57422C9.34856 29.3365 9.16589 29.5191 9.16589 29.7555Z" fill="#1995E3"/>
<path d="M11.0571 18.7092C11.0571 18.3224 10.7347 18 10.3479 18H1.3002C0.580255 18 0 18.5803 0 19.3002V31.1847C0 31.5715 0.322364 31.8939 0.709201 31.8939C1.09604 31.8939 1.4184 31.5715 1.4184 31.1847V19.4184H10.3479C10.7347 19.4184 11.0571 19.096 11.0571 18.7092Z" fill="#1995E3"/>
</svg>