<svg width="16" height="71" viewBox="0 0 16 71" fill="none" xmlns="http://www.w3.org/2000/svg">
<g clip-path="url(#clip0)">
<path d="M13.81 26.59C13.81 26.73 13.77 26.88 13.68 27C13.45 27.31 13.01 27.38 12.7 27.15L8 23.74L3.31 27.15C2.99 27.39 2.56 27.32 2.33 27C2.1 26.69 2.17 26.25 2.48 26.02L7.59 22.31C7.84 22.13 8.17 22.13 8.41 22.31L13.52 26.02C13.71 26.16 13.81 26.37 13.81 26.59Z" fill="#2772FB"/>
<path d="M8.7 22.88V34.19C8.7 34.58 8.39 34.89 8 34.89C7.61 34.89 7.3 34.58 7.3 34.19V22.88C7.3 22.49 7.61 22.18 8 22.18C8.39 22.17 8.7 22.49 8.7 22.88Z" fill="#2772FB"/>
<path d="M16 19.59C16 19.98 15.64 20.29 15.2 20.29H0.8C0.36 20.29 0 19.98 0 19.59C0 19.2 0.36 18.89 0.8 18.89H15.2C15.64 18.89 16 19.2 16 19.59Z" fill="#2772FB"/>
<path d="M1.58 13.1C1.4 13.1 1.23 13.03 1.11 12.9C0.970001 12.76 0.900001 12.58 0.910001 12.39L1.08 9.44C1.09 9.27 1.16 9.11 1.28 9L10.08 0.2C10.2 0.07 10.37 0 10.55 0C10.73 0 10.9 0.07 11.02 0.2L13.8 2.98C13.93 3.1 14 3.27 14 3.45C14 3.63 13.93 3.8 13.8 3.92L5 12.73C4.88 12.85 4.73 12.92 4.56 12.93L1.61 13.1C1.6 13.1 1.59 13.1 1.58 13.1ZM2.41 9.77L2.3 11.71L4.24 11.6L12.38 3.45L10.55 1.62L2.41 9.77Z" fill="#2772FB"/>
<path d="M11.76 5.07C11.67 5.07 11.59 5.04 11.52 4.97L9.02 2.47C8.9 2.35 8.9 2.13 9.03 2C9.16 1.87 9.37 1.87 9.5 2L12 4.5C12.13 4.63 12.13 4.84 12 4.97C11.93 5.04 11.85 5.07 11.76 5.07Z" fill="#2772FB"/>
<path d="M2.04 10.36C1.98 10.36 1.93 10.36 1.87 10.37C1.81 10.38 1.77 10.39 1.71 10.4L1.59 12.44L3.55 12.32C3.57 12.25 3.59 12.17 3.6 12.09C3.69 11.1 3 10.36 2.04 10.36Z" fill="#2772FB"/>
<path d="M16 15.18C16 15.57 15.64 15.88 15.2 15.88H0.8C0.36 15.88 0 15.57 0 15.18C0 14.79 0.36 14.48 0.8 14.48H15.2C15.64 14.48 16 14.8 16 15.18Z" fill="#2772FB"/>
<path d="M8 52.89C4.13 52.89 0.98 49.74 0.98 45.87C0.98 45.51 1.27 45.21 1.64 45.21C2 45.21 2.3 45.5 2.3 45.87C2.3 49.01 4.86 51.57 8 51.57C11.14 51.57 13.7 49.01 13.7 45.87C13.7 42.73 11.14 40.17 8 40.17C7.64 40.17 7.34 39.88 7.34 39.51C7.34 39.15 7.63 38.85 8 38.85C11.87 38.85 15.02 42 15.02 45.87C15.02 49.74 11.87 52.89 8 52.89Z" fill="#2772FB"/>
<path d="M8.9 42.2C8.72 42.2 8.54 42.13 8.41 41.98L6.62 39.98C6.4 39.73 6.4 39.35 6.62 39.1L8.41 37.1C8.65 36.83 9.07 36.81 9.34 37.05C9.61 37.29 9.63 37.71 9.39 37.98L7.99 39.54L9.39 41.1C9.63 41.37 9.61 41.79 9.34 42.03C9.21 42.15 9.05 42.2 8.9 42.2Z" fill="#2772FB"/>
<path d="M14.92 58.02H1.08C0.71 58.02 0.41 57.72 0.41 57.35C0.41 56.98 0.71 56.68 1.08 56.68H14.93C15.3 56.68 15.6 56.98 15.6 57.35C15.59 57.72 15.29 58.02 14.92 58.02Z" fill="#2772FB"/>
<path d="M9.72 57.63C9.55 56.82 8.83 56.23 8 56.23C7.17 56.23 6.44 56.82 6.28 57.63L4.97 57.36C5.26 55.93 6.53 54.89 8 54.89C9.46 54.89 10.74 55.93 11.03 57.36L9.72 57.63Z" fill="#2772FB"/>
<path d="M3.5 70.89C2.8 70.89 2.22 70.32 2.17 69.6L1.48 58.02C1.46 57.65 1.74 57.34 2.11 57.31C2.49 57.28 2.79 57.57 2.82 57.94L3.51 69.51L12.5 69.55L13.19 57.94C13.21 57.57 13.53 57.29 13.9 57.31C14.27 57.33 14.55 57.65 14.53 58.02L13.84 69.59C13.79 70.32 13.21 70.89 12.51 70.89H3.5Z" fill="#2772FB"/>
<path d="M5.47 68.44C5.12 68.44 4.82 68.17 4.8 67.81L4.36 59.86C4.34 59.49 4.62 59.18 4.99 59.16C5.36 59.13 5.67 59.42 5.69 59.79L6.13 67.74C6.15 68.11 5.87 68.42 5.5 68.44C5.49 68.44 5.48 68.44 5.47 68.44Z" fill="#2772FB"/>
<path d="M10.53 68.44C10.52 68.44 10.5 68.44 10.49 68.44C10.12 68.42 9.84 68.1 9.86 67.74L10.3 59.79C10.32 59.42 10.64 59.13 11 59.16C11.37 59.18 11.65 59.5 11.63 59.86L11.19 67.81C11.18 68.16 10.88 68.44 10.53 68.44Z" fill="#2772FB"/>
<path d="M8 68.44C7.63 68.44 7.33 68.14 7.33 67.77V59.82C7.33 59.45 7.63 59.15 8 59.15C8.37 59.15 8.67 59.45 8.67 59.82V67.77C8.67 68.14 8.37 68.44 8 68.44Z" fill="#2772FB"/>
</g>
<defs>
<clipPath id="clip0">
<rect width="16" height="70.89" fill="white"/>
</clipPath>
</defs>
</svg>
