<svg width="18" height="18" viewBox="0 0 18 18" fill="none" xmlns="http://www.w3.org/2000/svg">
<path d="M5.17999 5.93999C5.93307 5.00012 7.01072 4.37629 8.20077 4.19121C9.39083 4.00613 10.6071 4.27322 11.61 4.93999L10.52 5.12004C10.3856 5.15581 10.2694 5.24024 10.1939 5.35698C10.1183 5.47372 10.0889 5.61442 10.1114 5.75164C10.1339 5.88885 10.2065 6.01284 10.3153 6.09941C10.4241 6.18599 10.5612 6.22894 10.7 6.22002L12.95 5.85002C13.0856 5.82513 13.207 5.75022 13.29 5.64006C13.377 5.53333 13.4199 5.39739 13.41 5.26006L13.28 2.99004C13.2762 2.91688 13.2578 2.84519 13.226 2.77922C13.1941 2.71326 13.1494 2.65432 13.0944 2.60588C13.0394 2.55744 12.9754 2.52045 12.9059 2.49712C12.8365 2.47379 12.7631 2.46459 12.69 2.47002C12.6173 2.47251 12.5458 2.48964 12.4799 2.52043C12.414 2.55123 12.355 2.59505 12.3064 2.64922C12.2579 2.70339 12.2207 2.76687 12.1973 2.83574C12.1739 2.90461 12.1646 2.97755 12.17 3.0501L12.22 4.00005C11.1841 3.31456 9.95931 2.97114 8.718 3.01799C7.47669 3.06485 6.28131 3.49964 5.30002 4.26128C4.31872 5.02292 3.60089 6.07298 3.24751 7.26384C2.89413 8.45471 2.92298 9.72646 3.33 10.9001C3.35259 10.9693 3.3887 11.0333 3.43623 11.0884C3.48376 11.1436 3.54176 11.1887 3.60687 11.2212C3.67199 11.2538 3.74292 11.2732 3.81555 11.2781C3.88818 11.2831 3.96108 11.2735 4.03 11.25C4.17052 11.2022 4.28631 11.1006 4.35194 10.9675C4.41757 10.8343 4.42767 10.6807 4.38 10.5401C4.11177 9.7685 4.04445 8.94133 4.18442 8.13652C4.32438 7.33172 4.66701 6.57571 5.17999 5.93999V5.93999Z" fill="#31334f"/>
<path d="M14.68 7.05991C14.629 6.92363 14.5269 6.81266 14.3954 6.75034C14.2639 6.68802 14.1133 6.67937 13.9755 6.72617C13.8377 6.77297 13.7235 6.87156 13.6572 7.00107C13.5908 7.13058 13.5775 7.28084 13.62 7.42002C13.951 8.37082 13.9765 9.40122 13.6932 10.3673C13.4098 11.3333 12.8316 12.1867 12.0395 12.8081C11.2473 13.4294 10.2809 13.7878 9.27511 13.833C8.26936 13.8781 7.27462 13.6078 6.42999 13.0599L7.42999 12.89C7.56291 12.8643 7.68297 12.7936 7.77 12.6899C7.81921 12.6288 7.85528 12.5582 7.87592 12.4825C7.89657 12.4068 7.90136 12.3276 7.88999 12.25C7.8779 12.1769 7.85143 12.1069 7.81213 12.0442C7.77282 11.9814 7.72146 11.927 7.661 11.8842C7.60055 11.8415 7.53222 11.8112 7.45995 11.795C7.38769 11.7788 7.31293 11.7771 7.24 11.79L4.99999 12.16C4.86489 12.1821 4.74288 12.2537 4.65782 12.3609C4.57275 12.4682 4.53073 12.6034 4.53999 12.74L4.66999 15.02C4.67383 15.0923 4.69188 15.163 4.72312 15.2282C4.75437 15.2935 4.79819 15.3521 4.85208 15.4004C4.90596 15.4487 4.96884 15.4859 5.03712 15.5099C5.1054 15.5338 5.17774 15.5441 5.24999 15.54C5.32357 15.5362 5.39567 15.5178 5.46215 15.4861C5.52864 15.4543 5.58819 15.4098 5.63743 15.355C5.68666 15.3001 5.7246 15.2362 5.74906 15.1667C5.77353 15.0972 5.78404 15.0235 5.77999 14.9499L5.72 13.9499C6.75443 14.6425 7.98005 14.9933 9.22428 14.9527C10.4685 14.9121 11.6687 14.4823 12.6558 13.7237C13.6429 12.9652 14.3672 11.9162 14.7267 10.7243C15.0863 9.5325 15.0629 8.25781 14.66 7.07993L14.68 7.05991Z" fill="#31334f"/>
</svg>
