<svg width="10" height="17" viewBox="0 0 10 17" fill="none" xmlns="http://www.w3.org/2000/svg">
<g clip-path="url(#clip0)">
<path d="M5 5.78461C4.8 5.78461 4.6 5.70769 4.44615 5.55384L0.230769 1.33846C-0.0769231 1.03077 -0.0769231 0.53846 0.230769 0.230767C0.538462 -0.076925 1.03077 -0.076925 1.33846 0.230767L5 3.88461L8.66154 0.223075C8.96923 -0.0846173 9.46154 -0.0846173 9.76923 0.223075C10.0769 0.530767 10.0769 1.02307 9.76923 1.33077L5.55385 5.55384C5.4 5.70769 5.2 5.78461 5 5.78461Z" fill="#4F453C"/>
<path d="M5 10.4923C5.2 10.4923 5.4 10.5692 5.55385 10.7231L9.76923 14.9385C10.0769 15.2462 10.0769 15.7385 9.76923 16.0462C9.46154 16.3538 8.96923 16.3538 8.66154 16.0462L5 12.3846L1.33846 16.0462C1.03077 16.3538 0.538462 16.3538 0.230769 16.0462C-0.0769231 15.7385 -0.0769231 15.2462 0.230769 14.9385L4.44615 10.7231C4.6 10.5692 4.8 10.4923 5 10.4923Z" fill="#4F453C"/>
</g>
<defs>
<clipPath id="clip0">
<rect width="10" height="16.2769" fill="white"/>
</clipPath>
</defs>
</svg>
