<svg width="11" height="14" viewBox="0 0 11 14" fill="none" xmlns="http://www.w3.org/2000/svg">
<g clip-path="url(#clip0_901_2)">
<path d="M0.569977 12.55C0.419606 12.5475 0.276113 12.4866 0.169769 12.3802C0.0634258 12.2739 0.00260151 12.1303 3.05176e-05 11.98V1.30003C3.05176e-05 0.955252 0.136971 0.624519 0.380768 0.380722C0.624565 0.136925 0.955237 -1.52588e-05 1.30002 -1.52588e-05H9.30002C9.6448 -1.52588e-05 9.97547 0.136925 10.2193 0.380722C10.4631 0.624519 10.6 0.955252 10.6 1.30003V10.3C10.6 10.6448 10.4631 10.9754 10.2193 11.2192C9.97547 11.463 9.6448 11.6 9.30002 11.6C9.14965 11.5974 9.00615 11.5365 8.89981 11.4302C8.79347 11.3238 8.73258 11.1804 8.73001 11.03C8.73001 10.8788 8.79005 10.7338 8.89694 10.6269C9.00384 10.52 9.14884 10.4599 9.30002 10.4599C9.34245 10.4599 9.38311 10.4432 9.41312 10.4132C9.44312 10.3832 9.45999 10.3425 9.45999 10.3V1.30003C9.45999 1.27902 9.45589 1.25817 9.44785 1.23875C9.4398 1.21934 9.42797 1.20173 9.41312 1.18687C9.39826 1.17202 9.38065 1.16025 9.36124 1.15221C9.34182 1.14417 9.32103 1.14 9.30002 1.14H1.30002C1.27901 1.14 1.25821 1.14417 1.2388 1.15221C1.21939 1.16025 1.20172 1.17202 1.18686 1.18687C1.172 1.20173 1.16023 1.21934 1.15219 1.23875C1.14415 1.25817 1.13998 1.27902 1.13998 1.30003V11.98C1.13998 12.0548 1.12523 12.1289 1.09659 12.1981C1.06794 12.2673 1.02598 12.3301 0.973053 12.383C0.920124 12.436 0.857272 12.4779 0.788116 12.5066C0.718961 12.5352 0.64483 12.55 0.569977 12.55V12.55Z" fill="#304B79"/>
<path d="M9.98001 14H1.75998C1.2932 14 0.845536 13.8145 0.515472 13.4845C0.185408 13.1544 3.05176e-05 12.7067 3.05176e-05 12.2399C3.05176e-05 11.7732 0.185408 11.3255 0.515472 10.9954C0.845536 10.6654 1.2932 10.4799 1.75998 10.4799H9.16C9.23523 10.4786 9.30996 10.4924 9.37973 10.5206C9.4495 10.5487 9.51287 10.5907 9.56607 10.6439C9.61927 10.6971 9.6612 10.7605 9.68936 10.8303C9.71753 10.9 9.73137 10.9748 9.73001 11.05C9.73001 11.2012 9.66998 11.3462 9.56308 11.4531C9.45618 11.56 9.31118 11.6199 9.16 11.6199H1.75998C1.59555 11.6199 1.4379 11.6853 1.32162 11.8016C1.20535 11.9179 1.13998 12.0755 1.13998 12.2399C1.13998 12.4044 1.20535 12.5621 1.32162 12.6784C1.4379 12.7947 1.59555 12.8599 1.75998 12.8599H9.98001C10.0549 12.8599 10.129 12.8748 10.1982 12.9034C10.2673 12.932 10.3301 12.974 10.383 13.0269C10.436 13.0799 10.478 13.1427 10.5066 13.2119C10.5353 13.281 10.55 13.3552 10.55 13.43C10.5514 13.5052 10.5375 13.58 10.5094 13.6497C10.4812 13.7195 10.4393 13.7828 10.3861 13.836C10.3329 13.8892 10.2695 13.9311 10.1997 13.9593C10.13 13.9875 10.0552 14.0013 9.98001 14V14Z" fill="#304B79"/>
<path d="M2.51999 11.16C2.44308 11.16 2.36936 11.1294 2.31497 11.0751C2.26059 11.0207 2.23001 10.9469 2.23001 10.87V0.86998C2.24251 0.803535 2.27782 0.743587 2.32986 0.700424C2.3819 0.657262 2.44737 0.633652 2.51498 0.633652C2.58259 0.633652 2.64812 0.657262 2.70016 0.700424C2.7522 0.743587 2.78752 0.803535 2.80002 0.86998V10.87C2.80006 10.9452 2.7709 11.0175 2.71866 11.0716C2.66642 11.1257 2.59516 11.1574 2.51999 11.16V11.16Z" fill="#304B79"/>
</g>
<defs>
<clipPath id="clip0_901_2">
<rect width="10.55" height="14" fill="white"/>
</clipPath>
</defs>
</svg>
