<svg width="10" height="9" viewBox="0 0 10 9" fill="none" xmlns="http://www.w3.org/2000/svg">
<path d="M6.30093 8.20146C6.14977 8.20146 6.00436 8.14333 5.88808 8.03286C5.66133 7.80611 5.66133 7.43983 5.88808 7.21308L8.5975 4.49784L5.88808 1.78846C5.66133 1.56171 5.66133 1.1954 5.88808 0.968648C6.11483 0.741896 6.48115 0.741896 6.7079 0.968648L9.8301 4.09088C10.0568 4.31763 10.0568 4.68391 9.8301 4.91066L6.7079 8.03286C6.59743 8.14333 6.44629 8.20146 6.30093 8.20146Z" fill="#535353"/>
<path d="M0.426283 5.07335C0.191894 5.07335 0.00012207 4.81172 0.00012207 4.49194C0.00012207 4.17216 0.191894 3.91052 0.426283 3.91052H8.72367C8.95806 3.91052 9.14984 4.17216 9.14984 4.49194C9.14984 4.81172 8.95806 5.07335 8.72367 5.07335H0.426283Z" fill="#535353"/>
</svg>
