<svg width="70" height="14" viewBox="0 0 70 14" fill="none" xmlns="http://www.w3.org/2000/svg">
<circle cx="63" cy="7" r="7" fill="#F93E3E"/>
<path d="M63.177 8.668H62.352L62.077 3.146H63.452L63.177 8.668ZM62 10.351C62 10.065 62.0733 9.86333 62.22 9.746C62.3667 9.62866 62.5463 9.57 62.759 9.57C62.9643 9.57 63.1403 9.62866 63.287 9.746C63.4337 9.86333 63.507 10.065 63.507 10.351C63.507 10.637 63.4337 10.8423 63.287 10.967C63.1403 11.0917 62.9643 11.154 62.759 11.154C62.5463 11.154 62.3667 11.0917 62.22 10.967C62.0733 10.8423 62 10.637 62 10.351Z" fill="white"/>
<circle cx="21" cy="7" r="7" fill="#F93E3E"/>
<path fill-rule="evenodd" clip-rule="evenodd" d="M22.6498 9.76614C22.8084 9.91679 23.0067 9.99608 23.2129 9.99608C23.4191 9.99608 23.6175 9.91679 23.7682 9.76614C24.0775 9.45692 24.0775 8.95741 23.7682 8.64819L22.1184 6.99895L23.768 5.34986C24.0773 5.04064 24.0773 4.54113 23.768 4.23191C23.4586 3.9227 22.9591 3.9227 22.6497 4.23191L21.0001 5.88103L19.3504 4.23191C19.0411 3.9227 18.5415 3.9227 18.2322 4.23191C17.9229 4.54113 17.9229 5.04064 18.2322 5.34986L19.8818 6.99895L18.232 8.64819C17.9227 8.95741 17.9227 9.45692 18.232 9.76614C18.3827 9.91679 18.581 9.99608 18.7872 9.99608C18.9934 9.99608 19.1917 9.91679 19.3503 9.76614L21.0001 8.1169L22.6498 9.76614Z" fill="white"/>
<circle cx="49" cy="7" r="7" fill="white"/>
<path fill-rule="evenodd" clip-rule="evenodd" d="M50.6497 9.76614C50.8083 9.91679 51.0066 9.99608 51.2128 9.99608C51.419 9.99608 51.6173 9.91679 51.768 9.76614C52.0773 9.45692 52.0773 8.95741 51.768 8.64819L50.1182 6.99895L51.7678 5.34986C52.0771 5.04064 52.0771 4.54113 51.7678 4.23191C51.4585 3.9227 50.9589 3.9227 50.6496 4.23191L48.9999 5.88103L47.3503 4.23191C47.0409 3.9227 46.5414 3.9227 46.232 4.23191C45.9227 4.54113 45.9227 5.04064 46.232 5.34986L47.8816 6.99895L46.2318 8.64819C45.9225 8.95741 45.9225 9.45692 46.2318 9.76614C46.3825 9.91679 46.5809 9.99608 46.7871 9.99608C46.9933 9.99608 47.1915 9.91679 47.3502 9.76614L48.9999 8.1169L50.6497 9.76614Z" fill="#F93E3E"/>
<circle cx="7" cy="7" r="7" fill="#2772FB"/>
<path d="M10.7986 4.12492C10.5627 3.93256 10.213 3.96554 10.0159 4.20186L6.36494 8.62054L4.95772 7.15864C4.74677 6.9388 4.39424 6.93056 4.17219 7.1394C4.06394 7.24108 4.00288 7.37847 4.0001 7.52411C3.99733 7.66975 4.05008 7.8099 4.15278 7.91707L5.99302 9.82963C6.09849 9.9368 6.24281 10 6.39547 10C6.39825 10 6.41214 10 6.41492 10C6.57313 9.9945 6.72301 9.92031 6.82293 9.7994L10.8736 4.89983C11.0679 4.66351 11.0346 4.31453 10.7986 4.12492Z" fill="white"/>
<circle cx="35" cy="7" r="7" fill="white"/>
<path d="M38.7986 4.12492C38.5627 3.93256 38.213 3.96554 38.0159 4.20186L34.3649 8.62054L32.9577 7.15864C32.7468 6.9388 32.3942 6.93056 32.1722 7.1394C32.0639 7.24108 32.0029 7.37847 32.0001 7.52411C31.9973 7.66975 32.0501 7.8099 32.1528 7.91707L33.993 9.82963C34.0985 9.9368 34.2428 10 34.3955 10C34.3982 10 34.4121 10 34.4149 10C34.5731 9.9945 34.723 9.92031 34.8229 9.7994L38.8736 4.89983C39.0679 4.66351 39.0346 4.31453 38.7986 4.12492Z" fill="#2772FB"/>
</svg>
