<svg width="90" height="36" viewBox="0 0 90 36" fill="none" xmlns="http://www.w3.org/2000/svg">
<path fill-rule="evenodd" clip-rule="evenodd" d="M10 2.4H3.7V16.6H10C10.3314 16.6 10.6 16.3314 10.6 16V3C10.6 2.66863 10.3314 2.4 10 2.4ZM2 2.4H2.3V16.6H2C1.66863 16.6 1.4 16.3314 1.4 16V3C1.4 2.66863 1.66863 2.4 2 2.4ZM2 1C0.895431 1 0 1.89543 0 3V16C0 17.1046 0.895431 18 2 18H10C10.8431 18 11.5643 17.4784 11.8585 16.7403C15.2816 16.5542 18 13.7196 18 10.25C18 6.82839 15.3562 4.02426 12 3.76894V3C12 1.89543 11.1046 1 10 1H2ZM12 5.1742V7.80001C13.1411 8.03164 14 9.04052 14 10.25C14 11.4595 13.1411 12.4684 12 12.7V15.3258C14.582 15.0746 16.6 12.8979 16.6 10.25C16.6 7.60205 14.582 5.42544 12 5.1742ZM12 11.2301C12.3562 11.048 12.6 10.6775 12.6 10.25C12.6 9.82253 12.3562 9.45201 12 9.26994V11.2301Z" fill="#777C86"/>
<path fill-rule="evenodd" clip-rule="evenodd" d="M10 20.4H3.7V34.6H10C10.3314 34.6 10.6 34.3314 10.6 34V21C10.6 20.6686 10.3314 20.4 10 20.4ZM2 20.4H2.3V34.6H2C1.66863 34.6 1.4 34.3314 1.4 34V21C1.4 20.6686 1.66863 20.4 2 20.4ZM2 19C0.895431 19 0 19.8954 0 21V34C0 35.1046 0.895431 36 2 36H10C10.8431 36 11.5643 35.4784 11.8585 34.7403C15.2816 34.5542 18 31.7196 18 28.25C18 24.8284 15.3562 22.0243 12 21.7689V21C12 19.8954 11.1046 19 10 19H2ZM12 23.1742V25.8C13.1411 26.0316 14 27.0405 14 28.25C14 29.4595 13.1411 30.4684 12 30.7V33.3258C14.582 33.0746 16.6 30.8979 16.6 28.25C16.6 25.6021 14.582 23.4254 12 23.1742ZM12 29.2301C12.3562 29.048 12.6 28.6775 12.6 28.25C12.6 27.8225 12.3562 27.452 12 27.2699V29.2301Z" fill="#2772FB"/>
<path fill-rule="evenodd" clip-rule="evenodd" d="M21 2.4H33C33.3314 2.4 33.6 2.66863 33.6 3V4.56667H20.4V3C20.4 2.66863 20.6686 2.4 21 2.4ZM20.4 5.96667V15C20.4 15.3314 20.6686 15.6 21 15.6H33C33.3314 15.6 33.6 15.3314 33.6 15V5.96667H20.4ZM19 3C19 1.89543 19.8954 1 21 1H33C34.1046 1 35 1.89543 35 3V15C35 16.1046 34.1046 17 33 17H21C19.8954 17 19 16.1046 19 15V3ZM22.3425 8.09012C22.4281 8.02212 22.5177 7.9593 22.6069 7.90114L23.3163 8.35188C23.5374 8.25221 23.7662 8.18875 23.9985 8.15632L24.3703 7.4C24.589 7.40372 24.8056 7.42605 25.0169 7.47369L25.2079 8.29416C25.4269 8.37801 25.6374 8.4939 25.8282 8.63816L26.6255 8.36383C26.6992 8.44055 26.7723 8.52192 26.8403 8.60742C26.9082 8.69291 26.971 8.78252 27.0291 8.87161L26.5819 9.58636C26.6815 9.80739 26.7448 10.0361 26.7771 10.2683L27.5333 10.6396C27.532 10.8562 27.5049 11.0722 27.4592 11.2861L26.641 11.4756C26.557 11.6945 26.4436 11.9031 26.2966 12.096L26.5704 12.8929C26.4937 12.9666 26.4122 13.0398 26.3267 13.1078C26.2411 13.1758 26.1515 13.2386 26.0623 13.2968L25.3477 12.8502C25.1266 12.9499 24.8978 13.0133 24.6656 13.0457L24.2963 13.8C24.0776 13.7963 23.8636 13.7719 23.6497 13.7263L23.4587 12.9058C23.2397 12.822 23.0292 12.7061 22.8384 12.5618L22.0411 12.8362C21.9674 12.7595 21.8943 12.6781 21.8264 12.5926C21.7584 12.5071 21.6977 12.4201 21.6375 12.3284L22.0847 11.6136C21.9851 11.3926 21.9218 11.1639 21.8895 10.9317L21.1333 10.5604C21.1346 10.3438 21.1617 10.1278 21.2074 9.91392L22.0282 9.72237C22.1122 9.50341 22.2256 9.29487 22.3726 9.10193L22.0987 8.30501C22.1755 8.2313 22.257 8.15812 22.3425 8.09012ZM25.279 11.7845C25.9349 11.2632 26.0443 10.3096 25.5233 9.65419C25.0023 8.99874 24.0486 8.89006 23.3927 9.41139C22.7368 9.93272 22.6275 10.8862 23.1485 11.5417C23.6695 12.1971 24.6231 12.3058 25.279 11.7845ZM24.8507 11.2455C24.4928 11.5299 23.9723 11.4706 23.6881 11.113C23.4038 10.7553 23.4635 10.2349 23.8214 9.95051C24.1792 9.66607 24.6997 9.72538 24.9839 10.083C25.2682 10.4406 25.2085 10.961 24.8507 11.2455ZM28.6001 9.16664H31.8001V7.76664H28.6001V9.16664ZM31.8001 11.3H28.6001V9.89998H31.8001V11.3ZM28.6001 13.4333H31.8001V12.0333H28.6001V13.4333Z" fill="#777C86"/>
<path fill-rule="evenodd" clip-rule="evenodd" d="M21 20.4H33C33.3314 20.4 33.6 20.6686 33.6 21V22.5667H20.4V21C20.4 20.6686 20.6686 20.4 21 20.4ZM20.4 23.9667V33C20.4 33.3314 20.6686 33.6 21 33.6H33C33.3314 33.6 33.6 33.3314 33.6 33V23.9667H20.4ZM19 21C19 19.8954 19.8954 19 21 19H33C34.1046 19 35 19.8954 35 21V33C35 34.1046 34.1046 35 33 35H21C19.8954 35 19 34.1046 19 33V21ZM22.3425 26.0901C22.4281 26.0221 22.5177 25.9593 22.6069 25.9011L23.3163 26.3519C23.5374 26.2522 23.7662 26.1888 23.9985 26.1563L24.3703 25.4C24.589 25.4037 24.8056 25.426 25.0169 25.4737L25.2079 26.2942C25.4269 26.378 25.6374 26.4939 25.8282 26.6382L26.6255 26.3638C26.6992 26.4405 26.7723 26.5219 26.8403 26.6074C26.9082 26.6929 26.971 26.7825 27.0291 26.8716L26.5819 27.5864C26.6815 27.8074 26.7448 28.0361 26.7771 28.2683L27.5333 28.6396C27.532 28.8562 27.5049 29.0722 27.4592 29.2861L26.641 29.4756C26.557 29.6945 26.4436 29.9031 26.2966 30.096L26.5704 30.8929C26.4937 30.9666 26.4122 31.0398 26.3267 31.1078C26.2411 31.1758 26.1515 31.2386 26.0623 31.2968L25.3477 30.8502C25.1266 30.9499 24.8978 31.0133 24.6656 31.0457L24.2963 31.8C24.0776 31.7963 23.8636 31.7719 23.6497 31.7263L23.4587 30.9058C23.2397 30.822 23.0292 30.7061 22.8384 30.5618L22.0411 30.8362C21.9674 30.7595 21.8943 30.6781 21.8264 30.5926C21.7584 30.5071 21.6977 30.4201 21.6375 30.3284L22.0847 29.6136C21.9851 29.3926 21.9218 29.1639 21.8895 28.9317L21.1333 28.5604C21.1346 28.3438 21.1617 28.1278 21.2074 27.9139L22.0282 27.7224C22.1122 27.5034 22.2256 27.2949 22.3726 27.1019L22.0987 26.305C22.1755 26.2313 22.257 26.1581 22.3425 26.0901ZM25.279 29.7845C25.9349 29.2632 26.0443 28.3096 25.5233 27.6542C25.0023 26.9987 24.0486 26.8901 23.3927 27.4114C22.7368 27.9327 22.6275 28.8862 23.1485 29.5417C23.6695 30.1971 24.6231 30.3058 25.279 29.7845ZM24.8507 29.2455C24.4928 29.5299 23.9723 29.4706 23.6881 29.113C23.4038 28.7553 23.4635 28.2349 23.8214 27.9505C24.1792 27.6661 24.6997 27.7254 24.9839 28.083C25.2682 28.4406 25.2085 28.961 24.8507 29.2455ZM28.6001 27.1666H31.8001V25.7666H28.6001V27.1666ZM31.8001 29.3H28.6001V27.9H31.8001V29.3ZM28.6001 31.4333H31.8001V30.0333H28.6001V31.4333Z" fill="#2772FB"/>
<path d="M52.1111 3.62469C52.1111 1.55481 47.3648 1 44.5556 1C41.7463 1 37 1.55481 37 3.62469C37 3.65314 37.0069 3.68159 37.0137 3.71004C37.0137 3.73138 37 3.74562 37 3.76696V7.77866C37 9.64937 41.7463 10.1544 44.5556 10.1544C47.3648 10.1544 52.1111 9.65649 52.1111 7.77866V3.76696C52.1111 3.74562 52.1042 3.73138 52.0974 3.71004C52.1042 3.67448 52.1111 3.65314 52.1111 3.62469ZM44.5556 2.35858C48.2234 2.35858 50.4832 3.14101 50.8335 3.62469C50.4832 4.10126 48.2234 4.8908 44.5556 4.8908C40.8877 4.8908 38.6279 4.10837 38.2776 3.62469C38.6279 3.14101 40.8877 2.35858 44.5556 2.35858ZM44.5556 8.91674C40.7503 8.91674 38.4562 8.15566 38.2501 7.77156V5.17531C39.8505 5.98619 42.6461 6.24226 44.5556 6.24226C46.4582 6.24226 49.2606 5.98619 50.861 5.17531L50.8679 7.72177C50.6549 8.15566 48.3608 8.91674 44.5556 8.91674Z" fill="#777C86"/>
<path d="M51.4861 10.0833H50.861V11.4419L50.8679 15.3255C50.6549 15.795 48.3608 16.6414 44.5556 16.6414C40.7503 16.6414 38.4562 15.795 38.2501 15.3753V10.0762H37.6251C37.2816 10.0762 37 10.382 37 10.759V15.3753C37 17.4452 41.7463 18 44.5556 18C47.3648 18 52.1111 17.4452 52.1111 15.3753V10.759C52.1111 10.3891 51.8295 10.0833 51.4861 10.0833Z" fill="#777C86"/>
<path d="M51.4861 6.28496H50.861V7.64351L50.8679 11.5272C50.6549 11.9967 48.3608 12.8431 44.5556 12.8431C40.7503 12.8431 38.4562 11.9967 38.2501 11.577V6.27784H37.6251C37.2816 6.27784 37 6.58369 37 6.96067V11.577C37 13.6469 41.7463 14.2017 44.5556 14.2017C47.3648 14.2017 52.1111 13.6469 52.1111 11.577V6.96067C52.1111 6.5908 51.8295 6.28496 51.4861 6.28496Z" fill="#777C86"/>
<path d="M52.1111 21.6247C52.1111 19.5548 47.3648 19 44.5556 19C41.7463 19 37 19.5548 37 21.6247C37 21.6531 37.0069 21.6816 37.0137 21.71C37.0137 21.7314 37 21.7456 37 21.767V25.7787C37 27.6494 41.7463 28.1544 44.5556 28.1544C47.3648 28.1544 52.1111 27.6565 52.1111 25.7787V21.767C52.1111 21.7456 52.1042 21.7314 52.0974 21.71C52.1042 21.6745 52.1111 21.6531 52.1111 21.6247ZM44.5556 20.3586C48.2234 20.3586 50.4832 21.141 50.8335 21.6247C50.4832 22.1013 48.2234 22.8908 44.5556 22.8908C40.8877 22.8908 38.6279 22.1084 38.2776 21.6247C38.6279 21.141 40.8877 20.3586 44.5556 20.3586ZM44.5556 26.9167C40.7503 26.9167 38.4562 26.1557 38.2501 25.7716V23.1753C39.8505 23.9862 42.6461 24.2423 44.5556 24.2423C46.4582 24.2423 49.2606 23.9862 50.861 23.1753L50.8679 25.7218C50.6549 26.1557 48.3608 26.9167 44.5556 26.9167Z" fill="#2772FB"/>
<path d="M51.4861 28.0833H50.861V29.4419L50.8679 33.3255C50.6549 33.795 48.3608 34.6414 44.5556 34.6414C40.7503 34.6414 38.4562 33.795 38.2501 33.3753V28.0762H37.6251C37.2816 28.0762 37 28.382 37 28.759V33.3753C37 35.4452 41.7463 36 44.5556 36C47.3648 36 52.1111 35.4452 52.1111 33.3753V28.759C52.1111 28.3891 51.8295 28.0833 51.4861 28.0833Z" fill="#2772FB"/>
<path d="M51.4861 24.285H50.861V25.6435L50.8679 29.5272C50.6549 29.9967 48.3608 30.8431 44.5556 30.8431C40.7503 30.8431 38.4562 29.9967 38.2501 29.577V24.2778H37.6251C37.2816 24.2778 37 24.5837 37 24.9607V29.577C37 31.6469 41.7463 32.2017 44.5556 32.2017C47.3648 32.2017 52.1111 31.6469 52.1111 29.577V24.9607C52.1111 24.5908 51.8295 24.285 51.4861 24.285Z" fill="#2772FB"/>
<path fill-rule="evenodd" clip-rule="evenodd" d="M61.1333 4.994V3.62556C59.2263 3.87186 57.5846 5.13455 56.8708 6.91901H57.994V10.913H56.8668C57.5835 12.6984 59.2146 13.962 61.1332 14.207V12.8381H65.1272V14.1672C66.9321 13.8457 68.449 12.617 69.133 10.913H68.0061V6.91901H69.1292C68.4482 5.21638 66.9223 3.98877 65.1273 3.66581V4.994H61.1333ZM55.5297 10.913C56.3194 13.4272 58.524 15.2079 61.1332 15.4749V16.8231H65.1272V15.443C67.6219 15.0879 69.7068 13.343 70.47 10.913H72.0001V6.91901H70.4667C69.6992 4.50016 67.601 2.74986 65.1273 2.39044V1H61.1333V2.35789C58.5473 2.62838 56.3276 4.41565 55.5333 6.91901H54V10.913H55.5297ZM62.3927 2.26837V3.74363H63.8679V2.26837H62.3927ZM62.3926 15.5638V14.0975H63.8679V15.5638H62.3926ZM69.2655 8.17838V9.65365H70.7407V8.17838H69.2655ZM55.2594 8.17838H56.7346V9.65365H55.2594V8.17838Z" fill="#777C86"/>
<path fill-rule="evenodd" clip-rule="evenodd" d="M61.1333 22.994V21.6256C59.2263 21.8719 57.5846 23.1345 56.8708 24.919H57.994V28.913H56.8668C57.5835 30.6984 59.2146 31.962 61.1332 32.207V30.8381H65.1272V32.1672C66.9321 31.8457 68.449 30.617 69.133 28.913H68.0061V24.919H69.1292C68.4482 23.2164 66.9223 21.9888 65.1273 21.6658V22.994H61.1333ZM55.5297 28.913C56.3194 31.4272 58.524 33.2079 61.1332 33.4749V34.8231H65.1272V33.443C67.6219 33.0879 69.7068 31.343 70.47 28.913H72.0001V24.919H70.4667C69.6992 22.5002 67.601 20.7499 65.1273 20.3904V19H61.1333V20.3579C58.5473 20.6284 56.3276 22.4156 55.5333 24.919H54V28.913H55.5297ZM62.3927 20.2684V21.7436H63.8679V20.2684H62.3927ZM62.3926 33.5638V32.0975H63.8679V33.5638H62.3926ZM69.2655 26.1784V27.6537H70.7407V26.1784H69.2655ZM55.2594 26.1784H56.7346V27.6537H55.2594V26.1784Z" fill="#2772FB"/>
<path fill-rule="evenodd" clip-rule="evenodd" d="M87.6 9C87.6 12.6451 84.6451 15.6 81 15.6C77.3549 15.6 74.4 12.6451 74.4 9C74.4 5.35492 77.3549 2.4 81 2.4C84.6451 2.4 87.6 5.35492 87.6 9ZM89 9C89 13.4183 85.4183 17 81 17C76.5817 17 73 13.4183 73 9C73 4.58172 76.5817 1 81 1C85.4183 1 89 4.58172 89 9ZM77 10C77.5523 10 78 9.55229 78 9C78 8.44772 77.5523 8 77 8C76.4477 8 76 8.44772 76 9C76 9.55229 76.4477 10 77 10ZM82 9C82 9.55229 81.5523 10 81 10C80.4477 10 80 9.55229 80 9C80 8.44772 80.4477 8 81 8C81.5523 8 82 8.44772 82 9ZM85 10C85.5523 10 86 9.55229 86 9C86 8.44772 85.5523 8 85 8C84.4477 8 84 8.44772 84 9C84 9.55229 84.4477 10 85 10Z" fill="#777C86"/>
<path fill-rule="evenodd" clip-rule="evenodd" d="M87.6 27C87.6 30.6451 84.6451 33.6 81 33.6C77.3549 33.6 74.4 30.6451 74.4 27C74.4 23.3549 77.3549 20.4 81 20.4C84.6451 20.4 87.6 23.3549 87.6 27ZM89 27C89 31.4183 85.4183 35 81 35C76.5817 35 73 31.4183 73 27C73 22.5817 76.5817 19 81 19C85.4183 19 89 22.5817 89 27ZM77 28C77.5523 28 78 27.5523 78 27C78 26.4477 77.5523 26 77 26C76.4477 26 76 26.4477 76 27C76 27.5523 76.4477 28 77 28ZM82 27C82 27.5523 81.5523 28 81 28C80.4477 28 80 27.5523 80 27C80 26.4477 80.4477 26 81 26C81.5523 26 82 26.4477 82 27ZM85 28C85.5523 28 86 27.5523 86 27C86 26.4477 85.5523 26 85 26C84.4477 26 84 26.4477 84 27C84 27.5523 84.4477 28 85 28Z" fill="#2772FB"/>
</svg>
