<?xml version="1.0" encoding="utf-8"?>
<svg viewBox="0 0 500 500" xmlns="http://www.w3.org/2000/svg">
  <path d="M7 50.56C6.14 50.56 5.44 49.86 5.44 49V41C5.44 40.14 6.14 39.44 7 39.44H23C23.86 39.44 24.56 40.14 24.56 41V49C24.56 49.86 23.86 50.56 23 50.56H7Z" fill="white" transform="matrix(1, 0, 0, 1, 317.394719, 114.142482)"/>
  <path d="M23 39.88C23.62 39.88 24.12 40.38 24.12 41V49C24.12 49.62 23.62 50.12 23 50.12H7C6.38 50.12 5.88 49.62 5.88 49V41C5.88 40.38 6.38 39.88 7 39.88H23ZM23 39H7C5.9 39 5 39.9 5 41V49C5 50.1 5.9 51 7 51H23C24.1 51 25 50.1 25 49V41C25 39.9 24.1 39 23 39Z" fill="#51C4C4" transform="matrix(1, 0, 0, 1, 317.394719, 114.142482)"/>
  <path d="M9 39H7C5.89543 39 5 39.8954 5 41V49C5 50.1046 5.89543 51 7 51H9C10.1046 51 11 50.1046 11 49V41C11 39.8954 10.1046 39 9 39Z" fill="#51C4C4" transform="matrix(1, 0, 0, 1, 317.394719, 114.142482)"/>
  <rect x="9" y="39" width="2" height="12" fill="#51C4C4" transform="matrix(1, 0, 0, 1, 317.394719, 114.142482)"/>
</svg>