<?xml version="1.0" encoding="utf-8"?>
<svg viewBox="0 0 500 500" xmlns="http://www.w3.org/2000/svg">
  <path d="M24 10.2H6V20.2H24V10.2Z" fill="white" transform="matrix(1, 0, 0, 1, -48.681768, -48.881768)"/>
  <path d="M24 10.2H6V11.2H24V10.2Z" fill="#51C4C4" transform="matrix(1, 0, 0, 1, -48.681768, -48.881768)"/>
  <path d="M10 14.2H6V16.2H10V14.2Z" fill="#51C4C4" transform="matrix(1, 0, 0, 1, -48.681768, -48.881768)"/>
  <path d="M17 14.2H13V16.2H17V14.2Z" fill="#51C4C4" transform="matrix(1, 0, 0, 1, -48.681768, -48.881768)"/>
  <path d="M24 14.2H20V16.2H24V14.2Z" fill="#51C4C4" transform="matrix(1, 0, 0, 1, -48.681768, -48.881768)"/>
  <path d="M24 19.2H6V20.2H24V19.2Z" fill="#51C4C4" transform="matrix(1, 0, 0, 1, -48.681768, -48.881768)"/>
  <path d="M 30.88 8.423 L 12.88 8.423 L 12.88 18.423 L 30.88 18.423 L 30.88 8.423 Z" fill="white"/>
  <path d="M 30.88 8.423 L 12.88 8.423 L 12.88 9.423 L 30.88 9.423 L 30.88 8.423 Z" fill="#51C4C4"/>
  <path d="M 16.88 12.423 L 12.88 12.423 L 12.88 14.423 L 16.88 14.423 L 16.88 12.423 Z" fill="#51C4C4"/>
  <path d="M 23.88 12.423 L 19.88 12.423 L 19.88 14.423 L 23.88 14.423 L 23.88 12.423 Z" fill="#51C4C4"/>
  <path d="M 30.88 12.423 L 26.88 12.423 L 26.88 14.423 L 30.88 14.423 L 30.88 12.423 Z" fill="#51C4C4"/>
  <path d="M 30.88 17.423 L 12.88 17.423 L 12.88 18.423 L 30.88 18.423 L 30.88 17.423 Z" fill="#51C4C4"/>
</svg>