<?xml version="1.0" encoding="utf-8"?>
<svg viewBox="0 0 500 500" xmlns="http://www.w3.org/2000/svg">
  <path d="M21.0097 98.1319L8.28188 110.86L8.98898 111.567L21.7168 98.839L21.0097 98.1319Z" fill="#51C4C4" transform="matrix(1, 0, 0, 1, 294.922676, -4.665092)"/>
  <path d="M22.17 102.63C22.05 102.75 21.89 102.82 21.71 102.81C21.35 102.8 21.05 102.5 21.04 102.14L20.97 98.88L17.71 98.81C17.35 98.8 17.05 98.5 17.04 98.14C17.03 97.78 17.32 97.49 17.68 97.5L21.6 97.58C21.96 97.59 22.26 97.89 22.27 98.25L22.35 102.17C22.36 102.35 22.29 102.51 22.17 102.63Z" fill="#51C4C4" transform="matrix(1, 0, 0, 1, 294.922676, -4.665092)"/>
  <path d="M9.34 112.51C10.4446 112.51 11.34 111.615 11.34 110.51C11.34 109.405 10.4446 108.51 9.34 108.51C8.23543 108.51 7.34 109.405 7.34 110.51C7.34 111.615 8.23543 112.51 9.34 112.51Z" fill="#51C4C4" transform="matrix(1, 0, 0, 1, 294.922676, -4.665092)"/>
</svg>