<svg xmlns="http://www.w3.org/2000/svg" id="_레이어_2" data-name="레이어 2" viewBox="0 0 102.63 38.44"><defs><style>.cls-1{isolation:isolate}.cls-2{fill:#fff;stroke-width:0}</style></defs><g id="_레이어_2-2" data-name="레이어 2"><g id="_로고" data-name="로고"><path id="_패스_26" d="M21.66 20.26c.04-2.77-2.18-5.05-4.96-5.09a5.032 5.032 0 0 0-4.96 5.09c0 1.94 1.08 3.72 2.82 4.58l-1.25 8.01a1.045 1.045 0 0 0 1.05 1.26h4.69c.58.01 1.06-.45 1.07-1.03 0-.08 0-.16-.02-.24l-1.25-8.01a5.106 5.106 0 0 0 2.81-4.58" class="cls-2" data-name="패스 26"/><g id="AEGIS" class="cls-1"><g class="cls-1"><path d="M48.99 24.5H43.3l-1.03 2.84h-3.38l5.69-14.67h3.4l5.69 14.67h-3.65l-1.03-2.84Zm-1.01-2.84-1.84-5.11-1.84 5.11h3.67ZM55.14 12.67h10.91v2.84h-7.63v2.99h7v2.84h-7v3.15h7.8v2.84H55.15V12.66ZM82.85 17.21h-3.6c-.61-1.08-2-1.91-3.78-1.91-2.67 0-4.65 1.96-4.65 4.7s1.98 4.75 4.65 4.75c2.29 0 3.87-1.4 4.21-2.84H75.2v-2.77h7.98V20c0 4.45-3.33 7.71-7.78 7.71s-7.85-3.26-7.85-7.71 3.33-7.71 7.85-7.71c3.83 0 6.61 2.16 7.45 4.92ZM88.39 12.67v14.67h-3.28V12.67h3.28ZM102.58 17.1H99.2c-.2-1.28-1.15-2.05-2.72-2.05s-2.38.61-2.38 1.49c0 1.1 1.13 1.48 4 2.07 3.38.7 4.54 2.38 4.54 4.57 0 2.81-2.65 4.52-5.92 4.52-3.62 0-6.27-1.96-6.41-5.1h3.37c.18 1.4 1.4 2.34 3.28 2.34 1.33 0 2.32-.67 2.32-1.62 0-1.17-.99-1.64-3.6-2.12-3.19-.59-4.92-1.91-4.92-4.66s2.63-4.23 5.94-4.23 5.73 2 5.89 4.79Z" class="cls-2"/></g></g><path d="M33.42 21.23V7.28L16.71 0 0 7.28v13.94s0 .26.05.69c.06.47.15.95.27 1.41.17.69.4 1.38.66 2.05.35.86.76 1.69 1.24 2.49.7 1.16 1.52 2.25 2.44 3.25.97 1.05 2.03 2.01 3.16 2.88 1.21.92 2.5 1.76 3.83 2.5 1.32.73 2.7 1.39 4.1 1.96h1.88c1.4-.57 2.78-1.23 4.11-1.96 1.33-.73 2.62-1.58 3.83-2.5 1.13-.86 2.2-1.83 3.17-2.88.92-1 1.74-2.09 2.44-3.25.47-.79.89-1.63 1.24-2.48.27-.66.49-1.35.66-2.04.12-.46.21-.93.26-1.39.06-.46.06-.71.06-.71Zm-5.02.05c-.04.28-.09.56-.16.84-.12.47-.27.93-.45 1.38-.25.61-.54 1.21-.88 1.77-.53.87-1.14 1.69-1.83 2.44-.77.84-1.62 1.61-2.53 2.3-1.02.78-2.1 1.48-3.22 2.1-.85.47-1.73.91-2.63 1.3-.9-.4-1.78-.83-2.63-1.3-1.12-.62-2.2-1.32-3.22-2.1-.9-.69-1.75-1.46-2.52-2.29-.69-.75-1.31-1.57-1.83-2.44-.34-.56-.64-1.16-.89-1.77-.18-.45-.33-.91-.45-1.38a9.07 9.07 0 0 1-.17-.9V10.56l11.71-5.1 11.71 5.1v10.61l-.01.11Z" style="fill:#2e6fd4;stroke-width:0"/></g></g></svg>