<svg xmlns="http://www.w3.org/2000/svg" xmlns:xlink="http://www.w3.org/1999/xlink" width="45" height="45" viewBox="0 0 45 45">
  <defs>
    <clipPath id="clip-path">
      <rect id="사각형_15327" data-name="사각형 15327" width="45" height="45" transform="translate(0 -0.333)" fill="none"/>
    </clipPath>
  </defs>
  <g id="ico_image" transform="translate(0 0.333)" clip-path="url(#clip-path)">
    <g id="그룹_582" data-name="그룹 582" transform="translate(10 3.666)">
      <path id="패스_162" data-name="패스 162" d="M12.209,17.162A11.524,11.524,0,1,0,23.734,28.687,11.525,11.525,0,0,0,12.209,17.162m-.64,14.1a1,1,0,0,1-.726-.319L8.621,28.586a1.033,1.033,0,0,1,.018-1.432l.013-.013a1,1,0,0,1,1.423.033l1.53,1.626,3.408-3.278a.994.994,0,0,1,1.423.039,1.032,1.032,0,0,1-.026,1.432l-.013.012-4.138,3.983a.993.993,0,0,1-.692.28" transform="translate(-0.112 -2.793)" fill="#fff"/>
      <path id="패스_163" data-name="패스 163" d="M24.2,2.656A2.655,2.655,0,0,1,21.54,5.311H2.656A2.656,2.656,0,1,1,2.656,0H21.54A2.655,2.655,0,0,1,24.2,2.656" transform="translate(0 0)" fill="#fff"/>
      <path id="패스_180" data-name="패스 180" d="M2.13,1.3V13.724L7.325,18.2l5.12,4.409,5.12-4.409,5.195-4.475V1.3Z" transform="translate(-0.347 -0.211)" fill="#fff"/>
    </g>
  </g>
</svg>
