<svg xmlns="http://www.w3.org/2000/svg" width="14" height="14" viewBox="0 0 14 14">
  <g id="그룹_39835" data-name="그룹 39835" transform="translate(-809 -607)">
    <g id="패스_45624" data-name="패스 45624" transform="translate(809 607)" fill="none">
      <path d="M7,0A7,7,0,1,1,0,7,7,7,0,0,1,7,0Z" stroke="none"/>
      <path d="M 7 1 C 3.691590309143066 1 1 3.691590309143066 1 7 C 1 10.30840969085693 3.691590309143066 13 7 13 C 10.30840969085693 13 13 10.30840969085693 13 7 C 13 3.691590309143066 10.30840969085693 1 7 1 M 7 0 C 10.86598968505859 0 14 3.134010314941406 14 7 C 14 10.86598968505859 10.86598968505859 14 7 14 C 3.134010314941406 14 0 10.86598968505859 0 7 C 0 3.134010314941406 3.134010314941406 0 7 0 Z" stroke="none" fill="red"/>
    </g>
    <text id="_" data-name="!" transform="translate(815 617)" fill="red" font-size="9" font-family="Pretendard-Bold, Pretendard" font-weight="700" letter-spacing="-0.04em"><tspan x="0" y="0">!</tspan></text>
  </g>
</svg>
