<svg id="Tip" xmlns="http://www.w3.org/2000/svg" width="14" height="18" viewBox="0 0 14 18">
  <g id="Rectangle_5" data-name="Rectangle 5" fill="#fff" stroke-miterlimit="10">
    <path d="M 13 16.27682304382324 L 7.496140003204346 13.13175964355469 L 7 12.84825038909912 L 6.503859996795654 13.13175964355469 L 1 16.27682304382324 L 1 2 C 1 1.448600053787231 1.448600053787231 1 2 1 L 12 1 C 12.55140018463135 1 13 1.448600053787231 13 2 L 13 16.27682304382324 Z" stroke="none"/>
    <path d="M 2 2 L 2 14.553635597229 L 7 11.69649982452393 L 12 14.553635597229 L 12 2 L 2 2 M 2 0 L 12 0 C 13.10457038879395 0 14 0.8954296112060547 14 2 L 14 18 L 7 14 L 0 18 L 0 2 C 0 0.8954296112060547 0.8954296112060547 0 2 0 Z" stroke="none" fill="#666"/>
  </g>
  <path id="Rectangle_6" data-name="Rectangle 6" d="M0,6V4H6V6ZM0,2V0H6V2Z" transform="translate(4 4)" fill="#666"/>
</svg>
