<svg width="24" height="24" viewBox="0 0 24 24" fill="none" xmlns="http://www.w3.org/2000/svg">
<path d="M6.5 17.8C6.22 17.8 6 17.58 6 17.3V7.37C6 6.06 7.06 5 8.37 5H15.9C16.18 5 16.4 5.22 16.4 5.5C16.4 5.78 16.18 6 15.9 6H8.37C7.62 6 7 6.62 7 7.37V17.3C7 17.58 6.78 17.8 6.5 17.8Z" fill="#666666"/>
<path d="M17 7H9C8.45 7 8 7.45 8 8V18C8 18.55 8.45 19 9 19H17C17.55 19 18 18.55 18 18V8C18 7.45 17.55 7 17 7ZM10.5 9H13.5C13.78 9 14 9.22 14 9.5C14 9.78 13.78 10 13.5 10H10.5C10.22 10 10 9.78 10 9.5C10 9.22 10.22 9 10.5 9ZM15.5 16H10.5C10.22 16 10 15.78 10 15.5C10 15.22 10.22 15 10.5 15H15.5C15.78 15 16 15.22 16 15.5C16 15.78 15.78 16 15.5 16ZM15.5 13H10.5C10.22 13 10 12.78 10 12.5C10 12.22 10.22 12 10.5 12H15.5C15.78 12 16 12.22 16 12.5C16 12.78 15.78 13 15.5 13Z" fill="#666666"/>
</svg>