<svg width="24" height="24" viewBox="0 0 24 24" fill="none" xmlns="http://www.w3.org/2000/svg">
<path d="M12 10.65C9.24 10.65 7 9.90001 7 8.98001V10.65C7 11.57 9.24 12.32 12 12.32C14.76 12.32 17 11.57 17 10.65V8.98001C17 9.91001 14.76 10.65 12 10.65Z" fill="#666666"/>
<path d="M12 13.35C9.24 13.35 7 12.6 7 11.68V13.35C7 14.27 9.24 15.02 12 15.02C14.76 15.02 17 14.27 17 13.35V11.68C17 12.6 14.76 13.35 12 13.35Z" fill="#666666"/>
<path d="M12 16.04C9.24 16.04 7 15.29 7 14.37V16.04C7 16.96 9.24 17.71 12 17.71C14.76 17.71 17 16.96 17 16.04V14.37C17 15.29 14.76 16.04 12 16.04Z" fill="#666666"/>
<path d="M12 9.63C14.7614 9.63 17 8.88232 17 7.96001C17 7.03769 14.7614 6.29001 12 6.29001C9.23858 6.29001 7 7.03769 7 7.96001C7 8.88232 9.23858 9.63 12 9.63Z" fill="#666666"/>
</svg>
