<svg width="24" height="24" viewBox="0 0 24 24" fill="none" xmlns="http://www.w3.org/2000/svg">
<path d="M8.96 17.86C8.44 17.86 8.03 17.7 7.7 17.39C7.38 17.08 7.22 16.6 7.22 15.95V13.6C7.22 13.4 7.18 13.24 7.09 13.12C7 13 6.9 12.9 6.77 12.84C6.65 12.78 6.52 12.74 6.38 12.72C6.25 12.7 6.12 12.69 5.99 12.69V11.32C6.11 11.32 6.24 11.31 6.37 11.29C6.5 11.27 6.63 11.23 6.76 11.16C6.89 11.1 7 11 7.08 10.88C7.17 10.76 7.21 10.6 7.21 10.41V8.07001C7.21 7.42001 7.37 6.94 7.69 6.63C8.01 6.31 8.43 6.14999 8.95 6.14999H10.41V7.44H9.89C9.61 7.44 9.42 7.51999 9.34 7.67999C9.25 7.83999 9.21 8.04 9.21 8.28V10.74C9.21 10.97 9.16 11.17 9.06 11.33C8.96 11.49 8.84 11.62 8.69 11.71C8.54 11.8 8.38 11.87 8.21 11.91C8.04 11.95 7.88 11.98 7.73 11.99V12.02C7.93 12.04 8.1 12.06 8.25 12.09C8.4 12.12 8.55 12.18 8.69 12.27C8.84 12.36 8.96 12.49 9.06 12.68C9.16 12.86 9.21 13.09 9.21 13.38V15.75C9.21 15.99 9.25 16.19 9.34 16.35C9.43 16.51 9.61 16.59 9.89 16.59H10.42V17.88H8.96V17.86Z" fill="#666666"/>
<path d="M13.58 16.57H14.12C14.4 16.57 14.59 16.49 14.67 16.33C14.76 16.17 14.8 15.97 14.8 15.73V13.36C14.8 13.08 14.85 12.84 14.95 12.66C15.05 12.48 15.17 12.34 15.32 12.25C15.47 12.16 15.62 12.1 15.77 12.06C15.92 12.03 16.09 12 16.28 12V11.97C16.13 11.96 15.96 11.94 15.8 11.89C15.63 11.85 15.47 11.78 15.32 11.69C15.17 11.6 15.04 11.47 14.95 11.31C14.85 11.15 14.8 10.95 14.8 10.72V8.25999C14.8 8.01999 14.76 7.82 14.67 7.66C14.58 7.5 14.4 7.42 14.12 7.42H13.58V6.13H15.05C15.57 6.13 15.98 6.29 16.31 6.61C16.63 6.93 16.79 7.41 16.79 8.05V10.39C16.79 10.58 16.83 10.74 16.92 10.86C17.01 10.98 17.11 11.08 17.24 11.14C17.36 11.2 17.49 11.25 17.63 11.27C17.76 11.29 17.89 11.3 18.01 11.3V12.67C17.89 12.67 17.76 12.68 17.63 12.7C17.5 12.72 17.37 12.76 17.24 12.83C17.12 12.89 17.01 12.99 16.92 13.11C16.83 13.24 16.79 13.39 16.79 13.58V15.93C16.79 16.57 16.63 17.05 16.31 17.37C15.99 17.68 15.57 17.84 15.05 17.84H13.58V16.57V16.57Z" fill="#666666"/>
</svg>