<svg width="24" height="24" viewBox="0 0 24 24" fill="none" xmlns="http://www.w3.org/2000/svg">
<path d="M8.42 17.44C8.27 17.44 8.13 17.43 7.98 17.42C7.75 17.4 7.55 17.23 7.51 17C7.47 16.77 7.58 16.54 7.79 16.44C8.25 16.22 8.62 15.91 8.91 15.54C7.12 14.68 6 13.1 6 11.4C6 8.72999 8.69 6.56 12 6.56C15.31 6.56 18 8.72999 18 11.4C18 14.07 15.31 16.24 12 16.24C11.92 16.24 11.84 16.24 11.77 16.23C10.92 17.01 9.74 17.44 8.42 17.44Z" fill="#666666"/>
<path d="M9.5 12C9.77614 12 10 11.7761 10 11.5C10 11.2239 9.77614 11 9.5 11C9.22386 11 9 11.2239 9 11.5C9 11.7761 9.22386 12 9.5 12Z" fill="#ECEEF0"/>
<path d="M12 12C12.2761 12 12.5 11.7761 12.5 11.5C12.5 11.2239 12.2761 11 12 11C11.7239 11 11.5 11.2239 11.5 11.5C11.5 11.7761 11.7239 12 12 12Z" fill="#ECEEF0"/>
<path d="M14.5 12C14.7761 12 15 11.7761 15 11.5C15 11.2239 14.7761 11 14.5 11C14.2239 11 14 11.2239 14 11.5C14 11.7761 14.2239 12 14.5 12Z" fill="#ECEEF0"/>
</svg>