<svg width="24" height="24" viewBox="0 0 24 24" fill="none" xmlns="http://www.w3.org/2000/svg">
<path d="M7.25 13C8.07843 13 8.75 12.3284 8.75 11.5C8.75 10.6716 8.07843 10 7.25 10C6.42157 10 5.75 10.6716 5.75 11.5C5.75 12.3284 6.42157 13 7.25 13Z" fill="#666666"/>
<path d="M12 13C12.8284 13 13.5 12.3284 13.5 11.5C13.5 10.6716 12.8284 10 12 10C11.1716 10 10.5 10.6716 10.5 11.5C10.5 12.3284 11.1716 13 12 13Z" fill="#666666"/>
<path d="M16.75 13C17.5784 13 18.25 12.3284 18.25 11.5C18.25 10.6716 17.5784 10 16.75 10C15.9216 10 15.25 10.6716 15.25 11.5C15.25 12.3284 15.9216 13 16.75 13Z" fill="#666666"/>
</svg>