<svg width="24" height="24" viewBox="0 0 24 24" fill="none" xmlns="http://www.w3.org/2000/svg">
<path d="M12 18C8.69 18 6 15.31 6 12C6 8.69 8.69 6 12 6C15.31 6 18 8.69 18 12C18 15.31 15.31 18 12 18ZM12 7.01C9.25 7.01 7.01 9.25 7.01 12C7.01 14.75 9.25 16.99 12 16.99C14.75 16.99 16.99 14.75 16.99 12C16.99 9.25 14.75 7.01 12 7.01Z" fill="#666666"/>
<path d="M12 17.75C10.11 17.75 8.57 15.17 8.57 12C8.57 8.83 10.11 6.25 12 6.25C13.89 6.25 15.43 8.83 15.43 12C15.43 15.17 13.89 17.75 12 17.75ZM12 6.76C10.39 6.76 9.07 9.11 9.07 12C9.07 14.89 10.38 17.24 12 17.24C13.61 17.24 14.93 14.89 14.93 12C14.93 9.11 13.61 6.76 12 6.76Z" fill="#666666"/>
<path d="M12 17.75C11.86 17.75 11.75 17.64 11.75 17.5V6.51C11.75 6.37 11.86 6.26 12 6.26C15.17 6.26 17.75 8.83999 17.75 12.01C17.75 15.17 15.17 17.75 12 17.75ZM12.25 6.76V17.23C15.02 17.1 17.24 14.8 17.24 11.99C17.24 9.19001 15.03 6.9 12.25 6.76Z" fill="#666666"/>
<path d="M17.14 14.19H6.86C6.75 14.19 6.66 14.12 6.62 14.03C6.37 13.37 6.25 12.69 6.25 12C6.25 11.31 6.38 10.63 6.62 9.97C6.66 9.87 6.75 9.81 6.86 9.81H17.13C17.24 9.81 17.33 9.88 17.37 9.97C17.62 10.63 17.74 11.31 17.74 12C17.74 12.69 17.61 13.37 17.37 14.03C17.34 14.12 17.24 14.19 17.14 14.19ZM7.04 13.68H16.96C17.15 13.13 17.24 12.57 17.24 12C17.24 11.43 17.15 10.87 16.96 10.32H7.04C6.85 10.87 6.76 11.44 6.76 12C6.76 12.57 6.85 13.13 7.04 13.68Z" fill="#666666"/>
</svg>