<svg width="24" height="24" viewBox="0 0 24 24" fill="none" xmlns="http://www.w3.org/2000/svg">
<path d="M16 7H8C6.9 7 6 7.9 6 9V15C6 16.1 6.9 17 8 17H16C17.1 17 18 16.1 18 15V9C18 7.9 17.1 7 16 7ZM15.89 9.85001L13.98 11.76L13.27 12.47L12.36 13.38C12.16 13.58 11.85 13.58 11.65 13.38L10.74 12.47L10.03 11.76L8.12 9.85001C7.92 9.65001 7.92 9.34 8.12 9.14C8.32 8.94 8.63 8.94 8.83 9.14L10.74 11.05L11.45 11.76L12.01 12.32L12.57 11.76L13.28 11.05L15.19 9.14C15.39 8.94 15.7 8.94 15.9 9.14C16.08 9.34 16.08 9.66001 15.89 9.85001Z" fill="#666666"/>
</svg>