<svg width="14" height="16" viewBox="0 0 14 16" fill="none" xmlns="http://www.w3.org/2000/svg">
<g clip-path="url(#clip0)">
<path d="M2.54 4.07C4.37 1.78 7.65 1.3 10.05 2.89L8.77 3.1C8.42 3.16 8.18 3.49 8.24 3.85C8.3 4.2 8.63 4.44 8.99 4.38L11.61 3.94C11.77 3.91 11.91 3.83 12.01 3.7C12.11 3.58 12.16 3.42 12.15 3.26L12 0.610002C11.97 0.260002 11.67 -0.0199984 11.31 1.60595e-06C10.95 0.0200016 10.68 0.330002 10.7 0.690002L10.76 1.8C7.8 -0.159999 3.78 0.430002 1.52 3.25C0.0299981 5.12 -0.400002 7.58 0.379998 9.84C0.499998 10.18 0.869998 10.36 1.21 10.24C1.55 10.12 1.73 9.75 1.61 9.41C0.979998 7.58 1.33 5.58 2.54 4.07Z" fill="white"/>
<path d="M13.62 5.38C13.5 5.04 13.13 4.86 12.79 4.98C12.45 5.1 12.27 5.47 12.39 5.81C13.02 7.65 12.67 9.65 11.46 11.16C9.64 13.43 6.4 13.92 4 12.37L5.19 12.17C5.35 12.14 5.49 12.06 5.59 11.93C5.7 11.79 5.76 11.61 5.72 11.42C5.66 11.07 5.33 10.83 4.97 10.89L2.35 11.33C2.03 11.38 1.8 11.67 1.81 12L1.96 14.65C1.98 15.01 2.29 15.28 2.65 15.26C3.01 15.24 3.28 14.93 3.26 14.57L3.2 13.39C6.16 15.38 10.22 14.8 12.48 11.96C13.97 10.1 14.39 7.64 13.62 5.38Z" fill="white"/>
</g>
<defs>
<clipPath id="clip0">
<rect width="14" height="15.27" fill="white"/>
</clipPath>
</defs>
</svg>