<svg width="76" height="532" viewBox="0 0 76 532" fill="none" xmlns="http://www.w3.org/2000/svg">
<path d="M38.13 188.87C34.69 188.87 31.89 185.76 31.89 181.93C31.89 178.1 34.69 175 38.13 175C41.57 175 44.36 178.11 44.36 181.93C44.36 185.75 41.56 188.87 38.13 188.87ZM38.13 178.3C36.5 178.3 35.13 179.93 35.13 181.93C35.13 183.93 36.45 185.58 38.13 185.58C39.81 185.58 41.06 183.94 41.06 181.93C41.06 179.92 39.75 178.3 38.13 178.3Z" fill="#0A43AD"/>
<path d="M46.84 205H29.18C28.7641 204.999 28.3641 204.84 28.06 204.556C27.756 204.273 27.5702 203.885 27.54 203.47C27.4 201.55 27.27 199.64 27.15 197.76C27.1304 196.522 27.4882 195.308 28.1761 194.279C28.8639 193.25 29.8489 192.455 31 192C35.5264 190.382 40.4735 190.382 45 192C46.1472 192.453 47.1303 193.243 47.8194 194.266C48.5085 195.289 48.8713 196.497 48.86 197.73L48.4699 203.43C48.4396 203.846 48.2525 204.236 47.9463 204.52C47.6401 204.804 47.2376 204.961 46.82 204.96L46.84 205ZM30.7199 201.7H45.3L45.59 197.54C45.5547 197.024 45.3784 196.527 45.0805 196.104C44.7825 195.681 44.3742 195.347 43.9 195.14C40.0902 193.785 35.9298 193.785 32.12 195.14C31.6483 195.35 31.2426 195.684 30.9466 196.107C30.6506 196.53 30.4755 197.025 30.44 197.54C30.53 198.92 30.6199 200.31 30.7199 201.7V201.7Z" fill="#0A43AD"/>
<path d="M46.84 205H29.18C28.7641 204.999 28.3641 204.84 28.06 204.556C27.756 204.273 27.5702 203.885 27.54 203.47C27.4 201.55 27.27 199.64 27.15 197.76C27.1304 196.522 27.4882 195.308 28.1761 194.279C28.8639 193.25 29.8489 192.455 31 192C35.5264 190.382 40.4735 190.382 45 192C46.1472 192.453 47.1303 193.243 47.8194 194.266C48.5085 195.289 48.8713 196.497 48.86 197.73L48.4699 203.43C48.4396 203.846 48.2525 204.236 47.9463 204.52C47.6401 204.804 47.2376 204.961 46.82 204.96L46.84 205ZM30.7199 201.7H45.3L45.59 197.54C45.5547 197.024 45.3784 196.527 45.0805 196.104C44.7825 195.681 44.3742 195.347 43.9 195.14C40.0902 193.785 35.9298 193.785 32.12 195.14C31.6483 195.35 31.2426 195.684 30.9466 196.107C30.6506 196.53 30.4755 197.025 30.44 197.54C30.53 198.92 30.6199 200.31 30.7199 201.7V201.7Z" fill="#0A43AD"/>
<path d="M57.53 202.32H50.53C50.4141 202.333 50.2966 202.321 50.1855 202.285C50.0744 202.25 49.9722 202.191 49.8853 202.113C49.7984 202.035 49.7288 201.94 49.6812 201.834C49.6336 201.727 49.609 201.612 49.609 201.495C49.609 201.378 49.6336 201.263 49.6812 201.156C49.7288 201.05 49.7984 200.955 49.8853 200.877C49.9722 200.799 50.0744 200.74 50.1855 200.705C50.2966 200.669 50.4141 200.657 50.53 200.67H56.79L57.08 196.52C57.0532 195.944 56.8644 195.387 56.5354 194.913C56.2064 194.438 55.7505 194.067 55.22 193.84C53.6139 193.267 51.9251 192.959 50.22 192.93C50.1114 192.929 50.0043 192.906 49.9046 192.863C49.805 192.82 49.7148 192.757 49.6395 192.679C49.5641 192.601 49.505 192.509 49.4656 192.408C49.4262 192.306 49.4073 192.199 49.41 192.09C49.4151 191.875 49.5035 191.671 49.6565 191.519C49.8094 191.368 50.015 191.283 50.23 191.28V191.28C52.1117 191.315 53.9755 191.653 55.75 192.28C56.6165 192.628 57.3592 193.228 57.8829 194.001C58.4067 194.774 58.6878 195.686 58.69 196.62L58.35 201.54C58.3372 201.749 58.2453 201.945 58.0928 202.088C57.9404 202.231 57.7391 202.31 57.53 202.31V202.32Z" fill="#0A43AD"/>
<path d="M52.12 189.5C51.1122 189.622 50.0912 189.434 49.1928 188.961C48.2943 188.489 47.561 187.754 47.0902 186.855C46.6195 185.955 46.4336 184.934 46.5573 183.927C46.6811 182.919 47.1085 181.973 47.783 181.214C48.4574 180.456 49.3467 179.92 50.3328 179.679C51.3189 179.438 52.3551 179.503 53.3034 179.865C54.2518 180.227 55.0675 180.869 55.642 181.706C56.2166 182.543 56.5228 183.535 56.52 184.55C56.5884 185.789 56.1642 187.004 55.34 187.932C54.5157 188.859 53.3583 189.423 52.12 189.5V189.5ZM52.12 181.25C51.443 181.127 50.7445 181.215 50.1194 181.503C49.4944 181.79 48.9731 182.264 48.6263 182.858C48.2796 183.452 48.1244 184.139 48.1816 184.825C48.2389 185.51 48.506 186.162 48.9465 186.69C49.387 187.219 49.9796 187.599 50.6437 187.779C51.3079 187.959 52.0113 187.93 52.6584 187.696C53.3056 187.463 53.8651 187.035 54.2607 186.472C54.6564 185.909 54.8691 185.238 54.87 184.55C54.9343 183.75 54.6823 182.956 54.1683 182.339C53.6542 181.722 52.9189 181.331 52.12 181.25V181.25Z" fill="#0A43AD"/>
<path d="M25.5 202.32H18.5C18.2909 202.32 18.0896 202.241 17.9371 202.098C17.7847 201.955 17.6927 201.759 17.68 201.55L17.34 196.63C17.3428 195.698 17.6228 194.787 18.1446 194.014C18.6663 193.241 19.4062 192.641 20.27 192.29C22.0482 191.664 23.9151 191.326 25.8 191.29C26.0155 191.297 26.2207 191.384 26.3759 191.533C26.5311 191.683 26.6253 191.885 26.64 192.1C26.6427 192.209 26.6237 192.316 26.5844 192.418C26.545 192.519 26.4859 192.611 26.4105 192.689C26.3352 192.767 26.245 192.83 26.1454 192.873C26.0457 192.916 25.9386 192.939 25.83 192.94C24.1251 192.971 22.4366 193.279 20.83 193.85C20.3013 194.078 19.8475 194.451 19.5204 194.924C19.1933 195.398 19.006 195.955 18.98 196.53L19.27 200.68H25.53C25.646 200.667 25.7634 200.679 25.8745 200.715C25.9855 200.75 26.0878 200.809 26.1747 200.887C26.2616 200.965 26.3312 201.06 26.3788 201.166C26.4264 201.273 26.451 201.388 26.451 201.505C26.451 201.622 26.4264 201.737 26.3788 201.844C26.3312 201.95 26.2616 202.045 26.1747 202.123C26.0878 202.201 25.9855 202.26 25.8745 202.295C25.7634 202.331 25.646 202.343 25.53 202.33L25.5 202.32Z" fill="#0A43AD"/>
<path d="M23.88 189.5C22.8722 189.622 21.8512 189.434 20.9528 188.961C20.0543 188.489 19.3209 187.754 18.8502 186.855C18.3794 185.955 18.1936 184.934 18.3173 183.927C18.4411 182.919 18.8686 181.973 19.543 181.214C20.2174 180.456 21.1067 179.92 22.0928 179.679C23.0789 179.438 24.1151 179.503 25.0634 179.865C26.0118 180.227 26.8275 180.869 27.402 181.706C27.9766 182.543 28.2829 183.535 28.28 184.55C28.3458 185.788 27.9207 187.002 27.0969 187.929C26.2732 188.856 25.1173 189.42 23.88 189.5V189.5ZM23.88 181.25C23.203 181.127 22.5045 181.215 21.8795 181.503C21.2544 181.79 20.7331 182.264 20.3864 182.858C20.0397 183.452 19.8844 184.139 19.9417 184.825C19.9989 185.51 20.266 186.162 20.7065 186.69C21.147 187.219 21.7396 187.599 22.4038 187.779C23.0679 187.959 23.7713 187.93 24.4185 187.696C25.0656 187.463 25.6251 187.035 26.0208 186.472C26.4164 185.909 26.6292 185.238 26.63 184.55C26.6943 183.75 26.4424 182.956 25.9283 182.339C25.4142 181.722 24.6789 181.331 23.88 181.25V181.25Z" fill="#0A43AD"/>
<path d="M49.57 283H26.43C26.0587 283 25.7026 282.852 25.4401 282.59C25.1775 282.327 25.03 281.971 25.03 281.6V251.8C25.03 251.429 25.1775 251.073 25.4401 250.81C25.7026 250.548 26.0587 250.4 26.43 250.4H49.57C49.9413 250.4 50.2974 250.548 50.5599 250.81C50.8225 251.073 50.97 251.429 50.97 251.8V281.6C50.97 281.971 50.8225 282.327 50.5599 282.59C50.2974 282.852 49.9413 283 49.57 283V283ZM27.84 280.2H48.16V253.2H27.84V280.2Z" fill="#0A43AD"/>
<path d="M42.73 255H33.27C32.4744 255 31.7113 254.684 31.1487 254.121C30.5861 253.559 30.27 252.796 30.27 252C30.27 251.204 30.5861 250.441 31.1487 249.879C31.7113 249.316 32.4744 249 33.27 249H42.73C43.5256 249 44.2887 249.316 44.8513 249.879C45.4139 250.441 45.73 251.204 45.73 252C45.73 252.796 45.4139 253.559 44.8513 254.121C44.2887 254.684 43.5256 255 42.73 255ZM33.27 251.84C33.2223 251.84 33.1765 251.859 33.1427 251.893C33.1089 251.926 33.09 251.972 33.09 252.02C33.09 252.043 33.0947 252.066 33.1038 252.087C33.113 252.109 33.1264 252.128 33.1432 252.144C33.1601 252.16 33.18 252.172 33.2018 252.18C33.2236 252.188 33.2469 252.191 33.27 252.19H42.73C42.7531 252.191 42.7764 252.188 42.7982 252.18C42.82 252.172 42.8399 252.16 42.8568 252.144C42.8736 252.128 42.887 252.109 42.8962 252.087C42.9053 252.066 42.91 252.043 42.91 252.02C42.91 251.972 42.8911 251.926 42.8573 251.893C42.8235 251.859 42.7777 251.84 42.73 251.84H33.27Z" fill="#0A43AD"/>
<path d="M33.23 259.72H31.61C31.4376 259.72 31.2723 259.788 31.1504 259.91C31.0285 260.032 30.96 260.198 30.96 260.37V262C30.9626 262.171 31.0323 262.333 31.1539 262.453C31.2755 262.573 31.4393 262.64 31.61 262.64H33.23C33.4007 262.64 33.5645 262.573 33.6861 262.453C33.8077 262.333 33.8774 262.171 33.88 262V260.38C33.88 260.208 33.8115 260.042 33.6896 259.92C33.5677 259.798 33.4024 259.73 33.23 259.73V259.72Z" fill="#0A43AD"/>
<path d="M45 261.88H36C35.8143 261.88 35.6363 261.806 35.505 261.675C35.3737 261.544 35.3 261.366 35.3 261.18C35.3 260.994 35.3737 260.816 35.505 260.685C35.6363 260.554 35.8143 260.48 36 260.48H45C45.1857 260.48 45.3637 260.554 45.495 260.685C45.6263 260.816 45.7 260.994 45.7 261.18C45.7 261.366 45.6263 261.544 45.495 261.675C45.3637 261.806 45.1857 261.88 45 261.88Z" fill="#0A43AD"/>
<path d="M33.23 269.34H31.61C31.4376 269.34 31.2723 269.408 31.1504 269.53C31.0285 269.652 30.96 269.818 30.96 269.99V271.61C30.9626 271.781 31.0323 271.943 31.1539 272.063C31.2755 272.183 31.4393 272.25 31.61 272.25H33.23C33.4007 272.25 33.5645 272.183 33.6861 272.063C33.8077 271.943 33.8774 271.781 33.88 271.61V270C33.88 269.828 33.8115 269.662 33.6896 269.54C33.5677 269.418 33.4024 269.35 33.23 269.35V269.34Z" fill="#0A43AD"/>
<path d="M45 271.5H36C35.8143 271.5 35.6363 271.426 35.505 271.295C35.3737 271.164 35.3 270.986 35.3 270.8C35.3 270.614 35.3737 270.436 35.505 270.305C35.6363 270.174 35.8143 270.1 36 270.1H45C45.1857 270.1 45.3637 270.174 45.495 270.305C45.6263 270.436 45.7 270.614 45.7 270.8C45.7 270.986 45.6263 271.164 45.495 271.295C45.3637 271.426 45.1857 271.5 45 271.5Z" fill="#0A43AD"/>
<path d="M33.23 264.53H31.61C31.4376 264.53 31.2723 264.598 31.1504 264.72C31.0285 264.842 30.96 265.008 30.96 265.18V266.8C30.9626 266.971 31.0323 267.133 31.1539 267.253C31.2755 267.373 31.4393 267.44 31.61 267.44H33.23C33.4007 267.44 33.5645 267.373 33.6861 267.253C33.8077 267.133 33.8774 266.971 33.88 266.8V265.18C33.88 265.008 33.8115 264.842 33.6896 264.72C33.5677 264.598 33.4024 264.53 33.23 264.53Z" fill="#0A43AD"/>
<path d="M45 266.69H36C35.8143 266.69 35.6363 266.616 35.505 266.485C35.3737 266.354 35.3 266.176 35.3 265.99C35.3 265.804 35.3737 265.626 35.505 265.495C35.6363 265.364 35.8143 265.29 36 265.29H45C45.1857 265.29 45.3637 265.364 45.495 265.495C45.6263 265.626 45.7 265.804 45.7 265.99C45.7 266.176 45.6263 266.354 45.495 266.485C45.3637 266.616 45.1857 266.69 45 266.69Z" fill="#0A43AD"/>
<path d="M37 337.38C33.46 337.38 30.58 334.16 30.58 330.19C30.58 326.22 33.46 323 37 323C40.54 323 43.41 326.23 43.41 330.19C43.41 334.15 40.53 337.38 37 337.38ZM37 325.67C34.93 325.67 33.25 327.67 33.25 330.19C33.25 332.71 34.93 334.71 37 334.71C39.07 334.71 40.74 332.71 40.74 330.19C40.74 327.67 39.06 325.67 37 325.67Z" fill="#0A43AD"/>
<path d="M46.8 361C45.1584 361 43.5537 360.513 42.1888 359.601C40.8239 358.689 39.76 357.393 39.1318 355.876C38.5036 354.36 38.3392 352.691 38.6595 351.081C38.9798 349.471 39.7703 347.992 40.931 346.831C42.0918 345.67 43.5707 344.88 45.1807 344.559C46.7908 344.239 48.4596 344.404 49.9763 345.032C51.4929 345.66 52.7892 346.724 53.7012 348.089C54.6132 349.454 55.1 351.058 55.1 352.7C55.0973 354.9 54.2221 357.01 52.6661 358.566C51.1101 360.122 49.0005 360.997 46.8 361V361ZM46.8 345.74C45.4155 345.74 44.0622 346.151 42.911 346.92C41.7599 347.689 40.8626 348.782 40.3328 350.061C39.803 351.34 39.6644 352.748 39.9345 354.106C40.2046 355.463 40.8713 356.711 41.8503 357.69C42.8293 358.669 44.0765 359.335 45.4344 359.605C46.7923 359.876 48.1997 359.737 49.4788 359.207C50.7579 358.677 51.8511 357.78 52.6203 356.629C53.3895 355.478 53.8 354.124 53.8 352.74C53.8 350.883 53.0625 349.103 51.7498 347.79C50.437 346.477 48.6565 345.74 46.8 345.74Z" fill="#0A43AD"/>
<path d="M39.17 353.94H27.1C26.7614 353.938 26.436 353.808 26.1893 353.576C25.9425 353.345 25.7928 353.028 25.77 352.69L25.34 346.38C25.343 345.125 25.7192 343.9 26.4208 342.86C27.1225 341.82 28.1178 341.012 29.28 340.54C34.1947 338.785 39.5653 338.785 44.48 340.54C45.3825 340.905 46.1896 341.471 46.8396 342.195C47.4896 342.92 47.9652 343.783 48.23 344.72L45.66 345.45C45.5076 344.923 45.2415 344.436 44.8804 344.023C44.5193 343.61 44.072 343.281 43.57 343.06C39.2447 341.51 34.5153 341.51 30.19 343.06C29.5714 343.331 29.0395 343.768 28.6531 344.322C28.2667 344.876 28.0407 345.526 28 346.2L28.34 351.27H39.16V353.94H39.17Z" fill="#0A43AD"/>
<path d="M45.46 357.5C45.2738 357.507 45.0882 357.474 44.9158 357.403C44.7433 357.332 44.588 357.226 44.46 357.09L42.26 354.79C42.1385 354.663 42.0433 354.513 41.9799 354.348C41.9164 354.184 41.8858 354.009 41.89 353.833C41.8942 353.657 41.933 353.484 42.0042 353.323C42.0754 353.162 42.1776 353.016 42.305 352.895C42.4324 352.774 42.5825 352.678 42.7467 352.615C42.9108 352.551 43.0859 352.521 43.2619 352.525C43.4378 352.529 43.6112 352.568 43.7722 352.639C43.9331 352.71 44.0786 352.813 44.2 352.94L45.35 354.15L49.23 349.42C49.3355 349.269 49.4712 349.141 49.6285 349.044C49.7858 348.948 49.9613 348.885 50.1441 348.859C50.3268 348.834 50.5129 348.846 50.6906 348.896C50.8683 348.946 51.0338 349.031 51.1768 349.148C51.3197 349.265 51.4371 349.41 51.5214 349.574C51.6057 349.738 51.6551 349.918 51.6667 350.102C51.6783 350.286 51.6517 350.471 51.5886 350.644C51.5255 350.818 51.4272 350.976 51.3 351.11L46.49 357C46.3677 357.147 46.215 357.266 46.0424 357.349C45.8698 357.432 45.6814 357.477 45.49 357.48L45.46 357.5Z" fill="#0A43AD"/>
<path d="M38.12 36.88C34.46 36.88 31.48 33.54 31.48 29.44C31.48 25.34 34.48 22 38.12 22C41.76 22 44.75 25.34 44.75 29.44C44.75 33.54 41.75 36.88 38.12 36.88ZM38.12 24.77C35.98 24.77 34.25 26.86 34.25 29.44C34.25 32.02 35.98 34.11 38.12 34.11C40.26 34.11 42 32 42 29.44C42 26.88 40.26 24.77 38.13 24.77H38.12Z" fill="#0A43AD"/>
<path d="M48.12 54H27.89C27.5391 54.0007 27.2011 53.8678 26.9447 53.6281C26.6883 53.3885 26.5329 53.0602 26.51 52.71L26.06 46.19C26.0736 44.9006 26.4669 43.6438 27.1908 42.5766C27.9147 41.5095 28.937 40.6794 30.13 40.19C35.2162 38.3749 40.7737 38.3749 45.86 40.19C47.065 40.6806 48.0967 41.5191 48.8233 42.5984C49.55 43.6776 49.9387 44.9489 49.94 46.25L49.5 52.77C49.4608 53.1085 49.2986 53.4209 49.0441 53.6477C48.7897 53.8744 48.4608 53.9998 48.12 54V54ZM29.18 51.23H46.82L47.18 46C47.1432 45.2977 46.9113 44.6197 46.5103 44.042C46.1093 43.4643 45.5551 43.01 44.91 42.73C40.437 41.1404 35.553 41.1404 31.08 42.73C30.4388 43.0142 29.8885 43.4699 29.4897 44.0469C29.091 44.6239 28.8592 45.2997 28.82 46L29.18 51.23V51.23Z" fill="#0A43AD"/>
<path d="M50.72 129.07H25.29C24.4174 129.07 23.5806 128.723 22.9636 128.106C22.3466 127.489 22 126.653 22 125.78V118.83C22 118.398 22.0851 117.971 22.2506 117.572C22.4161 117.174 22.6586 116.812 22.9642 116.507C23.2699 116.202 23.6326 115.961 24.0317 115.797C24.4308 115.633 24.8584 115.549 25.29 115.55H50.72C51.5899 115.55 52.4242 115.896 53.0393 116.511C53.6544 117.126 54 117.96 54 118.83V125.78C54 126.651 53.6548 127.486 53.0399 128.103C52.4251 128.72 51.5908 129.067 50.72 129.07V129.07ZM25.29 118.31C25.1521 118.31 25.0198 118.365 24.9223 118.462C24.8248 118.56 24.77 118.692 24.77 118.83V125.78C24.77 125.918 24.8248 126.05 24.9223 126.148C25.0198 126.245 25.1521 126.3 25.29 126.3H50.72C50.7878 126.3 50.8549 126.286 50.9175 126.26C50.98 126.234 51.0367 126.196 51.0842 126.147C51.1317 126.099 51.1691 126.041 51.1941 125.978C51.2191 125.915 51.2313 125.848 51.23 125.78V118.83C51.23 118.694 51.1766 118.563 51.0812 118.466C50.9859 118.369 50.8561 118.313 50.72 118.31H25.29Z" fill="#0A43AD"/>
<path d="M50.72 112.45H25.29C24.8584 112.451 24.4308 112.367 24.0317 112.203C23.6326 112.039 23.2699 111.798 22.9642 111.493C22.6586 111.188 22.4161 110.826 22.2506 110.428C22.0851 110.029 22 109.602 22 109.17V102.22C22 101.347 22.3466 100.511 22.9636 99.8936C23.5806 99.2766 24.4174 98.93 25.29 98.93H50.72C51.1515 98.93 51.5789 99.0152 51.9775 99.1806C52.3761 99.3461 52.7381 99.5886 53.0428 99.8942C53.3476 100.2 53.5889 100.563 53.7532 100.962C53.9174 101.361 54.0013 101.788 54 102.22V109.17C54 110.04 53.6544 110.874 53.0393 111.489C52.4242 112.104 51.5899 112.45 50.72 112.45V112.45ZM25.29 101.7C25.1521 101.7 25.0198 101.755 24.9223 101.852C24.8248 101.95 24.77 102.082 24.77 102.22V109.17C24.77 109.308 24.8248 109.44 24.9223 109.538C25.0198 109.635 25.1521 109.69 25.29 109.69H50.72C50.8561 109.687 50.9859 109.631 51.0812 109.534C51.1766 109.437 51.23 109.306 51.23 109.17V102.22C51.2313 102.152 51.2191 102.085 51.1941 102.022C51.1691 101.959 51.1317 101.901 51.0842 101.853C51.0367 101.804 50.98 101.766 50.9175 101.74C50.8549 101.714 50.7878 101.7 50.72 101.7H25.29Z" fill="#0A43AD"/>
<path d="M47.92 106.38H42.39C42.207 106.38 42.0315 106.307 41.9021 106.178C41.7727 106.049 41.7 105.873 41.7 105.69C41.7 105.507 41.7727 105.332 41.9021 105.202C42.0315 105.073 42.207 105 42.39 105H47.92C48.103 105 48.2785 105.073 48.4079 105.202C48.5373 105.332 48.61 105.507 48.61 105.69C48.61 105.873 48.5373 106.049 48.4079 106.178C48.2785 106.307 48.103 106.38 47.92 106.38V106.38Z" fill="#0A43AD"/>
<path d="M47.92 122.83H42.39C42.2917 122.842 42.1921 122.833 42.0976 122.803C42.0031 122.774 41.916 122.724 41.842 122.659C41.7679 122.593 41.7087 122.512 41.6681 122.422C41.6275 122.332 41.6065 122.234 41.6065 122.135C41.6065 122.036 41.6275 121.938 41.6681 121.848C41.7087 121.758 41.7679 121.677 41.842 121.611C41.916 121.546 42.0031 121.496 42.0976 121.467C42.1921 121.437 42.2917 121.428 42.39 121.44H47.92C48.0899 121.46 48.2466 121.542 48.3602 121.67C48.4738 121.799 48.5365 121.964 48.5365 122.135C48.5365 122.306 48.4738 122.471 48.3602 122.599C48.2466 122.728 48.0899 122.81 47.92 122.83V122.83Z" fill="#0A43AD"/>
<path d="M38.5 112.39V116.2C38.5 116.47 38.19 116.68 37.81 116.68C37.43 116.68 37.12 116.47 37.12 116.2V112.39C37.12 112.12 37.43 111.91 37.81 111.91C38.19 111.91 38.5 112.12 38.5 112.39Z" fill="#0A43AD"/>
<path d="M50.2 433H25.8C25.0821 432.997 24.3943 432.711 23.8867 432.203C23.379 431.696 23.0927 431.008 23.09 430.29V414.47C23.0927 413.752 23.379 413.064 23.8867 412.557C24.3943 412.049 25.0821 411.763 25.8 411.76H50.2C50.9179 411.763 51.6057 412.049 52.1133 412.557C52.621 413.064 52.9073 413.752 52.91 414.47V430.29C52.9073 431.008 52.621 431.696 52.1133 432.203C51.6057 432.711 50.9179 432.997 50.2 433V433ZM25.8 414.47V430.29H50.2V414.47H25.8Z" fill="#0A43AD"/>
<path d="M46.7 414.14C46.341 414.14 45.9966 413.998 45.7419 413.745C45.4871 413.492 45.3427 413.149 45.34 412.79V409.05C45.34 407.103 44.5667 405.236 43.1902 403.86C41.8137 402.483 39.9467 401.71 38 401.71C36.0533 401.71 34.1863 402.483 32.8098 403.86C31.4333 405.236 30.66 407.103 30.66 409.05V412.79C30.6308 413.129 30.4754 413.445 30.2245 413.676C29.9737 413.906 29.6455 414.033 29.305 414.033C28.9645 414.033 28.6363 413.906 28.3854 413.676C28.1345 413.445 27.9792 413.129 27.95 412.79V409.05C27.95 406.385 29.0088 403.828 30.8936 401.944C32.7783 400.059 35.3346 399 38 399C40.6654 399 43.2217 400.059 45.1064 401.944C46.9912 403.828 48.05 406.385 48.05 409.05V412.79C48.05 413.148 47.9078 413.491 47.6546 413.745C47.4014 413.998 47.0581 414.14 46.7 414.14Z" fill="#0A43AD"/>
<path d="M38 417.08C37.3744 417.08 36.7667 417.288 36.2724 417.672C35.7781 418.055 35.4253 418.592 35.2695 419.198C35.1138 419.804 35.1639 420.444 35.412 421.018C35.6601 421.593 36.0921 422.068 36.64 422.37V426.9H39.35V422.37C39.8972 422.069 40.3288 421.594 40.5771 421.021C40.8254 420.447 40.8762 419.808 40.7218 419.203C40.5673 418.597 40.2162 418.06 39.7236 417.676C39.231 417.292 38.6247 417.082 38 417.08V417.08Z" fill="#0A43AD"/>
<path d="M31.05 504.44C30.7611 504.439 30.4803 504.344 30.25 504.17C30.103 504.065 29.9783 503.931 29.8831 503.778C29.7879 503.624 29.724 503.453 29.6952 503.275C29.6664 503.096 29.6732 502.914 29.7152 502.738C29.7572 502.562 29.8336 502.396 29.94 502.25L35.94 494L29.94 485.74C29.7614 485.443 29.7007 485.091 29.7701 484.751C29.8394 484.412 30.0337 484.112 30.3143 483.909C30.595 483.706 30.9415 483.617 31.2852 483.658C31.6289 483.699 31.9447 483.867 32.17 484.13L38.76 493.19C38.9308 493.426 39.0227 493.709 39.0227 494C39.0227 494.291 38.9308 494.574 38.76 494.81L32.17 503.87C32.0417 504.047 31.8734 504.191 31.6786 504.29C31.4839 504.389 31.2685 504.44 31.05 504.44V504.44Z" fill="#0A43AD"/>
<path d="M37.65 495.37H20.65C20.2867 495.37 19.9382 495.226 19.6813 494.969C19.4243 494.712 19.28 494.363 19.28 494C19.28 493.637 19.4243 493.288 19.6813 493.031C19.9382 492.774 20.2867 492.63 20.65 492.63H37.65C38.0134 492.63 38.3618 492.774 38.6187 493.031C38.8756 493.288 39.02 493.637 39.02 494C39.02 494.363 38.8756 494.712 38.6187 494.969C38.3618 495.226 38.0134 495.37 37.65 495.37Z" fill="#0A43AD"/>
<path d="M49.15 510C48.9693 510.001 48.7901 509.967 48.6227 509.899C48.4553 509.83 48.3031 509.73 48.1748 509.602C48.0465 509.475 47.9447 509.323 47.8752 509.157C47.8058 508.99 47.77 508.811 47.77 508.63V479.37C47.7994 479.026 47.957 478.705 48.2116 478.471C48.4662 478.237 48.7993 478.107 49.145 478.107C49.4907 478.107 49.8238 478.237 50.0784 478.471C50.333 478.705 50.4906 479.026 50.52 479.37V508.63C50.52 508.993 50.3756 509.342 50.1187 509.599C49.8618 509.856 49.5134 510 49.15 510V510Z" fill="#0A43AD"/>
<path d="M49.15 480.75H30.77C30.5796 480.766 30.3878 480.743 30.207 480.681C30.0261 480.619 29.86 480.521 29.7192 480.391C29.5785 480.262 29.4661 480.105 29.3892 479.93C29.3123 479.755 29.2726 479.566 29.2726 479.375C29.2726 479.184 29.3123 478.995 29.3892 478.82C29.4661 478.645 29.5785 478.488 29.7192 478.359C29.86 478.229 30.0261 478.131 30.207 478.069C30.3878 478.007 30.5796 477.984 30.77 478H49.15C49.4945 478.029 49.8153 478.187 50.0491 478.442C50.2829 478.696 50.4127 479.029 50.4127 479.375C50.4127 479.721 50.2829 480.054 50.0491 480.308C49.8153 480.563 49.4945 480.721 49.15 480.75V480.75Z" fill="#0A43AD"/>
<path d="M49.15 510H30.77C30.5796 510.016 30.3878 509.993 30.207 509.931C30.0261 509.869 29.86 509.771 29.7192 509.641C29.5785 509.512 29.4661 509.355 29.3892 509.18C29.3123 509.005 29.2726 508.816 29.2726 508.625C29.2726 508.434 29.3123 508.245 29.3892 508.07C29.4661 507.895 29.5785 507.738 29.7192 507.609C29.86 507.479 30.0261 507.381 30.207 507.319C30.3878 507.257 30.5796 507.234 30.77 507.25H49.15C49.4945 507.279 49.8153 507.437 50.0491 507.692C50.2829 507.946 50.4127 508.279 50.4127 508.625C50.4127 508.971 50.2829 509.304 50.0491 509.558C49.8153 509.813 49.4945 509.971 49.15 510V510Z" fill="#0A43AD"/>
</svg>