<svg width="30" height="60" viewBox="0 0 30 60" fill="none" xmlns="http://www.w3.org/2000/svg">
<path d="M16.32 52.33V50.9C17.6464 50.9102 18.9377 50.4739 19.9861 49.6613C21.0345 48.8487 21.7791 47.707 22.1 46.42L23.46 46.75C23.0701 48.3434 22.1563 49.7596 20.8651 50.7715C19.574 51.7833 17.9804 52.3322 16.34 52.33H16.32Z" fill="#2772FB"/>
<path d="M16.32 39.07V37.67C17.9202 37.6717 19.476 38.1963 20.7505 39.1639C22.0249 40.1315 22.9484 41.4891 23.38 43.03L22.03 43.4C21.6794 42.155 20.9321 41.0585 19.9015 40.2769C18.8709 39.4954 17.6134 39.0717 16.32 39.07V39.07Z" fill="#2772FB"/>
<path d="M12.92 40.64V36.21H17.36V40.64H12.92ZM14.32 37.64V39.27H15.96V37.61L14.32 37.64Z" fill="#2772FB"/>
<path d="M12.92 53.79V49.36H17.36V53.79H12.92ZM14.32 50.79V52.42H15.96V50.76L14.32 50.79Z" fill="#2772FB"/>
<path d="M20.56 47.22V42.78H25V47.22H20.56ZM21.96 44.22V45.86H23.6V44.18L21.96 44.22Z" fill="#2772FB"/>
<path d="M13.68 52.33V50.9C12.353 50.9041 11.0632 50.4615 10.0183 49.6433C8.97348 48.8252 8.23436 47.6793 7.92001 46.39L6.56002 46.72C6.94995 48.3134 7.86374 49.7296 9.15487 50.7415C10.446 51.7534 12.0396 52.3022 13.68 52.3V52.33Z" fill="#2772FB"/>
<path d="M13.68 39.07V37.67C12.0798 37.6717 10.524 38.1963 9.24953 39.1639C7.97504 40.1315 7.05168 41.4891 6.62002 43.03L7.96999 43.4C8.32056 42.155 9.06788 41.0585 10.0985 40.2769C11.1291 39.4954 12.3866 39.0717 13.68 39.07V39.07Z" fill="#2772FB"/>
<path d="M9.44003 47.22H5.00002V42.78H9.44003V47.22ZM8.04 44.22H6.39999V45.86H8.04V44.18V44.22Z" fill="#2772FB"/>
<path d="M16.32 22.33V20.9C17.6464 20.9102 18.9377 20.474 19.9861 19.6613C21.0345 18.8487 21.7791 17.7071 22.1 16.42L23.46 16.75C23.0701 18.3434 22.1563 19.7596 20.8651 20.7715C19.574 21.7833 17.9804 22.3322 16.34 22.33H16.32Z" fill="#7A8BA9"/>
<path d="M16.32 9.07001V7.67001C17.9202 7.67174 19.476 8.19634 20.7505 9.16394C22.0249 10.1316 22.9484 11.4891 23.38 13.03L22.03 13.4C21.6794 12.155 20.9321 11.0585 19.9015 10.277C18.8709 9.49546 17.6134 9.07168 16.32 9.07001V9.07001Z" fill="#7A8BA9"/>
<path d="M12.92 10.64V6.20999H17.36V10.64H12.92ZM14.32 7.63999V9.26999H15.96V7.60999L14.32 7.63999Z" fill="#7A8BA9"/>
<path d="M12.92 23.79V19.36H17.36V23.79H12.92ZM14.32 20.79V22.42H15.96V20.76L14.32 20.79Z" fill="#7A8BA9"/>
<path d="M20.56 17.22V12.78H25V17.22H20.56ZM21.96 14.22V15.86H23.6V14.18L21.96 14.22Z" fill="#7A8BA9"/>
<path d="M13.68 22.33V20.9C12.353 20.9041 11.0632 20.4615 10.0183 19.6433C8.97348 18.8252 8.23436 17.6793 7.92001 16.39L6.56002 16.72C6.94995 18.3134 7.86374 19.7296 9.15487 20.7415C10.446 21.7534 12.0396 22.3022 13.68 22.3V22.33Z" fill="#7A8BA9"/>
<path d="M13.68 9.07001V7.67001C12.0798 7.67174 10.524 8.19634 9.24953 9.16394C7.97504 10.1316 7.05168 11.4891 6.62002 13.03L7.96999 13.4C8.32056 12.155 9.06788 11.0585 10.0985 10.277C11.1291 9.49546 12.3866 9.07168 13.68 9.07001V9.07001Z" fill="#7A8BA9"/>
<path d="M9.44003 17.22H5.00002V12.78H9.44003V17.22ZM8.04 14.22H6.39999V15.86H8.04V14.18V14.22Z" fill="#7A8BA9"/>
</svg>