<svg width="10" height="69" viewBox="0 0 10 69" fill="none" xmlns="http://www.w3.org/2000/svg">
<path d="M3.82 69C3.61 69 3.4 68.92 3.24 68.76C2.92 68.44 2.92 67.92 3.24 67.6L5.84 65L3.24 62.4C2.92 62.08 2.92 61.56 3.24 61.24C3.56 60.92 4.08 60.92 4.4 61.24L7.58 64.42C7.9 64.74 7.9 65.26 7.58 65.58L4.4 68.76C4.24 68.92 4.03 69 3.82 69Z" fill="#405D8E"/>
<path d="M10 4H6V0H4V4H0V6H4V10H6V6H10V4Z" fill="#86878B"/>
<path d="M10 14H0V16H10V14Z" fill="#86878B"/>
<path d="M10 24H6V20H4V24H0V26H4V30H6V26H10V24Z" fill="white"/>
<path d="M10 34H0V36H10V34Z" fill="white"/>
<path d="M9 44.2H5.8V41H4.2V44.2H1V45.8H4.2V49H5.8V45.8H9V44.2Z" fill="#1995E3"/>
<path d="M9 54.2H1V55.8H9V54.2Z" fill="#6A6A6A"/>
</svg>
