<svg width="6" height="25" viewBox="0 0 6 25" fill="none" xmlns="http://www.w3.org/2000/svg">
<g clip-path="url(#clip0)">
<path d="M0.880005 10.24C0.660005 10.24 0.430005 10.15 0.260005 9.98C-0.0799951 9.64 -0.0799951 9.08 0.260005 8.74L3.89001 5.12L0.260005 1.5C-0.0799951 1.16 -0.0799951 0.600001 0.260005 0.260001C0.600005 -0.0799989 1.16 -0.0799989 1.5 0.260001L5.74 4.5C5.91 4.67 6 4.89 6 5.12C6 5.35 5.91 5.58 5.74 5.74L1.5 9.99C1.33 10.16 1.1 10.24 0.880005 10.24Z" fill="#CDCDCD"/>
</g>
<g clip-path="url(#clip1)">
<path d="M0.880005 24.48C0.660005 24.48 0.430005 24.39 0.260005 24.22C-0.0799951 23.88 -0.0799951 23.32 0.260005 22.98L3.89001 19.36L0.260005 15.74C-0.0799951 15.4 -0.0799951 14.84 0.260005 14.5C0.600005 14.16 1.16 14.16 1.5 14.5L5.74 18.74C5.91 18.91 6 19.13 6 19.36C6 19.59 5.91 19.82 5.74 19.98L1.5 24.23C1.33 24.4 1.1 24.48 0.880005 24.48Z" fill="#2772FB"/>
</g>
<defs>
<clipPath id="clip0">
<rect width="6" height="10.24" fill="white"/>
</clipPath>
<clipPath id="clip1">
<rect width="6" height="10.24" fill="white" transform="translate(0 14.24)"/>
</clipPath>
</defs>
</svg>