<svg width="30" height="30" viewBox="0 0 30 30" fill="none" xmlns="http://www.w3.org/2000/svg">
<path d="M18.9 9.67H7.82C7.37 9.67 7 9.3 7 8.85C7 8.4 7.37 8.03 7.82 8.03H18.9C19.35 8.03 19.72 8.4 19.72 8.85C19.72 9.3 19.35 9.67 18.9 9.67Z" fill="white"/>
<path d="M22.11 11.03H19.38C18.93 11.03 18.56 10.66 18.56 10.21V7.48C18.56 7.03 18.93 6.66 19.38 6.66H22.11C22.56 6.66 22.93 7.03 22.93 7.48V10.21C22.93 10.67 22.56 11.03 22.11 11.03ZM20.2 9.39H21.29V8.3H20.2V9.39Z" fill="white"/>
<path d="M11.03 21.97H22.11C22.56 21.97 22.93 21.6 22.93 21.15C22.93 20.7 22.56 20.33 22.11 20.33H11.03C10.58 20.33 10.21 20.7 10.21 21.15C10.21 21.61 10.58 21.97 11.03 21.97Z" fill="white"/>
<path d="M7.82 23.34C7.37 23.34 7 22.98 7 22.52V19.79C7 19.34 7.37 18.97 7.82 18.97H10.55C11 18.97 11.37 19.34 11.37 19.79V22.52C11.37 22.97 11 23.34 10.55 23.34H7.82ZM9.73 21.7V20.61H8.64V21.7H9.73Z" fill="white"/>
<path d="M13.15 15.82H7.82C7.37 15.82 7 15.45 7 15C7 14.55 7.37 14.18 7.82 14.18H13.15C13.6 14.18 13.97 14.55 13.97 15C13.97 15.45 13.61 15.82 13.15 15.82Z" fill="white"/>
<path d="M16.85 14.18H22.18C22.63 14.18 23 14.55 23 15C23 15.45 22.63 15.82 22.18 15.82H16.85" fill="white"/>
<path d="M16.37 17.19H13.64C13.19 17.19 12.82 16.82 12.82 16.37V13.64C12.82 13.19 13.19 12.82 13.64 12.82H16.37C16.82 12.82 17.19 13.19 17.19 13.64V16.37C17.19 16.82 16.82 17.19 16.37 17.19ZM14.45 15.55H15.54V14.46H14.45V15.55Z" fill="white"/>
</svg>