<svg width="18" height="14" viewBox="0 0 18 14" fill="none" xmlns="http://www.w3.org/2000/svg">
<path d="M3.63765 1.88446C4.04306 1.15348 4.81313 0.7 5.649 0.7H15C16.2703 0.7 17.3 1.72975 17.3 3V11C17.3 12.2703 16.2703 13.3 15 13.3H5.64901C4.81313 13.3 4.04306 12.8465 3.63765 12.1155L1.41916 8.11554C1.0343 7.42164 1.0343 6.57836 1.41916 5.88446L3.63765 1.88446Z" fill="white" stroke="#535353" stroke-width="1.4"/>
<path fill-rule="evenodd" clip-rule="evenodd" d="M12.8337 4.96889C13.0553 4.74724 13.0553 4.38788 12.8337 4.16623C12.612 3.94459 12.2527 3.94459 12.031 4.16623L10.0001 6.19722L7.96907 4.16624C7.74743 3.94459 7.38807 3.94459 7.16642 4.16624C6.94477 4.38788 6.94477 4.74724 7.16642 4.96889L9.19741 6.99987L7.16623 9.03104C6.94459 9.25269 6.94459 9.61205 7.16623 9.8337C7.38788 10.0553 7.74724 10.0553 7.96889 9.8337L10.0001 7.80252L12.0312 9.8337C12.2529 10.0553 12.6122 10.0553 12.8339 9.8337C13.0555 9.61205 13.0555 9.25269 12.8339 9.03104L10.8027 6.99987L12.8337 4.96889Z" fill="#535353"/>
</svg>
