<svg width="148" height="13" viewBox="0 0 148 13" fill="none" xmlns="http://www.w3.org/2000/svg">
<g clip-path="url(#clip0_1584_4552)">
<path fill-rule="evenodd" clip-rule="evenodd" d="M1.88923 9.28194C2.06286 10.5219 3.24151 11.2674 4.90614 11.2674C6.57078 11.2674 7.62674 10.4521 7.62674 9.33479C7.62674 8.36375 6.96806 7.75697 5.29493 7.39271L3.93416 7.10678C1.42966 6.57832 0.295369 5.41667 0.295369 3.61426C0.295369 1.47307 2.17516 0 4.83631 0C7.49746 0 9.29987 1.49855 9.36121 3.68314H7.48047C7.35874 2.42618 6.32731 1.6552 4.81177 1.6552C3.29624 1.6552 2.27141 2.36578 2.27141 3.50951C2.27141 4.42015 2.91311 5.02599 4.53339 5.37326L5.9036 5.65919C8.52134 6.21407 9.59618 7.26249 9.59618 9.08283C9.59618 11.4401 7.74187 12.9226 4.82876 12.9226C1.91565 12.9226 0.121733 11.5099 0 9.28194H1.88923ZM18.931 10.0359C18.6705 11.6996 17.0936 12.8877 15.0044 12.8877C12.3262 12.8877 10.7059 11.0768 10.7059 8.19861C10.7059 5.32041 12.3526 3.43119 14.927 3.43119C17.5013 3.43119 19.0348 5.21661 19.0348 7.98156V8.62326H12.5952V8.73556C12.5952 10.3219 13.5483 11.3703 15.0478 11.3703C16.1141 11.3703 16.9021 10.8333 17.154 10.0359H18.931ZM12.6046 7.31439H17.1635C17.121 5.9187 16.2368 4.93917 14.927 4.93917C13.6172 4.93917 12.6999 5.93569 12.6046 7.31439ZM24.3844 4.99201C25.6055 4.99201 26.3341 5.76299 26.5247 6.73403V6.73592H28.3101C28.1459 4.94105 26.7162 3.43307 24.3675 3.43307C21.7761 3.43307 20.0775 5.20906 20.0775 8.15614C20.0775 11.1032 21.7761 12.8886 24.3854 12.8886C26.5775 12.8886 28.1289 11.5713 28.328 9.62921H26.5256C26.3086 10.6861 25.5546 11.3193 24.4024 11.3193C22.9463 11.3193 21.9837 10.1133 21.9837 8.1552C21.9837 6.19708 22.9368 4.99201 24.3844 4.99201ZM37.4722 12.7141H35.6783V11.1712H35.6349C35.1319 12.263 34.2052 12.8783 32.8095 12.8783C30.824 12.8783 29.6114 11.5873 29.6114 9.49804V3.59632H31.4837V9.13472C31.4837 10.5219 32.1424 11.2674 33.4333 11.2674C34.7242 11.2674 35.6 10.3313 35.6 8.91013V3.59727H37.4722V12.7141ZM41.1053 3.59727H39.3199V12.7131H41.1922V7.25305C41.1922 5.96211 41.9367 5.15621 43.1418 5.15621C43.506 5.15621 43.8344 5.20056 43.9826 5.26096V3.51894C43.8439 3.49252 43.6098 3.44911 43.3409 3.44911C42.266 3.44911 41.4517 4.08231 41.1487 5.14866H41.1053V3.59727ZM52.5738 10.0359C52.3133 11.6996 50.7364 12.8877 48.6471 12.8877C45.969 12.8877 44.3487 11.0768 44.3487 8.19861C44.3487 5.32041 45.9954 3.43119 48.5698 3.43119C51.1441 3.43119 52.6776 5.21661 52.6776 7.98156V8.62326H46.238V8.73556C46.238 10.3219 47.1911 11.3703 48.6905 11.3703C49.7569 11.3703 50.5449 10.8333 50.7968 10.0359H52.5738ZM46.2464 7.31439H50.8053C50.7629 5.9187 49.8786 4.93917 48.5688 4.93917C47.259 4.93917 46.3418 5.93569 46.2464 7.31439ZM53.9006 6.40563C53.9006 10.4181 56.154 12.9226 59.7334 12.9226V12.9236C63.123 12.9236 65.1246 10.9041 65.1246 7.51539V6.24049H59.9768V7.80887H63.2099V8.02592C63.1834 9.92364 61.7793 11.224 59.7513 11.224C57.3676 11.224 55.886 9.32629 55.886 6.3877C55.886 3.44911 57.3242 1.69861 59.7164 1.69861C61.3461 1.69861 62.5682 2.59132 63.0362 4.14271H65.0293C64.5961 1.6467 62.4898 0 59.7079 0C56.1455 0 53.9006 2.39315 53.9006 6.40563ZM74.617 12.7141H72.823V11.1712H72.7796C72.2766 12.263 71.35 12.8783 69.9543 12.8783C67.9688 12.8783 66.7562 11.5873 66.7562 9.49804V3.59632H68.6284V9.13472C68.6284 10.5219 69.2871 11.2674 70.578 11.2674C71.869 11.2674 72.7447 10.3313 72.7447 8.91013V3.59727H74.617V12.7141ZM79.4901 7.42763C77.3234 7.54936 76.1013 8.52795 76.1013 10.1228H76.1023C76.1023 11.761 77.3498 12.8707 79.1352 12.8707C80.3318 12.8707 81.484 12.229 82.0134 11.2146H82.0559V12.7141H83.8498V6.43112C83.8498 4.60228 82.4806 3.43213 80.2271 3.43213C77.9736 3.43213 76.5694 4.64569 76.4656 6.2924H78.2331C78.3982 5.47801 79.0739 4.95805 80.1572 4.95805C81.3019 4.95805 81.9861 5.56388 81.9861 6.57833V7.28042L79.4901 7.42763ZM81.9861 8.57985V9.29987C81.9861 10.487 80.9622 11.3882 79.6543 11.3882C78.6493 11.3882 77.9906 10.8513 77.9906 10.0709C77.9906 9.29044 78.6238 8.7969 79.7411 8.71857L81.9861 8.57985ZM85.6626 3.59727H87.448V5.14866H87.4914C87.7944 4.08231 88.6087 3.44911 89.6836 3.44911C89.9525 3.44911 90.1866 3.49252 90.3253 3.51894V5.26096C90.1771 5.20056 89.8487 5.15621 89.4845 5.15621C88.2794 5.15621 87.5348 5.96211 87.5348 7.25305V12.7131H85.6626V3.59727ZM94.5039 3.44912C92.2155 3.44912 90.6905 5.27795 90.6905 8.1552H90.6895C90.6895 11.0334 92.2155 12.8707 94.5208 12.8707C95.8467 12.8707 96.8876 12.2026 97.4245 11.1627H97.4594V12.7141H99.2798V0.207608H97.399V5.11281H97.3641C96.8536 4.1078 95.8127 3.44912 94.5039 3.44912ZM95.0153 11.2844C93.5328 11.2844 92.6061 10.0793 92.6061 8.1552C92.6061 6.23955 93.5772 5.02693 95.0153 5.02693C96.4535 5.02693 97.416 6.24804 97.416 8.1552C97.416 10.0624 96.4978 11.2844 95.0153 11.2844Z" fill="#3C3C3B"/>
<path fill-rule="evenodd" clip-rule="evenodd" d="M117.187 2.67441C118.459 2.67441 119.436 3.54824 119.471 4.76935L119.47 4.7703C119.479 4.9864 119.479 5.0383 119.47 5.0902H122.561C122.579 4.96847 122.596 4.80427 122.596 4.60515C122.552 1.94778 120.432 0.0783691 117.489 0.0783691C113.204 0.0783691 110.4 3.13397 110.4 7.71266C110.4 10.924 112.668 13.001 115.835 13.001C117.164 13.001 118.365 12.6676 119.347 12.0718C119.763 11.8574 120.179 11.6429 120.595 11.4284L120.599 11.4262L121.271 11.0797L123.304 10.0011C123.954 9.70569 124.659 9.41315 125.416 9.13477C126.064 8.89602 126.689 8.6903 127.285 8.51195H127.286L127.494 12.7849H130.722L130.722 12.7839L129.285 0.294467H125.399L120.951 8.27633C119.462 9.96729 117.359 10.3785 116.035 10.3785C114.564 10.3785 113.664 9.29614 113.664 7.53053C113.664 4.69952 115.118 2.67441 117.187 2.67441ZM109.857 0.283141H106.674L106.072 3.69734L109.477 2.43848L109.857 0.283141ZM104.467 12.7972H107.65L109.279 3.5624L105.777 5.37047L104.467 12.7972ZM124.36 7.75512H127.156L126.809 3.08113H126.74L124.36 7.75512ZM133.371 0.294467L130.722 12.7839H133.542L135.3 4.48342H135.368L136.615 12.767H138.536L143.289 4.48342H143.384L141.601 12.7839H144.431L147.089 0.294467H143.133L138.373 8.76013H138.313L137.023 0.294467H133.371Z" fill="url(#paint0_linear_1584_4552)"/>
</g>
<defs>
<linearGradient id="paint0_linear_1584_4552" x1="101.501" y1="6.53968" x2="143.288" y2="6.53968" gradientUnits="userSpaceOnUse">
<stop stop-color="#4598BB"/>
<stop offset="1" stop-color="#4B4F9D"/>
</linearGradient>
<clipPath id="clip0_1584_4552">
<rect width="147.089" height="13" fill="white"/>
</clipPath>
</defs>
</svg>
