<svg width="12" height="12" viewBox="0 0 12 12" fill="none" xmlns="http://www.w3.org/2000/svg">
<path fill-rule="evenodd" clip-rule="evenodd" d="M1.36104 12C1.06718 12 0.833316 11.7601 0.833316 11.4723C0.833316 11.1784 1.06718 10.9445 1.36104 10.9445L10.8723 10.9445C11.1661 10.9445 11.4 11.1784 11.4 11.4723C11.4 11.7661 11.1601 12 10.8723 12L1.36104 12ZM5.58297 0.527735L5.58297 7.98034L2.5844 5.79912C2.35052 5.62521 2.02068 5.67919 1.85277 5.91307C1.7868 6.00302 1.75681 6.11094 1.75681 6.21888C1.75681 6.3808 1.82879 6.54274 1.97271 6.64468L5.74767 9.39011C5.84191 9.47975 5.96937 9.53524 6.1107 9.53524C6.25866 9.53524 6.39395 9.47345 6.4905 9.37348L10.2426 6.64469C10.4765 6.47677 10.5304 6.14695 10.3565 5.91307C10.1826 5.67919 9.85877 5.62521 9.62489 5.79912L6.63844 7.97152L6.63844 0.527735C6.63844 0.239879 6.40456 -4.23323e-06 6.1107 -4.25891e-06C5.82285 -4.28408e-06 5.58297 0.233881 5.58297 0.527735Z" fill="#304B79"/>
</svg>
