<svg width="32" height="29" viewBox="0 0 32 29" fill="none" xmlns="http://www.w3.org/2000/svg">
<path d="M14.4865 11.5868H11.4592L7.04072 3.93325C6.31669 2.67992 6.74612 1.0758 8.0007 0.352385C8.41328 0.113952 8.86393 0.000976562 9.30896 0.000976562C10.2146 0.000976562 11.096 0.470977 11.5816 1.31236L16.0001 8.9647L14.4865 11.5868Z" fill="#FCBC05"/>
<path d="M24.0001 28.0643C22.7468 28.7884 21.1426 28.3583 20.418 27.1043L15.9995 19.452L11.581 27.1043C10.8569 28.3577 9.25344 28.7884 8.0001 28.0643C7.15934 27.5787 6.68872 26.6974 6.68872 25.7917C6.68872 25.3467 6.8017 24.896 7.04013 24.4822L11.4586 16.8299H20.5416L24.9601 24.4822C25.6841 25.7368 25.2534 27.3403 24.0001 28.0643Z" fill="#E94335"/>
<path d="M32 14.2077C32 15.6558 30.8259 16.8299 29.3779 16.8299H20.5415L19.0272 14.2077L17.5142 11.5862L16 8.96407L20.4185 1.31173C21.1425 0.0571513 22.7467 -0.372278 24.0006 0.35176C25.254 1.07517 25.6846 2.67929 24.9606 3.93263L20.5415 11.5868H29.3779C30.8266 11.5868 32 12.7603 32 14.2077Z" fill="#1973E8"/>
<path d="M14.4864 11.5868L12.9721 14.2084L11.4592 16.8305H2.62152C1.17407 16.8305 0 15.6564 0 14.2084C0 13.4849 0.292735 12.8296 0.767729 12.3546C1.24272 11.8808 1.89686 11.5868 2.62152 11.5868H14.4864Z" fill="#34A853"/>
<path d="M20.5415 16.8299H11.4592L12.9722 14.2077L14.4865 11.5868L16.0001 8.96407L17.5143 11.5868L19.0273 14.2077L20.5415 16.8299Z" fill="#174FA7"/>
</svg>
