<svg width="45" height="180" viewBox="0 0 45 180" fill="none" xmlns="http://www.w3.org/2000/svg">
<path fill-rule="evenodd" clip-rule="evenodd" d="M18.393 16.6479C18.393 19.2138 20.2504 21.2959 22.5399 21.2959C24.8293 21.2959 26.6868 19.2138 26.6868 16.6479C26.6868 14.0821 24.8293 12 22.5399 12C20.2504 12 18.393 14.0821 18.393 16.6479ZM20.1209 16.6566C20.1209 15.0497 21.2094 13.7365 22.5399 13.7365C23.879 13.7365 24.9589 15.041 24.9589 16.6566C24.9589 18.2635 23.8703 19.5767 22.5399 19.5767C21.2094 19.5767 20.1209 18.2635 20.1209 16.6566ZM16.1468 32H28.7861C29.244 32 29.6241 31.6458 29.6501 31.2052L29.9265 27.1274C30.0388 25.6242 28.8725 23.8963 27.3779 23.3434C24.2159 22.2116 20.7257 22.203 17.555 23.3434C16.0691 23.8877 14.9027 25.6156 15.0064 27.1188L15.2829 31.1966C15.3174 31.6458 15.6889 32 16.1468 32ZM27.9827 30.2721H16.9589L16.7429 26.9978C16.6911 26.324 17.3218 25.27 18.1511 24.959C20.933 23.9654 24.0259 23.9654 26.7905 24.959C27.6371 25.27 28.2505 26.324 28.2073 26.9978L27.9827 30.2721Z" fill="#535353"/>
<path fill-rule="evenodd" clip-rule="evenodd" d="M27.0941 62.9171V64.504H18.4498V62.9171C18.4498 60.5327 20.3875 58.5949 22.7719 58.5949C25.1563 58.5949 27.0941 60.5327 27.0941 62.9171ZM16.8549 62.9171V64.504H15.5949C14.7177 64.504 14 65.2217 14 66.0989V75.4051C14 76.2823 14.7177 77 15.5949 77H29.949C30.8341 77 31.5439 76.2823 31.5439 75.4051V66.0989C31.5439 65.2217 30.8262 64.504 29.949 64.504H28.689V62.9171C28.689 59.6555 26.0335 57 22.7719 57C19.5103 57 16.8549 59.6555 16.8549 62.9171ZM15.5949 66.0989V75.4051H29.949V66.0989H15.5949ZM21.1133 69.2887C21.1133 68.3716 21.8549 67.63 22.7719 67.63C23.689 67.63 24.4386 68.3796 24.4306 69.2966C24.4306 69.9266 24.0798 70.4689 23.5694 70.748V73.4115H21.9745V70.74C21.4641 70.4529 21.1133 69.9187 21.1133 69.2887Z" fill="#535353"/>
<path fill-rule="evenodd" clip-rule="evenodd" d="M28.6423 163.375H17.3577C14.409 163.375 12 160.976 12 158.017V157.358C12 154.409 14.399 152 17.3577 152H28.6423C31.591 152 34 154.399 34 157.358V158.017C34 160.966 31.601 163.375 28.6423 163.375ZM17.3677 153.499C15.2386 153.499 13.4993 155.229 13.4993 157.368V158.027C13.4993 160.156 15.2286 161.895 17.3677 161.895H28.6523C30.7814 161.895 32.5207 160.166 32.5207 158.027V157.368C32.5207 155.239 30.7914 153.499 28.6523 153.499H17.3677ZM17.8275 160.076C16.5081 160.076 15.4385 159.007 15.4385 157.687C15.4385 156.368 16.5081 155.298 17.8275 155.298C19.1469 155.298 20.2163 156.368 20.2163 157.687C20.2163 159.007 19.1469 160.076 17.8275 160.076ZM17.8275 156.288C17.0579 156.288 16.428 156.918 16.428 157.687C16.428 158.457 17.0579 159.087 17.8275 159.087C18.5972 159.087 19.2268 158.457 19.2268 157.687C19.2268 156.918 18.5972 156.288 17.8275 156.288ZM23.0751 160.166H28.5926C29.3123 160.166 29.8918 159.587 29.8918 158.867V156.508C29.8918 155.788 29.3123 155.209 28.5926 155.209H23.0751C22.3554 155.209 21.7756 155.788 21.7756 156.508V158.867C21.7756 159.587 22.3554 160.166 23.0751 160.166ZM22.7652 156.508C22.7652 156.338 22.9052 156.198 23.0751 156.198H28.5926C28.7625 156.198 28.9023 156.338 28.9023 156.508V158.867C28.9023 159.037 28.7625 159.177 28.5926 159.177H23.0751C22.9052 159.177 22.7652 159.037 22.7652 158.867V156.508Z" fill="#535353"/>
<path fill-rule="evenodd" clip-rule="evenodd" d="M28.6423 118.375H17.3577C14.409 118.375 12 115.976 12 113.017V112.358C12 109.409 14.399 107 17.3577 107H28.6423C31.591 107 34 109.399 34 112.358V113.017C34 115.966 31.601 118.375 28.6423 118.375ZM17.3677 108.499C15.2386 108.499 13.4993 110.229 13.4993 112.368V113.027C13.4993 115.156 15.2286 116.895 17.3677 116.895H28.6523C30.7814 116.895 32.5207 115.166 32.5207 113.027V112.368C32.5207 110.239 30.7914 108.499 28.6523 108.499H17.3677ZM17.6493 111L17.534 112.075L18.5906 111.769L18.7 112.669L17.7708 112.731L18.3842 113.581L17.6129 114L17.1878 113.137L16.8234 113.994L16.0157 113.581L16.6291 112.731L15.7 112.656L15.8336 111.769L16.8659 112.075L16.7506 111H17.6493ZM21.534 112.075L21.6493 111H20.7506L20.8659 112.075L19.8336 111.769L19.7 112.656L20.6291 112.731L20.0157 113.581L20.8234 113.994L21.1878 113.137L21.6129 114L22.3842 113.581L21.7708 112.731L22.7 112.669L22.5906 111.769L21.534 112.075ZM25.6493 111L25.534 112.075L26.5906 111.769L26.7 112.669L25.7708 112.731L26.3842 113.581L25.6129 114L25.1878 113.137L24.8234 113.994L24.0157 113.581L24.6291 112.731L23.7 112.656L23.8336 111.769L24.8659 112.075L24.7506 111H25.6493ZM29.534 112.075L29.6493 111H28.7506L28.8659 112.075L27.8336 111.769L27.7 112.656L28.6291 112.731L28.0157 113.581L28.8234 113.994L29.1878 113.137L29.6129 114L30.3842 113.581L29.7708 112.731L30.7 112.669L30.5906 111.769L29.534 112.075Z" fill="#535353"/>
</svg>
