<svg width="100" height="850" viewBox="0 0 100 850" fill="none" xmlns="http://www.w3.org/2000/svg">
<path d="M34.54 36.3H15.46C14.1 36.3 13 35.19 13 33.84V28.63C13 27.27 14.11 26.17 15.46 26.17H34.53C35.89 26.17 36.99 27.28 36.99 28.63V33.84C37 35.2 35.89 36.3 34.54 36.3ZM15.46 28.24C15.25 28.24 15.07 28.41 15.07 28.63V33.84C15.07 34.05 15.24 34.23 15.46 34.23H34.53C34.74 34.23 34.92 34.06 34.92 33.84V28.63C34.92 28.42 34.75 28.24 34.53 28.24H15.46Z" fill="#304B79"/>
<path d="M34.54 23.84H15.46C14.1 23.84 13 22.73 13 21.38V16.17C13 14.81 14.11 13.71 15.46 13.71H34.53C35.89 13.71 36.99 14.82 36.99 16.17V21.38C37 22.73 35.89 23.84 34.54 23.84ZM15.46 15.77C15.25 15.77 15.07 15.94 15.07 16.16V21.37C15.07 21.58 15.24 21.76 15.46 21.76H34.53C34.74 21.76 34.92 21.59 34.92 21.37V16.16C34.92 15.95 34.75 15.77 34.53 15.77H15.46Z" fill="#304B79"/>
<path d="M32.44 19.29H28.29C28 19.29 27.77 19.06 27.77 18.77C27.77 18.48 28 18.25 28.29 18.25H32.44C32.73 18.25 32.96 18.48 32.96 18.77C32.96 19.06 32.73 19.29 32.44 19.29Z" fill="#304B79"/>
<path d="M32.44 31.62H28.29C28 31.62 27.77 31.39 27.77 31.1C27.77 30.81 28 30.58 28.29 30.58H32.44C32.73 30.58 32.96 30.81 32.96 31.1C32.96 31.39 32.73 31.62 32.44 31.62Z" fill="#304B79"/>
<path d="M25.37 23.79V26.65C25.37 26.85 25.14 27.01 24.85 27.01C24.56 27.01 24.33 26.85 24.33 26.65V23.79C24.33 23.59 24.56 23.43 24.85 23.43C25.14 23.43 25.37 23.59 25.37 23.79Z" fill="#304B79"/>
<path d="M20.97 74.24C18.42 74.24 16.35 71.92 16.35 69.08C16.35 66.23 18.42 63.91 20.97 63.91C23.52 63.91 25.59 66.23 25.59 69.08C25.59 71.93 23.51 74.24 20.97 74.24ZM20.97 66.04C19.6 66.04 18.48 67.4 18.48 69.08C18.48 70.75 19.6 72.12 20.97 72.12C22.34 72.12 23.46 70.76 23.46 69.08C23.46 67.4 22.34 66.04 20.97 66.04Z" fill="#304B79"/>
<path d="M27.73 85.91H14.03C13.47 85.91 13.01 85.48 12.97 84.92L12.67 80.5C12.55 78.79 13.83 76.9 15.51 76.28C18.98 75.04 22.8 75.04 26.24 76.28C27.94 76.9 29.21 78.8 29.09 80.51L28.79 84.93C28.75 85.48 28.29 85.91 27.73 85.91ZM15.02 83.79H26.73L26.96 80.36C27.01 79.68 26.37 78.59 25.51 78.28C22.54 77.22 19.22 77.21 16.23 78.28C15.38 78.6 14.74 79.68 14.79 80.36L15.02 83.79Z" fill="#304B79"/>
<path d="M27.73 85.91H14.03C13.47 85.91 13.01 85.48 12.97 84.92L12.67 80.5C12.55 78.79 13.83 76.9 15.51 76.28C18.98 75.04 22.8 75.04 26.24 76.28C27.94 76.9 29.21 78.8 29.09 80.51L28.79 84.93C28.75 85.48 28.29 85.91 27.73 85.91ZM15.02 83.79H26.73L26.96 80.36C27.01 79.68 26.37 78.59 25.51 78.28C22.54 77.22 19.22 77.21 16.23 78.28C15.38 78.6 14.74 79.68 14.79 80.36L15.02 83.79Z" fill="#304B79"/>
<path d="M36.01 85.91H30.55C29.96 85.91 29.49 85.43 29.49 84.85C29.49 84.27 29.97 83.79 30.55 83.79H35.01L35.2 80.97C35.24 80.43 34.71 79.56 34.04 79.32C32.85 78.89 31.59 78.67 30.31 78.64C29.72 78.63 29.25 78.15 29.26 77.56C29.27 76.97 29.75 76.49 30.34 76.51C31.85 76.54 33.34 76.81 34.76 77.31C36.28 77.87 37.42 79.57 37.32 81.11L37.06 84.93C37.04 85.48 36.57 85.91 36.01 85.91Z" fill="#304B79"/>
<path d="M31.82 75.37C29.7 75.37 27.98 73.46 27.98 71.11C27.98 68.76 29.7 66.85 31.82 66.85C33.94 66.85 35.66 68.76 35.66 71.11C35.66 73.46 33.93 75.37 31.82 75.37ZM31.82 68.97C30.88 68.97 30.11 69.93 30.11 71.1C30.11 72.28 30.88 73.23 31.82 73.23C32.76 73.23 33.53 72.27 33.53 71.1C33.52 69.93 32.76 68.97 31.82 68.97Z" fill="#304B79"/>
<path d="M21.47 132.64H19.4C18.65 132.64 18.03 132.03 18.03 131.27V129.94L17.39 129.69L16.42 130.61C15.91 131.12 15 131.12 14.49 130.61L13.03 129.15C12.77 128.89 12.63 128.55 12.63 128.18C12.63 127.81 12.77 127.47 13.03 127.21L13.97 126.27L13.69 125.64L12.35 125.6C11.6 125.6 10.98 124.99 10.98 124.23V122.17C10.98 121.42 11.59 120.8 12.35 120.8H13.69L13.94 120.16L13.02 119.19C12.76 118.93 12.62 118.59 12.62 118.22C12.62 117.85 12.76 117.51 13.02 117.25L14.48 115.79C14.99 115.28 15.9 115.27 16.41 115.79L17.35 116.73L17.98 116.45L18.02 115.12C18.02 114.37 18.63 113.75 19.39 113.75H21.45C22.2 113.75 22.82 114.36 22.82 115.12V116.46L23.46 116.71L24.43 115.79C24.69 115.53 25.03 115.39 25.4 115.39C25.77 115.39 26.11 115.53 26.37 115.79L27.83 117.25C28.09 117.5 28.23 117.85 28.23 118.21C28.23 118.58 28.09 118.92 27.83 119.18L26.89 120.12L27.17 120.75L28.51 120.79C29.26 120.79 29.87 121.4 29.87 122.16V124.22C29.87 124.97 29.26 125.59 28.51 125.59H27.17L26.92 126.23L27.84 127.2C28.1 127.46 28.24 127.8 28.24 128.17C28.24 128.54 28.1 128.88 27.84 129.14L26.38 130.6C25.86 131.12 24.96 131.11 24.45 130.6L23.5 129.65L22.87 129.93L22.83 131.26C22.84 132.02 22.22 132.64 21.47 132.64ZM19.64 131.03H21.23V129.94C21.23 129.29 21.69 128.64 22.31 128.44L22.86 128.21C23.01 128.13 23.25 128.08 23.5 128.08C23.94 128.08 24.35 128.25 24.64 128.53L25.41 129.3L26.53 128.18L25.76 127.41C25.3 126.95 25.17 126.16 25.46 125.58L25.69 125.03C25.88 124.47 26.52 124 27.17 124H28.26V122.42H27.17C26.52 122.42 25.87 121.95 25.67 121.33L25.44 120.78C25.17 120.25 25.3 119.47 25.76 119.01L26.54 118.23L25.42 117.11L24.65 117.88C24.2 118.33 23.4 118.46 22.82 118.18L22.27 117.95C21.71 117.76 21.24 117.12 21.24 116.47V115.37H19.65V116.47C19.65 117.12 19.18 117.77 18.57 117.97L18.02 118.2C17.87 118.28 17.63 118.33 17.38 118.33C16.94 118.33 16.53 118.16 16.24 117.87L15.47 117.1L14.35 118.22L15.12 118.99C15.58 119.45 15.71 120.24 15.42 120.82L15.2 121.37C15.01 121.94 14.37 122.4 13.71 122.4H12.61V123.98H13.71C14.36 123.98 15.01 124.45 15.21 125.06L15.44 125.61C15.71 126.14 15.58 126.92 15.12 127.38L14.35 128.15L15.47 129.27L16.24 128.5C16.69 128.05 17.49 127.91 18.07 128.2L18.62 128.42C19.2 128.61 19.65 129.24 19.65 129.9V131.03H19.64ZM20.44 126.72C18.5 126.72 16.92 125.14 16.92 123.2C16.92 121.26 18.5 119.68 20.44 119.68C22.38 119.68 23.96 121.26 23.96 123.2C23.96 125.14 22.38 126.72 20.44 126.72ZM20.44 121.28C19.38 121.28 18.52 122.14 18.52 123.2C18.52 124.26 19.38 125.12 20.44 125.12C21.5 125.12 22.36 124.26 22.36 123.2C22.35 122.14 21.49 121.28 20.44 121.28Z" fill="#304B79"/>
<path d="M34.36 136.06H33.22C32.8 136.06 32.47 135.72 32.47 135.31V134.57L32.12 134.43L31.58 134.94C31.3 135.22 30.8 135.22 30.51 134.94L29.7 134.13C29.56 133.99 29.48 133.8 29.48 133.6C29.48 133.4 29.56 133.21 29.7 133.07L30.22 132.55L30.07 132.2L29.33 132.18C28.91 132.18 28.58 131.84 28.58 131.43V130.29C28.58 129.87 28.92 129.54 29.33 129.54H30.07L30.21 129.19L29.7 128.65C29.56 128.51 29.48 128.32 29.48 128.12C29.48 127.92 29.56 127.73 29.7 127.59L30.5 126.78C30.78 126.5 31.28 126.5 31.57 126.78L32.09 127.3L32.44 127.15L32.46 126.41C32.46 125.99 32.8 125.66 33.21 125.66H34.35C34.77 125.66 35.11 126 35.11 126.41V127.15L35.46 127.29L36 126.78C36.14 126.64 36.33 126.56 36.53 126.56C36.73 126.56 36.92 126.64 37.06 126.78L37.87 127.59C38.01 127.73 38.09 127.92 38.09 128.12C38.09 128.32 38.01 128.51 37.87 128.65L37.35 129.17L37.5 129.52L38.24 129.54C38.66 129.54 38.99 129.88 38.99 130.29V131.43C38.99 131.85 38.65 132.18 38.24 132.18H37.5L37.36 132.53L37.87 133.07C38.01 133.21 38.09 133.4 38.09 133.6C38.09 133.8 38.01 133.99 37.87 134.13L37.07 134.94C36.78 135.23 36.29 135.22 36 134.94L35.48 134.42L35.13 134.57L35.11 135.31C35.11 135.73 34.78 136.06 34.36 136.06ZM33.35 135.18H34.23V134.58C34.23 134.22 34.49 133.86 34.83 133.75L35.13 133.62C35.21 133.58 35.35 133.55 35.48 133.55C35.72 133.55 35.95 133.64 36.11 133.8L36.54 134.23L37.16 133.61L36.73 133.18C36.48 132.93 36.41 132.49 36.57 132.17L36.69 131.87C36.79 131.56 37.15 131.3 37.51 131.3H38.11V130.43H37.51C37.15 130.43 36.79 130.17 36.68 129.83L36.55 129.53C36.4 129.24 36.47 128.8 36.73 128.55L37.16 128.12L36.54 127.5L36.11 127.93C35.86 128.18 35.42 128.25 35.1 128.09L34.8 127.97C34.49 127.87 34.23 127.51 34.23 127.15V126.54H33.35V127.15C33.35 127.51 33.09 127.87 32.75 127.98L32.45 128.11C32.37 128.15 32.23 128.18 32.1 128.18C31.86 128.18 31.63 128.09 31.47 127.93L31.04 127.5L30.42 128.12L30.85 128.55C31.1 128.81 31.17 129.24 31.01 129.56L30.89 129.86C30.79 130.17 30.43 130.43 30.07 130.43H29.46V131.3H30.07C30.43 131.3 30.79 131.56 30.9 131.9L31.03 132.21C31.18 132.5 31.11 132.94 30.85 133.19L30.42 133.62L31.04 134.24L31.47 133.81C31.72 133.56 32.16 133.49 32.48 133.65L32.78 133.77C33.1 133.88 33.35 134.22 33.35 134.59V135.18ZM33.79 132.8C32.72 132.8 31.84 131.93 31.84 130.85C31.84 129.77 32.71 128.9 33.79 128.9C34.86 128.9 35.74 129.77 35.74 130.85C35.74 131.93 34.86 132.8 33.79 132.8ZM33.79 129.79C33.21 129.79 32.73 130.27 32.73 130.85C32.73 131.43 33.2 131.91 33.79 131.91C34.37 131.91 34.85 131.43 34.85 130.85C34.85 130.27 34.37 129.79 33.79 129.79Z" fill="#304B79"/>
<path d="M29.69 231.84H14.62C13.45 231.84 12.5 230.89 12.5 229.72V220.09C12.5 218.92 13.45 217.97 14.62 217.97H29.7C30.87 217.97 31.82 218.92 31.82 220.09V229.72C31.81 230.9 30.86 231.84 29.69 231.84ZM14.62 220.1V229.73H29.7V220.1H14.62Z" fill="#304B79"/>
<path d="M36.44 231.74C36.28 231.74 36.12 231.7 35.97 231.63L30.18 228.75C29.82 228.57 29.59 228.2 29.59 227.8V222.04C29.59 221.64 29.82 221.27 30.18 221.09L35.97 218.21C36.3 218.05 36.69 218.07 37 218.26C37.31 218.45 37.5 218.79 37.5 219.16V230.69C37.5 231.06 37.31 231.4 37 231.59C36.83 231.68 36.64 231.74 36.44 231.74ZM31.71 227.14L35.39 228.97V220.86L31.71 222.69V227.14Z" fill="#304B79"/>
<path d="M36 266.65C36 263.74 29.09 262.96 25 262.96C20.91 262.96 14 263.74 14 266.65C14 266.69 14.01 266.73 14.02 266.77C14.02 266.8 14 266.82 14 266.85V272.49C14 275.12 20.91 275.83 25 275.83C29.09 275.83 36 275.13 36 272.49V266.85C36 266.82 35.99 266.8 35.98 266.77C35.99 266.72 36 266.69 36 266.65ZM25 264.87C30.34 264.87 33.63 265.97 34.14 266.65C33.63 267.32 30.34 268.43 25 268.43C19.66 268.43 16.37 267.33 15.86 266.65C16.37 265.97 19.66 264.87 25 264.87ZM25 274.09C19.46 274.09 16.12 273.02 15.82 272.48V268.83C18.15 269.97 22.22 270.33 25 270.33C27.77 270.33 31.85 269.97 34.18 268.83L34.19 272.41C33.88 273.02 30.54 274.09 25 274.09Z" fill="#304B79"/>
<path d="M35.09 275.73H34.18V277.64L34.19 283.1C33.88 283.76 30.54 284.95 25 284.95C19.46 284.95 16.12 283.76 15.82 283.17V277.63V275.72H14.91C14.41 275.72 14 276.15 14 276.68V283.17C14 286.08 20.91 286.86 25 286.86C29.09 286.86 36 286.08 36 283.17V276.68C36 276.16 35.59 275.73 35.09 275.73Z" fill="#304B79"/>
<path d="M35.09 270.39H34.18V272.3L34.19 277.76C33.88 278.42 30.54 279.61 25 279.61C19.46 279.61 16.12 278.42 15.82 277.83V272.29V270.38H14.91C14.41 270.38 14 270.81 14 271.34V277.83C14 280.74 20.91 281.52 25 281.52C29.09 281.52 36 280.74 36 277.83V271.34C36 270.82 35.59 270.39 35.09 270.39Z" fill="#304B79"/>
<path d="M25 336.92C22.45 336.92 20.03 334.91 16.18 330.96C15.14 329.87 14.51 327.97 14.5 326.76V317.49C14.5 316.05 15.54 314.64 16.93 314.2C22.13 312.48 27.86 312.47 33.09 314.2C34.44 314.63 35.5 316.07 35.5 317.48V326.75C35.49 327.97 34.87 329.87 33.83 330.95C29.97 334.91 27.55 336.92 25 336.92ZM25 314.78C22.45 314.78 19.93 315.19 17.5 315.99C16.88 316.18 16.37 316.87 16.37 317.49V326.76C16.37 327.56 16.87 328.98 17.52 329.66C20.92 333.15 23.12 335.04 24.99 335.04C26.86 335.04 29.06 333.15 32.47 329.65C33.12 328.98 33.61 327.56 33.61 326.75V317.49C33.61 316.89 33.08 316.18 32.5 315.99C30.07 315.19 27.55 314.78 25 314.78Z" fill="#304B79"/>
<path d="M25 333.63C23.5 333.63 20.98 331.18 18.53 328.67C18.17 328.29 17.79 327.23 17.79 326.75V317.72C17.79 317.52 17.92 317.34 18.11 317.27C22.61 315.83 27.44 315.83 31.88 317.27C32.07 317.33 32.21 317.51 32.21 317.72V326.76C32.2 327.25 31.82 328.3 31.45 328.69C29.01 331.2 26.5 333.63 25 333.63ZM18.73 318.07V326.74C18.73 327.02 19.04 327.84 19.21 328.02C20.57 329.42 23.77 332.7 25 332.7C26.24 332.7 29.41 329.44 30.77 328.05C30.97 327.84 31.27 327.02 31.28 326.75V318.07C27.21 316.82 22.83 316.82 18.73 318.07Z" fill="#304B79"/>
<path d="M35.5016 384.029H13.4984C12.9512 384.029 12.5 383.578 12.5 383.03V375.245C12.5 374.688 12.9512 374.246 13.4984 374.246H35.5016C36.0488 374.246 36.5 374.698 36.5 375.245V383.03C36.5 383.587 36.0488 384.029 35.5016 384.029ZM14.4968 382.032H34.5032V376.253H14.4968V382.032Z" fill="#304B79"/>
<path d="M17.1944 377.962C16.5416 377.962 16.0136 378.49 16.0136 379.142C16.0136 379.795 16.5416 380.323 17.1944 380.323C17.8472 380.323 18.3752 379.795 18.3752 379.142C18.3656 378.49 17.8376 377.962 17.1944 377.962Z" fill="#304B79"/>
<path d="M21.0248 377.962C20.372 377.962 19.844 378.49 19.844 379.142C19.844 379.795 20.372 380.323 21.0248 380.323C21.6776 380.323 22.2056 379.795 22.2056 379.142C22.196 378.49 21.668 377.962 21.0248 377.962Z" fill="#304B79"/>
<path d="M24.8456 377.962C24.1928 377.962 23.6648 378.49 23.6648 379.142C23.6648 379.795 24.1928 380.323 24.8456 380.323C25.4984 380.323 26.0264 379.795 26.0264 379.142C26.0264 378.49 25.4984 377.962 24.8456 377.962Z" fill="#304B79"/>
<path d="M35.5016 375.782H13.4984C12.9512 375.782 12.5 375.331 12.5 374.784V366.998C12.5 366.442 12.9512 366 13.4984 366H35.5016C36.0488 366 36.5 366.451 36.5 366.998V374.784C36.5 375.341 36.0488 375.782 35.5016 375.782ZM14.4968 373.786H34.5032V368.006H14.4968V373.786Z" fill="#304B79"/>
<path d="M17.1944 369.715C16.5416 369.715 16.0136 370.243 16.0136 370.896C16.0136 371.549 16.5416 372.077 17.1944 372.077C17.8472 372.077 18.3752 371.549 18.3752 370.896C18.3656 370.243 17.8376 369.715 17.1944 369.715Z" fill="#304B79"/>
<path d="M21.0248 369.715C20.372 369.715 19.844 370.243 19.844 370.896C19.844 371.549 20.372 372.077 21.0248 372.077C21.6776 372.077 22.2056 371.549 22.2056 370.896C22.196 370.243 21.668 369.715 21.0248 369.715Z" fill="#304B79"/>
<path d="M24.8456 369.715C24.1928 369.715 23.6648 370.243 23.6648 370.896C23.6648 371.549 24.1928 372.077 24.8456 372.077C25.4984 372.077 26.0264 371.549 26.0264 370.896C26.0264 370.243 25.4984 369.715 24.8456 369.715Z" fill="#304B79"/>
<path d="M26.8 434.92V433.01C30.54 433.01 33.77 430.48 34.66 426.85L36.52 427.31C35.42 431.79 31.42 434.92 26.8 434.92Z" fill="#304B79"/>
<path d="M26.8 416.82V414.91C31.27 414.91 35.24 417.92 36.44 422.22L34.6 422.73C33.63 419.25 30.42 416.82 26.8 416.82Z" fill="#304B79"/>
<path d="M22.16 418.97V412.92H28.21V418.97H22.16ZM24.07 414.83V417.06H26.3V414.83H24.07Z" fill="#304B79"/>
<path d="M22.16 436.91V430.86H28.21V436.91H22.16ZM24.07 432.77V435H26.3V432.77H24.07Z" fill="#304B79"/>
<path d="M32.59 427.94V421.89H38.64V427.94H32.59ZM34.5 423.8V426.03H36.73V423.8H34.5Z" fill="#304B79"/>
<path d="M23.2 434.92V433.01C19.46 433.01 16.23 430.48 15.34 426.85L13.48 427.31C14.58 431.79 18.58 434.92 23.2 434.92Z" fill="#304B79"/>
<path d="M23.2 416.82V414.91C18.73 414.91 14.76 417.92 13.56 422.22L15.4 422.73C16.37 419.25 19.58 416.82 23.2 416.82Z" fill="#304B79"/>
<path d="M17.41 427.94H11.36V421.89H17.41V427.94ZM15.5 423.8H13.27V426.03H15.5V423.8Z" fill="#304B79"/>
<path d="M33.18 584.8H16.82C15.82 584.8 15 583.98 15 582.98V572.38C15 571.38 15.82 570.56 16.82 570.56H33.18C34.18 570.56 35 571.38 35 572.38V582.99C35 583.99 34.18 584.8 33.18 584.8ZM16.82 572.38V582.99H33.18V572.38H16.82Z" fill="#304B79"/>
<path d="M30.83 572.15C30.33 572.15 29.92 571.74 29.92 571.24V568.74C29.92 566.02 27.71 563.82 25 563.82C22.28 563.82 20.08 566.03 20.08 568.74V571.24C20.08 571.74 19.67 572.15 19.17 572.15C18.67 572.15 18.26 571.74 18.26 571.24V568.74C18.26 565.02 21.28 562 25 562C28.72 562 31.74 565.02 31.74 568.74V571.24C31.74 571.75 31.34 572.15 30.83 572.15Z" fill="#304B79"/>
<path d="M25 574.13C23.95 574.13 23.11 574.98 23.11 576.02C23.11 576.73 23.51 577.35 24.09 577.67V580.71H25.91V577.67C26.5 577.35 26.9 576.73 26.9 576.02C26.89 574.97 26.05 574.13 25 574.13Z" fill="#304B79"/>
<path d="M25.04 477.77C24.88 477.77 24.72 477.73 24.58 477.65L13.49 471.44C13.19 471.27 13 470.95 13 470.61C13 470.27 13.19 469.95 13.49 469.78L24.5 463.61C24.79 463.45 25.14 463.45 25.43 463.61L36.52 469.82C36.82 469.99 37.01 470.31 37.01 470.65C37.01 470.99 36.82 471.31 36.52 471.48L25.51 477.65C25.36 477.73 25.2 477.77 25.04 477.77ZM15.9 470.61L25.04 475.73L34.1 470.65L24.96 465.53L15.9 470.61Z" fill="#304B79"/>
<path d="M25.04 482.06C24.88 482.06 24.72 482.02 24.58 481.94L13.49 475.73C13.03 475.47 12.87 474.89 13.13 474.43C13.38 473.97 13.97 473.81 14.42 474.06L25.04 480.01L35.58 474.1C36.04 473.84 36.62 474.01 36.88 474.46C37.14 474.92 36.97 475.5 36.52 475.76L25.51 481.93C25.36 482.01 25.2 482.06 25.04 482.06Z" fill="#304B79"/>
<path d="M25.04 486.34C24.88 486.34 24.72 486.3 24.58 486.22L13.49 480.01C13.03 479.75 12.87 479.17 13.13 478.71C13.38 478.25 13.97 478.09 14.42 478.34L25.04 484.29L35.58 478.38C36.04 478.12 36.62 478.29 36.88 478.74C37.14 479.2 36.97 479.78 36.52 480.04L25.51 486.21C25.36 486.3 25.2 486.34 25.04 486.34Z" fill="#304B79"/>
<path d="M25.77 181.58H24.31C23.78 181.58 23.34 181.15 23.34 180.61V179.67L22.89 179.49L22.2 180.14C21.84 180.5 21.2 180.5 20.84 180.14L19.81 179.11C19.63 178.93 19.53 178.69 19.53 178.43C19.53 178.17 19.63 177.93 19.81 177.75L20.48 177.08L20.28 176.63L19.34 176.6C18.81 176.6 18.37 176.17 18.37 175.64V174.18C18.37 173.65 18.8 173.21 19.34 173.21H20.28L20.46 172.76L19.81 172.07C19.63 171.89 19.53 171.65 19.53 171.39C19.53 171.13 19.63 170.89 19.81 170.71L20.84 169.68C21.2 169.32 21.84 169.32 22.21 169.68L22.88 170.35L23.32 170.15L23.35 169.21C23.35 168.68 23.78 168.24 24.32 168.24H25.78C26.31 168.24 26.75 168.67 26.75 169.21V170.15L27.2 170.33L27.89 169.68C28.07 169.5 28.32 169.4 28.57 169.4C28.83 169.4 29.07 169.5 29.25 169.68L30.28 170.71C30.46 170.89 30.56 171.13 30.56 171.39C30.56 171.65 30.46 171.89 30.28 172.07L29.61 172.74L29.81 173.19L30.75 173.22C31.28 173.22 31.71 173.65 31.71 174.19V175.65C31.71 176.18 31.28 176.61 30.75 176.61H29.8L29.62 177.06L30.27 177.75C30.45 177.93 30.55 178.17 30.55 178.43C30.55 178.69 30.45 178.93 30.27 179.11L29.24 180.14C28.87 180.51 28.24 180.5 27.88 180.14L27.21 179.47L26.77 179.67L26.74 180.61C26.74 181.15 26.31 181.58 25.77 181.58ZM24.48 180.45H25.6V179.68C25.6 179.22 25.93 178.76 26.36 178.62L26.75 178.46C26.86 178.4 27.03 178.37 27.2 178.37C27.51 178.37 27.8 178.49 28.01 178.69L28.56 179.24L29.35 178.45L28.8 177.9C28.48 177.57 28.39 177.02 28.59 176.61L28.75 176.22C28.88 175.82 29.34 175.49 29.8 175.49H30.57V174.37H29.8C29.34 174.37 28.88 174.04 28.74 173.6L28.58 173.21C28.39 172.84 28.48 172.28 28.81 171.96L29.36 171.41L28.57 170.62L28.02 171.17C27.7 171.49 27.13 171.58 26.73 171.38L26.34 171.22C25.94 171.09 25.61 170.63 25.61 170.17V169.4H24.49V170.17C24.49 170.63 24.16 171.09 23.72 171.23L23.33 171.39C23.22 171.45 23.05 171.48 22.88 171.48C22.57 171.48 22.28 171.36 22.07 171.16L21.52 170.61L20.73 171.4L21.28 171.95C21.6 172.28 21.69 172.83 21.49 173.24L21.33 173.63C21.2 174.03 20.74 174.36 20.28 174.36H19.51V175.48H20.28C20.74 175.48 21.2 175.81 21.34 176.24L21.5 176.63C21.69 177 21.6 177.56 21.27 177.88L20.72 178.43L21.51 179.22L22.06 178.67C22.38 178.35 22.95 178.26 23.35 178.46L23.74 178.62C24.15 178.75 24.47 179.2 24.47 179.67V180.45H24.48ZM25.04 177.4C23.67 177.4 22.55 176.28 22.55 174.91C22.55 173.54 23.67 172.42 25.04 172.42C26.41 172.42 27.53 173.54 27.53 174.91C27.53 176.28 26.42 177.4 25.04 177.4ZM25.04 173.56C24.29 173.56 23.69 174.17 23.69 174.92C23.69 175.67 24.3 176.28 25.04 176.28C25.79 176.28 26.4 175.67 26.4 174.92C26.4 174.17 25.79 173.56 25.04 173.56Z" fill="#304B79"/>
<path d="M17.81 170.72C17.45 170.72 17.14 170.44 17.11 170.08L16.95 167.68L14.55 167.58C14.17 167.57 13.88 167.24 13.89 166.86C13.9 166.48 14.22 166.17 14.61 166.2L17.63 166.32C17.98 166.33 18.27 166.61 18.29 166.96L18.49 169.98C18.52 170.36 18.23 170.69 17.85 170.71C17.83 170.72 17.82 170.72 17.81 170.72Z" fill="#304B79"/>
<path d="M25.09 186.96C21.96 187 18.92 185.81 16.62 183.57C14.33 181.34 13.05 178.36 13 175.17C12.96 171.98 14.16 168.96 16.39 166.67C16.79 166.25 17.46 166.25 17.87 166.65C18.29 167.05 18.29 167.72 17.89 168.13C16.05 170.02 15.06 172.5 15.1 175.13C15.14 177.76 16.19 180.22 18.08 182.06C20.51 184.42 23.93 185.36 27.23 184.59C27.8 184.46 28.36 184.8 28.49 185.37C28.62 185.93 28.28 186.5 27.71 186.63C26.84 186.85 25.97 186.95 25.09 186.96Z" fill="#304B79"/>
<path d="M32.88 183.47C32.61 183.47 32.34 183.37 32.13 183.17C31.71 182.77 31.71 182.1 32.11 181.69C35.9 177.8 35.81 171.55 31.92 167.76C29.49 165.4 26.07 164.45 22.76 165.24C22.2 165.37 21.63 165.02 21.5 164.46C21.37 163.9 21.72 163.33 22.28 163.2C26.29 162.25 30.43 163.4 33.38 166.26C38.1 170.85 38.2 178.43 33.61 183.16C33.42 183.36 33.15 183.46 32.88 183.47Z" fill="#304B79"/>
<path d="M35.57 183.69C35.56 183.69 35.54 183.69 35.53 183.69L32.35 183.56C31.98 183.54 31.68 183.25 31.66 182.88L31.45 179.71C31.42 179.31 31.73 178.97 32.12 178.94C32.5 178.91 32.87 179.21 32.89 179.61L33.06 182.13L35.59 182.23C35.99 182.25 36.3 182.58 36.29 182.98C36.26 183.38 35.95 183.68 35.57 183.69Z" fill="#304B79"/>
<path fill-rule="evenodd" clip-rule="evenodd" d="M15.8414 535H34.1586C34.6298 535 35 534.63 35 534.159V515.841C35 515.379 34.6214 515 34.1586 515H15.8414C15.3786 515 15 515.379 15 515.841V534.159C15 534.621 15.3786 535 15.8414 535ZM33.3172 533.317H16.6828V521.167H33.3172V533.317ZM16.6828 516.683V520.326H33.3172V516.683H16.6828ZM19.5115 523.863C19.6185 523.778 19.7305 523.699 19.842 523.626L20.7287 524.19C21.0051 524.065 21.2911 523.986 21.5814 523.945L22.0462 523C22.3196 523.005 22.5903 523.033 22.8545 523.092L23.0933 524.118C23.367 524.223 23.6302 524.367 23.8687 524.548L24.8652 524.205C24.9573 524.301 25.0487 524.402 25.1337 524.509C25.2186 524.616 25.2971 524.728 25.3697 524.84L24.8108 525.733C24.9352 526.009 25.0144 526.295 25.0547 526.585L26 527.049C25.9984 527.32 25.9645 527.59 25.9074 527.858L24.8847 528.094C24.7797 528.368 24.6379 528.629 24.4541 528.87L24.7964 529.866C24.7005 529.958 24.5987 530.05 24.4917 530.135C24.3848 530.22 24.2727 530.298 24.1613 530.371L23.268 529.813C22.9916 529.937 22.7057 530.017 22.4153 530.057L21.9538 531C21.6804 530.995 21.4129 530.965 21.1455 530.908L20.9067 529.882C20.633 529.777 20.3698 529.633 20.1313 529.452L19.1348 529.795C19.0427 529.699 18.9513 529.598 18.8663 529.491C18.7814 529.384 18.7055 529.275 18.6303 529.16L19.1892 528.267C19.0648 527.991 18.9856 527.705 18.9453 527.415L18 526.951C18.0016 526.68 18.0355 526.41 18.0926 526.142L19.1186 525.903C19.2236 525.629 19.3654 525.369 19.5491 525.127L19.2068 524.131C19.3028 524.039 19.4046 523.948 19.5115 523.863ZM23.1553 525.491C23.208 525.532 23.2589 525.575 23.3078 525.621C23.3713 525.682 23.4314 525.747 23.4875 525.818C23.5435 525.888 23.5938 525.962 23.6382 526.037C23.6731 526.096 23.7045 526.157 23.7323 526.219C23.8092 526.389 23.8591 526.568 23.8828 526.748C23.8918 526.817 23.897 526.886 23.8984 526.954C23.9022 527.129 23.8818 527.304 23.8379 527.473C23.8207 527.539 23.8 527.605 23.7757 527.669C23.7113 527.839 23.6219 528.001 23.5082 528.149C23.4666 528.204 23.4216 528.256 23.3735 528.306C23.3145 528.368 23.2507 528.426 23.1822 528.481C23.1115 528.537 23.038 528.587 22.9623 528.632C22.9024 528.667 22.841 528.699 22.7786 528.727C22.6086 528.803 22.4306 528.853 22.2505 528.877C22.1823 528.886 22.1137 528.891 22.0452 528.892C21.8729 528.896 21.7007 528.876 21.5337 528.834C21.4656 528.817 21.3984 528.796 21.3324 528.771C21.1613 528.706 20.9984 528.617 20.8495 528.502C20.7967 528.462 20.7456 528.418 20.6966 528.372C20.6339 528.312 20.5745 528.247 20.519 528.177C20.4639 528.108 20.4145 528.036 20.3706 527.962C20.3351 527.902 20.3033 527.84 20.275 527.778C20.1983 527.608 20.1482 527.431 20.1242 527.251C20.115 527.181 20.1096 527.111 20.108 527.041C20.1043 526.869 20.124 526.696 20.1667 526.529C20.1839 526.461 20.2049 526.395 20.2295 526.329C20.2936 526.159 20.3826 525.997 20.4958 525.849C20.5348 525.798 20.5767 525.748 20.6214 525.701C20.6836 525.635 20.7513 525.572 20.8244 525.514C20.894 525.459 20.9663 525.409 21.0407 525.365C21.0983 525.331 21.1571 525.3 21.2169 525.273C21.3869 525.195 21.565 525.144 21.7454 525.12C21.8146 525.11 21.8841 525.105 21.9536 525.103C22.1275 525.098 22.3014 525.118 22.47 525.16C22.5377 525.177 22.6045 525.198 22.6701 525.223C22.842 525.287 23.0058 525.377 23.1553 525.491ZM21.817 526.763C21.9455 526.661 22.1338 526.681 22.2372 526.812C22.3406 526.942 22.3181 527.13 22.1896 527.232C22.0612 527.334 21.8728 527.313 21.7694 527.183C21.6661 527.053 21.6886 526.865 21.817 526.763ZM22.8132 526.354C23.1686 526.801 23.094 527.451 22.6466 527.807C22.1993 528.162 21.5487 528.088 21.1934 527.641C20.8381 527.194 20.9128 526.544 21.36 526.188C21.8073 525.833 22.4579 525.907 22.8132 526.354ZM17.7682 518.534C17.7682 517.945 18.2394 517.474 18.8284 517.474C19.409 517.474 19.8886 517.945 19.8886 518.534C19.8886 519.123 19.4174 519.594 18.8284 519.594C18.2394 519.594 17.7682 519.123 17.7682 518.534ZM21.6975 517.474C21.1085 517.474 20.6373 517.945 20.6373 518.534C20.6373 519.123 21.1085 519.594 21.6975 519.594C22.2865 519.594 22.7577 519.123 22.7577 518.534C22.7577 517.945 22.2781 517.474 21.6975 517.474ZM23.5064 518.534C23.5064 517.945 23.9776 517.474 24.5666 517.474C25.1556 517.474 25.6268 517.945 25.6268 518.534C25.6268 519.123 25.1556 519.594 24.5666 519.594C23.9776 519.594 23.5064 519.123 23.5064 518.534ZM32 527H27V526H32V527ZM27 525H32V524H27V525ZM32 529H27V528H32V529ZM27 531H32V530H27V531Z" fill="#304B79"/>
<path d="M84.54 36.3H65.46C64.1 36.3 63 35.19 63 33.84V28.63C63 27.27 64.11 26.17 65.46 26.17H84.53C85.89 26.17 86.99 27.28 86.99 28.63V33.84C87 35.2 85.89 36.3 84.54 36.3ZM65.46 28.24C65.25 28.24 65.07 28.41 65.07 28.63V33.84C65.07 34.05 65.24 34.23 65.46 34.23H84.53C84.74 34.23 84.92 34.06 84.92 33.84V28.63C84.92 28.42 84.75 28.24 84.53 28.24H65.46Z" fill="#2772FB"/>
<path d="M84.54 23.84H65.46C64.1 23.84 63 22.73 63 21.38V16.17C63 14.81 64.11 13.71 65.46 13.71H84.53C85.89 13.71 86.99 14.82 86.99 16.17V21.38C87 22.73 85.89 23.84 84.54 23.84ZM65.46 15.77C65.25 15.77 65.07 15.94 65.07 16.16V21.37C65.07 21.58 65.24 21.76 65.46 21.76H84.53C84.74 21.76 84.92 21.59 84.92 21.37V16.16C84.92 15.95 84.75 15.77 84.53 15.77H65.46Z" fill="#2772FB"/>
<path d="M82.44 19.29H78.29C78 19.29 77.77 19.06 77.77 18.77C77.77 18.48 78 18.25 78.29 18.25H82.44C82.73 18.25 82.96 18.48 82.96 18.77C82.96 19.06 82.73 19.29 82.44 19.29Z" fill="#2772FB"/>
<path d="M82.44 31.62H78.29C78 31.62 77.77 31.39 77.77 31.1C77.77 30.81 78 30.58 78.29 30.58H82.44C82.73 30.58 82.96 30.81 82.96 31.1C82.96 31.39 82.73 31.62 82.44 31.62Z" fill="#2772FB"/>
<path d="M75.37 23.79V26.65C75.37 26.85 75.14 27.01 74.85 27.01C74.56 27.01 74.33 26.85 74.33 26.65V23.79C74.33 23.59 74.56 23.43 74.85 23.43C75.14 23.43 75.37 23.59 75.37 23.79Z" fill="#2772FB"/>
<path d="M70.97 74.24C68.42 74.24 66.35 71.92 66.35 69.08C66.35 66.23 68.42 63.91 70.97 63.91C73.52 63.91 75.59 66.23 75.59 69.08C75.59 71.93 73.51 74.24 70.97 74.24ZM70.97 66.04C69.6 66.04 68.48 67.4 68.48 69.08C68.48 70.75 69.6 72.12 70.97 72.12C72.34 72.12 73.46 70.76 73.46 69.08C73.46 67.4 72.34 66.04 70.97 66.04Z" fill="#2772FB"/>
<path d="M77.73 85.91H64.03C63.47 85.91 63.01 85.48 62.97 84.92L62.67 80.5C62.55 78.79 63.83 76.9 65.51 76.28C68.98 75.04 72.8 75.04 76.24 76.28C77.94 76.9 79.21 78.8 79.09 80.51L78.79 84.93C78.75 85.48 78.29 85.91 77.73 85.91ZM65.02 83.79H76.73L76.96 80.36C77.01 79.68 76.37 78.59 75.51 78.28C72.54 77.22 69.22 77.21 66.23 78.28C65.38 78.6 64.74 79.68 64.79 80.36L65.02 83.79Z" fill="#2772FB"/>
<path d="M77.73 85.91H64.03C63.47 85.91 63.01 85.48 62.97 84.92L62.67 80.5C62.55 78.79 63.83 76.9 65.51 76.28C68.98 75.04 72.8 75.04 76.24 76.28C77.94 76.9 79.21 78.8 79.09 80.51L78.79 84.93C78.75 85.48 78.29 85.91 77.73 85.91ZM65.02 83.79H76.73L76.96 80.36C77.01 79.68 76.37 78.59 75.51 78.28C72.54 77.22 69.22 77.21 66.23 78.28C65.38 78.6 64.74 79.68 64.79 80.36L65.02 83.79Z" fill="#2772FB"/>
<path d="M86.01 85.91H80.55C79.96 85.91 79.49 85.43 79.49 84.85C79.49 84.27 79.97 83.79 80.55 83.79H85.01L85.2 80.97C85.24 80.43 84.71 79.56 84.04 79.32C82.85 78.89 81.59 78.67 80.31 78.64C79.72 78.63 79.25 78.15 79.26 77.56C79.27 76.97 79.75 76.49 80.34 76.51C81.85 76.54 83.34 76.81 84.76 77.31C86.28 77.87 87.42 79.57 87.32 81.11L87.06 84.93C87.04 85.48 86.57 85.91 86.01 85.91Z" fill="#2772FB"/>
<path d="M81.82 75.37C79.7 75.37 77.98 73.46 77.98 71.11C77.98 68.76 79.7 66.85 81.82 66.85C83.94 66.85 85.66 68.76 85.66 71.11C85.66 73.46 83.93 75.37 81.82 75.37ZM81.82 68.97C80.88 68.97 80.11 69.93 80.11 71.1C80.11 72.28 80.88 73.23 81.82 73.23C82.76 73.23 83.53 72.27 83.53 71.1C83.52 69.93 82.76 68.97 81.82 68.97Z" fill="#2772FB"/>
<path d="M71.47 132.64H69.4C68.65 132.64 68.03 132.03 68.03 131.27V129.94L67.39 129.69L66.42 130.61C65.91 131.12 65 131.12 64.49 130.61L63.03 129.15C62.77 128.89 62.63 128.55 62.63 128.18C62.63 127.81 62.77 127.47 63.03 127.21L63.97 126.27L63.69 125.64L62.35 125.6C61.6 125.6 60.98 124.99 60.98 124.23V122.17C60.98 121.42 61.59 120.8 62.35 120.8H63.69L63.94 120.16L63.02 119.19C62.76 118.93 62.62 118.59 62.62 118.22C62.62 117.85 62.76 117.51 63.02 117.25L64.48 115.79C64.99 115.28 65.9 115.27 66.41 115.79L67.35 116.73L67.98 116.45L68.02 115.12C68.02 114.37 68.63 113.75 69.39 113.75H71.45C72.2 113.75 72.82 114.36 72.82 115.12V116.46L73.46 116.71L74.43 115.79C74.69 115.53 75.03 115.39 75.4 115.39C75.77 115.39 76.11 115.53 76.37 115.79L77.83 117.25C78.09 117.5 78.23 117.85 78.23 118.21C78.23 118.58 78.09 118.92 77.83 119.18L76.89 120.12L77.17 120.75L78.51 120.79C79.26 120.79 79.87 121.4 79.87 122.16V124.22C79.87 124.97 79.26 125.59 78.51 125.59H77.17L76.92 126.23L77.84 127.2C78.1 127.46 78.24 127.8 78.24 128.17C78.24 128.54 78.1 128.88 77.84 129.14L76.38 130.6C75.86 131.12 74.96 131.11 74.45 130.6L73.5 129.65L72.87 129.93L72.83 131.26C72.84 132.02 72.22 132.64 71.47 132.64ZM69.64 131.03H71.23V129.94C71.23 129.29 71.69 128.64 72.31 128.44L72.86 128.21C73.01 128.13 73.25 128.08 73.5 128.08C73.94 128.08 74.35 128.25 74.64 128.53L75.41 129.3L76.53 128.18L75.76 127.41C75.3 126.95 75.17 126.16 75.46 125.58L75.69 125.03C75.88 124.47 76.52 124 77.17 124H78.26V122.42H77.17C76.52 122.42 75.87 121.95 75.67 121.33L75.44 120.78C75.17 120.25 75.3 119.47 75.76 119.01L76.54 118.23L75.42 117.11L74.65 117.88C74.2 118.33 73.4 118.46 72.82 118.18L72.27 117.95C71.71 117.76 71.24 117.12 71.24 116.47V115.37H69.65V116.47C69.65 117.12 69.18 117.77 68.57 117.97L68.02 118.2C67.87 118.28 67.63 118.33 67.38 118.33C66.94 118.33 66.53 118.16 66.24 117.87L65.47 117.1L64.35 118.22L65.12 118.99C65.58 119.45 65.71 120.24 65.42 120.82L65.2 121.37C65.01 121.94 64.37 122.4 63.71 122.4H62.61V123.98H63.71C64.36 123.98 65.01 124.45 65.21 125.06L65.44 125.61C65.71 126.14 65.58 126.92 65.12 127.38L64.35 128.15L65.47 129.27L66.24 128.5C66.69 128.05 67.49 127.91 68.07 128.2L68.62 128.42C69.2 128.61 69.65 129.24 69.65 129.9V131.03H69.64ZM70.44 126.72C68.5 126.72 66.92 125.14 66.92 123.2C66.92 121.26 68.5 119.68 70.44 119.68C72.38 119.68 73.96 121.26 73.96 123.2C73.96 125.14 72.38 126.72 70.44 126.72ZM70.44 121.28C69.38 121.28 68.52 122.14 68.52 123.2C68.52 124.26 69.38 125.12 70.44 125.12C71.5 125.12 72.36 124.26 72.36 123.2C72.35 122.14 71.49 121.28 70.44 121.28Z" fill="#2772FB"/>
<path d="M84.36 136.06H83.22C82.8 136.06 82.47 135.72 82.47 135.31V134.57L82.12 134.43L81.58 134.94C81.3 135.22 80.8 135.22 80.51 134.94L79.7 134.13C79.56 133.99 79.48 133.8 79.48 133.6C79.48 133.4 79.56 133.21 79.7 133.07L80.22 132.55L80.07 132.2L79.33 132.18C78.91 132.18 78.58 131.84 78.58 131.43V130.29C78.58 129.87 78.92 129.54 79.33 129.54H80.07L80.21 129.19L79.7 128.65C79.56 128.51 79.48 128.32 79.48 128.12C79.48 127.92 79.56 127.73 79.7 127.59L80.5 126.78C80.78 126.5 81.28 126.5 81.57 126.78L82.09 127.3L82.44 127.15L82.46 126.41C82.46 125.99 82.8 125.66 83.21 125.66H84.35C84.77 125.66 85.11 126 85.11 126.41V127.15L85.46 127.29L86 126.78C86.14 126.64 86.33 126.56 86.53 126.56C86.73 126.56 86.92 126.64 87.06 126.78L87.87 127.59C88.01 127.73 88.09 127.92 88.09 128.12C88.09 128.32 88.01 128.51 87.87 128.65L87.35 129.17L87.5 129.52L88.24 129.54C88.66 129.54 88.99 129.88 88.99 130.29V131.43C88.99 131.85 88.65 132.18 88.24 132.18H87.5L87.36 132.53L87.87 133.07C88.01 133.21 88.09 133.4 88.09 133.6C88.09 133.8 88.01 133.99 87.87 134.13L87.07 134.94C86.78 135.23 86.29 135.22 86 134.94L85.48 134.42L85.13 134.57L85.11 135.31C85.11 135.73 84.78 136.06 84.36 136.06ZM83.35 135.18H84.23V134.58C84.23 134.22 84.49 133.86 84.83 133.75L85.13 133.62C85.21 133.58 85.35 133.55 85.48 133.55C85.72 133.55 85.95 133.64 86.11 133.8L86.54 134.23L87.16 133.61L86.73 133.18C86.48 132.93 86.41 132.49 86.57 132.17L86.69 131.87C86.79 131.56 87.15 131.3 87.51 131.3H88.11V130.43H87.51C87.15 130.43 86.79 130.17 86.68 129.83L86.55 129.53C86.4 129.24 86.47 128.8 86.73 128.55L87.16 128.12L86.54 127.5L86.11 127.93C85.86 128.18 85.42 128.25 85.1 128.09L84.8 127.97C84.49 127.87 84.23 127.51 84.23 127.15V126.54H83.35V127.15C83.35 127.51 83.09 127.87 82.75 127.98L82.45 128.11C82.37 128.15 82.23 128.18 82.1 128.18C81.86 128.18 81.63 128.09 81.47 127.93L81.04 127.5L80.42 128.12L80.85 128.55C81.1 128.81 81.17 129.24 81.01 129.56L80.89 129.86C80.79 130.17 80.43 130.43 80.07 130.43H79.46V131.3H80.07C80.43 131.3 80.79 131.56 80.9 131.9L81.03 132.21C81.18 132.5 81.11 132.94 80.85 133.19L80.42 133.62L81.04 134.24L81.47 133.81C81.72 133.56 82.16 133.49 82.48 133.65L82.78 133.77C83.1 133.88 83.35 134.22 83.35 134.59V135.18ZM83.79 132.8C82.72 132.8 81.84 131.93 81.84 130.85C81.84 129.77 82.71 128.9 83.79 128.9C84.86 128.9 85.74 129.77 85.74 130.85C85.74 131.93 84.86 132.8 83.79 132.8ZM83.79 129.79C83.21 129.79 82.73 130.27 82.73 130.85C82.73 131.43 83.2 131.91 83.79 131.91C84.37 131.91 84.85 131.43 84.85 130.85C84.85 130.27 84.37 129.79 83.79 129.79Z" fill="#2772FB"/>
<path d="M79.69 231.84H64.62C63.45 231.84 62.5 230.89 62.5 229.72V220.09C62.5 218.92 63.45 217.97 64.62 217.97H79.7C80.87 217.97 81.82 218.92 81.82 220.09V229.72C81.81 230.9 80.86 231.84 79.69 231.84ZM64.62 220.1V229.73H79.7V220.1H64.62Z" fill="#2772FB"/>
<path d="M86.44 231.74C86.28 231.74 86.12 231.7 85.97 231.63L80.18 228.75C79.82 228.57 79.59 228.2 79.59 227.8V222.04C79.59 221.64 79.82 221.27 80.18 221.09L85.97 218.21C86.3 218.05 86.69 218.07 87 218.26C87.31 218.45 87.5 218.79 87.5 219.16V230.69C87.5 231.06 87.31 231.4 87 231.59C86.83 231.68 86.64 231.74 86.44 231.74ZM81.71 227.14L85.39 228.97V220.86L81.71 222.69V227.14Z" fill="#2772FB"/>
<path d="M86 266.65C86 263.74 79.09 262.96 75 262.96C70.91 262.96 64 263.74 64 266.65C64 266.69 64.01 266.73 64.02 266.77C64.02 266.8 64 266.82 64 266.85V272.49C64 275.12 70.91 275.83 75 275.83C79.09 275.83 86 275.13 86 272.49V266.85C86 266.82 85.99 266.8 85.98 266.77C85.99 266.72 86 266.69 86 266.65ZM75 264.87C80.34 264.87 83.63 265.97 84.14 266.65C83.63 267.32 80.34 268.43 75 268.43C69.66 268.43 66.37 267.33 65.86 266.65C66.37 265.97 69.66 264.87 75 264.87ZM75 274.09C69.46 274.09 66.12 273.02 65.82 272.48V268.83C68.15 269.97 72.22 270.33 75 270.33C77.77 270.33 81.85 269.97 84.18 268.83L84.19 272.41C83.88 273.02 80.54 274.09 75 274.09Z" fill="#2772FB"/>
<path d="M85.09 275.73H84.18V277.64L84.19 283.1C83.88 283.76 80.54 284.95 75 284.95C69.46 284.95 66.12 283.76 65.82 283.17V277.63V275.72H64.91C64.41 275.72 64 276.15 64 276.68V283.17C64 286.08 70.91 286.86 75 286.86C79.09 286.86 86 286.08 86 283.17V276.68C86 276.16 85.59 275.73 85.09 275.73Z" fill="#2772FB"/>
<path d="M85.09 270.39H84.18V272.3L84.19 277.76C83.88 278.42 80.54 279.61 75 279.61C69.46 279.61 66.12 278.42 65.82 277.83V272.29V270.38H64.91C64.41 270.38 64 270.81 64 271.34V277.83C64 280.74 70.91 281.52 75 281.52C79.09 281.52 86 280.74 86 277.83V271.34C86 270.82 85.59 270.39 85.09 270.39Z" fill="#2772FB"/>
<path d="M75 336.92C72.45 336.92 70.03 334.91 66.18 330.96C65.14 329.87 64.51 327.97 64.5 326.76V317.49C64.5 316.05 65.54 314.64 66.93 314.2C72.13 312.48 77.86 312.47 83.09 314.2C84.44 314.63 85.5 316.07 85.5 317.48V326.75C85.49 327.97 84.87 329.87 83.83 330.95C79.97 334.91 77.55 336.92 75 336.92ZM75 314.78C72.45 314.78 69.93 315.19 67.5 315.99C66.88 316.18 66.37 316.87 66.37 317.49V326.76C66.37 327.56 66.87 328.98 67.52 329.66C70.92 333.15 73.12 335.04 74.99 335.04C76.86 335.04 79.06 333.15 82.47 329.65C83.12 328.98 83.61 327.56 83.61 326.75V317.49C83.61 316.89 83.08 316.18 82.5 315.99C80.07 315.19 77.55 314.78 75 314.78Z" fill="#2772FB"/>
<path d="M75 333.63C73.5 333.63 70.98 331.18 68.53 328.67C68.17 328.29 67.79 327.23 67.79 326.75V317.72C67.79 317.52 67.92 317.34 68.11 317.27C72.61 315.83 77.44 315.83 81.88 317.27C82.07 317.33 82.21 317.51 82.21 317.72V326.76C82.2 327.25 81.82 328.3 81.45 328.69C79.01 331.2 76.5 333.63 75 333.63ZM68.73 318.07V326.74C68.73 327.02 69.04 327.84 69.21 328.02C70.57 329.42 73.77 332.7 75 332.7C76.24 332.7 79.41 329.44 80.77 328.05C80.97 327.84 81.27 327.02 81.28 326.75V318.07C77.21 316.82 72.83 316.82 68.73 318.07Z" fill="#2772FB"/>
<path d="M85.5016 384.029H63.4984C62.9512 384.029 62.5 383.578 62.5 383.03V375.245C62.5 374.688 62.9512 374.246 63.4984 374.246H85.5016C86.0488 374.246 86.5 374.698 86.5 375.245V383.03C86.5 383.587 86.0488 384.029 85.5016 384.029ZM64.4968 382.032H84.5032V376.253H64.4968V382.032Z" fill="#2772FB"/>
<path d="M67.1944 377.962C66.5416 377.962 66.0136 378.49 66.0136 379.142C66.0136 379.795 66.5416 380.323 67.1944 380.323C67.8472 380.323 68.3752 379.795 68.3752 379.142C68.3656 378.49 67.8376 377.962 67.1944 377.962Z" fill="#2772FB"/>
<path d="M71.0248 377.962C70.372 377.962 69.844 378.49 69.844 379.142C69.844 379.795 70.372 380.323 71.0248 380.323C71.6776 380.323 72.2056 379.795 72.2056 379.142C72.196 378.49 71.668 377.962 71.0248 377.962Z" fill="#2772FB"/>
<path d="M74.8456 377.962C74.1928 377.962 73.6648 378.49 73.6648 379.142C73.6648 379.795 74.1928 380.323 74.8456 380.323C75.4984 380.323 76.0264 379.795 76.0264 379.142C76.0264 378.49 75.4984 377.962 74.8456 377.962Z" fill="#2772FB"/>
<path d="M85.5016 375.782H63.4984C62.9512 375.782 62.5 375.331 62.5 374.784V366.998C62.5 366.442 62.9512 366 63.4984 366H85.5016C86.0488 366 86.5 366.451 86.5 366.998V374.784C86.5 375.341 86.0488 375.782 85.5016 375.782ZM64.4968 373.786H84.5032V368.006H64.4968V373.786Z" fill="#2772FB"/>
<path d="M67.1944 369.715C66.5416 369.715 66.0136 370.243 66.0136 370.896C66.0136 371.549 66.5416 372.077 67.1944 372.077C67.8472 372.077 68.3752 371.549 68.3752 370.896C68.3656 370.243 67.8376 369.715 67.1944 369.715Z" fill="#2772FB"/>
<path d="M71.0248 369.715C70.372 369.715 69.844 370.243 69.844 370.896C69.844 371.549 70.372 372.077 71.0248 372.077C71.6776 372.077 72.2056 371.549 72.2056 370.896C72.196 370.243 71.668 369.715 71.0248 369.715Z" fill="#2772FB"/>
<path d="M74.8456 369.715C74.1928 369.715 73.6648 370.243 73.6648 370.896C73.6648 371.549 74.1928 372.077 74.8456 372.077C75.4984 372.077 76.0264 371.549 76.0264 370.896C76.0264 370.243 75.4984 369.715 74.8456 369.715Z" fill="#2772FB"/>
<path d="M76.8 434.92V433.01C80.54 433.01 83.77 430.48 84.66 426.85L86.52 427.31C85.42 431.79 81.42 434.92 76.8 434.92Z" fill="#2772FB"/>
<path d="M76.8 416.82V414.91C81.27 414.91 85.24 417.92 86.44 422.22L84.6 422.73C83.63 419.25 80.42 416.82 76.8 416.82Z" fill="#2772FB"/>
<path d="M72.16 418.97V412.92H78.21V418.97H72.16ZM74.07 414.83V417.06H76.3V414.83H74.07Z" fill="#2772FB"/>
<path d="M72.16 436.91V430.86H78.21V436.91H72.16ZM74.07 432.77V435H76.3V432.77H74.07Z" fill="#2772FB"/>
<path d="M82.59 427.94V421.89H88.64V427.94H82.59ZM84.5 423.8V426.03H86.73V423.8H84.5Z" fill="#2772FB"/>
<path d="M73.2 434.92V433.01C69.46 433.01 66.23 430.48 65.34 426.85L63.48 427.31C64.58 431.79 68.58 434.92 73.2 434.92Z" fill="#2772FB"/>
<path d="M73.2 416.82V414.91C68.73 414.91 64.76 417.92 63.56 422.22L65.4 422.73C66.37 419.25 69.58 416.82 73.2 416.82Z" fill="#2772FB"/>
<path d="M67.41 427.94H61.36V421.89H67.41V427.94ZM65.5 423.8H63.27V426.03H65.5V423.8Z" fill="#2772FB"/>
<path d="M83.18 584.8H66.82C65.82 584.8 65 583.98 65 582.98V572.38C65 571.38 65.82 570.56 66.82 570.56H83.18C84.18 570.56 85 571.38 85 572.38V582.99C85 583.99 84.18 584.8 83.18 584.8ZM66.82 572.38V582.99H83.18V572.38H66.82Z" fill="#2772FB"/>
<path d="M80.83 572.15C80.33 572.15 79.92 571.74 79.92 571.24V568.74C79.92 566.02 77.71 563.82 75 563.82C72.28 563.82 70.08 566.03 70.08 568.74V571.24C70.08 571.74 69.67 572.15 69.17 572.15C68.67 572.15 68.26 571.74 68.26 571.24V568.74C68.26 565.02 71.28 562 75 562C78.72 562 81.74 565.02 81.74 568.74V571.24C81.74 571.75 81.34 572.15 80.83 572.15Z" fill="#2772FB"/>
<path d="M75 574.13C73.95 574.13 73.11 574.98 73.11 576.02C73.11 576.73 73.51 577.35 74.09 577.67V580.71H75.91V577.67C76.5 577.35 76.9 576.73 76.9 576.02C76.89 574.97 76.05 574.13 75 574.13Z" fill="#2772FB"/>
<path d="M75.04 477.77C74.88 477.77 74.72 477.73 74.58 477.65L63.49 471.44C63.19 471.27 63 470.95 63 470.61C63 470.27 63.19 469.95 63.49 469.78L74.5 463.61C74.79 463.45 75.14 463.45 75.43 463.61L86.52 469.82C86.82 469.99 87.01 470.31 87.01 470.65C87.01 470.99 86.82 471.31 86.52 471.48L75.51 477.65C75.36 477.73 75.2 477.77 75.04 477.77ZM65.9 470.61L75.04 475.73L84.1 470.65L74.96 465.53L65.9 470.61Z" fill="#2772FB"/>
<path d="M75.04 482.06C74.88 482.06 74.72 482.02 74.58 481.94L63.49 475.73C63.03 475.47 62.87 474.89 63.13 474.43C63.38 473.97 63.97 473.81 64.42 474.06L75.04 480.01L85.58 474.1C86.04 473.84 86.62 474.01 86.88 474.46C87.14 474.92 86.97 475.5 86.52 475.76L75.51 481.93C75.36 482.01 75.2 482.06 75.04 482.06Z" fill="#2772FB"/>
<path d="M75.04 486.34C74.88 486.34 74.72 486.3 74.58 486.22L63.49 480.01C63.03 479.75 62.87 479.17 63.13 478.71C63.38 478.25 63.97 478.09 64.42 478.34L75.04 484.29L85.58 478.38C86.04 478.12 86.62 478.29 86.88 478.74C87.14 479.2 86.97 479.78 86.52 480.04L75.51 486.21C75.36 486.3 75.2 486.34 75.04 486.34Z" fill="#2772FB"/>
<path d="M75.77 181.58H74.31C73.78 181.58 73.34 181.15 73.34 180.61V179.67L72.89 179.49L72.2 180.14C71.84 180.5 71.2 180.5 70.84 180.14L69.81 179.11C69.63 178.93 69.53 178.69 69.53 178.43C69.53 178.17 69.63 177.93 69.81 177.75L70.48 177.08L70.28 176.63L69.34 176.6C68.81 176.6 68.37 176.17 68.37 175.64V174.18C68.37 173.65 68.8 173.21 69.34 173.21H70.28L70.46 172.76L69.81 172.07C69.63 171.89 69.53 171.65 69.53 171.39C69.53 171.13 69.63 170.89 69.81 170.71L70.84 169.68C71.2 169.32 71.84 169.32 72.21 169.68L72.88 170.35L73.32 170.15L73.35 169.21C73.35 168.68 73.78 168.24 74.32 168.24H75.78C76.31 168.24 76.75 168.67 76.75 169.21V170.15L77.2 170.33L77.89 169.68C78.07 169.5 78.32 169.4 78.57 169.4C78.83 169.4 79.07 169.5 79.25 169.68L80.28 170.71C80.46 170.89 80.56 171.13 80.56 171.39C80.56 171.65 80.46 171.89 80.28 172.07L79.61 172.74L79.81 173.19L80.75 173.22C81.28 173.22 81.71 173.65 81.71 174.19V175.65C81.71 176.18 81.28 176.61 80.75 176.61H79.8L79.62 177.06L80.27 177.75C80.45 177.93 80.55 178.17 80.55 178.43C80.55 178.69 80.45 178.93 80.27 179.11L79.24 180.14C78.87 180.51 78.24 180.5 77.88 180.14L77.21 179.47L76.77 179.67L76.74 180.61C76.74 181.15 76.31 181.58 75.77 181.58ZM74.48 180.45H75.6V179.68C75.6 179.22 75.93 178.76 76.36 178.62L76.75 178.46C76.86 178.4 77.03 178.37 77.2 178.37C77.51 178.37 77.8 178.49 78.01 178.69L78.56 179.24L79.35 178.45L78.8 177.9C78.48 177.57 78.39 177.02 78.59 176.61L78.75 176.22C78.88 175.82 79.34 175.49 79.8 175.49H80.57V174.37H79.8C79.34 174.37 78.88 174.04 78.74 173.6L78.58 173.21C78.39 172.84 78.48 172.28 78.81 171.96L79.36 171.41L78.57 170.62L78.02 171.17C77.7 171.49 77.13 171.58 76.73 171.38L76.34 171.22C75.94 171.09 75.61 170.63 75.61 170.17V169.4H74.49V170.17C74.49 170.63 74.16 171.09 73.72 171.23L73.33 171.39C73.22 171.45 73.05 171.48 72.88 171.48C72.57 171.48 72.28 171.36 72.07 171.16L71.52 170.61L70.73 171.4L71.28 171.95C71.6 172.28 71.69 172.83 71.49 173.24L71.33 173.63C71.2 174.03 70.74 174.36 70.28 174.36H69.51V175.48H70.28C70.74 175.48 71.2 175.81 71.34 176.24L71.5 176.63C71.69 177 71.6 177.56 71.27 177.88L70.72 178.43L71.51 179.22L72.06 178.67C72.38 178.35 72.95 178.26 73.35 178.46L73.74 178.62C74.15 178.75 74.47 179.2 74.47 179.67V180.45H74.48ZM75.04 177.4C73.67 177.4 72.55 176.28 72.55 174.91C72.55 173.54 73.67 172.42 75.04 172.42C76.41 172.42 77.53 173.54 77.53 174.91C77.53 176.28 76.42 177.4 75.04 177.4ZM75.04 173.56C74.29 173.56 73.69 174.17 73.69 174.92C73.69 175.67 74.3 176.28 75.04 176.28C75.79 176.28 76.4 175.67 76.4 174.92C76.4 174.17 75.79 173.56 75.04 173.56Z" fill="#2772FB"/>
<path d="M67.81 170.72C67.45 170.72 67.14 170.44 67.11 170.08L66.95 167.68L64.55 167.58C64.17 167.57 63.88 167.24 63.89 166.86C63.9 166.48 64.22 166.17 64.61 166.2L67.63 166.32C67.98 166.33 68.27 166.61 68.29 166.96L68.49 169.98C68.52 170.36 68.23 170.69 67.85 170.71C67.83 170.72 67.82 170.72 67.81 170.72Z" fill="#2772FB"/>
<path d="M75.09 186.96C71.96 187 68.92 185.81 66.62 183.57C64.33 181.34 63.05 178.36 63 175.17C62.96 171.98 64.16 168.96 66.39 166.67C66.79 166.25 67.46 166.25 67.87 166.65C68.29 167.05 68.29 167.72 67.89 168.13C66.05 170.02 65.06 172.5 65.1 175.13C65.14 177.76 66.19 180.22 68.08 182.06C70.51 184.42 73.93 185.36 77.23 184.59C77.8 184.46 78.36 184.8 78.49 185.37C78.62 185.93 78.28 186.5 77.71 186.63C76.84 186.85 75.97 186.95 75.09 186.96Z" fill="#2772FB"/>
<path d="M82.88 183.47C82.61 183.47 82.34 183.37 82.13 183.17C81.71 182.77 81.71 182.1 82.11 181.69C85.9 177.8 85.81 171.55 81.92 167.76C79.49 165.4 76.07 164.45 72.76 165.24C72.2 165.37 71.63 165.02 71.5 164.46C71.37 163.9 71.72 163.33 72.28 163.2C76.29 162.25 80.43 163.4 83.38 166.26C88.1 170.85 88.2 178.43 83.61 183.16C83.42 183.36 83.15 183.46 82.88 183.47Z" fill="#2772FB"/>
<path d="M85.57 183.69C85.56 183.69 85.54 183.69 85.53 183.69L82.35 183.56C81.98 183.54 81.68 183.25 81.66 182.88L81.45 179.71C81.42 179.31 81.73 178.97 82.12 178.94C82.5 178.91 82.87 179.21 82.89 179.61L83.06 182.13L85.59 182.23C85.99 182.25 86.3 182.58 86.29 182.98C86.26 183.38 85.95 183.68 85.57 183.69Z" fill="#2772FB"/>
<path fill-rule="evenodd" clip-rule="evenodd" d="M65.8414 535H84.1586C84.6298 535 85 534.63 85 534.159V515.841C85 515.379 84.6214 515 84.1586 515H65.8414C65.3786 515 65 515.379 65 515.841V534.159C65 534.621 65.3786 535 65.8414 535ZM83.3172 533.317H66.6828V521.167H83.3172V533.317ZM66.6828 516.683V520.326H83.3172V516.683H66.6828ZM69.5115 523.863C69.6185 523.778 69.7305 523.699 69.842 523.626L70.7287 524.19C71.0051 524.065 71.2911 523.986 71.5814 523.945L72.0462 523C72.3196 523.005 72.5903 523.033 72.8545 523.092L73.0933 524.118C73.367 524.223 73.6302 524.367 73.8687 524.548L74.8652 524.205C74.9573 524.301 75.0487 524.402 75.1337 524.509C75.2186 524.616 75.2971 524.728 75.3697 524.84L74.8108 525.733C74.9352 526.009 75.0144 526.295 75.0547 526.585L76 527.049C75.9984 527.32 75.9645 527.59 75.9074 527.858L74.8847 528.094C74.7797 528.368 74.6379 528.629 74.4541 528.87L74.7964 529.866C74.7005 529.958 74.5987 530.05 74.4917 530.135C74.3848 530.22 74.2727 530.298 74.1613 530.371L73.268 529.813C72.9916 529.937 72.7057 530.017 72.4153 530.057L71.9538 531C71.6804 530.995 71.4129 530.965 71.1455 530.908L70.9067 529.882C70.633 529.777 70.3698 529.633 70.1313 529.452L69.1348 529.795C69.0427 529.699 68.9513 529.598 68.8663 529.491C68.7814 529.384 68.7055 529.275 68.6303 529.16L69.1892 528.267C69.0648 527.991 68.9856 527.705 68.9453 527.415L68 526.951C68.0016 526.68 68.0355 526.41 68.0926 526.142L69.1186 525.903C69.2236 525.629 69.3654 525.369 69.5491 525.127L69.2068 524.131C69.3028 524.039 69.4046 523.948 69.5115 523.863ZM73.1553 525.491C73.208 525.532 73.2589 525.575 73.3078 525.621C73.3713 525.682 73.4314 525.747 73.4875 525.818C73.5435 525.888 73.5938 525.962 73.6382 526.037C73.6731 526.096 73.7045 526.157 73.7323 526.219C73.8092 526.389 73.8591 526.568 73.8828 526.748C73.8918 526.817 73.897 526.886 73.8984 526.954C73.9022 527.129 73.8818 527.304 73.8379 527.473C73.8207 527.539 73.8 527.605 73.7757 527.669C73.7113 527.839 73.6219 528.001 73.5082 528.149C73.4666 528.204 73.4216 528.256 73.3735 528.306C73.3145 528.368 73.2507 528.426 73.1822 528.481C73.1115 528.537 73.038 528.587 72.9623 528.632C72.9024 528.667 72.841 528.699 72.7786 528.727C72.6086 528.803 72.4306 528.853 72.2505 528.877C72.1823 528.886 72.1137 528.891 72.0452 528.892C71.8729 528.896 71.7007 528.876 71.5337 528.834C71.4656 528.817 71.3984 528.796 71.3324 528.771C71.1613 528.706 70.9984 528.617 70.8495 528.502C70.7967 528.462 70.7456 528.418 70.6966 528.372C70.6339 528.312 70.5745 528.247 70.519 528.177C70.4639 528.108 70.4145 528.036 70.3706 527.962C70.3351 527.902 70.3033 527.84 70.275 527.778C70.1983 527.608 70.1482 527.431 70.1242 527.251C70.115 527.181 70.1096 527.111 70.108 527.041C70.1043 526.869 70.124 526.696 70.1667 526.529C70.1839 526.461 70.2049 526.395 70.2295 526.329C70.2936 526.159 70.3826 525.997 70.4958 525.849C70.5348 525.798 70.5767 525.748 70.6214 525.701C70.6836 525.635 70.7513 525.572 70.8244 525.514C70.894 525.459 70.9663 525.409 71.0407 525.365C71.0983 525.331 71.1571 525.3 71.2169 525.273C71.3869 525.195 71.565 525.144 71.7454 525.12C71.8146 525.11 71.8841 525.105 71.9536 525.103C72.1275 525.098 72.3014 525.118 72.47 525.16C72.5377 525.177 72.6045 525.198 72.6701 525.223C72.842 525.287 73.0058 525.377 73.1553 525.491ZM71.817 526.763C71.9455 526.661 72.1338 526.681 72.2372 526.812C72.3406 526.942 72.3181 527.13 72.1896 527.232C72.0612 527.334 71.8728 527.313 71.7694 527.183C71.6661 527.053 71.6886 526.865 71.817 526.763ZM72.8132 526.354C73.1686 526.801 73.094 527.451 72.6466 527.807C72.1993 528.162 71.5487 528.088 71.1934 527.641C70.8381 527.194 70.9128 526.544 71.36 526.188C71.8073 525.833 72.4579 525.907 72.8132 526.354ZM67.7682 518.534C67.7682 517.945 68.2394 517.474 68.8284 517.474C69.409 517.474 69.8886 517.945 69.8886 518.534C69.8886 519.123 69.4174 519.594 68.8284 519.594C68.2394 519.594 67.7682 519.123 67.7682 518.534ZM71.6975 517.474C71.1085 517.474 70.6373 517.945 70.6373 518.534C70.6373 519.123 71.1085 519.594 71.6975 519.594C72.2865 519.594 72.7577 519.123 72.7577 518.534C72.7577 517.945 72.2781 517.474 71.6975 517.474ZM73.5064 518.534C73.5064 517.945 73.9776 517.474 74.5666 517.474C75.1556 517.474 75.6268 517.945 75.6268 518.534C75.6268 519.123 75.1556 519.594 74.5666 519.594C73.9776 519.594 73.5064 519.123 73.5064 518.534ZM82 527H77V526H82V527ZM77 525H82V524H77V525ZM82 529H77V528H82V529ZM77 531H82V530H77V531Z" fill="#2772FB"/>
<g clip-path="url(#clip0_0_1)">
<path d="M22.97 672.08C20.74 672.08 18.92 670.04 18.92 667.54C18.92 665.03 20.74 663 22.97 663C25.2 663 27.02 665.04 27.02 667.54C27.02 670.05 25.2 672.08 22.97 672.08ZM22.97 664.69C21.67 664.69 20.61 665.97 20.61 667.54C20.61 669.11 21.67 670.39 22.97 670.39C24.27 670.39 25.33 669.11 25.33 667.54C25.33 665.97 24.27 664.69 22.97 664.69Z" fill="#304B79"/>
<path d="M29.16 687C26.27 687 23.92 684.65 23.92 681.76C23.92 678.87 26.27 676.52 29.16 676.52C32.05 676.52 34.4 678.87 34.4 681.76C34.4 684.65 32.05 687 29.16 687ZM29.16 677.36C26.74 677.36 24.76 679.33 24.76 681.76C24.76 684.19 26.73 686.16 29.16 686.16C31.59 686.16 33.56 684.19 33.56 681.76C33.56 679.33 31.58 677.36 29.16 677.36Z" fill="#304B79"/>
<path d="M24.34 682.54H16.72C16.28 682.54 15.91 682.2 15.88 681.75L15.61 677.76C15.51 676.29 16.65 674.6 18.1 674.07C21.2 672.96 24.61 672.96 27.7 674.07C28.8 674.47 29.73 675.51 30.07 676.71L28.45 677.17C28.26 676.49 27.71 675.87 27.13 675.66C24.41 674.69 21.41 674.69 18.68 675.66C17.87 675.96 17.26 677 17.3 677.65L17.52 680.85H24.35V682.54H24.34Z" fill="#304B79"/>
<path d="M28.31 684.79C28.08 684.79 27.86 684.7 27.7 684.53L26.31 683.08C25.99 682.74 26 682.21 26.34 681.89C26.68 681.57 27.21 681.58 27.53 681.92L28.26 682.68L30.71 679.69C31.01 679.33 31.54 679.28 31.9 679.57C32.26 679.87 32.31 680.4 32.02 680.76L28.96 684.49C28.81 684.68 28.58 684.79 28.34 684.8C28.33 684.79 28.32 684.79 28.31 684.79Z" fill="#304B79"/>
<path d="M16.45 733.43C16.26 733.43 16.1 733.27 16.1 733.08V728.36C16.1 728.17 16.26 728.01 16.45 728.01H24.42C24.83 727.32 25.32 726.68 25.9 726.13H25.41V724.03H29.93C30.58 723.87 31.27 723.77 31.97 723.77C32.64 723.77 33.3 723.86 33.92 724C35.04 723.89 35.93 722.95 35.93 721.79V717.07C35.93 715.84 34.93 714.84 33.7 714.84H16.45C15.22 714.84 14.22 715.84 14.22 717.07V721.79C14.22 723.02 15.22 724.02 16.45 724.02H24.48V726.12H16.45C15.22 726.12 14.22 727.12 14.22 728.35V733.07C14.22 734.3 15.22 735.3 16.45 735.3H25C24.77 734.7 24.49 734.08 24.4 733.42H16.45V733.43ZM16.45 722.16C16.26 722.16 16.1 722 16.1 721.81V717.09C16.1 716.9 16.26 716.74 16.45 716.74H33.7C33.89 716.74 34.05 716.9 34.05 717.09V721.81C34.05 722 33.89 722.16 33.7 722.16H16.45Z" fill="#304B79"/>
<path d="M31.81 718.98H28.05C27.79 718.98 27.58 719.19 27.58 719.45C27.58 719.71 27.79 719.92 28.05 719.92H31.81C32.07 719.92 32.28 719.71 32.28 719.45C32.28 719.19 32.07 718.98 31.81 718.98Z" fill="#304B79"/>
<path d="M31.61 737.85C27.97 737.85 25 734.88 25 731.24C25 727.6 27.96 724.63 31.61 724.63C35.26 724.63 38.22 727.6 38.22 731.24C38.22 734.88 35.25 737.85 31.61 737.85ZM31.61 725.69C28.55 725.69 26.07 728.18 26.07 731.24C26.07 734.3 28.56 736.79 31.61 736.79C34.67 736.79 37.16 734.3 37.16 731.24C37.15 728.18 34.66 725.69 31.61 725.69Z" fill="#304B79"/>
<path d="M30.54 735.07C30.25 735.07 29.97 734.95 29.77 734.74L28.02 732.91C27.61 732.48 27.63 731.81 28.06 731.4C28.49 731 29.16 731.01 29.57 731.44L30.49 732.4L33.58 728.63C33.95 728.18 34.62 728.11 35.08 728.48C35.54 728.85 35.6 729.52 35.23 729.98L31.37 734.68C31.18 734.92 30.89 735.06 30.59 735.07C30.56 735.07 30.55 735.07 30.54 735.07Z" fill="#304B79"/>
<path d="M25 637C22.45 637 20.03 635 16.18 631.05C15.14 629.96 14.51 628.06 14.5 626.85V617.58C14.5 616.14 15.54 614.73 16.93 614.29C22.13 612.57 27.86 612.56 33.08 614.29C34.43 614.72 35.49 616.16 35.49 617.57V626.83C35.48 628.05 34.86 629.95 33.82 631.03C29.97 634.99 27.55 637 25 637ZM25 614.87C22.45 614.87 19.93 615.28 17.51 616.08C16.89 616.27 16.38 616.96 16.38 617.58V626.85C16.38 627.65 16.88 629.07 17.53 629.75C20.93 633.24 23.13 635.13 25 635.13C26.87 635.13 29.07 633.24 32.48 629.74C33.13 629.07 33.62 627.65 33.62 626.84V617.58C33.62 616.98 33.09 616.27 32.51 616.08C30.07 615.28 27.55 614.87 25 614.87Z" fill="#304B79"/>
<path d="M25 633.71C23.5 633.71 20.98 631.26 18.54 628.75C18.18 628.37 17.8 627.31 17.8 626.83V617.81C17.8 617.61 17.93 617.43 18.12 617.36C22.61 615.92 27.44 615.92 31.89 617.36C32.08 617.42 32.22 617.6 32.22 617.81V626.84C32.21 627.33 31.83 628.38 31.46 628.77C29 631.28 26.5 633.71 25 633.71ZM18.73 618.15V626.82C18.73 627.1 19.04 627.92 19.21 628.1C20.57 629.5 23.76 632.77 25 632.77C26.24 632.77 29.41 629.51 30.77 628.12C30.97 627.91 31.27 627.09 31.28 626.83V618.15C27.21 616.91 22.83 616.91 18.73 618.15Z" fill="#304B79"/>
<path d="M24.07 627.33C23.81 627.33 23.57 627.23 23.39 627.04L21.85 625.42C21.49 625.04 21.51 624.45 21.88 624.09C22.26 623.73 22.85 623.75 23.21 624.12L24.02 624.97L26.74 621.65C27.07 621.25 27.66 621.19 28.06 621.52C28.46 621.85 28.52 622.44 28.19 622.84L24.79 626.99C24.62 627.2 24.37 627.32 24.1 627.33C24.09 627.33 24.08 627.33 24.07 627.33Z" fill="#304B79"/>
<path d="M24.12 778.09C24.08 778.1 24.04 778.11 24.01 778.13L23.47 778.35C22.87 778.55 22.42 779.18 22.42 779.81V780.87H20.88V779.81C20.88 779.17 20.44 778.56 19.88 778.37L19.35 778.15C18.79 777.87 18.01 778 17.58 778.44L16.83 779.19L15.74 778.1L16.49 777.35C16.93 776.9 17.06 776.14 16.8 775.63L16.58 775.09C16.38 774.49 15.75 774.04 15.12 774.04H14.06V772.5H15.12C15.75 772.5 16.38 772.05 16.56 771.5L16.78 770.97C17.06 770.41 16.94 769.65 16.49 769.2L15.74 768.45L16.83 767.36L17.58 768.11C17.86 768.39 18.26 768.55 18.69 768.55C18.93 768.55 19.16 768.5 19.31 768.42L19.84 768.2C20.44 768 20.89 767.37 20.89 766.74V765.68H22.43V766.74C22.43 767.37 22.88 768 23.43 768.18L23.96 768.4C24.52 768.68 25.3 768.55 25.73 768.11L26.48 767.36L27.57 768.45L26.82 769.2C26.38 769.65 26.25 770.41 26.51 770.92L26.73 771.45C26.93 772.05 27.56 772.5 28.19 772.5H29.25V772.63C29.75 772.46 30.27 772.33 30.81 772.26C30.81 771.53 30.21 770.94 29.49 770.94L28.19 770.9L27.92 770.29L28.83 769.38C29.08 769.13 29.22 768.8 29.22 768.44C29.22 768.08 29.08 767.75 28.83 767.5L27.41 766.08C27.16 765.83 26.83 765.69 26.47 765.69C26.12 765.69 25.78 765.83 25.53 766.08L24.59 766.97L23.97 766.73V765.43C23.97 764.7 23.38 764.1 22.64 764.1H20.64C19.91 764.1 19.31 764.69 19.31 765.43L19.27 766.72L18.66 766.99L17.75 766.07C17.25 765.57 16.37 765.57 15.88 766.07L14.47 767.49C14.22 767.74 14.08 768.07 14.08 768.43C14.08 768.79 14.22 769.12 14.47 769.37L15.36 770.31L15.12 770.93H13.82C13.09 770.93 12.49 771.52 12.49 772.26V774.26C12.49 774.99 13.08 775.58 13.82 775.58L15.12 775.62L15.39 776.23L14.48 777.14C14.23 777.39 14.09 777.72 14.09 778.08C14.09 778.44 14.23 778.77 14.48 779.02L15.9 780.44C16.4 780.94 17.27 780.94 17.77 780.44L18.71 779.55L19.33 779.79V781.08C19.33 781.81 19.92 782.41 20.66 782.41H22.66C23.27 782.41 23.77 782 23.93 781.44C23.87 781.04 23.83 780.63 23.83 780.22C23.82 779.5 23.93 778.78 24.12 778.09Z" fill="#304B79"/>
<path d="M21.65 769.86C19.77 769.86 18.23 771.39 18.23 773.28C18.23 775.17 19.76 776.7 21.65 776.7C23.54 776.7 25.07 775.17 25.07 773.28C25.07 771.39 23.54 769.86 21.65 769.86ZM21.65 775.14C20.62 775.14 19.79 774.31 19.79 773.28C19.79 772.25 20.62 771.42 21.65 771.42C22.68 771.42 23.51 772.25 23.51 773.28C23.51 774.31 22.68 775.14 21.65 775.14Z" fill="#304B79"/>
<path d="M31.09 785.87C27.55 785.87 24.68 782.99 24.68 779.46C24.68 775.92 27.56 773.05 31.09 773.05C34.63 773.05 37.5 775.93 37.5 779.46C37.5 783 34.62 785.87 31.09 785.87ZM31.09 774.08C28.12 774.08 25.71 776.49 25.71 779.46C25.71 782.43 28.12 784.84 31.09 784.84C34.06 784.84 36.47 782.43 36.47 779.46C36.47 776.49 34.05 774.08 31.09 774.08Z" fill="#304B79"/>
<path d="M30.05 783.17C29.77 783.17 29.5 783.06 29.3 782.85L27.61 781.07C27.22 780.66 27.23 780 27.65 779.61C28.06 779.22 28.72 779.23 29.11 779.65L30 780.58L33 776.92C33.36 776.48 34.01 776.41 34.45 776.78C34.89 777.14 34.96 777.79 34.59 778.23L30.85 782.79C30.66 783.02 30.38 783.16 30.09 783.17C30.07 783.17 30.06 783.17 30.05 783.17Z" fill="#304B79"/>
<path d="M31.67 837H18.33C17.81 837 17.38 836.58 17.38 836.05V833.02C17.38 832.5 17.8 832.07 18.33 832.07C18.86 832.07 19.28 832.49 19.28 833.02V835.1H30.72V833.02C30.72 832.5 31.14 832.07 31.67 832.07C32.2 832.07 32.62 832.49 32.62 833.02V836.05C32.61 836.58 32.19 837 31.67 837Z" fill="#304B79"/>
<path d="M30.18 826.37L29.55 826.12C28.65 825.77 27.94 825.49 27.8 825.29C27.69 825.13 27.73 824.4 27.76 823.69C27.85 822.13 28.17 820.91 28.46 819.84C28.72 818.86 28.97 817.94 28.97 816.97C28.97 814.78 27.19 812.99 24.99 812.99C22.8 812.99 21.01 814.77 21.01 816.97C21.01 817.94 21.26 818.86 21.52 819.84C21.81 820.91 22.14 822.13 22.22 823.69C22.26 824.4 22.3 825.13 22.18 825.29C22.04 825.48 21.33 825.76 20.43 826.12L19.8 826.37C17.76 827.16 16.16 827.79 16.16 829.99V833.02C16.16 833.54 16.58 833.97 17.11 833.97H25.93H26.2H32.87C33.39 833.97 33.82 833.55 33.82 833.02V829.99C33.83 827.79 32.22 827.17 30.18 826.37ZM31.93 832.07H26.21H25.94H18.07V829.99C18.07 829.19 18.34 828.98 20.51 828.14L21.15 827.89C23.9 826.81 24.29 826.46 24.13 823.6C24.03 821.84 23.66 820.47 23.37 819.36C23.13 818.47 22.92 817.7 22.92 816.98C22.92 815.83 23.85 814.9 25 814.9C26.15 814.9 27.08 815.83 27.08 816.98C27.08 817.7 26.87 818.47 26.63 819.36C26.33 820.47 25.96 821.84 25.87 823.6C25.71 826.46 26.1 826.81 28.85 827.89L29.49 828.14C31.65 828.98 31.93 829.19 31.93 829.99V832.07Z" fill="#304B79"/>
</g>
<g clip-path="url(#clip1_0_1)">
<path d="M72.97 672.08C70.74 672.08 68.92 670.04 68.92 667.54C68.92 665.03 70.74 663 72.97 663C75.2 663 77.02 665.04 77.02 667.54C77.02 670.05 75.2 672.08 72.97 672.08ZM72.97 664.69C71.67 664.69 70.61 665.97 70.61 667.54C70.61 669.11 71.67 670.39 72.97 670.39C74.27 670.39 75.33 669.11 75.33 667.54C75.33 665.97 74.27 664.69 72.97 664.69Z" fill="#2772FB"/>
<path d="M79.16 687C76.27 687 73.92 684.65 73.92 681.76C73.92 678.87 76.27 676.52 79.16 676.52C82.05 676.52 84.4 678.87 84.4 681.76C84.4 684.65 82.05 687 79.16 687ZM79.16 677.36C76.74 677.36 74.76 679.33 74.76 681.76C74.76 684.19 76.73 686.16 79.16 686.16C81.59 686.16 83.56 684.19 83.56 681.76C83.56 679.33 81.58 677.36 79.16 677.36Z" fill="#2772FB"/>
<path d="M74.34 682.54H66.72C66.28 682.54 65.91 682.2 65.88 681.75L65.61 677.76C65.51 676.29 66.65 674.6 68.1 674.07C71.2 672.96 74.61 672.96 77.7 674.07C78.8 674.47 79.73 675.51 80.07 676.71L78.45 677.17C78.26 676.49 77.71 675.87 77.13 675.66C74.41 674.69 71.41 674.69 68.68 675.66C67.87 675.96 67.26 677 67.3 677.65L67.52 680.85H74.35V682.54H74.34Z" fill="#2772FB"/>
<path d="M78.31 684.79C78.08 684.79 77.86 684.7 77.7 684.53L76.31 683.08C75.99 682.74 76 682.21 76.34 681.89C76.68 681.57 77.21 681.58 77.53 681.92L78.26 682.68L80.71 679.69C81.01 679.33 81.54 679.28 81.9 679.57C82.26 679.87 82.31 680.4 82.02 680.76L78.96 684.49C78.81 684.68 78.58 684.79 78.34 684.8C78.33 684.79 78.32 684.79 78.31 684.79Z" fill="#2772FB"/>
<path d="M66.45 733.43C66.26 733.43 66.1 733.27 66.1 733.08V728.36C66.1 728.17 66.26 728.01 66.45 728.01H74.42C74.83 727.32 75.32 726.68 75.9 726.13H75.41V724.03H79.93C80.58 723.87 81.27 723.77 81.97 723.77C82.64 723.77 83.3 723.86 83.92 724C85.04 723.89 85.93 722.95 85.93 721.79V717.07C85.93 715.84 84.93 714.84 83.7 714.84H66.45C65.22 714.84 64.22 715.84 64.22 717.07V721.79C64.22 723.02 65.22 724.02 66.45 724.02H74.48V726.12H66.45C65.22 726.12 64.22 727.12 64.22 728.35V733.07C64.22 734.3 65.22 735.3 66.45 735.3H75C74.77 734.7 74.49 734.08 74.4 733.42H66.45V733.43ZM66.45 722.16C66.26 722.16 66.1 722 66.1 721.81V717.09C66.1 716.9 66.26 716.74 66.45 716.74H83.7C83.89 716.74 84.05 716.9 84.05 717.09V721.81C84.05 722 83.89 722.16 83.7 722.16H66.45Z" fill="#2772FB"/>
<path d="M81.81 718.98H78.05C77.79 718.98 77.58 719.19 77.58 719.45C77.58 719.71 77.79 719.92 78.05 719.92H81.81C82.07 719.92 82.28 719.71 82.28 719.45C82.28 719.19 82.07 718.98 81.81 718.98Z" fill="#2772FB"/>
<path d="M81.61 737.85C77.97 737.85 75 734.88 75 731.24C75 727.6 77.96 724.63 81.61 724.63C85.26 724.63 88.22 727.6 88.22 731.24C88.22 734.88 85.25 737.85 81.61 737.85ZM81.61 725.69C78.55 725.69 76.07 728.18 76.07 731.24C76.07 734.3 78.56 736.79 81.61 736.79C84.67 736.79 87.16 734.3 87.16 731.24C87.15 728.18 84.66 725.69 81.61 725.69Z" fill="#2772FB"/>
<path d="M80.54 735.07C80.25 735.07 79.97 734.95 79.77 734.74L78.02 732.91C77.61 732.48 77.63 731.81 78.06 731.4C78.49 731 79.16 731.01 79.57 731.44L80.49 732.4L83.58 728.63C83.95 728.18 84.62 728.11 85.08 728.48C85.54 728.85 85.6 729.52 85.23 729.98L81.37 734.68C81.18 734.92 80.89 735.06 80.59 735.07C80.56 735.07 80.55 735.07 80.54 735.07Z" fill="#2772FB"/>
<path d="M75 637C72.45 637 70.03 635 66.18 631.05C65.14 629.96 64.51 628.06 64.5 626.85V617.58C64.5 616.14 65.54 614.73 66.93 614.29C72.13 612.57 77.86 612.56 83.08 614.29C84.43 614.72 85.49 616.16 85.49 617.57V626.83C85.48 628.05 84.86 629.95 83.82 631.03C79.97 634.99 77.55 637 75 637ZM75 614.87C72.45 614.87 69.93 615.28 67.51 616.08C66.89 616.27 66.38 616.96 66.38 617.58V626.85C66.38 627.65 66.88 629.07 67.53 629.75C70.93 633.24 73.13 635.13 75 635.13C76.87 635.13 79.07 633.24 82.48 629.74C83.13 629.07 83.62 627.65 83.62 626.84V617.58C83.62 616.98 83.09 616.27 82.51 616.08C80.07 615.28 77.55 614.87 75 614.87Z" fill="#2772FB"/>
<path d="M75 633.71C73.5 633.71 70.98 631.26 68.54 628.75C68.18 628.37 67.8 627.31 67.8 626.83V617.81C67.8 617.61 67.93 617.43 68.12 617.36C72.61 615.92 77.44 615.92 81.89 617.36C82.08 617.42 82.22 617.6 82.22 617.81V626.84C82.21 627.33 81.83 628.38 81.46 628.77C79 631.28 76.5 633.71 75 633.71ZM68.73 618.15V626.82C68.73 627.1 69.04 627.92 69.21 628.1C70.57 629.5 73.76 632.77 75 632.77C76.24 632.77 79.41 629.51 80.77 628.12C80.97 627.91 81.27 627.09 81.28 626.83V618.15C77.21 616.91 72.83 616.91 68.73 618.15Z" fill="#2772FB"/>
<path d="M74.07 627.33C73.81 627.33 73.57 627.23 73.39 627.04L71.85 625.42C71.49 625.04 71.51 624.45 71.88 624.09C72.26 623.73 72.85 623.75 73.21 624.12L74.02 624.97L76.74 621.65C77.07 621.25 77.66 621.19 78.06 621.52C78.46 621.85 78.52 622.44 78.19 622.84L74.79 626.99C74.62 627.2 74.37 627.32 74.1 627.33C74.09 627.33 74.08 627.33 74.07 627.33Z" fill="#2772FB"/>
<path d="M74.12 778.09C74.08 778.1 74.04 778.11 74.01 778.13L73.47 778.35C72.87 778.55 72.42 779.18 72.42 779.81V780.87H70.88V779.81C70.88 779.17 70.44 778.56 69.88 778.37L69.35 778.15C68.79 777.87 68.01 778 67.58 778.44L66.83 779.19L65.74 778.1L66.49 777.35C66.93 776.9 67.06 776.14 66.8 775.63L66.58 775.09C66.38 774.49 65.75 774.04 65.12 774.04H64.06V772.5H65.12C65.75 772.5 66.38 772.05 66.56 771.5L66.78 770.97C67.06 770.41 66.94 769.65 66.49 769.2L65.74 768.45L66.83 767.36L67.58 768.11C67.86 768.39 68.26 768.55 68.69 768.55C68.93 768.55 69.16 768.5 69.31 768.42L69.84 768.2C70.44 768 70.89 767.37 70.89 766.74V765.68H72.43V766.74C72.43 767.37 72.88 768 73.43 768.18L73.96 768.4C74.52 768.68 75.3 768.55 75.73 768.11L76.48 767.36L77.57 768.45L76.82 769.2C76.38 769.65 76.25 770.41 76.51 770.92L76.73 771.45C76.93 772.05 77.56 772.5 78.19 772.5H79.25V772.63C79.75 772.46 80.27 772.33 80.81 772.26C80.81 771.53 80.21 770.94 79.49 770.94L78.19 770.9L77.92 770.29L78.83 769.38C79.08 769.13 79.22 768.8 79.22 768.44C79.22 768.08 79.08 767.75 78.83 767.5L77.41 766.08C77.16 765.83 76.83 765.69 76.47 765.69C76.12 765.69 75.78 765.83 75.53 766.08L74.59 766.97L73.97 766.73V765.43C73.97 764.7 73.38 764.1 72.64 764.1H70.64C69.91 764.1 69.31 764.69 69.31 765.43L69.27 766.72L68.66 766.99L67.75 766.07C67.25 765.57 66.37 765.57 65.88 766.07L64.47 767.49C64.22 767.74 64.08 768.07 64.08 768.43C64.08 768.79 64.22 769.12 64.47 769.37L65.36 770.31L65.12 770.93H63.82C63.09 770.93 62.49 771.52 62.49 772.26V774.26C62.49 774.99 63.08 775.58 63.82 775.58L65.12 775.62L65.39 776.23L64.48 777.14C64.23 777.39 64.09 777.72 64.09 778.08C64.09 778.44 64.23 778.77 64.48 779.02L65.9 780.44C66.4 780.94 67.27 780.94 67.77 780.44L68.71 779.55L69.33 779.79V781.08C69.33 781.81 69.92 782.41 70.66 782.41H72.66C73.27 782.41 73.77 782 73.93 781.44C73.87 781.04 73.83 780.63 73.83 780.22C73.82 779.5 73.93 778.78 74.12 778.09Z" fill="#2772FB"/>
<path d="M71.65 769.86C69.77 769.86 68.23 771.39 68.23 773.28C68.23 775.17 69.76 776.7 71.65 776.7C73.54 776.7 75.07 775.17 75.07 773.28C75.07 771.39 73.54 769.86 71.65 769.86ZM71.65 775.14C70.62 775.14 69.79 774.31 69.79 773.28C69.79 772.25 70.62 771.42 71.65 771.42C72.68 771.42 73.51 772.25 73.51 773.28C73.51 774.31 72.68 775.14 71.65 775.14Z" fill="#2772FB"/>
<path d="M81.09 785.87C77.55 785.87 74.68 782.99 74.68 779.46C74.68 775.92 77.56 773.05 81.09 773.05C84.63 773.05 87.5 775.93 87.5 779.46C87.5 783 84.62 785.87 81.09 785.87ZM81.09 774.08C78.12 774.08 75.71 776.49 75.71 779.46C75.71 782.43 78.12 784.84 81.09 784.84C84.06 784.84 86.47 782.43 86.47 779.46C86.47 776.49 84.05 774.08 81.09 774.08Z" fill="#2772FB"/>
<path d="M80.05 783.17C79.77 783.17 79.5 783.06 79.3 782.85L77.61 781.07C77.22 780.66 77.23 780 77.65 779.61C78.06 779.22 78.72 779.23 79.11 779.65L80 780.58L83 776.92C83.36 776.48 84.01 776.41 84.45 776.78C84.89 777.14 84.96 777.79 84.59 778.23L80.85 782.79C80.66 783.02 80.38 783.16 80.09 783.17C80.07 783.17 80.06 783.17 80.05 783.17Z" fill="#2772FB"/>
<path d="M81.67 837H68.33C67.81 837 67.38 836.58 67.38 836.05V833.02C67.38 832.5 67.8 832.07 68.33 832.07C68.86 832.07 69.28 832.49 69.28 833.02V835.1H80.72V833.02C80.72 832.5 81.14 832.07 81.67 832.07C82.2 832.07 82.62 832.49 82.62 833.02V836.05C82.61 836.58 82.19 837 81.67 837Z" fill="#2772FB"/>
<path d="M80.18 826.37L79.55 826.12C78.65 825.77 77.94 825.49 77.8 825.29C77.69 825.13 77.73 824.4 77.76 823.69C77.85 822.13 78.17 820.91 78.46 819.84C78.72 818.86 78.97 817.94 78.97 816.97C78.97 814.78 77.19 812.99 74.99 812.99C72.8 812.99 71.01 814.77 71.01 816.97C71.01 817.94 71.26 818.86 71.52 819.84C71.81 820.91 72.14 822.13 72.22 823.69C72.26 824.4 72.3 825.13 72.18 825.29C72.04 825.48 71.33 825.76 70.43 826.12L69.8 826.37C67.76 827.16 66.16 827.79 66.16 829.99V833.02C66.16 833.54 66.58 833.97 67.11 833.97H75.93H76.2H82.87C83.39 833.97 83.82 833.55 83.82 833.02V829.99C83.83 827.79 82.22 827.17 80.18 826.37ZM81.93 832.07H76.21H75.94H68.07V829.99C68.07 829.19 68.34 828.98 70.51 828.14L71.15 827.89C73.9 826.81 74.29 826.46 74.13 823.6C74.03 821.84 73.66 820.47 73.37 819.36C73.13 818.47 72.92 817.7 72.92 816.98C72.92 815.83 73.85 814.9 75 814.9C76.15 814.9 77.08 815.83 77.08 816.98C77.08 817.7 76.87 818.47 76.63 819.36C76.33 820.47 75.96 821.84 75.87 823.6C75.71 826.46 76.1 826.81 78.85 827.89L79.49 828.14C81.65 828.98 81.93 829.19 81.93 829.99V832.07Z" fill="#2772FB"/>
</g>
<defs>
<clipPath id="clip0_0_1">
<rect width="50" height="250" fill="white" transform="translate(0 600)"/>
</clipPath>
<clipPath id="clip1_0_1">
<rect width="50" height="250" fill="white" transform="translate(50 600)"/>
</clipPath>
</defs>
</svg>
