<svg width="16" height="32" viewBox="0 0 16 32" fill="none" xmlns="http://www.w3.org/2000/svg">
<path d="M8.87 16H7.12C6.48 16 5.96 15.48 5.96 14.84V13.71L5.42 13.5L4.6 14.28C4.16 14.72 3.4 14.72 2.96 14.28L1.72 13.04C1.5 12.82 1.38 12.53 1.38 12.22C1.38 11.91 1.5 11.62 1.72 11.4L2.52 10.6L2.29 10.06L1.16 10.03C0.52 10.03 0 9.51 0 8.88V7.13C0 6.49 0.52 5.97 1.16 5.97H2.29L2.5 5.42L1.72 4.6C1.51 4.38 1.39 4.09 1.39 3.78C1.39 3.47 1.51 3.18 1.73 2.96L2.97 1.72C3.4 1.28 4.17 1.28 4.61 1.72L5.41 2.52L5.94 2.29L5.97 1.16C5.97 0.52 6.49 0 7.12 0H8.87C9.51 0 10.03 0.52 10.03 1.16V2.29L10.57 2.5L11.39 1.72C11.61 1.5 11.9 1.38 12.21 1.38C12.52 1.38 12.81 1.5 13.03 1.72L14.27 2.96C14.49 3.18 14.61 3.47 14.61 3.78C14.61 4.09 14.49 4.38 14.27 4.6L13.47 5.4L13.71 5.93L14.84 5.96C15.48 5.96 16 6.48 16 7.12V8.87C16 9.51 15.48 10.03 14.84 10.03H13.71L13.5 10.57L14.28 11.39C14.5 11.61 14.62 11.9 14.62 12.21C14.62 12.52 14.5 12.81 14.28 13.03L13.05 14.27C12.61 14.71 11.85 14.71 11.41 14.27L10.61 13.47L10.08 13.7L10.05 14.83C10.03 15.48 9.51 16 8.87 16ZM7.33 14.64H8.67V13.71C8.67 13.16 9.06 12.61 9.59 12.44L10.06 12.25C10.19 12.18 10.39 12.14 10.6 12.14C10.97 12.14 11.32 12.28 11.57 12.53L12.23 13.19L13.18 12.24L12.52 11.58C12.13 11.19 12.02 10.52 12.27 10.03L12.46 9.56C12.62 9.08 13.16 8.69 13.72 8.69H14.65V7.33H13.72C13.17 7.33 12.62 6.93 12.44 6.41L12.25 5.95C12.03 5.5 12.13 4.84 12.52 4.45L13.18 3.79L12.23 2.84L11.57 3.5C11.19 3.88 10.51 3.99 10.02 3.75L9.55 3.55C9.07 3.39 8.67 2.84 8.67 2.29V1.36H7.33V2.29C7.33 2.84 6.94 3.39 6.41 3.56L5.94 3.76C5.81 3.83 5.61 3.87 5.4 3.87C5.03 3.87 4.68 3.73 4.43 3.48L3.78 2.83L2.83 3.78L3.49 4.44C3.88 4.83 3.99 5.5 3.74 5.99L3.55 6.45C3.39 6.93 2.84 7.33 2.29 7.33H1.36V8.67H2.29C2.84 8.67 3.39 9.06 3.57 9.59L3.76 10.06C3.98 10.51 3.88 11.17 3.49 11.56L2.83 12.22L3.78 13.17L4.44 12.51C4.82 12.13 5.5 12.01 5.99 12.26L6.46 12.45C6.95 12.61 7.33 13.15 7.33 13.71V14.64ZM8 10.99C6.35 10.99 5.01 9.65 5.01 8C5.01 6.35 6.35 5.01 8 5.01C9.65 5.01 10.99 6.35 10.99 8C10.99 9.65 9.65 10.99 8 10.99ZM8 6.37C7.1 6.37 6.37 7.1 6.37 8C6.37 8.9 7.1 9.63 8 9.63C8.9 9.63 9.63 8.9 9.63 8C9.63 7.1 8.9 6.37 8 6.37Z" fill="#2772FB"/>
<path d="M8.87 32H7.12C6.48 32 5.96 31.48 5.96 30.84V29.71L5.42 29.5L4.6 30.28C4.16 30.72 3.4 30.72 2.96 30.28L1.72 29.04C1.5 28.82 1.38 28.53 1.38 28.22C1.38 27.91 1.5 27.62 1.72 27.4L2.52 26.6L2.29 26.06L1.16 26.03C0.52 26.03 0 25.51 0 24.88V23.13C0 22.49 0.52 21.97 1.16 21.97H2.29L2.5 21.43L1.72 20.6C1.5 20.38 1.38 20.09 1.38 19.78C1.38 19.47 1.5 19.18 1.72 18.96L2.96 17.72C3.39 17.28 4.16 17.28 4.6 17.72L5.4 18.52L5.93 18.29L5.96 17.16C5.96 16.52 6.48 16 7.12 16H8.87C9.51 16 10.03 16.52 10.03 17.16V18.29L10.57 18.5L11.39 17.72C11.61 17.5 11.9 17.38 12.21 17.38C12.52 17.38 12.81 17.5 13.03 17.72L14.27 18.96C14.49 19.18 14.61 19.47 14.61 19.78C14.61 20.09 14.49 20.38 14.27 20.6L13.47 21.4L13.71 21.93L14.84 21.96C15.48 21.96 16 22.48 16 23.12V24.87C16 25.51 15.48 26.03 14.84 26.03H13.71L13.5 26.57L14.28 27.39C14.5 27.61 14.62 27.9 14.62 28.21C14.62 28.52 14.5 28.81 14.28 29.03L13.05 30.27C12.61 30.71 11.85 30.71 11.41 30.27L10.61 29.47L10.08 29.7L10.05 30.83C10.03 31.48 9.51 32 8.87 32ZM7.33 30.64H8.67V29.71C8.67 29.16 9.06 28.61 9.59 28.44L10.06 28.25C10.19 28.18 10.39 28.14 10.6 28.14C10.97 28.14 11.32 28.28 11.57 28.53L12.23 29.19L13.18 28.24L12.52 27.58C12.13 27.19 12.02 26.52 12.27 26.03L12.46 25.56C12.62 25.08 13.16 24.69 13.72 24.69H14.65V23.35H13.72C13.17 23.35 12.62 22.95 12.44 22.43L12.25 21.97C12.03 21.52 12.13 20.86 12.52 20.47L13.18 19.81L12.23 18.86L11.57 19.52C11.19 19.9 10.51 20.01 10.02 19.77L9.55 19.58C9.07 19.42 8.68 18.87 8.68 18.32V17.39H7.33V18.32C7.33 18.87 6.94 19.42 6.41 19.59L5.94 19.78C5.81 19.85 5.61 19.89 5.4 19.89C5.03 19.89 4.68 19.75 4.43 19.5L3.77 18.84L2.82 19.79L3.48 20.45C3.87 20.84 3.98 21.51 3.73 22L3.54 22.47C3.38 22.95 2.83 23.35 2.28 23.35H1.36V24.69H2.29C2.84 24.69 3.39 25.08 3.57 25.61L3.76 26.08C3.98 26.53 3.88 27.19 3.49 27.58L2.83 28.24L3.78 29.19L4.44 28.53C4.82 28.15 5.5 28.03 5.99 28.28L6.46 28.47C6.95 28.63 7.33 29.17 7.33 29.73V30.64ZM8 26.99C6.35 26.99 5.01 25.65 5.01 24C5.01 22.35 6.35 21.01 8 21.01C9.65 21.01 10.99 22.35 10.99 24C10.99 25.65 9.65 26.99 8 26.99ZM8 22.37C7.1 22.37 6.37 23.1 6.37 24C6.37 24.9 7.1 25.63 8 25.63C8.9 25.63 9.63 24.9 9.63 24C9.63 23.1 8.9 22.37 8 22.37Z" fill="#304B79"/>
</svg>