<svg width="172" height="22" viewBox="0 0 172 22" fill="none" xmlns="http://www.w3.org/2000/svg">
<g clip-path="url(#clip0)">
<path d="M19.6338 1.66157C19.6338 1.03059 19.1291 0.52581 18.4981 0.52581H5.84703C5.21605 0.52581 4.71127 1.03059 4.71127 1.66157V20.3384C4.71127 20.9694 5.21605 21.4742 5.84703 21.4742H13.7027L19.6233 15.6061V1.66157H19.6338Z" fill="#F3F3F3"/>
<path d="M13.9235 22H5.84702C4.93211 22 4.18546 21.2533 4.18546 20.3384V1.66157C4.18546 0.746654 4.93211 0 5.84702 0H18.4981C19.413 0 20.1596 0.746654 20.1596 1.66157V15.827L13.9235 22ZM5.84702 1.05163C5.5105 1.05163 5.23708 1.32505 5.23708 1.66157V20.3384C5.23708 20.675 5.5105 20.9484 5.84702 20.9484H13.4923L19.108 15.3853V1.66157C19.108 1.32505 18.8346 1.05163 18.4981 1.05163H5.84702Z" fill="#B8B8B8"/>
<path d="M13.3241 21.9369C13.0296 21.9369 12.7983 21.7055 12.7983 21.4111V15.1013C12.7983 14.8069 13.0296 14.5755 13.3241 14.5755H19.2973C19.5918 14.5755 19.8231 14.8069 19.8231 15.1013C19.8231 15.3958 19.5918 15.6271 19.2973 15.6271H13.8499V21.4111C13.8499 21.695 13.608 21.9369 13.3241 21.9369Z" fill="#B8B8B8"/>
<path d="M15.6061 11.5468H1.59847C0.715105 11.5468 0 10.8317 0 9.95889V4.84799C0 3.97515 0.715105 3.26004 1.59847 3.26004H15.6061C16.4895 3.26004 17.2046 3.97515 17.2046 4.85851V9.95889C17.1941 10.8317 16.479 11.5468 15.6061 11.5468Z" fill="#FA3B3F"/>
<path d="M4.25909 4.93212C5.3633 4.93212 6.09943 5.64723 6.09943 6.74092C6.09943 7.83461 5.31072 8.54971 4.17496 8.54971H3.33366V10.0535H2.04016V4.93212H4.25909ZM3.34418 7.5717H3.91205C4.46942 7.5717 4.79542 7.28776 4.79542 6.75143C4.79542 6.2151 4.46942 5.93117 3.92257 5.93117H3.34418V7.5717Z" fill="white"/>
<path d="M8.77057 4.93212C10.3165 4.93212 11.2209 5.826 11.2209 7.45602C11.2209 9.08604 10.3059 10.043 8.77057 10.043H6.68835V4.93212H8.77057ZM7.99237 9.00191H8.60231C9.45413 9.00191 9.90633 8.48661 9.90633 7.46654C9.90633 6.50956 9.42258 5.98375 8.60231 5.98375H7.99237V9.00191Z" fill="white"/>
<path d="M11.8623 10.0535V4.93212H15.3432V5.98375H13.1664V7.15105H15.1539V8.15009H13.1664V10.0535H11.8623Z" fill="white"/>
<path d="M49.9943 1.66157C49.9943 1.03059 49.4895 0.52581 48.8585 0.52581H36.2075C35.5765 0.52581 35.0717 1.03059 35.0717 1.66157V20.3384C35.0717 20.9694 35.5765 21.4742 36.2075 21.4742H44.0631L49.9838 15.6061V1.66157H49.9943Z" fill="#F3F3F3"/>
<path d="M44.2839 22H36.2075C35.2926 22 34.5459 21.2533 34.5459 20.3384V1.66157C34.5459 0.746654 35.2926 0 36.2075 0H48.8585C49.7734 0 50.5201 0.746654 50.5201 1.66157V15.827L44.2839 22ZM36.2075 1.05163C35.8709 1.05163 35.5975 1.32505 35.5975 1.66157V20.3384C35.5975 20.675 35.8709 20.9484 36.2075 20.9484H43.8528L49.4685 15.3853V1.66157C49.4685 1.32505 49.195 1.05163 48.8585 1.05163H36.2075Z" fill="#B8B8B8"/>
<path d="M43.7371 21.9369C43.4427 21.9369 43.2113 21.7055 43.2113 21.4111V15.1013C43.2113 14.8069 43.4427 14.5755 43.7371 14.5755H49.7103C50.0048 14.5755 50.2362 14.8069 50.2362 15.1013C50.2362 15.3958 50.0048 15.6271 49.7103 15.6271H44.2629V21.4111C44.2629 21.695 44.0316 21.9369 43.7371 21.9369Z" fill="#B8B8B8"/>
<path d="M45.9665 11.5468H31.9589C31.0755 11.5468 30.3604 10.8317 30.3604 9.94838V4.848C30.3604 3.96463 31.0755 3.24953 31.9589 3.24953H45.9665C46.8499 3.24953 47.565 3.96463 47.565 4.848V9.94838C47.5545 10.8317 46.8499 11.5468 45.9665 11.5468Z" fill="#20744B"/>
<path d="M33.7887 7.39293V7.3719L32.2428 4.77438H33.7466L34.6826 6.55163H34.7036L35.6396 4.77438H37.0698L35.4503 7.38241V7.40345L37.0487 10.022H35.5975L34.609 8.31836H34.5985L33.6099 10.022H32.2323L33.7887 7.39293Z" fill="white"/>
<path d="M41.0029 10.0325H37.6061V4.77438H38.8996V8.94934H41.0029V10.0325Z" fill="white"/>
<path d="M42.6224 8.48662C42.6855 8.8652 43.0746 9.07553 43.5688 9.07553C44.0736 9.07553 44.3996 8.84417 44.3996 8.51817C44.3996 8.22371 44.1788 8.07648 43.5793 7.9608L43.0535 7.85564C42.044 7.65583 41.5181 7.14054 41.5181 6.3413C41.5181 5.33174 42.37 4.67973 43.5373 4.67973C44.8203 4.67973 45.5669 5.33174 45.5879 6.33078H44.3891C44.3681 5.9522 44.021 5.73136 43.5583 5.73136C43.0851 5.73136 42.8116 5.9522 42.8116 6.25717C42.8116 6.53059 43.043 6.68834 43.6004 6.7935L44.1262 6.89866C45.2093 7.10899 45.7036 7.5717 45.7036 8.39197C45.7036 9.44359 44.9044 10.1166 43.5583 10.1166C42.2858 10.1166 41.4551 9.51721 41.434 8.4761H42.6224V8.48662Z" fill="white"/>
<path d="M80.3547 1.66157C80.3547 1.03059 79.8499 0.52581 79.2189 0.52581H66.5679C65.9369 0.52581 65.4321 1.03059 65.4321 1.66157V20.3384C65.4321 20.9694 65.9369 21.4742 66.5679 21.4742H74.4235L80.3442 15.6061V1.66157H80.3547Z" fill="#F3F3F3"/>
<path d="M74.6444 22H66.5679C65.653 22 64.9063 21.2533 64.9063 20.3384V1.66157C64.9063 0.746654 65.653 0 66.5679 0H79.2189C80.1338 0 80.8805 0.746654 80.8805 1.66157V15.827L74.6444 22ZM66.5679 1.05163C66.2314 1.05163 65.9579 1.32505 65.9579 1.66157V20.3384C65.9579 20.675 66.2314 20.9484 66.5679 20.9484H74.2132L79.8289 15.3853V1.66157C79.8289 1.32505 79.5554 1.05163 79.2189 1.05163H66.5679Z" fill="#B8B8B8"/>
<path d="M74.2342 21.9369C73.9398 21.9369 73.7084 21.7055 73.7084 21.4111V15.1013C73.7084 14.8069 73.9398 14.5755 74.2342 14.5755H80.2075C80.5019 14.5755 80.7333 14.8069 80.7333 15.1013C80.7333 15.3958 80.5019 15.6271 80.2075 15.6271H74.7601V21.4111C74.7601 21.695 74.5287 21.9369 74.2342 21.9369Z" fill="#B8B8B8"/>
<path d="M76.327 11.5468H62.3193C61.436 11.5468 60.7209 10.8317 60.7209 9.94838V4.848C60.7209 3.96463 61.436 3.24953 62.3193 3.24953H76.327C77.2103 3.24953 77.9254 3.96463 77.9254 4.848V9.94838C77.9254 10.8317 77.2103 11.5468 76.327 11.5468Z" fill="#285498"/>
<path d="M64.1386 5.03728C65.5689 5.03728 66.4101 5.86807 66.4101 7.37189C66.4101 8.88623 65.5689 9.7696 64.1386 9.7696H62.2142V5.03728H64.1386V5.03728ZM63.4235 8.8021H63.9809C64.7591 8.8021 65.1797 8.32887 65.1797 7.38241C65.1797 6.49904 64.7381 6.0153 63.9809 6.0153H63.4235V8.8021Z" fill="white"/>
<path d="M71.5316 7.40344C71.5316 8.90727 70.6272 9.85373 69.197 9.85373C67.7562 9.85373 66.8624 8.91778 66.8624 7.40344C66.8624 5.8891 67.7668 4.95316 69.197 4.95316C70.6272 4.95316 71.5316 5.89962 71.5316 7.40344ZM68.0822 7.40344C68.0822 8.29732 68.5134 8.87572 69.197 8.87572C69.87 8.87572 70.3117 8.30784 70.3117 7.40344C70.3117 6.49904 69.87 5.93117 69.197 5.93117C68.5239 5.93117 68.0822 6.49904 68.0822 7.40344Z" fill="white"/>
<path d="M71.9838 7.40344C71.9838 5.85755 72.8671 4.95316 74.2868 4.95316C75.4857 4.95316 76.3901 5.72084 76.4321 6.84608H75.2753C75.2122 6.28872 74.8231 5.92065 74.2868 5.92065C73.6348 5.92065 73.2142 6.47801 73.2142 7.40344C73.2142 8.32887 73.6243 8.89675 74.2868 8.89675C74.8126 8.89675 75.2017 8.54971 75.2753 7.99235H76.4321C76.3795 9.11759 75.5067 9.85373 74.2868 9.85373C72.8671 9.85373 71.9838 8.94933 71.9838 7.40344Z" fill="white"/>
<path d="M110.715 1.66157C110.715 1.03059 110.21 0.52581 109.579 0.52581H96.9283C96.2973 0.52581 95.7925 1.03059 95.7925 1.66157V20.3384C95.7925 20.9694 96.2973 21.4742 96.9283 21.4742H104.784L110.705 15.6061V1.66157H110.715Z" fill="#F3F3F3"/>
<path d="M105.005 22H96.9283C96.0134 22 95.2667 21.2533 95.2667 20.3384V1.66157C95.2772 0.746654 96.0134 0 96.9283 0H109.579C110.494 0 111.241 0.746654 111.241 1.66157V15.827L105.005 22ZM96.9283 1.05163C96.5918 1.05163 96.3183 1.32505 96.3183 1.66157V20.3384C96.3183 20.675 96.5918 20.9484 96.9283 20.9484H104.574L110.189 15.3853V1.66157C110.189 1.32505 109.916 1.05163 109.579 1.05163H96.9283Z" fill="#B8B8B8"/>
<path d="M104.731 21.9369C104.437 21.9369 104.206 21.7055 104.206 21.4111V15.1013C104.206 14.8069 104.437 14.5755 104.731 14.5755H110.705C110.999 14.5755 111.23 14.8069 111.23 15.1013C111.23 15.3958 110.999 15.6271 110.705 15.6271H105.257V21.4111C105.257 21.695 105.026 21.9369 104.731 21.9369Z" fill="#B8B8B8"/>
<path d="M106.687 11.5468H92.6797C91.7964 11.5468 91.0813 10.8317 91.0813 9.94838V4.848C91.0813 3.96463 91.7964 3.24953 92.6797 3.24953H106.687C107.571 3.24953 108.286 3.96463 108.286 4.848V9.94838C108.286 10.8317 107.571 11.5468 106.687 11.5468Z" fill="#3BBC53"/>
<path d="M92.5851 7.40344C92.5851 5.78394 93.5105 4.84799 94.9933 4.84799C96.2447 4.84799 97.1912 5.65774 97.2333 6.82505H96.0134C95.9503 6.24665 95.5401 5.85755 94.9828 5.85755C94.2992 5.85755 93.8575 6.44646 93.8575 7.40344C93.8575 8.37094 94.2887 8.95985 94.9828 8.95985C95.5401 8.95985 95.9398 8.59178 96.0134 8.01338H97.2227C97.1596 9.1912 96.2552 9.96941 94.9723 9.96941C93.5105 9.96941 92.5851 9.02294 92.5851 7.40344Z" fill="white"/>
<path d="M98.8317 8.42352C98.8948 8.78107 99.2734 8.98088 99.7572 8.98088C100.251 8.98088 100.567 8.76004 100.567 8.45507C100.567 8.18164 100.357 8.04493 99.7677 7.92925L99.2629 7.83461C98.2744 7.64531 97.7591 7.16157 97.7591 6.41491C97.7591 5.45793 98.5899 4.84799 99.7256 4.84799C100.967 4.84799 101.703 5.45793 101.724 6.4044H100.556C100.535 6.04684 100.199 5.83652 99.7467 5.83652C99.2945 5.83652 99.021 6.04684 99.021 6.33078C99.021 6.59369 99.2524 6.7304 99.7887 6.83556L100.293 6.93021C101.345 7.13002 101.829 7.56118 101.829 8.33939C101.829 9.33843 101.051 9.96941 99.7467 9.96941C98.5163 9.96941 97.696 9.40153 97.675 8.42352H98.8317Z" fill="white"/>
<path d="M103.627 9.87476L102.05 4.92161H103.48L104.437 8.64436H104.468L105.415 4.92161H106.793L105.215 9.87476H103.627Z" fill="white"/>
<path d="M141.076 1.66157C141.076 1.03059 140.571 0.52581 139.94 0.52581H127.289C126.658 0.52581 126.153 1.03059 126.153 1.66157V20.3384C126.153 20.9694 126.658 21.4742 127.289 21.4742H135.144L141.065 15.6061V1.66157H141.076Z" fill="#F3F3F3"/>
<path d="M135.376 22H127.299C126.384 22 125.638 21.2533 125.638 20.3384V1.66157C125.638 0.746654 126.384 0 127.299 0H139.95C140.865 0 141.612 0.746654 141.612 1.66157V15.827L135.376 22ZM127.299 1.05163C126.963 1.05163 126.689 1.32505 126.689 1.66157V20.3384C126.689 20.675 126.963 20.9484 127.299 20.9484H134.945L140.56 15.3853V1.66157C140.56 1.32505 140.287 1.05163 139.95 1.05163H127.299Z" fill="#B8B8B8"/>
<path d="M134.85 21.9369C134.555 21.9369 134.324 21.7055 134.324 21.4111V15.1013C134.324 14.8069 134.555 14.5755 134.85 14.5755H140.823C141.118 14.5755 141.349 14.8069 141.349 15.1013C141.349 15.3958 141.118 15.6271 140.823 15.6271H135.376V21.4111C135.376 21.695 135.134 21.9369 134.85 21.9369Z" fill="#B8B8B8"/>
<path d="M137.048 11.5468H123.04C122.157 11.5468 121.442 10.8317 121.442 9.94838V4.848C121.442 3.96463 122.157 3.24953 123.04 3.24953H137.048C137.931 3.24953 138.646 3.96463 138.646 4.848V9.94838C138.646 10.8317 137.931 11.5468 137.048 11.5468Z" fill="#00ACF0"/>
<path d="M125.743 9.61185V7.8346H123.987V9.61185H122.861V5.19502H123.987V6.9302H125.743V5.19502H126.858V9.61185H125.743Z" fill="white"/>
<path d="M129.539 9.61185H128.477L127.32 5.19502H128.477L129.076 8.17112H129.098L129.834 5.19502H130.728L131.464 8.17112H131.485L132.084 5.19502H133.241L132.084 9.61185H131.022L130.275 6.85659H130.254L129.539 9.61185Z" fill="white"/>
<path d="M135.649 5.19502C136.596 5.19502 137.237 5.80496 137.237 6.76194C137.237 7.70841 136.564 8.31835 135.576 8.31835H134.85V9.61185H133.725V5.19502H135.649ZM134.86 7.47705H135.344C135.817 7.47705 136.101 7.22466 136.101 6.77246C136.101 6.30975 135.817 6.06787 135.344 6.06787H134.85V7.47705H134.86Z" fill="white"/>
<path d="M171.446 1.66157C171.446 1.03059 170.942 0.52581 170.311 0.52581H157.66C157.029 0.52581 156.524 1.03059 156.524 1.66157V20.3384C156.524 20.9694 157.029 21.4742 157.66 21.4742H165.515L171.436 15.6061V1.66157H171.446Z" fill="#F3F3F3"/>
<path d="M165.736 22H157.66C156.745 22 155.998 21.2533 155.998 20.3384V1.66157C155.998 0.746654 156.745 0 157.66 0H170.311C171.226 0 171.972 0.746654 171.972 1.66157V15.827L165.736 22ZM157.66 1.05163C157.323 1.05163 157.05 1.32505 157.05 1.66157V20.3384C157.05 20.675 157.323 20.9484 157.66 20.9484H165.305L170.921 15.3853V1.66157C170.921 1.32505 170.647 1.05163 170.311 1.05163H157.66Z" fill="#B8B8B8"/>
<path d="M165.263 21.9369C164.968 21.9369 164.737 21.7055 164.737 21.4111V15.1013C164.737 14.8069 164.968 14.5755 165.263 14.5755H171.236C171.531 14.5755 171.762 14.8069 171.762 15.1013C171.762 15.3958 171.531 15.6271 171.236 15.6271H165.789V21.4111C165.789 21.695 165.557 21.9369 165.263 21.9369Z" fill="#B8B8B8"/>
<path d="M167.419 11.5468H153.411C152.528 11.5468 151.813 10.8317 151.813 9.94838V4.848C151.813 3.96463 152.528 3.24953 153.411 3.24953H167.419C168.302 3.24953 169.017 3.96463 169.017 4.848V9.94838C169.007 10.8317 168.292 11.5468 167.419 11.5468Z" fill="#1E75BB"/>
<path d="M154.957 9.95889V5.89962H153.537V4.84799H157.66V5.89962H156.25V9.96941H154.957V9.95889Z" fill="white"/>
<path d="M159.542 7.40344V7.37189L157.986 4.84799H159.5L160.436 6.58317H160.457L161.403 4.84799H162.844L161.214 7.38241V7.40344L162.823 9.95889H161.361L160.373 8.29732H160.341L159.342 9.95889H157.954L159.542 7.40344Z" fill="white"/>
<path d="M164.569 9.95889V5.89962H163.16V4.84799H167.282V5.89962H165.873V9.96941H164.569V9.95889Z" fill="white"/>
</g>
<defs>
<clipPath id="clip0">
<rect width="171.972" height="22" fill="white"/>
</clipPath>
</defs>
</svg>
