<svg width="32" height="16" viewBox="0 0 32 16" fill="none" xmlns="http://www.w3.org/2000/svg">
<path fill-rule="evenodd" clip-rule="evenodd" d="M5.76723 4.2216H15.2942C15.6823 4.2216 15.9999 3.94674 15.9999 3.6108C15.9999 3.27486 15.6823 3 15.2942 3H5.76723C5.3791 3 5.06153 3.27486 5.06153 3.6108C5.06153 3.94674 5.3791 4.2216 5.76723 4.2216ZM3.93251 5.62026C3.74902 5.62026 3.57263 5.55918 3.43149 5.44312L3.0218 5.08854V11.6978C3.0218 12.0398 2.70424 12.3086 2.3161 12.3086C1.92797 12.3086 1.6104 12.0337 1.6104 11.6978V5.08917L1.20145 5.44312C0.926222 5.68134 0.481649 5.68134 0.206425 5.44312C-0.0687983 5.20491 -0.0687983 4.82011 0.206425 4.58189L1.82247 3.18318C2.09769 2.94496 2.54231 2.94496 2.81753 3.18318L4.43357 4.58189C4.70879 4.82011 4.70879 5.20491 4.43357 5.44312C4.29243 5.55918 4.10893 5.62026 3.93251 5.62026ZM15.2942 12.3636H5.76723C5.3791 12.3636 5.06153 12.0887 5.06153 11.7528C5.06153 11.4168 5.3791 11.142 5.76723 11.142H15.2942C15.6823 11.142 15.9999 11.4168 15.9999 11.7528C15.9999 12.0887 15.6823 12.3636 15.2942 12.3636ZM5.76723 8.29564H15.2942C15.6823 8.29564 15.9999 8.02078 15.9999 7.68484C15.9999 7.3489 15.6823 7.07404 15.2942 7.07404H5.76723C5.3791 7.07404 5.06153 7.3489 5.06153 7.68484C5.06153 8.02078 5.3791 8.29564 5.76723 8.29564Z" fill="#304B79"/>
<path fill-rule="evenodd" clip-rule="evenodd" d="M21.7672 4.2216H31.2942C31.6823 4.2216 31.9999 3.94674 31.9999 3.6108C31.9999 3.27486 31.6823 3 31.2942 3H21.7672C21.3791 3 21.0615 3.27486 21.0615 3.6108C21.0615 3.94674 21.3791 4.2216 21.7672 4.2216ZM19.9325 5.62026C19.749 5.62026 19.5726 5.55918 19.4315 5.44312L19.0218 5.08854V11.6978C19.0218 12.0398 18.7042 12.3086 18.3161 12.3086C17.928 12.3086 17.6104 12.0337 17.6104 11.6978V5.08917L17.2014 5.44312C16.9262 5.68134 16.4816 5.68134 16.2064 5.44312C15.9312 5.20491 15.9312 4.82011 16.2064 4.58189L17.8225 3.18318C18.0977 2.94496 18.5423 2.94496 18.8175 3.18318L20.4336 4.58189C20.7088 4.82011 20.7088 5.20491 20.4336 5.44312C20.2924 5.55918 20.1089 5.62026 19.9325 5.62026ZM31.2942 12.3636H21.7672C21.3791 12.3636 21.0615 12.0887 21.0615 11.7528C21.0615 11.4168 21.3791 11.142 21.7672 11.142H31.2942C31.6823 11.142 31.9999 11.4168 31.9999 11.7528C31.9999 12.0887 31.6823 12.3636 31.2942 12.3636ZM21.7672 8.29564H31.2942C31.6823 8.29564 31.9999 8.02078 31.9999 7.68484C31.9999 7.3489 31.6823 7.07404 31.2942 7.07404H21.7672C21.3791 7.07404 21.0615 7.3489 21.0615 7.68484C21.0615 8.02078 21.3791 8.29564 21.7672 8.29564Z" fill="white"/>
</svg>
