<svg width="45" height="340" viewBox="0 0 45 340" fill="none" xmlns="http://www.w3.org/2000/svg">
<path d="M16.36 17.5333H3.64C2.73333 17.5333 2 16.7933 2 15.8933V12.42C2 11.5133 2.74 10.78 3.64 10.78H16.3533C17.26 10.78 17.9933 11.52 17.9933 12.42V15.8933C18 16.8 17.26 17.5333 16.36 17.5333ZM3.64 12.16C3.5 12.16 3.38 12.2733 3.38 12.42V15.8933C3.38 16.0333 3.49333 16.1533 3.64 16.1533H16.3533C16.4933 16.1533 16.6133 16.04 16.6133 15.8933V12.42C16.6133 12.28 16.5 12.16 16.3533 12.16H3.64Z" fill="#304B79"/>
<path d="M16.36 9.22666H3.64C2.73333 9.22666 2 8.48666 2 7.58666V4.11333C2 3.20666 2.74 2.47333 3.64 2.47333H16.3533C17.26 2.47333 17.9933 3.21333 17.9933 4.11333V7.58666C18 8.48666 17.26 9.22666 16.36 9.22666ZM3.64 3.84666C3.5 3.84666 3.38 3.95999 3.38 4.10666V7.57999C3.38 7.72 3.49333 7.83999 3.64 7.83999H16.3533C16.4933 7.83999 16.6133 7.72666 16.6133 7.57999V4.10666C16.6133 3.96666 16.5 3.84666 16.3533 3.84666H3.64Z" fill="#304B79"/>
<path d="M14.96 6.19333H12.1933C12 6.19333 11.8467 6.03999 11.8467 5.84666C11.8467 5.65333 12 5.49999 12.1933 5.49999H14.96C15.1533 5.49999 15.3067 5.65333 15.3067 5.84666C15.3067 6.03999 15.1533 6.19333 14.96 6.19333Z" fill="#304B79"/>
<path d="M14.96 14.4133H12.1933C12 14.4133 11.8467 14.26 11.8467 14.0667C11.8467 13.8733 12 13.72 12.1933 13.72H14.96C15.1533 13.72 15.3067 13.8733 15.3067 14.0667C15.3067 14.26 15.1533 14.4133 14.96 14.4133Z" fill="#304B79"/>
<path d="M10.2467 9.19333V11.1C10.2467 11.2333 10.0933 11.34 9.9 11.34C9.70667 11.34 9.55333 11.2333 9.55333 11.1V9.19333C9.55333 9.06 9.70667 8.95333 9.9 8.95333C10.0933 8.95333 10.2467 9.06 10.2467 9.19333Z" fill="#304B79"/>
<path d="M7.31319 29.5533C5.61319 29.5533 4.23319 28.0067 4.23319 26.1133C4.23319 24.2133 5.61319 22.6667 7.31319 22.6667C9.01319 22.6667 10.3932 24.2133 10.3932 26.1133C10.3932 28.0133 9.00652 29.5533 7.31319 29.5533ZM7.31319 24.0867C6.39985 24.0867 5.65319 24.9933 5.65319 26.1133C5.65319 27.2267 6.39985 28.14 7.31319 28.14C8.22652 28.14 8.97319 27.2333 8.97319 26.1133C8.97319 24.9933 8.22652 24.0867 7.31319 24.0867Z" fill="#304B79"/>
<path d="M11.8199 37.3333H2.68652C2.31319 37.3333 2.00652 37.0467 1.97985 36.6733L1.77985 33.7267C1.69985 32.5867 2.55319 31.3267 3.67319 30.9133C5.98652 30.0867 8.53319 30.0867 10.8265 30.9133C11.9599 31.3267 12.8065 32.5933 12.7265 33.7333L12.5265 36.68C12.4999 37.0467 12.1932 37.3333 11.8199 37.3333ZM3.34652 35.92H11.1532L11.3065 33.6333C11.3399 33.18 10.9132 32.4533 10.3399 32.2467C8.35986 31.54 6.14652 31.5333 4.15319 32.2467C3.58652 32.46 3.15985 33.18 3.19319 33.6333L3.34652 35.92Z" fill="#304B79"/>
<path d="M11.8199 37.3333H2.68652C2.31319 37.3333 2.00652 37.0467 1.97985 36.6733L1.77985 33.7267C1.69985 32.5867 2.55319 31.3267 3.67319 30.9133C5.98652 30.0867 8.53319 30.0867 10.8265 30.9133C11.9599 31.3267 12.8065 32.5933 12.7265 33.7333L12.5265 36.68C12.4999 37.0467 12.1932 37.3333 11.8199 37.3333ZM3.34652 35.92H11.1532L11.3065 33.6333C11.3399 33.18 10.9132 32.4533 10.3399 32.2467C8.35986 31.54 6.14652 31.5333 4.15319 32.2467C3.58652 32.46 3.15985 33.18 3.19319 33.6333L3.34652 35.92Z" fill="#304B79"/>
<path d="M17.3399 37.3333H13.6999C13.3065 37.3333 12.9932 37.0133 12.9932 36.6267C12.9932 36.24 13.3132 35.92 13.6999 35.92H16.6732L16.7999 34.04C16.8265 33.68 16.4732 33.1 16.0265 32.94C15.2332 32.6533 14.3932 32.5067 13.5399 32.4867C13.1465 32.48 12.8332 32.16 12.8399 31.7667C12.8465 31.3733 13.1665 31.0533 13.5599 31.0667C14.5665 31.0867 15.5599 31.2667 16.5065 31.6C17.5199 31.9733 18.2799 33.1067 18.2132 34.1333L18.0399 36.68C18.0265 37.0467 17.7132 37.3333 17.3399 37.3333Z" fill="#304B79"/>
<path d="M14.5465 30.3067C13.1332 30.3067 11.9865 29.0333 11.9865 27.4667C11.9865 25.9 13.1332 24.6267 14.5465 24.6267C15.9599 24.6267 17.1065 25.9 17.1065 27.4667C17.1065 29.0333 15.9532 30.3067 14.5465 30.3067ZM14.5465 26.04C13.9199 26.04 13.4065 26.68 13.4065 27.46C13.4065 28.2467 13.9199 28.88 14.5465 28.88C15.1732 28.88 15.6865 28.24 15.6865 27.46C15.6799 26.68 15.1732 26.04 14.5465 26.04Z" fill="#304B79"/>
<path d="M7.64665 55.1533H6.26665C5.76665 55.1533 5.35332 54.7467 5.35332 54.24V53.3533L4.92665 53.1867L4.27999 53.8C3.93999 54.14 3.33332 54.14 2.99332 53.8L2.01999 52.8267C1.84665 52.6533 1.75332 52.4267 1.75332 52.18C1.75332 51.9333 1.84665 51.7067 2.01999 51.5333L2.64665 50.9067L2.45999 50.4867L1.56665 50.46C1.06665 50.46 0.65332 50.0533 0.65332 49.5467V48.1733C0.65332 47.6733 1.05999 47.26 1.56665 47.26H2.45999L2.62665 46.8333L2.01332 46.1867C1.83999 46.0133 1.74665 45.7867 1.74665 45.54C1.74665 45.2933 1.83999 45.0667 2.01332 44.8933L2.98665 43.92C3.32665 43.58 3.93332 43.5733 4.27332 43.92L4.89999 44.5467L5.31999 44.36L5.34665 43.4733C5.34665 42.9733 5.75332 42.56 6.25999 42.56H7.63332C8.13332 42.56 8.54665 42.9667 8.54665 43.4733V44.3667L8.97332 44.5333L9.61999 43.92C9.79332 43.7467 10.02 43.6533 10.2667 43.6533C10.5133 43.6533 10.74 43.7467 10.9133 43.92L11.8867 44.8933C12.06 45.06 12.1533 45.2933 12.1533 45.5333C12.1533 45.78 12.06 46.0067 11.8867 46.18L11.26 46.8067L11.4467 47.2267L12.34 47.2533C12.84 47.2533 13.2467 47.66 13.2467 48.1667V49.54C13.2467 50.04 12.84 50.4533 12.34 50.4533H11.4467L11.28 50.88L11.8933 51.5267C12.0667 51.7 12.16 51.9267 12.16 52.1733C12.16 52.42 12.0667 52.6467 11.8933 52.82L10.92 53.7933C10.5733 54.14 9.97332 54.1333 9.63332 53.7933L8.99999 53.16L8.57999 53.3467L8.55332 54.2333C8.55999 54.74 8.14665 55.1533 7.64665 55.1533ZM6.42665 54.08H7.48665V53.3533C7.48665 52.92 7.79332 52.4867 8.20665 52.3533L8.57332 52.2C8.67332 52.1467 8.83332 52.1133 8.99999 52.1133C9.29332 52.1133 9.56665 52.2267 9.75999 52.4133L10.2733 52.9267L11.02 52.18L10.5067 51.6667C10.2 51.36 10.1133 50.8333 10.3067 50.4467L10.46 50.08C10.5867 49.7067 11.0133 49.3933 11.4467 49.3933H12.1733V48.34H11.4467C11.0133 48.34 10.58 48.0267 10.4467 47.6133L10.2933 47.2467C10.1133 46.8933 10.2 46.3733 10.5067 46.0667L11.0267 45.5467L10.28 44.8L9.76665 45.3133C9.46665 45.6133 8.93332 45.7 8.54665 45.5133L8.17999 45.36C7.80665 45.2333 7.49332 44.8067 7.49332 44.3733V43.64H6.43332V44.3733C6.43332 44.8067 6.11999 45.24 5.71332 45.3733L5.34665 45.5267C5.24665 45.58 5.08665 45.6133 4.91999 45.6133C4.62665 45.6133 4.35332 45.5 4.15999 45.3067L3.64665 44.7933L2.89999 45.54L3.41332 46.0533C3.71999 46.36 3.80665 46.8867 3.61332 47.2733L3.46665 47.64C3.33999 48.02 2.91332 48.3267 2.47332 48.3267H1.73999V49.38H2.47332C2.90665 49.38 3.33999 49.6933 3.47332 50.1L3.62665 50.4667C3.80665 50.82 3.71999 51.34 3.41332 51.6467L2.89999 52.16L3.64665 52.9067L4.15999 52.3933C4.45999 52.0933 4.99332 52 5.37999 52.1933L5.74665 52.34C6.13332 52.4667 6.43332 52.8867 6.43332 53.3267V54.08H6.42665ZM6.95999 51.2067C5.66665 51.2067 4.61332 50.1533 4.61332 48.86C4.61332 47.5667 5.66665 46.5133 6.95999 46.5133C8.25332 46.5133 9.30665 47.5667 9.30665 48.86C9.30665 50.1533 8.25332 51.2067 6.95999 51.2067ZM6.95999 47.58C6.25332 47.58 5.67999 48.1533 5.67999 48.86C5.67999 49.5667 6.25332 50.14 6.95999 50.14C7.66665 50.14 8.23999 49.5667 8.23999 48.86C8.23332 48.1533 7.65999 47.58 6.95999 47.58Z" fill="#304B79"/>
<path d="M16.24 57.4333H15.48C15.2 57.4333 14.98 57.2067 14.98 56.9333V56.44L14.7467 56.3467L14.3867 56.6867C14.2 56.8733 13.8667 56.8733 13.6733 56.6867L13.1333 56.1467C13.04 56.0533 12.9867 55.9267 12.9867 55.7933C12.9867 55.66 13.04 55.5333 13.1333 55.44L13.48 55.0933L13.38 54.86L12.8867 54.8467C12.6067 54.8467 12.3867 54.62 12.3867 54.3467V53.5867C12.3867 53.3067 12.6133 53.0867 12.8867 53.0867H13.38L13.4733 52.8533L13.1333 52.4933C13.04 52.4 12.9867 52.2733 12.9867 52.14C12.9867 52.0067 13.04 51.88 13.1333 51.7867L13.6667 51.2467C13.8533 51.06 14.1867 51.06 14.38 51.2467L14.7267 51.5933L14.96 51.4933L14.9733 51C14.9733 50.72 15.2 50.5 15.4733 50.5H16.2333C16.5133 50.5 16.74 50.7267 16.74 51V51.4933L16.9733 51.5867L17.3333 51.2467C17.4267 51.1533 17.5533 51.1 17.6867 51.1C17.82 51.1 17.9467 51.1533 18.04 51.2467L18.58 51.7867C18.6733 51.88 18.7267 52.0067 18.7267 52.14C18.7267 52.2733 18.6733 52.4 18.58 52.4933L18.2333 52.84L18.3333 53.0733L18.8267 53.0867C19.1067 53.0867 19.3267 53.3133 19.3267 53.5867V54.3467C19.3267 54.6267 19.1 54.8467 18.8267 54.8467H18.3333L18.24 55.08L18.58 55.44C18.6733 55.5333 18.7267 55.66 18.7267 55.7933C18.7267 55.9267 18.6733 56.0533 18.58 56.1467L18.0467 56.6867C17.8533 56.88 17.5267 56.8733 17.3333 56.6867L16.9867 56.34L16.7533 56.44L16.74 56.9333C16.74 57.2133 16.52 57.4333 16.24 57.4333ZM15.5667 56.8467H16.1533V56.4467C16.1533 56.2067 16.3267 55.9667 16.5533 55.8933L16.7533 55.8067C16.8067 55.78 16.9 55.76 16.9867 55.76C17.1467 55.76 17.3 55.82 17.4067 55.9267L17.6933 56.2133L18.1067 55.8L17.82 55.5133C17.6533 55.3467 17.6067 55.0533 17.7133 54.84L17.7933 54.64C17.86 54.4333 18.1 54.26 18.34 54.26H18.74V53.68H18.34C18.1 53.68 17.86 53.5067 17.7867 53.28L17.7 53.08C17.6 52.8867 17.6467 52.5933 17.82 52.4267L18.1067 52.14L17.6933 51.7267L17.4067 52.0133C17.24 52.18 16.9467 52.2267 16.7333 52.12L16.5333 52.04C16.3267 51.9733 16.1533 51.7333 16.1533 51.4933V51.0867H15.5667V51.4933C15.5667 51.7333 15.3933 51.9733 15.1667 52.0467L14.9667 52.1333C14.9133 52.16 14.82 52.18 14.7333 52.18C14.5733 52.18 14.42 52.12 14.3133 52.0133L14.0267 51.7267L13.6133 52.14L13.9 52.4267C14.0667 52.6 14.1133 52.8867 14.0067 53.1L13.9267 53.3C13.86 53.5067 13.62 53.68 13.38 53.68H12.9733V54.26H13.38C13.62 54.26 13.86 54.4333 13.9333 54.66L14.02 54.8667C14.12 55.06 14.0733 55.3533 13.9 55.52L13.6133 55.8067L14.0267 56.22L14.3133 55.9333C14.48 55.7667 14.7733 55.72 14.9867 55.8267L15.1867 55.9067C15.4 55.98 15.5667 56.2067 15.5667 56.4533V56.8467ZM15.86 55.26C15.1467 55.26 14.56 54.68 14.56 53.96C14.56 53.24 15.14 52.66 15.86 52.66C16.5733 52.66 17.16 53.24 17.16 53.96C17.16 54.68 16.5733 55.26 15.86 55.26ZM15.86 53.2533C15.4733 53.2533 15.1533 53.5733 15.1533 53.96C15.1533 54.3467 15.4667 54.6667 15.86 54.6667C16.2467 54.6667 16.5667 54.3467 16.5667 53.96C16.5667 53.5733 16.2467 53.2533 15.86 53.2533Z" fill="#304B79"/>
<path d="M10.5132 74.4467H9.53991C9.18658 74.4467 8.89325 74.16 8.89325 73.8V73.1734L8.59325 73.0534L8.13325 73.4867C7.89325 73.7267 7.46658 73.7267 7.22658 73.4867L6.53991 72.8C6.41991 72.68 6.35325 72.52 6.35325 72.3467C6.35325 72.1733 6.41991 72.0134 6.53991 71.8934L6.98658 71.4467L6.85325 71.1467L6.22658 71.1267C5.87325 71.1267 5.57991 70.84 5.57991 70.4867V69.5133C5.57991 69.16 5.86658 68.8667 6.22658 68.8667H6.85325L6.97325 68.5667L6.53991 68.1067C6.41991 67.9867 6.35325 67.8267 6.35325 67.6534C6.35325 67.48 6.41991 67.32 6.53991 67.2L7.22658 66.5133C7.46658 66.2733 7.89325 66.2733 8.13991 66.5133L8.58658 66.96L8.87991 66.8267L8.89991 66.2C8.89991 65.8467 9.18658 65.5534 9.54658 65.5534H10.5199C10.8732 65.5534 11.1666 65.84 11.1666 66.2V66.8267L11.4666 66.9467L11.9266 66.5133C12.0466 66.3933 12.2132 66.3267 12.3799 66.3267C12.5532 66.3267 12.7132 66.3933 12.8332 66.5133L13.5199 67.2C13.6399 67.32 13.7066 67.48 13.7066 67.6534C13.7066 67.8267 13.6399 67.9867 13.5199 68.1067L13.0732 68.5534L13.2066 68.8534L13.8332 68.8734C14.1866 68.8734 14.4732 69.16 14.4732 69.52V70.4933C14.4732 70.8467 14.1866 71.1334 13.8332 71.1334H13.1999L13.0799 71.4334L13.5132 71.8934C13.6332 72.0134 13.6999 72.1733 13.6999 72.3467C13.6999 72.52 13.6332 72.68 13.5132 72.8L12.8266 73.4867C12.5799 73.7334 12.1599 73.7267 11.9199 73.4867L11.4732 73.04L11.1799 73.1734L11.1599 73.8C11.1599 74.16 10.8732 74.4467 10.5132 74.4467ZM10.3999 73.6934V73.18C10.3999 72.8733 10.6199 72.5667 10.9066 72.4734L11.1666 72.3667C11.2399 72.3267 11.3532 72.3067 11.4666 72.3067C11.6732 72.3067 11.8666 72.3867 12.0066 72.52L12.3732 72.8867L12.8999 72.36L12.5332 71.9934C12.3199 71.7734 12.2599 71.4067 12.3932 71.1334L12.4999 70.8734C12.5866 70.6067 12.8932 70.3867 13.1999 70.3867H13.7132V69.64H13.1999C12.8932 69.64 12.5866 69.42 12.4932 69.1267L12.3866 68.8667C12.2599 68.62 12.3199 68.2467 12.5399 68.0334L12.9066 67.6667L12.3799 67.14L12.0132 67.5067C11.7999 67.72 11.4199 67.78 11.1532 67.6467L10.8932 67.54C10.6266 67.4534 10.4066 67.1467 10.4066 66.84V66.3267H9.65991V66.84C9.65991 67.1467 9.43991 67.4534 9.14658 67.5467L8.88658 67.6534C8.81325 67.6934 8.69991 67.7134 8.58658 67.7134C8.37991 67.7134 8.18658 67.6334 8.04658 67.5L7.67991 67.1334L7.15325 67.66L7.51991 68.0267C7.73325 68.2467 7.79325 68.6134 7.65991 68.8867L7.55325 69.1467C7.46658 69.4134 7.15991 69.6334 6.85325 69.6334H6.33991V70.38H6.85325C7.15991 70.38 7.46658 70.6 7.55991 70.8867L7.66658 71.1467C7.79325 71.3934 7.73325 71.7667 7.51325 71.98L7.14658 72.3467L7.67325 72.8734L8.03991 72.5067C8.25325 72.2934 8.63325 72.2334 8.89991 72.3667L9.15991 72.4734C9.43325 72.56 9.64658 72.86 9.64658 73.1734V73.6934H10.3999ZM10.0266 71.66C9.11325 71.66 8.36658 70.9134 8.36658 70C8.36658 69.0867 9.11325 68.34 10.0266 68.34C10.9399 68.34 11.6866 69.0867 11.6866 70C11.6866 70.9134 10.9466 71.66 10.0266 71.66ZM10.0266 69.1C9.52658 69.1 9.12658 69.5067 9.12658 70.0067C9.12658 70.5067 9.53325 70.9134 10.0266 70.9134C10.5266 70.9134 10.9332 70.5067 10.9332 70.0067C10.9332 69.5067 10.5266 69.1 10.0266 69.1Z" fill="#304B79"/>
<path d="M5.20658 67.2067C4.96658 67.2067 4.75991 67.02 4.73991 66.78L4.63325 65.18L3.03325 65.1134C2.77991 65.1067 2.58658 64.8867 2.59325 64.6334C2.59991 64.38 2.81325 64.1733 3.07325 64.1933L5.08658 64.2734C5.31991 64.28 5.51325 64.4667 5.52658 64.7L5.65991 66.7133C5.67991 66.9667 5.48658 67.1867 5.23325 67.2C5.21991 67.2067 5.21325 67.2067 5.20658 67.2067Z" fill="#304B79"/>
<path d="M10.0599 78.0334C7.97325 78.06 5.94658 77.2667 4.41325 75.7734C2.88658 74.2867 2.03325 72.3 1.99991 70.1734C1.97325 68.0467 2.77325 66.0334 4.25991 64.5067C4.52658 64.2267 4.97325 64.2267 5.24658 64.4933C5.52658 64.76 5.52658 65.2067 5.25991 65.48C4.03325 66.74 3.37325 68.3934 3.39991 70.1467C3.42658 71.9 4.12658 73.54 5.38658 74.7667C7.00658 76.34 9.28658 76.9667 11.4866 76.4534C11.8666 76.3667 12.2399 76.5933 12.3266 76.9733C12.4132 77.3467 12.1866 77.7267 11.8066 77.8134C11.2266 77.96 10.6466 78.0267 10.0599 78.0334Z" fill="#304B79"/>
<path d="M15.2532 75.7067C15.0732 75.7067 14.8932 75.64 14.7532 75.5067C14.4732 75.24 14.4732 74.7934 14.7399 74.52C17.2666 71.9267 17.2066 67.76 14.6132 65.2334C12.9932 63.66 10.7132 63.0267 8.50658 63.5534C8.13325 63.64 7.75325 63.4067 7.66658 63.0334C7.57991 62.66 7.81325 62.28 8.18658 62.1934C10.8599 61.56 13.6199 62.3267 15.5866 64.2334C18.7332 67.2934 18.7999 72.3467 15.7399 75.5C15.6132 75.6334 15.4332 75.7 15.2532 75.7067Z" fill="#304B79"/>
<path d="M17.0466 75.8534C17.0399 75.8534 17.0266 75.8534 17.0199 75.8534L14.8999 75.7667C14.6532 75.7533 14.4532 75.56 14.4399 75.3134L14.2999 73.2C14.2799 72.9334 14.4866 72.7067 14.7466 72.6867C14.9999 72.6667 15.2466 72.8667 15.2599 73.1333L15.3732 74.8134L17.0599 74.88C17.3266 74.8933 17.5332 75.1133 17.5266 75.38C17.5066 75.6467 17.2999 75.8467 17.0466 75.8534Z" fill="#304B79"/>
<path d="M13.1267 94.62H3.08008C2.30008 94.62 1.66675 93.9866 1.66675 93.2066V86.7866C1.66675 86.0066 2.30008 85.3733 3.08008 85.3733H13.1334C13.9134 85.3733 14.5467 86.0066 14.5467 86.7866V93.2066C14.5401 93.9933 13.9067 94.62 13.1267 94.62ZM3.08008 86.7933V93.2133H13.1334V86.7933H3.08008Z" fill="#304B79"/>
<path d="M17.6267 94.5533C17.5201 94.5533 17.4134 94.5266 17.3134 94.48L13.4534 92.56C13.2134 92.44 13.0601 92.1933 13.0601 91.9266V88.0866C13.0601 87.82 13.2134 87.5733 13.4534 87.4533L17.3134 85.5333C17.5334 85.4266 17.7934 85.44 18.0001 85.5666C18.2067 85.6933 18.3334 85.92 18.3334 86.1666V93.8533C18.3334 94.1 18.2067 94.3266 18.0001 94.4533C17.8867 94.5133 17.7601 94.5533 17.6267 94.5533ZM14.4734 91.4866L16.9267 92.7066V87.3L14.4734 88.52V91.4866Z" fill="#304B79"/>
<path d="M17.3334 104.493C17.3334 102.553 12.7267 102.033 10.0001 102.033C7.27341 102.033 2.66675 102.553 2.66675 104.493C2.66675 104.52 2.67342 104.547 2.68008 104.573C2.68008 104.593 2.66675 104.607 2.66675 104.627V108.387C2.66675 110.14 7.27341 110.613 10.0001 110.613C12.7267 110.613 17.3334 110.147 17.3334 108.387V104.627C17.3334 104.607 17.3267 104.593 17.3201 104.573C17.3267 104.54 17.3334 104.52 17.3334 104.493ZM10.0001 103.307C13.5601 103.307 15.7534 104.04 16.0934 104.493C15.7534 104.94 13.5601 105.68 10.0001 105.68C6.44008 105.68 4.24675 104.947 3.90675 104.493C4.24675 104.04 6.44008 103.307 10.0001 103.307ZM10.0001 109.453C6.30675 109.453 4.08008 108.74 3.88008 108.38V105.947C5.43341 106.707 8.14675 106.947 10.0001 106.947C11.8467 106.947 14.5667 106.707 16.1201 105.947L16.1267 108.333C15.9201 108.74 13.6934 109.453 10.0001 109.453Z" fill="#304B79"/>
<path d="M16.7267 110.547H16.1201V111.82L16.1267 115.46C15.9201 115.9 13.6934 116.693 10.0001 116.693C6.30675 116.693 4.08008 115.9 3.88008 115.507V110.54H3.27341C2.94008 110.54 2.66675 110.827 2.66675 111.18V115.507C2.66675 117.447 7.27341 117.967 10.0001 117.967C12.7267 117.967 17.3334 117.447 17.3334 115.507V111.18C17.3334 110.833 17.0601 110.547 16.7267 110.547Z" fill="#304B79"/>
<path d="M16.7267 106.987H16.1201V108.26L16.1267 111.9C15.9201 112.34 13.6934 113.133 10.0001 113.133C6.30675 113.133 4.08008 112.34 3.88008 111.947V106.98H3.27341C2.94008 106.98 2.66675 107.267 2.66675 107.62V111.947C2.66675 113.887 7.27341 114.407 10.0001 114.407C12.7267 114.407 17.3334 113.887 17.3334 111.947V107.62C17.3334 107.273 17.0601 106.987 16.7267 106.987Z" fill="#304B79"/>
<path d="M10 138.007C8.3 138.007 6.68667 136.667 4.12 134.033C3.42667 133.307 3.00667 132.04 3 131.233V125.053C3 124.093 3.69333 123.153 4.62 122.86C8.08667 121.713 11.9067 121.707 15.3933 122.86C16.2933 123.147 17 124.107 17 125.047V131.227C16.9933 132.04 16.58 133.307 15.8867 134.027C13.3133 136.667 11.7 138.007 10 138.007ZM10 123.247C8.3 123.247 6.62 123.52 5 124.053C4.58667 124.18 4.24667 124.64 4.24667 125.053V131.233C4.24667 131.767 4.58 132.713 5.01333 133.167C7.28 135.493 8.74667 136.753 9.99333 136.753C11.24 136.753 12.7067 135.493 14.98 133.16C15.4133 132.713 15.74 131.767 15.74 131.227V125.053C15.74 124.653 15.3867 124.18 15 124.053C13.38 123.52 11.7 123.247 10 123.247Z" fill="#304B79"/>
<path d="M10 135.813C9 135.813 7.32 134.18 5.68667 132.507C5.44667 132.253 5.19333 131.547 5.19333 131.227V125.207C5.19333 125.073 5.28 124.953 5.40667 124.907C8.40667 123.947 11.6267 123.947 14.5867 124.907C14.7133 124.947 14.8067 125.067 14.8067 125.207V131.233C14.8 131.56 14.5467 132.26 14.3 132.52C12.6733 134.193 11 135.813 10 135.813ZM5.82 125.44V131.22C5.82 131.407 6.02667 131.953 6.14 132.073C7.04667 133.007 9.18 135.193 10 135.193C10.8267 135.193 12.94 133.02 13.8467 132.093C13.98 131.953 14.18 131.407 14.1867 131.227V125.44C11.4733 124.607 8.55333 124.607 5.82 125.44Z" fill="#304B79"/>
<path d="M17.0011 156.079H2.33235C1.96755 156.079 1.66675 155.778 1.66675 155.414V150.223C1.66675 149.852 1.96755 149.558 2.33235 149.558H17.0011C17.3659 149.558 17.6667 149.858 17.6667 150.223V155.414C17.6667 155.785 17.3659 156.079 17.0011 156.079ZM2.99795 154.748H16.3355V150.895H2.99795V154.748Z" fill="#304B79"/>
<path d="M4.79635 152.034C4.36115 152.034 4.00915 152.386 4.00915 152.822C4.00915 153.257 4.36115 153.609 4.79635 153.609C5.23155 153.609 5.58355 153.257 5.58355 152.822C5.57715 152.386 5.22515 152.034 4.79635 152.034Z" fill="#304B79"/>
<path d="M7.34994 152.034C6.91474 152.034 6.56274 152.386 6.56274 152.822C6.56274 153.257 6.91474 153.609 7.34994 153.609C7.78514 153.609 8.13714 153.257 8.13714 152.822C8.13074 152.386 7.77874 152.034 7.34994 152.034Z" fill="#304B79"/>
<path d="M9.89715 152.034C9.46195 152.034 9.10995 152.386 9.10995 152.822C9.10995 153.257 9.46195 153.609 9.89715 153.609C10.3324 153.609 10.6844 153.257 10.6844 152.822C10.6844 152.386 10.3324 152.034 9.89715 152.034Z" fill="#304B79"/>
<path d="M17.0011 150.582H2.33235C1.96755 150.582 1.66675 150.281 1.66675 149.916V144.726C1.66675 144.354 1.96755 144.06 2.33235 144.06H17.0011C17.3659 144.06 17.6667 144.361 17.6667 144.726V149.916C17.6667 150.287 17.3659 150.582 17.0011 150.582ZM2.99795 149.25H16.3355V145.398H2.99795V149.25Z" fill="#304B79"/>
<path d="M4.79635 146.537C4.36115 146.537 4.00915 146.889 4.00915 147.324C4.00915 147.759 4.36115 148.111 4.79635 148.111C5.23155 148.111 5.58355 147.759 5.58355 147.324C5.57715 146.889 5.22515 146.537 4.79635 146.537Z" fill="#304B79"/>
<path d="M7.34994 146.537C6.91474 146.537 6.56274 146.889 6.56274 147.324C6.56274 147.759 6.91474 148.111 7.34994 148.111C7.78514 148.111 8.13714 147.759 8.13714 147.324C8.13074 146.889 7.77874 146.537 7.34994 146.537Z" fill="#304B79"/>
<path d="M9.89715 146.537C9.46195 146.537 9.10995 146.889 9.10995 147.324C9.10995 147.759 9.46195 148.111 9.89715 148.111C10.3324 148.111 10.6844 147.759 10.6844 147.324C10.6844 146.889 10.3324 146.537 9.89715 146.537Z" fill="#304B79"/>
<path d="M11.1998 176.673V175.4C13.6932 175.4 15.8465 173.713 16.4398 171.293L17.6798 171.6C16.9465 174.587 14.2798 176.673 11.1998 176.673Z" fill="#304B79"/>
<path d="M11.1998 164.607V163.333C14.1798 163.333 16.8265 165.34 17.6265 168.207L16.3998 168.547C15.7532 166.227 13.6132 164.607 11.1998 164.607Z" fill="#304B79"/>
<path d="M8.10649 166.04V162.007H12.1398V166.04H8.10649ZM9.37983 163.28V164.767H10.8665V163.28H9.37983Z" fill="#304B79"/>
<path d="M8.10649 178V173.967H12.1398V178H8.10649ZM9.37983 175.24V176.727H10.8665V175.24H9.37983Z" fill="#304B79"/>
<path d="M15.0598 172.02V167.987H19.0932V172.02H15.0598ZM16.3332 169.26V170.747H17.8198V169.26H16.3332Z" fill="#304B79"/>
<path d="M8.79983 176.673V175.4C6.3065 175.4 4.15316 173.713 3.55983 171.293L2.31983 171.6C3.05316 174.587 5.71983 176.673 8.79983 176.673Z" fill="#304B79"/>
<path d="M8.79983 164.607V163.333C5.81983 163.333 3.17316 165.34 2.37316 168.207L3.59983 168.547C4.24649 166.227 6.3865 164.607 8.79983 164.607Z" fill="#304B79"/>
<path d="M4.93983 172.02H0.906494V167.987H4.93983V172.02ZM3.66649 169.26H2.17983V170.747H3.66649V169.26Z" fill="#304B79"/>
<path d="M10.0267 191.907C9.92 191.907 9.81333 191.88 9.72 191.827L2.32667 187.687C2.12667 187.573 2 187.36 2 187.133C2 186.907 2.12667 186.693 2.32667 186.58L9.66667 182.467C9.86 182.36 10.0933 182.36 10.2867 182.467L17.68 186.607C17.88 186.72 18.0067 186.933 18.0067 187.16C18.0067 187.387 17.88 187.6 17.68 187.713L10.34 191.827C10.24 191.88 10.1333 191.907 10.0267 191.907ZM3.93333 187.133L10.0267 190.547L16.0667 187.16L9.97333 183.747L3.93333 187.133Z" fill="#304B79"/>
<path d="M10.0267 194.767C9.92 194.767 9.81333 194.74 9.72 194.687L2.32667 190.547C2.02 190.373 1.91333 189.987 2.08667 189.68C2.25333 189.373 2.64667 189.267 2.94667 189.433L10.0267 193.4L17.0533 189.46C17.36 189.287 17.7467 189.4 17.92 189.7C18.0933 190.007 17.98 190.393 17.68 190.567L10.34 194.68C10.24 194.733 10.1333 194.767 10.0267 194.767Z" fill="#304B79"/>
<path d="M10.0267 197.62C9.92 197.62 9.81333 197.593 9.72 197.54L2.32667 193.4C2.02 193.227 1.91333 192.84 2.08667 192.533C2.25333 192.227 2.64667 192.12 2.94667 192.287L10.0267 196.253L17.0533 192.313C17.36 192.14 17.7467 192.253 17.92 192.553C18.0933 192.86 17.98 193.247 17.68 193.42L10.34 197.533C10.24 197.593 10.1333 197.62 10.0267 197.62Z" fill="#304B79"/>
<path fill-rule="evenodd" clip-rule="evenodd" d="M3.89419 216.667H16.1057C16.4198 216.667 16.6666 216.42 16.6666 216.106V203.894C16.6666 203.586 16.4142 203.333 16.1057 203.333H3.89419C3.58567 203.333 3.33325 203.586 3.33325 203.894V216.106C3.33325 216.414 3.58567 216.667 3.89419 216.667ZM15.5447 215.545H4.45512V207.445H15.5447V215.545ZM4.45512 204.455V206.884H15.5447V204.455H4.45512ZM6.34093 209.242C6.41223 209.185 6.48695 209.133 6.56123 209.084L7.1524 209.46C7.33668 209.377 7.52732 209.324 7.72088 209.297L8.03073 208.667C8.21298 208.67 8.39346 208.688 8.56956 208.728L8.72877 209.412C8.91122 209.482 9.08669 209.578 9.2457 209.698L9.91007 209.47C9.97146 209.534 10.0324 209.602 10.089 209.673C10.1457 209.744 10.198 209.819 10.2464 209.893L9.87378 210.489C9.95673 210.673 10.0095 210.863 10.0364 211.057L10.6666 211.366C10.6655 211.547 10.6429 211.727 10.6048 211.905L9.92303 212.063C9.85303 212.245 9.75849 212.419 9.63599 212.58L9.86421 213.244C9.80022 213.306 9.73236 213.367 9.66107 213.423C9.58977 213.48 9.51505 213.532 9.44076 213.581L8.84527 213.208C8.661 213.292 8.47036 213.344 8.27679 213.371L7.96911 214C7.78685 213.997 7.60854 213.977 7.43028 213.939L7.27107 213.255C7.08862 213.185 6.91315 213.088 6.75414 212.968L6.08977 213.197C6.02837 213.133 5.96742 213.065 5.91079 212.994C5.85416 212.923 5.80357 212.85 5.75342 212.774L6.12606 212.178C6.0431 211.994 5.99034 211.803 5.96343 211.61L5.33325 211.3C5.33431 211.12 5.35691 210.94 5.39502 210.762L6.07896 210.602C6.14897 210.42 6.24351 210.246 6.36601 210.085L6.13779 209.421C6.20178 209.359 6.26964 209.298 6.34093 209.242ZM8.77015 210.327C8.80527 210.354 8.83921 210.383 8.87179 210.414C8.91413 210.454 8.9542 210.498 8.99157 210.545C9.02894 210.592 9.06242 210.641 9.09205 210.691C9.11533 210.731 9.13623 210.771 9.15478 210.812C9.20603 210.926 9.23932 211.045 9.25511 211.166C9.2611 211.211 9.26457 211.257 9.26555 211.303C9.26805 211.419 9.25446 211.536 9.22517 211.649C9.21374 211.693 9.19991 211.737 9.18371 211.779C9.14077 211.893 9.08118 212.001 9.0054 212.1C8.97763 212.136 8.94768 212.171 8.91558 212.204C8.87628 212.245 8.83374 212.284 8.78804 212.32C8.7409 212.358 8.69192 212.391 8.64148 212.421C8.60149 212.445 8.56059 212.466 8.51897 212.485C8.40564 212.535 8.28698 212.569 8.16691 212.584C8.12142 212.59 8.07573 212.594 8.03005 212.595C7.91518 212.597 7.80038 212.584 7.68904 212.556C7.64367 212.544 7.59887 212.53 7.55488 212.514C7.44081 212.471 7.33215 212.411 7.23292 212.335C7.1977 212.308 7.16367 212.279 7.131 212.248C7.08919 212.208 7.04957 212.165 7.01261 212.118C6.97587 212.072 6.9429 212.024 6.91364 211.974C6.88998 211.935 6.86875 211.894 6.84993 211.852C6.79876 211.739 6.76541 211.62 6.74941 211.5C6.74322 211.454 6.73963 211.407 6.73862 211.361C6.73611 211.246 6.74928 211.131 6.77772 211.019C6.7892 210.974 6.80317 210.93 6.81961 210.886C6.86231 210.773 6.92163 210.665 6.99713 210.566C7.02313 210.532 7.05106 210.499 7.08088 210.467C7.12231 210.423 7.16745 210.382 7.21616 210.343C7.26257 210.306 7.31078 210.273 7.36039 210.243C7.39876 210.221 7.43798 210.2 7.47788 210.182C7.59119 210.13 7.70994 210.096 7.83018 210.08C7.87631 210.073 7.92267 210.07 7.96901 210.069C8.08495 210.065 8.20086 210.078 8.31326 210.107C8.35837 210.118 8.4029 210.132 8.44665 210.148C8.56126 210.191 8.67045 210.251 8.77015 210.327ZM7.87793 211.175C7.96358 211.107 8.08912 211.121 8.15805 211.208C8.22697 211.294 8.21198 211.42 8.12635 211.488C8.0407 211.556 7.91514 211.542 7.84621 211.456C7.77729 211.369 7.7923 211.243 7.87793 211.175ZM8.54207 210.902C8.77895 211.2 8.72924 211.634 8.43102 211.871C8.1328 212.108 7.69904 212.059 7.46217 211.761C7.22534 211.463 7.27509 211.029 7.57326 210.792C7.87147 210.555 8.30519 210.604 8.54207 210.902ZM5.17875 205.689C5.17875 205.297 5.49287 204.982 5.88553 204.982C6.27257 204.982 6.59231 205.297 6.59231 205.689C6.59231 206.082 6.27818 206.396 5.88553 206.396C5.49287 206.396 5.17875 206.082 5.17875 205.689ZM7.79826 204.982C7.40561 204.982 7.09148 205.297 7.09148 205.689C7.09148 206.082 7.40561 206.396 7.79826 206.396C8.19091 206.396 8.50504 206.082 8.50504 205.689C8.50504 205.297 8.18531 204.982 7.79826 204.982ZM9.00421 205.689C9.00421 205.297 9.31834 204.982 9.711 204.982C10.1036 204.982 10.4178 205.297 10.4178 205.689C10.4178 206.082 10.1036 206.396 9.711 206.396C9.31834 206.396 9.00421 206.082 9.00421 205.689ZM14.6666 211.333H11.3333V210.333H14.6666V211.333ZM11.3333 210H14.6666V209H11.3333V210ZM14.6666 212.667H11.3333V211.667H14.6666V212.667ZM11.3333 214H14.6666V213H11.3333V214Z" fill="#304B79"/>
<path d="M15.4533 236.533H4.54659C3.87992 236.533 3.33325 235.987 3.33325 235.32V228.253C3.33325 227.587 3.87992 227.04 4.54659 227.04H15.4533C16.1199 227.04 16.6666 227.587 16.6666 228.253V235.327C16.6666 235.993 16.1199 236.533 15.4533 236.533ZM4.54659 228.253V235.327H15.4533V228.253H4.54659Z" fill="#304B79"/>
<path d="M13.8866 228.1C13.5533 228.1 13.2799 227.827 13.2799 227.493V225.827C13.2799 224.013 11.8066 222.547 9.99992 222.547C8.18658 222.547 6.71992 224.02 6.71992 225.827V227.493C6.71992 227.827 6.44659 228.1 6.11325 228.1C5.77992 228.1 5.50659 227.827 5.50659 227.493V225.827C5.50659 223.347 7.51992 221.333 9.99992 221.333C12.4799 221.333 14.4933 223.347 14.4933 225.827V227.493C14.4933 227.833 14.2266 228.1 13.8866 228.1Z" fill="#304B79"/>
<path d="M9.99992 229.42C9.29992 229.42 8.73992 229.987 8.73992 230.68C8.73992 231.153 9.00659 231.567 9.39325 231.78V233.807H10.6066V231.78C10.9999 231.567 11.2666 231.153 11.2666 230.68C11.2599 229.98 10.6999 229.42 9.99992 229.42Z" fill="#304B79"/>
<path d="M10 258C8.3 258 6.68667 256.667 4.12 254.033C3.42667 253.307 3.00667 252.04 3 251.233V245.053C3 244.093 3.69333 243.153 4.62 242.86C8.08667 241.713 11.9067 241.707 15.3867 242.86C16.2867 243.147 16.9933 244.107 16.9933 245.047V251.22C16.9867 252.033 16.5733 253.3 15.88 254.02C13.3133 256.66 11.7 258 10 258ZM10 243.247C8.3 243.247 6.62 243.52 5.00667 244.053C4.59333 244.18 4.25333 244.64 4.25333 245.053V251.233C4.25333 251.767 4.58667 252.713 5.02 253.167C7.28667 255.493 8.75333 256.753 10 256.753C11.2467 256.753 12.7133 255.493 14.9867 253.16C15.42 252.713 15.7467 251.767 15.7467 251.227V245.053C15.7467 244.653 15.3933 244.18 15.0067 244.053C13.38 243.52 11.7 243.247 10 243.247Z" fill="#304B79"/>
<path d="M10 255.807C9 255.807 7.32 254.173 5.69333 252.5C5.45333 252.247 5.2 251.54 5.2 251.22V245.207C5.2 245.073 5.28667 244.953 5.41333 244.907C8.40667 243.947 11.6267 243.947 14.5933 244.907C14.72 244.947 14.8133 245.067 14.8133 245.207V251.227C14.8067 251.553 14.5533 252.253 14.3067 252.513C12.6667 254.187 11 255.807 10 255.807ZM5.82 245.433V251.213C5.82 251.4 6.02667 251.947 6.14 252.067C7.04667 253 9.17333 255.18 10 255.18C10.8267 255.18 12.94 253.007 13.8467 252.08C13.98 251.94 14.18 251.393 14.1867 251.22V245.433C11.4733 244.607 8.55333 244.607 5.82 245.433Z" fill="#304B79"/>
<path d="M9.38 251.553C9.20667 251.553 9.04667 251.487 8.92667 251.36L7.9 250.28C7.66 250.027 7.67333 249.633 7.92 249.393C8.17333 249.153 8.56667 249.167 8.80667 249.413L9.34667 249.98L11.16 247.767C11.38 247.5 11.7733 247.46 12.04 247.68C12.3067 247.9 12.3467 248.293 12.1267 248.56L9.86 251.327C9.74667 251.467 9.58 251.547 9.4 251.553C9.39333 251.553 9.38667 251.553 9.38 251.553Z" fill="#304B79"/>
<path d="M8.64682 268.053C7.16016 268.053 5.94683 266.693 5.94683 265.027C5.94683 263.353 7.16016 262 8.64682 262C10.1335 262 11.3468 263.36 11.3468 265.027C11.3468 266.7 10.1335 268.053 8.64682 268.053ZM8.64682 263.127C7.78016 263.127 7.07349 263.98 7.07349 265.027C7.07349 266.073 7.78016 266.927 8.64682 266.927C9.51349 266.927 10.2202 266.073 10.2202 265.027C10.2202 263.98 9.51349 263.127 8.64682 263.127Z" fill="#304B79"/>
<path d="M12.7735 278C10.8468 278 9.28016 276.433 9.28016 274.507C9.28016 272.58 10.8468 271.013 12.7735 271.013C14.7002 271.013 16.2668 272.58 16.2668 274.507C16.2668 276.433 14.7002 278 12.7735 278ZM12.7735 271.573C11.1602 271.573 9.84016 272.887 9.84016 274.507C9.84016 276.127 11.1535 277.44 12.7735 277.44C14.3935 277.44 15.7068 276.127 15.7068 274.507C15.7068 272.887 14.3868 271.573 12.7735 271.573Z" fill="#304B79"/>
<path d="M4.48016 275.027C4.18682 275.027 3.94016 274.8 3.92016 274.5L3.74016 271.84C3.67349 270.86 4.43349 269.733 5.40016 269.38C7.46682 268.64 9.74016 268.64 11.8002 269.38C12.5335 269.647 13.1535 270.34 13.3802 271.14L12.3002 271.447C12.1735 270.993 11.8068 270.58 11.4202 270.44C9.60682 269.793 7.60682 269.793 5.78682 270.44C5.24682 270.64 4.84016 271.333 4.86682 271.767L5.01349 273.9H9.56683V275.027H4.48016Z" fill="#304B79"/>
<path d="M12.2068 276.527C12.0535 276.527 11.9068 276.467 11.8002 276.353L10.8735 275.387C10.6602 275.16 10.6668 274.807 10.8935 274.593C11.1202 274.38 11.4735 274.387 11.6868 274.613L12.1735 275.12L13.8068 273.127C14.0068 272.887 14.3602 272.853 14.6002 273.047C14.8402 273.247 14.8735 273.6 14.6802 273.84L12.6402 276.327C12.5402 276.453 12.3868 276.527 12.2268 276.533C12.2202 276.527 12.2135 276.527 12.2068 276.527Z" fill="#304B79"/>
<path d="M4.2999 295.62C4.17323 295.62 4.06657 295.513 4.06657 295.387V292.24C4.06657 292.113 4.17323 292.007 4.2999 292.007H9.61323C9.88657 291.547 10.2132 291.12 10.5999 290.753H10.2732V289.353H13.2866C13.7199 289.247 14.1799 289.18 14.6466 289.18C15.0932 289.18 15.5332 289.24 15.9466 289.333C16.6932 289.26 17.2866 288.633 17.2866 287.86V284.713C17.2866 283.893 16.6199 283.227 15.7999 283.227H4.2999C3.4799 283.227 2.81323 283.893 2.81323 284.713V287.86C2.81323 288.68 3.4799 289.347 4.2999 289.347H9.65323V290.747H4.2999C3.4799 290.747 2.81323 291.413 2.81323 292.233V295.38C2.81323 296.2 3.4799 296.867 4.2999 296.867H9.9999C9.84657 296.467 9.6599 296.053 9.5999 295.613H4.2999V295.62ZM4.2999 288.107C4.17323 288.107 4.06657 288 4.06657 287.873V284.727C4.06657 284.6 4.17323 284.493 4.2999 284.493H15.7999C15.9266 284.493 16.0332 284.6 16.0332 284.727V287.873C16.0332 288 15.9266 288.107 15.7999 288.107H4.2999Z" fill="#304B79"/>
<path d="M14.5399 285.987H12.0332C11.8599 285.987 11.7199 286.127 11.7199 286.3C11.7199 286.473 11.8599 286.613 12.0332 286.613H14.5399C14.7132 286.613 14.8532 286.473 14.8532 286.3C14.8532 286.127 14.7132 285.987 14.5399 285.987Z" fill="#304B79"/>
<path d="M14.4066 298.567C11.9799 298.567 9.9999 296.587 9.9999 294.16C9.9999 291.733 11.9732 289.753 14.4066 289.753C16.8399 289.753 18.8132 291.733 18.8132 294.16C18.8132 296.587 16.8332 298.567 14.4066 298.567ZM14.4066 290.46C12.3666 290.46 10.7132 292.12 10.7132 294.16C10.7132 296.2 12.3732 297.86 14.4066 297.86C16.4466 297.86 18.1066 296.2 18.1066 294.16C18.0999 292.12 16.4399 290.46 14.4066 290.46Z" fill="#304B79"/>
<path d="M13.6932 296.713C13.4999 296.713 13.3132 296.633 13.1799 296.493L12.0132 295.273C11.7399 294.987 11.7532 294.54 12.0399 294.267C12.3266 294 12.7732 294.007 13.0466 294.293L13.6599 294.933L15.7199 292.42C15.9666 292.12 16.4132 292.073 16.7199 292.32C17.0266 292.567 17.0666 293.013 16.8199 293.32L14.2466 296.453C14.1199 296.613 13.9266 296.707 13.7266 296.713C13.7066 296.713 13.6999 296.713 13.6932 296.713Z" fill="#304B79"/>
<path d="M9.41325 312.06C9.38658 312.067 9.35991 312.073 9.33991 312.087L8.97991 312.233C8.57991 312.367 8.27991 312.787 8.27991 313.207V313.913H7.25325V313.207C7.25325 312.78 6.95991 312.373 6.58658 312.247L6.23325 312.1C5.85991 311.913 5.33991 312 5.05325 312.293L4.55325 312.793L3.82658 312.067L4.32658 311.567C4.61991 311.267 4.70658 310.76 4.53325 310.42L4.38658 310.06C4.25325 309.66 3.83325 309.36 3.41325 309.36H2.70658V308.333H3.41325C3.83325 308.333 4.25325 308.033 4.37325 307.667L4.51991 307.313C4.70658 306.94 4.62658 306.433 4.32658 306.133L3.82658 305.633L4.55325 304.907L5.05325 305.407C5.23991 305.593 5.50658 305.7 5.79325 305.7C5.95325 305.7 6.10658 305.667 6.20658 305.613L6.55991 305.467C6.95991 305.333 7.25991 304.913 7.25991 304.493V303.787H8.28658V304.493C8.28658 304.913 8.58658 305.333 8.95325 305.453L9.30658 305.6C9.67991 305.787 10.1999 305.7 10.4866 305.407L10.9866 304.907L11.7132 305.633L11.2132 306.133C10.9199 306.433 10.8332 306.94 11.0066 307.28L11.1532 307.633C11.2866 308.033 11.7066 308.333 12.1266 308.333H12.8332V308.42C13.1666 308.307 13.5132 308.22 13.8732 308.173C13.8732 307.687 13.4732 307.293 12.9932 307.293L12.1266 307.267L11.9466 306.86L12.5532 306.253C12.7199 306.087 12.8132 305.867 12.8132 305.627C12.8132 305.387 12.7199 305.167 12.5532 305L11.6066 304.053C11.4399 303.887 11.2199 303.793 10.9799 303.793C10.7466 303.793 10.5199 303.887 10.3532 304.053L9.72658 304.647L9.31325 304.487V303.62C9.31325 303.133 8.91991 302.733 8.42658 302.733H7.09325C6.60658 302.733 6.20658 303.127 6.20658 303.62L6.17991 304.48L5.77325 304.66L5.16658 304.047C4.83325 303.713 4.24658 303.713 3.91991 304.047L2.97991 304.993C2.81325 305.16 2.71991 305.38 2.71991 305.62C2.71991 305.86 2.81325 306.08 2.97991 306.247L3.57325 306.873L3.41325 307.287H2.54658C2.05991 307.287 1.65991 307.68 1.65991 308.173V309.507C1.65991 309.993 2.05325 310.387 2.54658 310.387L3.41325 310.413L3.59325 310.82L2.98658 311.427C2.81991 311.593 2.72658 311.813 2.72658 312.053C2.72658 312.293 2.81991 312.513 2.98658 312.68L3.93325 313.627C4.26658 313.96 4.84658 313.96 5.17991 313.627L5.80658 313.033L6.21991 313.193V314.053C6.21991 314.54 6.61325 314.94 7.10658 314.94H8.43991C8.84658 314.94 9.17991 314.667 9.28658 314.293C9.24658 314.027 9.21991 313.753 9.21991 313.48C9.21325 313 9.28658 312.52 9.41325 312.06Z" fill="#304B79"/>
<path d="M7.76658 306.573C6.51325 306.573 5.48658 307.593 5.48658 308.853C5.48658 310.113 6.50658 311.133 7.76658 311.133C9.02658 311.133 10.0466 310.113 10.0466 308.853C10.0466 307.593 9.02658 306.573 7.76658 306.573ZM7.76658 310.093C7.07991 310.093 6.52658 309.54 6.52658 308.853C6.52658 308.167 7.07991 307.613 7.76658 307.613C8.45325 307.613 9.00658 308.167 9.00658 308.853C9.00658 309.54 8.45325 310.093 7.76658 310.093Z" fill="#304B79"/>
<path d="M14.0599 317.247C11.6999 317.247 9.78658 315.327 9.78658 312.973C9.78658 310.613 11.7066 308.7 14.0599 308.7C16.4199 308.7 18.3332 310.62 18.3332 312.973C18.3332 315.333 16.4132 317.247 14.0599 317.247ZM14.0599 309.387C12.0799 309.387 10.4732 310.993 10.4732 312.973C10.4732 314.953 12.0799 316.56 14.0599 316.56C16.0399 316.56 17.6466 314.953 17.6466 312.973C17.6466 310.993 16.0332 309.387 14.0599 309.387Z" fill="#304B79"/>
<path d="M13.3666 315.447C13.1799 315.447 12.9999 315.373 12.8666 315.233L11.7399 314.047C11.4799 313.773 11.4866 313.333 11.7666 313.073C12.0399 312.813 12.4799 312.82 12.7399 313.1L13.3332 313.72L15.3332 311.28C15.5732 310.987 16.0066 310.94 16.2999 311.187C16.5932 311.427 16.6399 311.86 16.3932 312.153L13.8999 315.193C13.7732 315.347 13.5866 315.44 13.3932 315.447C13.3799 315.447 13.3732 315.447 13.3666 315.447Z" fill="#304B79"/>
<path d="M14.4467 338H5.55336C5.20669 338 4.92002 337.72 4.92002 337.367V335.347C4.92002 335 5.20002 334.713 5.55336 334.713C5.90669 334.713 6.18669 334.993 6.18669 335.347V336.733H13.8134V335.347C13.8134 335 14.0934 334.713 14.4467 334.713C14.8 334.713 15.08 334.993 15.08 335.347V337.367C15.0734 337.72 14.7934 338 14.4467 338Z" fill="#304B79"/>
<path d="M13.4534 330.913L13.0334 330.747C12.4334 330.513 11.96 330.327 11.8667 330.193C11.7934 330.087 11.82 329.6 11.84 329.127C11.9 328.087 12.1134 327.273 12.3067 326.56C12.48 325.907 12.6467 325.293 12.6467 324.647C12.6467 323.187 11.46 321.993 9.99336 321.993C8.53336 321.993 7.34002 323.18 7.34002 324.647C7.34002 325.293 7.50669 325.907 7.68002 326.56C7.87336 327.273 8.09336 328.087 8.14669 329.127C8.17336 329.6 8.20002 330.087 8.12002 330.193C8.02669 330.32 7.55336 330.507 6.95336 330.747L6.53336 330.913C5.17336 331.44 4.10669 331.86 4.10669 333.327V335.347C4.10669 335.693 4.38669 335.98 4.74002 335.98H15.2467C15.5934 335.98 15.88 335.7 15.88 335.347V333.327C15.8867 331.86 14.8134 331.447 13.4534 330.913ZM14.62 334.713H5.38002V333.327C5.38002 332.793 5.56002 332.653 7.00669 332.093L7.43336 331.927C9.26669 331.207 9.52669 330.973 9.42002 329.067C9.35336 327.893 9.10669 326.98 8.91336 326.24C8.75336 325.647 8.61336 325.133 8.61336 324.653C8.61336 323.887 9.23336 323.267 10 323.267C10.7667 323.267 11.3867 323.887 11.3867 324.653C11.3867 325.133 11.2467 325.647 11.0867 326.24C10.8867 326.98 10.64 327.893 10.58 329.067C10.4734 330.973 10.7334 331.207 12.5667 331.927L12.9934 332.093C14.4334 332.653 14.62 332.793 14.62 333.327V334.713Z" fill="#304B79"/>
<path d="M41.36 17.5333H28.64C27.7333 17.5333 27 16.7933 27 15.8933V12.42C27 11.5133 27.74 10.78 28.64 10.78H41.3533C42.26 10.78 42.9933 11.52 42.9933 12.42V15.8933C43 16.8 42.26 17.5333 41.36 17.5333ZM28.64 12.16C28.5 12.16 28.38 12.2733 28.38 12.42V15.8933C28.38 16.0333 28.4933 16.1533 28.64 16.1533H41.3533C41.4933 16.1533 41.6133 16.04 41.6133 15.8933V12.42C41.6133 12.28 41.5 12.16 41.3533 12.16H28.64Z" fill="#A4A4A4"/>
<path d="M41.36 9.22666H28.64C27.7333 9.22666 27 8.48666 27 7.58666V4.11333C27 3.20666 27.74 2.47333 28.64 2.47333H41.3533C42.26 2.47333 42.9933 3.21333 42.9933 4.11333V7.58666C43 8.48666 42.26 9.22666 41.36 9.22666ZM28.64 3.84666C28.5 3.84666 28.38 3.95999 28.38 4.10666V7.57999C28.38 7.72 28.4933 7.83999 28.64 7.83999H41.3533C41.4933 7.83999 41.6133 7.72666 41.6133 7.57999V4.10666C41.6133 3.96666 41.5 3.84666 41.3533 3.84666H28.64Z" fill="#A4A4A4"/>
<path d="M39.96 6.19333H37.1933C37 6.19333 36.8467 6.03999 36.8467 5.84666C36.8467 5.65333 37 5.49999 37.1933 5.49999H39.96C40.1533 5.49999 40.3067 5.65333 40.3067 5.84666C40.3067 6.03999 40.1533 6.19333 39.96 6.19333Z" fill="#A4A4A4"/>
<path d="M39.96 14.4133H37.1933C37 14.4133 36.8467 14.26 36.8467 14.0667C36.8467 13.8733 37 13.72 37.1933 13.72H39.96C40.1533 13.72 40.3067 13.8733 40.3067 14.0667C40.3067 14.26 40.1533 14.4133 39.96 14.4133Z" fill="#A4A4A4"/>
<path d="M35.2467 9.19333V11.1C35.2467 11.2333 35.0933 11.34 34.9 11.34C34.7067 11.34 34.5533 11.2333 34.5533 11.1V9.19333C34.5533 9.06 34.7067 8.95333 34.9 8.95333C35.0933 8.95333 35.2467 9.06 35.2467 9.19333Z" fill="#A4A4A4"/>
<path d="M32.3132 29.5533C30.6132 29.5533 29.2332 28.0067 29.2332 26.1133C29.2332 24.2133 30.6132 22.6667 32.3132 22.6667C34.0132 22.6667 35.3932 24.2133 35.3932 26.1133C35.3932 28.0133 34.0065 29.5533 32.3132 29.5533ZM32.3132 24.0867C31.3999 24.0867 30.6532 24.9933 30.6532 26.1133C30.6532 27.2267 31.3999 28.14 32.3132 28.14C33.2265 28.14 33.9732 27.2333 33.9732 26.1133C33.9732 24.9933 33.2265 24.0867 32.3132 24.0867Z" fill="#A4A4A4"/>
<path d="M36.8199 37.3333H27.6865C27.3132 37.3333 27.0065 37.0467 26.9799 36.6733L26.7799 33.7267C26.6999 32.5867 27.5532 31.3267 28.6732 30.9133C30.9865 30.0867 33.5332 30.0867 35.8265 30.9133C36.9599 31.3267 37.8065 32.5933 37.7265 33.7333L37.5265 36.68C37.4999 37.0467 37.1932 37.3333 36.8199 37.3333ZM28.3465 35.92H36.1532L36.3065 33.6333C36.3399 33.18 35.9132 32.4533 35.3399 32.2467C33.3599 31.54 31.1465 31.5333 29.1532 32.2467C28.5865 32.46 28.1599 33.18 28.1932 33.6333L28.3465 35.92Z" fill="#A4A4A4"/>
<path d="M36.8199 37.3333H27.6865C27.3132 37.3333 27.0065 37.0467 26.9799 36.6733L26.7799 33.7267C26.6999 32.5867 27.5532 31.3267 28.6732 30.9133C30.9865 30.0867 33.5332 30.0867 35.8265 30.9133C36.9599 31.3267 37.8065 32.5933 37.7265 33.7333L37.5265 36.68C37.4999 37.0467 37.1932 37.3333 36.8199 37.3333ZM28.3465 35.92H36.1532L36.3065 33.6333C36.3399 33.18 35.9132 32.4533 35.3399 32.2467C33.3599 31.54 31.1465 31.5333 29.1532 32.2467C28.5865 32.46 28.1599 33.18 28.1932 33.6333L28.3465 35.92Z" fill="#A4A4A4"/>
<path d="M42.3399 37.3333H38.6999C38.3065 37.3333 37.9932 37.0133 37.9932 36.6267C37.9932 36.24 38.3132 35.92 38.6999 35.92H41.6732L41.7999 34.04C41.8265 33.68 41.4732 33.1 41.0265 32.94C40.2332 32.6533 39.3932 32.5067 38.5399 32.4867C38.1465 32.48 37.8332 32.16 37.8399 31.7667C37.8465 31.3733 38.1665 31.0533 38.5599 31.0667C39.5665 31.0867 40.5599 31.2667 41.5065 31.6C42.5199 31.9733 43.2799 33.1067 43.2132 34.1333L43.0399 36.68C43.0265 37.0467 42.7132 37.3333 42.3399 37.3333Z" fill="#A4A4A4"/>
<path d="M39.5465 30.3067C38.1332 30.3067 36.9865 29.0333 36.9865 27.4667C36.9865 25.9 38.1332 24.6267 39.5465 24.6267C40.9599 24.6267 42.1065 25.9 42.1065 27.4667C42.1065 29.0333 40.9532 30.3067 39.5465 30.3067ZM39.5465 26.04C38.9199 26.04 38.4065 26.68 38.4065 27.46C38.4065 28.2467 38.9199 28.88 39.5465 28.88C40.1732 28.88 40.6865 28.24 40.6865 27.46C40.6799 26.68 40.1732 26.04 39.5465 26.04Z" fill="#A4A4A4"/>
<path d="M32.6467 55.1533H31.2667C30.7667 55.1533 30.3533 54.7467 30.3533 54.24V53.3533L29.9267 53.1867L29.28 53.8C28.94 54.14 28.3333 54.14 27.9933 53.8L27.02 52.8267C26.8467 52.6533 26.7533 52.4267 26.7533 52.18C26.7533 51.9333 26.8467 51.7067 27.02 51.5333L27.6467 50.9067L27.46 50.4867L26.5667 50.46C26.0667 50.46 25.6533 50.0533 25.6533 49.5467V48.1733C25.6533 47.6733 26.06 47.26 26.5667 47.26H27.46L27.6267 46.8333L27.0133 46.1867C26.84 46.0133 26.7467 45.7867 26.7467 45.54C26.7467 45.2933 26.84 45.0667 27.0133 44.8933L27.9867 43.92C28.3267 43.58 28.9333 43.5733 29.2733 43.92L29.9 44.5467L30.32 44.36L30.3467 43.4733C30.3467 42.9733 30.7533 42.56 31.26 42.56H32.6333C33.1333 42.56 33.5467 42.9667 33.5467 43.4733V44.3667L33.9733 44.5333L34.62 43.92C34.7933 43.7467 35.02 43.6533 35.2667 43.6533C35.5133 43.6533 35.74 43.7467 35.9133 43.92L36.8867 44.8933C37.06 45.06 37.1533 45.2933 37.1533 45.5333C37.1533 45.78 37.06 46.0067 36.8867 46.18L36.26 46.8067L36.4467 47.2267L37.34 47.2533C37.84 47.2533 38.2467 47.66 38.2467 48.1667V49.54C38.2467 50.04 37.84 50.4533 37.34 50.4533H36.4467L36.28 50.88L36.8933 51.5267C37.0667 51.7 37.16 51.9267 37.16 52.1733C37.16 52.42 37.0667 52.6467 36.8933 52.82L35.92 53.7933C35.5733 54.14 34.9733 54.1333 34.6333 53.7933L34 53.16L33.58 53.3467L33.5533 54.2333C33.56 54.74 33.1467 55.1533 32.6467 55.1533ZM31.4267 54.08H32.4867V53.3533C32.4867 52.92 32.7933 52.4867 33.2067 52.3533L33.5733 52.2C33.6733 52.1467 33.8333 52.1133 34 52.1133C34.2933 52.1133 34.5667 52.2267 34.76 52.4133L35.2733 52.9267L36.02 52.18L35.5067 51.6667C35.2 51.36 35.1133 50.8333 35.3067 50.4467L35.46 50.08C35.5867 49.7067 36.0133 49.3933 36.4467 49.3933H37.1733V48.34H36.4467C36.0133 48.34 35.58 48.0267 35.4467 47.6133L35.2933 47.2467C35.1133 46.8933 35.2 46.3733 35.5067 46.0667L36.0267 45.5467L35.28 44.8L34.7667 45.3133C34.4667 45.6133 33.9333 45.7 33.5467 45.5133L33.18 45.36C32.8067 45.2333 32.4933 44.8067 32.4933 44.3733V43.64H31.4333V44.3733C31.4333 44.8067 31.12 45.24 30.7133 45.3733L30.3467 45.5267C30.2467 45.58 30.0867 45.6133 29.92 45.6133C29.6267 45.6133 29.3533 45.5 29.16 45.3067L28.6467 44.7933L27.9 45.54L28.4133 46.0533C28.72 46.36 28.8067 46.8867 28.6133 47.2733L28.4667 47.64C28.34 48.02 27.9133 48.3267 27.4733 48.3267H26.74V49.38H27.4733C27.9067 49.38 28.34 49.6933 28.4733 50.1L28.6267 50.4667C28.8067 50.82 28.72 51.34 28.4133 51.6467L27.9 52.16L28.6467 52.9067L29.16 52.3933C29.46 52.0933 29.9933 52 30.38 52.1933L30.7467 52.34C31.1333 52.4667 31.4333 52.8867 31.4333 53.3267V54.08H31.4267ZM31.96 51.2067C30.6667 51.2067 29.6133 50.1533 29.6133 48.86C29.6133 47.5667 30.6667 46.5133 31.96 46.5133C33.2533 46.5133 34.3067 47.5667 34.3067 48.86C34.3067 50.1533 33.2533 51.2067 31.96 51.2067ZM31.96 47.58C31.2533 47.58 30.68 48.1533 30.68 48.86C30.68 49.5667 31.2533 50.14 31.96 50.14C32.6667 50.14 33.24 49.5667 33.24 48.86C33.2333 48.1533 32.66 47.58 31.96 47.58Z" fill="#A4A4A4"/>
<path d="M41.24 57.4333H40.48C40.2 57.4333 39.98 57.2067 39.98 56.9333V56.44L39.7467 56.3467L39.3867 56.6867C39.2 56.8733 38.8667 56.8733 38.6733 56.6867L38.1333 56.1467C38.04 56.0533 37.9867 55.9267 37.9867 55.7933C37.9867 55.66 38.04 55.5333 38.1333 55.44L38.48 55.0933L38.38 54.86L37.8867 54.8467C37.6067 54.8467 37.3867 54.62 37.3867 54.3467V53.5867C37.3867 53.3067 37.6133 53.0867 37.8867 53.0867H38.38L38.4733 52.8533L38.1333 52.4933C38.04 52.4 37.9867 52.2733 37.9867 52.14C37.9867 52.0067 38.04 51.88 38.1333 51.7867L38.6667 51.2467C38.8533 51.06 39.1867 51.06 39.38 51.2467L39.7267 51.5933L39.96 51.4933L39.9733 51C39.9733 50.72 40.2 50.5 40.4733 50.5H41.2333C41.5133 50.5 41.74 50.7267 41.74 51V51.4933L41.9733 51.5867L42.3333 51.2467C42.4267 51.1533 42.5533 51.1 42.6867 51.1C42.82 51.1 42.9467 51.1533 43.04 51.2467L43.58 51.7867C43.6733 51.88 43.7267 52.0067 43.7267 52.14C43.7267 52.2733 43.6733 52.4 43.58 52.4933L43.2333 52.84L43.3333 53.0733L43.8267 53.0867C44.1067 53.0867 44.3267 53.3133 44.3267 53.5867V54.3467C44.3267 54.6267 44.1 54.8467 43.8267 54.8467H43.3333L43.24 55.08L43.58 55.44C43.6733 55.5333 43.7267 55.66 43.7267 55.7933C43.7267 55.9267 43.6733 56.0533 43.58 56.1467L43.0467 56.6867C42.8533 56.88 42.5267 56.8733 42.3333 56.6867L41.9867 56.34L41.7533 56.44L41.74 56.9333C41.74 57.2133 41.52 57.4333 41.24 57.4333ZM40.5667 56.8467H41.1533V56.4467C41.1533 56.2067 41.3267 55.9667 41.5533 55.8933L41.7533 55.8067C41.8067 55.78 41.9 55.76 41.9867 55.76C42.1467 55.76 42.3 55.82 42.4067 55.9267L42.6933 56.2133L43.1067 55.8L42.82 55.5133C42.6533 55.3467 42.6067 55.0533 42.7133 54.84L42.7933 54.64C42.86 54.4333 43.1 54.26 43.34 54.26H43.74V53.68H43.34C43.1 53.68 42.86 53.5067 42.7867 53.28L42.7 53.08C42.6 52.8867 42.6467 52.5933 42.82 52.4267L43.1067 52.14L42.6933 51.7267L42.4067 52.0133C42.24 52.18 41.9467 52.2267 41.7333 52.12L41.5333 52.04C41.3267 51.9733 41.1533 51.7333 41.1533 51.4933V51.0867H40.5667V51.4933C40.5667 51.7333 40.3933 51.9733 40.1667 52.0467L39.9667 52.1333C39.9133 52.16 39.82 52.18 39.7333 52.18C39.5733 52.18 39.42 52.12 39.3133 52.0133L39.0267 51.7267L38.6133 52.14L38.9 52.4267C39.0667 52.6 39.1133 52.8867 39.0067 53.1L38.9267 53.3C38.86 53.5067 38.62 53.68 38.38 53.68H37.9733V54.26H38.38C38.62 54.26 38.86 54.4333 38.9333 54.66L39.02 54.8667C39.12 55.06 39.0733 55.3533 38.9 55.52L38.6133 55.8067L39.0267 56.22L39.3133 55.9333C39.48 55.7667 39.7733 55.72 39.9867 55.8267L40.1867 55.9067C40.4 55.98 40.5667 56.2067 40.5667 56.4533V56.8467ZM40.86 55.26C40.1467 55.26 39.56 54.68 39.56 53.96C39.56 53.24 40.14 52.66 40.86 52.66C41.5733 52.66 42.16 53.24 42.16 53.96C42.16 54.68 41.5733 55.26 40.86 55.26ZM40.86 53.2533C40.4733 53.2533 40.1533 53.5733 40.1533 53.96C40.1533 54.3467 40.4667 54.6667 40.86 54.6667C41.2467 54.6667 41.5667 54.3467 41.5667 53.96C41.5667 53.5733 41.2467 53.2533 40.86 53.2533Z" fill="#A4A4A4"/>
<path d="M35.5132 74.4467H34.5399C34.1866 74.4467 33.8932 74.16 33.8932 73.8V73.1734L33.5932 73.0534L33.1332 73.4867C32.8932 73.7267 32.4666 73.7267 32.2266 73.4867L31.5399 72.8C31.4199 72.68 31.3532 72.52 31.3532 72.3467C31.3532 72.1733 31.4199 72.0134 31.5399 71.8934L31.9866 71.4467L31.8532 71.1467L31.2266 71.1267C30.8732 71.1267 30.5799 70.84 30.5799 70.4867V69.5133C30.5799 69.16 30.8666 68.8667 31.2266 68.8667H31.8532L31.9732 68.5667L31.5399 68.1067C31.4199 67.9867 31.3532 67.8267 31.3532 67.6534C31.3532 67.48 31.4199 67.32 31.5399 67.2L32.2266 66.5133C32.4666 66.2733 32.8932 66.2733 33.1399 66.5133L33.5866 66.96L33.8799 66.8267L33.8999 66.2C33.8999 65.8467 34.1866 65.5534 34.5466 65.5534H35.5199C35.8732 65.5534 36.1666 65.84 36.1666 66.2V66.8267L36.4666 66.9467L36.9266 66.5133C37.0466 66.3933 37.2132 66.3267 37.3799 66.3267C37.5532 66.3267 37.7132 66.3933 37.8332 66.5133L38.5199 67.2C38.6399 67.32 38.7066 67.48 38.7066 67.6534C38.7066 67.8267 38.6399 67.9867 38.5199 68.1067L38.0732 68.5534L38.2066 68.8534L38.8332 68.8734C39.1866 68.8734 39.4732 69.16 39.4732 69.52V70.4933C39.4732 70.8467 39.1866 71.1334 38.8332 71.1334H38.1999L38.0799 71.4334L38.5132 71.8934C38.6332 72.0134 38.6999 72.1733 38.6999 72.3467C38.6999 72.52 38.6332 72.68 38.5132 72.8L37.8266 73.4867C37.5799 73.7334 37.1599 73.7267 36.9199 73.4867L36.4732 73.04L36.1799 73.1734L36.1599 73.8C36.1599 74.16 35.8732 74.4467 35.5132 74.4467ZM35.3999 73.6934V73.18C35.3999 72.8733 35.6199 72.5667 35.9066 72.4734L36.1666 72.3667C36.2399 72.3267 36.3532 72.3067 36.4666 72.3067C36.6732 72.3067 36.8666 72.3867 37.0066 72.52L37.3732 72.8867L37.8999 72.36L37.5332 71.9934C37.3199 71.7734 37.2599 71.4067 37.3932 71.1334L37.4999 70.8734C37.5866 70.6067 37.8932 70.3867 38.1999 70.3867H38.7132V69.64H38.1999C37.8932 69.64 37.5866 69.42 37.4932 69.1267L37.3866 68.8667C37.2599 68.62 37.3199 68.2467 37.5399 68.0334L37.9066 67.6667L37.3799 67.14L37.0132 67.5067C36.7999 67.72 36.4199 67.78 36.1532 67.6467L35.8932 67.54C35.6266 67.4534 35.4066 67.1467 35.4066 66.84V66.3267H34.6599V66.84C34.6599 67.1467 34.4399 67.4534 34.1466 67.5467L33.8866 67.6534C33.8132 67.6934 33.6999 67.7134 33.5866 67.7134C33.3799 67.7134 33.1866 67.6334 33.0466 67.5L32.6799 67.1334L32.1532 67.66L32.5199 68.0267C32.7332 68.2467 32.7932 68.6134 32.6599 68.8867L32.5532 69.1467C32.4666 69.4134 32.1599 69.6334 31.8532 69.6334H31.3399V70.38H31.8532C32.1599 70.38 32.4666 70.6 32.5599 70.8867L32.6666 71.1467C32.7932 71.3934 32.7332 71.7667 32.5132 71.98L32.1466 72.3467L32.6732 72.8734L33.0399 72.5067C33.2532 72.2934 33.6332 72.2334 33.8999 72.3667L34.1599 72.4734C34.4332 72.56 34.6466 72.86 34.6466 73.1734V73.6934H35.3999ZM35.0266 71.66C34.1132 71.66 33.3666 70.9134 33.3666 70C33.3666 69.0867 34.1132 68.34 35.0266 68.34C35.9399 68.34 36.6866 69.0867 36.6866 70C36.6866 70.9134 35.9466 71.66 35.0266 71.66ZM35.0266 69.1C34.5266 69.1 34.1266 69.5067 34.1266 70.0067C34.1266 70.5067 34.5332 70.9134 35.0266 70.9134C35.5266 70.9134 35.9332 70.5067 35.9332 70.0067C35.9332 69.5067 35.5266 69.1 35.0266 69.1Z" fill="#A4A4A4"/>
<path d="M30.2066 67.2067C29.9666 67.2067 29.7599 67.02 29.7399 66.78L29.6332 65.18L28.0332 65.1134C27.7799 65.1067 27.5866 64.8867 27.5932 64.6334C27.5999 64.38 27.8132 64.1733 28.0732 64.1933L30.0866 64.2734C30.3199 64.28 30.5132 64.4667 30.5266 64.7L30.6599 66.7133C30.6799 66.9667 30.4866 67.1867 30.2332 67.2C30.2199 67.2067 30.2132 67.2067 30.2066 67.2067Z" fill="#A4A4A4"/>
<path d="M35.0599 78.0334C32.9732 78.06 30.9466 77.2667 29.4132 75.7734C27.8866 74.2867 27.0332 72.3 26.9999 70.1734C26.9732 68.0467 27.7732 66.0334 29.2599 64.5067C29.5266 64.2267 29.9732 64.2267 30.2466 64.4933C30.5266 64.76 30.5266 65.2067 30.2599 65.48C29.0332 66.74 28.3732 68.3934 28.3999 70.1467C28.4266 71.9 29.1266 73.54 30.3866 74.7667C32.0066 76.34 34.2866 76.9667 36.4866 76.4534C36.8666 76.3667 37.2399 76.5933 37.3266 76.9733C37.4132 77.3467 37.1866 77.7267 36.8066 77.8134C36.2266 77.96 35.6466 78.0267 35.0599 78.0334Z" fill="#A4A4A4"/>
<path d="M40.2532 75.7067C40.0732 75.7067 39.8932 75.64 39.7532 75.5067C39.4732 75.24 39.4732 74.7934 39.7399 74.52C42.2666 71.9267 42.2066 67.76 39.6132 65.2334C37.9932 63.66 35.7132 63.0267 33.5066 63.5534C33.1332 63.64 32.7532 63.4067 32.6666 63.0334C32.5799 62.66 32.8132 62.28 33.1866 62.1934C35.8599 61.56 38.6199 62.3267 40.5866 64.2334C43.7332 67.2934 43.7999 72.3467 40.7399 75.5C40.6132 75.6334 40.4332 75.7 40.2532 75.7067Z" fill="#A4A4A4"/>
<path d="M42.0466 75.8534C42.0399 75.8534 42.0266 75.8534 42.0199 75.8534L39.8999 75.7667C39.6532 75.7533 39.4532 75.56 39.4399 75.3134L39.2999 73.2C39.2799 72.9334 39.4866 72.7067 39.7466 72.6867C39.9999 72.6667 40.2466 72.8667 40.2599 73.1333L40.3732 74.8134L42.0599 74.88C42.3266 74.8933 42.5332 75.1133 42.5266 75.38C42.5066 75.6467 42.2999 75.8467 42.0466 75.8534Z" fill="#A4A4A4"/>
<path d="M38.1267 94.62H28.0801C27.3001 94.62 26.6667 93.9866 26.6667 93.2066V86.7866C26.6667 86.0066 27.3001 85.3733 28.0801 85.3733H38.1334C38.9134 85.3733 39.5467 86.0066 39.5467 86.7866V93.2066C39.5401 93.9933 38.9067 94.62 38.1267 94.62ZM28.0801 86.7933V93.2133H38.1334V86.7933H28.0801Z" fill="#A4A4A4"/>
<path d="M42.6267 94.5533C42.5201 94.5533 42.4134 94.5266 42.3134 94.48L38.4534 92.56C38.2134 92.44 38.0601 92.1933 38.0601 91.9266V88.0866C38.0601 87.82 38.2134 87.5733 38.4534 87.4533L42.3134 85.5333C42.5334 85.4266 42.7934 85.44 43.0001 85.5666C43.2067 85.6933 43.3334 85.92 43.3334 86.1666V93.8533C43.3334 94.1 43.2067 94.3266 43.0001 94.4533C42.8867 94.5133 42.7601 94.5533 42.6267 94.5533ZM39.4734 91.4866L41.9267 92.7066V87.3L39.4734 88.52V91.4866Z" fill="#A4A4A4"/>
<path d="M42.3334 104.493C42.3334 102.553 37.7267 102.033 35.0001 102.033C32.2734 102.033 27.6667 102.553 27.6667 104.493C27.6667 104.52 27.6734 104.547 27.6801 104.573C27.6801 104.593 27.6667 104.607 27.6667 104.627V108.387C27.6667 110.14 32.2734 110.613 35.0001 110.613C37.7267 110.613 42.3334 110.147 42.3334 108.387V104.627C42.3334 104.607 42.3267 104.593 42.3201 104.573C42.3267 104.54 42.3334 104.52 42.3334 104.493ZM35.0001 103.307C38.5601 103.307 40.7534 104.04 41.0934 104.493C40.7534 104.94 38.5601 105.68 35.0001 105.68C31.4401 105.68 29.2467 104.947 28.9067 104.493C29.2467 104.04 31.4401 103.307 35.0001 103.307ZM35.0001 109.453C31.3067 109.453 29.0801 108.74 28.8801 108.38V105.947C30.4334 106.707 33.1467 106.947 35.0001 106.947C36.8467 106.947 39.5667 106.707 41.1201 105.947L41.1267 108.333C40.9201 108.74 38.6934 109.453 35.0001 109.453Z" fill="#A4A4A4"/>
<path d="M41.7267 110.547H41.1201V111.82L41.1267 115.46C40.9201 115.9 38.6934 116.693 35.0001 116.693C31.3067 116.693 29.0801 115.9 28.8801 115.507V110.54H28.2734C27.9401 110.54 27.6667 110.827 27.6667 111.18V115.507C27.6667 117.447 32.2734 117.967 35.0001 117.967C37.7267 117.967 42.3334 117.447 42.3334 115.507V111.18C42.3334 110.833 42.0601 110.547 41.7267 110.547Z" fill="#A4A4A4"/>
<path d="M41.7267 106.987H41.1201V108.26L41.1267 111.9C40.9201 112.34 38.6934 113.133 35.0001 113.133C31.3067 113.133 29.0801 112.34 28.8801 111.947V106.98H28.2734C27.9401 106.98 27.6667 107.267 27.6667 107.62V111.947C27.6667 113.887 32.2734 114.407 35.0001 114.407C37.7267 114.407 42.3334 113.887 42.3334 111.947V107.62C42.3334 107.273 42.0601 106.987 41.7267 106.987Z" fill="#A4A4A4"/>
<path d="M35 138.007C33.3 138.007 31.6867 136.667 29.12 134.033C28.4267 133.307 28.0067 132.04 28 131.233V125.053C28 124.093 28.6933 123.153 29.62 122.86C33.0867 121.713 36.9067 121.707 40.3933 122.86C41.2933 123.147 42 124.107 42 125.047V131.227C41.9933 132.04 41.58 133.307 40.8867 134.027C38.3133 136.667 36.7 138.007 35 138.007ZM35 123.247C33.3 123.247 31.62 123.52 30 124.053C29.5867 124.18 29.2467 124.64 29.2467 125.053V131.233C29.2467 131.767 29.58 132.713 30.0133 133.167C32.28 135.493 33.7467 136.753 34.9933 136.753C36.24 136.753 37.7067 135.493 39.98 133.16C40.4133 132.713 40.74 131.767 40.74 131.227V125.053C40.74 124.653 40.3867 124.18 40 124.053C38.38 123.52 36.7 123.247 35 123.247Z" fill="#A4A4A4"/>
<path d="M35 135.813C34 135.813 32.32 134.18 30.6867 132.507C30.4467 132.253 30.1933 131.547 30.1933 131.227V125.207C30.1933 125.073 30.28 124.953 30.4067 124.907C33.4067 123.947 36.6267 123.947 39.5867 124.907C39.7133 124.947 39.8067 125.067 39.8067 125.207V131.233C39.8 131.56 39.5467 132.26 39.3 132.52C37.6733 134.193 36 135.813 35 135.813ZM30.82 125.44V131.22C30.82 131.407 31.0267 131.953 31.14 132.073C32.0467 133.007 34.18 135.193 35 135.193C35.8267 135.193 37.94 133.02 38.8467 132.093C38.98 131.953 39.18 131.407 39.1867 131.227V125.44C36.4733 124.607 33.5533 124.607 30.82 125.44Z" fill="#A4A4A4"/>
<path d="M42.0011 156.079H27.3323C26.9675 156.079 26.6667 155.778 26.6667 155.414V150.223C26.6667 149.852 26.9675 149.558 27.3323 149.558H42.0011C42.3659 149.558 42.6667 149.858 42.6667 150.223V155.414C42.6667 155.785 42.3659 156.079 42.0011 156.079ZM27.9979 154.748H41.3355V150.895H27.9979V154.748Z" fill="#A4A4A4"/>
<path d="M29.7963 152.034C29.3611 152.034 29.0092 152.386 29.0092 152.822C29.0092 153.257 29.3611 153.609 29.7963 153.609C30.2316 153.609 30.5836 153.257 30.5836 152.822C30.5772 152.386 30.2251 152.034 29.7963 152.034Z" fill="#A4A4A4"/>
<path d="M32.3499 152.034C31.9147 152.034 31.5627 152.386 31.5627 152.822C31.5627 153.257 31.9147 153.609 32.3499 153.609C32.7851 153.609 33.1371 153.257 33.1371 152.822C33.1307 152.386 32.7787 152.034 32.3499 152.034Z" fill="#A4A4A4"/>
<path d="M34.8972 152.034C34.462 152.034 34.11 152.386 34.11 152.822C34.11 153.257 34.462 153.609 34.8972 153.609C35.3324 153.609 35.6844 153.257 35.6844 152.822C35.6844 152.386 35.3324 152.034 34.8972 152.034Z" fill="#A4A4A4"/>
<path d="M42.0011 150.582H27.3323C26.9675 150.582 26.6667 150.281 26.6667 149.916V144.726C26.6667 144.354 26.9675 144.06 27.3323 144.06H42.0011C42.3659 144.06 42.6667 144.361 42.6667 144.726V149.916C42.6667 150.287 42.3659 150.582 42.0011 150.582ZM27.9979 149.25H41.3355V145.398H27.9979V149.25Z" fill="#A4A4A4"/>
<path d="M29.7963 146.537C29.3611 146.537 29.0092 146.889 29.0092 147.324C29.0092 147.759 29.3611 148.111 29.7963 148.111C30.2316 148.111 30.5836 147.759 30.5836 147.324C30.5772 146.889 30.2251 146.537 29.7963 146.537Z" fill="#A4A4A4"/>
<path d="M32.3499 146.537C31.9147 146.537 31.5627 146.889 31.5627 147.324C31.5627 147.759 31.9147 148.111 32.3499 148.111C32.7851 148.111 33.1371 147.759 33.1371 147.324C33.1307 146.889 32.7787 146.537 32.3499 146.537Z" fill="#A4A4A4"/>
<path d="M34.8972 146.537C34.462 146.537 34.11 146.889 34.11 147.324C34.11 147.759 34.462 148.111 34.8972 148.111C35.3324 148.111 35.6844 147.759 35.6844 147.324C35.6844 146.889 35.3324 146.537 34.8972 146.537Z" fill="#A4A4A4"/>
<path d="M36.1998 176.673V175.4C38.6932 175.4 40.8465 173.713 41.4398 171.293L42.6798 171.6C41.9465 174.587 39.2798 176.673 36.1998 176.673Z" fill="#A4A4A4"/>
<path d="M36.1998 164.607V163.333C39.1798 163.333 41.8265 165.34 42.6265 168.207L41.3998 168.547C40.7532 166.227 38.6132 164.607 36.1998 164.607Z" fill="#A4A4A4"/>
<path d="M33.1065 166.04V162.007H37.1398V166.04H33.1065ZM34.3798 163.28V164.767H35.8665V163.28H34.3798Z" fill="#A4A4A4"/>
<path d="M33.1065 178V173.967H37.1398V178H33.1065ZM34.3798 175.24V176.727H35.8665V175.24H34.3798Z" fill="#A4A4A4"/>
<path d="M40.0598 172.02V167.987H44.0932V172.02H40.0598ZM41.3332 169.26V170.747H42.8198V169.26H41.3332Z" fill="#A4A4A4"/>
<path d="M33.7998 176.673V175.4C31.3065 175.4 29.1532 173.713 28.5598 171.293L27.3198 171.6C28.0532 174.587 30.7198 176.673 33.7998 176.673Z" fill="#A4A4A4"/>
<path d="M33.7998 164.607V163.333C30.8198 163.333 28.1732 165.34 27.3732 168.207L28.5998 168.547C29.2465 166.227 31.3865 164.607 33.7998 164.607Z" fill="#A4A4A4"/>
<path d="M29.9398 172.02H25.9065V167.987H29.9398V172.02ZM28.6665 169.26H27.1798V170.747H28.6665V169.26Z" fill="#A4A4A4"/>
<path d="M35.0267 191.907C34.92 191.907 34.8133 191.88 34.72 191.827L27.3267 187.687C27.1267 187.573 27 187.36 27 187.133C27 186.907 27.1267 186.693 27.3267 186.58L34.6667 182.467C34.86 182.36 35.0933 182.36 35.2867 182.467L42.68 186.607C42.88 186.72 43.0067 186.933 43.0067 187.16C43.0067 187.387 42.88 187.6 42.68 187.713L35.34 191.827C35.24 191.88 35.1333 191.907 35.0267 191.907ZM28.9333 187.133L35.0267 190.547L41.0667 187.16L34.9733 183.747L28.9333 187.133Z" fill="#A4A4A4"/>
<path d="M35.0267 194.767C34.92 194.767 34.8133 194.74 34.72 194.687L27.3267 190.547C27.02 190.373 26.9133 189.987 27.0867 189.68C27.2533 189.373 27.6467 189.267 27.9467 189.433L35.0267 193.4L42.0533 189.46C42.36 189.287 42.7467 189.4 42.92 189.7C43.0933 190.007 42.98 190.393 42.68 190.567L35.34 194.68C35.24 194.733 35.1333 194.767 35.0267 194.767Z" fill="#A4A4A4"/>
<path d="M35.0267 197.62C34.92 197.62 34.8133 197.593 34.72 197.54L27.3267 193.4C27.02 193.227 26.9133 192.84 27.0867 192.533C27.2533 192.227 27.6467 192.12 27.9467 192.287L35.0267 196.253L42.0533 192.313C42.36 192.14 42.7467 192.253 42.92 192.553C43.0933 192.86 42.98 193.247 42.68 193.42L35.34 197.533C35.24 197.593 35.1333 197.62 35.0267 197.62Z" fill="#A4A4A4"/>
<path fill-rule="evenodd" clip-rule="evenodd" d="M28.8942 216.667H41.1057C41.4198 216.667 41.6666 216.42 41.6666 216.106V203.894C41.6666 203.586 41.4142 203.333 41.1057 203.333H28.8942C28.5857 203.333 28.3333 203.586 28.3333 203.894V216.106C28.3333 216.414 28.5857 216.667 28.8942 216.667ZM40.5447 215.545H29.4551V207.445H40.5447V215.545ZM29.4551 204.455V206.884H40.5447V204.455H29.4551ZM31.3409 209.242C31.4122 209.185 31.487 209.133 31.5612 209.084L32.1524 209.46C32.3367 209.377 32.5273 209.324 32.7209 209.297L33.0307 208.667C33.213 208.67 33.3935 208.688 33.5696 208.728L33.7288 209.412C33.9112 209.482 34.0867 209.578 34.2457 209.698L34.9101 209.47C34.9715 209.534 35.0324 209.602 35.089 209.673C35.1457 209.744 35.198 209.819 35.2464 209.893L34.8738 210.489C34.9567 210.673 35.0095 210.863 35.0364 211.057L35.6666 211.366C35.6655 211.547 35.6429 211.727 35.6048 211.905L34.923 212.063C34.853 212.245 34.7585 212.419 34.636 212.58L34.8642 213.244C34.8002 213.306 34.7324 213.367 34.6611 213.423C34.5898 213.48 34.515 213.532 34.4408 213.581L33.8453 213.208C33.661 213.292 33.4704 213.344 33.2768 213.371L32.9691 214C32.7869 213.997 32.6085 213.977 32.4303 213.939L32.2711 213.255C32.0886 213.185 31.9131 213.088 31.7541 212.968L31.0898 213.197C31.0284 213.133 30.9674 213.065 30.9108 212.994C30.8542 212.923 30.8036 212.85 30.7534 212.774L31.1261 212.178C31.0431 211.994 30.9903 211.803 30.9634 211.61L30.3333 211.3C30.3343 211.12 30.3569 210.94 30.395 210.762L31.079 210.602C31.149 210.42 31.2435 210.246 31.366 210.085L31.1378 209.421C31.2018 209.359 31.2696 209.298 31.3409 209.242ZM33.7701 210.327C33.8053 210.354 33.8392 210.383 33.8718 210.414C33.9141 210.454 33.9542 210.498 33.9916 210.545C34.0289 210.592 34.0624 210.641 34.0921 210.691C34.1153 210.731 34.1362 210.771 34.1548 210.812C34.206 210.926 34.2393 211.045 34.2551 211.166C34.2611 211.211 34.2646 211.257 34.2655 211.303C34.2681 211.419 34.2545 211.536 34.2252 211.649C34.2137 211.693 34.1999 211.737 34.1837 211.779C34.1408 211.893 34.0812 212.001 34.0054 212.1C33.9776 212.136 33.9477 212.171 33.9156 212.204C33.8763 212.245 33.8337 212.284 33.788 212.32C33.7409 212.358 33.6919 212.391 33.6415 212.421C33.6015 212.445 33.5606 212.466 33.519 212.485C33.4056 212.535 33.287 212.569 33.1669 212.584C33.1214 212.59 33.0757 212.594 33.0301 212.595C32.9152 212.597 32.8004 212.584 32.689 212.556C32.6437 212.544 32.5989 212.53 32.5549 212.514C32.4408 212.471 32.3322 212.411 32.2329 212.335C32.1977 212.308 32.1637 212.279 32.131 212.248C32.0892 212.208 32.0496 212.165 32.0126 212.118C31.9759 212.072 31.9429 212.024 31.9136 211.974C31.89 211.935 31.8688 211.894 31.8499 211.852C31.7988 211.739 31.7654 211.62 31.7494 211.5C31.7432 211.454 31.7396 211.407 31.7386 211.361C31.7361 211.246 31.7493 211.131 31.7777 211.019C31.7892 210.974 31.8032 210.93 31.8196 210.886C31.8623 210.773 31.9216 210.665 31.9971 210.566C32.0231 210.532 32.0511 210.499 32.0809 210.467C32.1223 210.423 32.1674 210.382 32.2162 210.343C32.2626 210.306 32.3108 210.273 32.3604 210.243C32.3988 210.221 32.438 210.2 32.4779 210.182C32.5912 210.13 32.7099 210.096 32.8302 210.08C32.8763 210.073 32.9227 210.07 32.969 210.069C33.0849 210.065 33.2009 210.078 33.3133 210.107C33.3584 210.118 33.4029 210.132 33.4467 210.148C33.5613 210.191 33.6704 210.251 33.7701 210.327ZM32.8779 211.175C32.9636 211.107 33.0891 211.121 33.1581 211.208C33.227 211.294 33.212 211.42 33.1263 211.488C33.0407 211.556 32.9151 211.542 32.8462 211.456C32.7773 211.369 32.7923 211.243 32.8779 211.175ZM33.5421 210.902C33.779 211.2 33.7292 211.634 33.431 211.871C33.1328 212.108 32.699 212.059 32.4622 211.761C32.2253 211.463 32.2751 211.029 32.5733 210.792C32.8715 210.555 33.3052 210.604 33.5421 210.902ZM30.1787 205.689C30.1787 205.297 30.4929 204.982 30.8855 204.982C31.2726 204.982 31.5923 205.297 31.5923 205.689C31.5923 206.082 31.2782 206.396 30.8855 206.396C30.4929 206.396 30.1787 206.082 30.1787 205.689ZM32.7983 204.982C32.4056 204.982 32.0915 205.297 32.0915 205.689C32.0915 206.082 32.4056 206.396 32.7983 206.396C33.1909 206.396 33.505 206.082 33.505 205.689C33.505 205.297 33.1853 204.982 32.7983 204.982ZM34.0042 205.689C34.0042 205.297 34.3183 204.982 34.711 204.982C35.1036 204.982 35.4178 205.297 35.4178 205.689C35.4178 206.082 35.1036 206.396 34.711 206.396C34.3183 206.396 34.0042 206.082 34.0042 205.689ZM39.6666 211.333H36.3333V210.333H39.6666V211.333ZM36.3333 210H39.6666V209H36.3333V210ZM39.6666 212.667H36.3333V211.667H39.6666V212.667ZM36.3333 214H39.6666V213H36.3333V214Z" fill="#A4A4A4"/>
<path d="M40.4533 236.533H29.5466C28.8799 236.533 28.3333 235.987 28.3333 235.32V228.253C28.3333 227.587 28.8799 227.04 29.5466 227.04H40.4533C41.1199 227.04 41.6666 227.587 41.6666 228.253V235.327C41.6666 235.993 41.1199 236.533 40.4533 236.533ZM29.5466 228.253V235.327H40.4533V228.253H29.5466Z" fill="#A4A4A4"/>
<path d="M38.8866 228.1C38.5533 228.1 38.2799 227.827 38.2799 227.493V225.827C38.2799 224.013 36.8066 222.547 34.9999 222.547C33.1866 222.547 31.7199 224.02 31.7199 225.827V227.493C31.7199 227.827 31.4466 228.1 31.1133 228.1C30.7799 228.1 30.5066 227.827 30.5066 227.493V225.827C30.5066 223.347 32.5199 221.333 34.9999 221.333C37.4799 221.333 39.4933 223.347 39.4933 225.827V227.493C39.4933 227.833 39.2266 228.1 38.8866 228.1Z" fill="#A4A4A4"/>
<path d="M34.9999 229.42C34.2999 229.42 33.7399 229.987 33.7399 230.68C33.7399 231.153 34.0066 231.567 34.3933 231.78V233.807H35.6066V231.78C35.9999 231.567 36.2666 231.153 36.2666 230.68C36.2599 229.98 35.6999 229.42 34.9999 229.42Z" fill="#A4A4A4"/>
<path d="M35 258C33.3 258 31.6867 256.667 29.12 254.033C28.4267 253.307 28.0067 252.04 28 251.233V245.053C28 244.093 28.6933 243.153 29.62 242.86C33.0867 241.713 36.9067 241.707 40.3867 242.86C41.2867 243.147 41.9933 244.107 41.9933 245.047V251.22C41.9867 252.033 41.5733 253.3 40.88 254.02C38.3133 256.66 36.7 258 35 258ZM35 243.247C33.3 243.247 31.62 243.52 30.0067 244.053C29.5933 244.18 29.2533 244.64 29.2533 245.053V251.233C29.2533 251.767 29.5867 252.713 30.02 253.167C32.2867 255.493 33.7533 256.753 35 256.753C36.2467 256.753 37.7133 255.493 39.9867 253.16C40.42 252.713 40.7467 251.767 40.7467 251.227V245.053C40.7467 244.653 40.3933 244.18 40.0067 244.053C38.38 243.52 36.7 243.247 35 243.247Z" fill="#A4A4A4"/>
<path d="M35 255.807C34 255.807 32.32 254.173 30.6933 252.5C30.4533 252.247 30.2 251.54 30.2 251.22V245.207C30.2 245.073 30.2867 244.953 30.4133 244.907C33.4067 243.947 36.6267 243.947 39.5933 244.907C39.72 244.947 39.8133 245.067 39.8133 245.207V251.227C39.8067 251.553 39.5533 252.253 39.3067 252.513C37.6667 254.187 36 255.807 35 255.807ZM30.82 245.433V251.213C30.82 251.4 31.0267 251.947 31.14 252.067C32.0467 253 34.1733 255.18 35 255.18C35.8267 255.18 37.94 253.007 38.8467 252.08C38.98 251.94 39.18 251.393 39.1867 251.22V245.433C36.4733 244.607 33.5533 244.607 30.82 245.433Z" fill="#A4A4A4"/>
<path d="M34.38 251.553C34.2067 251.553 34.0467 251.487 33.9267 251.36L32.9 250.28C32.66 250.027 32.6733 249.633 32.92 249.393C33.1733 249.153 33.5667 249.167 33.8067 249.413L34.3467 249.98L36.16 247.767C36.38 247.5 36.7733 247.46 37.04 247.68C37.3067 247.9 37.3467 248.293 37.1267 248.56L34.86 251.327C34.7467 251.467 34.58 251.547 34.4 251.553C34.3933 251.553 34.3867 251.553 34.38 251.553Z" fill="#A4A4A4"/>
<path d="M33.6468 268.053C32.1602 268.053 30.9468 266.693 30.9468 265.027C30.9468 263.353 32.1602 262 33.6468 262C35.1335 262 36.3468 263.36 36.3468 265.027C36.3468 266.7 35.1335 268.053 33.6468 268.053ZM33.6468 263.127C32.7802 263.127 32.0735 263.98 32.0735 265.027C32.0735 266.073 32.7802 266.927 33.6468 266.927C34.5135 266.927 35.2202 266.073 35.2202 265.027C35.2202 263.98 34.5135 263.127 33.6468 263.127Z" fill="#A4A4A4"/>
<path d="M37.7735 278C35.8468 278 34.2802 276.433 34.2802 274.507C34.2802 272.58 35.8468 271.013 37.7735 271.013C39.7002 271.013 41.2668 272.58 41.2668 274.507C41.2668 276.433 39.7002 278 37.7735 278ZM37.7735 271.573C36.1602 271.573 34.8402 272.887 34.8402 274.507C34.8402 276.127 36.1535 277.44 37.7735 277.44C39.3935 277.44 40.7068 276.127 40.7068 274.507C40.7068 272.887 39.3868 271.573 37.7735 271.573Z" fill="#A4A4A4"/>
<path d="M29.4802 275.027C29.1868 275.027 28.9402 274.8 28.9202 274.5L28.7402 271.84C28.6735 270.86 29.4335 269.733 30.4002 269.38C32.4668 268.64 34.7402 268.64 36.8002 269.38C37.5335 269.647 38.1535 270.34 38.3802 271.14L37.3002 271.447C37.1735 270.993 36.8068 270.58 36.4202 270.44C34.6068 269.793 32.6068 269.793 30.7868 270.44C30.2468 270.64 29.8402 271.333 29.8668 271.767L30.0135 273.9H34.5668V275.027H29.4802Z" fill="#A4A4A4"/>
<path d="M37.2068 276.527C37.0535 276.527 36.9068 276.467 36.8002 276.353L35.8735 275.387C35.6602 275.16 35.6668 274.807 35.8935 274.593C36.1202 274.38 36.4735 274.387 36.6868 274.613L37.1735 275.12L38.8068 273.127C39.0068 272.887 39.3602 272.853 39.6002 273.047C39.8402 273.247 39.8735 273.6 39.6802 273.84L37.6402 276.327C37.5402 276.453 37.3868 276.527 37.2268 276.533C37.2202 276.527 37.2135 276.527 37.2068 276.527Z" fill="#A4A4A4"/>
<path d="M29.2999 295.62C29.1732 295.62 29.0666 295.513 29.0666 295.387V292.24C29.0666 292.113 29.1732 292.007 29.2999 292.007H34.6132C34.8866 291.547 35.2132 291.12 35.5999 290.753H35.2732V289.353H38.2866C38.7199 289.247 39.1799 289.18 39.6466 289.18C40.0932 289.18 40.5332 289.24 40.9466 289.333C41.6932 289.26 42.2866 288.633 42.2866 287.86V284.713C42.2866 283.893 41.6199 283.227 40.7999 283.227H29.2999C28.4799 283.227 27.8132 283.893 27.8132 284.713V287.86C27.8132 288.68 28.4799 289.347 29.2999 289.347H34.6532V290.747H29.2999C28.4799 290.747 27.8132 291.413 27.8132 292.233V295.38C27.8132 296.2 28.4799 296.867 29.2999 296.867H34.9999C34.8466 296.467 34.6599 296.053 34.5999 295.613H29.2999V295.62ZM29.2999 288.107C29.1732 288.107 29.0666 288 29.0666 287.873V284.727C29.0666 284.6 29.1732 284.493 29.2999 284.493H40.7999C40.9266 284.493 41.0332 284.6 41.0332 284.727V287.873C41.0332 288 40.9266 288.107 40.7999 288.107H29.2999Z" fill="#A4A4A4"/>
<path d="M39.5399 285.987H37.0332C36.8599 285.987 36.7199 286.127 36.7199 286.3C36.7199 286.473 36.8599 286.613 37.0332 286.613H39.5399C39.7132 286.613 39.8532 286.473 39.8532 286.3C39.8532 286.127 39.7132 285.987 39.5399 285.987Z" fill="#A4A4A4"/>
<path d="M39.4066 298.567C36.9799 298.567 34.9999 296.587 34.9999 294.16C34.9999 291.733 36.9732 289.753 39.4066 289.753C41.8399 289.753 43.8132 291.733 43.8132 294.16C43.8132 296.587 41.8332 298.567 39.4066 298.567ZM39.4066 290.46C37.3666 290.46 35.7132 292.12 35.7132 294.16C35.7132 296.2 37.3732 297.86 39.4066 297.86C41.4466 297.86 43.1066 296.2 43.1066 294.16C43.0999 292.12 41.4399 290.46 39.4066 290.46Z" fill="#A4A4A4"/>
<path d="M38.6932 296.713C38.4999 296.713 38.3132 296.633 38.1799 296.493L37.0132 295.273C36.7399 294.987 36.7532 294.54 37.0399 294.267C37.3266 294 37.7732 294.007 38.0466 294.293L38.6599 294.933L40.7199 292.42C40.9666 292.12 41.4132 292.073 41.7199 292.32C42.0266 292.567 42.0666 293.013 41.8199 293.32L39.2466 296.453C39.1199 296.613 38.9266 296.707 38.7266 296.713C38.7066 296.713 38.6999 296.713 38.6932 296.713Z" fill="#A4A4A4"/>
<path d="M34.4132 312.06C34.3866 312.067 34.3599 312.073 34.3399 312.087L33.9799 312.233C33.5799 312.367 33.2799 312.787 33.2799 313.207V313.913H32.2532V313.207C32.2532 312.78 31.9599 312.373 31.5866 312.247L31.2332 312.1C30.8599 311.913 30.3399 312 30.0532 312.293L29.5532 312.793L28.8266 312.067L29.3266 311.567C29.6199 311.267 29.7066 310.76 29.5332 310.42L29.3866 310.06C29.2532 309.66 28.8332 309.36 28.4132 309.36H27.7066V308.333H28.4132C28.8332 308.333 29.2532 308.033 29.3732 307.667L29.5199 307.313C29.7066 306.94 29.6266 306.433 29.3266 306.133L28.8266 305.633L29.5532 304.907L30.0532 305.407C30.2399 305.593 30.5066 305.7 30.7932 305.7C30.9532 305.7 31.1066 305.667 31.2066 305.613L31.5599 305.467C31.9599 305.333 32.2599 304.913 32.2599 304.493V303.787H33.2866V304.493C33.2866 304.913 33.5866 305.333 33.9532 305.453L34.3066 305.6C34.6799 305.787 35.1999 305.7 35.4866 305.407L35.9866 304.907L36.7132 305.633L36.2132 306.133C35.9199 306.433 35.8332 306.94 36.0066 307.28L36.1532 307.633C36.2866 308.033 36.7066 308.333 37.1266 308.333H37.8332V308.42C38.1666 308.307 38.5132 308.22 38.8732 308.173C38.8732 307.687 38.4732 307.293 37.9932 307.293L37.1266 307.267L36.9466 306.86L37.5532 306.253C37.7199 306.087 37.8132 305.867 37.8132 305.627C37.8132 305.387 37.7199 305.167 37.5532 305L36.6066 304.053C36.4399 303.887 36.2199 303.793 35.9799 303.793C35.7466 303.793 35.5199 303.887 35.3532 304.053L34.7266 304.647L34.3132 304.487V303.62C34.3132 303.133 33.9199 302.733 33.4266 302.733H32.0932C31.6066 302.733 31.2066 303.127 31.2066 303.62L31.1799 304.48L30.7732 304.66L30.1666 304.047C29.8332 303.713 29.2466 303.713 28.9199 304.047L27.9799 304.993C27.8132 305.16 27.7199 305.38 27.7199 305.62C27.7199 305.86 27.8132 306.08 27.9799 306.247L28.5732 306.873L28.4132 307.287H27.5466C27.0599 307.287 26.6599 307.68 26.6599 308.173V309.507C26.6599 309.993 27.0532 310.387 27.5466 310.387L28.4132 310.413L28.5932 310.82L27.9866 311.427C27.8199 311.593 27.7266 311.813 27.7266 312.053C27.7266 312.293 27.8199 312.513 27.9866 312.68L28.9332 313.627C29.2666 313.96 29.8466 313.96 30.1799 313.627L30.8066 313.033L31.2199 313.193V314.053C31.2199 314.54 31.6132 314.94 32.1066 314.94H33.4399C33.8466 314.94 34.1799 314.667 34.2866 314.293C34.2466 314.027 34.2199 313.753 34.2199 313.48C34.2132 313 34.2866 312.52 34.4132 312.06Z" fill="#A4A4A4"/>
<path d="M32.7666 306.573C31.5132 306.573 30.4866 307.593 30.4866 308.853C30.4866 310.113 31.5066 311.133 32.7666 311.133C34.0266 311.133 35.0466 310.113 35.0466 308.853C35.0466 307.593 34.0266 306.573 32.7666 306.573ZM32.7666 310.093C32.0799 310.093 31.5266 309.54 31.5266 308.853C31.5266 308.167 32.0799 307.613 32.7666 307.613C33.4532 307.613 34.0066 308.167 34.0066 308.853C34.0066 309.54 33.4532 310.093 32.7666 310.093Z" fill="#A4A4A4"/>
<path d="M39.0599 317.247C36.6999 317.247 34.7866 315.327 34.7866 312.973C34.7866 310.613 36.7066 308.7 39.0599 308.7C41.4199 308.7 43.3332 310.62 43.3332 312.973C43.3332 315.333 41.4132 317.247 39.0599 317.247ZM39.0599 309.387C37.0799 309.387 35.4732 310.993 35.4732 312.973C35.4732 314.953 37.0799 316.56 39.0599 316.56C41.0399 316.56 42.6466 314.953 42.6466 312.973C42.6466 310.993 41.0332 309.387 39.0599 309.387Z" fill="#A4A4A4"/>
<path d="M38.3666 315.447C38.1799 315.447 37.9999 315.373 37.8666 315.233L36.7399 314.047C36.4799 313.773 36.4866 313.333 36.7666 313.073C37.0399 312.813 37.4799 312.82 37.7399 313.1L38.3332 313.72L40.3332 311.28C40.5732 310.987 41.0066 310.94 41.2999 311.187C41.5932 311.427 41.6399 311.86 41.3932 312.153L38.8999 315.193C38.7732 315.347 38.5866 315.44 38.3932 315.447C38.3799 315.447 38.3732 315.447 38.3666 315.447Z" fill="#A4A4A4"/>
<path d="M39.4467 338H30.5534C30.2067 338 29.92 337.72 29.92 337.367V335.347C29.92 335 30.2 334.713 30.5534 334.713C30.9067 334.713 31.1867 334.993 31.1867 335.347V336.733H38.8134V335.347C38.8134 335 39.0934 334.713 39.4467 334.713C39.8 334.713 40.08 334.993 40.08 335.347V337.367C40.0734 337.72 39.7934 338 39.4467 338Z" fill="#A4A4A4"/>
<path d="M38.4534 330.913L38.0334 330.747C37.4334 330.513 36.96 330.327 36.8667 330.193C36.7934 330.087 36.82 329.6 36.84 329.127C36.9 328.087 37.1134 327.273 37.3067 326.56C37.48 325.907 37.6467 325.293 37.6467 324.647C37.6467 323.187 36.46 321.993 34.9934 321.993C33.5334 321.993 32.34 323.18 32.34 324.647C32.34 325.293 32.5067 325.907 32.68 326.56C32.8734 327.273 33.0934 328.087 33.1467 329.127C33.1734 329.6 33.2 330.087 33.12 330.193C33.0267 330.32 32.5534 330.507 31.9534 330.747L31.5334 330.913C30.1734 331.44 29.1067 331.86 29.1067 333.327V335.347C29.1067 335.693 29.3867 335.98 29.74 335.98H40.2467C40.5934 335.98 40.88 335.7 40.88 335.347V333.327C40.8867 331.86 39.8134 331.447 38.4534 330.913ZM39.62 334.713H30.38V333.327C30.38 332.793 30.56 332.653 32.0067 332.093L32.4334 331.927C34.2667 331.207 34.5267 330.973 34.42 329.067C34.3534 327.893 34.1067 326.98 33.9134 326.24C33.7534 325.647 33.6134 325.133 33.6134 324.653C33.6134 323.887 34.2334 323.267 35 323.267C35.7667 323.267 36.3867 323.887 36.3867 324.653C36.3867 325.133 36.2467 325.647 36.0867 326.24C35.8867 326.98 35.64 327.893 35.58 329.067C35.4734 330.973 35.7334 331.207 37.5667 331.927L37.9934 332.093C39.4334 332.653 39.62 332.793 39.62 333.327V334.713Z" fill="#A4A4A4"/>
</svg>
