<svg width="24" height="96" viewBox="0 0 24 96" fill="none" xmlns="http://www.w3.org/2000/svg">
<g clip-path="url(#clip0_1013_5342)">
<rect width="24" height="24" rx="4" fill="white"/>
<rect x="0.5" y="0.5" width="23" height="23" rx="3.5" stroke="black" stroke-opacity="0.2"/>
<path fill-rule="evenodd" clip-rule="evenodd" d="M6.74062 8.1814H9.48406L10.601 15.8186H8.27039L8.01942 12.7171L7.77803 9.94315H7.73684L6.54425 12.7171H8.01942L5.87467 14.2998L5.22713 15.8186H3L6.74062 8.1814ZM18.5401 11.3941L17.7805 15.8186H19.6886L21 8.1814H18.4731L16.0314 12.7279H15.9902L15.106 8.1814H12.5791L11.2677 15.8186H13.1758L13.9355 11.3941H13.9767L14.8924 15.8186H16.063L18.4989 11.3941H18.5401Z" fill="#22B2A5"/>
<rect y="24" width="24" height="24" rx="4" fill="white"/>
<rect x="0.5" y="24.5" width="23" height="23" rx="3.5" stroke="black" stroke-opacity="0.2"/>
<path fill-rule="evenodd" clip-rule="evenodd" d="M9.49954 36.0011C9.13415 38.1056 7.6658 39.414 5.69447 39.414C3.72315 39.414 2.70816 38.1056 3.07356 36.0011C3.43895 33.8989 4.91181 32.5859 6.88313 32.5859C8.85446 32.5859 9.86493 33.8989 9.49954 36.0011ZM4.75843 36.0011C4.53965 37.2547 5.00203 38.0507 5.9313 38.0507C6.86058 38.0507 7.59813 37.2547 7.81692 36.0011C8.03571 34.743 7.56881 33.947 6.64405 33.947C5.71928 33.947 4.97722 34.743 4.75843 36.0011ZM10.9048 39.2997L11.816 34.0545H9.41161L10.2552 32.7003H16.194L14.967 34.0545H13.4648L12.5536 39.2997H10.9048ZM20.9554 35.0381C21.2013 33.6199 20.4141 32.7003 19.0157 32.7003H16.1963L15.0504 39.3019H16.706L17.0421 37.3667H18.1067C19.5547 37.3667 20.7096 36.4472 20.9554 35.0381ZM17.9781 36.1041H17.2631L17.6308 33.9859H18.357C19.0495 33.9859 19.4014 34.3564 19.2818 35.0427C19.1623 35.7335 18.6818 36.1041 17.9781 36.1041Z" fill="url(#paint0_linear_1013_5342)"/>
<path d="M18.9922 66.8532L10.744 71.6266L2.48413 66.8686V52.5792L10.744 52.5676L18.9922 52.5637V66.8532Z" fill="#2B72B8"/>
<path d="M10.7441 52.5674L18.9924 57.3215V66.853L10.7441 71.6264V52.5674Z" fill="#26689B"/>
<g opacity="0.43">
<path d="M10.7402 52.8188L2.53833 52.7763V52.7376L10.7402 52.7801L18.9343 52.7222V52.7608L10.7402 52.8188Z" fill="#ACA6A5"/>
<path d="M10.7399 53.0545L2.53809 52.9501V52.9115L10.7399 53.0158L18.9341 52.896V52.9346L10.7399 53.0545Z" fill="#ACA6A5"/>
<path d="M10.7438 53.2904L2.53809 53.1281V53.0894L10.7399 53.2518L18.9341 53.074V53.1126L10.7438 53.2904Z" fill="#ACA6A5"/>
<path d="M10.7438 53.5261L2.53809 53.3058V53.2671L10.7438 53.4874L18.9341 53.2478V53.2865L10.7438 53.5261Z" fill="#ACA6A5"/>
<path d="M10.7438 53.7618L2.53809 53.4796V53.441L10.7438 53.7232L18.9341 53.4255V53.4642L10.7438 53.7618Z" fill="#ACA6A5"/>
<path d="M10.7438 53.9975L2.53809 53.6574V53.6187L10.7438 53.9589L18.9341 53.6033V53.6419L10.7438 53.9975Z" fill="#ACA6A5"/>
<path d="M10.7438 54.2334L2.53809 53.8353V53.7967L10.7438 54.1948L18.9341 53.7773V53.816L10.7438 54.2334Z" fill="#ACA6A5"/>
<path d="M10.7438 54.4691L2.53809 54.0092V53.9705L10.7438 54.4305L18.9341 53.9551V53.9937L10.7438 54.4691Z" fill="#ACA6A5"/>
<path d="M10.7438 54.7012L2.53809 54.1872V54.1485L10.7438 54.6626L18.9341 54.1331V54.1717L10.7438 54.7012Z" fill="#ACA6A5"/>
<path d="M10.7438 54.9369L2.53809 54.3649L2.54195 54.3262L10.7438 54.8983L18.9341 54.3069V54.3455L10.7438 54.9369Z" fill="#ACA6A5"/>
<path d="M10.7438 55.1726L2.53809 54.5387L2.54195 54.5001L10.7438 55.134L18.934 54.4846L18.9379 54.5233L10.7438 55.1726Z" fill="#ACA6A5"/>
<path d="M10.7438 55.4083L2.53809 54.7165L2.54195 54.6778L10.7438 55.3697L18.934 54.6624L18.9379 54.701L10.7438 55.4083Z" fill="#ACA6A5"/>
<path d="M10.7438 55.6442L2.53809 54.8905L2.54195 54.8558L10.7438 55.6056L18.934 54.8364L18.9379 54.8751L10.7438 55.6442Z" fill="#ACA6A5"/>
<path d="M10.7438 55.88L2.53809 55.0683L2.54195 55.0296L10.7438 55.8413L18.934 55.0142L18.9379 55.0528L10.7438 55.88Z" fill="#ACA6A5"/>
<path d="M10.7399 56.1157L2.53809 55.246L2.54195 55.2074L10.7399 56.077L18.934 55.1919L18.9379 55.2267L10.7399 56.1157Z" fill="#ACA6A5"/>
<path d="M10.7399 56.3513L2.53809 55.4198L2.54195 55.3812L10.7399 56.3127L18.934 55.3657L18.9379 55.4044L10.7399 56.3513Z" fill="#ACA6A5"/>
<path d="M10.7399 56.5873V56.5834L2.53809 55.5978L2.54195 55.5592L10.7399 56.5448L18.934 55.5437L18.9379 55.5824L10.7399 56.5873Z" fill="#ACA6A5"/>
<path d="M10.7399 56.8191L2.53809 55.7755L2.54195 55.7369L10.7399 56.7804L18.9302 55.7175L18.9379 55.7562L10.7399 56.8191Z" fill="#ACA6A5"/>
<path d="M10.7399 57.0551L2.53809 55.9496L2.54195 55.911L10.7399 57.0164L18.9302 55.8955L18.9379 55.9342L10.7399 57.0551Z" fill="#ACA6A5"/>
<path d="M10.7401 57.2908L2.53442 56.1274L2.54215 56.0887L10.7401 57.2521L18.9304 56.0732L18.9381 56.1119L10.7401 57.2908Z" fill="#ACA6A5"/>
<path d="M10.7401 57.5267L2.53442 56.3053L2.54215 56.2666L10.7401 57.488L18.9304 56.2473L18.9381 56.286L10.7401 57.5267Z" fill="#ACA6A5"/>
<path d="M10.7401 57.7621L2.53442 56.4789L2.54215 56.4403L10.7401 57.7235L18.9304 56.4248L18.9381 56.4635L10.7401 57.7621Z" fill="#ACA6A5"/>
<path d="M10.7401 57.9981L2.53442 56.6569L2.54215 56.6182L10.7401 57.9595L18.9304 56.6028L18.9381 56.6414L10.7401 57.9981Z" fill="#ACA6A5"/>
<path d="M10.7401 58.2338L2.53442 56.8346L2.54215 56.7959L10.7401 58.1951L18.9304 56.7766L18.9381 56.8153L10.7401 58.2338Z" fill="#ACA6A5"/>
<path d="M10.7401 58.4697V58.4659L2.53442 57.0087L2.54215 56.9701L10.7401 58.4311L18.9304 56.9546L18.9381 56.9932L10.7401 58.4697Z" fill="#ACA6A5"/>
<path d="M10.7401 58.7052V58.7013L2.53442 57.1862L2.54215 57.1475L10.7401 58.6627L18.9304 57.1321L18.9381 57.1669L10.7401 58.7052Z" fill="#ACA6A5"/>
<path d="M10.7401 58.9372H10.7363L2.53442 57.3603L2.54215 57.3255L10.7401 58.8986L18.9304 57.3062L18.9381 57.3448L10.7401 58.9372Z" fill="#ACA6A5"/>
<path d="M10.7401 59.173H10.7363L2.53442 57.538L2.54215 57.4993L10.7401 59.1343L18.9304 57.4839L18.9381 57.5225L10.7401 59.173Z" fill="#ACA6A5"/>
<path d="M10.7401 59.4089H10.7363L2.53442 57.716L2.54215 57.6773L10.7401 59.3703L18.9304 57.6619L18.9381 57.6967L10.7401 59.4089Z" fill="#ACA6A5"/>
<path d="M10.7401 59.6446H10.7363L2.53442 57.8898L2.54215 57.855L10.7401 59.6059L18.9304 57.8357L18.9381 57.8743L10.7401 59.6446Z" fill="#ACA6A5"/>
<path d="M10.7401 59.8805H10.7363L2.53442 58.0678L2.54215 58.0291L10.7401 59.8419L18.9304 58.0137L18.9381 58.0523L10.7401 59.8805Z" fill="#ACA6A5"/>
<path d="M10.7401 60.116H10.7363L2.53442 58.2453L2.54215 58.2066L10.7401 60.0774L18.9304 58.1912L18.9381 58.2259L10.7401 60.116Z" fill="#ACA6A5"/>
<path d="M10.7401 60.3519L10.7363 60.3481L2.53442 58.4193L2.54215 58.3846L10.7401 60.3094L18.9304 58.3652L18.9381 58.4039L10.7401 60.3519Z" fill="#ACA6A5"/>
<path d="M10.7401 60.5876L2.53442 58.5971L2.54215 58.5584L10.7401 60.5451L18.9304 58.543L18.9381 58.5816L10.7401 60.5876Z" fill="#ACA6A5"/>
<path d="M10.7401 60.8236L10.7363 60.8197L2.53442 58.7712L2.54215 58.7364L10.7401 60.7811L18.9304 58.7209L18.9381 58.7557L10.7401 60.8236Z" fill="#ACA6A5"/>
<path d="M10.7401 61.0554H10.7363L2.53442 58.9489L2.54215 58.9102L10.7401 61.0167L18.9304 58.8948L18.9381 58.9334L10.7401 61.0554Z" fill="#ACA6A5"/>
<path d="M10.7401 61.2911H10.7363L2.53442 59.1266L2.54215 59.088L10.7401 61.2525L18.9304 59.0725L18.9381 59.1073L10.7401 61.2911Z" fill="#ACA6A5"/>
<path d="M10.7401 61.5268H10.7363L2.53442 59.3004L2.54215 59.2657L10.7401 61.4881L18.9304 59.2463L18.9381 59.285L10.7401 61.5268Z" fill="#ACA6A5"/>
<path d="M10.7401 61.7627H10.7363L2.53442 59.4784L2.54215 59.4398L10.7401 61.7241L18.9304 59.4243L18.9381 59.463L10.7401 61.7627Z" fill="#ACA6A5"/>
<path d="M10.7401 61.9984H10.7363L2.53442 59.6562L2.54602 59.6175L10.7401 61.9598L18.9304 59.6021L18.9381 59.6368L10.7401 61.9984Z" fill="#ACA6A5"/>
<path d="M10.7401 62.2344L10.7363 62.2305L2.53442 59.8302L2.54602 59.7954L10.7401 62.1918L18.9304 59.7761L18.942 59.8148L10.7401 62.2344Z" fill="#ACA6A5"/>
<path d="M10.7401 62.4701L10.7363 62.4662L2.53442 60.008L2.54602 59.9693L10.7401 62.4276L18.9304 59.9539L18.942 59.9925L10.7401 62.4701Z" fill="#ACA6A5"/>
<path d="M10.7401 62.7058L10.7363 62.7019L2.53442 60.1857L2.54602 60.1471L10.7401 62.6633L18.9304 60.1316L18.942 60.1664L10.7401 62.7058Z" fill="#ACA6A5"/>
<path d="M10.7401 62.9415L10.7363 62.9376L2.53442 60.3595L2.54602 60.3247L10.7401 62.8989L18.9304 60.3054L18.942 60.3441L10.7401 62.9415Z" fill="#ACA6A5"/>
<path d="M10.7401 63.1735H10.7363L2.53442 60.5375L2.54602 60.4989L10.7401 63.1349L18.9304 60.4834L18.942 60.5221L10.7401 63.1735Z" fill="#ACA6A5"/>
<path d="M10.7401 63.4093H10.7363L2.53442 60.7114L2.54602 60.6766L10.7401 63.3706L18.9304 60.6611L18.942 60.6959L10.7401 63.4093Z" fill="#ACA6A5"/>
<path d="M10.7401 63.6452H10.7363L2.53442 60.8893L2.54602 60.8545L10.7401 63.6065L18.9304 60.8352L18.942 60.8739L10.7401 63.6452Z" fill="#ACA6A5"/>
<path d="M10.7401 63.8806H10.7363L2.53442 61.0668L2.54602 61.0282L10.7401 63.842L18.9304 61.0127L18.942 61.0475L10.7401 63.8806Z" fill="#ACA6A5"/>
<path d="M10.7401 64.1166L10.7363 64.1127L2.53442 61.2409L2.54602 61.2061L10.7401 64.0741L18.9265 61.1907L18.942 61.2255L10.7401 64.1166Z" fill="#ACA6A5"/>
<path d="M10.7401 64.3523L10.7363 64.3484L2.53442 61.4186L2.54602 61.3838L10.7401 64.3097L18.9265 61.3645L18.942 61.4032L10.7401 64.3523Z" fill="#ACA6A5"/>
<path d="M10.7401 64.5882L10.7362 64.5844L2.53052 61.5966L2.54598 61.5579L10.7401 64.5457L18.9265 61.5425L18.9419 61.5773L10.7401 64.5882Z" fill="#ACA6A5"/>
<path d="M10.7401 64.8239L10.7362 64.8201L2.53052 61.7705L2.54598 61.7357L10.7401 64.7814L18.9265 61.7202L18.9419 61.755L10.7401 64.8239Z" fill="#ACA6A5"/>
<path d="M10.7401 65.0598L10.7362 65.056L2.53052 61.9484L2.54598 61.9136L10.7401 65.0173L18.9265 61.8943L18.9419 61.9329L10.7401 65.0598Z" fill="#ACA6A5"/>
<path d="M10.7401 65.2914H10.7362L2.53052 62.1259L2.54598 62.0872L10.7401 65.2528L18.9265 62.0718L18.9419 62.1066L10.7401 65.2914Z" fill="#ACA6A5"/>
<path d="M10.7401 65.5274L2.53052 62.3L2.54598 62.2652L10.7401 65.4888L18.9265 62.2498L18.9419 62.2845L10.7401 65.5274Z" fill="#ACA6A5"/>
<path d="M10.7401 65.7631H10.7362L2.53052 62.4777L2.54598 62.4429L10.7401 65.7244L18.9265 62.4236L18.9419 62.4584L10.7401 65.7631Z" fill="#ACA6A5"/>
<path d="M10.7401 65.999L10.7362 65.9952L2.53052 62.6518L2.54598 62.617L10.7401 65.9565L18.9265 62.6016L18.9419 62.6363L10.7401 65.999Z" fill="#ACA6A5"/>
<path d="M10.7401 66.2347L10.7362 66.2309L2.53052 62.8295L2.54598 62.7948L10.7401 66.1922L18.9265 62.7793L18.9419 62.8141L10.7401 66.2347Z" fill="#ACA6A5"/>
<path d="M10.7401 66.4707L10.7324 66.4668L2.53052 63.0075L2.54598 62.9688L10.7401 66.4281L18.9265 62.9534L18.9419 62.9882L10.7401 66.4707Z" fill="#ACA6A5"/>
<path d="M10.7401 66.7061L10.7324 66.7023L2.53052 63.1811L2.54598 63.1463L10.7401 66.6636L18.9265 63.1309L18.9419 63.1656L10.7401 66.7061Z" fill="#ACA6A5"/>
<path d="M10.7401 66.9421L10.7324 66.9382L2.53052 63.3591L2.54598 63.3243L10.7401 66.8996L18.9265 63.3088L18.9419 63.3436L10.7401 66.9421Z" fill="#ACA6A5"/>
<path d="M10.7401 67.1777L10.7324 67.1739L2.53052 63.5368L2.54598 63.4981L10.7401 67.1352L18.9265 63.4827L18.9419 63.5175L10.7401 67.1777Z" fill="#ACA6A5"/>
<path d="M10.7401 67.4137L10.7324 67.4098L2.53052 63.7109L2.54598 63.6761L10.7401 67.3712L18.9265 63.6606L18.9419 63.6954L10.7401 67.4137Z" fill="#ACA6A5"/>
<path d="M10.7401 67.6455L10.7324 67.6416L2.53052 63.8886L2.54598 63.8538L10.7401 67.603L18.9265 63.8345L18.9419 63.8731L10.7401 67.6455Z" fill="#ACA6A5"/>
<path d="M10.7401 67.8812L10.7324 67.8774L2.53052 64.0625L2.54598 64.0277L10.7401 67.8387L18.9265 64.0122L18.9419 64.047L10.7401 67.8812Z" fill="#ACA6A5"/>
<path d="M10.7401 68.1169L10.7324 68.1131L2.53052 64.2402L2.54598 64.2054L10.7401 68.0744L18.9265 64.1899L18.9419 64.2247L10.7401 68.1169Z" fill="#ACA6A5"/>
<path d="M10.7401 68.3528L2.53052 64.4181L2.54598 64.3833L10.7401 68.3103L18.9265 64.364L18.9419 64.3988L10.7401 68.3528Z" fill="#ACA6A5"/>
<path d="M10.7401 68.5886L2.53052 64.592L2.54598 64.5572L10.7401 68.546L18.9265 64.5417L18.9419 64.5765L10.7401 68.5886Z" fill="#ACA6A5"/>
<path d="M10.7401 68.8245L10.7324 68.8206L2.53052 64.77L2.54598 64.7352L10.7401 68.782L18.9265 64.7197L18.9419 64.7545L10.7401 68.8245Z" fill="#ACA6A5"/>
<path d="M10.7401 69.0602L10.7324 69.0563L2.53052 64.9477L2.54598 64.9129L10.7401 69.0177L18.9265 64.8936L18.9419 64.9283L10.7401 69.0602Z" fill="#ACA6A5"/>
<path d="M10.7401 69.2959L10.7324 69.292L2.53052 65.1215L2.54598 65.0867L10.7401 69.2534L18.9265 65.0713L18.9419 65.1061L10.7401 69.2959Z" fill="#ACA6A5"/>
<path d="M10.7401 69.5316L10.7324 69.5239L2.53052 65.2993L2.54598 65.2645L10.7401 69.4852L18.9265 65.249L18.9419 65.2838L10.7401 69.5316Z" fill="#ACA6A5"/>
<path d="M10.7401 69.7637L10.7324 69.7598L2.53052 65.4733L2.54598 65.4424L10.7401 69.7211L18.9265 65.4231L18.9419 65.4579L10.7401 69.7637Z" fill="#ACA6A5"/>
<path d="M10.7401 69.9994L10.7324 69.9955L2.53052 65.6511L2.54598 65.6163L10.7401 69.9569L18.9265 65.6008L18.9419 65.6356L10.7401 69.9994Z" fill="#ACA6A5"/>
<path d="M10.7401 70.2351L10.7324 70.2312L2.53052 65.8288L2.54984 65.794L10.7401 70.1926L18.9265 65.7786L18.9419 65.8095L10.7401 70.2351Z" fill="#ACA6A5"/>
<path d="M10.7401 70.4708L10.7324 70.4669L2.53052 66.0026L2.54984 65.9717L10.7401 70.4282L18.9265 65.9524L18.9419 65.9872L10.7401 70.4708Z" fill="#ACA6A5"/>
<path d="M10.7401 70.7067L2.53052 66.1806L2.54984 66.1458L10.7401 70.6642L18.9265 66.1304L18.9458 66.1652L10.7401 70.7067Z" fill="#ACA6A5"/>
<path d="M10.7401 70.9424L10.7324 70.9386L2.53052 66.3584L2.54984 66.3236L10.7401 70.8999L18.9265 66.3081L18.9458 66.339L10.7401 70.9424Z" fill="#ACA6A5"/>
<path d="M10.7401 71.1783L10.7324 71.1706L2.53052 66.5324L2.54984 66.5015L10.7401 71.132L18.9265 66.4822L18.9458 66.517L10.7401 71.1783Z" fill="#ACA6A5"/>
<path d="M10.7401 71.414L10.7324 71.4063L2.53052 66.7102L2.54984 66.6754L10.7401 71.3677L18.9265 66.6599L18.9458 66.6947L10.7401 71.414Z" fill="#ACA6A5"/>
</g>
<g style="mix-blend-mode:multiply" opacity="0.25">
<path d="M18.6832 66.5826L15.104 57.1555L6.75144 59.5055L4.59082 63.3939L10.6746 71.3947L18.6832 66.5826Z" fill="#392E2D"/>
</g>
<path d="M15.5676 49V50.6195H12.5335V49H8.95048V50.6195H6.06322V49H2.48022V52.2583H18.9999V49H15.5676Z" fill="#1E4D85"/>
<path d="M3.2533 53.3329H18.2192V66.4087L10.7401 70.7377L3.2533 66.4241V53.3329ZM18.9883 52.5637H2.48413V66.8686L10.744 71.6266L18.9922 66.8532V52.5637H18.9883Z" fill="#1E4D85"/>
<path d="M10.5044 67.0425C13.9647 67.0425 16.7698 64.2374 16.7698 60.7771C16.7698 57.3168 13.9647 54.5117 10.5044 54.5117C7.04413 54.5117 4.23901 57.3168 4.23901 60.7771C4.23901 64.2374 7.04413 67.0425 10.5044 67.0425Z" fill="#275EA8"/>
<path d="M10.5045 67.3129C6.90215 67.3129 3.96851 64.3793 3.96851 60.7769C3.96851 57.1746 6.89829 54.241 10.5045 54.241C14.1107 54.241 17.0404 57.1746 17.0404 60.7769C17.0404 64.3793 14.1068 67.3129 10.5045 67.3129ZM10.5045 54.7821C7.19977 54.7821 4.50963 57.4722 4.50963 60.7769C4.50963 64.0816 7.19977 66.7718 10.5045 66.7718C13.8092 66.7718 16.4993 64.0816 16.4993 60.7769C16.4993 57.4722 13.8092 54.7821 10.5045 54.7821Z" fill="white"/>
<path d="M9.60388 61.2332C9.59229 61.1482 9.51498 61.0902 9.42995 61.1018C9.34492 61.1134 9.28694 61.1907 9.29854 61.2757C9.46087 62.4778 9.02797 63.6953 8.13899 64.5263C8.07715 64.5843 8.07328 64.6809 8.13126 64.7428C8.16218 64.7737 8.20083 64.793 8.24335 64.793C8.282 64.793 8.32065 64.7776 8.34771 64.7505C9.31013 63.8499 9.78168 62.5358 9.60388 61.2332Z" fill="white"/>
<path d="M7.36607 61.411C7.36607 61.411 7.36608 61.3955 7.35835 61.3917C7.32742 61.2332 7.3081 61.067 7.30037 60.9085C7.30037 60.8235 7.22306 60.7578 7.13803 60.7616C7.053 60.7616 6.98729 60.8351 6.99116 60.924C6.99889 61.1095 7.02208 61.295 7.05686 61.4767C7.05686 61.4844 7.05686 61.4922 7.06459 61.496C7.16509 62.0333 6.96796 62.586 6.55053 62.9416C6.48482 62.9957 6.47709 63.0923 6.5312 63.158C6.56212 63.1928 6.60464 63.2121 6.64716 63.2121C6.68194 63.2121 6.71673 63.2005 6.74765 63.1735C7.25785 62.7406 7.49362 62.0642 7.36221 61.411H7.36607Z" fill="white"/>
<path d="M8.23563 62.6403C8.15446 62.6093 8.06556 62.648 8.03464 62.7292C7.86844 63.1543 7.59401 63.5331 7.24228 63.823C7.17658 63.8771 7.16498 63.9737 7.21909 64.0394C7.25002 64.0781 7.29253 64.0974 7.33891 64.0974C7.3737 64.0974 7.40849 64.0858 7.43554 64.0626C7.82979 63.738 8.13513 63.3167 8.32066 62.8413C8.35158 62.7601 8.31293 62.6712 8.23176 62.6403H8.23563Z" fill="white"/>
<path d="M6.80159 58.2687C6.82865 58.288 6.85957 58.2996 6.89436 58.2996C6.94074 58.2996 6.98712 58.2764 7.01804 58.2377C7.65579 57.3642 8.59116 56.7651 9.65021 56.5525C10.5894 56.3632 11.5441 56.4868 12.4022 56.9081C12.4795 56.9468 12.5723 56.9159 12.607 56.8386C12.6457 56.7613 12.6148 56.6685 12.5375 56.6337C11.6176 56.1815 10.5972 56.0501 9.58836 56.2549C8.45201 56.483 7.45094 57.1246 6.76681 58.06C6.71656 58.1295 6.73202 58.2262 6.80159 58.2764V58.2687Z" fill="white"/>
<path d="M6.27209 61.6312C6.27209 61.6312 6.27209 61.6235 6.26823 61.6196C6.07497 60.6572 6.21025 59.6832 6.65861 58.8097C6.69726 58.7324 6.66634 58.6396 6.5929 58.601C6.51559 58.5623 6.42283 58.5932 6.38418 58.6667C5.9049 59.6059 5.75803 60.6495 5.96674 61.6854C5.96674 61.6892 5.97061 61.697 5.97447 61.7008C5.98607 61.7627 6.00153 61.8206 6.01313 61.8825C6.03245 61.9521 6.09429 61.9984 6.16387 61.9984C6.17546 61.9984 6.18706 61.9984 6.20252 61.9946C6.28369 61.9752 6.33393 61.8902 6.31461 61.809C6.29915 61.7472 6.28755 61.6854 6.27209 61.6235V61.6312Z" fill="white"/>
<path d="M9.80856 57.3411C8.37846 57.631 7.29235 58.7442 7.04498 60.182C7.02952 60.2671 7.0875 60.3444 7.17253 60.3598C7.25756 60.3753 7.33486 60.3173 7.35033 60.2323C7.57837 58.922 8.56785 57.9054 9.8704 57.6426C11.602 57.2948 13.2911 58.4156 13.6389 60.1472C13.6389 60.1511 13.6389 60.155 13.6389 60.1627C13.666 60.3018 13.6892 60.441 13.7124 60.5763C13.724 60.6536 13.7897 60.7077 13.8631 60.7077C13.8708 60.7077 13.8786 60.7077 13.8863 60.7077C13.9713 60.6961 14.0293 60.6188 14.0177 60.5337C13.9984 60.3907 13.9713 60.24 13.9404 60.0931C13.9404 60.0893 13.9404 60.0815 13.9365 60.0777C13.5462 58.1876 11.6986 56.9662 9.8047 57.345L9.80856 57.3411Z" fill="white"/>
<path d="M11.7528 60.5258C11.6871 60.1934 11.4938 59.9035 11.2078 59.7142C10.9257 59.5248 10.5855 59.4591 10.2493 59.5248C9.74679 59.6253 9.35641 60.0156 9.25205 60.5142C9.23659 60.5993 9.28683 60.6804 9.37187 60.6959C9.4569 60.7114 9.53807 60.6611 9.55353 60.5761C9.63083 60.1973 9.92845 59.9035 10.3072 59.8262C10.5585 59.776 10.8174 59.8262 11.0339 59.9693C11.2426 60.1084 11.3895 60.321 11.4436 60.5645C11.4436 60.5722 11.4436 60.5761 11.4436 60.5838C11.5209 60.9703 11.5634 61.3646 11.5634 61.7588C11.5634 61.8439 11.633 61.9134 11.718 61.9134C11.803 61.9134 11.8726 61.8439 11.8726 61.7588C11.8726 61.353 11.8301 60.9433 11.7528 60.5452C11.7528 60.5374 11.7528 60.5336 11.7528 60.5258Z" fill="white"/>
<path d="M10.655 60.75C10.6396 60.665 10.5584 60.6148 10.4734 60.6302C10.3883 60.6457 10.3342 60.7269 10.3536 60.8119C10.6589 62.3193 10.2492 63.846 9.23266 65.0017C9.17468 65.0674 9.18242 65.164 9.24812 65.2182C9.27904 65.2452 9.31383 65.2568 9.34862 65.2568C9.39113 65.2568 9.43365 65.2375 9.46457 65.2027C10.5429 63.9736 10.9797 62.3502 10.655 60.75Z" fill="white"/>
<path d="M15.0384 59.8651C15.0384 59.8651 15.0345 59.8574 15.0345 59.8535C14.7988 58.6901 14.134 57.6774 13.1599 56.9933C13.0904 56.943 12.9937 56.9624 12.9435 57.0319C12.8932 57.1015 12.9126 57.1981 12.9821 57.2484C13.8904 57.8861 14.5127 58.837 14.7331 59.9269C14.7331 59.9308 14.7331 59.9347 14.7369 59.9385C14.7988 60.2439 14.8258 60.557 14.8219 60.8662C14.8219 60.9512 14.8877 61.0208 14.9727 61.0246C15.0577 61.0246 15.1234 60.9589 15.1273 60.8739C15.135 60.5376 15.1041 60.1975 15.0345 59.8651H15.0384Z" fill="white"/>
<path d="M12.8466 60.3055C12.719 59.6794 12.3596 59.1383 11.8262 58.7865C11.2928 58.4348 10.655 58.3073 10.0289 58.4348C8.73792 58.6938 7.89531 59.9577 8.15814 61.2525C8.15814 61.2602 8.16201 61.2718 8.16587 61.2796C8.21612 61.5385 8.22772 61.7975 8.19679 62.0564C8.18906 62.1415 8.24704 62.2188 8.33207 62.2265C8.41324 62.2342 8.49441 62.1763 8.50214 62.0912C8.53306 61.7936 8.52147 61.4921 8.45962 61.1945C8.45962 61.1868 8.45576 61.1752 8.45189 61.1675C8.24318 60.0504 8.96982 58.9643 10.0869 58.7401C10.6318 58.6319 11.1884 58.7401 11.6522 59.0455C12.1122 59.3508 12.4291 59.8185 12.5412 60.3596C12.5412 60.3596 12.5412 60.3674 12.5412 60.3712C12.7113 61.2216 12.7306 62.0835 12.5876 62.93C12.5721 63.015 12.6301 63.0923 12.7152 63.1078C12.7229 63.1078 12.7306 63.1078 12.7422 63.1078C12.8156 63.1078 12.8814 63.0537 12.893 62.9802C13.0398 62.099 13.0205 61.2022 12.8466 60.3171C12.8466 60.3171 12.8466 60.3094 12.8466 60.3055Z" fill="white"/>
<path d="M13.9328 61.1017C13.8478 61.1055 13.7821 61.179 13.7898 61.264C13.8439 62.1491 13.7589 63.0304 13.5308 63.8884C13.5076 63.9696 13.5579 64.0546 13.639 64.0778C13.6506 64.0778 13.6661 64.0817 13.6777 64.0817C13.7473 64.0817 13.8091 64.0353 13.8284 63.9657C14.0642 63.0767 14.157 62.1607 14.099 61.2408C14.0951 61.1558 14.0217 61.0901 13.9367 61.0978L13.9328 61.1017Z" fill="white"/>
<path d="M12.6341 63.502C12.553 63.4788 12.4679 63.5291 12.4447 63.6102C12.3288 64.047 12.1665 64.4799 11.9693 64.8857C11.9307 64.963 11.9655 65.0558 12.0389 65.0906C12.0621 65.1022 12.0853 65.106 12.1046 65.106C12.1626 65.106 12.2167 65.0751 12.2438 65.021C12.4525 64.5958 12.6187 64.1475 12.7424 63.6875C12.7655 63.6064 12.7153 63.5213 12.6341 63.4981V63.502Z" fill="white"/>
<path d="M11.6988 62.3193C11.6137 62.3116 11.5364 62.3695 11.5287 62.4546C11.4166 63.4209 11.0687 64.3562 10.516 65.1602C10.4696 65.2298 10.4851 65.3264 10.5547 65.3728C10.5817 65.3921 10.6126 65.3998 10.6436 65.3998C10.6938 65.3998 10.7402 65.3766 10.7711 65.3341C11.3509 64.4876 11.7181 63.502 11.834 62.4894C11.8418 62.4043 11.7838 62.327 11.6988 62.3193Z" fill="white"/>
<path d="M10.9257 54.821H1V51.6013H10.9257L10.1372 53.1667L10.9257 54.821Z" fill="#4E8BC7"/>
<path d="M3.71339 52.1809V52.5558H2.73551V53.0235H3.58198V53.3675H2.73551V54.2024H2.29102V52.1809H3.71339Z" fill="white"/>
<path d="M4.413 52.1809V54.2024H3.96851V52.1809H4.413Z" fill="white"/>
<path d="M5.67699 52.1811C5.80841 52.1811 5.92823 52.2004 6.04031 52.2429C6.1524 52.2854 6.24903 52.3473 6.3302 52.4284C6.41137 52.5096 6.47708 52.614 6.52346 52.7415C6.56984 52.8652 6.59303 53.0121 6.59303 53.1783C6.59303 53.3252 6.57371 53.4604 6.53505 53.5841C6.4964 53.7078 6.43842 53.816 6.36499 53.9049C6.28768 53.9938 6.19492 54.0673 6.07897 54.1175C5.96688 54.1678 5.8316 54.1948 5.67699 54.1948H4.80347V52.1733H5.67699V52.1811ZM5.64607 53.8276C5.71178 53.8276 5.77362 53.816 5.8316 53.7967C5.89344 53.7774 5.94755 53.7426 5.99393 53.6923C6.04031 53.6421 6.07897 53.5803 6.10602 53.503C6.13308 53.4256 6.14854 53.3329 6.14854 53.2208C6.14854 53.1203 6.13694 53.0275 6.11762 52.9464C6.09829 52.8652 6.06737 52.7956 6.02099 52.7338C5.97461 52.6719 5.91663 52.6294 5.84319 52.5985C5.76975 52.5676 5.67699 52.5521 5.56877 52.5521H5.25182V53.8238H5.64607V53.8276Z" fill="white"/>
<path d="M6.88281 52.7802C6.92919 52.6527 6.99489 52.5367 7.07606 52.4401C7.15723 52.3434 7.26546 52.27 7.38914 52.212C7.51282 52.1579 7.65197 52.1309 7.80658 52.1309C7.96118 52.1309 8.10419 52.1579 8.22401 52.212C8.34383 52.2661 8.45206 52.3434 8.53322 52.4401C8.61826 52.5367 8.68396 52.6488 8.73035 52.7802C8.77673 52.9116 8.79992 53.0508 8.79992 53.2015C8.79992 53.3522 8.77673 53.4875 8.73035 53.6151C8.68396 53.7426 8.61826 53.8547 8.53322 53.9475C8.44819 54.0402 8.34383 54.1175 8.22401 54.1717C8.10033 54.2258 7.96118 54.2528 7.80658 54.2528C7.65197 54.2528 7.51282 54.2258 7.38914 54.1717C7.26546 54.1175 7.1611 54.0441 7.07606 53.9475C6.99103 53.8509 6.92532 53.7426 6.88281 53.6151C6.84029 53.4875 6.81323 53.3522 6.81323 53.2015C6.81323 53.0508 6.83642 52.9116 6.88281 52.7802ZM7.28865 53.4489C7.30797 53.53 7.33889 53.5996 7.38527 53.6653C7.43166 53.731 7.48577 53.7813 7.55534 53.8199C7.62491 53.8586 7.70995 53.8779 7.81044 53.8779C7.91094 53.8779 7.99597 53.8586 8.06554 53.8199C8.13511 53.7813 8.19309 53.731 8.23561 53.6653C8.27812 53.5996 8.30904 53.53 8.33224 53.4489C8.35156 53.3677 8.36316 53.2865 8.36316 53.2015C8.36316 53.1165 8.35156 53.0276 8.33224 52.9425C8.31291 52.8614 8.28199 52.7841 8.23561 52.7222C8.18923 52.6604 8.13511 52.6063 8.06554 52.5676C7.99597 52.529 7.91094 52.5096 7.81044 52.5096C7.70995 52.5096 7.62491 52.529 7.55534 52.5676C7.48577 52.6063 7.42779 52.6565 7.38527 52.7222C7.34276 52.7879 7.31184 52.8614 7.28865 52.9425C7.26932 53.0237 7.25772 53.1126 7.25772 53.2015C7.25772 53.2904 7.26932 53.3677 7.28865 53.4489Z" fill="white"/>
<path d="M20 89.4437L10.507 94.9401L1 89.4648V78.493L10.507 73L20 78.4754V89.4437Z" fill="#308A36"/>
<path d="M10.5068 73L19.9998 78.4754V89.4437L10.5068 94.9401V73Z" fill="#317430"/>
<path d="M10.507 74.0246L19.1127 78.9894V88.9366L10.5035 93.919L1.88732 88.9507V79.0035L10.507 74.0246ZM10.507 73L1 78.493V89.4613L10.507 94.9366L20 89.4437V78.4754L10.507 73Z" fill="#392E2D"/>
<path d="M18.5846 88.6304L10.5037 93.3064L2.41211 88.6445V79.3099L10.5037 74.6304L18.5846 79.2923V88.6304Z" fill="#106A31"/>
<path d="M17.4155 87.9543L10.5035 91.9543L3.58447 87.9683V79.9824L10.5035 75.9824L17.4155 79.9683V87.9543Z" fill="#095F2C"/>
<path d="M16.0914 87.1903L10.5034 90.4262L4.90479 87.2044L4.90831 80.7467L10.5034 77.5107L16.0914 80.7361V87.1903Z" fill="#174B22"/>
<path d="M19.7676 89.4366L10.5247 94.2289V73.9753L19.4578 78.7993L19.7676 89.4366Z" fill="#317430"/>
<g style="mix-blend-mode:multiply" opacity="0.43">
<path d="M1.07044 78.6939L1.04932 78.6551L10.5035 73.2432L10.5141 73.2502L19.9437 78.6305L19.9226 78.6692L10.5035 73.2925L1.07044 78.6939Z" fill="#ACA6A5"/>
<path d="M1.07044 78.8275L1.04932 78.7888L10.5035 73.5142L10.5141 73.5212L19.9437 78.7677L19.9226 78.8064L10.5035 73.5635L1.07044 78.8275Z" fill="#ACA6A5"/>
<path d="M1.07044 78.965L1.04932 78.9262L10.5035 73.7854L10.5141 73.7889L19.9437 78.9016L19.9226 78.9403L10.5035 73.8347L1.07044 78.965Z" fill="#ACA6A5"/>
<path d="M1.07044 79.0986L1.04932 79.0599L10.5035 74.0564L10.5141 74.0599L19.9437 79.0388L19.9226 79.0775L10.5035 74.1057L1.07044 79.0986Z" fill="#ACA6A5"/>
<path d="M1.07044 79.2361L1.04932 79.1974L10.5035 74.3276L10.5106 74.3312L19.9437 79.1727L19.9226 79.2114L10.5035 74.3769L1.07044 79.2361Z" fill="#ACA6A5"/>
<path d="M1.07044 79.3699L1.04932 79.3311L10.5035 74.5952L10.5106 74.6023L19.9437 79.3065L19.9226 79.3487L10.5035 74.648L1.07044 79.3699Z" fill="#ACA6A5"/>
<path d="M1.07044 79.5073L1.04932 79.4686L10.5035 74.8665L10.5106 74.8735L19.9437 79.4439L19.9261 79.4827L10.5035 74.9158L1.07044 79.5073Z" fill="#ACA6A5"/>
<path d="M1.07044 79.641L1.04932 79.6022L10.5035 75.1375L10.5106 75.141L19.9437 79.5776L19.9261 79.6198L10.5035 75.1867L1.07044 79.641Z" fill="#ACA6A5"/>
<path d="M1.07044 79.7784L1.04932 79.7362L10.5035 75.4087L10.5106 75.4122L19.9437 79.715L19.9261 79.7538L10.5035 75.458L1.07044 79.7784Z" fill="#ACA6A5"/>
<path d="M1.06692 79.9121L1.04932 79.8733L10.5035 75.6797L10.5106 75.6832L19.9437 79.8487L19.9261 79.891L10.5035 75.729L1.06692 79.9121Z" fill="#ACA6A5"/>
<path d="M1.06692 80.0495L1.04932 80.0073L10.5035 75.9509L10.5106 75.9544L19.9437 79.9861L19.9261 80.0249L10.5035 76.0002L1.06692 80.0495Z" fill="#ACA6A5"/>
<path d="M1.06706 80.1832L1.05298 80.1445L10.5037 76.2219L10.5107 76.2254L19.9438 80.1198L19.9262 80.1621L10.5037 76.2677L1.06706 80.1832Z" fill="#ACA6A5"/>
<path d="M1.06706 80.3206L1.05298 80.2784L10.5037 76.4932L10.5107 76.4967L19.9438 80.2537L19.9262 80.296L10.5037 76.5389L1.06706 80.3206Z" fill="#ACA6A5"/>
<path d="M1.06706 80.4543L1.05298 80.4156L10.5037 76.7642H10.5107L19.9403 80.3909L19.9262 80.4332L10.5037 76.8099L1.06706 80.4543Z" fill="#ACA6A5"/>
<path d="M1.06706 80.5916L1.05298 80.5493L10.5037 77.0317L10.5107 77.0353L19.9403 80.5247L19.9262 80.5669L10.5037 77.081L1.06706 80.5916Z" fill="#ACA6A5"/>
<path d="M1.06706 80.7253L1.05298 80.683L10.5037 77.3027L10.5107 77.3063L19.9403 80.6619L19.9262 80.7041L10.5037 77.352L1.06706 80.7253Z" fill="#ACA6A5"/>
<path d="M1.06706 80.8627L1.05298 80.8205L10.5037 77.574L19.9403 80.7958L19.9262 80.8381L10.5037 77.6197L1.06706 80.8627Z" fill="#ACA6A5"/>
<path d="M1.06706 80.9966L1.05298 80.9544L10.5037 77.8452L10.5107 77.8487L19.9403 80.9332L19.9262 80.9755L10.5037 77.891L1.06706 80.9966Z" fill="#ACA6A5"/>
<path d="M1.06706 81.1338L1.05298 81.0916L10.5037 78.1162H10.5107L19.9403 81.0669L19.9262 81.1092L10.5037 78.162L1.06706 81.1338Z" fill="#ACA6A5"/>
<path d="M1.06706 81.2677L1.05298 81.2255L10.5037 78.3875H10.5072L19.9403 81.2044L19.9262 81.2466L10.5037 78.4332L1.06706 81.2677Z" fill="#ACA6A5"/>
<path d="M1.06706 81.4049L1.05298 81.3627L10.5037 78.6584H10.5072L19.9403 81.338L19.9297 81.3803L10.5037 78.7042L1.06706 81.4049Z" fill="#ACA6A5"/>
<path d="M1.06706 81.5388L1.05298 81.4966L10.5037 78.9297H10.5072L19.9403 81.4719L19.9297 81.5177L10.5037 78.9755L1.06706 81.5388Z" fill="#ACA6A5"/>
<path d="M1.06354 81.6761L1.05298 81.6304L10.5037 79.1973L10.5072 79.2008L19.9403 81.6092L19.9297 81.6515L10.5037 79.243L1.06354 81.6761Z" fill="#ACA6A5"/>
<path d="M1.06354 81.8101L1.05298 81.7678L10.5037 79.4685L10.5072 79.472L19.9403 81.7432L19.9297 81.7889L10.5037 79.5143L1.06354 81.8101Z" fill="#ACA6A5"/>
<path d="M1.06344 81.9472L1.0564 81.9015L10.5036 79.7395H10.5071L19.9402 81.8803L19.9296 81.9226L10.5036 79.7853L1.06344 81.9472Z" fill="#ACA6A5"/>
<path d="M1.06344 82.0812L1.0564 82.0389L10.5036 80.0107H10.5071L19.9402 82.0143L19.9296 82.0565L10.5036 80.0565L1.06344 82.0812Z" fill="#ACA6A5"/>
<path d="M1.06344 82.2184L1.0564 82.1726L10.5036 80.2817H10.5071L19.9367 82.1515L19.9296 82.1937L10.5036 80.3275L1.06344 82.2184Z" fill="#ACA6A5"/>
<path d="M1.06344 82.3523L1.0564 82.31L10.5036 80.553H10.5071L19.9367 82.2854L19.9296 82.3276L10.5036 80.5952L1.06344 82.3523Z" fill="#ACA6A5"/>
<path d="M1.06344 82.4895L1.0564 82.4437L10.5036 80.824H10.5071L19.9367 82.4226L19.9296 82.4648L10.5036 80.8662L1.06344 82.4895Z" fill="#ACA6A5"/>
<path d="M1.06344 82.6235L1.0564 82.5812L10.5036 81.0918L10.5071 81.0953L19.9367 82.5566L19.9296 82.5988L10.5036 81.1376L1.06344 82.6235Z" fill="#ACA6A5"/>
<path d="M1.06344 82.7572L1.0564 82.7149L10.5036 81.3628L19.9367 82.6903L19.9296 82.736L10.5036 81.4086L1.06344 82.7572Z" fill="#ACA6A5"/>
<path d="M1.06344 82.8946L1.0564 82.8488L10.5036 81.634L19.9367 82.8277L19.9296 82.8699L10.5036 81.6798L1.06344 82.8946Z" fill="#ACA6A5"/>
<path d="M1.06344 83.0283L1.0564 82.986L10.5036 81.905L19.9367 82.9614L19.9332 83.0071L10.5036 81.9508L1.06344 83.0283Z" fill="#ACA6A5"/>
<path d="M1.06344 83.1657L1.0564 83.1199L10.5001 82.1763L19.9367 83.0988L19.9332 83.1411L10.5001 82.2185L1.06344 83.1657Z" fill="#ACA6A5"/>
<path d="M1.05992 83.2994L1.0564 83.2571L10.5001 82.4473L19.9367 83.2325L19.9332 83.2783L10.5001 82.4895L1.05992 83.2994Z" fill="#ACA6A5"/>
<path d="M1.05992 83.4368L1.0564 83.391L10.5001 82.7185L19.9367 83.3699L19.9332 83.4122L10.5001 82.7608L1.05992 83.4368Z" fill="#ACA6A5"/>
<path d="M1.06006 83.5706V83.5283L10.5002 82.9861L19.9368 83.5037L19.9333 83.5495L10.5002 83.0319L1.06006 83.5706Z" fill="#ACA6A5"/>
<path d="M1.06006 83.708V83.6623L10.5002 83.2573L19.9333 83.6411V83.6834L10.5002 83.3031L1.06006 83.708Z" fill="#ACA6A5"/>
<path d="M1.06006 83.8417V83.7994L10.5002 83.5283L19.9333 83.7748V83.8206L10.5002 83.5741L1.06006 83.8417Z" fill="#ACA6A5"/>
<path d="M1.06006 83.9789V83.9331L10.5037 83.7993L19.9333 83.9085V83.9542L10.5037 83.8451L1.06006 83.9789Z" fill="#ACA6A5"/>
<path d="M10.5037 84.1128H1.06006V84.0705H10.5037L19.9333 84.0459V84.0917L10.5037 84.1128Z" fill="#ACA6A5"/>
<path d="M10.5037 84.3839L1.06006 84.2501V84.2043L10.5037 84.3417L19.9333 84.1797V84.2255L10.5037 84.3839Z" fill="#ACA6A5"/>
<path d="M10.5037 84.6549L1.06006 84.3838V84.338L10.5037 84.6091L19.9333 84.3169V84.3591L10.5037 84.6549Z" fill="#ACA6A5"/>
<path d="M10.5037 84.926L1.06006 84.5211V84.4753L10.5037 84.8803L19.9333 84.4507V84.4965L10.5037 84.926Z" fill="#ACA6A5"/>
<path d="M10.5037 85.1973L1.06006 84.655V84.6093L10.5037 85.1515L19.9333 84.5881L19.9368 84.6304L10.5037 85.1973Z" fill="#ACA6A5"/>
<path d="M10.5036 85.4684L1.0564 84.7888L1.05992 84.7466L10.5036 85.4226L19.9332 84.7219L19.9367 84.7677L10.5036 85.4684Z" fill="#ACA6A5"/>
<path d="M10.5036 85.7359L1.0564 84.926L1.05992 84.8803L10.5036 85.6936L19.9332 84.8591L19.9367 84.9014L10.5036 85.7359Z" fill="#ACA6A5"/>
<path d="M10.5036 86.0072H10.5001L1.0564 85.0601L1.06344 85.0178L10.5036 85.965L19.9332 84.9932L19.9367 85.0389L10.5036 86.0072Z" fill="#ACA6A5"/>
<path d="M10.5036 86.2783H10.5001L1.0564 85.1973L1.06344 85.1515L10.5036 86.236L19.9296 85.1304L19.9367 85.1726L10.5036 86.2783Z" fill="#ACA6A5"/>
<path d="M10.5036 86.5494H10.5001L1.0564 85.3311L1.06344 85.2888L10.5036 86.5036L19.9296 85.2642L19.9367 85.3099L10.5036 86.5494Z" fill="#ACA6A5"/>
<path d="M10.5036 86.8204H10.5001L1.0564 85.4683L1.06344 85.4225L10.5036 86.7746L19.9296 85.4014L19.9367 85.4436L10.5036 86.8204Z" fill="#ACA6A5"/>
<path d="M10.5036 87.0917H10.5001L1.0564 85.6023L1.06344 85.56L10.5036 87.046L19.9296 85.5354L19.9367 85.5812L10.5036 87.0917Z" fill="#ACA6A5"/>
<path d="M10.5036 87.3627L10.5001 87.3592L1.0564 85.7395L1.06344 85.6937L10.5036 87.317L19.9296 85.6726L19.9367 85.7149L10.5036 87.3627Z" fill="#ACA6A5"/>
<path d="M10.5036 87.6303H10.5001L1.0564 85.8733L1.06344 85.831L10.5036 87.5881L19.9296 85.8064L19.9367 85.8487L10.5036 87.6303Z" fill="#ACA6A5"/>
<path d="M10.5036 87.9016H10.4965L1.0564 86.0072L1.06344 85.965L10.5036 87.8593L19.9296 85.9438L19.9367 85.9861L10.5036 87.9016Z" fill="#ACA6A5"/>
<path d="M10.5036 88.1727H10.4965L1.0564 86.1445L1.06344 86.1023L10.5036 88.1269L19.9296 86.0776L19.9402 86.1199L10.5036 88.1727Z" fill="#ACA6A5"/>
<path d="M10.5036 88.4438H10.4965L1.0564 86.2783L1.06344 86.2361L10.5036 88.398L19.9296 86.2114L19.9402 86.2572L10.5036 88.4438Z" fill="#ACA6A5"/>
<path d="M10.5037 88.7148H10.4966L1.05298 86.4155L1.06354 86.3733L10.5037 88.6691L19.9297 86.3486L19.9403 86.3909L10.5037 88.7148Z" fill="#ACA6A5"/>
<path d="M10.5037 88.9859L10.4966 88.9824L1.05298 86.5493L1.06354 86.5071L10.5037 88.9402L19.9297 86.4824L19.9403 86.5282L10.5037 88.9859Z" fill="#ACA6A5"/>
<path d="M10.5037 89.2572L10.4966 89.2537L1.05298 86.6868L1.06706 86.6445L10.5037 89.2114L19.9297 86.6199L19.9403 86.6621L10.5037 89.2572Z" fill="#ACA6A5"/>
<path d="M10.5037 89.5283L1.05298 86.8206L1.06706 86.7783L10.5037 89.479L19.9262 86.7537L19.9403 86.7959L10.5037 89.5283Z" fill="#ACA6A5"/>
<path d="M10.5037 89.7958H10.4966L1.05298 86.9578L1.06706 86.912L10.5037 89.75L19.9262 86.8909L19.9403 86.9331L10.5037 89.7958Z" fill="#ACA6A5"/>
<path d="M10.5037 90.0672H10.4966L1.05298 87.0918L1.06706 87.0496L10.5037 90.0214L19.9262 87.0249L19.9403 87.0672L10.5037 90.0672Z" fill="#ACA6A5"/>
<path d="M10.5037 90.3382H10.4966L1.05298 87.2255L1.06706 87.1832L10.5037 90.2924L19.9262 87.1621L19.9403 87.2044L10.5037 90.3382Z" fill="#ACA6A5"/>
<path d="M10.5037 90.6093L10.4966 90.6058L1.05298 87.3628L1.06706 87.3205L10.5037 90.5635L19.9262 87.2959L19.9403 87.3382L10.5037 90.6093Z" fill="#ACA6A5"/>
<path d="M10.5037 90.8803L10.4966 90.8768L1.05298 87.4965L1.06706 87.4542L10.5037 90.8345L19.9262 87.4331L19.9403 87.4754L10.5037 90.8803Z" fill="#ACA6A5"/>
<path d="M10.5037 91.1516L10.4931 91.1481L1.05298 87.634L1.06706 87.5918L10.5037 91.1024L19.9262 87.5671L19.9403 87.6094L10.5037 91.1516Z" fill="#ACA6A5"/>
<path d="M10.5037 91.4227L10.4931 91.4191L1.05298 87.7677L1.06706 87.7255L10.5037 91.3734L19.9262 87.7043L19.9403 87.7466L10.5037 91.4227Z" fill="#ACA6A5"/>
<path d="M10.5037 91.6938L10.4931 91.6902L1.05298 87.905L1.06706 87.8628L10.5037 91.6445L19.9262 87.8381L19.9438 87.8804L10.5037 91.6938Z" fill="#ACA6A5"/>
<path d="M10.5037 91.9615L10.4931 91.958L1.05298 88.039L1.06706 87.9967L10.5037 91.9157L19.9262 87.9756L19.9438 88.0143L10.5037 91.9615Z" fill="#ACA6A5"/>
<path d="M10.5035 92.2326L1.04932 88.1728L1.06692 88.134L10.5035 92.1868L19.9261 88.1094L19.9437 88.1516L10.5035 92.2326Z" fill="#ACA6A5"/>
<path d="M10.5035 92.5036L10.493 92.5001L1.04932 88.31L1.06692 88.2677L10.5035 92.4543L19.9261 88.2466L19.9437 88.2853L10.5035 92.5036Z" fill="#ACA6A5"/>
<path d="M10.5035 92.7747L10.493 92.7712L1.04932 88.4438L1.07044 88.405L10.5035 92.7254L19.9261 88.3804L19.9437 88.4226L10.5035 92.7747Z" fill="#ACA6A5"/>
<path d="M10.5035 93.046L10.493 93.0425L1.04932 88.5812L1.07044 88.5389L10.5035 92.9967L19.9261 88.5178L19.9437 88.5566L10.5035 93.046Z" fill="#ACA6A5"/>
<path d="M10.5035 93.3171L10.493 93.3136L1.04932 88.715L1.07044 88.6763L10.5035 93.2678L19.9226 88.6516L19.9437 88.6939L10.5035 93.3171Z" fill="#ACA6A5"/>
<path d="M10.5035 93.5881L1.04932 88.8522L1.07044 88.8099L10.5035 93.5388L19.9226 88.7888L19.9437 88.8276L10.5035 93.5881Z" fill="#ACA6A5"/>
<path d="M10.5035 93.8592L10.493 93.8522L1.04932 88.986L1.07044 88.9473L10.5035 93.8064L19.9226 88.9226L19.9437 88.9613L10.5035 93.8592Z" fill="#ACA6A5"/>
<path d="M10.5035 94.127L10.493 94.1234L1.04932 89.1199L1.07044 89.0812L10.5035 94.0777L19.9226 89.0601L19.9437 89.0988L10.5035 94.127Z" fill="#ACA6A5"/>
<path d="M10.5035 94.3981L10.493 94.3946L1.04932 89.2572L1.07044 89.2185L10.5035 94.3488L19.9226 89.1938L19.9437 89.2326L10.5035 94.3981Z" fill="#ACA6A5"/>
<path d="M10.5035 94.6691L10.493 94.6656L1.04932 89.3909L1.07044 89.3522L10.5035 94.6198L19.9226 89.3311L19.9437 89.3698L10.5035 94.6691Z" fill="#ACA6A5"/>
</g>
<path d="M15.0068 91.3097L17.0139 90.1513V77.778L15.0068 76.6125V91.3097Z" fill="white"/>
<path d="M6.4508 80.3309C5.12685 79.8379 4.08812 81.1196 3.99657 83.109C3.90502 85.0597 4.74305 87.3027 5.99305 88.2463C7.41207 89.3132 8.84868 88.3661 9.02122 85.94C9.19728 83.4576 7.95784 80.8907 6.4508 80.3309ZM7.60925 86.9118C7.14798 87.5104 6.47192 87.5456 5.84516 86.9435C5.31699 86.4365 4.94023 85.609 4.77474 84.7182C4.68319 84.6618 4.59164 84.6055 4.50009 84.5492C4.45432 84.521 4.42615 84.4083 4.45432 84.3555C4.62685 84.0316 4.80643 83.7006 4.98601 83.3661C5.0177 83.3097 5.07756 83.3414 5.09868 83.4259C5.23953 83.947 5.3839 84.4752 5.52826 85.0104C5.54587 85.0703 5.5353 85.1125 5.51418 85.1337C5.50009 85.1513 5.48249 85.1583 5.45784 85.1442C5.37333 85.0914 5.28882 85.0386 5.20432 84.9893C5.55995 86.2992 6.59868 87.0949 7.19728 86.2816C7.39798 86.0069 7.80995 86.6407 7.59868 86.9154L7.60925 86.9118ZM8.3346 84.3766C8.0846 84.7569 7.84164 85.1301 7.60221 85.4928C7.56347 85.5527 7.48953 85.5104 7.45784 85.4118C7.2853 84.8238 7.11629 84.2428 6.94728 83.6724C6.92967 83.609 6.94023 83.5632 6.96136 83.5386C6.97545 83.5175 6.99657 83.5069 7.02474 83.521C7.12685 83.5738 7.23249 83.6266 7.33812 83.6794C6.92967 82.271 5.83812 81.6724 5.30291 82.5773C5.13742 82.859 4.81347 82.352 4.97544 82.0703C5.35221 81.4154 5.96488 81.197 6.60573 81.6372C7.21488 82.0562 7.68671 82.9294 7.89798 83.9611C8.0177 84.021 8.14094 84.0844 8.26418 84.1442C8.32756 84.1759 8.36981 84.3132 8.32756 84.3766H8.3346Z" fill="#8DC162"/>
<path d="M10.6091 82.5176V86.507L19.1725 84.5598V82.6866L10.6091 82.5176Z" fill="white"/>
<path d="M10.6089 73.9753H10.5068V94.2289H10.6089V73.9753Z" fill="#6EA34A"/>
<path d="M10.5035 73.9753H10.4014V94.2289H10.5035V73.9753Z" fill="#6EA34A"/>
<path d="M10.507 74.0246L19.1127 78.9894V88.9366L10.5035 93.919L1.88732 88.9507V79.0035L10.507 74.0246ZM10.507 73L1 78.493V89.4613L10.507 94.9366L20 89.4437V78.4754L10.507 73Z" fill="#392E2D"/>
</g>
<defs>
<linearGradient id="paint0_linear_1013_5342" x1="12" y1="32.5859" x2="12" y2="39.414" gradientUnits="userSpaceOnUse">
<stop stop-color="#9E7DE9"/>
<stop offset="1" stop-color="#674EA0"/>
</linearGradient>
<clipPath id="clip0_1013_5342">
<rect width="24" height="96" fill="white"/>
</clipPath>
</defs>
</svg>
