<svg width="12" height="13" viewBox="0 0 12 13" fill="none" xmlns="http://www.w3.org/2000/svg">
<g clip-path="url(#clip0_1313_2)">
<path d="M6.20473 13C6.04294 13 5.87306 12.9515 5.72745 12.8463C5.36341 12.5793 5.28252 12.0778 5.54948 11.7138L9.3435 6.49596L5.54948 1.28625C5.28252 0.922219 5.36341 0.420663 5.72745 0.153706C6.09148 -0.105162 6.59303 -0.0323553 6.85999 0.331677L11.0019 6.02676C11.2041 6.3099 11.2041 6.6982 11.0019 6.98134L6.85999 12.6683C6.6982 12.8867 6.45551 13 6.20473 13Z" fill="white"/>
<path d="M0.809028 13C0.647236 13 0.477354 12.9515 0.331741 12.8463C-0.0322916 12.5793 -0.113188 12.0778 0.153769 11.7138L3.9478 6.49596L0.153769 1.28625C-0.105098 0.922219 -0.024202 0.420663 0.331741 0.153706C0.695773 -0.105162 1.19733 -0.0323553 1.46429 0.331677L5.60617 6.02676C5.80841 6.3099 5.80841 6.6982 5.60617 6.98134L1.46429 12.6683C1.30249 12.8867 1.05981 13 0.809028 13Z" fill="white"/>
</g>
<defs>
<clipPath id="clip0_1313_2">
<rect width="11.1556" height="13" fill="white"/>
</clipPath>
</defs>
</svg>