<svg width="20" height="20" viewBox="0 0 20 20" fill="none" xmlns="http://www.w3.org/2000/svg">
<path fill-rule="evenodd" clip-rule="evenodd" d="M0 9.77578C0 14.6164 3.93507 18.5515 8.77573 18.5515C11.0314 18.5515 13.1718 17.7036 14.8019 16.1477C15.1559 15.8266 15.4769 15.4643 15.765 15.0856C16.0367 14.7234 15.9709 14.2048 15.6086 13.9331C15.2464 13.6532 14.7278 13.7273 14.4561 14.0896C14.2174 14.3942 13.9539 14.6822 13.674 14.9539C12.3486 16.2135 10.6033 16.905 8.77573 16.905C4.84887 16.905 1.64648 13.7109 1.64648 9.77578C1.64648 5.84069 4.84064 2.64648 8.77573 2.64648C12.4641 2.64648 15.5133 5.47172 15.8701 9.06884L14.7278 8.04703C14.3903 7.74243 13.8717 7.77543 13.5671 8.11295C13.2625 8.45048 13.2954 8.96905 13.6329 9.27365L16.1356 11.5129C16.292 11.6529 16.4896 11.727 16.6871 11.727C16.8847 11.727 17.0823 11.6529 17.2223 11.5129L19.7249 9.27365C20.0624 8.96905 20.0954 8.45048 19.7908 8.11295C19.4862 7.77543 18.9675 7.74243 18.63 8.04703L17.5209 9.03913C17.1458 4.54214 13.3683 1 8.77573 1C3.93507 1 0 4.93512 0 9.77578Z" fill="white"/>
</svg>
