<svg width="28" height="28" viewBox="0 0 28 28" fill="none" xmlns="http://www.w3.org/2000/svg">
<g clip-path="url(#clip0_1323_10)">
<path d="M14.98 21.03C13.18 21.03 11.46 20.35 10.16 19.11C9.88001 18.85 9.63001 18.56 9.39001 18.26C9.17001 17.97 9.23001 17.56 9.52001 17.34C9.81001 17.12 10.22 17.18 10.44 17.47C10.63 17.72 10.84 17.95 11.06 18.16C12.12 19.17 13.52 19.72 14.98 19.72C18.12 19.72 20.68 17.16 20.68 14.02C20.68 10.88 18.13 8.32 14.98 8.32C11.83 8.32 9.28001 10.87 9.28001 14.02C9.28001 14.38 8.99001 14.68 8.62001 14.68C8.25001 14.68 7.96001 14.39 7.96001 14.02C7.96001 10.15 11.11 7 14.98 7C18.85 7 22 10.15 22 14.02C22 17.89 18.85 21.04 14.98 21.04V21.03Z" fill="white"/>
<path d="M8.66 15.57C8.5 15.57 8.35 15.51 8.22 15.4L6.22 13.61C5.95 13.37 5.93 12.95 6.17 12.68C6.41 12.41 6.83 12.39 7.1 12.63L8.66 14.03L10.22 12.63C10.49 12.39 10.91 12.41 11.15 12.68C11.39 12.95 11.37 13.37 11.1 13.61L9.1 15.4C8.97 15.51 8.82 15.57 8.66 15.57V15.57Z" fill="white"/>
</g>
<defs>
<clipPath id="clip0_1323_10">
<rect width="16" height="14.03" fill="white" transform="translate(6 7)"/>
</clipPath>
</defs>
</svg>