<svg width="40" height="320" viewBox="0 0 40 320" fill="none" xmlns="http://www.w3.org/2000/svg">
<g clip-path="url(#clip0_1436_3012)">
<path d="M5.82869 4.27913C6.65936 3.68139 7.63091 3.26674 8.68413 3.09542C8.91707 3.05769 9.08562 2.8521 9.08562 2.6164V0.487448C9.08562 0.193944 8.82777 -0.0324149 8.53634 0.00427315C6.74486 0.229593 5.10289 0.935666 3.74405 1.98958C3.5125 2.16922 3.49104 2.51152 3.69836 2.71885L5.20499 4.22548C5.37217 4.39265 5.63694 4.41757 5.82869 4.27947V4.27913Z" fill="#FEBB60"/>
<path d="M4.27925 13.7273C3.68151 12.8966 3.26687 11.9251 3.09589 10.8718C3.05816 10.6389 2.85257 10.4703 2.61686 10.4703H0.48757C0.194066 10.4703 -0.0322929 10.7285 0.00439522 11.0196C0.229715 12.8111 0.935788 14.4531 1.9897 15.8116C2.16934 16.0431 2.51164 16.0646 2.71897 15.8573L4.22526 14.351C4.39243 14.1838 4.41735 13.919 4.27925 13.7273Z" fill="#FE4D0E"/>
<path d="M10.4705 0.487428V2.61637C10.4705 2.85242 10.639 3.05767 10.872 3.0954C11.9252 3.26672 12.8964 3.68137 13.7274 4.27911C13.9195 4.41721 14.1839 4.39263 14.3511 4.22511L15.8577 2.71848C16.065 2.51116 16.0436 2.16885 15.812 1.98922C14.4532 0.9353 12.8112 0.229227 11.0197 0.00390694C10.7283 -0.0327811 10.4705 0.193577 10.4705 0.487082V0.487428Z" fill="#EBE96D"/>
<path d="M3.0954 8.68377C3.26672 7.63054 3.68102 6.659 4.27911 5.82833C4.41721 5.63623 4.39263 5.3718 4.22511 5.20463L2.71848 3.69799C2.51116 3.49067 2.16885 3.51213 1.98922 3.74368C0.9353 5.10252 0.229227 6.74449 0.00390694 8.53597C-0.0327811 8.8274 0.193577 9.08526 0.487082 9.08526H2.61603C2.85208 9.08526 3.05732 8.9167 3.09505 8.68377H3.0954Z" fill="#FFA120"/>
<path d="M16.4605 10.8719C16.2892 11.9252 15.8745 12.8967 15.2768 13.7274C15.1387 13.9195 15.1633 14.1839 15.3304 14.3511L16.8367 15.8574C17.044 16.0647 17.3863 16.0432 17.566 15.8117C18.6202 14.4532 19.3263 12.8112 19.5516 11.0194C19.5883 10.7279 19.362 10.4701 19.0685 10.4701H16.9395C16.7035 10.4701 16.4982 10.6387 16.4605 10.8716V10.8719Z" fill="#18B772"/>
<path d="M15.2769 5.82833C15.875 6.659 16.2897 7.63054 16.461 8.68377C16.4987 8.9167 16.7043 9.08526 16.94 9.08526H19.069C19.3625 9.08526 19.5888 8.8274 19.5521 8.53597C19.3268 6.74414 18.6207 5.10218 17.5665 3.74368C17.3868 3.51213 17.0445 3.49067 16.8372 3.69799L15.3306 5.20463C15.1634 5.3718 15.1385 5.63658 15.2769 5.82867V5.82833Z" fill="#7DE57B"/>
<path d="M8.85846 13.5C8.70313 13.4994 8.54947 13.4686 8.40639 13.4095C8.26331 13.3503 8.13365 13.264 8.02492 13.1555L6.15827 11.226C6.02594 11.0027 5.9744 10.7422 6.01195 10.4867C6.0495 10.2312 6.17396 9.99546 6.36525 9.81762C6.55654 9.63978 6.80349 9.53017 7.06627 9.50648C7.32904 9.48279 7.59231 9.5464 7.8136 9.68705L8.79976 10.6977L12.0987 6.74694C12.3089 6.58462 12.5696 6.49751 12.8374 6.50005C13.1052 6.5026 13.3641 6.59464 13.5711 6.76091C13.778 6.92719 13.9207 7.15769 13.9753 7.41419C14.0299 7.67068 13.9933 7.93774 13.8714 8.17105L9.73896 13.0865C9.63503 13.209 9.50623 13.309 9.36072 13.3802C9.21521 13.4513 9.05617 13.4921 8.89368 13.5H8.85846Z" fill="#18B772"/>
</g>
<g clip-path="url(#clip1_1436_3012)">
<path d="M5.82869 20.2791C6.65936 19.6814 7.63091 19.2667 8.68413 19.0954C8.91707 19.0577 9.08562 18.8521 9.08562 18.6164V16.4874C9.08562 16.1939 8.82777 15.9676 8.53634 16.0043C6.74486 16.2296 5.10289 16.9357 3.74405 17.9896C3.5125 18.1692 3.49104 18.5115 3.69836 18.7188L5.20499 20.2255C5.37217 20.3927 5.63694 20.4176 5.82869 20.2795V20.2791Z" fill="#B6B6B6"/>
<path d="M4.27925 29.7273C3.68151 28.8966 3.26687 27.9251 3.09589 26.8718C3.05816 26.6389 2.85257 26.4703 2.61686 26.4703H0.48757C0.194066 26.4703 -0.0322929 26.7285 0.00439522 27.0196C0.229715 28.8111 0.935788 30.4531 1.9897 31.8116C2.16934 32.0431 2.51164 32.0646 2.71897 31.8573L4.22526 30.351C4.39243 30.1838 4.41735 29.919 4.27925 29.7273Z" fill="#D3D3D3"/>
<path d="M10.4705 16.4874V18.6164C10.4705 18.8524 10.639 19.0577 10.872 19.0954C11.9252 19.2667 12.8964 19.6814 13.7274 20.2791C13.9195 20.4172 14.1839 20.3926 14.3511 20.2251L15.8577 18.7185C16.065 18.5112 16.0436 18.1688 15.812 17.9892C14.4532 16.9353 12.8112 16.2292 11.0197 16.0039C10.7283 15.9672 10.4705 16.1936 10.4705 16.4871V16.4874Z" fill="#A3A3A3"/>
<path d="M3.0954 24.6838C3.26672 23.6305 3.68102 22.659 4.27911 21.8283C4.41721 21.6362 4.39263 21.3718 4.22511 21.2046L2.71848 19.698C2.51116 19.4907 2.16885 19.5121 1.98922 19.7437C0.9353 21.1025 0.229227 22.7445 0.00390694 24.536C-0.0327811 24.8274 0.193577 25.0853 0.487082 25.0853H2.61603C2.85208 25.0853 3.05732 24.9167 3.09505 24.6838H3.0954Z" fill="#C3C3C3"/>
<path d="M16.4605 26.8719C16.2892 27.9252 15.8745 28.8967 15.2768 29.7274C15.1387 29.9195 15.1633 30.1839 15.3304 30.3511L16.8367 31.8574C17.044 32.0647 17.3863 32.0432 17.566 31.8117C18.6202 30.4532 19.3263 28.8112 19.5516 27.0194C19.5883 26.7279 19.362 26.4701 19.0685 26.4701H16.9395C16.7035 26.4701 16.4982 26.6387 16.4605 26.8716V26.8719Z" fill="#6F6F6F"/>
<path d="M15.2769 21.8283C15.875 22.659 16.2897 23.6305 16.461 24.6838C16.4987 24.9167 16.7043 25.0853 16.94 25.0853H19.069C19.3625 25.0853 19.5888 24.8274 19.5521 24.536C19.3268 22.7441 18.6207 21.1022 17.5665 19.7437C17.3868 19.5121 17.0445 19.4907 16.8372 19.698L15.3306 21.2046C15.1634 21.3718 15.1385 21.6366 15.2769 21.8287V21.8283Z" fill="#848484"/>
</g>
<g clip-path="url(#clip2_1436_3012)">
<path d="M9.80005 61.55L5.55005 65.8C9.05005 69.47 13.93 71.7901 19.35 71.9701V65.9701C15.59 65.8001 12.21 64.14 9.80005 61.56V61.55Z" fill="#EFEFEF"/>
<path d="M20.0001 66C19.7801 66 19.5701 65.98 19.3501 65.97V71.97C19.5701 71.97 19.7801 72 20.0001 72C25.3601 72 30.2101 69.88 33.8001 66.45L29.5501 62.2C27.0501 64.55 23.6901 66 20.0001 66Z" fill="#EFEFEF"/>
<path d="M34 52H40C40 46.31 37.61 41.19 33.8 37.55L29.55 41.8C32.28 44.36 34 47.98 34 52Z" fill="#7DE57B"/>
<path d="M40 52H34C34 56.02 32.28 59.65 29.55 62.2L33.8 66.45C37.61 62.81 40 57.69 40 52Z" fill="#18B772"/>
<path d="M6 52H0C0 57.36 2.12 62.21 5.55 65.8L9.8 61.55C7.45 59.05 6 55.69 6 52Z" fill="#FE4D0E"/>
<path d="M20.0001 38C23.6901 38 27.0501 39.45 29.5501 41.8L33.8001 37.55C30.2101 34.12 25.3601 32 20.0001 32C19.7801 32 19.5701 32.03 19.3501 32.03V38.03C19.5701 38.02 19.7801 38 20.0001 38Z" fill="#EBE96D"/>
<path d="M19.35 38.03V32.03C13.92 32.2 9.05005 34.53 5.55005 38.2L9.80005 42.45C12.22 39.87 15.59 38.21 19.35 38.04V38.03Z" fill="#FEBB60"/>
<path d="M9.8 42.45L5.55 38.2C2.12 41.79 0 46.64 0 52H6C6 48.31 7.45 44.95 9.8 42.45Z" fill="#FFA120"/>
</g>
<g clip-path="url(#clip3_1436_3012)">
<path d="M9.80005 101.55L5.55005 105.8C9.05005 109.47 13.93 111.79 19.35 111.97V105.97C15.59 105.8 12.21 104.14 9.80005 101.56V101.55Z" fill="#EFEFEF"/>
<path d="M20.0001 106C19.7801 106 19.5701 105.98 19.3501 105.97V111.97C19.5701 111.97 19.7801 112 20.0001 112C25.3601 112 30.2101 109.88 33.8001 106.45L29.5501 102.2C27.0501 104.55 23.6901 106 20.0001 106Z" fill="#EFEFEF"/>
<path d="M34 92H40C40 86.31 37.61 81.19 33.8 77.55L29.55 81.8C32.28 84.36 34 87.98 34 92Z" fill="#7DE57B"/>
<path d="M40 92H34C34 96.02 32.28 99.65 29.55 102.2L33.8 106.45C37.61 102.81 40 97.69 40 92Z" fill="#EFEFEF"/>
<path d="M6 92H0C0 97.36 2.12 102.21 5.55 105.8L9.8 101.55C7.45 99.05 6 95.69 6 92Z" fill="#FE4D0E"/>
<path d="M20.0001 78C23.6901 78 27.0501 79.45 29.5501 81.8L33.8001 77.55C30.2101 74.12 25.3601 72 20.0001 72C19.7801 72 19.5701 72.03 19.3501 72.03V78.03C19.5701 78.02 19.7801 78 20.0001 78Z" fill="#EBE96D"/>
<path d="M19.35 78.03V72.03C13.92 72.2 9.05005 74.53 5.55005 78.2L9.80005 82.45C12.22 79.87 15.59 78.21 19.35 78.04V78.03Z" fill="#FEBB60"/>
<path d="M9.8 82.45L5.55 78.2C2.12 81.79 0 86.64 0 92H6C6 88.31 7.45 84.95 9.8 82.45Z" fill="#FFA120"/>
</g>
<g clip-path="url(#clip4_1436_3012)">
<path d="M9.80005 141.55L5.55005 145.8C9.05005 149.47 13.93 151.79 19.35 151.97V145.97C15.59 145.8 12.21 144.14 9.80005 141.56V141.55Z" fill="#EFEFEF"/>
<path d="M20.0001 146C19.7801 146 19.5701 145.98 19.3501 145.97V151.97C19.5701 151.97 19.7801 152 20.0001 152C25.3601 152 30.2101 149.88 33.8001 146.45L29.5501 142.2C27.0501 144.55 23.6901 146 20.0001 146Z" fill="#EFEFEF"/>
<path d="M34 132H40C40 126.31 37.61 121.19 33.8 117.55L29.55 121.8C32.28 124.36 34 127.98 34 132Z" fill="#EFEFEF"/>
<path d="M40 132H34C34 136.02 32.28 139.65 29.55 142.2L33.8 146.45C37.61 142.81 40 137.69 40 132Z" fill="#EFEFEF"/>
<path d="M6 132H0C0 137.36 2.12 142.21 5.55 145.8L9.8 141.55C7.45 139.05 6 135.69 6 132Z" fill="#FE4D0E"/>
<path d="M20.0001 118C23.6901 118 27.0501 119.45 29.5501 121.8L33.8001 117.55C30.2101 114.12 25.3601 112 20.0001 112C19.7801 112 19.5701 112.03 19.3501 112.03V118.03C19.5701 118.02 19.7801 118 20.0001 118Z" fill="#EBE96D"/>
<path d="M19.35 118.03V112.03C13.92 112.2 9.05005 114.53 5.55005 118.2L9.80005 122.45C12.22 119.87 15.59 118.21 19.35 118.04V118.03Z" fill="#FEBB60"/>
<path d="M9.8 122.45L5.55 118.2C2.12 121.79 0 126.64 0 132H6C6 128.31 7.45 124.95 9.8 122.45Z" fill="#FFA120"/>
</g>
<g clip-path="url(#clip5_1436_3012)">
<path d="M9.80005 141.55L5.55005 145.8C9.05005 149.47 13.93 151.79 19.35 151.97V145.97C15.59 145.8 12.21 144.14 9.80005 141.56V141.55Z" fill="#EFEFEF"/>
<path d="M20.0001 146C19.7801 146 19.5701 145.98 19.3501 145.97V151.97C19.5701 151.97 19.7801 152 20.0001 152C25.3601 152 30.2101 149.88 33.8001 146.45L29.5501 142.2C27.0501 144.55 23.6901 146 20.0001 146Z" fill="#EFEFEF"/>
<path d="M34 132H40C40 126.31 37.61 121.19 33.8 117.55L29.55 121.8C32.28 124.36 34 127.98 34 132Z" fill="#EFEFEF"/>
<path d="M40 132H34C34 136.02 32.28 139.65 29.55 142.2L33.8 146.45C37.61 142.81 40 137.69 40 132Z" fill="#EFEFEF"/>
<path d="M6 132H0C0 137.36 2.12 142.21 5.55 145.8L9.8 141.55C7.45 139.05 6 135.69 6 132Z" fill="#FE4D0E"/>
<path d="M20.0001 118C23.6901 118 27.0501 119.45 29.5501 121.8L33.8001 117.55C30.2101 114.12 25.3601 112 20.0001 112C19.7801 112 19.5701 112.03 19.3501 112.03V118.03C19.5701 118.02 19.7801 118 20.0001 118Z" fill="#EBE96D"/>
<path d="M19.35 118.03V112.03C13.92 112.2 9.05005 114.53 5.55005 118.2L9.80005 122.45C12.22 119.87 15.59 118.21 19.35 118.04V118.03Z" fill="#FEBB60"/>
<path d="M9.8 122.45L5.55 118.2C2.12 121.79 0 126.64 0 132H6C6 128.31 7.45 124.95 9.8 122.45Z" fill="#FFA120"/>
</g>
<g clip-path="url(#clip6_1436_3012)">
<path d="M9.80005 181.55L5.55005 185.8C9.05005 189.47 13.93 191.79 19.35 191.97V185.97C15.59 185.8 12.21 184.14 9.80005 181.56V181.55Z" fill="#EFEFEF"/>
<path d="M20.0001 186C19.7801 186 19.5701 185.98 19.3501 185.97V191.97C19.5701 191.97 19.7801 192 20.0001 192C25.3601 192 30.2101 189.88 33.8001 186.45L29.5501 182.2C27.0501 184.55 23.6901 186 20.0001 186Z" fill="#EFEFEF"/>
<path d="M34 172H40C40 166.31 37.61 161.19 33.8 157.55L29.55 161.8C32.28 164.36 34 167.98 34 172Z" fill="#EFEFEF"/>
<path d="M40 172H34C34 176.02 32.28 179.65 29.55 182.2L33.8 186.45C37.61 182.81 40 177.69 40 172Z" fill="#EFEFEF"/>
<path d="M6 172H0C0 177.36 2.12 182.21 5.55 185.8L9.8 181.55C7.45 179.05 6 175.69 6 172Z" fill="#FE4D0E"/>
<path d="M20.0001 158C23.6901 158 27.0501 159.45 29.5501 161.8L33.8001 157.55C30.2101 154.12 25.3601 152 20.0001 152C19.7801 152 19.5701 152.03 19.3501 152.03V158.03C19.5701 158.02 19.7801 158 20.0001 158Z" fill="#EFEFEF"/>
<path d="M19.35 158.03V152.03C13.92 152.2 9.05005 154.53 5.55005 158.2L9.80005 162.45C12.22 159.87 15.59 158.21 19.35 158.04V158.03Z" fill="#FEBB60"/>
<path d="M9.8 162.45L5.55 158.2C2.12 161.79 0 166.64 0 172H6C6 168.31 7.45 164.95 9.8 162.45Z" fill="#FFA120"/>
</g>
<g clip-path="url(#clip7_1436_3012)">
<path d="M9.80005 221.55L5.55005 225.8C9.05005 229.47 13.93 231.79 19.35 231.97V225.97C15.59 225.8 12.21 224.14 9.80005 221.56V221.55Z" fill="#EFEFEF"/>
<path d="M20.0001 226C19.7801 226 19.5701 225.98 19.3501 225.97V231.97C19.5701 231.97 19.7801 232 20.0001 232C25.3601 232 30.2101 229.88 33.8001 226.45L29.5501 222.2C27.0501 224.55 23.6901 226 20.0001 226Z" fill="#EFEFEF"/>
<path d="M34 212H40C40 206.31 37.61 201.19 33.8 197.55L29.55 201.8C32.28 204.36 34 207.98 34 212Z" fill="#EFEFEF"/>
<path d="M40 212H34C34 216.02 32.28 219.65 29.55 222.2L33.8 226.45C37.61 222.81 40 217.69 40 212Z" fill="#EFEFEF"/>
<path d="M6 212H0C0 217.36 2.12 222.21 5.55 225.8L9.8 221.55C7.45 219.05 6 215.69 6 212Z" fill="#FE4D0E"/>
<path d="M20.0001 198C23.6901 198 27.0501 199.45 29.5501 201.8L33.8001 197.55C30.2101 194.12 25.3601 192 20.0001 192C19.7801 192 19.5701 192.03 19.3501 192.03V198.03C19.5701 198.02 19.7801 198 20.0001 198Z" fill="#EFEFEF"/>
<path d="M19.35 198.03V192.03C13.92 192.2 9.05005 194.53 5.55005 198.2L9.80005 202.45C12.22 199.87 15.59 198.21 19.35 198.04V198.03Z" fill="#EFEFEF"/>
<path d="M9.8 202.45L5.55 198.2C2.12 201.79 0 206.64 0 212H6C6 208.31 7.45 204.95 9.8 202.45Z" fill="#FFA120"/>
</g>
<g clip-path="url(#clip8_1436_3012)">
<path d="M9.80005 261.55L5.55005 265.8C9.05005 269.47 13.93 271.79 19.35 271.97V265.97C15.59 265.8 12.21 264.14 9.80005 261.56V261.55Z" fill="#EFEFEF"/>
<path d="M20.0001 266C19.7801 266 19.5701 265.98 19.3501 265.97V271.97C19.5701 271.97 19.7801 272 20.0001 272C25.3601 272 30.2101 269.88 33.8001 266.45L29.5501 262.2C27.0501 264.55 23.6901 266 20.0001 266Z" fill="#EFEFEF"/>
<path d="M34 252H40C40 246.31 37.61 241.19 33.8 237.55L29.55 241.8C32.28 244.36 34 247.98 34 252Z" fill="#EFEFEF"/>
<path d="M40 252H34C34 256.02 32.28 259.65 29.55 262.2L33.8 266.45C37.61 262.81 40 257.69 40 252Z" fill="#EFEFEF"/>
<path d="M6 252H0C0 257.36 2.12 262.21 5.55 265.8L9.8 261.55C7.45 259.05 6 255.69 6 252Z" fill="#FE4D0E"/>
<path d="M20.0001 238C23.6901 238 27.0501 239.45 29.5501 241.8L33.8001 237.55C30.2101 234.12 25.3601 232 20.0001 232C19.7801 232 19.5701 232.03 19.3501 232.03V238.03C19.5701 238.02 19.7801 238 20.0001 238Z" fill="#EFEFEF"/>
<path d="M19.35 238.03V232.03C13.92 232.2 9.05005 234.53 5.55005 238.2L9.80005 242.45C12.22 239.87 15.59 238.21 19.35 238.04V238.03Z" fill="#EFEFEF"/>
<path d="M9.8 242.45L5.55 238.2C2.12 241.79 0 246.64 0 252H6C6 248.31 7.45 244.95 9.8 242.45Z" fill="#EFEFEF"/>
</g>
<path d="M8.00306 287.2C6.08225 287.2 4.27351 286.448 2.91294 285.088C1.55237 283.728 0.800049 281.92 0.800049 280C0.800049 278.08 1.55237 276.264 2.91294 274.912C4.27351 273.552 6.08225 272.8 8.00306 272.8C9.92386 272.8 11.7326 273.552 13.0932 274.912C15.9023 277.72 15.9023 282.288 13.0932 285.096C11.7406 286.448 9.93186 287.2 8.00306 287.2ZM8.00306 274.024C6.40239 274.024 4.90574 274.648 3.77727 275.776C2.6488 276.904 2.02458 278.408 2.02458 280C2.02458 281.592 2.6488 283.096 3.77727 284.224C4.90574 285.352 6.41039 285.976 8.00306 285.976C9.60372 285.976 11.1004 285.352 12.2369 284.224C14.5658 281.896 14.5658 278.104 12.2369 275.768C11.1084 274.648 9.60372 274.024 8.00306 274.024Z" fill="#18B772"/>
<path d="M11.0162 277.717C10.8008 277.537 10.4815 277.568 10.3016 277.789L6.95917 281.913L5.67442 280.548C5.48183 280.343 5.15998 280.335 4.95725 280.53C4.85843 280.625 4.80268 280.753 4.80014 280.889C4.79761 281.025 4.84577 281.156 4.93953 281.256L6.61962 283.041C6.71591 283.141 6.84767 283.2 6.98704 283.2C6.98958 283.2 7.00227 283.2 7.0048 283.2C7.14924 283.195 7.28607 283.126 7.3773 283.013L11.0846 278.44C11.262 278.219 11.2316 277.894 11.0162 277.717Z" fill="#18B772"/>
<path fill-rule="evenodd" clip-rule="evenodd" d="M1.34493 302.197H14.666C14.8558 302.197 15.0347 302.094 15.1269 301.926C15.2244 301.758 15.2244 301.552 15.1269 301.384L8.46905 289.852C8.27929 289.516 7.72622 289.516 7.53104 289.852L0.873242 301.384C0.775651 301.552 0.775651 301.758 0.873242 301.926C0.970832 302.094 1.14975 302.197 1.34493 302.197ZM13.7227 301.113H2.28287L8.00273 291.208L13.7227 301.113ZM7.4118 295.464L7.53106 297.236C7.55275 297.47 7.58532 297.638 7.64496 297.751C7.69376 297.865 7.78593 297.92 7.92147 297.92C8.05159 297.92 8.14913 297.86 8.20335 297.746C8.26299 297.632 8.30098 297.464 8.31725 297.247L8.47443 295.42C8.4907 295.252 8.50157 295.084 8.50157 294.921C8.50157 294.645 8.46364 294.433 8.39316 294.287C8.31726 294.141 8.17627 294.065 7.96482 294.065C7.79133 294.065 7.65035 294.124 7.54192 294.238C7.43348 294.357 7.3793 294.515 7.3793 294.721C7.3793 294.867 7.39011 295.117 7.4118 295.464ZM7.54192 299.53C7.65577 299.627 7.78588 299.676 7.93769 299.676C8.0895 299.676 8.21966 299.627 8.32267 299.53C8.43653 299.432 8.49071 299.297 8.49071 299.123C8.49071 298.971 8.43654 298.841 8.3281 298.733C8.21967 298.624 8.08949 298.57 7.93226 298.57C7.77503 298.57 7.64492 298.624 7.53649 298.733C7.42805 298.841 7.37388 298.971 7.37388 299.123C7.37388 299.297 7.42806 299.432 7.54192 299.53Z" fill="#FF8400"/>
<path d="M7.51997 312.43L7.37997 310.35C7.37997 309.94 7.37997 309.65 7.37997 309.47C7.37046 309.266 7.43833 309.066 7.56997 308.91C7.63418 308.843 7.71204 308.79 7.79829 308.756C7.88454 308.721 7.97718 308.706 8.06997 308.71C8.16994 308.697 8.27161 308.714 8.36109 308.761C8.45058 308.807 8.52352 308.881 8.56997 308.97C8.66546 309.205 8.70978 309.457 8.69997 309.71C8.70993 309.903 8.70993 310.097 8.69997 310.29L8.50997 312.44C8.50287 312.643 8.45881 312.843 8.37997 313.03C8.35062 313.092 8.30369 313.144 8.24502 313.18C8.18635 313.215 8.11853 313.233 8.04997 313.23C7.9807 313.237 7.91099 313.221 7.85143 313.185C7.79188 313.149 7.74572 313.095 7.71997 313.03C7.62325 312.841 7.55581 312.639 7.51997 312.43ZM7.99997 315.29C7.83049 315.295 7.66578 315.234 7.53997 315.12C7.47276 315.06 7.41989 314.986 7.38527 314.903C7.35065 314.82 7.33516 314.73 7.33997 314.64C7.34253 314.511 7.38262 314.386 7.45531 314.28C7.52799 314.174 7.63011 314.092 7.74909 314.043C7.86808 313.994 7.99875 313.981 8.12505 314.005C8.25134 314.03 8.36775 314.09 8.45997 314.18C8.5235 314.241 8.57407 314.314 8.60861 314.394C8.64316 314.475 8.66097 314.562 8.66097 314.65C8.66097 314.738 8.64316 314.825 8.60861 314.906C8.57407 314.986 8.5235 315.059 8.45997 315.12C8.39824 315.177 8.32583 315.222 8.2469 315.251C8.16796 315.28 8.08406 315.293 7.99997 315.29V315.29Z" fill="#F94342"/>
<path d="M10.32 306.4L13.6 309.68V314.32L10.32 317.6H5.68L2.4 314.32V309.68L5.68 306.4H10.32V306.4ZM10.9 305H5.1L1 309.1V314.9L5.1 319H10.9L15 314.9V309.1L10.9 305Z" fill="#F94342"/>
<defs>
<clipPath id="clip0_1436_3012">
<rect width="20" height="16" fill="white"/>
</clipPath>
<clipPath id="clip1_1436_3012">
<rect width="20" height="16" fill="white" transform="translate(0 16)"/>
</clipPath>
<clipPath id="clip2_1436_3012">
<rect width="40" height="40" fill="white" transform="translate(0 32)"/>
</clipPath>
<clipPath id="clip3_1436_3012">
<rect width="40" height="40" fill="white" transform="translate(0 72)"/>
</clipPath>
<clipPath id="clip4_1436_3012">
<rect width="40" height="40" fill="white" transform="translate(0 112)"/>
</clipPath>
<clipPath id="clip5_1436_3012">
<rect width="40" height="40" fill="white" transform="translate(0 112)"/>
</clipPath>
<clipPath id="clip6_1436_3012">
<rect width="40" height="40" fill="white" transform="translate(0 152)"/>
</clipPath>
<clipPath id="clip7_1436_3012">
<rect width="40" height="40" fill="white" transform="translate(0 192)"/>
</clipPath>
<clipPath id="clip8_1436_3012">
<rect width="40" height="40" fill="white" transform="translate(0 232)"/>
</clipPath>
</defs>
</svg>