<svg width="28" height="56" viewBox="0 0 28 56" fill="none" xmlns="http://www.w3.org/2000/svg">
<path d="M19.4925 10.4232C19.4925 10.4232 19.4831 10.4232 19.4738 10.4232C18.1723 9.54307 16.3839 9 14.4082 9C12.4326 9 10.5506 9.57116 9.2397 10.4981C8.41573 11.0131 6 13.5787 6 14C6 14.4213 8.33146 16.8933 9.09925 17.3989C10.4195 18.382 12.3109 19 14.4082 19C16.5056 19 18.294 18.4195 19.6142 17.4738C19.6142 17.4738 19.6236 17.4738 19.633 17.4738C20.2416 17.1929 22.8539 14.4307 22.8539 14.0094C22.8539 13.588 20.1479 10.7228 19.4925 10.4419V10.4232ZM14.427 17.7453C12.3296 17.7453 10.6255 16.0599 10.6255 13.9906C10.6255 11.9213 12.3296 10.236 14.427 10.236C16.5243 10.236 18.2285 11.9213 18.2285 13.9906C18.2285 16.0599 16.5243 17.7453 14.427 17.7453Z" fill="#7A8FB2"/>
<path d="M16.0655 13.4101C15.4756 13.4101 15.0075 12.9326 15.0075 12.3521C15.0075 11.9963 15.1948 11.6873 15.4663 11.5C15.1479 11.3689 14.7921 11.294 14.427 11.294C12.9382 11.294 11.7303 12.5019 11.7303 13.9906C11.7303 15.4794 12.9382 16.6873 14.427 16.6873C15.9157 16.6873 17.1236 15.4794 17.1236 13.9906C17.1236 13.6255 17.0487 13.2697 16.9176 12.9513C16.721 13.2228 16.4213 13.4101 16.0655 13.4101Z" fill="#7A8FB2"/>
<path d="M11.1156 41.7092C11.1156 39.8717 12.6156 38.3811 14.4812 38.3717L15.4187 37.3217C15.1094 37.2936 14.8 37.2561 14.4812 37.2561C12.6812 37.2561 11.05 37.7717 9.87812 38.5967C9.14687 39.0561 7 41.3342 7 41.7092C7 41.9905 8.30312 43.4436 9.18437 44.2592L11.1531 42.0655C11.1438 41.9436 11.1156 41.8311 11.1156 41.7092V41.7092Z" fill="#1B6BC7"/>
<path d="M17.8844 41.7092C17.8844 43.5561 16.375 45.0561 14.5 45.0561C14.1625 45.0561 13.8438 44.9905 13.5438 44.9061L12.5875 45.9655C13.1875 46.0967 13.825 46.1624 14.4906 46.1624C16.3094 46.1624 17.95 45.6374 19.1219 44.803C19.1219 44.803 19.1313 44.803 19.1406 44.803C19.6844 44.5592 22 42.0936 22 41.7186C22 41.3436 19.9563 39.178 19.1781 38.6436L17.6031 40.3967C17.7813 40.7999 17.8844 41.2499 17.8844 41.7186V41.7092Z" fill="#1B6BC7"/>
<path d="M14.5 44.1186C15.8219 44.1186 16.9 43.0405 16.9 41.7186C16.9 41.5499 16.8813 41.3905 16.8438 41.2311L14.2656 44.0999C14.3406 44.0999 14.4156 44.1186 14.5 44.1186Z" fill="#1B6BC7"/>
<path d="M12.2687 40.828L13.3656 39.6092C12.8687 39.8717 12.475 40.303 12.2687 40.828Z" fill="#1B6BC7"/>
<path d="M20.3781 34.5561C20.0406 34.2561 19.525 34.2842 19.225 34.6124L15.6625 38.578L14.9594 39.3561L12.2125 42.4124L11.5 43.1999L7.78749 47.3249C7.48749 47.6624 7.51562 48.178 7.84374 48.478C8.00312 48.6186 8.19999 48.6842 8.38749 48.6842C8.61249 48.6842 8.83749 48.5905 8.99687 48.4124L12.5781 44.428L13.225 43.7155L15.5687 41.1092L17.0219 39.4967L20.4344 35.6999C20.7344 35.3624 20.7062 34.8467 20.3781 34.5467V34.5561Z" fill="#1B6BC7"/>
</svg>
