<svg width="8" height="11" viewBox="0 0 8 11" fill="none" xmlns="http://www.w3.org/2000/svg">
<g clip-path="url(#clip0)">
<path d="M0 0.82C0 0.61 0.08 0.4 0.24 0.24C0.56 -0.08 1.08 -0.08 1.4 0.24L4 2.84L6.6 0.24C6.92 -0.08 7.44 -0.08 7.76 0.24C8.08 0.56 8.08 1.08 7.76 1.4L4.58 4.58C4.26 4.9 3.74 4.9 3.42 4.58L0.24 1.4C0.08 1.24 0 1.03 0 0.82Z" fill="#505B6E"/>
<path d="M8 9.32001C8 9.53001 7.92 9.74001 7.76 9.90001C7.44 10.22 6.92 10.22 6.6 9.90001L4 7.31001L1.4 9.90001C1.08 10.22 0.56 10.22 0.24 9.90001C-0.08 9.58001 -0.08 9.06001 0.24 8.74001L3.42 5.56001C3.74 5.24001 4.26 5.24001 4.58 5.56001L7.76 8.74001C7.92 8.90001 8 9.11001 8 9.32001Z" fill="#505B6E"/>
</g>
<defs>
<clipPath id="clip0">
<rect width="8" height="10.14" fill="white"/>
</clipPath>
</defs>
</svg>
