<svg width="28" height="56" viewBox="0 0 28 56" fill="none" xmlns="http://www.w3.org/2000/svg">
<path d="M11.88 49.63H10.52C10.02 49.63 9.62 49.23 9.62 48.73V47.85L9.2 47.69L8.56 48.29C8.22 48.63 7.63 48.63 7.29 48.29L6.33 47.33C6.16 47.16 6.07 46.94 6.07 46.7C6.07 46.46 6.16 46.23 6.34 46.06L6.96 45.44L6.78 45.02L5.9 45C5.4 45 5 44.59 5 44.1V42.74C5 42.24 5.4 41.84 5.9 41.84H6.78L6.94 41.42L6.34 40.78C6.17 40.61 6.08 40.39 6.08 40.15C6.08 39.91 6.17 39.68 6.35 39.51L7.31 38.55C7.65 38.21 8.24 38.21 8.58 38.55L9.2 39.17L9.61 38.99L9.64 38.11C9.64 37.61 10.04 37.21 10.54 37.21H11.9C12.4 37.21 12.8 37.61 12.8 38.11V38.99L13.22 39.15L13.86 38.55C14.03 38.38 14.26 38.29 14.5 38.29C14.74 38.29 14.97 38.38 15.14 38.55L16.1 39.51C16.27 39.68 16.36 39.9 16.36 40.14C16.36 40.38 16.27 40.61 16.1 40.78L15.48 41.4L15.66 41.81L16.54 41.84C17.04 41.84 17.44 42.24 17.44 42.74V44.1C17.44 44.6 17.04 45 16.54 45H15.66L15.5 45.42L16.1 46.06C16.27 46.23 16.36 46.45 16.36 46.69C16.36 46.93 16.27 47.16 16.1 47.33L15.14 48.29C14.8 48.63 14.21 48.63 13.87 48.29L13.25 47.67L12.84 47.85L12.82 48.73C12.78 49.22 12.38 49.63 11.88 49.63ZM10.68 48.57H11.72V47.85C11.72 47.42 12.03 47 12.43 46.86L12.79 46.71C12.89 46.66 13.05 46.62 13.21 46.62C13.5 46.62 13.77 46.73 13.96 46.92L14.47 47.43L15.21 46.69L14.7 46.18C14.4 45.88 14.31 45.36 14.51 44.98L14.66 44.62C14.78 44.25 15.21 43.94 15.64 43.94H16.36V42.9H15.64C15.21 42.9 14.79 42.59 14.65 42.19L14.5 41.83C14.33 41.48 14.41 40.97 14.71 40.66L15.22 40.15L14.48 39.41L13.97 39.92C13.67 40.22 13.15 40.3 12.77 40.12L12.41 39.97C12.04 39.85 11.73 39.42 11.73 38.99V38.27H10.69V38.99C10.69 39.42 10.38 39.84 9.98 39.98L9.62 40.13C9.52 40.18 9.36 40.22 9.2 40.22C8.91 40.22 8.64 40.11 8.45 39.92L7.94 39.41L7.2 40.15L7.71 40.66C8.01 40.96 8.1 41.48 7.9 41.86L7.75 42.22C7.63 42.59 7.2 42.9 6.77 42.9H6.06V43.94H6.78C7.21 43.94 7.63 44.25 7.77 44.65L7.92 45.01C8.09 45.36 8.01 45.87 7.71 46.18L7.2 46.69L7.94 47.43L8.45 46.92C8.74 46.62 9.28 46.54 9.65 46.72L10.01 46.87C10.39 47 10.69 47.41 10.69 47.85V48.57H10.68ZM11.21 45.74C9.93 45.74 8.89 44.7 8.89 43.42C8.89 42.14 9.93 41.1 11.21 41.1C12.49 41.1 13.53 42.14 13.53 43.42C13.52 44.7 12.48 45.74 11.21 45.74ZM11.21 42.16C10.51 42.16 9.95 42.73 9.95 43.42C9.95 44.12 10.52 44.68 11.21 44.68C11.91 44.68 12.47 44.11 12.47 43.42C12.47 42.72 11.9 42.16 11.21 42.16Z" fill="#304B79"/>
<path d="M22.32 35.75H7.13C6.76 35.75 6.45 35.44 6.45 35.06C6.45 34.68 6.75 34.37 7.13 34.37H22.33C22.7 34.37 23.01 34.68 23.01 35.06C23 35.45 22.7 35.75 22.32 35.75Z" fill="#304B79"/>
<path d="M22.36 40.02H17.51C17.16 40.02 16.87 39.71 16.87 39.33C16.87 38.95 17.15 38.64 17.51 38.64H22.36C22.71 38.64 23 38.95 23 39.33C23 39.71 22.72 40.02 22.36 40.02Z" fill="#304B79"/>
<path d="M22.36 48.55H17.51C17.16 48.55 16.87 48.24 16.87 47.86C16.87 47.48 17.15 47.17 17.51 47.17H22.36C22.71 47.17 23 47.48 23 47.86C23 48.24 22.72 48.55 22.36 48.55Z" fill="#304B79"/>
<path d="M22.36 44.28H19.5C19.15 44.28 18.86 43.97 18.86 43.59C18.86 43.21 19.14 42.9 19.5 42.9H22.36C22.71 42.9 23 43.21 23 43.59C23 43.98 22.72 44.28 22.36 44.28Z" fill="#304B79"/>
<path d="M7.27 21.5C7.07 21.5 6.87 21.42 6.73 21.27C6.57 21.11 6.49 20.9 6.51 20.68L6.71 17.3C6.72 17.11 6.8 16.94 6.93 16.8L17 6.72001C17.14 6.58001 17.34 6.49001 17.54 6.49001C17.74 6.49001 17.94 6.57001 18.08 6.72001L21.26 9.90001C21.4 10.04 21.49 10.24 21.49 10.44C21.49 10.64 21.41 10.84 21.26 10.98L11.19 21.08C11.06 21.21 10.88 21.29 10.69 21.3L7.31 21.5C7.3 21.5 7.28 21.5 7.27 21.5ZM8.22 17.69L8.09 19.92L10.32 19.79L19.65 10.46L17.56 8.37001L8.22 17.69Z" fill="#304B79"/>
<path d="M18.94 12.31C18.84 12.31 18.74 12.27 18.67 12.2L15.8 9.34C15.65 9.19 15.65 8.95 15.8 8.8C15.95 8.65 16.19 8.65 16.34 8.8L19.2 11.66C19.35 11.81 19.35 12.05 19.2 12.2C19.13 12.27 19.03 12.31 18.94 12.31Z" fill="#304B79"/>
<path d="M7.8 18.36C7.74 18.36 7.67 18.36 7.6 18.37C7.54 18.38 7.48 18.4 7.42 18.41L7.28 20.75L9.53 20.61C9.55 20.53 9.57 20.44 9.58 20.35C9.68 19.21 8.9 18.36 7.8 18.36Z" fill="#304B79"/>
</svg>