<svg width="30" height="120" viewBox="0 0 30 120" fill="none" xmlns="http://www.w3.org/2000/svg">
<path d="M14 80.73C10.22 80.73 7.14 77.65 7.14 73.87C7.13 70.08 10.21 67 14 67C17.78 67 20.86 70.08 20.87 73.87C20.86 77.65 17.78 80.73 14 80.73ZM14 68.38C10.97 68.38 8.51 70.84 8.51 73.87C8.51 76.89 10.97 79.36 14 79.36C17.03 79.36 19.49 76.9 19.49 73.87C19.49 70.84 17.02 68.38 14 68.38Z" fill="#777777"/>
<path d="M22.18 83C22 83 21.83 82.93 21.69 82.8L17.86 78.97C17.59 78.7 17.59 78.27 17.86 78C18.13 77.73 18.56 77.73 18.83 78L22.66 81.83C22.93 82.1 22.93 82.53 22.66 82.8C22.53 82.93 22.35 83 22.18 83Z" fill="#777777"/>
<path d="M14 77.19C13.62 77.19 13.31 76.88 13.31 76.5V71.08C13.31 70.7 13.62 70.39 14 70.39C14.38 70.39 14.69 70.7 14.69 71.08V76.5C14.69 76.88 14.38 77.19 14 77.19Z" fill="#777777"/>
<path d="M16.71 74.47H11.29C10.91 74.47 10.6 74.16 10.6 73.78C10.6 73.4 10.91 73.09 11.29 73.09H16.71C17.09 73.09 17.4 73.4 17.4 73.78C17.4 74.17 17.09 74.47 16.71 74.47Z" fill="#777777"/>
<path d="M14 110.73C10.22 110.73 7.14 107.65 7.14 103.87C7.14 100.08 10.22 97 14.01 97C17.79 97 20.87 100.08 20.88 103.87C20.86 107.65 17.78 110.73 14 110.73ZM14 98.38C10.97 98.38 8.51 100.84 8.51 103.87C8.51 106.89 10.97 109.36 14 109.36C17.03 109.36 19.49 106.9 19.49 103.87C19.49 100.84 17.02 98.38 14 98.38Z" fill="#777777"/>
<path d="M22.18 113C22 113 21.83 112.93 21.69 112.8L17.86 108.97C17.59 108.7 17.59 108.27 17.86 108C18.13 107.73 18.56 107.73 18.83 108L22.66 111.83C22.93 112.1 22.93 112.53 22.66 112.8C22.53 112.93 22.35 113 22.18 113Z" fill="#777777"/>
<path d="M16.71 104.47H11.29C10.91 104.47 10.6 104.16 10.6 103.78C10.6 103.4 10.91 103.09 11.29 103.09H16.71C17.09 103.09 17.4 103.4 17.4 103.78C17.4 104.17 17.09 104.47 16.71 104.47Z" fill="#777777"/>
<path d="M7.91 43.88C7.41 43.88 7 43.47 7 42.97V37.95C7 37.45 7.41 37.04 7.91 37.04H12.93C13.43 37.04 13.84 37.45 13.84 37.95C13.84 38.45 13.43 38.86 12.93 38.86H8.83V42.97C8.83 43.47 8.42 43.88 7.91 43.88Z" fill="#777777"/>
<path d="M22.09 43.88C21.59 43.88 21.18 43.47 21.18 42.97V38.86H17.07C16.57 38.86 16.16 38.45 16.16 37.95C16.16 37.45 16.57 37.04 17.07 37.04H22.09C22.59 37.04 23 37.45 23 37.95V42.97C23 43.47 22.59 43.88 22.09 43.88Z" fill="#777777"/>
<path d="M12.93 52.96H7.91C7.41 52.96 7 52.55 7 52.05V47.03C7 46.53 7.41 46.12 7.91 46.12C8.41 46.12 8.82 46.53 8.82 47.03V51.14H12.93C13.43 51.14 13.84 51.55 13.84 52.05C13.84 52.56 13.44 52.96 12.93 52.96Z" fill="#777777"/>
<path d="M22.09 52.96H17.07C16.57 52.96 16.16 52.55 16.16 52.05C16.16 51.55 16.57 51.14 17.07 51.14H21.18V47.03C21.18 46.53 21.59 46.12 22.09 46.12C22.59 46.12 23 46.53 23 47.03V52.05C23 52.56 22.59 52.96 22.09 52.96Z" fill="#777777"/>
<path d="M7.91 13.88C7.41 13.88 7 13.47 7 12.97V7.94999C7 7.44999 7.41 7.03999 7.91 7.03999H12.93C13.43 7.03999 13.84 7.44999 13.84 7.94999C13.84 8.44999 13.43 8.85999 12.93 8.85999H8.83V12.97C8.83 13.47 8.42 13.88 7.91 13.88Z" fill="#777777"/>
<path d="M22.09 13.88C21.59 13.88 21.18 13.47 21.18 12.97V8.85999H17.07C16.57 8.85999 16.16 8.44999 16.16 7.94999C16.16 7.44999 16.57 7.03999 17.07 7.03999H22.09C22.59 7.03999 23 7.44999 23 7.94999V12.97C23 13.47 22.59 13.88 22.09 13.88Z" fill="#777777"/>
<path d="M12.93 22.96H7.91C7.41 22.96 7 22.55 7 22.05V17.03C7 16.53 7.41 16.12 7.91 16.12C8.41 16.12 8.82 16.53 8.82 17.03V21.14H12.93C13.43 21.14 13.84 21.55 13.84 22.05C13.84 22.56 13.44 22.96 12.93 22.96Z" fill="#777777"/>
<path d="M22.09 22.96H17.07C16.57 22.96 16.16 22.55 16.16 22.05C16.16 21.55 16.57 21.14 17.07 21.14H21.18V17.03C21.18 16.53 21.59 16.12 22.09 16.12C22.59 16.12 23 16.53 23 17.03V22.05C23 22.56 22.59 22.96 22.09 22.96Z" fill="#777777"/>
<path d="M19.37 20H10.63C10.28 20 10 19.72 10 19.37V10.63C10 10.28 10.28 10 10.63 10H19.37C19.72 10 20 10.28 20 10.63V19.37C20 19.72 19.72 20 19.37 20ZM11.26 18.74H18.74V11.26H11.26V18.74V18.74Z" fill="#777777"/>
</svg>