<svg width="24" height="264" viewBox="0 0 24 264" fill="none" xmlns="http://www.w3.org/2000/svg">
<path d="M16 199H8C6.9 199 6 199.9 6 201V207C6 208.1 6.9 209 8 209H16C17.1 209 18 208.1 18 207V201C18 199.9 17.1 199 16 199ZM15.89 201.85L13.98 203.76L13.27 204.47L12.36 205.38C12.16 205.58 11.85 205.58 11.65 205.38L10.74 204.47L10.03 203.76L8.12 201.85C7.92 201.65 7.92 201.34 8.12 201.14C8.32 200.94 8.63 200.94 8.83 201.14L10.74 203.05L11.45 203.76L12.01 204.32L12.57 203.76L13.28 203.05L15.19 201.14C15.39 200.94 15.7 200.94 15.9 201.14C16.08 201.34 16.08 201.66 15.89 201.85Z" fill="#666666"/>
<path d="M12.05 11.54C10.52 11.54 9.27 10.18 9.27 8.52C9.27 6.85 10.52 5.5 12.05 5.5C13.58 5.5 14.83 6.86 14.83 8.52C14.83 10.19 13.58 11.54 12.05 11.54Z" fill="#666666"/>
<path d="M16.23 18.5H7.77C7.47 18.5 7.21 18.27 7.19 17.98L7 15.33C6.93 14.35 7.71 13.23 8.7 12.87C10.83 12.13 13.16 12.13 15.28 12.87C16.28 13.23 17.06 14.35 16.99 15.33L16.81 17.98C16.79 18.27 16.54 18.5 16.23 18.5Z" fill="#666666"/>
<path d="M6.5 41.8C6.22 41.8 6 41.58 6 41.3V31.37C6 30.06 7.06 29 8.37 29H15.9C16.18 29 16.4 29.22 16.4 29.5C16.4 29.78 16.18 30 15.9 30H8.37C7.62 30 7 30.62 7 31.37V41.3C7 41.58 6.78 41.8 6.5 41.8Z" fill="#666666"/>
<path d="M17 31H9C8.45 31 8 31.45 8 32V42C8 42.55 8.45 43 9 43H17C17.55 43 18 42.55 18 42V32C18 31.45 17.55 31 17 31ZM10.5 33H13.5C13.78 33 14 33.22 14 33.5C14 33.78 13.78 34 13.5 34H10.5C10.22 34 10 33.78 10 33.5C10 33.22 10.22 33 10.5 33ZM15.5 40H10.5C10.22 40 10 39.78 10 39.5C10 39.22 10.22 39 10.5 39H15.5C15.78 39 16 39.22 16 39.5C16 39.78 15.78 40 15.5 40ZM15.5 37H10.5C10.22 37 10 36.78 10 36.5C10 36.22 10.22 36 10.5 36H15.5C15.78 36 16 36.22 16 36.5C16 36.78 15.78 37 15.5 37Z" fill="#666666"/>
<path d="M6.5 65.8C6.22 65.8 6 65.58 6 65.3V55.37C6 54.06 7.06 53 8.37 53H15.9C16.18 53 16.4 53.22 16.4 53.5C16.4 53.78 16.18 54 15.9 54H8.37C7.62 54 7 54.62 7 55.37V65.3C7 65.58 6.78 65.8 6.5 65.8Z" fill="#666666"/>
<path d="M18 60.1V56C18 55.45 17.55 55 17 55H9C8.45 55 8 55.45 8 56V66C8 66.55 8.45 67 9 67H12.93C12.77 66.18 12.83 65.3 12.82 64.48C12.82 64.32 12.83 64.16 12.84 64H10.5C10.22 64 10 63.78 10 63.5C10 63.22 10.22 63 10.5 63H12.93C12.94 62.9 12.95 62.8 12.97 62.7C13.06 62.14 13.24 61.53 13.59 61.07C13.61 61.04 13.64 61.02 13.66 61H10.5C10.22 61 10 60.78 10 60.5C10 60.22 10.22 60 10.5 60H15.5C15.62 60 15.73 60.05 15.82 60.12L18 60.1ZM10.5 57H13.5C13.78 57 14 57.22 14 57.5C14 57.78 13.78 58 13.5 58H10.5C10.22 58 10 57.78 10 57.5C10 57.22 10.22 57 10.5 57Z" fill="#666666"/>
<path d="M14.3366 65.5303L18.9366 65.5303L18.9366 62.4603L14.3366 62.4603L14.3366 65.5303Z" fill="#666666"/>
<path d="M20.47 64L17.4 67.07V60.93L20.47 64Z" fill="#666666"/>
<path d="M6.55 175.5H9.11L10.68 183.38H8.66L8.48 181.98H7.13L6.93 183.38H5L6.55 175.5ZM7.33 180.58H8.29L7.84 176.73H7.82L7.33 180.58Z" fill="#666666"/>
<path d="M11.18 175.5H13.24C13.81 175.5 14.27 175.53 14.63 175.59C14.99 175.65 15.29 175.76 15.53 175.93C15.77 176.1 15.94 176.34 16.05 176.66C16.16 176.98 16.22 177.39 16.22 177.9C16.22 178.22 16.19 178.52 16.14 178.79C16.08 179.06 15.98 179.31 15.84 179.53C15.7 179.75 15.49 179.93 15.22 180.06C14.95 180.19 14.61 180.26 14.19 180.26H13.1V183.38H11.17V175.5H11.18ZM13.11 178.85H13.59C13.88 178.85 14.08 178.78 14.17 178.63C14.26 178.49 14.31 178.23 14.31 177.85C14.31 177.41 14.24 177.14 14.11 177.04C13.97 176.94 13.72 176.89 13.34 176.89H13.12V178.85H13.11Z" fill="#666666"/>
<path d="M17.07 175.5H19V183.38H17.07V175.5Z" fill="#666666"/>
<path d="M12 106.65C9.24 106.65 7 105.9 7 104.98V106.65C7 107.57 9.24 108.32 12 108.32C14.76 108.32 17 107.57 17 106.65V104.98C17 105.91 14.76 106.65 12 106.65Z" fill="#666666"/>
<path d="M13.16 109.28C12.79 109.31 12.41 109.34 12 109.34C9.24 109.34 7 108.59 7 107.67V109.34C7 110.26 9.24 111.01 12 111.01C12.23 111.01 12.45 111 12.66 110.99C12.69 110.4 12.84 109.82 13.16 109.28Z" fill="#666666"/>
<path d="M13.1 113.25C13.07 113.19 13.05 113.13 13.03 113.06C12.9 112.72 12.8 112.37 12.74 112.01C12.5 112.02 12.26 112.03 12 112.03C9.24 112.03 7 111.28 7 110.36V112.03C7 112.95 9.24 113.7 12 113.7C12.44 113.7 12.86 113.67 13.27 113.64C13.21 113.51 13.15 113.38 13.1 113.25Z" fill="#666666"/>
<path d="M12 105.63C14.7614 105.63 17 104.882 17 103.96C17 103.038 14.7614 102.29 12 102.29C9.23858 102.29 7 103.038 7 103.96C7 104.882 9.23858 105.63 12 105.63Z" fill="#666666"/>
<path d="M12 82.65C9.24 82.65 7 81.9 7 80.98V82.65C7 83.57 9.24 84.32 12 84.32C14.76 84.32 17 83.57 17 82.65V80.98C17 81.91 14.76 82.65 12 82.65Z" fill="#666666"/>
<path d="M12 85.35C9.24 85.35 7 84.6 7 83.68V85.35C7 86.27 9.24 87.02 12 87.02C14.76 87.02 17 86.27 17 85.35V83.68C17 84.6 14.76 85.35 12 85.35Z" fill="#666666"/>
<path d="M12 88.04C9.24 88.04 7 87.29 7 86.37V88.04C7 88.96 9.24 89.71 12 89.71C14.76 89.71 17 88.96 17 88.04V86.37C17 87.29 14.76 88.04 12 88.04Z" fill="#666666"/>
<path d="M12 81.63C14.7614 81.63 17 80.8823 17 79.96C17 79.0377 14.7614 78.29 12 78.29C9.23858 78.29 7 79.0377 7 79.96C7 80.8823 9.23858 81.63 12 81.63Z" fill="#666666"/>
<path d="M8.42 233.44C8.27 233.44 8.13 233.43 7.98 233.42C7.75 233.4 7.55 233.23 7.51 233C7.47 232.77 7.58 232.54 7.79 232.44C8.25 232.22 8.62 231.91 8.91 231.54C7.12 230.68 6 229.1 6 227.4C6 224.73 8.69 222.56 12 222.56C15.31 222.56 18 224.73 18 227.4C18 230.07 15.31 232.24 12 232.24C11.92 232.24 11.84 232.24 11.77 232.23C10.92 233.01 9.74 233.44 8.42 233.44Z" fill="#666666"/>
<path d="M9.5 228C9.77614 228 10 227.776 10 227.5C10 227.224 9.77614 227 9.5 227C9.22386 227 9 227.224 9 227.5C9 227.776 9.22386 228 9.5 228Z" fill="#ECEEF0"/>
<path d="M12 228C12.2761 228 12.5 227.776 12.5 227.5C12.5 227.224 12.2761 227 12 227C11.7239 227 11.5 227.224 11.5 227.5C11.5 227.776 11.7239 228 12 228Z" fill="#ECEEF0"/>
<path d="M14.5 228C14.7761 228 15 227.776 15 227.5C15 227.224 14.7761 227 14.5 227C14.2239 227 14 227.224 14 227.5C14 227.776 14.2239 228 14.5 228Z" fill="#ECEEF0"/>
<path d="M15.47 258C13.17 258 10.79 256.94 8.94 255.09L8.9 255.05C6.98 253.12 5.94 250.69 6 248.35V248.18L6.11 248.04C6.28 247.83 6.44 247.64 6.61 247.47C7.24 246.84 7.97 246.36 8.8 246.04C8.9 246 9.01 245.98 9.14 245.98C9.42 245.98 10.04 246.12 10.2 246.56C10.48 247.34 10.84 248.37 11.1 249.34C11.17 249.61 11.1 250.28 10.72 250.52L9.81 251.1C9.82 251.11 9.81 251.25 9.93 251.41C10.28 251.9 10.69 252.38 11.15 252.84C11.61 253.29 12.09 253.7 12.57 254.05C12.66 254.12 12.77 254.16 12.86 254.16L13.18 253.72L13.47 253.26C13.72 252.87 14.36 252.86 14.43 252.86C14.5 252.86 14.57 252.87 14.63 252.88C15.83 253.15 16.55 253.38 17.47 253.8C17.88 253.98 18.14 254.72 17.95 255.19C17.63 256.01 17.15 256.75 16.53 257.38C16.35 257.56 16.16 257.72 15.96 257.88L15.83 257.99L15.47 258Z" fill="#666666"/>
<path d="M8.96 161.86C8.44 161.86 8.03 161.7 7.7 161.39C7.38 161.08 7.22 160.6 7.22 159.95V157.6C7.22 157.4 7.18 157.24 7.09 157.12C7 157 6.9 156.9 6.77 156.84C6.65 156.78 6.52 156.74 6.38 156.72C6.25 156.7 6.12 156.69 5.99 156.69V155.32C6.11 155.32 6.24 155.31 6.37 155.29C6.5 155.27 6.63 155.23 6.76 155.16C6.89 155.1 7 155 7.08 154.88C7.17 154.76 7.21 154.6 7.21 154.41V152.07C7.21 151.42 7.37 150.94 7.69 150.63C8.01 150.31 8.43 150.15 8.95 150.15H10.41V151.44H9.89C9.61 151.44 9.42 151.52 9.34 151.68C9.25 151.84 9.21 152.04 9.21 152.28V154.74C9.21 154.97 9.16 155.17 9.06 155.33C8.96 155.49 8.84 155.62 8.69 155.71C8.54 155.8 8.38 155.87 8.21 155.91C8.04 155.95 7.88 155.98 7.73 155.99V156.02C7.93 156.04 8.1 156.06 8.25 156.09C8.4 156.12 8.55 156.18 8.69 156.27C8.84 156.36 8.96 156.49 9.06 156.68C9.16 156.86 9.21 157.09 9.21 157.38V159.75C9.21 159.99 9.25 160.19 9.34 160.35C9.43 160.51 9.61 160.59 9.89 160.59H10.42V161.88H8.96V161.86Z" fill="#666666"/>
<path d="M13.58 160.57H14.12C14.4 160.57 14.59 160.49 14.67 160.33C14.76 160.17 14.8 159.97 14.8 159.73V157.36C14.8 157.08 14.85 156.84 14.95 156.66C15.05 156.48 15.17 156.34 15.32 156.25C15.47 156.16 15.62 156.1 15.77 156.06C15.92 156.03 16.09 156 16.28 156V155.97C16.13 155.96 15.96 155.94 15.8 155.89C15.63 155.85 15.47 155.78 15.32 155.69C15.17 155.6 15.04 155.47 14.95 155.31C14.85 155.15 14.8 154.95 14.8 154.72V152.26C14.8 152.02 14.76 151.82 14.67 151.66C14.58 151.5 14.4 151.42 14.12 151.42H13.58V150.13H15.05C15.57 150.13 15.98 150.29 16.31 150.61C16.63 150.93 16.79 151.41 16.79 152.05V154.39C16.79 154.58 16.83 154.74 16.92 154.86C17.01 154.98 17.11 155.08 17.24 155.14C17.36 155.2 17.49 155.25 17.63 155.27C17.76 155.29 17.89 155.3 18.01 155.3V156.67C17.89 156.67 17.76 156.68 17.63 156.7C17.5 156.72 17.37 156.76 17.24 156.83C17.12 156.89 17.01 156.99 16.92 157.11C16.83 157.24 16.79 157.39 16.79 157.58V159.93C16.79 160.57 16.63 161.05 16.31 161.37C15.99 161.68 15.57 161.84 15.05 161.84H13.58V160.57V160.57Z" fill="#666666"/>
<path d="M12 138C8.69 138 6 135.31 6 132C6 128.69 8.69 126 12 126C15.31 126 18 128.69 18 132C18 135.31 15.31 138 12 138ZM12 127.01C9.25 127.01 7.01 129.25 7.01 132C7.01 134.75 9.25 136.99 12 136.99C14.75 136.99 16.99 134.75 16.99 132C16.99 129.25 14.75 127.01 12 127.01Z" fill="#666666"/>
<path d="M12 137.75C10.11 137.75 8.57 135.17 8.57 132C8.57 128.83 10.11 126.25 12 126.25C13.89 126.25 15.43 128.83 15.43 132C15.43 135.17 13.89 137.75 12 137.75ZM12 126.76C10.39 126.76 9.07 129.11 9.07 132C9.07 134.89 10.38 137.24 12 137.24C13.61 137.24 14.93 134.89 14.93 132C14.93 129.11 13.61 126.76 12 126.76Z" fill="#666666"/>
<path d="M12 137.75C11.86 137.75 11.75 137.64 11.75 137.5V126.51C11.75 126.37 11.86 126.26 12 126.26C15.17 126.26 17.75 128.84 17.75 132.01C17.75 135.17 15.17 137.75 12 137.75ZM12.25 126.76V137.23C15.02 137.1 17.24 134.8 17.24 131.99C17.24 129.19 15.03 126.9 12.25 126.76Z" fill="#666666"/>
<path d="M17.14 134.19H6.86C6.75 134.19 6.66 134.12 6.62 134.03C6.37 133.37 6.25 132.69 6.25 132C6.25 131.31 6.38 130.63 6.62 129.97C6.66 129.87 6.75 129.81 6.86 129.81H17.13C17.24 129.81 17.33 129.88 17.37 129.97C17.62 130.63 17.74 131.31 17.74 132C17.74 132.69 17.61 133.37 17.37 134.03C17.34 134.12 17.24 134.19 17.14 134.19ZM7.04 133.68H16.96C17.15 133.13 17.24 132.57 17.24 132C17.24 131.43 17.15 130.87 16.96 130.32H7.04C6.85 130.87 6.76 131.44 6.76 132C6.76 132.57 6.85 133.13 7.04 133.68Z" fill="#666666"/>
<path d="M14.3366 112.53L18.9366 112.53L18.9366 109.46L14.3366 109.46L14.3366 112.53Z" fill="#666666"/>
<path d="M20.47 111L17.4 114.07V107.93L20.47 111Z" fill="#666666"/>
</svg>