<svg id="heart_on" xmlns="http://www.w3.org/2000/svg" width="24" height="24" viewBox="0 0 24 24">
  <rect id="사각형_15927" data-name="사각형 15927" width="24" height="24" fill="red" opacity="0"/>
  <path id="Icon_ionic-ios-heart" data-name="Icon ionic-ios-heart" d="M16.383,3.938H16.34a5.009,5.009,0,0,0-4.065,2.014A5.009,5.009,0,0,0,8.21,3.938H8.167A4.62,4.62,0,0,0,3.375,8.313,8.873,8.873,0,0,0,5.42,13.452a34.694,34.694,0,0,0,6.855,5.975,34.694,34.694,0,0,0,6.855-5.975,8.873,8.873,0,0,0,2.045-5.139A4.62,4.62,0,0,0,16.383,3.938Z" transform="translate(0.303 -0.208)" fill="red"/>
</svg>
