<svg xmlns="http://www.w3.org/2000/svg" xmlns:xlink="http://www.w3.org/1999/xlink" width="24" height="24" viewBox="0 0 24 24">
  <defs>
    <clipPath id="clip-path">
      <rect id="사각형_15694" data-name="사각형 15694" width="24" height="24" transform="translate(-2 -2)" fill="#fff" stroke="#999" stroke-width="1"/>
    </clipPath>
  </defs>
  <g id="ico_work" transform="translate(2 2)" clip-path="url(#clip-path)">
    <g id="그룹_891" data-name="그룹 891" transform="translate(1.335 2.49)">
      <path id="패스_516" data-name="패스 516" d="M18.162,7.445a1.593,1.593,0,0,1,.168.71v8.823a1.615,1.615,0,0,1-.508,1.17,1.773,1.773,0,0,1-1.225.485H2.733a1.773,1.773,0,0,1-1.225-.485A1.615,1.615,0,0,1,1,16.977V8.154a1.578,1.578,0,0,1,.093-.534c.988.948,2.665,2.559,3.321,3.19a2.365,2.365,0,0,0,1.641.653h6.964a2.367,2.367,0,0,0,1.641-.653c.688-.662,2.438-2.343,3.5-3.365ZM1.816,6.75a1.8,1.8,0,0,1,.917-.25H16.6a1.8,1.8,0,0,1,.75.163c-1.065,1.022-2.82,2.707-3.508,3.37a1.184,1.184,0,0,1-.821.326H6.055a1.183,1.183,0,0,1-.82-.326c-.678-.652-2.446-2.35-3.418-3.283Z" transform="translate(-1 -3.612)" fill="#999" fill-rule="evenodd"/>
      <path id="패스_517" data-name="패스 517" d="M15.221,3.944c0-.8-.4-1.444-.9-1.444H8.9c-.5,0-.9.646-.9,1.444V6.11c0,.4.2.722.451.722h6.318c.249,0,.451-.323.451-.722Zm-6.318,0V5.388h5.416V3.944Z" transform="translate(-2.945 -2.5)" fill="#999" fill-rule="evenodd"/>
    </g>
  </g>
</svg>
