<svg xmlns="http://www.w3.org/2000/svg" xmlns:xlink="http://www.w3.org/1999/xlink" width="24" height="24" viewBox="0 0 24 24">
  <defs>
    <clipPath id="clip-path">
      <rect id="사각형_15696" data-name="사각형 15696" width="24" height="24" transform="translate(667 561)" fill="#999" stroke="#999" stroke-width="1"/>
    </clipPath>
  </defs>
  <g id="ico_total" transform="translate(-667 -561)" clip-path="url(#clip-path)">
    <g id="gear_16302636" transform="translate(669.417 563.46)">
      <path id="패스_587" data-name="패스 587" d="M21.717,15.95a1.835,1.835,0,1,0,1.43,1.43A1.784,1.784,0,0,0,21.717,15.95Z" transform="translate(-11.748 -9.658)" fill="#999"/>
      <path id="패스_588" data-name="패스 588" d="M19.131,8.526l-1.757-.449a6.873,6.873,0,0,0-.654-1.593l.94-1.593a.806.806,0,0,0-.123-.94L16.312,2.725a.8.8,0,0,0-.94-.123l-1.593.981a7.7,7.7,0,0,0-1.593-.654l-.449-1.757A.785.785,0,0,0,11,.6H9.244a.748.748,0,0,0-.735.572L8.059,2.929a6.873,6.873,0,0,0-1.593.654l-1.593-.94a.806.806,0,0,0-.94.123L2.706,3.991a.8.8,0,0,0-.123.94l.94,1.553A7.7,7.7,0,0,0,2.87,8.077l-1.8.449A.785.785,0,0,0,.5,9.262v1.757a.748.748,0,0,0,.572.735l1.757.449A6.873,6.873,0,0,0,3.483,13.8l-.94,1.553a.806.806,0,0,0,.123.94l1.226,1.226a.8.8,0,0,0,.94.123l1.553-.94a7.7,7.7,0,0,0,1.593.654l.449,1.757a.785.785,0,0,0,.735.572h1.757a.748.748,0,0,0,.735-.572l.449-1.757A6.873,6.873,0,0,0,13.7,16.7l1.553.94a.806.806,0,0,0,.94-.123l1.226-1.226a.8.8,0,0,0,.123-.94l-.858-1.512a7.7,7.7,0,0,0,.654-1.593l1.757-.449a.785.785,0,0,0,.572-.735V9.3a.75.75,0,0,0-.531-.776Zm-5.638,4.413a3.954,3.954,0,0,0-6.782,0,4.377,4.377,0,1,1,7.763-2.778A4.424,4.424,0,0,1,13.493,12.939Z" transform="translate(-0.5 -0.6)" fill="#999"/>
    </g>
  </g>
</svg>
