<svg xmlns="http://www.w3.org/2000/svg" xmlns:xlink="http://www.w3.org/1999/xlink" width="24" height="24" viewBox="0 0 24 24">
  <defs>
    <clipPath id="clip-path">
      <rect id="사각형_15481" data-name="사각형 15481" width="24" height="24" transform="translate(-3 -3)" fill="#fff" stroke="#707070" stroke-width="1"/>
    </clipPath>
  </defs>
  <g id="home" transform="translate(3 3)" clip-path="url(#clip-path)">
    <g id="패스_42" data-name="패스 42" transform="translate(0.3 -1.5)" fill="none" stroke-linecap="round">
      <path d="M16.43,17.609a1.267,1.267,0,0,1-1.264,1.264H2.764A1.267,1.267,0,0,1,1.5,17.609V7.734A2.792,2.792,0,0,1,2.523,5.728L7.941,1.806a1.865,1.865,0,0,1,2.047,0l5.418,3.923A2.794,2.794,0,0,1,16.43,7.734v9.875Z" stroke="none"/>
      <path d="M 14.92968368530273 17.37250518798828 L 14.92968368530273 7.734014511108398 C 14.92968368530273 7.519874572753906 14.69918346405029 7.068594932556152 14.52679347991943 6.943474769592285 L 9.114815711975098 3.025039196014404 C 9.098029136657715 3.017223119735718 9.044079780578613 2.999754667282104 8.96484375 2.999754667282104 C 8.885622978210449 2.999754667282104 8.831680297851562 3.017215967178345 8.814883232116699 3.025034189224243 L 3.40385365486145 6.942774772644043 C 3.230233669281006 7.068684577941895 3.000003814697266 7.519774913787842 3.000003814697266 7.734014511108398 L 3.000003814697266 17.37250518798828 L 14.92968368530273 17.37250518798828 M 15.16595363616943 18.87250518798828 L 2.763733863830566 18.87250518798828 C 2.069153785705566 18.87250518798828 1.500003695487976 18.30424499511719 1.500003695487976 17.6087646484375 L 1.500003695487976 7.734014511108398 C 1.500003695487976 7.038534641265869 1.96035373210907 6.136704921722412 2.523213863372803 5.728494644165039 L 7.941403865814209 1.805564761161804 C 8.504262924194336 1.397814631462097 9.425423622131348 1.397814631462097 9.988284111022949 1.805564761161804 L 15.40647411346436 5.728494644165039 C 15.9688835144043 6.136704921722412 16.42968368530273 7.038534641265869 16.42968368530273 7.734014511108398 L 16.42968368530273 17.6087646484375 C 16.42968368530273 18.30424499511719 15.86098384857178 18.87250518798828 15.16595363616943 18.87250518798828 Z" stroke="none" fill="#121212"/>
    </g>
  </g>
</svg>
