<svg xmlns="http://www.w3.org/2000/svg" xmlns:xlink="http://www.w3.org/1999/xlink" width="20" height="20" viewBox="0 0 20 20">
  <defs>
    <clipPath id="clip-path">
      <rect id="mask" width="20" height="20" fill="none"/>
    </clipPath>
  </defs>
  <g id="ico_ume" clip-path="url(#clip-path)">
    <path id="pass" d="M17.619,8.1H11.9V6.667a.476.476,0,0,0-.476-.476h-1A2.857,2.857,0,0,0,7.619,3.81H3.571a.714.714,0,1,1,0-1.429h8.871A1.9,1.9,0,0,0,14.286,3.81h1.429a.476.476,0,0,0,.476-.476h1.429a.476.476,0,0,0,.476-.476V.952a.476.476,0,0,0-.476-.476H16.19A.476.476,0,0,0,15.714,0H14.286a1.9,1.9,0,0,0-1.843,1.429H3.571a1.667,1.667,0,1,0,0,3.333H7.619A1.9,1.9,0,0,1,9.462,6.19h-.89a.476.476,0,0,0-.476.476V8.1H2.381A2.381,2.381,0,0,0,0,10.476v4.286a2.381,2.381,0,0,0,2.381,2.381H17.619A2.381,2.381,0,0,0,20,14.762V10.476A2.381,2.381,0,0,0,17.619,8.1M16.19,1.429h.952v.952H16.19Zm-9.524,11.9a.476.476,0,0,1-.476.476H5.714v.476a.476.476,0,0,1-.476.476h-1.9a.476.476,0,0,1-.476-.476V13.81H2.381a.476.476,0,0,1-.476-.476V10.952a.476.476,0,0,1,.476-.476H6.19a.476.476,0,0,1,.476.476Zm5.714,0a.476.476,0,0,1-.476.476h-.476v.476a.476.476,0,0,1-.476.476h-1.9a.476.476,0,0,1-.476-.476V13.81H8.1a.476.476,0,0,1-.476-.476V10.952a.476.476,0,0,1,.476-.476H11.9a.476.476,0,0,1,.476.476Zm5.714,0a.476.476,0,0,1-.476.476h-.476v.476a.476.476,0,0,1-.476.476h-1.9a.476.476,0,0,1-.476-.476V13.81H13.81a.476.476,0,0,1-.476-.476V10.952a.476.476,0,0,1,.476-.476h3.81a.476.476,0,0,1,.476.476Z" transform="translate(0 1.667)" fill="#121212"/>
  </g>
</svg>
