<svg xmlns="http://www.w3.org/2000/svg" xmlns:xlink="http://www.w3.org/1999/xlink" width="60" height="45" viewBox="0 0 60 45">
  <defs>
    <clipPath id="clip-path">
      <rect id="mask" width="60" height="45" fill="#c78d8d" opacity="0.75"/>
    </clipPath>
    <clipPath id="clip-path-2">
      <rect id="사각형_15733" data-name="사각형 15733" width="39.075" height="45.121" transform="translate(-0.463)" fill="none"/>
    </clipPath>
    <clipPath id="clip-path-3">
      <rect id="사각형_15727" data-name="사각형 15727" width="31.821" height="40" fill="none"/>
    </clipPath>
    <clipPath id="clip-path-4">
      <rect id="사각형_15724" data-name="사각형 15724" width="31.821" height="40.001" fill="none"/>
    </clipPath>
    <clipPath id="clip-path-5">
      <rect id="사각형_15722" data-name="사각형 15722" width="29.019" height="33.044" fill="none"/>
    </clipPath>
    <clipPath id="clip-path-6">
      <rect id="사각형_15723" data-name="사각형 15723" width="24.913" height="25.172" fill="none"/>
    </clipPath>
  </defs>
  <g id="ico_fido" clip-path="url(#clip-path)">
    <g id="그룹_1023" data-name="그룹 1023" transform="translate(10.463)">
      <g id="그룹_1019" data-name="그룹 1019" clip-path="url(#clip-path-2)">
        <g id="그룹_1025" data-name="그룹 1025" transform="translate(3.537 3)">
          <g id="그룹_1008" data-name="그룹 1008" clip-path="url(#clip-path-3)">
            <path id="패스_658" data-name="패스 658" d="M16.087,3.57l-14.6.021V28.852l14.6,8.411,14.581-8.438V3.563Z" transform="translate(1.14 2.736)" fill="#2b72b8"/>
            <path id="패스_659" data-name="패스 659" d="M9.744,37.261l14.583-8.44V11.972L9.744,3.568Z" transform="translate(7.482 2.739)" fill="#26689b"/>
            <g id="그룹_1005" data-name="그룹 1005" transform="translate(0 -0.001)">
              <g id="그룹_1004" data-name="그룹 1004" clip-path="url(#clip-path-4)">
                <g id="그룹_1000" data-name="그룹 1000" transform="translate(2.706 6.581)" opacity="0.43">
                  <g id="그룹_999" data-name="그룹 999">
                    <g id="그룹_998" data-name="그룹 998" clip-path="url(#clip-path-5)">
                      <path id="패스_660" data-name="패스 660" d="M16.038,3.893l-14.5-.076V3.75l14.5.074,14.486-.1v.069Z" transform="translate(-1.525 -3.723)" fill="#aca6a5"/>
                      <path id="패스_661" data-name="패스 661" d="M16.038,4.177l-14.5-.184V3.924l14.5.184L30.523,3.9v.069Z" transform="translate(-1.525 -3.589)" fill="#aca6a5"/>
                      <path id="패스_662" data-name="패스 662" d="M16.045,4.456,1.538,4.17V4.1l14.5.286,14.486-.313v.067Z" transform="translate(-1.525 -3.452)" fill="#aca6a5"/>
                      <path id="패스_663" data-name="패스 663" d="M16.045,4.74,1.538,4.351V4.282l14.507.389,14.479-.423v.067Z" transform="translate(-1.525 -3.318)" fill="#aca6a5"/>
                      <path id="패스_664" data-name="패스 664" d="M16.045,5.02l-14.507-.5V4.452l14.507.5,14.479-.525v.067Z" transform="translate(-1.525 -3.182)" fill="#aca6a5"/>
                      <path id="패스_665" data-name="패스 665" d="M16.045,5.3,1.538,4.7V4.63l14.507.6L30.523,4.6v.067Z" transform="translate(-1.525 -3.046)" fill="#aca6a5"/>
                      <path id="패스_666" data-name="패스 666" d="M16.045,5.584,1.538,4.88V4.811l14.507.7,14.479-.737v.069Z" transform="translate(-1.525 -2.912)" fill="#aca6a5"/>
                      <path id="패스_667" data-name="패스 667" d="M16.045,5.864,1.538,5.051V4.982l14.507.813,14.479-.84v.069Z" transform="translate(-1.525 -2.776)" fill="#aca6a5"/>
                      <path id="패스_668" data-name="패스 668" d="M16.045,6.137,1.538,5.229V5.16l14.507.909,14.479-.935V5.2Z" transform="translate(-1.525 -2.639)" fill="#aca6a5"/>
                      <path id="패스_669" data-name="패스 669" d="M16.045,6.421,1.538,5.409l.007-.069,14.5,1.011L30.523,5.307v.069Z" transform="translate(-1.525 -2.505)" fill="#aca6a5"/>
                      <path id="패스_670" data-name="패스 670" d="M16.045,6.7,1.538,5.58l.007-.069,14.5,1.121L30.523,5.485l.007.069Z" transform="translate(-1.525 -2.369)" fill="#aca6a5"/>
                      <path id="패스_671" data-name="패스 671" d="M16.045,6.981,1.538,5.758l.007-.067,14.5,1.222,14.479-1.25.007.069Z" transform="translate(-1.525 -2.233)" fill="#aca6a5"/>
                      <path id="패스_672" data-name="패스 672" d="M16.045,7.265,1.538,5.932l.007-.06L16.045,7.2,30.523,5.836l.007.069Z" transform="translate(-1.525 -2.099)" fill="#aca6a5"/>
                      <path id="패스_673" data-name="패스 673" d="M16.045,7.545,1.538,6.109l.007-.067,14.5,1.434L30.523,6.014l.007.069Z" transform="translate(-1.525 -1.962)" fill="#aca6a5"/>
                      <path id="패스_674" data-name="패스 674" d="M16.038,7.825,1.538,6.287l.007-.067L16.038,7.756,30.523,6.192l.007.062Z" transform="translate(-1.525 -1.826)" fill="#aca6a5"/>
                      <path id="패스_675" data-name="패스 675" d="M16.038,8.108,1.538,6.461l.007-.067L16.038,8.039,30.523,6.365l.007.069Z" transform="translate(-1.525 -1.693)" fill="#aca6a5"/>
                      <path id="패스_676" data-name="패스 676" d="M16.038,8.389V8.382L1.538,6.639l.007-.067L16.038,8.315,30.523,6.543l.007.069Z" transform="translate(-1.525 -1.556)" fill="#aca6a5"/>
                      <path id="패스_677" data-name="패스 677" d="M16.038,8.665,1.538,6.82l.007-.067L16.038,8.6,30.516,6.717l.014.069Z" transform="translate(-1.525 -1.423)" fill="#aca6a5"/>
                      <path id="패스_678" data-name="패스 678" d="M16.038,8.946,1.538,6.992l.007-.069L16.038,8.877,30.516,6.9l.014.069Z" transform="translate(-1.525 -1.286)" fill="#aca6a5"/>
                      <path id="패스_679" data-name="패스 679" d="M16.041,9.226,1.534,7.17,1.548,7.1,16.041,9.157,30.519,7.073l.014.069Z" transform="translate(-1.528 -1.15)" fill="#aca6a5"/>
                      <path id="패스_680" data-name="패스 680" d="M16.041,9.509,1.534,7.35l.014-.069L16.041,9.44,30.519,7.248l.014.067Z" transform="translate(-1.528 -1.015)" fill="#aca6a5"/>
                      <path id="패스_681" data-name="패스 681" d="M16.041,9.789,1.534,7.521l.014-.069L16.041,9.72,30.519,7.425l.014.067Z" transform="translate(-1.528 -0.879)" fill="#aca6a5"/>
                      <path id="패스_682" data-name="패스 682" d="M16.041,10.069,1.534,7.7l.014-.069L16.041,10,30.519,7.6l.014.067Z" transform="translate(-1.528 -0.742)" fill="#aca6a5"/>
                      <path id="패스_683" data-name="패스 683" d="M16.041,10.353,1.534,7.879l.014-.069,14.493,2.473L30.519,7.777l.014.067Z" transform="translate(-1.528 -0.609)" fill="#aca6a5"/>
                      <path id="패스_684" data-name="패스 684" d="M16.041,10.633v-.007L1.534,8.05l.014-.069,14.493,2.583L30.519,7.955l.014.067Z" transform="translate(-1.528 -0.472)" fill="#aca6a5"/>
                      <path id="패스_685" data-name="패스 685" d="M16.041,10.913v-.007L1.534,8.228l.014-.069,14.493,2.68L30.519,8.132l.014.062Z" transform="translate(-1.528 -0.336)" fill="#aca6a5"/>
                      <path id="패스_686" data-name="패스 686" d="M16.041,11.19h-.007L1.534,8.4l.014-.062,14.493,2.781L30.519,8.306l.014.069Z" transform="translate(-1.528 -0.202)" fill="#aca6a5"/>
                      <path id="패스_687" data-name="패스 687" d="M16.041,11.47h-.007l-14.5-2.89.014-.069L16.041,11.4,30.519,8.484l.014.067Z" transform="translate(-1.528 -0.066)" fill="#aca6a5"/>
                      <path id="패스_688" data-name="패스 688" d="M16.041,11.75h-.007L1.534,8.757l.014-.069,14.493,2.993L30.519,8.662l.014.062Z" transform="translate(-1.528 0.071)" fill="#aca6a5"/>
                      <path id="패스_689" data-name="패스 689" d="M16.041,12.034h-.007l-14.5-3.1.014-.062,14.493,3.1L30.519,8.836l.014.069Z" transform="translate(-1.528 0.204)" fill="#aca6a5"/>
                      <path id="패스_690" data-name="패스 690" d="M16.041,12.314h-.007L1.534,9.109l.014-.067,14.493,3.2L30.519,9.014l.014.069Z" transform="translate(-1.528 0.341)" fill="#aca6a5"/>
                      <path id="패스_691" data-name="패스 691" d="M16.041,12.594h-.007L1.534,9.286l.014-.067,14.493,3.306L30.519,9.191l.014.062Z" transform="translate(-1.528 0.477)" fill="#aca6a5"/>
                      <path id="패스_692" data-name="패스 692" d="M16.041,12.878l-.007-.007L1.534,9.46l.014-.06,14.493,3.4L30.519,9.365l.014.069Z" transform="translate(-1.528 0.61)" fill="#aca6a5"/>
                      <path id="패스_693" data-name="패스 693" d="M16.041,13.158,1.534,9.638l.014-.067,14.493,3.513L30.519,9.543l.014.069Z" transform="translate(-1.528 0.747)" fill="#aca6a5"/>
                      <path id="패스_694" data-name="패스 694" d="M16.041,13.438l-.007-.007L1.534,9.811l.014-.062,14.493,3.615L30.519,9.721l.014.062Z" transform="translate(-1.528 0.884)" fill="#aca6a5"/>
                      <path id="패스_695" data-name="패스 695" d="M16.041,13.715h-.007L1.534,9.99l.014-.067,14.493,3.723L30.519,9.894l.014.069Z" transform="translate(-1.528 1.017)" fill="#aca6a5"/>
                      <path id="패스_696" data-name="패스 696" d="M16.041,13.995h-.007l-14.5-3.826.014-.069,14.493,3.826,14.479-3.854.014.062Z" transform="translate(-1.528 1.153)" fill="#aca6a5"/>
                      <path id="패스_697" data-name="패스 697" d="M16.041,14.278h-.007l-14.5-3.935.014-.062,14.493,3.928,14.479-3.963.014.069Z" transform="translate(-1.528 1.287)" fill="#aca6a5"/>
                      <path id="패스_698" data-name="패스 698" d="M16.041,14.558h-.007L1.534,10.52l.014-.069,14.493,4.038,14.479-4.064.014.067Z" transform="translate(-1.528 1.424)" fill="#aca6a5"/>
                      <path id="패스_699" data-name="패스 699" d="M16.041,14.838h-.007L1.534,10.7l.021-.069,14.486,4.14L30.519,10.6l.014.06Z" transform="translate(-1.528 1.561)" fill="#aca6a5"/>
                      <path id="패스_700" data-name="패스 700" d="M16.041,15.122l-.007-.007-14.5-4.243.021-.062,14.486,4.236,14.479-4.269.021.067Z" transform="translate(-1.528 1.694)" fill="#aca6a5"/>
                      <path id="패스_701" data-name="패스 701" d="M16.041,15.4l-.007-.007L1.534,11.05l.021-.069,14.486,4.347,14.479-4.374.021.067Z" transform="translate(-1.528 1.831)" fill="#aca6a5"/>
                      <path id="패스_702" data-name="패스 702" d="M16.041,15.682l-.007-.007-14.5-4.448.021-.069,14.486,4.45,14.479-4.476.021.062Z" transform="translate(-1.528 1.967)" fill="#aca6a5"/>
                      <path id="패스_703" data-name="패스 703" d="M16.041,15.966l-.007-.007L1.534,11.4l.021-.062,14.486,4.55,14.479-4.584.021.069Z" transform="translate(-1.528 2.1)" fill="#aca6a5"/>
                      <path id="패스_704" data-name="패스 704" d="M16.041,16.239h-.007l-14.5-4.66.021-.069,14.486,4.66,14.479-4.687.021.069Z" transform="translate(-1.528 2.237)" fill="#aca6a5"/>
                      <path id="패스_705" data-name="패스 705" d="M16.041,16.519h-.007l-14.5-4.77.021-.062L16.041,16.45l14.479-4.789.021.062Z" transform="translate(-1.528 2.374)" fill="#aca6a5"/>
                      <path id="패스_706" data-name="패스 706" d="M16.041,16.8h-.007l-14.5-4.872.021-.062,14.486,4.865,14.479-4.9.021.069Z" transform="translate(-1.528 2.507)" fill="#aca6a5"/>
                      <path id="패스_707" data-name="패스 707" d="M16.041,17.083h-.007l-14.5-4.975.021-.067,14.486,4.973,14.479-5,.021.062Z" transform="translate(-1.528 2.643)" fill="#aca6a5"/>
                      <path id="패스_708" data-name="패스 708" d="M16.041,17.363l-.007-.007-14.5-5.077.021-.06,14.486,5.07,14.471-5.1.028.062Z" transform="translate(-1.528 2.78)" fill="#aca6a5"/>
                      <path id="패스_709" data-name="패스 709" d="M16.041,17.647l-.007-.007-14.5-5.18.021-.06,14.486,5.171,14.471-5.206.028.069Z" transform="translate(-1.528 2.913)" fill="#aca6a5"/>
                      <path id="패스_710" data-name="패스 710" d="M16.044,17.927l-.007-.007L1.53,12.638l.028-.067,14.486,5.282,14.471-5.311.028.062Z" transform="translate(-1.531 3.05)" fill="#aca6a5"/>
                      <path id="패스_711" data-name="패스 711" d="M16.044,18.207l-.007-.007L1.53,12.81l.028-.062,14.486,5.385L30.515,12.72l.028.062Z" transform="translate(-1.531 3.187)" fill="#aca6a5"/>
                      <path id="패스_712" data-name="패스 712" d="M16.044,18.49l-.007-.007L1.53,12.99l.028-.062,14.486,5.487,14.471-5.521.028.067Z" transform="translate(-1.531 3.321)" fill="#aca6a5"/>
                      <path id="패스_713" data-name="패스 713" d="M16.044,18.764h-.007L1.53,13.169l.028-.069,14.486,5.6,14.471-5.623.028.062Z" transform="translate(-1.531 3.456)" fill="#aca6a5"/>
                      <path id="패스_714" data-name="패스 714" d="M16.044,19.044,1.53,13.34l.028-.062,14.486,5.7,14.471-5.726.028.062Z" transform="translate(-1.531 3.593)" fill="#aca6a5"/>
                      <path id="패스_715" data-name="패스 715" d="M16.044,19.327h-.007L1.53,13.52l.028-.062,14.486,5.8,14.471-5.834.028.06Z" transform="translate(-1.531 3.727)" fill="#aca6a5"/>
                      <path id="패스_716" data-name="패스 716" d="M16.044,19.607l-.007-.007L1.53,13.69l.028-.062,14.486,5.9L30.515,13.6l.028.06Z" transform="translate(-1.531 3.864)" fill="#aca6a5"/>
                      <path id="패스_717" data-name="패스 717" d="M16.044,19.888l-.007-.007L1.53,13.868l.028-.062,14.486,6.007L30.515,13.78l.028.06Z" transform="translate(-1.531 4)" fill="#aca6a5"/>
                      <path id="패스_718" data-name="패스 718" d="M16.044,20.171l-.014-.007L1.53,14.049l.028-.069L16.044,20.1l14.471-6.141.028.062Z" transform="translate(-1.531 4.134)" fill="#aca6a5"/>
                      <path id="패스_719" data-name="패스 719" d="M16.044,20.451l-.014-.007L1.53,14.219l.028-.062,14.486,6.217,14.471-6.244.028.062Z" transform="translate(-1.531 4.27)" fill="#aca6a5"/>
                      <path id="패스_720" data-name="패스 720" d="M16.044,20.732l-.014-.007L1.53,14.4l.028-.062,14.486,6.322,14.471-6.348.028.062Z" transform="translate(-1.531 4.407)" fill="#aca6a5"/>
                      <path id="패스_721" data-name="패스 721" d="M16.044,21.015l-.014-.007-14.5-6.43.028-.069,14.486,6.431,14.471-6.458.028.062Z" transform="translate(-1.531 4.54)" fill="#aca6a5"/>
                      <path id="패스_722" data-name="패스 722" d="M16.044,21.3l-.014-.007L1.53,14.749l.028-.062,14.486,6.534,14.471-6.56.028.062Z" transform="translate(-1.531 4.677)" fill="#aca6a5"/>
                      <path id="패스_723" data-name="패스 723" d="M16.044,21.572l-.014-.007L1.53,14.93l.028-.062L16.044,21.5l14.471-6.663.028.069Z" transform="translate(-1.531 4.81)" fill="#aca6a5"/>
                      <path id="패스_724" data-name="패스 724" d="M16.044,21.852l-.014-.007L1.53,15.1l.028-.062,14.486,6.739,14.471-6.765.028.062Z" transform="translate(-1.531 4.947)" fill="#aca6a5"/>
                      <path id="패스_725" data-name="패스 725" d="M16.044,22.132l-.014-.007L1.53,15.278l.028-.06,14.486,6.84L30.515,15.19l.028.062Z" transform="translate(-1.531 5.083)" fill="#aca6a5"/>
                      <path id="패스_726" data-name="패스 726" d="M16.044,22.416,1.53,15.459l.028-.06,14.486,6.942,14.471-6.978.028.062Z" transform="translate(-1.531 5.217)" fill="#aca6a5"/>
                      <path id="패스_727" data-name="패스 727" d="M16.044,22.7,1.53,15.63l.028-.06,14.486,7.05,14.471-7.078.028.062Z" transform="translate(-1.531 5.353)" fill="#aca6a5"/>
                      <path id="패스_728" data-name="패스 728" d="M16.044,22.976l-.014-.007L1.53,15.808l.028-.06L16.044,22.9l14.471-7.183.028.062Z" transform="translate(-1.531 5.49)" fill="#aca6a5"/>
                      <path id="패스_729" data-name="패스 729" d="M16.044,23.26l-.014-.007L1.53,15.989l.028-.06,14.486,7.257,14.471-7.292.028.062Z" transform="translate(-1.531 5.623)" fill="#aca6a5"/>
                      <path id="패스_730" data-name="패스 730" d="M16.044,23.54l-.014-.007L1.53,16.161l.028-.062,14.486,7.367,14.471-7.395.028.062Z" transform="translate(-1.531 5.76)" fill="#aca6a5"/>
                      <path id="패스_731" data-name="패스 731" d="M16.044,23.82l-.014-.014L1.53,16.339l.028-.062,14.486,7.462,14.471-7.49.028.062Z" transform="translate(-1.531 5.896)" fill="#aca6a5"/>
                      <path id="패스_732" data-name="패스 732" d="M16.044,24.1l-.014-.007L1.53,16.513l.028-.055,14.486,7.563,14.471-7.6.028.062Z" transform="translate(-1.531 6.03)" fill="#aca6a5"/>
                      <path id="패스_733" data-name="패스 733" d="M16.044,24.377l-.014-.007L1.53,16.691l.028-.062L16.044,24.3l14.471-7.7.028.062Z" transform="translate(-1.531 6.166)" fill="#aca6a5"/>
                      <path id="패스_734" data-name="패스 734" d="M16.044,24.657l-.014-.007L1.53,16.867l.035-.062,14.479,7.777,14.471-7.8.028.053Z" transform="translate(-1.531 6.303)" fill="#aca6a5"/>
                      <path id="패스_735" data-name="패스 735" d="M16.044,24.94l-.014-.007L1.53,17.041l.035-.055,14.479,7.877,14.471-7.911.028.06Z" transform="translate(-1.531 6.437)" fill="#aca6a5"/>
                      <path id="패스_736" data-name="패스 736" d="M16.044,25.22l-14.514-8,.035-.062,14.479,7.989,14.471-8.015.035.06Z" transform="translate(-1.531 6.573)" fill="#aca6a5"/>
                      <path id="패스_737" data-name="패스 737" d="M16.044,25.5l-.014-.007L1.53,17.4l.035-.062,14.479,8.091,14.471-8.118.035.055Z" transform="translate(-1.531 6.71)" fill="#aca6a5"/>
                      <path id="패스_738" data-name="패스 738" d="M16.044,25.784l-.014-.014-14.5-8.2.035-.055L16.044,25.7l14.471-8.22.035.062Z" transform="translate(-1.531 6.843)" fill="#aca6a5"/>
                      <path id="패스_739" data-name="패스 739" d="M16.044,26.064l-.014-.014-14.5-8.3.035-.062,14.479,8.3L30.515,17.66l.035.062Z" transform="translate(-1.531 6.98)" fill="#aca6a5"/>
                    </g>
                  </g>
                </g>
                <g id="그룹_1003" data-name="그룹 1003" transform="translate(6.348 14.418)" opacity="0.25" style="mix-blend-mode: multiply;isolation: isolate">
                  <g id="그룹_1002" data-name="그룹 1002">
                    <g id="그룹_1001" data-name="그룹 1001" clip-path="url(#clip-path-6)">
                      <path id="패스_740" data-name="패스 740" d="M28.5,24.821,22.176,8.156,7.41,12.31,3.591,19.183,14.345,33.328Z" transform="translate(-3.591 -8.155)" fill="#392e2d"/>
                    </g>
                  </g>
                </g>
              </g>
            </g>
            <path id="패스_741" data-name="패스 741" d="M24.616,0V2.864H19.252V0H12.918V2.864h-5.1V0H1.48V5.761h29.2V0Z" transform="translate(1.137 0)" fill="#1e4d85"/>
            <path id="패스_742" data-name="패스 742" d="M2.843,28.066V4.925H29.3V28.04l-13.22,7.653ZM30.66,3.564H1.484V28.853l14.6,8.411,14.581-8.44V3.564Z" transform="translate(1.139 2.737)" fill="#1e4d85"/>
            <g id="그룹_1007" data-name="그룹 1007" transform="translate(0 -0.001)">
              <g id="그룹_1006" data-name="그룹 1006" clip-path="url(#clip-path-4)">
                <path id="패스_743" data-name="패스 743" d="M14.314,27.665A11.076,11.076,0,1,0,3.239,16.589,11.076,11.076,0,0,0,14.314,27.665" transform="translate(2.487 4.233)" fill="#275ea8"/>
                <path id="패스_744" data-name="패스 744" d="M14.524,28.35A11.555,11.555,0,1,1,26.078,16.8,11.572,11.572,0,0,1,14.524,28.35m0-22.153a10.6,10.6,0,1,0,10.6,10.6,10.612,10.612,0,0,0-10.6-10.6" transform="translate(2.28 4.025)" fill="#fff"/>
                <path id="패스_745" data-name="패스 745" d="M9.767,12.335a.272.272,0,0,0-.539.074,6.667,6.667,0,0,1-2.051,5.747.271.271,0,0,0-.014.384.289.289,0,0,0,.2.088.267.267,0,0,0,.186-.076,7.2,7.2,0,0,0,2.22-6.217" transform="translate(5.444 9.292)" fill="#fff"/>
                <path id="패스_746" data-name="패스 746" d="M7.035,12.909s0-.028-.014-.034a6.139,6.139,0,0,1-.1-.856.27.27,0,0,0-.286-.258.266.266,0,0,0-.26.286,6.708,6.708,0,0,0,.117.978c0,.012,0,.027.014.034a2.712,2.712,0,0,1-.91,2.556A.271.271,0,0,0,5.558,16a.277.277,0,0,0,.205.1.259.259,0,0,0,.179-.069,3.247,3.247,0,0,0,1.085-3.115Z" transform="translate(4.219 9.032)" fill="#fff"/>
                <path id="패스_747" data-name="패스 747" d="M8.043,13.648a.273.273,0,0,0-.355.157,4.769,4.769,0,0,1-1.4,1.934.271.271,0,0,0-.042.382.27.27,0,0,0,.384.041A5.283,5.283,0,0,0,8.193,14a.273.273,0,0,0-.157-.355Z" transform="translate(4.749 10.466)" fill="#fff"/>
                <path id="패스_748" data-name="패스 748" d="M5.851,10.888a.272.272,0,0,0,.382-.055,7.633,7.633,0,0,1,9.52-2.351A.27.27,0,0,0,15.992,8a8.187,8.187,0,0,0-10.2,2.521.274.274,0,0,0,.062.384Z" transform="translate(4.405 5.499)" fill="#fff"/>
                <path id="패스_749" data-name="패스 749" d="M5.577,14.971a.035.035,0,0,0-.007-.021,7.534,7.534,0,0,1,.691-4.968.274.274,0,0,0-.486-.251,8.1,8.1,0,0,0-.737,5.335.066.066,0,0,0,.012.028c.021.11.048.21.069.32a.275.275,0,0,0,.267.205.241.241,0,0,0,.067-.007.273.273,0,0,0,.2-.327c-.028-.11-.049-.219-.076-.329Z" transform="translate(3.743 7.36)" fill="#fff"/>
                <path id="패스_750" data-name="패스 750" d="M10.933,8.391a6.165,6.165,0,0,0-4.886,5.022.274.274,0,0,0,.541.088,5.655,5.655,0,0,1,11.116-.15v.028c.048.246.09.491.131.73a.27.27,0,0,0,.267.233h.041a.271.271,0,0,0,.232-.308c-.034-.253-.081-.52-.136-.78,0-.007,0-.021-.007-.027a6.214,6.214,0,0,0-7.3-4.831Z" transform="translate(4.64 6.355)" fill="#fff"/>
                <path id="패스_751" data-name="패스 751" d="M12.675,12.314a2.257,2.257,0,0,0-4.421-.021.273.273,0,0,0,.534.11,1.709,1.709,0,0,1,3.341-.019v.034a10.645,10.645,0,0,1,.212,2.077.273.273,0,1,0,.546,0,11.354,11.354,0,0,0-.212-2.146Z" transform="translate(6.334 8.063)" fill="#fff"/>
                <path id="패스_752" data-name="패스 752" d="M10.777,11.844a.27.27,0,0,0-.322-.212.263.263,0,0,0-.21.322,8.564,8.564,0,0,1-1.982,7.407.263.263,0,0,0,.027.382.268.268,0,0,0,.179.069.277.277,0,0,0,.205-.1,9.108,9.108,0,0,0,2.1-7.872" transform="translate(6.291 8.929)" fill="#fff"/>
                <path id="패스_753" data-name="패스 753" d="M15.668,13.092l-.007-.021a8.118,8.118,0,0,0-3.315-5.056.274.274,0,1,0-.313.451,7.612,7.612,0,0,1,3.1,4.736.021.021,0,0,0,.007.019,7.892,7.892,0,0,1,.148,1.641.28.28,0,0,0,.267.281.274.274,0,0,0,.274-.267,7.779,7.779,0,0,0-.164-1.784Z" transform="translate(9.149 6.116)" fill="#fff"/>
                <path id="패스_754" data-name="패스 754" d="M15.484,12.78A4.227,4.227,0,1,0,7.2,14.454a.12.12,0,0,0,.012.048,4.376,4.376,0,0,1,.055,1.374.27.27,0,0,0,.239.3.275.275,0,0,0,.3-.239,5.2,5.2,0,0,0-.076-1.586.123.123,0,0,0-.014-.048,3.685,3.685,0,0,1,7.23-1.428V12.9a12.431,12.431,0,0,1,.081,4.522.269.269,0,0,0,.226.315H15.3a.269.269,0,0,0,.265-.225,13.133,13.133,0,0,0-.081-4.708Z" transform="translate(5.46 7.208)" fill="#fff"/>
                <path id="패스_755" data-name="패스 755" d="M13.246,12.106a.264.264,0,0,0-.253.286,14.567,14.567,0,0,1-.458,4.641.274.274,0,0,0,.191.334c.021,0,.048.007.069.007a.279.279,0,0,0,.267-.205,15.1,15.1,0,0,0,.477-4.817.264.264,0,0,0-.286-.253Z" transform="translate(9.617 9.289)" fill="#fff"/>
                <path id="패스_756" data-name="패스 756" d="M12.157,14.506a.274.274,0,0,0-.334.191,12.631,12.631,0,0,1-.841,2.256.271.271,0,0,0,.486.239,13.068,13.068,0,0,0,.88-2.357.275.275,0,0,0-.191-.336Z" transform="translate(8.41 11.131)" fill="#fff"/>
                <path id="패스_757" data-name="패스 757" d="M11.628,13.32a.27.27,0,0,0-.3.239,10.62,10.62,0,0,1-1.791,4.784.271.271,0,0,0,.069.375.258.258,0,0,0,.157.048.276.276,0,0,0,.225-.115,11.194,11.194,0,0,0,1.879-5.029.27.27,0,0,0-.239-.3" transform="translate(7.286 10.227)" fill="#fff"/>
                <path id="패스_758" data-name="패스 758" d="M17.547,8.293H0V2.6H17.547L16.154,5.369Z" transform="translate(0 1.998)" fill="#4e8bc7"/>
                <path id="패스_759" data-name="패스 759" d="M3.805,3.181v.663H2.076v.827h1.5v.608h-1.5V6.754H1.291V3.181Z" transform="translate(0.992 2.443)" fill="#fff"/>
                <rect id="사각형_15725" data-name="사각형 15725" width="0.785" height="3.573" transform="translate(5.249 5.625)" fill="#fff"/>
                <path id="패스_760" data-name="패스 760" d="M5.348,3.188A1.805,1.805,0,0,1,5.99,3.3a1.452,1.452,0,0,1,.513.329,1.478,1.478,0,0,1,.341.553,2.186,2.186,0,0,1,.124.773,2.379,2.379,0,0,1-.1.718,1.7,1.7,0,0,1-.3.566,1.391,1.391,0,0,1-.506.377,1.739,1.739,0,0,1-.711.136H3.8V3.174H5.348ZM5.293,6.1a1.051,1.051,0,0,0,.329-.055.66.66,0,0,0,.286-.184.945.945,0,0,0,.2-.336,1.5,1.5,0,0,0,.074-.5,2.139,2.139,0,0,0-.053-.484,1.034,1.034,0,0,0-.171-.377.72.72,0,0,0-.315-.239,1.255,1.255,0,0,0-.484-.081H4.6V6.091h.7Z" transform="translate(2.92 2.438)" fill="#fff"/>
                <path id="패스_761" data-name="패스 761" d="M5.936,4.278a2.044,2.044,0,0,1,.341-.6,1.628,1.628,0,0,1,.553-.4,1.831,1.831,0,0,1,.739-.143,1.792,1.792,0,0,1,.737.143,1.567,1.567,0,0,1,.548.4,1.838,1.838,0,0,1,.348.6,2.239,2.239,0,0,1,.122.746,2.116,2.116,0,0,1-.122.73,1.762,1.762,0,0,1-.348.589,1.7,1.7,0,0,1-.548.4,1.974,1.974,0,0,1-1.476,0,1.57,1.57,0,0,1-.553-.4,1.7,1.7,0,0,1-.341-.589,2.3,2.3,0,0,1-.122-.73,2.238,2.238,0,0,1,.122-.746m.718,1.183a1.04,1.04,0,0,0,.171.382.875.875,0,0,0,.3.274.9.9,0,0,0,.451.1.914.914,0,0,0,.451-.1.845.845,0,0,0,.3-.274A1.445,1.445,0,0,0,8.5,5.461a1.894,1.894,0,0,0,.055-.437A2.131,2.131,0,0,0,8.5,4.566a1.1,1.1,0,0,0-.171-.391.965.965,0,0,0-.3-.272.914.914,0,0,0-.451-.1.9.9,0,0,0-.451.1.812.812,0,0,0-.3.272,1.418,1.418,0,0,0-.171.391,2.029,2.029,0,0,0-.055.458,1.846,1.846,0,0,0,.055.437" transform="translate(4.464 2.405)" fill="#fff"/>
              </g>
            </g>
          </g>
        </g>
      </g>
    </g>
  </g>
</svg>
