<svg xmlns="http://www.w3.org/2000/svg" xmlns:xlink="http://www.w3.org/1999/xlink" width="16" height="16" viewBox="0 0 16 16">
  <defs>
    <clipPath id="clip-path">
      <rect id="사각형_15444" data-name="사각형 15444" width="16" height="16" transform="translate(-2.834 -0.753)" fill="#fff"/>
    </clipPath>
  </defs>
  <g id="ico_autopay" transform="translate(2.834 0.753)" clip-path="url(#clip-path)">
    <g id="그룹_717" data-name="그룹 717" transform="translate(0.167 0.247)">
      <path id="패스_431" data-name="패스 431" d="M35.687,1126.974a1.22,1.22,0,0,0,1.22,1.22H43.96a1.22,1.22,0,0,0,1.22-1.22v-.011H35.687Z" transform="translate(-35.268 -1113.7)" fill="#fff"/>
      <path id="패스_432" data-name="패스 432" d="M164.957,5.83a2.835,2.835,0,0,1,.4,1.158c.14.626.25,1.341.339,1.916.018.117.035.228.051.331l.044,0c.136-.012.267-.023.388-.031.325-.024.593-.035.8-.035s.471.012.8.036c.121.009.252.019.389.031l.044,0c.016-.1.033-.214.051-.331.089-.575.2-1.29.339-1.916a2.837,2.837,0,0,1,.4-1.158,3.318,3.318,0,0,0,.844-1.062,3.24,3.24,0,1,0-5.715,0,3.319,3.319,0,0,0,.844,1.062" transform="translate(-161.805)" fill="#fff"/>
      <path id="패스_433" data-name="패스 433" d="M10.315,824.3a.933.933,0,0,0-.353-.665A1.25,1.25,0,0,0,9.4,823.4l-.865-.157c-.4-.074-1.371-.2-2.226-.273-.13-.012-.258-.022-.38-.031-.292-.021-.556-.034-.758-.034s-.466.013-.758.034c-.123.009-.25.019-.38.031-.855.075-1.822.2-2.226.273l-.865.157a1.25,1.25,0,0,0-.567.241.933.933,0,0,0-.353.665,7.672,7.672,0,0,0-.014.811c0,.107,0,.218,0,.326v.52H10.325v-.52c0-.108,0-.219,0-.326a7.676,7.676,0,0,0-.014-.811" transform="translate(0 -813.219)" fill="#fff"/>
    </g>
  </g>
</svg>
