<svg xmlns="http://www.w3.org/2000/svg" width="24" height="24"><defs><clipPath id="a"><path fill="none" d="M-4.214-4.394h24v24h-24z"/></clipPath></defs><g clip-path="url(#a)" transform="translate(4.214 4.394)"><g fill="#fff" stroke="#dc070c" transform="translate(-2.214 -2.394)"><rect width="20" height="20" stroke="none" rx="3"/><rect width="19" height="19" x=".5" y=".5" fill="none" rx="2.5"/></g><path fill="#dc000c" d="M15.569 10.153a1.159 1.159 0 0 0-.106-.4l-.047-.088v-.008c-.013-.022-.028-.043-.042-.063l-.012-.017A.608.608 0 0 0 15.3 9.5l-.051-.057-.037-.035a1.841 1.841 0 0 0-.623-.354 3.6 3.6 0 0 0-.632-.159 6.123 6.123 0 0 0-.625-.069 10.813 10.813 0 0 0-1.238 0 20.622 20.622 0 0 0-1.755.182 11.263 11.263 0 0 1-.223-.206 11.307 11.307 0 0 1-1.237-1.4c-.045-.057-.087-.118-.128-.177L8.583 7 8.5 6.872l-.114-.183-.437-.736-.1-.173a13.053 13.053 0 0 0 .437-1.567 10.122 10.122 0 0 0 .2-1.43c.013-.242.021-.444.016-.639 0-.1-.005-.19-.01-.28v-.021c0-.033 0-.065-.007-.1v-.049l-.025-.142a2.268 2.268 0 0 0-.138-.534 2.14 2.14 0 0 0-.23-.433 1.781 1.781 0 0 0-.277-.321 1.079 1.079 0 0 0-.315-.2A.878.878 0 0 0 7.2 0a.86.86 0 0 0-.22.021.716.716 0 0 0-.08.021.581.581 0 0 0-.052.018l-.034.013L6.86.2 6.806.076l-.035.015a1.071 1.071 0 0 0-.117.061A1.162 1.162 0 0 0 6.292.5 1.322 1.322 0 0 0 6.2.654a1.39 1.39 0 0 0-.068.175 2.622 2.622 0 0 0-.1.4 4.062 4.062 0 0 0-.03 1 9.329 9.329 0 0 0 .658 2.576 18.447 18.447 0 0 0 .427.981l-.06.147-.136.33-.03.074c-.016.04-.034.081-.053.123l-.032.071-.091.2-.034.073c-.02.043-.039.087-.059.128l-.268.543a1.071 1.071 0 0 1-.013.028l-.029.066a44.159 44.159 0 0 1-1.472 2.925c-.388.15-.77.308-1.136.472l-.1.044c-.155.07-.315.142-.468.218s-.328.161-.487.241l-.348.183-.093.052-.179.1-.024.014c-.082.048-.167.1-.254.154-.072.048-.167.111-.26.177a6.43 6.43 0 0 0-.5.386 4.7 4.7 0 0 0-.472.448 2.967 2.967 0 0 0-.214.263c-.035.048-.072.1-.1.144l-.009.015a.427.427 0 0 0-.018.032l-.021.039a.729.729 0 0 0-.038.079l-.009.021a1.171 1.171 0 0 0-.019.835 1.142 1.142 0 0 0 .218.368l.056.059a.245.245 0 0 0 .021.02L.4 14.9a.229.229 0 0 0 .047.038l.064.047h.006l.061.037.023.014a1.365 1.365 0 0 0 .669.172h.09a1.91 1.91 0 0 0 .355-.055 2.442 2.442 0 0 0 .325-.107 2.667 2.667 0 0 0 .58-.328 2.936 2.936 0 0 0 .25-.208l.043-.041.077-.069.106-.114.034-.037c.023-.025.046-.049.068-.075l.095-.109c.058-.065.112-.132.165-.2l.026-.032c.222-.275.446-.578.685-.928.37-.543.732-1.13 1.136-1.846.31-.116.623-.226.932-.329l.145-.049.09-.029.053-.016.583-.181.616-.172c.09-.025.174-.049.263-.07l.6-.148c.074-.019.149-.035.228-.052l.361-.078.148-.032a12.843 12.843 0 0 1 .802-.152 11.223 11.223 0 0 0 1.326.978l.08.05.032.019c.069.042.14.085.211.125l.117.067.131.071c.082.042.169.084.269.127a3.874 3.874 0 0 0 1.169.3 3.8 3.8 0 0 0 .615.01 2.838 2.838 0 0 0 .322-.041 2.15 2.15 0 0 0 .326-.09 1.682 1.682 0 0 0 .167-.071l.018-.009c.019-.01.041-.021.061-.033h.007c.022-.013.048-.027.074-.045l.038-.025.049-.036.03-.024.032-.028a1.1 1.1 0 0 0 .139-.145l.007-.008a1.138 1.138 0 0 0 .232-.781m-.713.213a.43.43 0 0 1-.068.136l-.014.016a.312.312 0 0 1-.036.038l-.026.023-.057.04-.029.018-.012.007-.024.012-.018.009a.974.974 0 0 1-.1.041 1.467 1.467 0 0 1-.217.06 2.158 2.158 0 0 1-.241.031 3.123 3.123 0 0 1-.5-.008 3.179 3.179 0 0 1-.957-.244c-.083-.036-.156-.071-.222-.1l-.107-.058-.116-.066a9.417 9.417 0 0 1-.179-.107l-.041-.025-.079-.05-.138-.088a11.186 11.186 0 0 1-.607-.427 16.58 16.58 0 0 1 1.061-.092 10.118 10.118 0 0 1 1.157 0 5.434 5.434 0 0 1 .554.061 2.938 2.938 0 0 1 .511.127 1.148 1.148 0 0 1 .391.215l.011.01.006.006.006.008.02.023.006.009.009.013.021.04a.467.467 0 0 1 .04.155.411.411 0 0 1-.017.156M7.292 7.1l.034-.074.078-.169c.037-.08.076-.163.112-.245.084.149.175.3.27.449l.122.192.063.1.2.29c.044.064.09.129.142.195a12.04 12.04 0 0 0 1.159 1.321c-.1.02-.2.042-.3.064l-.146.032-.366.079c-.08.017-.162.035-.242.056l-.6.149a5.637 5.637 0 0 0-.278.074l-.626.175-.6.185-.051.016-.1.032-.146.05-.21.07a46.021 46.021 0 0 0 .917-1.842c.075-.16.141-.3.2-.438l.033-.074.27-.546.064-.138M6.922.352l.035-.013.03-.009h.005l.047-.014A.559.559 0 0 1 7.189.3a.538.538 0 0 1 .194.044.783.783 0 0 1 .223.149 1.466 1.466 0 0 1 .218.269A1.74 1.74 0 0 1 8 1.133a1.819 1.819 0 0 1 .09.455V1.876c0 .083 0 .169-.011.257-.01.174-.03.365-.065.6a9.878 9.878 0 0 1-.3 1.335c-.085.288-.186.59-.306.916a13.446 13.446 0 0 1-.209-.415 11.4 11.4 0 0 1-.536-1.265 6.189 6.189 0 0 1-.286-1.119 3.922 3.922 0 0 1-.042-.485 2.964 2.964 0 0 1 .022-.426 2.26 2.26 0 0 1 .076-.352 1.077 1.077 0 0 1 .05-.138 1 1 0 0 1 .063-.116.826.826 0 0 1 .263-.259.765.765 0 0 1 .083-.044ZM4.251 11.483c-.224.372-.442.712-.659 1.03-.228.334-.441.623-.651.882l-.027.033c-.048.059-.1.12-.149.178l-.091.105-.057.062-.034.037-.092.1-.046.047-.017.016L2.4 14a2.254 2.254 0 0 1-.192.16 1.969 1.969 0 0 1-.428.242 1.718 1.718 0 0 1-.231.076 1.213 1.213 0 0 1-.225.035.675.675 0 0 1-.375-.078l-.019-.014-.02-.012-.042-.031-.033-.029-.02-.022a.443.443 0 0 1-.083-.141.467.467 0 0 1 .008-.331l.008-.018s0-.01.006-.014l.017-.031v-.007l.008-.013a.85.85 0 0 1 .07-.1 2.262 2.262 0 0 1 .166-.2 3.994 3.994 0 0 1 .4-.382c.137-.115.287-.23.459-.35.086-.061.175-.12.241-.164s.146-.09.226-.136l.018-.011.166-.094.092-.051.262-.14.074-.038c.152-.077.308-.157.467-.231s.3-.142.451-.21l.1-.044.283-.124"/></g></svg>