<svg xmlns="http://www.w3.org/2000/svg" xmlns:xlink="http://www.w3.org/1999/xlink" width="20" height="20" viewBox="0 0 20 20">
  <defs>
    <clipPath id="clip-path">
      <rect id="사각형_15484" data-name="사각형 15484" width="20" height="20" fill="#121212"/>
    </clipPath>
  </defs>
  <g id="ico_accessControl" clip-path="url(#clip-path)">
    <g id="그룹_885" data-name="그룹 885" transform="translate(2.829 0.703)">
      <path id="빼기_2" data-name="빼기 2" d="M12.449,8.74H2a2,2,0,0,1-2-2V2A2,2,0,0,1,2,0H12.449a2,2,0,0,1,2,2V6.74A2,2,0,0,1,12.449,8.74ZM11.427,2.765c-.652,0-1.182.72-1.182,1.606s.53,1.606,1.182,1.606,1.183-.72,1.183-1.606S12.079,2.765,11.427,2.765Z" transform="translate(0 0)" fill="#121212"/>
      <path id="빼기_3" data-name="빼기 3" d="M12.449,8.74H2a2,2,0,0,1-2-2V2A2,2,0,0,1,2,0H12.449a2,2,0,0,1,2,2V6.74A2,2,0,0,1,12.449,8.74ZM11.427,2.765c-.652,0-1.182.72-1.182,1.606s.53,1.6,1.182,1.6,1.183-.72,1.183-1.6S12.079,2.765,11.427,2.765Z" transform="translate(0 10.557)" fill="#121212"/>
    </g>
  </g>
</svg>
