<svg xmlns="http://www.w3.org/2000/svg" xmlns:xlink="http://www.w3.org/1999/xlink" width="24" height="24" viewBox="0 0 24 24">
  <defs>
    <clipPath id="clip-path">
      <rect id="mask" width="24" height="24" transform="translate(-2 -2)" fill="#121212"/>
    </clipPath>
  </defs>
  <g id="ico_device" transform="translate(2 2)" clip-path="url(#clip-path)">
    <g id="img" transform="translate(0.833 1.667)">
      <path id="psss2" d="M16.072,263.563H2.08A2.082,2.082,0,0,1,0,261.483v-4.16A1.325,1.325,0,0,1,1.324,256H3.408a1.316,1.316,0,0,1,1.268.943l.812,2.7a.19.19,0,0,0,.181.135h6.816a.189.189,0,0,0,.181-.135l.812-2.7A1.315,1.315,0,0,1,14.744,256h2.084a1.325,1.325,0,0,1,1.324,1.324v4.16A2.082,2.082,0,0,1,16.072,263.563Z" transform="translate(0 -246.924)" fill="#121212"/>
      <path id="pass1" d="M16.072,7.563H2.08A2.082,2.082,0,0,1,0,5.483V1.324A1.325,1.325,0,0,1,1.324,0H3.408A1.316,1.316,0,0,1,4.676.943l.812,2.7a.19.19,0,0,0,.181.135h6.816a.189.189,0,0,0,.181-.135l.812-2.7A1.315,1.315,0,0,1,14.744,0h2.084a1.325,1.325,0,0,1,1.324,1.324v4.16A2.082,2.082,0,0,1,16.072,7.563Z" transform="translate(0 0)" fill="#121212"/>
    </g>
  </g>
</svg>
