<svg xmlns="http://www.w3.org/2000/svg" xmlns:xlink="http://www.w3.org/1999/xlink" width="24" height="24" viewBox="0 0 24 24">
  <defs>
    <clipPath id="clip-path">
      <rect id="mask" width="24" height="24" fill="none" stroke="#999" stroke-width="1"/>
    </clipPath>
  </defs>
  <g id="ico_actLog" clip-path="url(#clip-path)">
    <g id="img" transform="translate(1.5 2.5)">
      <path id="pass05" d="M9.294,17.951H5.171v1.2a2.5,2.5,0,0,1-2.347,2.488c.053,0,.1.016.158.016h8.339" transform="translate(-0.985 -4.14)" fill="none" stroke="#999" stroke-linecap="round" stroke-linejoin="round" stroke-width="1"/>
      <path id="pass04" d="M14.75,8.282V.5H.5V16.012A2,2,0,0,0,2.34,18" transform="translate(-0.5 -0.5)" fill="none" stroke="#999" stroke-linecap="round" stroke-linejoin="round" stroke-width="1"/>
      <path id="pass03" d="M2.62,22.624h.317c-.055,0-.106-.011-.158-.016S2.677,22.624,2.62,22.624Z" transform="translate(-0.942 -5.111)" fill="none" stroke="#999" stroke-linecap="round" stroke-linejoin="round" stroke-width="1"/>
      <line id="line2" x2="1.975" transform="translate(3.756 4.516)" fill="none" stroke="#999" stroke-linecap="round" stroke-linejoin="round" stroke-width="1"/>
      <line id="line1" x2="6.174" transform="translate(3.756 7.727)" fill="none" stroke="#999" stroke-linecap="round" stroke-linejoin="round" stroke-width="1"/>
      <path id="pass02" d="M22.611,10.835a1.712,1.712,0,0,1,2.421,2.421,1.737,1.737,0,0,1-.2.169l-2.389-2.39A1.718,1.718,0,0,1,22.611,10.835Z" transform="translate(-5.077 -2.551)" fill="none" stroke="#27ad98" stroke-linecap="round" stroke-linejoin="round" stroke-width="1"/>
      <circle id="round" cx="4.42" cy="4.42" r="4.42" transform="translate(9.905 9.301)" fill="none" stroke="#27ad98" stroke-linecap="round" stroke-linejoin="round" stroke-width="1"/>
      <path id="pass01" d="M18.055,14.173v2.966H15.721" transform="translate(-3.675 -3.352)" fill="none" stroke="#27ad98" stroke-linecap="round" stroke-linejoin="round" stroke-width="1"/>
    </g>
  </g>
</svg>
