<svg xmlns="http://www.w3.org/2000/svg" xmlns:xlink="http://www.w3.org/1999/xlink" width="36" height="36" viewBox="0 0 36 36">
  <defs>
    <clipPath id="clip-path">
      <rect id="mask" width="36" height="36" transform="translate(0.25 -0.403)" fill="none" stroke="#27ad98" stroke-width="1"/>
    </clipPath>
  </defs>
  <g id="icon_db" transform="translate(-0.25 0.403)" clip-path="url(#clip-path)">
    <g id="db" transform="translate(-26.445 -27.226)">
      <path id="pass10" d="M13.158,29.516A22.576,22.576,0,0,1,4.864,28.1C2.372,27.078,1,25.619,1,23.991a1.018,1.018,0,0,1,.008-.129c.045-1,.626-2.413,3.082-3.631a.924.924,0,0,1,.821,1.655c-1.291.64-2.041,1.4-2.057,2.08q0,.015,0,.029c0,.015,0,.029,0,.042.079,1.532,3.986,3.631,10.309,3.631s10.228-2.1,10.308-3.631c0-.013,0-.027,0-.042s0-.019,0-.029c-.014-.6-.591-1.257-1.624-1.848a.924.924,0,1,1,.918-1.6c2.025,1.159,2.51,2.448,2.551,3.346a1.012,1.012,0,0,1,.008.129c0,1.63-1.373,3.089-3.864,4.11A22.574,22.574,0,0,1,13.158,29.516Z" transform="translate(30.947 23.975)" fill="#27ad98"/>
      <path id="pass7" d="M13.158,38.385a22.578,22.578,0,0,1-8.293-1.417C2.372,35.948,1,34.489,1,32.859V24.533a.924.924,0,0,1,1.848,0v8.327c0,1.536,3.922,3.678,10.31,3.678S23.467,34.4,23.467,32.859c0-.005,0-.026,0-.067a.925.925,0,0,1-.005-.1l.01-8.16a.924.924,0,0,1,1.848,0l-.01,8.115c.007.075.01.145.01.211,0,1.629-1.372,3.088-3.864,4.109A22.575,22.575,0,0,1,13.158,38.385Z" transform="translate(30.947 23.432)" fill="#27ad98"/>
      <path id="pass6" fill="#999"/>
      <path id="line2" d="M2.983,1.348H.424A.924.924,0,1,1,.424-.5H2.983a.924.924,0,1,1,0,1.848Z" transform="translate(42.251 56.513)" fill="#27ad98"/>
      <path id="pass5" d="M13.158,1a22.62,22.62,0,0,1,8.251,1.4c2.445.993,3.826,2.411,3.9,4a1.017,1.017,0,0,1,.008.129c0,1.63-1.373,3.089-3.864,4.109a22.576,22.576,0,0,1-8.293,1.417,22.578,22.578,0,0,1-8.293-1.417C2.372,9.615,1,8.156,1,6.527A1.014,1.014,0,0,1,1.008,6.4c.072-1.586,1.453-3,3.9-4A22.623,22.623,0,0,1,13.158,1ZM23.465,6.574c0-.013,0-.027,0-.042s0-.02,0-.029c-.019-.8-1.047-1.7-2.748-2.39a20.756,20.756,0,0,0-7.555-1.265A20.759,20.759,0,0,0,5.6,4.113C3.9,4.8,2.873,5.7,2.853,6.5q0,.013,0,.027c0,.016,0,.031,0,.045C2.928,8.106,6.836,10.2,13.158,10.2S23.386,8.106,23.465,6.574Z" transform="translate(30.947 26.968)" fill="#27ad98"/>
      <path id="pass2" d="M13.158,21.232a22.581,22.581,0,0,1-8.293-1.417C2.372,18.8,1,17.336,1,15.707V7.38a.924.924,0,0,1,1.848,0v8.327c0,1.535,3.922,3.677,10.31,3.677s10.309-2.142,10.309-3.677a.675.675,0,0,0,0-.068.925.925,0,0,1-.005-.1l.01-8.16a.924.924,0,0,1,1.848,0L25.3,15.5c.007.075.01.145.01.212,0,1.629-1.372,3.088-3.864,4.108A22.578,22.578,0,0,1,13.158,21.232Z" transform="translate(30.947 26.114)" fill="#27ad98"/>
      <path id="lien1" d="M2.983,1.348H.424A.924.924,0,1,1,.424-.5H2.983a.924.924,0,1,1,0,1.848Z" transform="translate(42.251 42.042)" fill="#27ad98"/>
    </g>
  </g>
</svg>
