<svg xmlns="http://www.w3.org/2000/svg" width="24" height="24"><defs><clipPath id="a"><path fill="#121212" d="M-.349 0h24v24h-24z"/></clipPath></defs><g clip-path="url(#a)" transform="translate(.349)"><g fill="#121212"><path d="M11.129 17.96a.954.954 0 0 0 1.316 0l7.918-7.645a.876.876 0 0 0 .2-.979.932.932 0 0 0-.86-.555h-4.519V.898a.915.915 0 0 0-.931-.9H9.316a.915.915 0 0 0-.931.9v7.884H3.866a.932.932 0 0 0-.86.555.876.876 0 0 0 .2.979Z"/><path d="M22.252 17.544h-6.52l-2.172 2.31a2.428 2.428 0 0 1-3.584 0l-2.171-2.31H1.286a.655.655 0 0 0-.634.674v5.1a.655.655 0 0 0 .634.674h20.966a.655.655 0 0 0 .634-.674v-5.1a.655.655 0 0 0-.634-.674"/></g></g></svg>