<svg xmlns="http://www.w3.org/2000/svg" width="24" height="24"><defs><clipPath id="a"><path fill="#121212" d="M-2 0h24v24H-2z"/></clipPath></defs><g clip-path="url(#a)" transform="translate(2)"><g fill="#121212"><path d="m16.14 17.562 3.931-4.829a1.684 1.684 0 0 0-.02-1.97l-4.032-4.648c-.56-.646-1.372-.041-1.362 1.014l.019 1.966h-8.1c-.467 0-.845.564-.845 1.26v3.034c0 .7.378 1.26.845 1.26h8.16l.018 1.955c.01 1.057.835 1.627 1.383.955"/><path d="M8.8 23.7H2.668A3.672 3.672 0 0 1-1 20.027V3.668A3.672 3.672 0 0 1 2.668 0H8.8a3.672 3.672 0 0 1 3.668 3.668V4.5a1.417 1.417 0 1 1-2.834 0v-.83a.835.835 0 0 0-.834-.836H2.668a.835.835 0 0 0-.834.834v16.36a.835.835 0 0 0 .834.834H8.8a.835.835 0 0 0 .834-.834V19.2a1.417 1.417 0 0 1 2.834 0v.83A3.672 3.672 0 0 1 8.8 23.7"/></g></g></svg>