<svg xmlns="http://www.w3.org/2000/svg" xmlns:xlink="http://www.w3.org/1999/xlink" width="16" height="16" viewBox="0 0 16 16">
  <defs>
    <clipPath id="clip-path">
      <rect id="mask" width="16" height="16" transform="translate(-1)" fill="#f9af1c"/>
    </clipPath>
  </defs>
  <g id="icon_alarm" transform="translate(1)" clip-path="url(#clip-path)">
    <g id="img" transform="translate(-0.334)">
      <g id="pass2" transform="translate(-1 -1)" fill="none">
        <path d="M2.257,14.259a1.255,1.255,0,0,1-1.105-1.853l1.362-1.264V7.067A6.027,6.027,0,0,1,8.171,1a6.027,6.027,0,0,1,5.657,6.067v4.075l1.362,1.264a1.255,1.255,0,0,1-1.105,1.853Z" stroke="none"/>
        <path d="M 14.08512783050537 13.25922012329102 C 14.17555713653564 13.25922012329102 14.26024723052979 13.21134090423584 14.30696773529053 13.1328706741333 C 14.33432102203369 13.08710384368896 14.34584140777588 13.03414726257324 14.34137439727783 12.98217391967773 L 12.82811737060547 11.57858085632324 L 12.82811737060547 7.067200660705566 C 12.82811737060547 5.776910305023193 12.30696773529053 4.477970600128174 11.39830780029297 3.503430604934692 C 10.50742721557617 2.547980546951294 9.331207275390625 2.000000476837158 8.171237945556641 2.000000476837158 C 7.011127471923828 2.000000476837158 5.834757804870605 2.547990560531616 4.943787574768066 3.503470420837402 C 4.035027503967285 4.478000640869141 3.513837575912476 5.776930332183838 3.513837575912476 7.067200660705566 L 3.513837575912476 11.57852077484131 L 2.000678300857544 12.9822998046875 C 1.996191263198853 13.03443050384521 2.007782459259033 13.08767604827881 2.035297632217407 13.13382053375244 C 2.08140754699707 13.2111701965332 2.166287660598755 13.25922012329102 2.256827592849731 13.25922012329102 L 14.08512783050537 13.25922012329102 M 14.08512783050537 14.25922012329102 L 2.256827592849731 14.25922012329102 C 1.813577651977539 14.25922012329102 1.403127551078796 14.02631092071533 1.176337599754333 13.64587020874023 C 0.9498075842857361 13.26595020294189 0.9402475953102112 12.79472064971924 1.151797533035278 12.40576076507568 L 2.513837575912476 11.14218044281006 L 2.513837575912476 7.067200660705566 C 2.513837575912476 3.834870576858521 5.157597541809082 1.000000596046448 8.171237945556641 1.000000596046448 C 11.18461799621582 1.000000596046448 13.82811737060547 3.834870576858521 13.82811737060547 7.067200660705566 L 13.82811737060547 11.14218044281006 L 15.19041728973389 12.40576076507568 C 15.40170764923096 12.79472064971924 15.39240741729736 13.26595020294189 15.16535758972168 13.64587020874023 C 14.93882751464844 14.02631092071533 14.52837753295898 14.25922012329102 14.08512783050537 14.25922012329102 Z" stroke="none" fill="#999"/>
      </g>
      <path id="pass" d="M21.956,53.554a1.775,1.775,0,1,0,3.55,0" transform="translate(-16.559 -39.996)" fill="none" stroke="#999" stroke-width="1"/>
    </g>
  </g>
</svg>
