<svg xmlns="http://www.w3.org/2000/svg" xmlns:xlink="http://www.w3.org/1999/xlink" width="20" height="32" viewBox="0 0 20 32">
  <defs>
    <clipPath id="clip-path">
      <rect id="사각형_15810" data-name="사각형 15810" width="20" height="16" fill="#fff"/>
    </clipPath>
    <clipPath id="clip-path-2">
      <rect id="사각형_15811" data-name="사각형 15811" width="20" height="16" transform="translate(0 16)" fill="#fff"/>
    </clipPath>
  </defs>
  <g id="score_donut" transform="translate(-977 -890)">
    <g id="그룹_983" data-name="그룹 983" transform="translate(977 890)" clip-path="url(#clip-path)">
      <path id="패스_731" data-name="패스 731" d="M5.829,4.279A6.736,6.736,0,0,1,8.684,3.1a.483.483,0,0,0,.4-.479V.487A.488.488,0,0,0,8.536,0,9.806,9.806,0,0,0,3.744,1.99a.487.487,0,0,0-.046.729L5.2,4.225a.484.484,0,0,0,.624.054Z" fill="#febb60"/>
      <path id="패스_732" data-name="패스 732" d="M4.279,13.727A6.731,6.731,0,0,1,3.1,10.872a.483.483,0,0,0-.479-.4H.488A.488.488,0,0,0,0,11.02,9.8,9.8,0,0,0,1.99,15.812a.487.487,0,0,0,.729.046l1.506-1.506A.484.484,0,0,0,4.279,13.727Z" fill="#fe4d0e"/>
      <path id="패스_733" data-name="패스 733" d="M10.47.487V2.616a.483.483,0,0,0,.4.479,6.738,6.738,0,0,1,2.855,1.184.484.484,0,0,0,.624-.054l1.507-1.507a.487.487,0,0,0-.046-.729A9.806,9.806,0,0,0,11.02,0a.488.488,0,0,0-.549.483Z" fill="#ebe96d"/>
      <path id="패스_734" data-name="패스 734" d="M3.1,8.684A6.732,6.732,0,0,1,4.279,5.828.484.484,0,0,0,4.225,5.2L2.718,3.7a.487.487,0,0,0-.729.046A9.806,9.806,0,0,0,0,8.536a.488.488,0,0,0,.483.549H2.616a.483.483,0,0,0,.479-.4Z" fill="#ffa120"/>
      <path id="패스_735" data-name="패스 735" d="M16.461,10.872a6.737,6.737,0,0,1-1.184,2.856.484.484,0,0,0,.054.624l1.506,1.506a.487.487,0,0,0,.729-.046,9.8,9.8,0,0,0,1.986-4.792.488.488,0,0,0-.483-.549H16.94a.483.483,0,0,0-.479.4Z" fill="#18b772"/>
      <path id="패스_736" data-name="패스 736" d="M15.277,5.828a6.732,6.732,0,0,1,1.184,2.855.483.483,0,0,0,.479.4h2.129a.488.488,0,0,0,.483-.549,9.8,9.8,0,0,0-1.986-4.792.487.487,0,0,0-.729-.046L15.331,5.2a.484.484,0,0,0-.054.624Z" fill="#7de57b"/>
      <path id="패스_737" data-name="패스 737" d="M8.858,13.5a1.2,1.2,0,0,1-.452-.09,1.177,1.177,0,0,1-.381-.254l-1.867-1.93a1.127,1.127,0,0,1-.146-.739,1.14,1.14,0,0,1,.353-.669,1.194,1.194,0,0,1,1.448-.131L8.8,10.7l3.3-3.951a1.194,1.194,0,0,1,1.472.014,1.145,1.145,0,0,1,.4.653,1.126,1.126,0,0,1-.1.757L9.739,13.087a1.17,1.17,0,0,1-.378.294,1.2,1.2,0,0,1-.467.12Z" fill="#18b772"/>
    </g>
    <g id="그룹_984" data-name="그룹 984" transform="translate(977 890)" clip-path="url(#clip-path-2)">
      <path id="패스_738" data-name="패스 738" d="M5.829,20.279A6.737,6.737,0,0,1,8.684,19.1a.483.483,0,0,0,.4-.479V16.487A.488.488,0,0,0,8.536,16,9.806,9.806,0,0,0,3.744,17.99a.487.487,0,0,0-.046.729L5.2,20.226a.484.484,0,0,0,.624.054Z" fill="#b6b6b6"/>
      <path id="패스_739" data-name="패스 739" d="M4.279,29.727A6.731,6.731,0,0,1,3.1,26.872a.483.483,0,0,0-.479-.4H.488A.488.488,0,0,0,0,27.02,9.8,9.8,0,0,0,1.99,31.812a.487.487,0,0,0,.729.046l1.506-1.506A.484.484,0,0,0,4.279,29.727Z" fill="#d3d3d3"/>
      <path id="패스_740" data-name="패스 740" d="M10.47,16.487v2.129a.483.483,0,0,0,.4.479,6.738,6.738,0,0,1,2.855,1.184.484.484,0,0,0,.624-.054l1.507-1.507a.487.487,0,0,0-.046-.729A9.806,9.806,0,0,0,11.02,16a.488.488,0,0,0-.549.483Z" fill="#a3a3a3"/>
      <path id="패스_741" data-name="패스 741" d="M3.1,24.684a6.732,6.732,0,0,1,1.184-2.855.484.484,0,0,0-.054-.624L2.718,19.7a.487.487,0,0,0-.729.046A9.806,9.806,0,0,0,0,24.536a.488.488,0,0,0,.483.549H2.616a.483.483,0,0,0,.479-.4Z" fill="#c3c3c3"/>
      <path id="패스_742" data-name="패스 742" d="M16.461,26.872a6.737,6.737,0,0,1-1.184,2.855.484.484,0,0,0,.054.624l1.506,1.506a.487.487,0,0,0,.729-.046,9.8,9.8,0,0,0,1.986-4.792.488.488,0,0,0-.483-.549H16.94a.483.483,0,0,0-.479.4Z" fill="#6f6f6f"/>
      <path id="패스_743" data-name="패스 743" d="M15.277,21.828a6.732,6.732,0,0,1,1.184,2.855.483.483,0,0,0,.479.4h2.129a.488.488,0,0,0,.483-.549,9.8,9.8,0,0,0-1.986-4.792.487.487,0,0,0-.729-.046L15.331,21.2a.484.484,0,0,0-.054.624Z" fill="#848484"/>
    </g>
  </g>
</svg>
