<svg xmlns="http://www.w3.org/2000/svg" width="24" height="24"><defs><clipPath id="a"><path fill="none" stroke="#121212" d="M.5.5h24v24H.5z"/></clipPath></defs><g clip-path="url(#a)" transform="translate(-.5 -.5)"><g stroke="#121212" transform="translate(2.121 1.434)"><path fill="none" stroke-linecap="round" stroke-linejoin="round" d="M13.786.811v4.048a4.054 4.054 0 0 1-2.155 3.582l-1.293.686a.811.811 0 0 0 .026 1.307l1.079.5M2.433 18.651v-4.034a4.055 4.055 0 0 1 2.348-3.678l1.1-.509a.811.811 0 0 0 .026-1.3l-1.366-.748a4.054 4.054 0 0 1-2.108-3.554V.811M.879.566h14.939M9.879 19.021h-9"/><path fill="none" d="M15.024 21.186a5.406 5.406 0 1 1 5.411-5.4 5.412 5.412 0 0 1-5.411 5.4"/><circle cx="5.406" cy="5.406" r="5.406" fill="none" stroke-linecap="round" stroke-linejoin="round" transform="translate(9.618 10.377)"/><path fill="#fff" d="M15.137 13.26v2.523l1.716 1.081"/><path fill="none" stroke-linecap="round" stroke-linejoin="round" d="M15.137 13.26v2.523l1.716 1.081"/></g></g></svg>