<svg xmlns="http://www.w3.org/2000/svg" xmlns:xlink="http://www.w3.org/1999/xlink" width="39" height="24" viewBox="0 0 39 24">
  <defs>
    <clipPath id="clip-path">
      <rect id="사각형_15462" data-name="사각형 15462" width="39" height="24" transform="translate(231 856.343)" fill="#fff" stroke="#707070" stroke-width="1"/>
    </clipPath>
  </defs>
  <g id="ico_delegating" transform="translate(-231 -856.343)" clip-path="url(#clip-path)">
    <g id="그룹_659" data-name="그룹 659" transform="translate(232.5 859.396)">
      <g id="그룹_658" data-name="그룹 658" transform="translate(0 0)">
        <path id="패스_426" data-name="패스 426" d="M14.66,4.963A3.962,3.962,0,1,1,10.7,1,3.963,3.963,0,0,1,14.66,4.963Z" transform="translate(-3.275 -1)" fill="none" stroke="#5a98cd" stroke-linejoin="round" stroke-width="1"/>
        <path id="패스_427" data-name="패스 427" d="M15.847,23.514c0,.322-.016.644-.039.966H1.031C1.016,24.158,1,23.836,1,23.514c0-.133,0-.259.008-.393a11.5,11.5,0,0,1,2.946-7.659,1.409,1.409,0,0,1,.11-.118.431.431,0,0,0,.071.055A6.327,6.327,0,0,0,8.25,17.057a1.284,1.284,0,0,0,.173.008,1.271,1.271,0,0,0,.173-.008A6.344,6.344,0,0,0,12.713,15.4a.431.431,0,0,0,.071-.055c.039.039.078.078.11.118a11.507,11.507,0,0,1,2.946,7.659c.008.133.008.259.008.393" transform="translate(-1 -6.691)" fill="none" stroke="#5a98cd" stroke-width="1"/>
      </g>
      <g id="그룹_660" data-name="그룹 660" transform="translate(21.315 0)">
        <path id="패스_426-2" data-name="패스 426" d="M14.66,4.963A3.962,3.962,0,1,1,10.7,1,3.963,3.963,0,0,1,14.66,4.963Z" transform="translate(-3.275 -1)" fill="none" stroke="#5a98cd" stroke-linejoin="round" stroke-width="1"/>
        <path id="패스_427-2" data-name="패스 427" d="M15.847,23.514c0,.322-.016.644-.039.966H1.031C1.016,24.158,1,23.836,1,23.514c0-.133,0-.259.008-.393a11.5,11.5,0,0,1,2.946-7.659,1.409,1.409,0,0,1,.11-.118.431.431,0,0,0,.071.055A6.327,6.327,0,0,0,8.25,17.057a1.284,1.284,0,0,0,.173.008,1.271,1.271,0,0,0,.173-.008A6.344,6.344,0,0,0,12.713,15.4a.431.431,0,0,0,.071-.055c.039.039.078.078.11.118a11.507,11.507,0,0,1,2.946,7.659c.008.133.008.259.008.393" transform="translate(-1 -6.691)" fill="none" stroke="#5a98cd" stroke-width="1"/>
      </g>
      <line id="선_142" data-name="선 142" x2="4.567" transform="translate(16.382 6.248)" fill="none" stroke="#5a98cd" stroke-width="1"/>
      <g id="다각형_3" data-name="다각형 3" transform="translate(23.233 3.964) rotate(90)" fill="#5a98cd">
        <path d="M 3.758446931838989 4.067461967468262 L 0.8090169429779053 4.067461967468262 L 2.283731937408447 1.118031978607178 L 3.758446931838989 4.067461967468262 Z" stroke="none"/>
        <path d="M 2.283731937408447 2.236071825027466 L 1.618036985397339 3.567461967468262 L 2.949426889419556 3.567461967468262 L 2.283731937408447 2.236071825027466 M 2.283731937408447 1.9073486328125e-06 L 4.567461967468262 4.567461967468262 L 1.9073486328125e-06 4.567461967468262 L 2.283731937408447 1.9073486328125e-06 Z" stroke="none" fill="#5a98cd"/>
      </g>
      <g id="다각형_4" data-name="다각형 4" transform="translate(12.576 8.532) rotate(-90)" fill="#5a98cd">
        <path d="M 3.758446931838989 4.067461967468262 L 0.8090169429779053 4.067461967468262 L 2.283731937408447 1.118031978607178 L 3.758446931838989 4.067461967468262 Z" stroke="none"/>
        <path d="M 2.283731937408447 2.236071825027466 L 1.618036985397339 3.567461967468262 L 2.949426889419556 3.567461967468262 L 2.283731937408447 2.236071825027466 M 2.283731937408447 1.9073486328125e-06 L 4.567461967468262 4.567461967468262 L 1.9073486328125e-06 4.567461967468262 L 2.283731937408447 1.9073486328125e-06 Z" stroke="none" fill="#5a98cd"/>
      </g>
    </g>
  </g>
</svg>
