<svg xmlns="http://www.w3.org/2000/svg" width="17.085" height="15.487" viewBox="0 0 17.085 15.487">
  <path id="Icon_ionic-ios-heart-empty" data-name="Icon ionic-ios-heart-empty" d="M15.86,3.938h-.041a4.747,4.747,0,0,0-3.9,2.013,4.747,4.747,0,0,0-3.9-2.013H7.975a4.513,4.513,0,0,0-4.6,4.375A9.086,9.086,0,0,0,5.338,13.45a33.687,33.687,0,0,0,6.579,5.974A33.687,33.687,0,0,0,18.5,13.45,9.086,9.086,0,0,0,20.46,8.312,4.513,4.513,0,0,0,15.86,3.938Zm1.708,8.874a30.732,30.732,0,0,1-5.651,5.25,30.776,30.776,0,0,1-5.651-5.254A8.053,8.053,0,0,1,4.525,8.312,3.182,3.182,0,0,1,5.535,6a3.576,3.576,0,0,1,2.448-.972H8.02a3.607,3.607,0,0,1,1.688.418,3.513,3.513,0,0,1,1.249,1.1,1.193,1.193,0,0,0,1.93,0,3.548,3.548,0,0,1,1.249-1.1,3.607,3.607,0,0,1,1.688-.418h.037A3.583,3.583,0,0,1,18.308,6a3.173,3.173,0,0,1,1.01,2.315A8.156,8.156,0,0,1,17.569,12.811Z" transform="translate(-3.375 -3.938)" fill="#757575"/>
</svg>
