<svg xmlns="http://www.w3.org/2000/svg" id="_레이어_2" data-name="레이어 2" viewBox="0 0 36.67 33.25"><defs><style>.cls-1{fill:#686868;stroke-width:0}</style></defs><g id="_레이어_2-2" data-name="레이어 2"><g id="ico_server"><g id="group"><path id="path1" d="M31.67 0H5C2.24 0 0 2.24 0 5v6.33c0 2.76 2.24 5 5 5h26.67c2.76 0 5-2.24 5-5V5c0-2.76-2.24-5-5-5ZM29 11.17c-1.66 0-3-1.34-3-3s1.34-3 3-3 3 1.34 3 3-1.34 3-3 3Z" class="cls-1"/></g><g id="group-2" data-name="group"><path id="path1-2" d="M31.67 16.92H5c-2.76 0-5 2.24-5 5v6.33c0 2.76 2.24 5 5 5h26.67c2.76 0 5-2.24 5-5v-6.33c0-2.76-2.24-5-5-5ZM29 28.09c-1.66 0-3-1.34-3-3s1.34-3 3-3 3 1.34 3 3-1.34 3-3 3Z" class="cls-1" data-name="path1"/></g></g></g></svg>