<?xml version="1.0" encoding="UTF-8"?><svg id="_레이어_2" data-name="레이어 2" xmlns="http://www.w3.org/2000/svg" viewBox="0 0 18.85 21.5"><defs><style>.cls-1 {
        fill: #fff;
        stroke-width: 0px;
      }</style></defs><g id="_레이어_2-2" data-name="레이어 2"><path class="cls-1" d="m17.27,6.84c-.23-.34-.7-.44-1.04-.21-.34.23-.44.7-.21,1.04.87,1.31,1.33,2.83,1.33,4.41,0,2.12-.83,4.11-2.33,5.6-1.5,1.49-3.49,2.32-5.6,2.32h0c-2.12,0-4.11-.83-5.6-2.33-1.5-1.5-2.32-3.49-2.32-5.61,0-4.37,3.56-7.92,7.93-7.92.78,0,1.56.12,2.32.32l-2,1.46c-.33.24-.41.71-.16,1.05.15.2.38.31.61.31.15,0,.31-.05.44-.14l3.37-2.46s.01-.02.02-.02c0,0,.02,0,.03-.02.03-.03.05-.06.07-.09.03-.04.07-.08.09-.12.02-.04.03-.09.05-.13.01-.05.03-.09.04-.14,0-.05,0-.09,0-.14,0-.05,0-.1-.02-.14-.01-.05-.04-.09-.06-.13-.02-.04-.03-.07-.05-.11,0,0-.02-.01-.02-.02,0,0,0-.02-.02-.03L11.24.26c-.27-.31-.75-.35-1.06-.07-.31.27-.35.75-.07,1.06l1.41,1.62c-.69-.14-1.38-.21-2.08-.21h0C4.23,2.65,0,6.87,0,12.07c0,2.52.98,4.89,2.76,6.67s4.15,2.76,6.66,2.77h0c5.19,0,9.42-4.22,9.43-9.42,0-1.87-.55-3.68-1.59-5.24Z"/></g></svg>