<svg xmlns="http://www.w3.org/2000/svg" width="45" height="45"><defs><clipPath id="a"><path fill="#fff" d="M.215.434h45v45h-45z"/></clipPath></defs><g clip-path="url(#a)" transform="translate(-.215 -.434)"><g fill="#fff"><path d="m1.561 14.435 20.264 9.536a2.341 2.341 0 0 0 2 0l20.26-9.536a2.344 2.344 0 0 0 0-4.242L23.821.658a2.343 2.343 0 0 0-2 0l-20.26 9.535a2.344 2.344 0 0 0 0 4.242"/><path d="m42.421 21.628-19.599 9.218-19.6-9.222a1.564 1.564 0 1 0-1.326 2.832l20.264 9.536a1.558 1.558 0 0 0 1.331 0l20.261-9.536a1.563 1.563 0 1 0-1.331-2.828"/><path d="m42.421 32.356-19.6 9.223-19.6-9.223a1.563 1.563 0 0 0-1.325 2.828L22.16 44.72a1.565 1.565 0 0 0 1.331 0l20.261-9.536a1.563 1.563 0 1 0-1.331-2.828"/></g></g></svg>