<?xml version="1.0" encoding="UTF-8"?>
<svg id="_레이어_2" data-name="레이어 2" xmlns="http://www.w3.org/2000/svg" viewBox="0 0 18.77 17.74">
  <defs>
    <style>
      .cls-1 {
        fill: #fff;
        stroke-width: 0px;
      }
    </style>
  </defs>
  <g id="_레이어_2-2" data-name="레이어 2">
    <path id="_패스_434" data-name="패스 434" class="cls-1" d="m10.12.5l2.01,4.78c.12.28.38.46.68.49l5.22.41c.44.03.76.41.73.84-.01.21-.11.41-.28.55l-3.98,3.37c-.23.19-.33.5-.26.78l1.22,5.04c.1.43-.17.86-.6.96-.21.05-.42.01-.6-.1l-4.47-2.7c-.26-.15-.58-.15-.84,0l-4.47,2.7c-.38.23-.87.12-1.1-.26-.11-.18-.15-.39-.1-.6l1.21-5.04c.07-.29-.03-.59-.26-.78L.28,7.57c-.33-.28-.37-.78-.09-1.11.14-.16.34-.26.55-.28l5.22-.41c.3-.02.56-.21.68-.49L8.64.5c.17-.41.64-.6,1.04-.44.2.08.35.24.44.44"/>
  </g>
</svg>