<svg xmlns="http://www.w3.org/2000/svg" width="45" height="45"><defs><clipPath id="a"><path fill="rgba(255,26,247,0.65)" d="M197 238h45v45h-45z"/></clipPath></defs><g clip-path="url(#a)" transform="translate(-197 -238)"><g fill="#fff"><g data-name="ico_contents"><path d="M202.074 278.243h37.247v3.193h-37.247zM220.167 268.484h19.154v3.192h-19.154zM224.423 258.724h14.897v3.193h-14.897zM204.1 263.582l10.411-20.013 5.39 2.8-10.411 20.016-4.312 1.707ZM214.568 240l-2.153.679-11.422 21.958-.137 1.108 1.645 6.88 2.141 1.113 6.577-2.6.829-.747 11.421-21.962-.679-2.152Z"/></g><path d="m201.801 261.779 8.728-16.778 10.77 5.603-8.728 16.777a6.07 6.07 0 0 1-8.186 2.584 6.07 6.07 0 0 1-2.584-8.186Z"/></g></g></svg>