<?xml version="1.0" encoding="UTF-8"?>
<svg id="_레이어_2" data-name="레이어 2" xmlns="http://www.w3.org/2000/svg" viewBox="0 0 27.07 25.26">
  <defs>
    <style>
      .cls-1 {
        fill: #fff;
        stroke-width: 0px;
      }
    </style>
  </defs>
  <g id="_레이어_2-2" data-name="레이어 2">
    <g>
      <path class="cls-1" d="m26.07,3.93h-15.59c-.55,0-1-.45-1-1s.45-1,1-1h15.59c.55,0,1,.45,1,1s-.45,1-1,1Z"/>
      <g>
        <path class="cls-1" d="m3.84,15.8c-1.88,0-3.41-1.53-3.41-3.41s1.53-3.42,3.41-3.42,3.42,1.53,3.42,3.42-1.53,3.41-3.42,3.41Zm0-4.83c-.78,0-1.41.63-1.41,1.42s.63,1.41,1.41,1.41,1.42-.63,1.42-1.41-.63-1.42-1.42-1.42Z"/>
        <path class="cls-1" d="m26.07,13.38h-15.59c-.55,0-1-.45-1-1s.45-1,1-1h15.59c.55,0,1,.45,1,1s-.45,1-1,1Z"/>
      </g>
      <g>
        <path class="cls-1" d="m3.84,25.26c-1.88,0-3.41-1.53-3.41-3.42s1.53-3.41,3.41-3.41,3.42,1.53,3.42,3.41-1.53,3.42-3.42,3.42Zm0-4.83c-.78,0-1.41.63-1.41,1.41s.63,1.42,1.41,1.42,1.42-.63,1.42-1.42-.63-1.41-1.42-1.41Z"/>
        <path class="cls-1" d="m26.07,22.84h-15.59c-.55,0-1-.45-1-1s.45-1,1-1h15.59c.55,0,1,.45,1,1s-.45,1-1,1Z"/>
      </g>
      <path class="cls-1" d="m4.11,5.11c-.27,0-.52-.11-.71-.29L.29,1.71C-.1,1.32-.1.68.29.29S1.32-.1,1.71.29l2.4,2.4L6.51.29c.39-.39,1.02-.39,1.41,0s.39,1.02,0,1.41l-3.11,3.11c-.19.19-.44.29-.71.29Z"/>
    </g>
  </g>
</svg>