<svg xmlns="http://www.w3.org/2000/svg" xmlns:xlink="http://www.w3.org/1999/xlink" width="24" height="24" viewBox="0 0 24 24">
  <defs>
    <clipPath id="clip-path">
      <rect id="사각형_15821" data-name="사각형 15821" width="24" height="24" transform="translate(0.5 0)" fill="none" stroke="#121212" stroke-width="1"/>
    </clipPath>
  </defs>
  <g id="ico_my" transform="translate(-0.5 0)" clip-path="url(#clip-path)">
    <g id="img" transform="translate(14.84 27.257)">
      <path id="패스_741" data-name="패스 741" d="M24.868,15.914a4.344,4.344,0,1,0-4.344,4.344,4.343,4.343,0,0,0,4.344-4.344Z" transform="translate(-23.282 -36.893)" fill="none" stroke="#454545" stroke-miterlimit="10" stroke-width="1.5"/>
      <path id="패스_742" data-name="패스 742" d="M19.177,24.865a5.792,5.792,0,0,1-3.425-1.125.747.747,0,0,0-.838-.066,8.084,8.084,0,0,0-3.793,7.6.766.766,0,0,0,.265.515A12.1,12.1,0,0,0,19.169,34.6h0a12.141,12.141,0,0,0,7.784-2.815.737.737,0,0,0,.265-.515,8.07,8.07,0,0,0-3.793-7.6.747.747,0,0,0-.838.066,5.759,5.759,0,0,1-3.425,1.125" transform="translate(-21.934 -38.911)" fill="none" stroke="#454545" stroke-miterlimit="10" stroke-width="1.5"/>
    </g>
  </g>
</svg>
