<svg xmlns="http://www.w3.org/2000/svg" xmlns:xlink="http://www.w3.org/1999/xlink" width="24" height="24" viewBox="0 0 24 24">
  <defs>
    <clipPath id="clip-path">
      <rect id="mask" width="24" height="24" transform="translate(-4.5 -5)" fill="none" stroke="#454545" stroke-width="1"/>
    </clipPath>
  </defs>
  <g id="ico_myauth" transform="translate(4.5 5)" clip-path="url(#clip-path)">
    <g id="img" transform="translate(-4 -4.5)">
      <path id="pass04" d="M16.377,14.279V12.35a2.472,2.472,0,0,1,2.662-2.424A2.471,2.471,0,0,1,21.7,12.35v1.929" transform="translate(-1.119 -0.679)" fill="none" stroke="#454545" stroke-linecap="round" stroke-linejoin="round" stroke-width="1.5"/>
      <path id="pass03" d="M18.34,14.9h1.14a3.828,3.828,0,0,1,0,7.655H18.34a3.828,3.828,0,1,1,0-7.655Z" transform="translate(-0.992 -1.018)" fill="none" stroke="#454545" stroke-linecap="round" stroke-linejoin="round" stroke-width="1.5"/>
      <line id="line2" y2="1.792" transform="translate(17.919 16.811)" fill="none" stroke="#454545" stroke-linecap="round" stroke-linejoin="round" stroke-width="1.5"/>
      <path id="pass02" d="M14.18,5.158A4.657,4.657,0,1,1,9.524.5h0A4.658,4.658,0,0,1,14.18,5.158Z" transform="translate(-0.333 -0.034)" fill="none" stroke="#454545" stroke-linejoin="round" stroke-width="1.5"/>
      <path id="pass01" d="M12.886,22.155H.537C.52,21.777.5,21.4.5,21.02c0-.157,0-.3.009-.462a13.513,13.513,0,0,1,3.462-9c.042-.048.084-.1.129-.139a.476.476,0,0,0,.084.064A7.436,7.436,0,0,0,9.021,13.43a2.228,2.228,0,0,0,.407,0,7.466,7.466,0,0,0,4.84-1.947" transform="translate(-0.034 -0.78)" fill="none" stroke="#454545" stroke-width="1.5"/>
      <line id="line1" x1="1.184" transform="translate(12.852 21.374)" fill="none" stroke="#454545" stroke-width="1.5"/>
    </g>
  </g>
</svg>
