<svg xmlns="http://www.w3.org/2000/svg" xmlns:xlink="http://www.w3.org/1999/xlink" width="24" height="24" viewBox="0 0 24 24">
  <defs>
    <clipPath id="clip-path">
      <rect id="mask" width="24" height="24" transform="translate(0 -5)" fill="none" stroke="#707070" stroke-width="1.5"/>
    </clipPath>
  </defs>
  <g id="ico_Partner" transform="translate(0 5)" clip-path="url(#clip-path)">
    <path id="img" d="M1.5,9.4l3.365,4.314,2.674,3.408a1.48,1.48,0,0,0,2.027.259l.388-.3a1.389,1.389,0,0,0,.518-.863,1.5,1.5,0,0,0,1.208-.259l.388-.3a1.223,1.223,0,0,0,.518-.863,1.5,1.5,0,0,0,1.208-.259l.388-.3a1.389,1.389,0,0,0,.518-.863,1.462,1.462,0,0,0,1.208-.259l.388-.3a1.627,1.627,0,0,0,.518-.69.33.33,0,0,0,.216-.086c.388-.3-1.423,1.165,3.882-3.149A1.846,1.846,0,0,0,21.167,6.3L16.509.69A1.82,1.82,0,0,0,15.085,0a1.629,1.629,0,0,0-1.165.431L12.583,1.51l-2.545.518-.82-.992a1.835,1.835,0,0,0-2.545-.3L.721,5.349A1.849,1.849,0,0,0,.376,7.937Zm14.235,2.718-.388.3a.6.6,0,0,1-.82-.086L13.187,10.4a.387.387,0,0,0-.6-.086.424.424,0,0,0-.129.6l1.337,1.812a.622.622,0,0,1-.129.863l-.388.3a.6.6,0,0,1-.82-.086L11.2,11.949a.437.437,0,1,0-.733.475l1.165,1.682a.622.622,0,0,1-.129.863l-.388.3a.6.6,0,0,1-.82-.086L9.132,13.5a.437.437,0,0,0-.733.475l1.035,1.553a.622.622,0,0,1-.129.863l-.259.3a.564.564,0,0,1-.82-.086L5.6,13.157,2.489,9.188,6.76,5.867,6.587,7.98a1.779,1.779,0,0,0,1.941,1.9,1.832,1.832,0,0,0,1.553-1.165l.82-2.2.82-.3L15.9,11.345A.6.6,0,0,1,15.732,12.121Zm1.078-1.035c-3.02-3.71-2.5-3.106-4.616-5.651a.408.408,0,0,0-.474-.129c-1.165.518-1.424.431-1.51.733L9.3,8.412a.945.945,0,0,1-.82.6.928.928,0,0,1-.992-.992l.259-3.968a.969.969,0,0,1,.733-.863l4.141-.82,5.953,7.333ZM14.481,1.078a1.01,1.01,0,0,1,1.38.129l4.616,5.651a1.006,1.006,0,0,1-.129,1.38l-1.122.906-3.106-3.8L13.36,1.984ZM1.239,6.039,7.191,1.423a.972.972,0,0,1,1.38.173l.518.647-.776.129A1.79,1.79,0,0,0,6.889,4.012l-.043.69L1.929,8.541,1.066,7.419A.972.972,0,0,1,1.239,6.039Z" transform="translate(1.209 -1.384)" stroke="#121212" stroke-width="0.5"/>
  </g>
</svg>
