<svg xmlns="http://www.w3.org/2000/svg" xmlns:xlink="http://www.w3.org/1999/xlink" width="24" height="24" viewBox="0 0 24 24">
  <defs>
    <clipPath id="clip-path">
      <rect id="mask" width="24" height="24" transform="translate(-8 -7.5)" fill="#b621ff" opacity="0.62"/>
    </clipPath>
  </defs>
  <g id="ico_sa_mng" transform="translate(7.5 16) rotate(-90)" clip-path="url(#clip-path)">
    <g id="img" transform="translate(16 -4.5) rotate(90)">
      <path id="패스_127" data-name="패스 127" d="M19.3,16.149a4.755,4.755,0,0,0-2.368-1.606c-.269-.111-.522-.215-.728-.322C15,13.6,14.548,12.516,14.835,10.913c.092-.51.49-2.241.682-2.972a4.118,4.118,0,1,0-4.59-1.056c-.147.744-.547,2.473-.686,2.968-.444,1.569-1.32,2.347-2.68,2.379-.235.005-.5-.011-.8-.029s-.593-.037-.9-.037a3.7,3.7,0,0,0-1.929.445,3.1,3.1,0,0,0-1.216,1.877,8.821,8.821,0,0,0-.246,1.044,2.77,2.77,0,0,0,2.384,3.345l10.874,2.5a4.187,4.187,0,0,0,.936.113h0a2.665,2.665,0,0,0,2.672-2.079,8.992,8.992,0,0,0,.236-1.047,3.1,3.1,0,0,0-.273-2.22M18,18.115a7.383,7.383,0,0,1-.193.859,1.075,1.075,0,0,1-1.139.926,2.6,2.6,0,0,1-.578-.072l-10.874-2.5C4,17.043,3.94,16.4,4.044,15.8a7.157,7.157,0,0,1,.2-.855c.073-.242.244-.808.519-.976a2.134,2.134,0,0,1,1.1-.211c.261,0,.537.017.8.033.312.019.641.039.932.032,2.091-.049,3.535-1.273,4.176-3.54.088-.312.294-1.166.478-1.986.4-1.758.437-1.942.05-2.294a2.524,2.524,0,1,1,2.354.545c-.5.144-.54.327-.953,2.084-.193.816-.381,1.673-.439,2-.415,2.318.349,4.05,2.207,5.009.267.138.564.26.852.379a3.7,3.7,0,0,1,1.634.993,1.945,1.945,0,0,1,.04,1.1" transform="translate(-1.867)" fill="#454545"/>
      <path id="패스_128" data-name="패스 128" d="M16.358,98.35H.8a.8.8,0,0,0,0,1.595H16.358a.8.8,0,0,0,0-1.595" transform="translate(0 -75.945)" fill="#454545"/>
    </g>
  </g>
</svg>
