<svg width="24" height="24" viewBox="0 0 24 24" fill="none" xmlns="http://www.w3.org/2000/svg">
<path d="M15.47 18C13.17 18 10.79 16.94 8.94 15.09L8.9 15.05C6.98 13.12 5.94 10.69 6 8.35001V8.17999L6.11 8.03999C6.28 7.82999 6.44 7.64 6.61 7.47C7.24 6.84 7.97 6.35999 8.8 6.03999C8.9 5.99999 9.01 5.98 9.14 5.98C9.42 5.98 10.04 6.12 10.2 6.56C10.48 7.34 10.84 8.37 11.1 9.34C11.17 9.61 11.1 10.28 10.72 10.52L9.81 11.1C9.82 11.11 9.81 11.25 9.93 11.41C10.28 11.9 10.69 12.38 11.15 12.84C11.61 13.29 12.09 13.7 12.57 14.05C12.66 14.12 12.77 14.16 12.86 14.16L13.18 13.72L13.47 13.26C13.72 12.87 14.36 12.86 14.43 12.86C14.5 12.86 14.57 12.87 14.63 12.88C15.83 13.15 16.55 13.38 17.47 13.8C17.88 13.98 18.14 14.72 17.95 15.19C17.63 16.01 17.15 16.75 16.53 17.38C16.35 17.56 16.16 17.72 15.96 17.88L15.83 17.99L15.47 18Z" fill="#666666"/>
</svg>