<svg width="24" height="24" viewBox="0 0 24 24" fill="none" xmlns="http://www.w3.org/2000/svg">
<path d="M12 10.65C9.24 10.65 7 9.90001 7 8.98001V10.65C7 11.57 9.24 12.32 12 12.32C14.76 12.32 17 11.57 17 10.65V8.98001C17 9.91001 14.76 10.65 12 10.65Z" fill="#666666"/>
<path d="M13.16 13.28C12.79 13.31 12.41 13.34 12 13.34C9.24 13.34 7 12.59 7 11.67V13.34C7 14.26 9.24 15.01 12 15.01C12.23 15.01 12.45 15 12.66 14.99C12.69 14.4 12.84 13.82 13.16 13.28Z" fill="#666666"/>
<path d="M13.1 17.25C13.07 17.19 13.05 17.13 13.03 17.06C12.9 16.72 12.8 16.37 12.74 16.01C12.5 16.02 12.26 16.03 12 16.03C9.24 16.03 7 15.28 7 14.36V16.03C7 16.95 9.24 17.7 12 17.7C12.44 17.7 12.86 17.67 13.27 17.64C13.21 17.51 13.15 17.38 13.1 17.25Z" fill="#666666"/>
<path d="M12 9.63C14.7614 9.63 17 8.88232 17 7.96001C17 7.03769 14.7614 6.29001 12 6.29001C9.23858 6.29001 7 7.03769 7 7.96001C7 8.88232 9.23858 9.63 12 9.63Z" fill="#666666"/>
<path d="M14.3366 16.5303L18.9366 16.5303L18.9366 13.4603L14.3366 13.4603L14.3366 16.5303Z" fill="#666666"/>
<path d="M20.47 15L17.4 18.07V11.93L20.47 15Z" fill="#666666"/>
</svg>