<svg xmlns="http://www.w3.org/2000/svg" xmlns:xlink="http://www.w3.org/1999/xlink" width="14" height="14" viewBox="0 0 14 14">
  <defs>
    <clipPath id="clip-path">
      <rect id="사각형_147" data-name="사각형 147" width="14" height="14" transform="translate(0 0)" fill="rgba(255,26,247,0.65)" stroke="#fff" stroke-width="1.5"/>
    </clipPath>
  </defs>
  <g id="ico_serch" transform="translate(0 0)" clip-path="url(#clip-path)">
    <g id="그룹_171" data-name="그룹 171" transform="translate(0.425 0.657)">
      <line id="선_57" data-name="선 57" x2="4.27" y2="4.27" transform="translate(9.081 8.615)" fill="none" stroke="#fff" stroke-linecap="round" stroke-linejoin="round" stroke-width="1.5"/>
      <g id="패스_63" data-name="패스 63" transform="translate(-1.5 -1.5)" fill="none" stroke-linecap="round" stroke-linejoin="round">
        <path d="M11.512,6.5A5.006,5.006,0,1,1,6.5,1.5,5.009,5.009,0,0,1,11.512,6.5Z" stroke="none"/>
        <path d="M 6.503674507141113 2.999995231628418 C 4.571744918823242 2.999995231628418 3.000004768371582 4.572285652160645 3.000004768371582 6.504885196685791 C 3.000004768371582 8.438816070556641 4.571744918823242 10.01217555999756 6.503674507141113 10.01217555999756 C 8.438044548034668 10.01217555999756 10.01176452636719 8.438816070556641 10.01176452636719 6.504885196685791 C 10.01176452636719 4.572285652160645 8.438044548034668 2.999995231628418 6.503674507141113 2.999995231628418 M 6.503674507141113 1.499995231628418 C 9.269364356994629 1.499995231628418 11.51176452636719 3.740395545959473 11.51176452636719 6.504885196685791 C 11.51176452636719 9.268165588378906 9.269364356994629 11.51217555999756 6.503674507141113 11.51217555999756 C 3.741204261779785 11.51217555999756 1.500004768371582 9.268165588378906 1.500004768371582 6.504885196685791 C 1.500004768371582 3.740395545959473 3.741204261779785 1.499995231628418 6.503674507141113 1.499995231628418 Z" stroke="none" fill="#fff"/>
      </g>
    </g>
  </g>
</svg>
