<svg xmlns="http://www.w3.org/2000/svg" width="45" height="45"><defs><clipPath id="a"><path fill="#fff" d="M-11-11h45v45h-45z"/></clipPath></defs><g clip-path="url(#a)" transform="translate(11 11)"><g fill="#fff"><path d="M7.294 2.157a10.636 10.636 0 0 1 12.09 2.894l1.6-1.056L26.678.248A19.338 19.338 0 0 0 2.466-5.181L6.228.537ZM18.322 20.016A10.634 10.634 0 1 1 4.642 3.738l-1.053-1.6L-.152-3.55a19.33 19.33 0 1 0 25.544 28.821l-5.512-4.094ZM28.357 2.84l-5.7 3.754-1.616 1.059a10.207 10.207 0 0 1 .652 1.944 10.483 10.483 0 0 1 .277 2.4 10.607 10.607 0 0 1-.728 3.874 10.436 10.436 0 0 1-.913 1.793l1.539 1.145 5.458 4.055a19.34 19.34 0 0 0 1.031-20.026M26.75 19.965l-3.931-2.92a12.511 12.511 0 0 0 .56-8.556l4.148-2.73a17.262 17.262 0 0 1-.776 14.205"/></g></g></svg>