<svg xmlns="http://www.w3.org/2000/svg" width="34" height="34" viewBox="0 0 34 34">
  <g id="그룹_64926" data-name="그룹 64926" transform="translate(-579 -259)">
    <circle id="Oval" cx="17" cy="17" r="17" transform="translate(579 259)" fill="#0f3862"/>
    <path id="Shape" d="M16,14.585H0v-2H2.409l-.027-1.935a1,1,0,0,1,.293-.721L12.312.293a1,1,0,0,1,1.414,0l2.567,2.567a1,1,0,0,1,0,1.415L7.981,12.586H16v2h0ZM4.388,11.045,4.4,12.182,5.54,12.2l1.306-1.306L5.693,9.739Zm3.163-.857,6.621-6.621L13.019,2.414,6.4,9.036Z" transform="translate(587.414 268.414)" fill="#fff"/>
  </g>
</svg>
