<svg xmlns="http://www.w3.org/2000/svg" xmlns:xlink="http://www.w3.org/1999/xlink" width="373" height="62" viewBox="0 0 373 62">
  <defs>
    <clipPath id="clip-path">
      <rect id="mask" width="373" height="62" transform="translate(-5.693 36)" fill="#fff"/>
    </clipPath>
    <clipPath id="clip-path-2">
      <rect id="사각형_15711" data-name="사각형 15711" width="358.613" height="92.678" transform="translate(0 0)" fill="none"/>
    </clipPath>
    <clipPath id="clip-path-3">
      <path id="패스_650" data-name="패스 650" d="M24.867,39.429c-.026.01-2.588,1.055-6.223,2.087-1.221.346-2.656.717-4.213,1.048a43.506,43.506,0,0,1-9.07.952q-1.233,0-2.468-.069H2.872a.353.353,0,0,0-.267.123.412.412,0,0,0-.1.283c.024.8-.027,4.193-.053,5.9-.012.793-.021,1.366-.02,1.486,0,.393,0,.784,0,1.176A58.157,58.157,0,0,0,3.2,63.494,36.2,36.2,0,0,0,12.7,82.014a38.394,38.394,0,0,0,5.7,4.738,43.479,43.479,0,0,0,6.457,3.625.223.223,0,0,0,.086.019.216.216,0,0,0,.087-.019,43.479,43.479,0,0,0,6.457-3.625,38.284,38.284,0,0,0,5.7-4.738,36.205,36.205,0,0,0,9.508-18.52,57.992,57.992,0,0,0,.762-11.078c0-.392,0-.783.007-1.176,0-.12-.009-.694-.02-1.488-.025-1.6-.071-4.669-.058-5.713a.543.543,0,0,0-.085-.3.549.549,0,0,0-.468-.26l-.054,0c-.805.08-1.658.122-2.543.122a50.233,50.233,0,0,1-12.981-2.086,65.614,65.614,0,0,1-6.228-2.088.222.222,0,0,0-.08-.015.212.212,0,0,0-.078.015" fill="none"/>
    </clipPath>
    <clipPath id="clip-path-4">
      <path id="패스_655" data-name="패스 655" d="M23.365,52.892a4.428,4.428,0,0,0-4.424,4.424V79.84a2.4,2.4,0,0,1-2.4,2.4H16.4a2.4,2.4,0,0,1-2.4-2.4V70.368a4.43,4.43,0,0,0-4.425-4.424H9.428a4.43,4.43,0,0,0-4.4,3.955A36.922,36.922,0,0,0,6.84,73.93a2.865,2.865,0,0,0,.188-1.021V70.368a2.4,2.4,0,0,1,2.4-2.4h.144a2.4,2.4,0,0,1,2.4,2.4V79.84a4.389,4.389,0,0,0,.393,1.823c.112.118.226.235.34.351q.989,1,2.071,1.944a4.408,4.408,0,0,0,1.62.307h.145a4.43,4.43,0,0,0,4.424-4.425V57.316a2.4,2.4,0,0,1,2.4-2.4h.144a2.4,2.4,0,0,1,2.4,2.4V79.84a4.43,4.43,0,0,0,4.425,4.425h.144A4.431,4.431,0,0,0,34.9,79.84v-15.1a2.4,2.4,0,0,1,2.4-2.4h.144a2.4,2.4,0,0,1,2.4,2.4v8.168A2.868,2.868,0,0,0,42.059,75.7q.572-.954,1.087-1.951H42.71a.839.839,0,0,1-.839-.838V64.741a4.43,4.43,0,0,0-4.425-4.424H37.3a4.429,4.429,0,0,0-4.424,4.424v15.1a2.4,2.4,0,0,1-2.4,2.4h-.144a2.4,2.4,0,0,1-2.4-2.4V57.316a4.429,4.429,0,0,0-4.425-4.424Z" fill="none"/>
    </clipPath>
    <clipPath id="clip-path-5">
      <path id="패스_654" data-name="패스 654" d="M26.8,48.025a3.43,3.43,0,1,1-3.43-3.43,3.43,3.43,0,0,1,3.43,3.43" fill="none"/>
    </clipPath>
    <clipPath id="clip-path-6">
      <path id="패스_653" data-name="패스 653" d="M40.876,55.45a3.43,3.43,0,1,1-3.429-3.43,3.429,3.429,0,0,1,3.429,3.43" fill="none"/>
    </clipPath>
    <clipPath id="clip-path-7">
      <path id="패스_652" data-name="패스 652" d="M12.857,61.076a3.43,3.43,0,1,1-3.429-3.43,3.43,3.43,0,0,1,3.429,3.43" fill="none"/>
    </clipPath>
  </defs>
  <g id="column2_logo" transform="translate(5.693 -36)" clip-path="url(#clip-path)">
    <g id="img" transform="translate(1.307 4)">
      <g id="그룹_981" data-name="그룹 981">
        <g id="그룹_980" data-name="그룹 980" clip-path="url(#clip-path-2)">
          <path id="패스_630" data-name="패스 630" d="M74.251,71.617c.4,2.857,3.116,4.574,6.95,4.574,3.654,0,6.269-1.878,6.269-4.453,0-2.238-1.516-3.635-5.371-4.474l-3.135-.659c-5.771-1.217-8.386-3.893-8.386-8.047,0-4.932,4.332-8.327,10.463-8.327,6.111,0,10.284,3.454,10.424,8.487H87.131c-.28-2.9-2.656-4.673-6.149-4.673-3.376,0-5.852,1.637-5.852,4.273,0,2.1,1.478,3.495,5.212,4.294l3.156.659C89.528,64.549,92,66.965,92,71.159,92,76.59,87.731,80,81.021,80,74.512,80,70.178,76.75,69.9,71.617Z" fill="#403f41"/>
          <path id="패스_631" data-name="패스 631" d="M113.515,73.356c-.6,3.834-4.234,6.57-9.046,6.57-6.171,0-9.9-4.174-9.9-10.8,0-6.589,3.795-10.983,9.725-10.983,5.831,0,9.465,4.114,9.465,10.483V70.1H98.917v.259c0,3.655,2.2,6.071,5.652,6.071,2.456,0,4.273-1.239,4.852-3.075ZM98.938,67.085h10.5c-.1-3.215-2.136-5.472-5.152-5.472s-5.131,2.3-5.351,5.472" fill="#403f41"/>
          <path id="패스_632" data-name="패스 632" d="M131.011,65.748a4.765,4.765,0,0,0-4.932-4.014c-3.336,0-5.532,2.776-5.532,7.288,0,4.614,2.217,7.289,5.572,7.289a4.621,4.621,0,0,0,4.892-3.894h4.152c-.458,4.473-4.033,7.508-9.084,7.508-6.011,0-9.925-4.114-9.925-10.9,0-6.669,3.914-10.883,9.885-10.883,5.411,0,8.706,3.474,9.085,7.609Z" fill="#403f41"/>
          <path id="패스_633" data-name="패스 633" d="M156.235,79.526H152.1V75.972H152a6.588,6.588,0,0,1-6.51,3.933c-4.574,0-7.369-2.975-7.369-7.788v-13.6h4.313v12.76c0,3.195,1.517,4.913,4.493,4.913,3.115,0,4.993-2.157,4.993-5.432V58.519h4.313Z" fill="#403f41"/>
          <path id="패스_634" data-name="패스 634" d="M160.492,58.519H164.6v3.575h.1a5.06,5.06,0,0,1,5.051-3.916,7.854,7.854,0,0,1,1.479.161v4.014a6.171,6.171,0,0,0-1.937-.24c-2.776,0-4.493,1.857-4.493,4.832V79.526h-4.313Z" fill="#403f41"/>
          <path id="패스_635" data-name="패스 635" d="M191.027,73.356c-.6,3.834-4.234,6.57-9.046,6.57-6.171,0-9.9-4.174-9.9-10.8,0-6.589,3.795-10.983,9.725-10.983,5.831,0,9.465,4.114,9.465,10.483V70.1H176.429v.259c0,3.655,2.2,6.071,5.652,6.071,2.456,0,4.273-1.239,4.852-3.075ZM176.45,67.085h10.5c-.1-3.215-2.136-5.472-5.152-5.472s-5.131,2.3-5.351,5.472" fill="#403f41"/>
          <path id="패스_636" data-name="패스 636" d="M207.523,80c-8.247,0-13.439-5.771-13.439-15.016,0-9.086,5.172-14.757,13.38-14.757,6.409,0,11.262,3.794,12.26,9.545h-4.592a7.572,7.572,0,0,0-7.649-5.631c-5.511,0-8.825,4.033-8.825,10.8,0,6.888,3.414,11.142,8.9,11.142,4.673,0,7.908-3,7.969-7.368v-.5h-7.449V64.608h11.86v2.937c0,7.808-4.612,12.46-12.42,12.46" fill="#403f41"/>
          <path id="패스_637" data-name="패스 637" d="M241.815,79.526h-4.133V75.972h-.1a6.588,6.588,0,0,1-6.51,3.933c-4.574,0-7.369-2.975-7.369-7.788v-13.6h4.313v12.76c0,3.195,1.517,4.913,4.493,4.913,3.115,0,4.993-2.157,4.993-5.432V58.519h4.313Z" fill="#403f41"/>
          <path id="패스_638" data-name="패스 638" d="M245.236,73.555c0-3.674,2.815-5.931,7.806-6.211L258.794,67V65.388c0-2.336-1.577-3.733-4.214-3.733-2.5,0-4.054,1.2-4.433,3.074h-4.073c.239-3.794,3.475-6.59,8.666-6.59,5.092,0,8.346,2.7,8.346,6.91V79.526h-4.133V76.071h-.1a7.51,7.51,0,0,1-6.63,3.815c-4.114,0-6.988-2.556-6.988-6.331m13.558-1.9V70l-5.172.32c-2.576.179-4.033,1.317-4.033,3.114,0,1.838,1.516,3.035,3.834,3.035,3.014,0,5.371-2.077,5.371-4.811" fill="#403f41"/>
          <path id="패스_639" data-name="패스 639" d="M267.263,58.519h4.113v3.575h.1a5.058,5.058,0,0,1,5.05-3.916,7.877,7.877,0,0,1,1.48.161v4.014a6.183,6.183,0,0,0-1.938-.24c-2.776,0-4.493,1.857-4.493,4.832V79.526h-4.313Z" fill="#403f41"/>
          <path id="패스_640" data-name="패스 640" d="M278.849,69.022c0-6.629,3.514-10.843,8.785-10.843a7.162,7.162,0,0,1,6.591,3.834h.078v-11.3h4.335V79.526h-4.194V75.952h-.079a7.279,7.279,0,0,1-6.691,3.934c-5.311,0-8.825-4.234-8.825-10.864m4.413,0c0,4.434,2.135,7.21,5.551,7.21,3.313,0,5.531-2.816,5.531-7.21,0-4.353-2.218-7.208-5.531-7.208-3.416,0-5.551,2.8-5.551,7.208" fill="#403f41"/>
          <path id="패스_641" data-name="패스 641" d="M346.993,80l3.2-18.129h-.141L339.668,80h-4.226l-3.966-18.129h-.162L328.117,80h-6.5l5.12-29.036h8.533l3.978,18.976h.162l10.671-18.976h8.532L353.493,80Z" fill="#27ad98"/>
          <path id="패스_642" data-name="패스 642" d="M322.352,50.969h-7.386l-1.4,7.922,7.9-2.921Z" fill="#27ad98"/>
          <path id="패스_643" data-name="패스 643" d="M309.846,80h7.386l3.779-21.429-8.126,4.2Z" fill="#27ad98"/>
          <path id="패스_644" data-name="패스 644" d="M48.032,50.881c0-.126-.008-.724-.021-1.551-.025-1.665-.074-4.864-.059-5.952a.581.581,0,0,0-.089-.314.575.575,0,0,0-.488-.271.548.548,0,0,0-.058,0c-.84.084-1.731.127-2.655.127A52.641,52.641,0,0,1,31.1,40.751c-3.8-1.076-6.478-2.165-6.505-2.176a.218.218,0,0,0-.164,0,68.405,68.405,0,0,1-6.5,2.174c-1.275.361-2.774.747-4.4,1.093a45.645,45.645,0,0,1-9.472.991q-1.29,0-2.579-.072H1.462a.369.369,0,0,0-.28.127.431.431,0,0,0-.105.295c.025.833-.029,4.369-.056,6.15C1.008,50.159,1,50.755,1,50.881q0,.614.006,1.224a60.346,60.346,0,0,0,.8,11.543,37.7,37.7,0,0,0,9.929,19.3,40.073,40.073,0,0,0,5.95,4.937,45.565,45.565,0,0,0,6.744,3.777.217.217,0,0,0,.09.019.214.214,0,0,0,.09-.019,45.565,45.565,0,0,0,6.744-3.777,40.072,40.072,0,0,0,5.95-4.937,37.688,37.688,0,0,0,9.929-19.3,60.265,60.265,0,0,0,.8-11.543c0-.407,0-.815.006-1.224" fill="#27ad98"/>
          <path id="패스_645" data-name="패스 645" d="M24.516,92.678a1.23,1.23,0,0,1-.5-.107,46.49,46.49,0,0,1-6.9-3.863,41.023,41.023,0,0,1-6.1-5.061,38.687,38.687,0,0,1-10.2-19.8A60.986,60.986,0,0,1,.006,52.118L0,50.885c0-.124.008-.73.02-1.568.025-1.58.082-5.281.056-6.1a1.425,1.425,0,0,1,.353-.984,1.371,1.371,0,0,1,1.033-.469c.919.049,1.767.073,2.6.073a44.66,44.66,0,0,0,9.264-.97c1.417-.3,2.875-.663,4.335-1.077,3.732-1.056,6.367-2.127,6.394-2.137l.181-.074.28-.017a1.207,1.207,0,0,1,.459.09c.028.011,2.667,1.083,6.4,2.14a51.6,51.6,0,0,0,13.285,2.134c.89,0,1.75-.041,2.556-.121l.157-.008a1.577,1.577,0,0,1,1.577,1.593c-.014,1.076.033,4.226.06,5.918.012.844.021,1.449.02,1.582l-.006,1.224a61.025,61.025,0,0,1-.816,11.733,38.681,38.681,0,0,1-10.2,19.8,41.071,41.071,0,0,1-6.1,5.061,46.444,46.444,0,0,1-6.892,3.86l-.2.09ZM2.083,43.791c0,1.178-.03,3.42-.062,5.557-.013.813-.022,1.4-.021,1.525L2.006,52.1a59.583,59.583,0,0,0,.777,11.353,36.7,36.7,0,0,0,9.661,18.789,39,39,0,0,0,5.8,4.812A44.276,44.276,0,0,0,24.516,90.6a44.347,44.347,0,0,0,6.271-3.545,39.043,39.043,0,0,0,5.8-4.812,36.705,36.705,0,0,0,9.659-18.789,59.54,59.54,0,0,0,.777-11.344l.006-1.236c0-.124-.008-.713-.02-1.528-.023-1.511-.064-4.156-.063-5.512-.716.059-1.491.089-2.287.089a53.619,53.619,0,0,1-13.83-2.21c-3.106-.879-5.5-1.779-6.314-2.1-.8.313-3.162,1.2-6.311,2.094-1.5.425-3,.8-4.464,1.108a46.57,46.57,0,0,1-11.659.972" fill="#309687"/>
        </g>
      </g>
      <g id="그룹_983" data-name="그룹 983">
        <g id="그룹_982" data-name="그룹 982" clip-path="url(#clip-path-3)">
          <path id="패스_646" data-name="패스 646" d="M30.478,84.265h-.144a4.43,4.43,0,0,1-4.425-4.424V57.316a2.4,2.4,0,0,0-2.4-2.4h-.144a2.4,2.4,0,0,0-2.4,2.4V79.841a4.43,4.43,0,0,1-4.424,4.424H16.4a4.43,4.43,0,0,1-4.424-4.424V70.368a2.4,2.4,0,0,0-2.4-2.4H9.428a2.4,2.4,0,0,0-2.4,2.4v2.541a2.866,2.866,0,0,1-2.863,2.863H1.442a1.013,1.013,0,0,1,0-2.025H4.165A.839.839,0,0,0,5,72.909V70.368a4.43,4.43,0,0,1,4.425-4.425h.144A4.43,4.43,0,0,1,14,70.368v9.473a2.4,2.4,0,0,0,2.4,2.4h.145a2.4,2.4,0,0,0,2.4-2.4V57.316a4.43,4.43,0,0,1,4.425-4.424h.144a4.43,4.43,0,0,1,4.425,4.424V79.841a2.4,2.4,0,0,0,2.4,2.4h.144a2.4,2.4,0,0,0,2.4-2.4v-15.1A4.429,4.429,0,0,1,37.3,60.317h.145a4.43,4.43,0,0,1,4.424,4.424v8.168a.839.839,0,0,0,.839.838h3.157a1.013,1.013,0,1,1,0,2.025H42.71a2.867,2.867,0,0,1-2.864-2.863V64.741a2.4,2.4,0,0,0-2.4-2.4H37.3a2.4,2.4,0,0,0-2.4,2.4v15.1a4.43,4.43,0,0,1-4.425,4.424" fill="#fff"/>
          <path id="패스_647" data-name="패스 647" d="M26.8,48.025a3.43,3.43,0,1,1-3.43-3.43,3.43,3.43,0,0,1,3.43,3.43" fill="#fff"/>
          <path id="패스_648" data-name="패스 648" d="M40.876,55.45a3.43,3.43,0,1,1-3.43-3.43,3.43,3.43,0,0,1,3.43,3.43" fill="#fff"/>
          <path id="패스_649" data-name="패스 649" d="M12.857,61.076a3.43,3.43,0,1,1-3.43-3.43,3.43,3.43,0,0,1,3.43,3.43" fill="#fff"/>
        </g>
      </g>
      <g id="그룹_991" data-name="그룹 991">
        <g id="그룹_990" data-name="그룹 990" clip-path="url(#clip-path-4)">
          <g id="그룹_989" data-name="그룹 989">
            <g id="그룹_988" data-name="그룹 988" clip-path="url(#clip-path-5)">
              <g id="그룹_987" data-name="그룹 987">
                <g id="그룹_986" data-name="그룹 986" clip-path="url(#clip-path-6)">
                  <g id="그룹_985" data-name="그룹 985">
                    <g id="그룹_984" data-name="그룹 984" clip-path="url(#clip-path-7)">
                      <path id="패스_651" data-name="패스 651" d="M118.6,12.322c0-.126-.008-.724-.021-1.551-.025-1.665-.074-4.864-.059-5.952a.581.581,0,0,0-.089-.314.575.575,0,0,0-.488-.271.549.549,0,0,0-.058,0c-.84.084-1.731.127-2.655.127a52.641,52.641,0,0,1-13.559-2.172C97.877,1.116,95.2.027,95.17.016a.218.218,0,0,0-.164,0,68.4,68.4,0,0,1-6.5,2.174c-1.275.361-2.774.747-4.4,1.093a45.645,45.645,0,0,1-9.472.991q-1.29,0-2.579-.072h-.021a.373.373,0,0,0-.28.128.431.431,0,0,0-.1.3c.025.833-.029,4.369-.056,6.15-.013.826-.022,1.422-.021,1.548q0,.614.006,1.224a60.346,60.346,0,0,0,.8,11.543,37.7,37.7,0,0,0,9.929,19.3,40.073,40.073,0,0,0,5.95,4.937A45.565,45.565,0,0,0,95,53.1a.217.217,0,0,0,.09.019.214.214,0,0,0,.09-.019,45.565,45.565,0,0,0,6.744-3.777,40.073,40.073,0,0,0,5.95-4.937,37.688,37.688,0,0,0,9.929-19.3,60.265,60.265,0,0,0,.8-11.543c0-.407,0-.815.006-1.224" fill="#2da692"/>
                    </g>
                  </g>
                </g>
              </g>
            </g>
          </g>
        </g>
      </g>
    </g>
  </g>
</svg>
