<svg xmlns="http://www.w3.org/2000/svg" xmlns:xlink="http://www.w3.org/1999/xlink" width="40" height="240" viewBox="0 0 40 240">
  <defs>
    <clipPath id="clip-path">
      <rect id="사각형_15804" data-name="사각형 15804" width="40" height="40" transform="translate(0 32)" fill="#fff"/>
    </clipPath>
    <clipPath id="clip-path-2">
      <rect id="사각형_15805" data-name="사각형 15805" width="40" height="40" transform="translate(0 72)" fill="#fff"/>
    </clipPath>
    <clipPath id="clip-path-3">
      <rect id="사각형_15806" data-name="사각형 15806" width="40" height="40" transform="translate(0 112)" fill="#fff"/>
    </clipPath>
    <clipPath id="clip-path-4">
      <rect id="사각형_15807" data-name="사각형 15807" width="40" height="40" transform="translate(0 152)" fill="#fff"/>
    </clipPath>
    <clipPath id="clip-path-5">
      <rect id="사각형_15808" data-name="사각형 15808" width="40" height="40" transform="translate(0 192)" fill="#fff"/>
    </clipPath>
    <clipPath id="clip-path-6">
      <rect id="사각형_15809" data-name="사각형 15809" width="40" height="40" transform="translate(0 232)" fill="#fff"/>
    </clipPath>
  </defs>
  <g id="donut" transform="translate(-811 -908)">
    <g id="그룹_982" data-name="그룹 982">
      <g id="그룹_981" data-name="그룹 981">
        <g id="그룹_975" data-name="그룹 975" transform="translate(811 876)" clip-path="url(#clip-path)">
          <path id="패스_683" data-name="패스 683" d="M9.8,61.55,5.55,65.8a19.927,19.927,0,0,0,13.8,6.17v-6A13.906,13.906,0,0,1,9.8,61.56Z" fill="#efefef"/>
          <path id="패스_684" data-name="패스 684" d="M20,66c-.22,0-.43-.02-.65-.03v6c.22,0,.43.03.65.03a19.906,19.906,0,0,0,13.8-5.55L29.55,62.2A13.911,13.911,0,0,1,20,66Z" fill="#efefef"/>
          <path id="패스_685" data-name="패스 685" d="M34,52h6a19.925,19.925,0,0,0-6.2-14.45L29.55,41.8A13.952,13.952,0,0,1,34,52Z" fill="#7de57b"/>
          <path id="패스_686" data-name="패스 686" d="M40,52H34a13.935,13.935,0,0,1-4.45,10.2l4.25,4.25A19.925,19.925,0,0,0,40,52Z" fill="#22ac3d"/>
          <path id="패스_687" data-name="패스 687" d="M6,52H0A19.906,19.906,0,0,0,5.55,65.8L9.8,61.55A13.911,13.911,0,0,1,6,52Z" fill="red"/>
          <path id="패스_688" data-name="패스 688" d="M20,38a13.911,13.911,0,0,1,9.55,3.8l4.25-4.25A19.906,19.906,0,0,0,20,32c-.22,0-.43.03-.65.03v6C19.57,38.02,19.78,38,20,38Z" fill="#feff37"/>
          <path id="패스_689" data-name="패스 689" d="M19.35,38.03v-6A19.866,19.866,0,0,0,5.55,38.2L9.8,42.45a13.926,13.926,0,0,1,9.55-4.41Z" fill="#fed35f"/>
          <path id="패스_690" data-name="패스 690" d="M9.8,42.45,5.55,38.2A19.906,19.906,0,0,0,0,52H6A13.911,13.911,0,0,1,9.8,42.45Z" fill="#ffa120"/>
        </g>
        <g id="그룹_976" data-name="그룹 976" transform="translate(811 876)" clip-path="url(#clip-path-2)">
          <path id="패스_691" data-name="패스 691" d="M9.8,101.55,5.55,105.8a19.927,19.927,0,0,0,13.8,6.17v-6a13.906,13.906,0,0,1-9.55-4.41Z" fill="#efefef"/>
          <path id="패스_692" data-name="패스 692" d="M20,106c-.22,0-.43-.02-.65-.03v6c.22,0,.43.03.65.03a19.906,19.906,0,0,0,13.8-5.55l-4.25-4.25A13.911,13.911,0,0,1,20,106Z" fill="#efefef"/>
          <path id="패스_693" data-name="패스 693" d="M34,92h6a19.925,19.925,0,0,0-6.2-14.45L29.55,81.8A13.952,13.952,0,0,1,34,92Z" fill="#7de57b"/>
          <path id="패스_694" data-name="패스 694" d="M40,92H34a13.935,13.935,0,0,1-4.45,10.2l4.25,4.25A19.925,19.925,0,0,0,40,92Z" fill="#efefef"/>
          <path id="패스_695" data-name="패스 695" d="M6,92H0a19.906,19.906,0,0,0,5.55,13.8l4.25-4.25A13.911,13.911,0,0,1,6,92Z" fill="#fe4d0e"/>
          <path id="패스_696" data-name="패스 696" d="M20,78a13.911,13.911,0,0,1,9.55,3.8l4.25-4.25A19.906,19.906,0,0,0,20,72c-.22,0-.43.03-.65.03v6C19.57,78.02,19.78,78,20,78Z" fill="#ebe96d"/>
          <path id="패스_697" data-name="패스 697" d="M19.35,78.03v-6A19.866,19.866,0,0,0,5.55,78.2L9.8,82.45a13.926,13.926,0,0,1,9.55-4.41Z" fill="#febb60"/>
          <path id="패스_698" data-name="패스 698" d="M9.8,82.45,5.55,78.2A19.906,19.906,0,0,0,0,92H6A13.911,13.911,0,0,1,9.8,82.45Z" fill="#ffa120"/>
        </g>
        <g id="그룹_977" data-name="그룹 977" transform="translate(811 876)" clip-path="url(#clip-path-3)">
          <path id="패스_699" data-name="패스 699" d="M9.8,141.55,5.55,145.8a19.927,19.927,0,0,0,13.8,6.17v-6a13.906,13.906,0,0,1-9.55-4.41Z" fill="#efefef"/>
          <path id="패스_700" data-name="패스 700" d="M20,146c-.22,0-.43-.02-.65-.03v6c.22,0,.43.03.65.03a19.906,19.906,0,0,0,13.8-5.55l-4.25-4.25A13.911,13.911,0,0,1,20,146Z" fill="#efefef"/>
          <path id="패스_701" data-name="패스 701" d="M34,132h6a19.925,19.925,0,0,0-6.2-14.45l-4.25,4.25A13.952,13.952,0,0,1,34,132Z" fill="#efefef"/>
          <path id="패스_702" data-name="패스 702" d="M40,132H34a13.935,13.935,0,0,1-4.45,10.2l4.25,4.25A19.925,19.925,0,0,0,40,132Z" fill="#efefef"/>
          <path id="패스_703" data-name="패스 703" d="M6,132H0a19.906,19.906,0,0,0,5.55,13.8l4.25-4.25A13.911,13.911,0,0,1,6,132Z" fill="#fe4d0e"/>
          <path id="패스_704" data-name="패스 704" d="M20,118a13.911,13.911,0,0,1,9.55,3.8l4.25-4.25A19.906,19.906,0,0,0,20,112c-.22,0-.43.03-.65.03v6C19.57,118.02,19.78,118,20,118Z" fill="#ebe96d"/>
          <path id="패스_705" data-name="패스 705" d="M19.35,118.03v-6a19.866,19.866,0,0,0-13.8,6.17l4.25,4.25a13.926,13.926,0,0,1,9.55-4.41Z" fill="#febb60"/>
          <path id="패스_706" data-name="패스 706" d="M9.8,122.45,5.55,118.2A19.906,19.906,0,0,0,0,132H6A13.911,13.911,0,0,1,9.8,122.45Z" fill="#ffa120"/>
        </g>
        <g id="그룹_978" data-name="그룹 978" transform="translate(811 876)" clip-path="url(#clip-path-4)">
          <path id="패스_707" data-name="패스 707" d="M9.8,181.55,5.55,185.8a19.927,19.927,0,0,0,13.8,6.17v-6a13.906,13.906,0,0,1-9.55-4.41Z" fill="#efefef"/>
          <path id="패스_708" data-name="패스 708" d="M20,186c-.22,0-.43-.02-.65-.03v6c.22,0,.43.03.65.03a19.906,19.906,0,0,0,13.8-5.55l-4.25-4.25A13.911,13.911,0,0,1,20,186Z" fill="#efefef"/>
          <path id="패스_709" data-name="패스 709" d="M34,172h6a19.925,19.925,0,0,0-6.2-14.45l-4.25,4.25A13.952,13.952,0,0,1,34,172Z" fill="#efefef"/>
          <path id="패스_710" data-name="패스 710" d="M40,172H34a13.935,13.935,0,0,1-4.45,10.2l4.25,4.25A19.925,19.925,0,0,0,40,172Z" fill="#efefef"/>
          <path id="패스_711" data-name="패스 711" d="M6,172H0a19.906,19.906,0,0,0,5.55,13.8l4.25-4.25A13.911,13.911,0,0,1,6,172Z" fill="#fe4d0e"/>
          <path id="패스_712" data-name="패스 712" d="M20,158a13.911,13.911,0,0,1,9.55,3.8l4.25-4.25A19.906,19.906,0,0,0,20,152c-.22,0-.43.03-.65.03v6C19.57,158.02,19.78,158,20,158Z" fill="#efefef"/>
          <path id="패스_713" data-name="패스 713" d="M19.35,158.03v-6a19.866,19.866,0,0,0-13.8,6.17l4.25,4.25a13.926,13.926,0,0,1,9.55-4.41Z" fill="#febb60"/>
          <path id="패스_714" data-name="패스 714" d="M9.8,162.45,5.55,158.2A19.906,19.906,0,0,0,0,172H6A13.911,13.911,0,0,1,9.8,162.45Z" fill="#ffa120"/>
        </g>
        <g id="그룹_979" data-name="그룹 979" transform="translate(811 876)" clip-path="url(#clip-path-5)">
          <path id="패스_715" data-name="패스 715" d="M9.8,221.55,5.55,225.8a19.927,19.927,0,0,0,13.8,6.17v-6a13.906,13.906,0,0,1-9.55-4.41Z" fill="#efefef"/>
          <path id="패스_716" data-name="패스 716" d="M20,226c-.22,0-.43-.02-.65-.03v6c.22,0,.43.03.65.03a19.906,19.906,0,0,0,13.8-5.55l-4.25-4.25A13.911,13.911,0,0,1,20,226Z" fill="#efefef"/>
          <path id="패스_717" data-name="패스 717" d="M34,212h6a19.925,19.925,0,0,0-6.2-14.45l-4.25,4.25A13.952,13.952,0,0,1,34,212Z" fill="#efefef"/>
          <path id="패스_718" data-name="패스 718" d="M40,212H34a13.935,13.935,0,0,1-4.45,10.2l4.25,4.25A19.925,19.925,0,0,0,40,212Z" fill="#efefef"/>
          <path id="패스_719" data-name="패스 719" d="M6,212H0a19.906,19.906,0,0,0,5.55,13.8l4.25-4.25A13.911,13.911,0,0,1,6,212Z" fill="#fe4d0e"/>
          <path id="패스_720" data-name="패스 720" d="M20,198a13.911,13.911,0,0,1,9.55,3.8l4.25-4.25A19.906,19.906,0,0,0,20,192c-.22,0-.43.03-.65.03v6C19.57,198.02,19.78,198,20,198Z" fill="#efefef"/>
          <path id="패스_721" data-name="패스 721" d="M19.35,198.03v-6a19.866,19.866,0,0,0-13.8,6.17l4.25,4.25a13.926,13.926,0,0,1,9.55-4.41Z" fill="#efefef"/>
          <path id="패스_722" data-name="패스 722" d="M9.8,202.45,5.55,198.2A19.906,19.906,0,0,0,0,212H6A13.911,13.911,0,0,1,9.8,202.45Z" fill="#ffa120"/>
        </g>
        <g id="그룹_980" data-name="그룹 980" transform="translate(811 876)" clip-path="url(#clip-path-6)">
          <path id="패스_723" data-name="패스 723" d="M9.8,261.55,5.55,265.8a19.927,19.927,0,0,0,13.8,6.17v-6a13.906,13.906,0,0,1-9.55-4.41Z" fill="#efefef"/>
          <path id="패스_724" data-name="패스 724" d="M20,266c-.22,0-.43-.02-.65-.03v6c.22,0,.43.03.65.03a19.906,19.906,0,0,0,13.8-5.55l-4.25-4.25A13.911,13.911,0,0,1,20,266Z" fill="#efefef"/>
          <path id="패스_725" data-name="패스 725" d="M34,252h6a19.925,19.925,0,0,0-6.2-14.45l-4.25,4.25A13.952,13.952,0,0,1,34,252Z" fill="#efefef"/>
          <path id="패스_726" data-name="패스 726" d="M40,252H34a13.935,13.935,0,0,1-4.45,10.2l4.25,4.25A19.926,19.926,0,0,0,40,252Z" fill="#efefef"/>
          <path id="패스_727" data-name="패스 727" d="M6,252H0a19.906,19.906,0,0,0,5.55,13.8l4.25-4.25A13.911,13.911,0,0,1,6,252Z" fill="#fe4d0e"/>
          <path id="패스_728" data-name="패스 728" d="M20,238a13.911,13.911,0,0,1,9.55,3.8l4.25-4.25A19.906,19.906,0,0,0,20,232c-.22,0-.43.03-.65.03v6C19.57,238.02,19.78,238,20,238Z" fill="#efefef"/>
          <path id="패스_729" data-name="패스 729" d="M19.35,238.03v-6a19.866,19.866,0,0,0-13.8,6.17l4.25,4.25a13.926,13.926,0,0,1,9.55-4.41Z" fill="#efefef"/>
          <path id="패스_730" data-name="패스 730" d="M9.8,242.45,5.55,238.2A19.906,19.906,0,0,0,0,252H6A13.911,13.911,0,0,1,9.8,242.45Z" fill="#efefef"/>
        </g>
      </g>
    </g>
  </g>
</svg>
