<svg xmlns="http://www.w3.org/2000/svg" xmlns:xlink="http://www.w3.org/1999/xlink" width="20" height="20" viewBox="0 0 20 20">
  <defs>
    <clipPath id="clip-path">
      <rect id="mask" width="20" height="20" fill="#121212"/>
    </clipPath>
  </defs>
  <g id="ico_auth" clip-path="url(#clip-path)">
    <path id="pass" d="M16.248,3.668a.36.36,0,0,0-.283-.083C10.4,4.388,8.586.366,8.512.194a.371.371,0,0,0-.652,0C7.785.366,5.977,4.39.406,3.585a.36.36,0,0,0-.283.083A.357.357,0,0,0,0,3.936v8.92a.494.494,0,0,0,.014.1,1.849,1.849,0,0,1,.02.211c.234,3.3,2.873,5.533,8.066,6.823a.342.342,0,0,0,.171,0c5.193-1.291,7.831-3.523,8.066-6.823a1.747,1.747,0,0,1,.019-.209.366.366,0,0,0,.015-.1V3.936a.357.357,0,0,0-.123-.268M11.573,8.424,7.918,12.207a.354.354,0,0,1-.5.011L4.809,9.739A.355.355,0,0,1,5.3,9.225l2.355,2.237,3.41-3.531a.355.355,0,1,1,.51.493" transform="translate(1.667 0.001)" fill="#121212"/>
  </g>
</svg>
