<svg xmlns="http://www.w3.org/2000/svg" xmlns:xlink="http://www.w3.org/1999/xlink" width="24" height="24" viewBox="0 0 24 24">
  <defs>
    <clipPath id="clip-path">
      <rect id="mask" width="24" height="24" fill="none"/>
    </clipPath>
    <clipPath id="clip-path-2">
      <rect id="mask-2" data-name="mask" width="8.158" height="8.158" fill="none" stroke="#707070" stroke-width="1"/>
    </clipPath>
  </defs>
  <g id="ico_approval" clip-path="url(#clip-path)">
    <g id="img" transform="translate(5.474 5.474)">
      <path id="pass4" d="M8.408,17.951H4.7v.956a1.994,1.994,0,0,1-1.873,1.986c.042,0,.083.013.126.013H8.374" transform="translate(-1.356 -6.928)" fill="none" stroke="#121212" stroke-linecap="round" stroke-linejoin="round" stroke-width="1"/>
      <path id="pass3" d="M11.874,7.764V.5H.5V12.881a1.592,1.592,0,0,0,1.469,1.584" transform="translate(-0.5 -0.5)" fill="none" stroke="#121212" stroke-linecap="round" stroke-linejoin="round" stroke-width="1"/>
      <path id="pass2" d="M2.62,22.62h.253c-.044,0-.085-.009-.126-.013S2.665,22.62,2.62,22.62Z" transform="translate(-1.281 -8.643)" fill="#fff" stroke="#121212" stroke-linecap="round" stroke-linejoin="round" stroke-width="1"/>
      <line id="line2" x2="1.577" transform="translate(2.998 3.604)" fill="none" stroke="#121212" stroke-linecap="round" stroke-linejoin="round" stroke-width="1"/>
      <line id="line1" x2="4.928" transform="translate(2.998 6.167)" fill="none" stroke="#121212" stroke-linecap="round" stroke-linejoin="round" stroke-width="1"/>
      <g id="icon_setting" transform="translate(7.842 7.444)" clip-path="url(#clip-path-2)">
        <path id="pass" d="M7.306,3.817l-.184-.448a8.169,8.169,0,0,0,.391-1.027l-.568-.567a7.744,7.744,0,0,0-1.008.412L5.489,2a8.135,8.135,0,0,0-.449-1h-.8a7.758,7.758,0,0,0-.421,1.005L3.37,2.19A8.213,8.213,0,0,0,2.343,1.8l-.568.568a7.781,7.781,0,0,0,.412,1.008L2,3.822A8.305,8.305,0,0,0,1,4.27v.8a7.686,7.686,0,0,0,1.006.422l.184.446A8.276,8.276,0,0,0,1.8,6.968l.568.568a7.859,7.859,0,0,0,1.008-.413l.447.185a8.072,8.072,0,0,0,.449,1h.8A7.706,7.706,0,0,0,5.494,7.3l.448-.185a8.256,8.256,0,0,0,1.026.392l.568-.568a7.73,7.73,0,0,0-.413-1.008l.184-.447a8.2,8.2,0,0,0,1-.449v-.8A7.7,7.7,0,0,0,7.306,3.817Zm-1.478.838a1.172,1.172,0,1,1-1.172-1.17A1.174,1.174,0,0,1,5.827,4.655Z" transform="translate(-0.668 -0.668)" fill="none" stroke="#333" stroke-miterlimit="10" stroke-width="1"/>
      </g>
    </g>
  </g>
</svg>
