<svg xmlns="http://www.w3.org/2000/svg" xmlns:xlink="http://www.w3.org/1999/xlink" width="24" height="24" viewBox="0 0 24 24">
  <defs>
    <clipPath id="clip-path">
      <rect id="mask" width="24" height="24" transform="translate(-5 -2)" fill="#fff" stroke="#707070" stroke-width="1"/>
    </clipPath>
    <clipPath id="clip-path-2">
      <path id="패스_678" data-name="패스 678" d="M72.352,111.613l3.44,9.291,1.786-2.88,3.045,1.091-3.44-9.291Z" transform="translate(-72.352 -109.824)" fill="none" stroke="#c9c9c9" stroke-width="1"/>
    </clipPath>
    <clipPath id="clip-path-3">
      <path id="패스_679" data-name="패스 679" d="M14.3,119.115l3.045-1.091,1.786,2.88,3.44-9.291-4.831-1.789Z" transform="translate(-14.296 -109.824)" fill="none" stroke="#c9c9c9" stroke-width="1"/>
    </clipPath>
    <clipPath id="clip-path-4">
      <rect id="사각형_15803" data-name="사각형 15803" width="18.246" height="23.814" fill="none"/>
    </clipPath>
  </defs>
  <g id="ico_medal_off" transform="translate(5 2)" clip-path="url(#clip-path)">
    <g id="img" transform="translate(-2 -2)">
      <path id="패스_676" data-name="패스 676" d="M72.352,111.613l3.44,9.291,1.786-2.88,3.045,1.091-3.44-9.291Z" transform="translate(-63.963 -97.09)" fill="#3e3e3e"/>
      <path id="패스_677" data-name="패스 677" d="M14.3,119.115l3.045-1.091,1.786,2.88,3.44-9.291-4.831-1.789Z" transform="translate(-12.639 -97.09)" fill="#3e3e3e"/>
      <g id="그룹_970" data-name="그룹 970" transform="translate(8.389 12.734)">
        <g id="그룹_969" data-name="그룹 969" clip-path="url(#clip-path-2)">
          <line id="선_287" data-name="선 287" x1="2.096" y1="5.706" transform="translate(2.023 4.49)" fill="none" stroke="#c9c9c9" stroke-linejoin="round" stroke-width="3"/>
          <line id="선_288" data-name="선 288" x1="2.226" y1="5.83" transform="translate(4.851 3.491)" fill="none" stroke="#c9c9c9" stroke-linejoin="round" stroke-width="3"/>
        </g>
      </g>
      <g id="그룹_972" data-name="그룹 972" transform="translate(1.657 12.734)">
        <g id="그룹_971" data-name="그룹 971" clip-path="url(#clip-path-3)">
          <line id="선_289" data-name="선 289" y1="5.731" x2="2.124" transform="translate(4.11 4.606)" fill="none" stroke="#c9c9c9" stroke-linejoin="round" stroke-width="3"/>
          <line id="선_290" data-name="선 290" y1="5.551" x2="2.057" transform="translate(1.128 3.552)" fill="none" stroke="#c9c9c9" stroke-linejoin="round" stroke-width="3"/>
        </g>
      </g>
      <path id="패스_680" data-name="패스 680" d="M9.123,0,7.782,1.118,6.15.5l-.9,1.493L3.5,1.93,3.129,3.636l-1.67.511.2,1.734L.249,6.907,1,8.482,0,9.91l1.225,1.244L.739,12.832l1.563.779.085,1.744,1.731.229.647,1.622,1.711-.345,1.139,1.324L9.123,17.3l1.507.882,1.139-1.324,1.712.345.647-1.622,1.731-.229.085-1.744,1.563-.779-.485-1.677L18.246,9.91l-1-1.429L18,6.907,16.584,5.882l.2-1.734-1.67-.511L14.746,1.93,13,1.989,12.1.5l-1.631.622Z" fill="#999"/>
      <g id="그룹_974" data-name="그룹 974">
        <g id="그룹_973" data-name="그룹 973" clip-path="url(#clip-path-4)">
          <path id="패스_681" data-name="패스 681" d="M28.429,20.574a7.586,7.586,0,1,1-7.586-7.586,7.586,7.586,0,0,1,7.586,7.586" transform="translate(-11.72 -11.482)" fill="#fdf8f3"/>
          <path id="패스_682" data-name="패스 682" d="M33.97,26.95a6.75,6.75,0,1,1-6.75-6.75,6.75,6.75,0,0,1,6.75,6.75" transform="translate(-18.097 -17.858)" fill="#999"/>
        </g>
      </g>
    </g>
  </g>
</svg>
