<svg xmlns="http://www.w3.org/2000/svg" xmlns:xlink="http://www.w3.org/1999/xlink" width="20" height="20" viewBox="0 0 20 20">
  <defs>
    <clipPath id="clip-path">
      <rect id="mask" width="20" height="20" transform="translate(-1)" fill="none"/>
    </clipPath>
  </defs>
  <g id="ico_distribution" transform="translate(1)" clip-path="url(#clip-path)">
    <g id="img">
      <path id="pass05" d="M0,14.046v1.313a2.755,2.755,0,0,1,1.942-.794h.98V10.9H2.875a1.243,1.243,0,0,0-1.241,1.241v.27a.4.4,0,0,1-.114.279.384.384,0,0,1-.283.114A1.239,1.239,0,0,0,0,14.046" transform="translate(0 -6.359)"/>
      <path id="pass04" d="M37.617,15.47H36.329v1.76h.583a2.755,2.755,0,0,1,1.942.793V16.711a1.239,1.239,0,0,0-1.237-1.241" transform="translate(-21.192 -9.024)"/>
      <path id="pass03" d="M17.667,23.666a1.948,1.948,0,0,0-1.946-1.946H1.946A1.941,1.941,0,0,0,0,23.662v7.3A1.712,1.712,0,0,0,1.716,32.67H15.954a1.712,1.712,0,0,0,1.713-1.712Zm-3.529,7.6H10.771a.417.417,0,1,1,0-.833h3.367a.417.417,0,1,1,0,.833m1.171-1.7H10.771a.417.417,0,1,1,0-.833h4.538a.417.417,0,1,1,0,.833m0-1.7H10.771a.417.417,0,0,1,0-.833h4.538a.417.417,0,0,1,0,.833" transform="translate(-0.002 -12.67)"/>
      <path id="psss02" d="M9.624,3.029h2.433V.6Z" transform="translate(-5.614 -0.35)"/>
      <path id="pass01" d="M9.034,8.2H19.563V.421A.425.425,0,0,0,19.142,0H12.559V3.1a.422.422,0,0,1-.421.421h-3.1Zm5.612-5.871h2.317a.423.423,0,0,1,0,.846H14.646a.423.423,0,1,1,0-.846M11.63,4.35h5.333a.421.421,0,0,1,.421.425.414.414,0,0,1-.421.421H11.63a.42.42,0,0,1-.421-.421.426.426,0,0,1,.421-.425m0,2.025h5.333a.421.421,0,1,1,0,.842H11.63a.421.421,0,1,1,0-.842" transform="translate(-5.27)"/>
    </g>
  </g>
</svg>
