<svg xmlns="http://www.w3.org/2000/svg" xmlns:xlink="http://www.w3.org/1999/xlink" width="24" height="24" viewBox="0 0 24 24">
  <defs>
    <clipPath id="clip-path">
      <rect id="mask" width="24" height="24" fill="#fff" stroke="#707070" stroke-width="1"/>
    </clipPath>
  </defs>
  <g id="ico__refresh" data-name="ico_ refresh" clip-path="url(#clip-path)">
    <path id="ico__refresh-2" data-name="ico_ refresh" d="M13.157,5.214a.572.572,0,1,0-.951.635,6.04,6.04,0,0,1-5.023,9.393H7.178a6.04,6.04,0,0,1,0-12.08A7.1,7.1,0,0,1,8.951,3.4L7.43,4.514a.571.571,0,1,0,.674.923l2.567-1.874c.007-.005.01-.013.016-.018s.015-.008.022-.014a.524.524,0,0,0,.053-.069.577.577,0,0,0,.071-.091.527.527,0,0,0,.036-.1.582.582,0,0,0,.029-.107.636.636,0,0,0,0-.107.576.576,0,0,0-.014-.108.537.537,0,0,0-.047-.1.569.569,0,0,0-.037-.082c-.005-.007-.013-.01-.019-.017s-.006-.014-.011-.021L8.564.2A.571.571,0,1,0,7.7.946L8.777,2.181a8.165,8.165,0,0,0-1.588-.162H7.183a7.183,7.183,0,0,0-.005,14.366h.006A7.183,7.183,0,0,0,13.157,5.214" transform="translate(5 4)" fill="#121212"/>
  </g>
</svg>
