<svg xmlns="http://www.w3.org/2000/svg" xmlns:xlink="http://www.w3.org/1999/xlink" width="20" height="20" viewBox="0 0 20 20">
  <defs>
    <clipPath id="clip-path">
      <rect id="사각형_15698" data-name="사각형 15698" width="20" height="20" fill="#121212"/>
    </clipPath>
  </defs>
  <g id="ico_webEam" clip-path="url(#clip-path)">
    <path id="pass02" d="M17.225,0H2.767A2.771,2.771,0,0,0,0,2.767V17.225A2.772,2.772,0,0,0,2.767,20H17.225a2.772,2.772,0,0,0,2.767-2.775V2.767A2.771,2.771,0,0,0,17.225,0M9.292,2.208h7.267a.833.833,0,0,1,0,1.667H9.292a.833.833,0,0,1,0-1.667m-3.625,0a.833.833,0,1,1-.833.833.836.836,0,0,1,.833-.833m-2.342,0a.833.833,0,0,1,.008,1.667H3.325a.833.833,0,0,1,0-1.667M18.333,17.225a1.113,1.113,0,0,1-1.108,1.108H2.775a1.106,1.106,0,0,1-1.1-1.108V6.783a1.1,1.1,0,0,1,1.1-1.1h14.45a1.106,1.106,0,0,1,1.108,1.1Z" fill="#121212"/>
    <path id="pass01" d="M160.154,167.834l.542,2.851a.42.42,0,0,1-.415.5H157.7a.42.42,0,0,1-.415-.5l.542-2.851a2.347,2.347,0,1,1,2.33,0" transform="translate(-148.993 -155.468)" fill="#121212"/>
  </g>
</svg>
