<svg xmlns="http://www.w3.org/2000/svg" width="24" height="24"><defs><clipPath id="a"><path fill="#fff" stroke="#707070" d="M291 284h24v24h-24z" data-name="사각형 15386"/></clipPath><clipPath id="b"><path fill="none" d="M0 0h22.143v20H0z" data-name="사각형 15390"/></clipPath></defs><g clip-path="url(#a)" transform="translate(-291 -284)"><g clip-path="url(#b)" data-name="그룹 580" transform="translate(292 286)"><path fill="#f16c49" fill-rule="evenodd" d="M2.14 9.996a10 10 0 0 1 10-10v10Z" data-name="패스 360"/><path fill="#ff8f6a" fill-rule="evenodd" d="M12.138 0a10 10 0 0 1 10 10h-10Z" data-name="패스 361"/><path fill="#d75032" fill-rule="evenodd" d="M22.14 9.996a10 10 0 1 1-20 0h20Z" data-name="패스 362"/><path fill="#bd3819" fill-rule="evenodd" d="M1.111 4.303h8.955a1.11 1.11 0 0 1 1.1 1.111v9.077a1.11 1.11 0 0 1-1.1 1.111H1.111A1.112 1.112 0 0 1 0 14.491v-9.08A1.112 1.112 0 0 1 1.111 4.3" data-name="패스 363"/><path fill="#fff" d="M3.262 13.056V6.847H5.23a6.873 6.873 0 0 1 1.443.1 1.52 1.52 0 0 1 .883.612 1.938 1.938 0 0 1 .35 1.207 2.009 2.009 0 0 1-.3 1.128 1.618 1.618 0 0 1-.761.638 4.608 4.608 0 0 1-1.565.184h-.8v2.344Zm1.216-5.16v1.767h.682a3.535 3.535 0 0 0 .927-.079.785.785 0 0 0 .4-.289.841.841 0 0 0 .157-.516.85.85 0 0 0-.157-.525.864.864 0 0 0-.4-.289 4.672 4.672 0 0 0-1.006-.07Z" data-name="패스 364"/></g></g></svg>