<svg xmlns="http://www.w3.org/2000/svg" xmlns:xlink="http://www.w3.org/1999/xlink" width="20" height="20" viewBox="0 0 20 20">
  <defs>
    <clipPath id="clip-path">
      <rect id="mask" width="20" height="20" fill="none"/>
    </clipPath>
  </defs>
  <g id="ico_fw" clip-path="url(#clip-path)">
    <g id="img" transform="translate(0 2.5)">
      <path id="pass03" d="M198.315,86.007a5.522,5.522,0,0,1-1.828,1.59l-.841.454a.175.175,0,0,0,.083.33h3.412V86.007Zm1.177,0h4.22v2.374h-4.22Zm7.474,0h-2.9v2.374h1.961a.941.941,0,0,0,.941-.941Zm-5.052-2.412h5.052v2.061h-5.052Zm-2.592,0a5.532,5.532,0,0,1-.769,2.061h3.01V83.595Zm4.39-2.374h-4.444l.1.969a5.525,5.525,0,0,1,0,1.054h4.346Zm3.253,2.023h-2.9V81.221h2.9Zm-5.4-4.786H199.19a.175.175,0,0,0-.175.193l.218,2.22h2.33Zm.351,0V80.87h5.052V79.4a.941.941,0,0,0-.941-.941Z" transform="translate(-186.965 -75.013)" fill-rule="evenodd"/>
      <path id="pass02" d="M36.257,37.733a.176.176,0,0,0-.163.158l-.35,3.56a4.311,4.311,0,0,0,2.243,4.216L40.458,47a.175.175,0,0,0,.167,0L43.1,45.667a4.311,4.311,0,0,0,2.243-4.216l-.35-3.56a.175.175,0,0,0-.163-.158l-.245-.017a5.415,5.415,0,0,1-3.222-1.344l-.678-.6a.2.2,0,0,0-.269,0l-.684.6a5.417,5.417,0,0,1-3.218,1.34Z" transform="translate(-34.154 -34.154)" fill-rule="evenodd"/>
      <path id="pass01" d="M12.383,3.446a1.581,1.581,0,0,0-1.467-1.422L10.533,2a3.848,3.848,0,0,1-2.289-.955l-.678-.6a1.772,1.772,0,0,0-2.345,0l-.684.6A3.848,3.848,0,0,1,2.251,2l-.393.026A1.581,1.581,0,0,0,.392,3.446l-.363,3.7a5.88,5.88,0,0,0,3.059,5.75l2.858,1.543a.931.931,0,0,0,.885,0l2.858-1.543a5.88,5.88,0,0,0,3.059-5.75Zm-.349.034.364,3.7a5.529,5.529,0,0,1-2.876,5.407L6.663,14.127a.581.581,0,0,1-.551,0L3.254,12.585A5.529,5.529,0,0,1,.377,7.178l.364-3.7A1.23,1.23,0,0,1,1.882,2.374l.393-.026A4.2,4.2,0,0,0,4.769,1.309l.684-.6a1.422,1.422,0,0,1,1.881,0l.678.6a4.2,4.2,0,0,0,2.5,1.042l.383.026A1.23,1.23,0,0,1,12.034,3.48" transform="translate(0 0)" fill-rule="evenodd"/>
    </g>
  </g>
</svg>
