<svg xmlns="http://www.w3.org/2000/svg" xmlns:xlink="http://www.w3.org/1999/xlink" width="24" height="24" viewBox="0 0 24 24">
  <defs>
    <clipPath id="clip-path">
      <rect id="mask" width="24" height="24" transform="translate(-0.5 28.5)" fill="#fff" stroke="#707070" stroke-width="1"/>
    </clipPath>
  </defs>
  <g id="ico_vpn" transform="translate(0.5 -28.5)" clip-path="url(#clip-path)">
    <g id="img" transform="translate(-2.589 29.016)">
      <path id="패스_600" data-name="패스 600" d="M30.694,23.5H30v1.389h.694a.694.694,0,0,0,0-1.389Z" transform="translate(-16.605 -14.978)"/>
      <path id="패스_601" data-name="패스 601" d="M23.156,3.638h-.274A13.4,13.4,0,0,1,14.421.618a.523.523,0,0,0-.663,0A13.4,13.4,0,0,1,5.3,3.638H5.023a.523.523,0,0,0-.523.523v5.954A12.8,12.8,0,0,0,13.953,22.45a.519.519,0,0,0,.272,0,12.8,12.8,0,0,0,9.453-12.335V4.161A.523.523,0,0,0,23.156,3.638Zm-12.225,4.5L9.536,13.023a.523.523,0,0,1-1.006,0L7.136,8.141a.523.523,0,0,1,.359-.646h0a.523.523,0,0,1,.646.359l.892,3.122.892-3.122a.523.523,0,0,1,.646-.359h0a.523.523,0,0,1,.359.646Zm3.159,2.82h-.7v1.918a.523.523,0,0,1-1.046,0V8a.523.523,0,0,1,.523-.523h1.22a1.744,1.744,0,1,1,0,3.487Zm6.974,1.918a.523.523,0,0,1-.976.259L18.274,9.965v2.914a.523.523,0,1,1-1.046,0V8a.523.523,0,0,1,.976-.259l1.813,3.173V8a.523.523,0,1,1,1.046,0Z"/>
    </g>
  </g>
</svg>
