<svg xmlns="http://www.w3.org/2000/svg" xmlns:xlink="http://www.w3.org/1999/xlink" width="20" height="20" viewBox="0 0 20 20">
  <defs>
    <clipPath id="clip-path">
      <rect id="mask" width="20" height="20" fill="none"/>
    </clipPath>
  </defs>
  <g id="ico_pAMGateway_" data-name="ico_pAMGateway " clip-path="url(#clip-path)">
    <g id="img" transform="translate(0 0)">
      <path id="pass04" d="M192,193a1,1,0,1,1,1,1,1,1,0,0,1-1-1" transform="translate(-183 -183.001)"/>
      <path id="pass03" d="M0,3A3,3,0,0,1,3,0H5.5a1,1,0,1,1,0,2H3A1,1,0,0,0,2,3V5H18V3a1,1,0,0,0-1-1H14.5a1,1,0,1,1,0-2H17a3,3,0,0,1,3,3V6a1,1,0,0,1-1,1H15.919l.048.039,2.667,2.188a1,1,0,0,1,0,1.546l-2.667,2.188a9.752,9.752,0,0,1-11.935,0L1.366,10.774a1,1,0,0,1,0-1.546L4.032,7.04,4.081,7H1A1,1,0,0,1,0,6ZM10,7a3,3,0,1,0,3,3,3,3,0,0,0-3-3" transform="translate(0 -0.001)" fill-rule="evenodd"/>
      <path id="pass02" d="M1,288a1,1,0,0,1,1,1v2.5a1,1,0,0,0,1,1H5.5a1,1,0,0,1,0,2H3a3,3,0,0,1-3-3V289a1,1,0,0,1,1-1" transform="translate(0 -274.5)"/>
      <path id="pass01" d="M293.5,288a1,1,0,0,1,1,1v2.5a3,3,0,0,1-3,3H289a1,1,0,0,1,0-2h2.5a1,1,0,0,0,1-1V289a1,1,0,0,1,1-1" transform="translate(-274.5 -274.5)"/>
    </g>
  </g>
</svg>
