<svg xmlns="http://www.w3.org/2000/svg" xmlns:xlink="http://www.w3.org/1999/xlink" width="24" height="24" viewBox="0 0 24 24">
  <defs>
    <clipPath id="clip-path">
      <rect id="mask" width="24" height="24" transform="translate(-3 -2)" fill="none"/>
    </clipPath>
  </defs>
  <g id="ico_calendar" transform="translate(3 2)" opacity="0.8" clip-path="url(#clip-path)">
    <g id="calendar" transform="translate(-1.24 -0.886)">
      <line id="liine3" y2="4.273" transform="translate(6.216 0)" fill="none" stroke="#121212" stroke-linecap="round" stroke-linejoin="round" stroke-width="1"/>
      <line id="line2" y2="4.273" transform="translate(14.864 0)" fill="none" stroke="#121212" stroke-linecap="round" stroke-linejoin="round" stroke-width="1"/>
      <g id="pass" transform="translate(-1 -0.732)" fill="none" stroke-linecap="round" stroke-linejoin="round">
        <path d="M16.011,2.5c3.845.206,5.773,1.663,5.773,7.054v7.089c0,4.726-1.155,7.089-6.928,7.089H7.928C2.155,23.732,1,21.369,1,16.643V9.554C1,4.163,2.928,2.718,6.773,2.5Z" stroke="none"/>
        <path d="M 6.802288055419922 3.499994277954102 C 4.994390487670898 3.605749130249023 3.878429412841797 3.994377136230469 3.185846328735352 4.758705139160156 C 2.387886047363281 5.639314651489258 1.999996185302734 7.20799446105957 1.999996185302734 9.554374694824219 L 1.999996185302734 16.64315414428711 C 1.999996185302734 19.0461540222168 2.316717147827148 20.4417839050293 3.059026718139648 21.30980491638184 C 3.88874626159668 22.2800350189209 5.435956954956055 22.73192405700684 7.928175926208496 22.73192405700684 L 14.85635566711426 22.73192405700684 C 17.34857559204102 22.73192405700684 18.89578628540039 22.2800350189209 19.72550582885742 21.30980491638184 C 20.46781539916992 20.4417839050293 20.78453636169434 19.0461540222168 20.78453636169434 16.64315414428711 L 20.78453636169434 9.554374694824219 C 20.78453636169434 7.20628547668457 20.3964958190918 5.636045455932617 19.59823608398438 4.753904342651367 C 18.90443801879883 3.987209320068359 17.78912925720215 3.600082397460938 15.98381042480469 3.499994277954102 L 6.802288055419922 3.499994277954102 M 6.773475646972656 2.499994277954102 L 16.01104736328125 2.499994277954102 C 19.85618591308594 2.706474304199219 21.78453636169434 4.163225173950195 21.78453636169434 9.554374694824219 L 21.78453636169434 16.64315414428711 C 21.78453636169434 21.36900520324707 20.62983703613281 23.73192405700684 14.85635566711426 23.73192405700684 L 7.928175926208496 23.73192405700684 C 2.154695510864258 23.73192405700684 0.9999961853027344 21.36900520324707 0.9999961853027344 16.64315414428711 L 0.9999961853027344 9.554374694824219 C 0.9999961853027344 4.163225173950195 2.928346633911133 2.717945098876953 6.773475646972656 2.499994277954102 Z" stroke="none" fill="#121212"/>
      </g>
      <line id="line" x1="19.417" transform="translate(0.74 17.908)" fill="none" stroke="#121212" stroke-linecap="round" stroke-linejoin="round" stroke-width="1"/>
    </g>
  </g>
</svg>
