<svg xmlns="http://www.w3.org/2000/svg" xmlns:xlink="http://www.w3.org/1999/xlink" width="24" height="24" viewBox="0 0 24 24">
  <defs>
    <clipPath id="clip-path">
      <rect id="사각형_15817" data-name="사각형 15817" width="24" height="24" transform="translate(-14196 -6353)" fill="#fff" stroke="#707070" stroke-width="1"/>
    </clipPath>
    <clipPath id="clip-path-2">
      <rect id="사각형_15816" data-name="사각형 15816" width="16" height="16" fill="#237de5" stroke="#fff" stroke-width="1"/>
    </clipPath>
  </defs>
  <g id="마스크_그룹_82" data-name="마스크 그룹 82" transform="translate(14196 6353)" clip-path="url(#clip-path)">
    <g id="그룹_1135" data-name="그룹 1135" transform="translate(-14184 -6352.772) rotate(45)" clip-path="url(#clip-path-2)">
      <path id="패스_1018" data-name="패스 1018" d="M4.079,12.379,1.5,14.958l4.389,4.388,2.579-2.579,5.864-1.605L5.685,6.515Z" transform="translate(-0.907 -3.94)" fill="#fff" stroke="#fff" stroke-linecap="round" stroke-linejoin="round" stroke-width="1"/>
      <path id="패스_1019" data-name="패스 1019" d="M23.363,7.556a3.778,3.778,0,0,1,3.777,3.777" transform="translate(-14.127 -4.569)" fill="none" stroke="#fff" stroke-linecap="round" stroke-linejoin="round" stroke-width="1"/>
      <path id="패스_1020" data-name="패스 1020" d="M30.287,7.179A5.679,5.679,0,0,0,24.608,1.5" transform="translate(-14.88 -0.907)" fill="none" stroke="#fff" stroke-linecap="round" stroke-linejoin="round" stroke-width="1"/>
      <path id="패스_1021" data-name="패스 1021" d="M27.14,11.333a3.778,3.778,0,0,0-3.777-3.777" transform="translate(-14.127 -4.569)" fill="none" stroke="#fff" stroke-linecap="round" stroke-linejoin="round" stroke-width="1"/>
    </g>
  </g>
</svg>
