<svg xmlns="http://www.w3.org/2000/svg" xmlns:xlink="http://www.w3.org/1999/xlink" width="24" height="24" viewBox="0 0 24 24">
  <defs>
    <clipPath id="clip-path">
      <rect id="mask" width="24" height="24" transform="translate(-2.5 -2)" fill="none"/>
    </clipPath>
  </defs>
  <g id="ico_accounts" transform="translate(2.5 2)" clip-path="url(#clip-path)">
    <g id="img" transform="translate(0)">
      <path id="pass3" d="M10.758,3.478A3.478,3.478,0,1,1,7.279,0a3.478,3.478,0,0,1,3.478,3.478" transform="translate(-0.496 0)" fill="#121212"/>
      <path id="pass2" d="M.042,15.235a6.965,6.965,0,0,1,9.31-4.746,3.477,3.477,0,0,0-1.7,2.99v3.478H1.566A1.448,1.448,0,0,1,.042,15.235" transform="translate(0 -1.304)" fill="#121212"/>
      <path id="pass1" d="M12.41,11A2.609,2.609,0,0,0,9.8,13.609v5.217a2.609,2.609,0,0,0,2.609,2.609h5.217a2.609,2.609,0,0,0,2.609-2.609V13.609A2.609,2.609,0,0,0,17.627,11Zm1.61,1.937a2.608,2.608,0,0,1,2.843.565.869.869,0,1,1-1.23,1.23.869.869,0,0,0-1.484.616v.87h3.478a.869.869,0,0,1,.87.87v1.739a.87.87,0,0,1-.87.87H12.41a.87.87,0,0,1-.87-.87V17.087a.869.869,0,0,1,.87-.87v-.87a2.61,2.61,0,0,1,1.61-2.41" transform="translate(-1.278 -1.435)" fill="#121212" fill-rule="evenodd"/>
    </g>
  </g>
</svg>
