<svg xmlns="http://www.w3.org/2000/svg" xmlns:xlink="http://www.w3.org/1999/xlink" width="18" height="18" viewBox="0 0 18 18">
  <defs>
    <clipPath id="clip-path">
      <rect id="사각형_15546" data-name="사각형 15546" width="18" height="18" fill="#fff"/>
    </clipPath>
  </defs>
  <g id="ico_os" clip-path="url(#clip-path)">
    <g id="_" data-name="ㄴㄴ" transform="translate(0.491 0.491)">
      <circle id="타원_90" data-name="타원 90" cx="8.509" cy="8.509" r="8.509" fill="none" stroke="#fff" stroke-miterlimit="10" stroke-width="1"/>
      <path id="Path" d="M32.221,29.18l1.663.286a.353.353,0,0,1,.269.458,6.2,6.2,0,0,1-3.912,3.915.349.349,0,0,1-.458-.265l-.293-1.663" transform="translate(-19.593 -19.39)" fill="none" stroke="#fff" stroke-linecap="round" stroke-miterlimit="10" stroke-width="1"/>
      <path id="Path-2" data-name="Path" d="M9.778,12.213l-1.663-.286a.351.351,0,0,1-.269-.458,6.2,6.2,0,0,1,3.912-3.915.349.349,0,0,1,.458.265l.293,1.663" transform="translate(-5.391 -5.198)" fill="none" stroke="#fff" stroke-linecap="round" stroke-miterlimit="10" stroke-width="1"/>
      <g id="_023---OS-Solutions" data-name="023---OS-Solutions" transform="translate(5.765 6.347)">
        <path id="Path-3" data-name="Path" d="M28.9,22.107A1.207,1.207,0,0,0,27.7,20.9a.517.517,0,1,1,0-1.033h.517a.344.344,0,1,0,0-.689H27.7a1.205,1.205,0,1,0,0,2.411.517.517,0,0,1,0,1.033h-.861a.344.344,0,1,0,0,.689H27.7A1.207,1.207,0,0,0,28.9,22.107Z" transform="translate(-23.391 -19.18)" fill="#fff"/>
        <path id="Shape" d="M18.7,19.18a1.207,1.207,0,0,0-1.205,1.205v1.722a1.205,1.205,0,0,0,2.411,0V20.385A1.207,1.207,0,0,0,18.7,19.18Zm.517,2.927a.517.517,0,1,1-1.033,0V20.385a.517.517,0,1,1,1.033,0Z" transform="translate(-17.49 -19.18)" fill="#fff"/>
      </g>
    </g>
  </g>
</svg>
