<svg xmlns="http://www.w3.org/2000/svg" width="24" height="24"><defs><clipPath id="a"><path fill="#fff" stroke="#707070" d="M291 284h24v24h-24z" data-name="사각형 15386"/></clipPath><clipPath id="b"><path fill="none" d="M0 0h22.424v20H0z" data-name="사각형 15385"/></clipPath></defs><g clip-path="url(#a)" transform="translate(-291 -284)"><g clip-path="url(#b)" data-name="그룹 577" transform="translate(292 286)"><path fill="#31c684" fill-rule="evenodd" d="M14.037 0h7.255a1.134 1.134 0 0 1 1.132 1.132V5h-8.387Z" data-name="패스 351"/><path fill="#21a664" d="M14.037 5h8.387v5h-8.387z" data-name="사각형 15381"/><path fill="#0e7941" d="M14.037 10h8.387v5h-8.387z" data-name="사각형 15382"/><path fill="#21a262" fill-rule="evenodd" d="M6.39 0h7.647v5H5.258V1.132A1.133 1.133 0 0 1 6.39 0" data-name="패스 352"/><path fill="#107941" d="M5.258 5h8.779v5H5.258z" data-name="사각형 15383"/><path fill="#105d31" d="M5.258 10h8.779v5H5.258z" data-name="사각형 15384"/><path fill="#105d2f" fill-rule="evenodd" d="M14.037 20H6.39a1.132 1.132 0 0 1-1.132-1.123V15h17.166v3.877A1.132 1.132 0 0 1 21.292 20Z" data-name="패스 353"/><path fill="#10864a" fill-rule="evenodd" d="M1.132 4.198h9.127A1.133 1.133 0 0 1 11.39 5.33v9.251a1.133 1.133 0 0 1-1.132 1.132H1.132A1.133 1.133 0 0 1 0 14.581V5.33a1.133 1.133 0 0 1 1.132-1.132" data-name="패스 354"/><path fill="#fff" fill-rule="evenodd" d="M3.066 6.908h1.328L5.686 8.94l1.292-2.032h1.319L6.349 9.975l1.952 3.066H6.979l-1.292-2.032-1.292 2.032H3.066l1.961-3.066Z" data-name="패스 355"/></g></g></svg>