<svg xmlns="http://www.w3.org/2000/svg" xmlns:xlink="http://www.w3.org/1999/xlink" width="24" height="24" viewBox="0 0 24 24">
  <defs>
    <clipPath id="clip-path">
      <rect id="mask" width="24" height="24" fill="#27ad98"/>
    </clipPath>
  </defs>
  <g id="icon_refresh" clip-path="url(#clip-path)">
    <path id="pass" d="M12,0A12,12,0,1,0,24,12,12,12,0,0,0,12,0m.05,18.789c-.062,0-.126,0-.189,0a6.8,6.8,0,0,1-6.612-6.551L4.21,13.281l-.709-.7,2.236-2.251,2.235,2.251-.709.7-1-1.005A5.794,5.794,0,0,0,16.04,16.2l.688.727a6.768,6.768,0,0,1-4.678,1.864m6.214-5.2-2.235-2.25.709-.705,1.093,1.1A5.788,5.788,0,0,0,7.968,7.844l-.7-.712a6.767,6.767,0,0,1,4.78-1.961h.048a6.793,6.793,0,0,1,6.743,6.421l.954-.96.709.7Z" fill="#27ad98"/>
  </g>
</svg>
