<svg xmlns="http://www.w3.org/2000/svg" width="35" height="35"><defs><clipPath id="a"><path fill="none" stroke="#999" stroke-width="2" d="M.248.157h35v35h-35z"/></clipPath></defs><g clip-path="url(#a)" transform="translate(-.248 -.157)"><path fill="none" stroke="#999" stroke-linecap="round" stroke-linejoin="round" stroke-width="2" d="M14.913 1.658a7.055 7.055 0 0 0-4.327 1.793l-7.044 7.044a7.04 7.04 0 0 0-1.794 4.327v15.99a2.542 2.542 0 0 0 2.535 2.536h27.079a2.542 2.542 0 0 0 2.536-2.535V4.194a2.542 2.542 0 0 0-2.536-2.536Z"/><path fill="none" stroke="#999" stroke-linecap="round" stroke-linejoin="round" stroke-width="2" d="M9.844 12.287a2.542 2.542 0 0 0 2.534-2.534v-5.56c0-1.395-.807-1.728-1.792-.743l-7.044 7.044c-.988.986-.651 1.793.743 1.793ZM6.59 26.691h1.187M11.34 26.691h5.937M6.59 19.721h1.187M11.34 19.721h5.937"/><text fill="#999" data-name="!" font-family="S-CoreDream-7ExtraBold, S-Core Dream" font-size="14" font-weight="800" transform="translate(23.871 26.773)"><tspan x="0" y="0">!</tspan></text></g></svg>