<svg xmlns="http://www.w3.org/2000/svg" xmlns:xlink="http://www.w3.org/1999/xlink" width="386.651" height="62" viewBox="0 0 386.651 62">
  <defs>
    <clipPath id="clip-path">
      <rect id="사각형_15834" data-name="사각형 15834" width="386.651" height="62" transform="translate(0 34)" fill="none"/>
    </clipPath>
    <clipPath id="clip-path-2">
      <path id="패스_1089" data-name="패스 1089" d="M24.867,39.429c-.026.01-2.588,1.055-6.223,2.087-1.221.346-2.656.717-4.213,1.048a43.506,43.506,0,0,1-9.07.952q-1.233,0-2.468-.069H2.872a.353.353,0,0,0-.267.123.412.412,0,0,0-.1.283c.024.8-.027,4.193-.053,5.9-.012.793-.021,1.366-.02,1.486,0,.393,0,.784,0,1.176A58.157,58.157,0,0,0,3.2,63.494,36.2,36.2,0,0,0,12.7,82.014a38.394,38.394,0,0,0,5.7,4.738,43.479,43.479,0,0,0,6.457,3.625.223.223,0,0,0,.086.019.216.216,0,0,0,.087-.019,43.479,43.479,0,0,0,6.457-3.625,38.284,38.284,0,0,0,5.7-4.738,36.205,36.205,0,0,0,9.508-18.52,57.992,57.992,0,0,0,.762-11.078c0-.392,0-.783.007-1.176,0-.12-.009-.694-.02-1.488-.025-1.6-.071-4.669-.058-5.713a.543.543,0,0,0-.085-.3.549.549,0,0,0-.468-.26l-.054,0c-.805.08-1.658.122-2.543.122a50.233,50.233,0,0,1-12.981-2.086,65.614,65.614,0,0,1-6.228-2.088.222.222,0,0,0-.08-.015.212.212,0,0,0-.078.015" fill="none"/>
    </clipPath>
    <clipPath id="clip-path-3">
      <path id="패스_1094" data-name="패스 1094" d="M23.365,52.892a4.428,4.428,0,0,0-4.424,4.424V79.84a2.4,2.4,0,0,1-2.4,2.4H16.4a2.4,2.4,0,0,1-2.4-2.4V70.368a4.43,4.43,0,0,0-4.425-4.424H9.428a4.43,4.43,0,0,0-4.4,3.955A36.922,36.922,0,0,0,6.84,73.93a2.865,2.865,0,0,0,.188-1.021V70.368a2.4,2.4,0,0,1,2.4-2.4h.144a2.4,2.4,0,0,1,2.4,2.4V79.84a4.389,4.389,0,0,0,.393,1.823c.112.118.226.235.34.351q.989,1,2.071,1.944a4.408,4.408,0,0,0,1.62.307h.145a4.43,4.43,0,0,0,4.424-4.425V57.316a2.4,2.4,0,0,1,2.4-2.4h.144a2.4,2.4,0,0,1,2.4,2.4V79.84a4.43,4.43,0,0,0,4.425,4.425h.144A4.431,4.431,0,0,0,34.9,79.84v-15.1a2.4,2.4,0,0,1,2.4-2.4h.144a2.4,2.4,0,0,1,2.4,2.4v8.168A2.868,2.868,0,0,0,42.059,75.7q.572-.954,1.087-1.951H42.71a.839.839,0,0,1-.839-.838V64.741a4.43,4.43,0,0,0-4.425-4.424H37.3a4.429,4.429,0,0,0-4.424,4.424v15.1a2.4,2.4,0,0,1-2.4,2.4h-.144a2.4,2.4,0,0,1-2.4-2.4V57.316a4.429,4.429,0,0,0-4.425-4.424Z" fill="none"/>
    </clipPath>
    <clipPath id="clip-path-4">
      <path id="패스_1093" data-name="패스 1093" d="M26.8,48.025a3.43,3.43,0,1,1-3.43-3.43,3.43,3.43,0,0,1,3.43,3.43" fill="none"/>
    </clipPath>
    <clipPath id="clip-path-5">
      <path id="패스_1092" data-name="패스 1092" d="M40.876,55.45a3.43,3.43,0,1,1-3.429-3.43,3.429,3.429,0,0,1,3.429,3.43" fill="none"/>
    </clipPath>
    <clipPath id="clip-path-6">
      <path id="패스_1091" data-name="패스 1091" d="M12.857,61.076a3.43,3.43,0,1,1-3.429-3.43,3.43,3.43,0,0,1,3.429,3.43" fill="none"/>
    </clipPath>
  </defs>
  <g id="logo_for" transform="translate(0 -34)">
    <g id="그룹_1187" data-name="그룹 1187">
      <g id="logo_for-2" data-name="logo_for" clip-path="url(#clip-path)">
        <path id="패스_1067" data-name="패스 1067" d="M83.642,55.436c-3.279-.04-5.248,1.559-5.248,3.772-.041,2.419,2.543,3.445,4.92,4.019l2.707.655c4.346,1.026,8.527,3.322,8.527,8.365,0,5.084-4.017,8.569-10.988,8.528-6.723.041-10.988-3.2-11.234-8.939h5.166c.205,3.035,2.748,4.511,6.068,4.511,3.4,0,5.781-1.681,5.74-4.182.041-2.255-2.049-3.2-5.166-4.018l-3.279-.82c-4.8-1.272-7.75-3.65-7.791-7.79.041-5.166,4.592-8.57,10.66-8.529,6.15-.041,10.332,3.445,10.414,8.365h-5c-.246-2.542-2.336-3.977-5.494-3.937" fill="#403f41"/>
        <path id="패스_1068" data-name="패스 1068" d="M111.441,55.682c-4.674-.041-8.078,3.608-8.037,10.169-.041,6.56,3.322,10.209,8.2,10.25,4.387-.041,7.133-2.665,7.215-6.807H112.1v-4.1h11.725v3.443c.041,7.5-5.084,12.137-12.3,12.137-7.955,0-13.367-5.7-13.367-14.924,0-9.267,5.658-14.884,13.2-14.843,6.437-.041,11.357,3.937,12.3,9.6h-5.33a6.748,6.748,0,0,0-6.889-4.921" fill="#403f41"/>
        <path id="패스_1069" data-name="패스 1069" d="M152.359,80.365h-4.592L133.99,60.6h-.246V80.365h-5.166V51.337h4.674L146.947,71.18h.246V51.337h5.166Z" fill="#403f41"/>
        <path id="패스_1070" data-name="패스 1070" d="M159.87,51.342v6.733h11.4l5.559-6.733Z" fill="#403f41"/>
        <path id="패스_1071" data-name="패스 1071" d="M178.346,51.342h6.9v6.1L166.467,80.36h-6.6V74.615Z" fill="#403f41"/>
        <path id="패스_1072" data-name="패스 1072" d="M168.112,80.36h17.383V73.948H173.787Z" fill="#403f41"/>
        <rect id="사각형_15832" data-name="사각형 15832" width="26.132" height="6.356" transform="translate(187.578 51.342)" fill="#403f41"/>
        <rect id="사각형_15833" data-name="사각형 15833" width="10.518" height="21.425" transform="translate(195.16 58.935)" fill="#403f41"/>
        <path id="패스_1073" data-name="패스 1073" d="M210.374,80.36h9.478l5.519-15.594-4.746-12.475L210.374,80.252" fill="#403f41"/>
        <path id="패스_1074" data-name="패스 1074" d="M242.945,80.36,231.731,51.342h-9.672l7.519,19.987h-5.031L222.7,77.268h9.109l1.163,3.092Z" fill="#403f41"/>
        <path id="패스_1075" data-name="패스 1075" d="M256.648,70.291h-2.736V81.044h-2.5V70.291h-1.969V68.323h1.969V66.835c0-2.257,1.439-3.553,3.792-3.553a11.108,11.108,0,0,1,1.679.145v2.112a4.551,4.551,0,0,0-1.055-.1c-1.3,0-1.92.529-1.92,1.777v1.1h2.736Z"/>
        <path id="패스_1076" data-name="패스 1076" d="M257.871,74.755c0-3.984,2.352-6.6,5.953-6.625,3.576.025,5.928,2.641,5.952,6.625-.024,3.912-2.376,6.552-5.952,6.528-3.6.024-5.953-2.616-5.953-6.528m5.953,4.464c2.3,0,3.408-2.064,3.408-4.464,0-2.448-1.1-4.537-3.408-4.513-2.329-.024-3.433,2.065-3.457,4.513.024,2.4,1.128,4.464,3.457,4.464"/>
        <path id="패스_1077" data-name="패스 1077" d="M272.224,68.323h2.4v2.016h.144a3.3,3.3,0,0,1,3.216-2.208c.312,0,.815.024,1.056.047v2.4a4.168,4.168,0,0,0-1.3-.145,2.843,2.843,0,0,0-3.025,2.833v7.777h-2.5Z"/>
        <path id="패스_1078" data-name="패스 1078" d="M300.214,50.674h-7.39l-1.4,7.926,7.906-2.923Z" fill="#2da692"/>
        <path id="패스_1079" data-name="패스 1079" d="M287.7,79.727h7.39l3.781-21.441-8.13,4.2Z" fill="#2da692"/>
        <path id="패스_1080" data-name="패스 1080" d="M322.534,61.089a5.037,5.037,0,0,0-5.3-4.863c-4.8,0-8.178,4.7-8.178,11.273,0,4.1,2.09,6.611,5.506,6.611a15.321,15.321,0,0,0,11.415-4.883h2.268C327.116,75.8,321.449,80.2,314.094,80.2c-7.655,0-12.618-4.822-12.618-12.277,0-10.63,6.51-17.723,16.456-17.723,6.833,0,11.756,4.34,11.856,10.509a7.941,7.941,0,0,1-.08,1.125h-7.174a3.932,3.932,0,0,0,0-.743" fill="#2da692"/>
        <path id="패스_1081" data-name="패스 1081" d="M340.674,69.776c-1.384.414-2.835.892-4.34,1.446-1.757.647-3.393,1.327-4.9,2.011l-4.718,2.5-6.129,3.16,15.711-28.2h9.023l3.336,29h-7.5Zm-6.791-1.755h6.49l-.8-10.851h-.161Z" fill="#2da692"/>
        <path id="패스_1082" data-name="패스 1082" d="M348.653,79.7l6.149-29h8.479l2.995,19.653h.14L377.467,50.7h9.184l-6.169,29h-6.571l4.14-19.27h-.221L366.8,79.655h-4.461l-2.894-19.23h-.161L355.2,79.7Z" fill="#2da692"/>
        <path id="패스_1083" data-name="패스 1083" d="M48.032,50.881c0-.126-.008-.724-.021-1.551-.025-1.665-.074-4.864-.059-5.952a.581.581,0,0,0-.089-.314.575.575,0,0,0-.488-.271.548.548,0,0,0-.058,0c-.84.084-1.731.127-2.655.127A52.641,52.641,0,0,1,31.1,40.751c-3.8-1.076-6.478-2.165-6.505-2.176a.218.218,0,0,0-.164,0,68.405,68.405,0,0,1-6.5,2.174c-1.275.361-2.774.747-4.4,1.093a45.645,45.645,0,0,1-9.472.991q-1.29,0-2.579-.072H1.462a.369.369,0,0,0-.28.127.431.431,0,0,0-.105.295c.025.833-.029,4.369-.056,6.15C1.008,50.159,1,50.755,1,50.881q0,.614.006,1.224a60.346,60.346,0,0,0,.8,11.543,37.7,37.7,0,0,0,9.929,19.3,40.073,40.073,0,0,0,5.95,4.937,45.565,45.565,0,0,0,6.744,3.777.217.217,0,0,0,.09.019.214.214,0,0,0,.09-.019,45.565,45.565,0,0,0,6.744-3.777,40.072,40.072,0,0,0,5.95-4.937,37.688,37.688,0,0,0,9.929-19.3,60.265,60.265,0,0,0,.8-11.543c0-.407,0-.815.006-1.224" fill="#2da692"/>
        <path id="패스_1084" data-name="패스 1084" d="M24.516,92.678a1.23,1.23,0,0,1-.5-.107,46.49,46.49,0,0,1-6.9-3.863,41.023,41.023,0,0,1-6.1-5.061,38.687,38.687,0,0,1-10.2-19.8A60.986,60.986,0,0,1,.006,52.118L0,50.885c0-.124.008-.73.02-1.568.025-1.58.082-5.281.056-6.1a1.425,1.425,0,0,1,.353-.984,1.371,1.371,0,0,1,1.033-.469c.919.049,1.767.073,2.6.073a44.66,44.66,0,0,0,9.264-.97c1.417-.3,2.875-.663,4.335-1.077,3.732-1.056,6.367-2.127,6.394-2.137l.181-.074.28-.017a1.207,1.207,0,0,1,.459.09c.028.011,2.667,1.083,6.4,2.14a51.6,51.6,0,0,0,13.285,2.134c.89,0,1.75-.041,2.556-.121l.157-.008a1.577,1.577,0,0,1,1.577,1.593c-.014,1.076.033,4.226.06,5.918.012.844.021,1.449.02,1.582l-.006,1.224a61.025,61.025,0,0,1-.816,11.733,38.681,38.681,0,0,1-10.2,19.8,41.071,41.071,0,0,1-6.1,5.061,46.444,46.444,0,0,1-6.892,3.86l-.2.09ZM2.083,43.791c0,1.178-.03,3.42-.062,5.557-.013.813-.022,1.4-.021,1.525L2.006,52.1a59.583,59.583,0,0,0,.777,11.353,36.7,36.7,0,0,0,9.661,18.789,39,39,0,0,0,5.8,4.812A44.276,44.276,0,0,0,24.516,90.6a44.347,44.347,0,0,0,6.271-3.545,39.043,39.043,0,0,0,5.8-4.812,36.705,36.705,0,0,0,9.659-18.789,59.54,59.54,0,0,0,.777-11.344l.006-1.236c0-.124-.008-.713-.02-1.528-.023-1.511-.064-4.156-.063-5.512-.716.059-1.491.089-2.287.089a53.619,53.619,0,0,1-13.83-2.21c-3.106-.879-5.5-1.779-6.314-2.1-.8.313-3.162,1.2-6.311,2.094-1.5.425-3,.8-4.464,1.108a46.57,46.57,0,0,1-11.659.972" fill="#309687"/>
      </g>
    </g>
    <g id="그룹_1189" data-name="그룹 1189">
      <g id="그룹_1188" data-name="그룹 1188" clip-path="url(#clip-path-2)">
        <path id="패스_1085" data-name="패스 1085" d="M30.478,84.265h-.144a4.43,4.43,0,0,1-4.425-4.424V57.316a2.4,2.4,0,0,0-2.4-2.4h-.144a2.4,2.4,0,0,0-2.4,2.4V79.841a4.43,4.43,0,0,1-4.424,4.424H16.4a4.43,4.43,0,0,1-4.424-4.424V70.368a2.4,2.4,0,0,0-2.4-2.4H9.428a2.4,2.4,0,0,0-2.4,2.4v2.541a2.866,2.866,0,0,1-2.863,2.863H1.442a1.013,1.013,0,0,1,0-2.025H4.165A.839.839,0,0,0,5,72.909V70.368a4.43,4.43,0,0,1,4.425-4.425h.144A4.43,4.43,0,0,1,14,70.368v9.473a2.4,2.4,0,0,0,2.4,2.4h.145a2.4,2.4,0,0,0,2.4-2.4V57.316a4.43,4.43,0,0,1,4.425-4.424h.144a4.43,4.43,0,0,1,4.425,4.424V79.841a2.4,2.4,0,0,0,2.4,2.4h.144a2.4,2.4,0,0,0,2.4-2.4v-15.1A4.429,4.429,0,0,1,37.3,60.317h.145a4.43,4.43,0,0,1,4.424,4.424v8.168a.839.839,0,0,0,.839.838h3.157a1.013,1.013,0,1,1,0,2.025H42.71a2.867,2.867,0,0,1-2.864-2.863V64.741a2.4,2.4,0,0,0-2.4-2.4H37.3a2.4,2.4,0,0,0-2.4,2.4v15.1a4.43,4.43,0,0,1-4.425,4.424" fill="#fff"/>
        <path id="패스_1086" data-name="패스 1086" d="M26.8,48.025a3.43,3.43,0,1,1-3.43-3.43,3.43,3.43,0,0,1,3.43,3.43" fill="#fff"/>
        <path id="패스_1087" data-name="패스 1087" d="M40.876,55.45a3.43,3.43,0,1,1-3.43-3.43,3.43,3.43,0,0,1,3.43,3.43" fill="#fff"/>
        <path id="패스_1088" data-name="패스 1088" d="M12.857,61.076a3.43,3.43,0,1,1-3.43-3.43,3.43,3.43,0,0,1,3.43,3.43" fill="#fff"/>
      </g>
    </g>
    <g id="그룹_1197" data-name="그룹 1197">
      <g id="그룹_1196" data-name="그룹 1196" clip-path="url(#clip-path-3)">
        <g id="그룹_1195" data-name="그룹 1195">
          <g id="그룹_1194" data-name="그룹 1194" clip-path="url(#clip-path-4)">
            <g id="그룹_1193" data-name="그룹 1193">
              <g id="그룹_1192" data-name="그룹 1192" clip-path="url(#clip-path-5)">
                <g id="그룹_1191" data-name="그룹 1191">
                  <g id="그룹_1190" data-name="그룹 1190" clip-path="url(#clip-path-6)">
                    <path id="패스_1090" data-name="패스 1090" d="M118.6,12.322c0-.126-.008-.724-.021-1.551-.025-1.665-.074-4.864-.059-5.952a.581.581,0,0,0-.089-.314.575.575,0,0,0-.488-.271.549.549,0,0,0-.058,0c-.84.084-1.731.127-2.655.127a52.641,52.641,0,0,1-13.559-2.172C97.877,1.116,95.2.027,95.17.016a.218.218,0,0,0-.164,0,68.4,68.4,0,0,1-6.5,2.174c-1.275.361-2.774.747-4.4,1.093a45.645,45.645,0,0,1-9.472.991q-1.29,0-2.579-.072h-.021a.373.373,0,0,0-.28.128.431.431,0,0,0-.1.3c.025.833-.029,4.369-.056,6.15-.013.826-.022,1.422-.021,1.548q0,.614.006,1.224a60.346,60.346,0,0,0,.8,11.543,37.7,37.7,0,0,0,9.929,19.3,40.073,40.073,0,0,0,5.95,4.937A45.565,45.565,0,0,0,95,53.1a.217.217,0,0,0,.09.019.214.214,0,0,0,.09-.019,45.565,45.565,0,0,0,6.744-3.777,40.073,40.073,0,0,0,5.95-4.937,37.688,37.688,0,0,0,9.929-19.3,60.265,60.265,0,0,0,.8-11.543c0-.407,0-.815.006-1.224" fill="#2da692"/>
                  </g>
                </g>
              </g>
            </g>
          </g>
        </g>
      </g>
    </g>
  </g>
</svg>
