<svg xmlns="http://www.w3.org/2000/svg" xmlns:xlink="http://www.w3.org/1999/xlink" width="24" height="264" viewBox="0 0 24 264">
  <defs>
    <clipPath id="clip-path">
      <rect id="사각형_15821" data-name="사각형 15821" width="24" height="24" transform="translate(0.5 192)" fill="#fff" stroke="#707070" stroke-width="1"/>
    </clipPath>
    <clipPath id="clip-path-2">
      <rect id="사각형_15812" data-name="사각형 15812" width="24" height="24" transform="translate(0.5)" fill="#fff" stroke="#707070" stroke-width="1"/>
    </clipPath>
    <clipPath id="clip-path-3">
      <rect id="사각형_15817" data-name="사각형 15817" width="24" height="24" transform="translate(0.5 24)" fill="#fff" stroke="#707070" stroke-width="1"/>
    </clipPath>
    <clipPath id="clip-path-4">
      <rect id="사각형_15813" data-name="사각형 15813" width="24" height="24" transform="translate(0.5 48)" fill="#fff" stroke="#707070" stroke-width="1"/>
    </clipPath>
    <clipPath id="clip-path-5">
      <rect id="사각형_15814" data-name="사각형 15814" width="24" height="24" transform="translate(0.5 167)" fill="#fff" stroke="#707070" stroke-width="1"/>
    </clipPath>
    <clipPath id="clip-path-6">
      <rect id="사각형_15818" data-name="사각형 15818" width="24" height="24" transform="translate(0.5 72)" fill="#fff" stroke="#707070" stroke-width="1"/>
    </clipPath>
    <clipPath id="clip-path-7">
      <rect id="사각형_15822" data-name="사각형 15822" width="24" height="24" transform="translate(0.5 216)" fill="#fff" stroke="#707070" stroke-width="1"/>
    </clipPath>
    <clipPath id="clip-path-8">
      <rect id="사각형_15816" data-name="사각형 15816" width="24" height="24" transform="translate(0.5 240)" fill="#fff" stroke="#707070" stroke-width="1"/>
    </clipPath>
    <clipPath id="clip-path-9">
      <rect id="사각형_15819" data-name="사각형 15819" width="24" height="24" transform="translate(0.5 144)" fill="#fff" stroke="#707070" stroke-width="1"/>
    </clipPath>
    <clipPath id="clip-path-10">
      <rect id="사각형_15820" data-name="사각형 15820" width="24" height="24" transform="translate(0.5 120)" fill="#fff" stroke="#707070" stroke-width="1"/>
    </clipPath>
    <clipPath id="clip-path-11">
      <rect id="사각형_15815" data-name="사각형 15815" width="24" height="24" transform="translate(0.5 96)" fill="#fff" stroke="#707070" stroke-width="1"/>
    </clipPath>
  </defs>
  <g id="wfd_icon_tasks" transform="translate(-0.5 2)">
    <g id="마스크_그룹_35" data-name="마스크 그룹 35" transform="translate(0 -2)" clip-path="url(#clip-path)">
      <path id="패스_693" data-name="패스 693" d="M16,199H8a2.006,2.006,0,0,0-2,2v6a2.006,2.006,0,0,0,2,2h8a2.006,2.006,0,0,0,2-2v-6A2.006,2.006,0,0,0,16,199Zm-.11,2.85-1.91,1.91-.71.71-.91.91a.5.5,0,0,1-.71,0l-.91-.91-.71-.71-1.91-1.91a.5.5,0,0,1,.71-.71l1.91,1.91.71.71.56.56.56-.56.71-.71,1.91-1.91a.5.5,0,0,1,.71,0A.524.524,0,0,1,15.89,201.85Z" transform="translate(0.5)" fill="#454545"/>
    </g>
    <g id="마스크_그룹_27" data-name="마스크 그룹 27" transform="translate(0 -2)" clip-path="url(#clip-path-2)">
      <g id="그룹_1000" data-name="그룹 1000" transform="translate(0.504)">
        <path id="패스_694" data-name="패스 694" d="M12.05,11.54A2.916,2.916,0,0,1,9.27,8.52,2.91,2.91,0,0,1,12.05,5.5a2.916,2.916,0,0,1,2.78,3.02A2.91,2.91,0,0,1,12.05,11.54Z" fill="#454545"/>
        <path id="패스_695" data-name="패스 695" d="M16.23,18.5H7.77a.578.578,0,0,1-.58-.52L7,15.33a2.663,2.663,0,0,1,1.7-2.46,10.029,10.029,0,0,1,6.58,0,2.657,2.657,0,0,1,1.71,2.46l-.18,2.65A.571.571,0,0,1,16.23,18.5Z" fill="#454545"/>
      </g>
    </g>
    <g id="마스크_그룹_28" data-name="마스크 그룹 28" transform="translate(0 -2)" clip-path="url(#clip-path-3)">
      <g id="그룹_1001" data-name="그룹 1001" transform="translate(0.5)">
        <path id="패스_696" data-name="패스 696" d="M6.5,41.8a.5.5,0,0,1-.5-.5V31.37A2.369,2.369,0,0,1,8.37,29H15.9a.5.5,0,1,1,0,1H8.37A1.379,1.379,0,0,0,7,31.37V41.3A.5.5,0,0,1,6.5,41.8Z" fill="#454545"/>
        <path id="패스_697" data-name="패스 697" d="M17,31H9a1,1,0,0,0-1,1V42a1,1,0,0,0,1,1h8a1,1,0,0,0,1-1V32A1,1,0,0,0,17,31Zm-6.5,2h3a.5.5,0,0,1,0,1h-3a.5.5,0,0,1,0-1Zm5,7h-5a.5.5,0,0,1,0-1h5a.5.5,0,0,1,0,1Zm0-3h-5a.5.5,0,0,1,0-1h5a.5.5,0,0,1,0,1Z" fill="#454545"/>
      </g>
    </g>
    <g id="마스크_그룹_29" data-name="마스크 그룹 29" transform="translate(0 -2)" clip-path="url(#clip-path-4)">
      <g id="그룹_1002" data-name="그룹 1002" transform="translate(-0.5)">
        <path id="패스_698" data-name="패스 698" d="M6.5,65.8a.5.5,0,0,1-.5-.5V55.37A2.369,2.369,0,0,1,8.37,53H15.9a.5.5,0,1,1,0,1H8.37A1.379,1.379,0,0,0,7,55.37V65.3A.5.5,0,0,1,6.5,65.8Z" fill="#454545"/>
        <path id="패스_699" data-name="패스 699" d="M18,60.1V56a1,1,0,0,0-1-1H9a1,1,0,0,0-1,1V66a1,1,0,0,0,1,1h3.93a14.18,14.18,0,0,1-.11-2.52c0-.16.01-.32.02-.48H10.5a.5.5,0,0,1,0-1h2.43c.01-.1.02-.2.04-.3a3.691,3.691,0,0,1,.62-1.63.462.462,0,0,1,.07-.07H10.5a.5.5,0,0,1,0-1h5a.526.526,0,0,1,.32.12ZM10.5,57h3a.5.5,0,0,1,0,1h-3a.5.5,0,0,1,0-1Z" fill="#454545"/>
        <path id="패스_700" data-name="패스 700" d="M14.337,65.53h4.6V62.46h-4.6Z" fill="#454545"/>
        <path id="패스_701" data-name="패스 701" d="M20.47,64,17.4,67.07V60.93Z" fill="#454545"/>
      </g>
    </g>
    <g id="마스크_그룹_31" data-name="마스크 그룹 31" transform="translate(0 -1)" clip-path="url(#clip-path-5)">
      <g id="그룹_1007" data-name="그룹 1007" transform="translate(0.5)">
        <path id="패스_702" data-name="패스 702" d="M6.55,175.5H9.11l1.57,7.88H8.66l-.18-1.4H7.13l-.2,1.4H5Zm.78,5.08h.96l-.45-3.85H7.82Z" fill="#454545"/>
        <path id="패스_703" data-name="패스 703" d="M11.18,175.5h2.06a8.712,8.712,0,0,1,1.39.09,2.144,2.144,0,0,1,.9.34,1.422,1.422,0,0,1,.52.73,3.858,3.858,0,0,1,.17,1.24,4.907,4.907,0,0,1-.08.89,2.3,2.3,0,0,1-.3.74,1.477,1.477,0,0,1-.62.53,2.361,2.361,0,0,1-1.03.2H13.1v3.12H11.17V175.5Zm1.93,3.35h.48c.29,0,.49-.07.58-.22a1.555,1.555,0,0,0,.14-.78c0-.44-.07-.71-.2-.81a1.393,1.393,0,0,0-.77-.15h-.22v1.96Z" fill="#454545"/>
        <path id="패스_704" data-name="패스 704" d="M17.07,175.5H19v7.88H17.07Z" fill="#454545"/>
      </g>
    </g>
    <g id="마스크_그룹_30" data-name="마스크 그룹 30" transform="translate(0 -2)" clip-path="url(#clip-path-6)">
      <g id="그룹_1003" data-name="그룹 1003" transform="translate(0.5)">
        <path id="패스_709" data-name="패스 709" d="M12,82.65c-2.76,0-5-.75-5-1.67v1.67c0,.92,2.24,1.67,5,1.67s5-.75,5-1.67V80.98C17,81.91,14.76,82.65,12,82.65Z" fill="#454545"/>
        <path id="패스_710" data-name="패스 710" d="M12,85.35c-2.76,0-5-.75-5-1.67v1.67c0,.92,2.24,1.67,5,1.67s5-.75,5-1.67V83.68C17,84.6,14.76,85.35,12,85.35Z" fill="#454545"/>
        <path id="패스_711" data-name="패스 711" d="M12,88.04c-2.76,0-5-.75-5-1.67v1.67c0,.92,2.24,1.67,5,1.67s5-.75,5-1.67V86.37C17,87.29,14.76,88.04,12,88.04Z" fill="#454545"/>
        <path id="패스_712" data-name="패스 712" d="M12,81.63c2.761,0,5-.748,5-1.67s-2.239-1.67-5-1.67-5,.748-5,1.67S9.239,81.63,12,81.63Z" fill="#454545"/>
      </g>
    </g>
    <g id="마스크_그룹_36" data-name="마스크 그룹 36" transform="translate(0 -2)" clip-path="url(#clip-path-7)">
      <g id="그룹_1006" data-name="그룹 1006" transform="translate(0.5)">
        <path id="패스_713" data-name="패스 713" d="M8.42,233.44c-.15,0-.29-.01-.44-.02a.517.517,0,0,1-.19-.98,3.121,3.121,0,0,0,1.12-.9A4.739,4.739,0,0,1,6,227.4c0-2.67,2.69-4.84,6-4.84s6,2.17,6,4.84-2.69,4.84-6,4.84a1.693,1.693,0,0,1-.23-.01A4.9,4.9,0,0,1,8.42,233.44Z" fill="#454545"/>
        <path id="패스_714" data-name="패스 714" d="M9.5,228a.5.5,0,1,0-.5-.5A.5.5,0,0,0,9.5,228Z" fill="#454545"/>
        <path id="패스_715" data-name="패스 715" d="M12,228a.5.5,0,1,0-.5-.5A.5.5,0,0,0,12,228Z" fill="#454545"/>
        <path id="패스_716" data-name="패스 716" d="M14.5,228a.5.5,0,1,0-.5-.5A.5.5,0,0,0,14.5,228Z" fill="#454545"/>
      </g>
    </g>
    <g id="마스크_그룹_37" data-name="마스크 그룹 37" transform="translate(0 -2)" clip-path="url(#clip-path-8)">
      <path id="패스_717" data-name="패스 717" d="M15.47,258a9.436,9.436,0,0,1-6.53-2.91l-.04-.04a9.33,9.33,0,0,1-2.9-6.7v-.17l.11-.14a7.265,7.265,0,0,1,.5-.57,6.25,6.25,0,0,1,2.19-1.43.9.9,0,0,1,.34-.06c.28,0,.9.14,1.06.58.28.78.64,1.81.9,2.78a1.248,1.248,0,0,1-.38,1.18l-.91.58a.648.648,0,0,0,.12.31,11.433,11.433,0,0,0,1.22,1.43,13.036,13.036,0,0,0,1.42,1.21.5.5,0,0,0,.29.11l.32-.44.29-.46a1.286,1.286,0,0,1,1.16-.38,12.976,12.976,0,0,1,2.84.92,1.212,1.212,0,0,1,.48,1.39,6.462,6.462,0,0,1-1.42,2.19,6.8,6.8,0,0,1-.57.5l-.13.11Z" transform="translate(0.503)" fill="#454545"/>
    </g>
    <g id="마스크_그룹_33" data-name="마스크 그룹 33" transform="translate(0 -2)" clip-path="url(#clip-path-9)">
      <g id="그룹_1005" data-name="그룹 1005" transform="translate(0.51)">
        <path id="패스_718" data-name="패스 718" d="M8.96,161.86a1.754,1.754,0,0,1-1.26-.47,1.925,1.925,0,0,1-.48-1.44V157.6a.78.78,0,0,0-.13-.48.856.856,0,0,0-.32-.28,1.266,1.266,0,0,0-.39-.12,2.561,2.561,0,0,0-.39-.03v-1.37a2.531,2.531,0,0,0,.38-.03,1.2,1.2,0,0,0,.39-.13.787.787,0,0,0,.32-.28.769.769,0,0,0,.13-.47v-2.34a1.925,1.925,0,0,1,.48-1.44,1.7,1.7,0,0,1,1.26-.48h1.46v1.29H9.89c-.28,0-.47.08-.55.24a1.211,1.211,0,0,0-.13.6v2.46a1.1,1.1,0,0,1-.15.59,1.123,1.123,0,0,1-.37.38,1.684,1.684,0,0,1-.48.2,3,3,0,0,1-.48.08v.03c.2.02.37.04.52.07a1.28,1.28,0,0,1,.44.18.993.993,0,0,1,.37.41,1.425,1.425,0,0,1,.15.7v2.37a1.211,1.211,0,0,0,.13.6.572.572,0,0,0,.55.24h.53v1.29H8.96Z" fill="#454545"/>
        <path id="패스_719" data-name="패스 719" d="M13.58,160.57h.54c.28,0,.47-.08.55-.24a1.211,1.211,0,0,0,.13-.6v-2.37a1.452,1.452,0,0,1,.15-.7,1.06,1.06,0,0,1,.37-.41,1.734,1.734,0,0,1,.45-.19,2.55,2.55,0,0,1,.51-.06v-.03a2.093,2.093,0,0,1-.48-.08,1.684,1.684,0,0,1-.48-.2,1.038,1.038,0,0,1-.37-.38,1.1,1.1,0,0,1-.15-.59v-2.46a1.211,1.211,0,0,0-.13-.6.572.572,0,0,0-.55-.24h-.54v-1.29h1.47a1.72,1.72,0,0,1,1.26.48,1.956,1.956,0,0,1,.48,1.44v2.34a.769.769,0,0,0,.13.47.856.856,0,0,0,.32.28,1.281,1.281,0,0,0,.39.13,2.533,2.533,0,0,0,.38.03v1.37a2.531,2.531,0,0,0-.38.03,1.2,1.2,0,0,0-.39.13.94.94,0,0,0-.32.28.789.789,0,0,0-.13.47v2.35a1.956,1.956,0,0,1-.48,1.44,1.737,1.737,0,0,1-1.26.47H13.58v-1.27Z" fill="#454545"/>
      </g>
    </g>
    <g id="마스크_그룹_34" data-name="마스크 그룹 34" transform="translate(0 -2)" clip-path="url(#clip-path-10)">
      <g id="그룹_999" data-name="그룹 999" transform="translate(-0.5)">
        <path id="패스_720" data-name="패스 720" d="M12,138a6,6,0,1,1,6-6A6,6,0,0,1,12,138Zm0-10.99A4.99,4.99,0,1,0,16.99,132,5,5,0,0,0,12,127.01Z" transform="translate(1)" fill="#454545"/>
        <path id="패스_721" data-name="패스 721" d="M12,137.75c-1.89,0-3.43-2.58-3.43-5.75s1.54-5.75,3.43-5.75,3.43,2.58,3.43,5.75S13.89,137.75,12,137.75Zm0-10.99c-1.61,0-2.93,2.35-2.93,5.24s1.31,5.24,2.93,5.24,2.93-2.35,2.93-5.24S13.61,126.76,12,126.76Z" transform="translate(1)" fill="#454545"/>
        <path id="패스_722" data-name="패스 722" d="M12,137.75a.248.248,0,0,1-.25-.25V126.51a.248.248,0,0,1,.25-.25,5.745,5.745,0,1,1,0,11.49Zm.25-10.99v10.47a5.241,5.241,0,0,0,0-10.47Z" transform="translate(1)" fill="#454545"/>
        <path id="패스_723" data-name="패스 723" d="M17.14,134.19H6.86a.265.265,0,0,1-.24-.16A5.694,5.694,0,0,1,6.25,132a5.922,5.922,0,0,1,.37-2.03.25.25,0,0,1,.24-.16H17.13a.265.265,0,0,1,.24.16,5.694,5.694,0,0,1,.37,2.03,5.922,5.922,0,0,1-.37,2.03A.251.251,0,0,1,17.14,134.19Zm-10.1-.51h9.92a5.18,5.18,0,0,0,0-3.36H7.04a5.18,5.18,0,0,0,0,3.36Z" transform="translate(1)" fill="#454545"/>
      </g>
    </g>
    <g id="마스크_그룹_32" data-name="마스크 그룹 32" transform="translate(0 -2)" clip-path="url(#clip-path-11)">
      <g id="그룹_1004" data-name="그룹 1004" transform="translate(-0.5)">
        <path id="패스_705" data-name="패스 705" d="M12,106.65c-2.76,0-5-.75-5-1.67v1.67c0,.92,2.24,1.67,5,1.67s5-.75,5-1.67v-1.67C17,105.91,14.76,106.65,12,106.65Z" fill="#454545"/>
        <path id="패스_706" data-name="패스 706" d="M13.16,109.28c-.37.03-.75.06-1.16.06-2.76,0-5-.75-5-1.67v1.67c0,.92,2.24,1.67,5,1.67.23,0,.45-.01.66-.02A3.673,3.673,0,0,1,13.16,109.28Z" fill="#454545"/>
        <path id="패스_707" data-name="패스 707" d="M13.1,113.25a1.066,1.066,0,0,1-.07-.19,5.447,5.447,0,0,1-.29-1.05c-.24.01-.48.02-.74.02-2.76,0-5-.75-5-1.67v1.67c0,.92,2.24,1.67,5,1.67.44,0,.86-.03,1.27-.06C13.21,113.51,13.15,113.38,13.1,113.25Z" fill="#454545"/>
        <path id="패스_708" data-name="패스 708" d="M12,105.63c2.761,0,5-.748,5-1.67s-2.239-1.67-5-1.67-5,.748-5,1.67S9.239,105.63,12,105.63Z" fill="#454545"/>
        <path id="패스_724" data-name="패스 724" d="M14.337,112.53h4.6v-3.07h-4.6Z" fill="#454545"/>
        <path id="패스_725" data-name="패스 725" d="M20.47,111l-3.07,3.07v-6.14Z" fill="#454545"/>
      </g>
    </g>
  </g>
</svg>
