<?xml version="1.0" encoding="UTF-8"?><svg id="_레이어_2" data-name="레이어 2" xmlns="http://www.w3.org/2000/svg" viewBox="0 0 20.42 25.32"><defs><style>.cls-1 {
        fill: #fff;
        stroke-width: 0px;
      }</style></defs><g id="_레이어_2-2" data-name="레이어 2"><g><g><path class="cls-1" d="m19.67,5.83c-.19,0-.38-.07-.53-.22L14.8,1.28c-.29-.29-.29-.77,0-1.06s.77-.29,1.06,0l4.33,4.33c.29.29.29.77,0,1.06-.15.15-.34.22-.53.22Z"/><path class="cls-1" d="m.75,20.42c-.2,0-.39-.08-.53-.22-.17-.17-.25-.4-.21-.64l.74-5.07c.02-.16.1-.31.21-.42L12.31,2.71c.29-.29.77-.29,1.06,0l4.33,4.33c.29.29.29.77,0,1.06l-11.35,11.35c-.11.11-.26.19-.42.21l-5.07.74s-.07,0-.11,0Zm5.07-1.49h0,0Zm-3.63-3.98l-.56,3.83,3.83-.56,10.65-10.65-3.27-3.27L2.2,14.95Z"/></g><path class="cls-1" d="m18.03,25.32H.81c-.41,0-.75-.34-.75-.75s.34-.75.75-.75h17.22c.41,0,.75.34.75.75s-.34.75-.75.75Z"/></g></g></svg>