<?xml version="1.0" encoding="UTF-8"?><svg id="_레이어_2" data-name="레이어 2" xmlns="http://www.w3.org/2000/svg" viewBox="0 0 18.24 23.61"><defs><style>.cls-1 {
        fill: #fff;
        stroke-width: 0px;
      }</style></defs><g id="_레이어_2-2" data-name="레이어 2"><g><path class="cls-1" d="m15.67,3.15h-1.55v-.58c0-1.42-1.15-2.57-2.57-2.57h-4.85c-1.42,0-2.57,1.15-2.57,2.57v.58h-1.56c-1.42,0-2.57,1.15-2.57,2.57v15.32c0,1.42,1.15,2.57,2.57,2.57h13.1c1.42,0,2.57-1.15,2.57-2.57V5.72c0-1.42-1.15-2.57-2.57-2.57Zm-10.04-.58c0-.59.48-1.07,1.07-1.07h4.85c.59,0,1.07.48,1.07,1.07v.58h-6.99v-.58ZM1.5,5.72c0-.59.48-1.07,1.07-1.07h13.1c.59,0,1.07.48,1.07,1.07v1.8H1.5v-1.8Zm15.24,15.32c0,.59-.48,1.07-1.07,1.07H2.57c-.59,0-1.07-.48-1.07-1.07v-12.02h15.24v12.02Z"/><path class="cls-1" d="m4.75,17.18c.41,0,.75-.34.75-.75v-3.44c0-.41-.34-.75-.75-.75s-.75.34-.75.75v3.44c0,.41.34.75.75.75Z"/><path class="cls-1" d="m9.12,17.18c.41,0,.75-.34.75-.75v-3.44c0-.41-.34-.75-.75-.75s-.75.34-.75.75v3.44c0,.41.34.75.75.75Z"/><path class="cls-1" d="m13.49,17.18c.41,0,.75-.34.75-.75v-3.44c0-.41-.34-.75-.75-.75s-.75.34-.75.75v3.44c0,.41.34.75.75.75Z"/></g></g></svg>