<svg xmlns="http://www.w3.org/2000/svg" xmlns:xlink="http://www.w3.org/1999/xlink" width="56" height="45" viewBox="0 0 56 45">
  <defs>
    <clipPath id="clip-path">
      <rect id="사각형_15330" data-name="사각형 15330" width="56" height="45" transform="translate(343 521)" fill="#fff" stroke="#707070" stroke-width="1" opacity="0.55"/>
    </clipPath>
  </defs>
  <g id="ico_cve" transform="translate(-343 -521)" clip-path="url(#clip-path)">
    <path id="패스_181" data-name="패스 181" d="M.928-8.091C.928-2.842,3.393.58,8.874.58c4.727,0,7.511-2.465,7.714-6.38H11.455c-.174,1.711-1.044,2.494-2.581,2.494C6.96-3.306,6.09-4.582,6.09-8.091s.87-4.785,2.784-4.785c1.537,0,2.407.754,2.581,2.494h5.133c-.2-3.915-2.987-6.38-7.714-6.38C3.393-16.762.928-13.34.928-8.091ZM28.42.174l5.771-16.53H28.942L25.752-5.394,22.533-16.356H17.284L23.026.174ZM50.953-6.844c.029-.29.058-.812.058-1.247,0-5.22-2.407-8.671-7.888-8.671-5.51,0-7.946,3.451-7.946,8.671S37.613.58,43.123.58c4.321,0,6.989-2.03,7.54-5.481H45.5a2.2,2.2,0,0,1-2.378,1.885c-1.711,0-2.755-1.189-2.755-3.538v-.29ZM40.368-9.773c.058-2.262.986-3.393,2.7-3.393,1.74,0,2.668,1.131,2.726,3.393Z" transform="translate(345.072 551.762)" fill="#fff"/>
  </g>
</svg>
