<svg width="80" height="200" viewBox="0 0 80 200" fill="none" xmlns="http://www.w3.org/2000/svg">
<path d="M29.17 27.51H10.83C10.37 27.51 10 27.14 10 26.68V20.2C10 19.74 10.37 19.37 10.83 19.37H29.17C29.63 19.37 30 19.74 30 20.2V26.68C30 27.14 29.63 27.51 29.17 27.51ZM11.66 25.85H28.33V21.03H11.66V25.85Z" fill="#304B79"/>
<path d="M13.91 22.45C13.37 22.45 12.93 22.89 12.93 23.43C12.93 23.97 13.37 24.41 13.91 24.41C14.45 24.41 14.89 23.97 14.89 23.43C14.89 22.89 14.45 22.45 13.91 22.45Z" fill="#304B79"/>
<path d="M17.1 22.45C16.56 22.45 16.12 22.89 16.12 23.43C16.12 23.97 16.56 24.41 17.1 24.41C17.64 24.41 18.08 23.97 18.08 23.43C18.08 22.89 17.64 22.45 17.1 22.45Z" fill="#304B79"/>
<path d="M20.29 22.45C19.75 22.45 19.31 22.89 19.31 23.43C19.31 23.97 19.75 24.41 20.29 24.41C20.83 24.41 21.27 23.97 21.27 23.43C21.27 22.89 20.83 22.45 20.29 22.45Z" fill="#304B79"/>
<path d="M29.17 20.64H10.83C10.37 20.64 10 20.27 10 19.81V13.33C10 12.87 10.37 12.5 10.83 12.5H29.17C29.63 12.5 30 12.87 30 13.33V19.81C30 20.27 29.63 20.64 29.17 20.64ZM11.66 18.97H28.33V14.15H11.66V18.97Z" fill="#304B79"/>
<path d="M13.91 15.58C13.37 15.58 12.93 16.02 12.93 16.56C12.93 17.1 13.37 17.54 13.91 17.54C14.45 17.54 14.89 17.1 14.89 16.56C14.89 16.02 14.45 15.58 13.91 15.58Z" fill="#304B79"/>
<path d="M17.1 15.58C16.56 15.58 16.12 16.02 16.12 16.56C16.12 17.1 16.56 17.54 17.1 17.54C17.64 17.54 18.08 17.1 18.08 16.56C18.08 16.02 17.64 15.58 17.1 15.58Z" fill="#304B79"/>
<path d="M20.29 15.58C19.75 15.58 19.31 16.02 19.31 16.56C19.31 17.1 19.75 17.54 20.29 17.54C20.83 17.54 21.27 17.1 21.27 16.56C21.27 16.02 20.83 15.58 20.29 15.58Z" fill="#304B79"/>
<path d="M21.32 67.33V65.93C24.06 65.93 26.43 64.07 27.08 61.42L28.44 61.75C27.63 65.04 24.7 67.33 21.32 67.33Z" fill="#304B79"/>
<path d="M21.32 54.07V52.67C24.6 52.67 27.5 54.87 28.38 58.03L27.03 58.41C26.32 55.85 23.97 54.07 21.32 54.07Z" fill="#304B79"/>
<path d="M17.92 55.64V51.2H22.36V55.64H17.92ZM19.32 52.61V54.25H20.96V52.61H19.32Z" fill="#304B79"/>
<path d="M17.92 68.79V64.36H22.36V68.79H17.92ZM19.32 65.76V67.39H20.96V65.76H19.32Z" fill="#304B79"/>
<path d="M25.56 62.22V57.78H30V62.22H25.56ZM26.96 59.18V60.82H28.6V59.18H26.96Z" fill="#304B79"/>
<path d="M18.68 67.33V65.93C15.94 65.93 13.57 64.07 12.92 61.42L11.56 61.75C12.37 65.04 15.3 67.33 18.68 67.33Z" fill="#304B79"/>
<path d="M18.68 54.07V52.67C15.4 52.67 12.5 54.87 11.62 58.03L12.97 58.41C13.68 55.85 16.03 54.07 18.68 54.07Z" fill="#304B79"/>
<path d="M14.44 62.22H10V57.78H14.44V62.22ZM13.04 59.18H11.4V60.82H13.04V59.18Z" fill="#304B79"/>
<path d="M27.02 101.67C26.84 101.67 26.67 101.61 26.53 101.48L24.29 99.47C23.99 99.2 23.96 98.73 24.23 98.43C24.5 98.13 24.97 98.1 25.27 98.37L27.01 99.94L28.76 98.37C29.06 98.1 29.53 98.12 29.8 98.43C30.07 98.73 30.05 99.2 29.74 99.47L27.5 101.48C27.38 101.61 27.2 101.67 27.02 101.67Z" fill="#304B79"/>
<path d="M27.14 100.67C26.73 100.67 26.4 100.34 26.4 99.93C26.4 96.41 23.54 93.55 20.02 93.55C17.82 93.55 15.81 94.66 14.63 96.51C14.41 96.85 13.96 96.95 13.61 96.74C13.27 96.52 13.17 96.07 13.38 95.72C14.83 93.44 17.31 92.08 20.01 92.08C24.34 92.08 27.87 95.6 27.87 99.94C27.87 100.34 27.54 100.67 27.14 100.67Z" fill="#304B79"/>
<path d="M20.06 107.93C15.73 107.93 12.2 104.41 12.2 100.07C12.2 99.66 12.53 99.33 12.94 99.33C13.35 99.33 13.68 99.66 13.68 100.07C13.68 103.59 16.54 106.45 20.06 106.45C22.25 106.45 24.27 105.34 25.45 103.49C25.67 103.15 26.13 103.05 26.47 103.26C26.81 103.48 26.91 103.93 26.7 104.28C25.24 106.56 22.76 107.93 20.06 107.93Z" fill="#304B79"/>
<path d="M15.21 101.81C15.03 101.81 14.86 101.75 14.72 101.62L12.98 100.05L11.23 101.62C10.93 101.89 10.46 101.87 10.19 101.56C9.92 101.26 9.94 100.79 10.25 100.52L12.49 98.51C12.77 98.26 13.2 98.26 13.47 98.51L15.71 100.52C16.01 100.79 16.04 101.26 15.77 101.56C15.61 101.73 15.41 101.81 15.21 101.81Z" fill="#304B79"/>
<path d="M18.81 146.8C14.32 146.8 10.66 143.14 10.66 138.65C10.66 134.15 14.32 130.5 18.81 130.49C23.3 130.49 26.96 134.15 26.96 138.64C26.96 143.15 23.31 146.8 18.81 146.8ZM18.81 132.14C15.22 132.14 12.29 135.07 12.29 138.66C12.29 142.25 15.21 145.17 18.81 145.17C22.4 145.17 25.33 142.25 25.33 138.65C25.33 135.06 22.4 132.14 18.81 132.14Z" fill="#304B79"/>
<path d="M28.52 149.5C28.31 149.5 28.1 149.42 27.94 149.26L23.39 144.71C23.07 144.39 23.07 143.87 23.39 143.55C23.71 143.23 24.23 143.23 24.55 143.55L29.1 148.1C29.42 148.42 29.42 148.94 29.1 149.26C28.94 149.42 28.73 149.5 28.52 149.5Z" fill="#304B79"/>
<path d="M17.68 141.9C17.48 141.9 17.29 141.82 17.16 141.68L15.28 139.71C15 139.42 15.02 138.96 15.31 138.69C15.6 138.41 16.06 138.42 16.33 138.72L17.64 140.1L21.27 135.68C21.52 135.37 21.98 135.33 22.29 135.58C22.6 135.83 22.64 136.29 22.39 136.6L18.24 141.66C18.11 141.82 17.91 141.92 17.71 141.92C17.7 141.9 17.69 141.9 17.68 141.9Z" fill="#304B79"/>
<path d="M15.28 189H11.98C11.52 189 11.15 188.63 11.15 188.17V183.55C11.15 183.09 11.52 182.72 11.98 182.72H15.28C15.74 182.72 16.11 183.09 16.11 183.55V188.17C16.1 188.63 15.73 189 15.28 189ZM12.8 187.35H14.45V184.38H12.8V187.35Z" fill="#304B79"/>
<path d="M28.02 189H24.72C24.26 189 23.89 188.63 23.89 188.17V171.82C23.89 171.36 24.26 170.99 24.72 170.99H28.02C28.48 170.99 28.85 171.36 28.85 171.82V188.17C28.85 188.63 28.48 189 28.02 189ZM25.55 187.35H27.2V172.65H25.55V187.35Z" fill="#304B79"/>
<path d="M21.65 189H18.35C17.89 189 17.52 188.63 17.52 188.17V177.81C17.52 177.35 17.89 176.98 18.35 176.98H21.65C22.11 176.98 22.48 177.35 22.48 177.81V188.17C22.47 188.63 22.1 189 21.65 189ZM19.18 187.35H20.83V178.64H19.18V187.35Z" fill="#304B79"/>
<path d="M69.17 27.51H50.83C50.37 27.51 50 27.14 50 26.68V20.2C50 19.74 50.37 19.37 50.83 19.37H69.17C69.63 19.37 70 19.74 70 20.2V26.68C70 27.14 69.63 27.51 69.17 27.51ZM51.66 25.85H68.33V21.03H51.66V25.85Z" fill="#2772FB"/>
<path d="M53.91 22.45C53.37 22.45 52.93 22.89 52.93 23.43C52.93 23.97 53.37 24.41 53.91 24.41C54.45 24.41 54.89 23.97 54.89 23.43C54.89 22.89 54.45 22.45 53.91 22.45Z" fill="#2772FB"/>
<path d="M57.1 22.45C56.56 22.45 56.12 22.89 56.12 23.43C56.12 23.97 56.56 24.41 57.1 24.41C57.64 24.41 58.08 23.97 58.08 23.43C58.08 22.89 57.64 22.45 57.1 22.45Z" fill="#2772FB"/>
<path d="M60.29 22.45C59.75 22.45 59.31 22.89 59.31 23.43C59.31 23.97 59.75 24.41 60.29 24.41C60.83 24.41 61.27 23.97 61.27 23.43C61.27 22.89 60.83 22.45 60.29 22.45Z" fill="#2772FB"/>
<path d="M69.17 20.64H50.83C50.37 20.64 50 20.27 50 19.81V13.33C50 12.87 50.37 12.5 50.83 12.5H69.17C69.63 12.5 70 12.87 70 13.33V19.81C70 20.27 69.63 20.64 69.17 20.64ZM51.66 18.97H68.33V14.15H51.66V18.97Z" fill="#2772FB"/>
<path d="M53.91 15.58C53.37 15.58 52.93 16.02 52.93 16.56C52.93 17.1 53.37 17.54 53.91 17.54C54.45 17.54 54.89 17.1 54.89 16.56C54.89 16.02 54.45 15.58 53.91 15.58Z" fill="#2772FB"/>
<path d="M57.1 15.58C56.56 15.58 56.12 16.02 56.12 16.56C56.12 17.1 56.56 17.54 57.1 17.54C57.64 17.54 58.08 17.1 58.08 16.56C58.08 16.02 57.64 15.58 57.1 15.58Z" fill="#2772FB"/>
<path d="M60.29 15.58C59.75 15.58 59.31 16.02 59.31 16.56C59.31 17.1 59.75 17.54 60.29 17.54C60.83 17.54 61.27 17.1 61.27 16.56C61.27 16.02 60.83 15.58 60.29 15.58Z" fill="#2772FB"/>
<path d="M61.32 67.33V65.93C64.06 65.93 66.43 64.07 67.08 61.42L68.44 61.75C67.63 65.04 64.7 67.33 61.32 67.33Z" fill="#2772FB"/>
<path d="M61.32 54.07V52.67C64.6 52.67 67.5 54.87 68.38 58.03L67.03 58.41C66.32 55.85 63.97 54.07 61.32 54.07Z" fill="#2772FB"/>
<path d="M57.92 55.64V51.2H62.36V55.64H57.92ZM59.32 52.61V54.25H60.96V52.61H59.32Z" fill="#2772FB"/>
<path d="M57.92 68.79V64.36H62.36V68.79H57.92ZM59.32 65.76V67.39H60.96V65.76H59.32Z" fill="#2772FB"/>
<path d="M65.56 62.22V57.78H70V62.22H65.56ZM66.96 59.18V60.82H68.6V59.18H66.96Z" fill="#2772FB"/>
<path d="M58.68 67.33V65.93C55.94 65.93 53.57 64.07 52.92 61.42L51.56 61.75C52.37 65.04 55.3 67.33 58.68 67.33Z" fill="#2772FB"/>
<path d="M58.68 54.07V52.67C55.4 52.67 52.5 54.87 51.62 58.03L52.97 58.41C53.68 55.85 56.03 54.07 58.68 54.07Z" fill="#2772FB"/>
<path d="M54.44 62.22H50V57.78H54.44V62.22ZM53.04 59.18H51.4V60.82H53.04V59.18Z" fill="#2772FB"/>
<path d="M67.02 101.67C66.84 101.67 66.67 101.61 66.53 101.48L64.29 99.47C63.99 99.2 63.96 98.73 64.23 98.43C64.5 98.13 64.97 98.1 65.27 98.37L67.01 99.94L68.76 98.37C69.06 98.1 69.53 98.12 69.8 98.43C70.07 98.73 70.05 99.2 69.74 99.47L67.5 101.48C67.38 101.61 67.2 101.67 67.02 101.67Z" fill="#2772FB"/>
<path d="M67.14 100.67C66.73 100.67 66.4 100.34 66.4 99.93C66.4 96.41 63.54 93.55 60.02 93.55C57.82 93.55 55.81 94.66 54.63 96.51C54.41 96.85 53.96 96.95 53.61 96.74C53.27 96.52 53.17 96.07 53.38 95.72C54.83 93.44 57.31 92.08 60.01 92.08C64.34 92.08 67.87 95.6 67.87 99.94C67.87 100.34 67.54 100.67 67.14 100.67Z" fill="#2772FB"/>
<path d="M60.06 107.93C55.73 107.93 52.2 104.41 52.2 100.07C52.2 99.66 52.53 99.33 52.94 99.33C53.35 99.33 53.68 99.66 53.68 100.07C53.68 103.59 56.54 106.45 60.06 106.45C62.25 106.45 64.27 105.34 65.45 103.49C65.67 103.15 66.13 103.05 66.47 103.26C66.81 103.48 66.91 103.93 66.7 104.28C65.24 106.56 62.76 107.93 60.06 107.93Z" fill="#2772FB"/>
<path d="M55.21 101.81C55.03 101.81 54.86 101.75 54.72 101.62L52.98 100.05L51.23 101.62C50.93 101.89 50.46 101.87 50.19 101.56C49.92 101.26 49.94 100.79 50.25 100.52L52.49 98.51C52.77 98.26 53.2 98.26 53.47 98.51L55.71 100.52C56.01 100.79 56.04 101.26 55.77 101.56C55.61 101.73 55.41 101.81 55.21 101.81Z" fill="#2772FB"/>
<path d="M58.81 146.8C54.32 146.8 50.66 143.14 50.66 138.65C50.66 134.15 54.32 130.5 58.81 130.49C63.3 130.49 66.96 134.15 66.96 138.64C66.96 143.15 63.31 146.8 58.81 146.8ZM58.81 132.14C55.22 132.14 52.29 135.07 52.29 138.66C52.29 142.25 55.21 145.17 58.81 145.17C62.4 145.17 65.33 142.25 65.33 138.65C65.33 135.06 62.4 132.14 58.81 132.14Z" fill="#2772FB"/>
<path d="M68.52 149.5C68.31 149.5 68.1 149.42 67.94 149.26L63.39 144.71C63.07 144.39 63.07 143.87 63.39 143.55C63.71 143.23 64.23 143.23 64.55 143.55L69.1 148.1C69.42 148.42 69.42 148.94 69.1 149.26C68.94 149.42 68.73 149.5 68.52 149.5Z" fill="#2772FB"/>
<path d="M57.68 141.9C57.48 141.9 57.29 141.82 57.16 141.68L55.28 139.71C55 139.42 55.02 138.96 55.31 138.69C55.6 138.41 56.06 138.42 56.33 138.72L57.64 140.1L61.27 135.68C61.52 135.37 61.98 135.33 62.29 135.58C62.6 135.83 62.64 136.29 62.39 136.6L58.24 141.66C58.11 141.82 57.91 141.92 57.71 141.92C57.7 141.9 57.69 141.9 57.68 141.9Z" fill="#2772FB"/>
<path d="M55.28 189H51.98C51.52 189 51.15 188.63 51.15 188.17V183.55C51.15 183.09 51.52 182.72 51.98 182.72H55.28C55.74 182.72 56.11 183.09 56.11 183.55V188.17C56.1 188.63 55.73 189 55.28 189ZM52.8 187.35H54.45V184.38H52.8V187.35Z" fill="#2772FB"/>
<path d="M68.02 189H64.72C64.26 189 63.89 188.63 63.89 188.17V171.82C63.89 171.36 64.26 170.99 64.72 170.99H68.02C68.48 170.99 68.85 171.36 68.85 171.82V188.17C68.85 188.63 68.48 189 68.02 189ZM65.55 187.35H67.2V172.65H65.55V187.35Z" fill="#2772FB"/>
<path d="M61.65 189H58.35C57.89 189 57.52 188.63 57.52 188.17V177.81C57.52 177.35 57.89 176.98 58.35 176.98H61.65C62.11 176.98 62.48 177.35 62.48 177.81V188.17C62.47 188.63 62.1 189 61.65 189ZM59.18 187.35H60.83V178.64H59.18V187.35Z" fill="#2772FB"/>
</svg>