<svg xmlns="http://www.w3.org/2000/svg" xmlns:xlink="http://www.w3.org/1999/xlink" width="24" height="23.998" viewBox="0 0 24 23.998">
  <defs>
    <clipPath id="clip-path">
      <rect id="사각형_15522" data-name="사각형 15522" width="24" height="23.998" transform="translate(-2 -2)" fill="#999"/>
    </clipPath>
  </defs>
  <g id="ico_status" transform="translate(2 2)" clip-path="url(#clip-path)">
    <path id="패스_482" data-name="패스 482" d="M18.217,9.355c.431.338,1.048.186,1.759.01A7.074,7.074,0,0,1,21.662,9.1a7.074,7.074,0,0,1,1.686.266,4.851,4.851,0,0,0,1.1.19,1.047,1.047,0,0,0,.662-.2,1.406,1.406,0,0,0,.417-1.19,3.871,3.871,0,0,0-2.469-3.6,2.5,2.5,0,1,0-2.786,0,3.871,3.871,0,0,0-2.469,3.6,1.407,1.407,0,0,0,.417,1.19" transform="translate(-11.662 0)" fill="#999"/>
    <path id="패스_483" data-name="패스 483" d="M40.855,34.846a2.5,2.5,0,1,0-2.786,0,3.871,3.871,0,0,0-2.469,3.6,1.407,1.407,0,0,0,.417,1.19c.431.338,1.048.186,1.759.01a7.074,7.074,0,0,1,1.686-.266,7.075,7.075,0,0,1,1.686.266,4.851,4.851,0,0,0,1.1.19,1.047,1.047,0,0,0,.662-.2,1.406,1.406,0,0,0,.417-1.19,3.871,3.871,0,0,0-2.469-3.6" transform="translate(-23.324 -19.839)" fill="#999"/>
    <path id="패스_484" data-name="패스 484" d="M5.255,34.846a2.5,2.5,0,1,0-2.786,0A3.871,3.871,0,0,0,0,38.446a1.407,1.407,0,0,0,.417,1.19c.431.338,1.048.186,1.759.01a7.074,7.074,0,0,1,1.686-.266,7.074,7.074,0,0,1,1.686.266,4.851,4.851,0,0,0,1.1.19,1.047,1.047,0,0,0,.662-.2,1.406,1.406,0,0,0,.417-1.19,3.871,3.871,0,0,0-2.469-3.6" transform="translate(0 -19.839)" fill="#999"/>
  </g>
</svg>
