<svg xmlns="http://www.w3.org/2000/svg" xmlns:xlink="http://www.w3.org/1999/xlink" width="24" height="24" viewBox="0 0 24 24">
  <defs>
    <clipPath id="clip-path">
      <rect id="사각형_15693" data-name="사각형 15693" width="24" height="24" fill="#999"/>
    </clipPath>
  </defs>
  <g id="ico_check_server" clip-path="url(#clip-path)">
    <g id="그룹_890" data-name="그룹 890" transform="translate(0 1)">
      <path id="패스_513" data-name="패스 513" d="M15.495.844H4.395a2,2,0,0,0-2,2V7.981a2,2,0,0,0,2,2h11.1a2,2,0,0,0,2-2V2.844a2,2,0,0,0-2-2M14.342,7.091c-.682,0-1.236-.754-1.236-1.679s.555-1.678,1.236-1.678,1.236.752,1.236,1.678-.554,1.679-1.236,1.679" fill="#999"/>
      <path id="패스_514" data-name="패스 514" d="M12.609,20.017H4.4a2,2,0,0,1-2-2V12.88a2,2,0,0,1,2-2H15.5A1.99,1.99,0,0,1,17.3,12,5.5,5.5,0,0,0,12.6,20.016Z" fill="#999"/>
      <path id="패스_515" data-name="패스 515" d="M17.222,12.59a4.655,4.655,0,1,0,4.656,4.655,4.655,4.655,0,0,0-4.656-4.655m2.024,3.877-2.291,2.287a.518.518,0,0,1-.733,0L15.189,17.72a.517.517,0,1,1,.731-.732l.669.669,1.925-1.921a.517.517,0,0,1,.732.731" fill="#999"/>
    </g>
  </g>
</svg>
