<svg xmlns="http://www.w3.org/2000/svg" xmlns:xlink="http://www.w3.org/1999/xlink" width="34" height="34" viewBox="0 0 34 34">
  <defs>
    <clipPath id="clip-path">
      <rect id="사각형_15546" data-name="사각형 15546" width="34" height="34" transform="translate(-0.213 -0.28)" fill="none" stroke="#707070" stroke-width="1.5"/>
    </clipPath>
  </defs>
  <g id="icon_dbst" transform="translate(0.213 0.28)" clip-path="url(#clip-path)">
    <g id="그룹_834" data-name="그룹 834" transform="translate(0.93 -0.137)">
      <path id="패스_574" data-name="패스 574" d="M29.912,10.465H14.982a3.732,3.732,0,0,1,0-7.465h14.93a3.732,3.732,0,0,1,0,7.465Z" transform="translate(-6.16 -1.643)" fill="none" stroke="#999" stroke-linecap="round" stroke-linejoin="round" stroke-width="1.5"/>
      <line id="선_235" data-name="선 235" x2="1.944" transform="translate(20.952 5.09)" fill="none" stroke="#999" stroke-linecap="round" stroke-linejoin="round" stroke-width="1.5"/>
      <line id="선_236" data-name="선 236" y2="4.666" transform="translate(16.287 20.019)" fill="none" stroke="#999" stroke-linecap="round" stroke-linejoin="round" stroke-width="1.5"/>
      <path id="패스_575" data-name="패스 575" d="M29.912,35.215H14.982a3.732,3.732,0,1,1,0-7.465h14.93a3.732,3.732,0,1,1,0,7.465Z" transform="translate(-6.16 -15.195)" fill="none" stroke="#999" stroke-linecap="round" stroke-linejoin="round" stroke-width="1.5"/>
      <line id="선_237" data-name="선 237" x2="1.944" transform="translate(20.952 16.287)" fill="none" stroke="#999" stroke-linecap="round" stroke-linejoin="round" stroke-width="1.5"/>
      <path id="패스_576" data-name="패스 576" d="M31.482,64.09h0a3.732,3.732,0,1,1,3.732-3.732A3.733,3.733,0,0,1,31.482,64.09Z" transform="translate(-15.195 -31.007)" fill="none" stroke="#27ad98" stroke-linecap="round" stroke-linejoin="round" stroke-width="1.5"/>
      <line id="선_238" data-name="선 238" x2="11.197" transform="translate(1.357 29.35)" fill="none" stroke="#27ad98" stroke-linecap="round" stroke-linejoin="round" stroke-width="1.5"/>
      <line id="선_239" data-name="선 239" x2="11.197" transform="translate(20.02 29.35)" fill="none" stroke="#27ad98" stroke-linecap="round" stroke-linejoin="round" stroke-width="1.5"/>
      <line id="선_240" data-name="선 240" y2="3.292" transform="translate(16.287 8.822)" fill="none" stroke="#999" stroke-linecap="round" stroke-linejoin="round" stroke-width="1.5"/>
    </g>
  </g>
</svg>
