<svg xmlns="http://www.w3.org/2000/svg" xmlns:xlink="http://www.w3.org/1999/xlink" width="45" height="45" viewBox="0 0 45 45">
  <defs>
    <clipPath id="clip-path">
      <rect id="사각형_15329" data-name="사각형 15329" width="45" height="45" transform="translate(-0.147 -0.1)" fill="none"/>
    </clipPath>
  </defs>
  <g id="ico_sensitive" transform="translate(0.147 0.1)" clip-path="url(#clip-path)">
    <g id="그룹_581" data-name="그룹 581" transform="translate(1.853 3.9)">
      <path id="합치기_2" data-name="합치기 2" d="M2469.876,6156.489v-9.5c2.912,2.612,8.732,4.358,15.593,4.358a35.68,35.68,0,0,0,7.747-.816,13.816,13.816,0,0,0,6.771,8.086c-2.182,2.194-7.545,4.082-14.518,4.082C2476.281,6162.7,2469.876,6159.426,2469.876,6156.489Zm30.238,2.2c-.045-.022-.083-.051-.127-.074a4.135,4.135,0,0,0,.8-1.069,1.4,1.4,0,0,0,1.179-.026,12.814,12.814,0,0,0,6.55-8.277,22.892,22.892,0,0,0,.877-6.179,1.344,1.344,0,0,0-1.047-1.328,18.838,18.838,0,0,1-6.241-2.817,1.351,1.351,0,0,0-.766-.238,1.41,1.41,0,0,0-.277.042v-1.336a2.662,2.662,0,0,1,1.782.446,17.5,17.5,0,0,0,5.8,2.626,2.649,2.649,0,0,1,2.059,2.623,24.188,24.188,0,0,1-.931,6.535,14.06,14.06,0,0,1-7.212,9.074,2.7,2.7,0,0,1-2.448,0Zm.6-1.171a12.534,12.534,0,0,1-6.218-7.308c.546-.15,1.073-.314,1.578-.49a9.363,9.363,0,0,0,4.607,5.288,1.444,1.444,0,0,0,.38.125v1.35a2.377,2.377,0,0,1-.275,1.063C2500.762,6157.54,2500.736,6157.535,2500.713,6157.522Zm.348-2.385V6140.7a1.432,1.432,0,0,1,1.092.208,12.932,12.932,0,0,0,4.306,1.946,1.426,1.426,0,0,1,1.109,1.412,16.781,16.781,0,0,1-.646,4.547,9.608,9.608,0,0,1-4.918,6.2,1.467,1.467,0,0,1-.662.159A1.427,1.427,0,0,1,2501.061,6155.138Zm-29.966-9.731h-.2a3.1,3.1,0,0,1-1.019-2.073v-8.274c2.914,2.612,8.732,4.36,15.593,4.36s12.679-1.748,15.593-4.36v2.526a2.666,2.666,0,0,0-1.227.445,17.51,17.51,0,0,1-5.8,2.626,2.651,2.651,0,0,0-2.06,2.622c.009.657.047,1.3.1,1.932h.017a23.472,23.472,0,0,0,.558,3.406,33.811,33.811,0,0,1-7.181.735C2478.639,6149.35,2473.361,6147.542,2471.094,6145.406Zm22.318-.2h1.743a16.834,16.834,0,0,0,.353,2.6c-.5.176-1.031.337-1.584.487A21.893,21.893,0,0,1,2493.413,6145.209Zm0,0c-.066-.7-.116-1.41-.125-2.145a1.345,1.345,0,0,1,1.047-1.325,18.831,18.831,0,0,0,6.241-2.818,1.329,1.329,0,0,1,.487-.195v1.971a1.422,1.422,0,0,0-.531.208,12.944,12.944,0,0,1-4.306,1.946,1.428,1.428,0,0,0-1.11,1.412c0,.32.022.634.042.946Zm-23.257-13.151h-.089a2.319,2.319,0,0,1-.19-.849c0-2.937,6.4-6.209,15.593-6.209s15.593,3.272,15.593,6.209a2.319,2.319,0,0,1-.19.849h-.089c-1.288,2.618-7.21,5.166-15.314,5.166S2471.442,6134.677,2470.154,6132.059Zm30.907-.2h0Zm-32.06,0h0Z" transform="translate(-2469 -6124.8)" fill="#fff" stroke="rgba(0,0,0,0)" stroke-miterlimit="10" stroke-width="1"/>
    </g>
  </g>
</svg>
