<?xml version="1.0" encoding="UTF-8"?>
<svg id="_레이어_2" data-name="레이어 2" xmlns="http://www.w3.org/2000/svg" viewBox="0 0 26.79 26.28">
  <defs>
    <style>
      .cls-1 {
        fill: #fff;
        stroke-width: 0px;
      }
    </style>
  </defs>
  <g id="_레이어_2-2" data-name="레이어 2">
    <g>
      <path class="cls-1" d="m5.98,6.43h-1.04V1c0-.55-.45-1-1-1s-1,.45-1,1v5.43h-1.04c-1.04,0-1.89.91-1.89,2.04v2.26c0,1.12.85,2.04,1.89,2.04h1.04v12.51c0,.55.45,1,1,1s1-.45,1-1v-12.51h1.04c1.04,0,1.89-.91,1.89-2.04v-2.26c0-1.12-.85-2.04-1.89-2.04Zm-.11,2.04v2.26l-3.88.04s0-.02,0-.04l.02-2.3h3.86s0,.02,0,.04Z"/>
      <path class="cls-1" d="m15.44,13.21h-1.04V1c0-.55-.45-1-1-1s-1,.45-1,1v12.21h-1.04c-1.04,0-1.89.91-1.89,2.04v2.26c0,1.12.85,2.04,1.89,2.04h1.04v5.74c0,.55.45,1,1,1s1-.45,1-1v-5.74h1.04c1.04,0,1.89-.91,1.89-2.04v-2.26c0-1.12-.85-2.04-1.89-2.04Zm-.11,2.04v2.26l-3.88.04s0-.02,0-.04l.02-2.3h3.86s0,.02,0,.04Z"/>
      <path class="cls-1" d="m24.9,6.43h-1.04V1c0-.55-.45-1-1-1s-1,.45-1,1v5.43h-1.04c-1.04,0-1.89.91-1.89,2.04v2.26c0,1.12.85,2.04,1.89,2.04h1.04v12.51c0,.55.45,1,1,1s1-.45,1-1v-12.51h1.04c1.04,0,1.89-.91,1.89-2.04v-2.26c0-1.12-.85-2.04-1.89-2.04Zm-.11,2.04v2.26l-3.88.04s0-.02,0-.04l.02-2.3h3.86s0,.02,0,.04Z"/>
    </g>
  </g>
</svg>