<svg xmlns="http://www.w3.org/2000/svg" xmlns:xlink="http://www.w3.org/1999/xlink" width="45" height="45" viewBox="0 0 45 45">
  <defs>
    <clipPath id="clip-path">
      <rect id="사각형_15328" data-name="사각형 15328" width="45" height="45" transform="translate(0 -0.166)" fill="none"/>
    </clipPath>
  </defs>
  <g id="ico_detection" transform="translate(0 0.166)" clip-path="url(#clip-path)">
    <g id="그룹_583" data-name="그룹 583" transform="translate(3 2.834)">
      <path id="패스_164" data-name="패스 164" d="M32.883,3.145H7.411A4.047,4.047,0,0,0,3.376,7.18V32.653a4.046,4.046,0,0,0,4.035,4.034H32.883a4.046,4.046,0,0,0,4.035-4.034V7.18a4.047,4.047,0,0,0-4.035-4.035M15.466,26.03a6.646,6.646,0,1,1,6.647-6.646,6.647,6.647,0,0,1-6.647,6.646M30.05,18.163v5.724A1.159,1.159,0,0,1,28.9,25.043H28.6a1.159,1.159,0,0,1-1.156-1.156V18.246a2.3,2.3,0,1,1,2.605-.083" transform="translate(-0.536 -0.5)" fill="#fff"/>
      <path id="패스_165" data-name="패스 165" d="M17,17.719a3.98,3.98,0,1,0,3.979,3.98A3.981,3.981,0,0,0,17,17.719" transform="translate(-2.067 -2.815)" fill="#fff"/>
      <path id="패스_166" data-name="패스 166" d="M32.56,38.835H6.662A6.67,6.67,0,0,1,0,32.173V6.662A6.67,6.67,0,0,1,6.662,0h25.9a6.67,6.67,0,0,1,6.662,6.662V32.173a6.67,6.67,0,0,1-6.662,6.662M6.662,1.568A5.1,5.1,0,0,0,1.568,6.662V32.173a5.1,5.1,0,0,0,5.094,5.094h25.9a5.1,5.1,0,0,0,5.095-5.094V6.662A5.1,5.1,0,0,0,32.56,1.568Z" transform="translate(0 0)" fill="#fff"/>
    </g>
  </g>
</svg>
