<svg xmlns="http://www.w3.org/2000/svg" xmlns:xlink="http://www.w3.org/1999/xlink" width="24" height="24" viewBox="0 0 24 24">
  <defs>
    <clipPath id="clip-path">
      <rect id="mask" width="24" height="24" transform="translate(-8 -7.5)" fill="#b621ff" opacity="0.62"/>
    </clipPath>
  </defs>
  <g id="ico__systen_manage" data-name="ico_ systen_manage" transform="translate(8 7.5)" clip-path="url(#clip-path)">
    <g id="img" transform="translate(15 -6.5) rotate(90)">
      <path id="pass03" d="M21.339,42.135v-.977H3V48.8h9.324" transform="translate(-3 -31.64)" fill="none" stroke="#454545" stroke-linecap="round" stroke-linejoin="round" stroke-width="1.5"/>
      <path id="pass02" d="M15.413,53.452a1.019,1.019,0,1,0-1.019,1.019,1.019,1.019,0,0,0,1.019-1.019" transform="translate(-10.732 -40.043)" fill="#283c82" stroke="#707070" stroke-width="1.5"/>
      <circle id="round2" cx="1.019" cy="1.019" r="1.019" transform="translate(2.643 12.39)" fill="none" stroke="#454545" stroke-miterlimit="10" stroke-width="1.5"/>
      <rect id="box" width="18.34" height="7.722" transform="translate(0.201)" fill="none" stroke="#454545" stroke-linecap="round" stroke-linejoin="round" stroke-width="1.5"/>
      <path id="pass02-2" data-name="pass02" d="M15.413,15.294a1.019,1.019,0,1,0-1.019,1.019,1.019,1.019,0,0,0,1.019-1.019" transform="translate(-10.732 -11.604)" fill="#283c82" stroke="#707070" stroke-width="1.5"/>
      <circle id="round1" cx="1.019" cy="1.019" r="1.019" transform="translate(2.643 2.671)" fill="none" stroke="#454545" stroke-miterlimit="10" stroke-width="1.5"/>
      <path id="pass01" d="M55.054,50.125a4.486,4.486,0,0,0-.134-1.074l1.367-1L55.213,46.2l-1.545.686a4.491,4.491,0,0,0-1.861-1.076l-.179-1.68H49.482l-.179,1.68a4.486,4.486,0,0,0-1.861,1.076L45.9,46.2l-1.073,1.859,1.367,1a4.357,4.357,0,0,0,0,2.148l-1.367,1L45.9,54.053l1.545-.686A4.491,4.491,0,0,0,49.3,54.443l.179,1.68h2.146l.179-1.68a4.491,4.491,0,0,0,1.861-1.076l1.545.686,1.073-1.859-1.367-1A4.486,4.486,0,0,0,55.054,50.125Zm-4.5,1.91a1.91,1.91,0,1,1,1.91-1.91A1.91,1.91,0,0,1,50.555,52.035Z" transform="translate(-34.171 -33.852)" fill="none" stroke="#454545" stroke-linecap="round" stroke-linejoin="round" stroke-width="1.5"/>
    </g>
  </g>
</svg>
