<svg xmlns="http://www.w3.org/2000/svg" xmlns:xlink="http://www.w3.org/1999/xlink" width="24" height="24" viewBox="0 0 24 24">
  <defs>
    <clipPath id="clip-path">
      <rect id="mask" width="24" height="24" transform="translate(-8 -7.5)" fill="#b621ff" opacity="0.62"/>
    </clipPath>
  </defs>
  <g id="ico_rl_ctrl" transform="translate(7.5 16) rotate(-90)" clip-path="url(#clip-path)">
    <g id="img" transform="translate(14.537 -6.013) rotate(90)">
      <path id="pass03" d="M13.1,5.689A4.19,4.19,0,1,1,8.9,1.5,4.19,4.19,0,0,1,13.1,5.689Z" transform="translate(-2.754 -1.5)" fill="none" stroke="#454545" stroke-linecap="round" stroke-linejoin="round" stroke-width="1.5"/>
      <path id="pass02" d="M13.8,24.278a3.783,3.783,0,0,0-3.783-3.784H5.283A3.783,3.783,0,0,0,1.5,24.278v6.2H13.8Z" transform="translate(-1.5 -8.905)" fill="none" stroke="#454545" stroke-linecap="round" stroke-linejoin="round" stroke-width="1.5"/>
      <path id="pass01" d="M33.164,6.857H29.655V21.895h3.509" transform="translate(-12.476 -3.588)" fill="none" stroke="#454545" stroke-linecap="round" stroke-linejoin="round" stroke-width="1.5"/>
      <line id="line" x2="3.509" transform="translate(17.178 10.787)" fill="none" stroke="#454545" stroke-linecap="round" stroke-linejoin="round" stroke-width="1.5"/>
    </g>
  </g>
</svg>
