<svg width="24" height="24" viewBox="0 0 24 24" fill="none" xmlns="http://www.w3.org/2000/svg">
<path d="M6.5 17.8C6.22 17.8 6 17.58 6 17.3V7.37C6 6.06 7.06 5 8.37 5H15.9C16.18 5 16.4 5.22 16.4 5.5C16.4 5.78 16.18 6 15.9 6H8.37C7.62 6 7 6.62 7 7.37V17.3C7 17.58 6.78 17.8 6.5 17.8Z" fill="#666666"/>
<path d="M18 12.1V8C18 7.45 17.55 7 17 7H9C8.45 7 8 7.45 8 8V18C8 18.55 8.45 19 9 19H12.93C12.77 18.18 12.83 17.3 12.82 16.48C12.82 16.32 12.83 16.16 12.84 16H10.5C10.22 16 10 15.78 10 15.5C10 15.22 10.22 15 10.5 15H12.93C12.94 14.9 12.95 14.8 12.97 14.7C13.06 14.14 13.24 13.53 13.59 13.07C13.61 13.04 13.64 13.02 13.66 13H10.5C10.22 13 10 12.78 10 12.5C10 12.22 10.22 12 10.5 12H15.5C15.62 12 15.73 12.05 15.82 12.12L18 12.1ZM10.5 9H13.5C13.78 9 14 9.22 14 9.5C14 9.78 13.78 10 13.5 10H10.5C10.22 10 10 9.78 10 9.5C10 9.22 10.22 9 10.5 9Z" fill="#666666"/>
<path d="M14.3366 17.5303L18.9366 17.5303L18.9366 14.4603L14.3366 14.4603L14.3366 17.5303Z" fill="#666666"/>
<path d="M20.47 16L17.4 19.07V12.93L20.47 16Z" fill="#666666"/>
</svg>