<svg width="24" height="24" viewBox="0 0 24 24" fill="none" xmlns="http://www.w3.org/2000/svg">
<path d="M6.55 7.5H9.11L10.68 15.38H8.66L8.48 13.98H7.13L6.93 15.38H5L6.55 7.5ZM7.33 12.58H8.29L7.84 8.73H7.82L7.33 12.58Z" fill="#666666"/>
<path d="M11.18 7.5H13.24C13.81 7.5 14.27 7.53 14.63 7.59C14.99 7.65 15.29 7.75999 15.53 7.92999C15.77 8.09999 15.94 8.34 16.05 8.66C16.16 8.98 16.22 9.38999 16.22 9.89999C16.22 10.22 16.19 10.52 16.14 10.79C16.08 11.06 15.98 11.31 15.84 11.53C15.7 11.75 15.49 11.93 15.22 12.06C14.95 12.19 14.61 12.26 14.19 12.26H13.1V15.38H11.17V7.5H11.18ZM13.11 10.85H13.59C13.88 10.85 14.08 10.78 14.17 10.63C14.26 10.49 14.31 10.23 14.31 9.85001C14.31 9.41001 14.24 9.13999 14.11 9.03999C13.97 8.93999 13.72 8.89 13.34 8.89H13.12V10.85H13.11Z" fill="#666666"/>
<path d="M17.07 7.5H19V15.38H17.07V7.5Z" fill="#666666"/>
</svg>