<svg width="24" height="24" viewBox="0 0 24 24" fill="none" xmlns="http://www.w3.org/2000/svg">
<path d="M12.05 11.54C10.52 11.54 9.27 10.18 9.27 8.52C9.27 6.85 10.52 5.5 12.05 5.5C13.58 5.5 14.83 6.86 14.83 8.52C14.83 10.19 13.58 11.54 12.05 11.54Z" fill="#666666"/>
<path d="M16.23 18.5H7.77C7.47 18.5 7.21 18.27 7.19 17.98L7 15.33C6.93 14.35 7.71 13.23 8.7 12.87C10.83 12.13 13.16 12.13 15.28 12.87C16.28 13.23 17.06 14.35 16.99 15.33L16.81 17.98C16.79 18.27 16.54 18.5 16.23 18.5Z" fill="#666666"/>
</svg>