<svg width="14" height="28" viewBox="0 0 14 28" fill="none" xmlns="http://www.w3.org/2000/svg">
<g clip-path="url(#clip0)">
<path d="M7.90069 7.00069L13.8098 1.0916C14.0552 0.846144 14.0552 0.437053 13.8098 0.191598C13.5643 -0.0538563 13.1552 -0.0538563 12.9098 0.191598L7.00069 6.10069L1.0916 0.191598C0.846144 -0.0538563 0.437053 -0.0538563 0.191598 0.191598C-0.0538563 0.437053 -0.0538563 0.846144 0.191598 1.0916L6.10069 7.00069L0.191598 12.9098C-0.0538563 13.1552 -0.0538563 13.5643 0.191598 13.8098C0.318871 13.9371 0.482507 14.0007 0.646144 14.0007C0.80978 14.0007 0.973417 13.9371 1.10069 13.8098L7.00978 7.90069L12.9189 13.8098C13.0461 13.9371 13.2098 14.0007 13.3734 14.0007C13.5371 14.0007 13.7007 13.9371 13.828 13.8098C14.0734 13.5643 14.0734 13.1552 13.828 12.9098L7.90069 7.00069Z" fill="#4D4D4D"/>
</g>
<g clip-path="url(#clip1)">
<path d="M7.90069 21.0007L13.8098 15.0916C14.0552 14.8461 14.0552 14.4371 13.8098 14.1916C13.5643 13.9461 13.1552 13.9461 12.9098 14.1916L7.00069 20.1007L1.0916 14.1916C0.846144 13.9461 0.437053 13.9461 0.191598 14.1916C-0.0538563 14.4371 -0.0538563 14.8461 0.191598 15.0916L6.10069 21.0007L0.191598 26.9098C-0.0538563 27.1552 -0.0538563 27.5643 0.191598 27.8098C0.318871 27.9371 0.482507 28.0007 0.646144 28.0007C0.80978 28.0007 0.973417 27.9371 1.10069 27.8098L7.00978 21.9007L12.9189 27.8098C13.0461 27.9371 13.2098 28.0007 13.3734 28.0007C13.5371 28.0007 13.7007 27.9371 13.828 27.8098C14.0734 27.5643 14.0734 27.1552 13.828 26.9098L7.90069 21.0007Z" fill="white"/>
</g>
<defs>
<clipPath id="clip0">
<rect width="14" height="14" fill="white"/>
</clipPath>
<clipPath id="clip1">
<rect width="14" height="14" fill="white" transform="translate(0 14)"/>
</clipPath>
</defs>
</svg>
