<svg width="10" height="8" viewBox="0 0 10 8" fill="none" xmlns="http://www.w3.org/2000/svg">
<path d="M9.71276 0.16656C9.37621 -0.0899143 8.87733 -0.0459478 8.59621 0.269149L3.37363 6.16072L1.3662 4.21152C1.06528 3.9184 0.562393 3.90741 0.245634 4.18587C0.0912147 4.32144 0.00410805 4.50463 0.000148569 4.69882C-0.00381091 4.893 0.0714385 5.07987 0.217939 5.22276L2.84308 7.77284C2.99354 7.91573 3.19941 8 3.41718 8C3.42114 8 3.44097 8 3.44492 8C3.67061 7.99267 3.88442 7.89375 4.02696 7.73254L9.81968 1.19978C10.0968 0.884683 10.0493 0.41937 9.71276 0.16656Z" fill="white"/>
</svg>
