<svg width="34" height="21" viewBox="0 0 34 21" fill="none" xmlns="http://www.w3.org/2000/svg">
<path d="M5.46631 11H11.4663V21L8.46631 18.5L5.46631 21V11Z" fill="#F93E3E"/>
<path d="M6.94213 2.12178C7.7144 1.06997 9.2856 1.06997 10.0579 2.12178V2.12178C10.4839 2.70199 11.197 2.99738 11.9085 2.88834V2.88834C13.1983 2.69067 14.3093 3.80167 14.1117 5.0915V5.0915C14.0026 5.80299 14.298 6.51613 14.8782 6.94213V6.94213C15.93 7.7144 15.93 9.2856 14.8782 10.0579V10.0579C14.298 10.4839 14.0026 11.197 14.1117 11.9085V11.9085C14.3093 13.1983 13.1983 14.3093 11.9085 14.1117V14.1117C11.197 14.0026 10.4839 14.298 10.0579 14.8782V14.8782C9.2856 15.93 7.7144 15.93 6.94213 14.8782V14.8782C6.51613 14.298 5.80299 14.0026 5.0915 14.1117V14.1117C3.80167 14.3093 2.69067 13.1983 2.88834 11.9085V11.9085C2.99738 11.197 2.70199 10.4839 2.12178 10.0579V10.0579C1.06997 9.2856 1.06997 7.7144 2.12178 6.94213V6.94213C2.70199 6.51613 2.99738 5.80299 2.88834 5.0915V5.0915C2.69067 3.80167 3.80167 2.69067 5.0915 2.88834V2.88834C5.80299 2.99738 6.51613 2.70199 6.94213 2.12178V2.12178Z" fill="#F7CF00"/>
<path d="M22.4663 11H28.4663V21L25.4663 18.5L22.4663 21V11Z" fill="#C6C6C6"/>
<path d="M23.9421 2.12178C24.7144 1.06997 26.2856 1.06997 27.0579 2.12178V2.12178C27.4839 2.70199 28.197 2.99738 28.9085 2.88834V2.88834C30.1983 2.69067 31.3093 3.80167 31.1117 5.0915V5.0915C31.0026 5.80299 31.298 6.51613 31.8782 6.94213V6.94213C32.93 7.7144 32.93 9.2856 31.8782 10.0579V10.0579C31.298 10.4839 31.0026 11.197 31.1117 11.9085V11.9085C31.3093 13.1983 30.1983 14.3093 28.9085 14.1117V14.1117C28.197 14.0026 27.4839 14.298 27.0579 14.8782V14.8782C26.2856 15.93 24.7144 15.93 23.9421 14.8782V14.8782C23.5161 14.298 22.803 14.0026 22.0915 14.1117V14.1117C20.8017 14.3093 19.6907 13.1983 19.8883 11.9085V11.9085C19.9974 11.197 19.702 10.4839 19.1218 10.0579V10.0579C18.07 9.2856 18.07 7.7144 19.1218 6.94213V6.94213C19.702 6.51613 19.9974 5.80299 19.8883 5.0915V5.0915C19.6907 3.80167 20.8017 2.69067 22.0915 2.88834V2.88834C22.803 2.99738 23.5161 2.70199 23.9421 2.12178V2.12178Z" fill="#889FC2"/>
</svg>
