<svg width="16" height="16" viewBox="0 0 16 16" fill="none" xmlns="http://www.w3.org/2000/svg">
<path d="M8 16C3.59 16 0 12.41 0 8C0 3.59 3.59 0 8 0C12.41 0 16 3.59 16 8C16 12.41 12.41 16 8 16ZM8 1.37C4.35 1.37 1.37 4.35 1.37 8C1.37 11.65 4.35 14.63 8 14.63C11.65 14.63 14.63 11.66 14.63 8C14.63 4.34 11.66 1.37 8 1.37Z" fill="#494949"/>
<path d="M8.00001 8.69C7.62001 8.69 7.32001 8.38 7.32001 8V3.05C7.32001 2.67 7.63001 2.36 8.01001 2.36C8.39001 2.36 8.70001 2.67 8.70001 3.05V8C8.69001 8.38 8.38001 8.69 8.00001 8.69Z" fill="#494949"/>
<path d="M8 1.82C7.62 1.82 7.31 1.51 7.31 1.13V0.69C7.32 0.31 7.62 0 8 0C8.38 0 8.69 0.31 8.69 0.69V1.13C8.69 1.51 8.38 1.82 8 1.82Z" fill="#494949"/>
<path d="M8 16C7.62 16 7.31 15.69 7.31 15.31V14.87C7.31 14.49 7.62 14.18 8 14.18C8.38 14.18 8.69 14.49 8.69 14.87V15.31C8.69 15.69 8.38 16 8 16Z" fill="#494949"/>
<path d="M15.31 8.68H14.87C14.49 8.68 14.18 8.37 14.18 7.99C14.18 7.61 14.49 7.3 14.87 7.3H15.31C15.69 7.31 16 7.62 16 8C16 8.38 15.69 8.68 15.31 8.68Z" fill="#494949"/>
<path d="M1.13 8.68H0.69C0.31 8.68 0 8.38 0 8C0 7.62 0.31 7.31 0.69 7.31H1.13C1.51 7.31 1.82 7.62 1.82 8C1.82 8.38 1.51 8.68 1.13 8.68Z" fill="#494949"/>
<path d="M11.12 2.94C11.06 2.94 11 2.93 10.95 2.89C10.79 2.8 10.73 2.59 10.82 2.42L11.02 2.07C11.11 1.91 11.32 1.85 11.49 1.94C11.65 2.03 11.71 2.24 11.62 2.41L11.42 2.76C11.35 2.88 11.24 2.94 11.12 2.94Z" fill="#494949"/>
<path d="M4.68001 14.1C4.62001 14.1 4.56001 14.09 4.51001 14.05C4.35001 13.96 4.29001 13.75 4.38001 13.58L4.58001 13.23C4.68001 13.06 4.88001 13.01 5.05001 13.1C5.21001 13.19 5.27001 13.4 5.18001 13.57L4.98001 13.92C4.91001 14.03 4.80001 14.1 4.68001 14.1Z" fill="#494949"/>
<path d="M13.75 11.66C13.69 11.66 13.63 11.65 13.58 11.61L13.23 11.41C13.07 11.32 13.01 11.11 13.1 10.94C13.19 10.78 13.4 10.72 13.57 10.81L13.92 11.01C14.08 11.1 14.14 11.31 14.05 11.48C13.99 11.6 13.87 11.66 13.75 11.66Z" fill="#494949"/>
<path d="M2.6 5.22C2.54 5.22 2.48 5.21 2.43 5.17L2.08 4.97C1.92 4.88 1.86 4.67 1.95 4.5C2.04 4.34 2.25 4.28 2.42 4.37L2.77 4.57C2.93 4.66 2.99 4.87 2.9 5.04C2.83 5.16 2.72 5.22 2.6 5.22Z" fill="#494949"/>
<path d="M4.87999 2.94C4.75999 2.94 4.64999 2.88 4.57999 2.77L4.37999 2.42C4.28999 2.26 4.34999 2.05 4.50999 1.95C4.66999 1.86 4.87999 1.91 4.97999 2.08L5.17999 2.43C5.26999 2.59 5.21999 2.8 5.04999 2.89C4.99999 2.93 4.93999 2.94 4.87999 2.94Z" fill="#494949"/>
<path d="M11.32 14.1C11.2 14.1 11.09 14.04 11.02 13.93L10.82 13.58C10.72 13.42 10.78 13.21 10.94 13.11C11.1 13.02 11.31 13.07 11.41 13.23L11.61 13.58C11.71 13.74 11.65 13.95 11.49 14.05C11.44 14.08 11.38 14.1 11.32 14.1Z" fill="#494949"/>
<path d="M2.25 11.66C2.13 11.66 2.02 11.6 1.95 11.49C1.86 11.33 1.91 11.12 2.08 11.02L2.43 10.82C2.59 10.73 2.8 10.78 2.9 10.95C2.99 11.11 2.94 11.32 2.77 11.42L2.42 11.62C2.36 11.65 2.31 11.66 2.25 11.66Z" fill="#494949"/>
<path d="M13.4 5.22C13.28 5.22 13.17 5.16 13.1 5.05C13 4.89 13.06 4.68 13.23 4.58L13.58 4.38C13.74 4.29 13.95 4.34 14.05 4.51C14.15 4.67 14.09 4.88 13.92 4.98L13.57 5.18C13.52 5.21 13.46 5.22 13.4 5.22Z" fill="#494949"/>
<path d="M5.93 10.76C5.75 10.76 5.58 10.69 5.45 10.56C5.18 10.29 5.18 9.86 5.45 9.59L7.43 7.6C7.7 7.33 8.13 7.33 8.4 7.6C8.67 7.87 8.67 8.3 8.4 8.57L6.41 10.56C6.28 10.69 6.1 10.76 5.93 10.76Z" fill="#494949"/>
</svg>
