<svg width="24" height="24" viewBox="0 0 24 24" fill="none" xmlns="http://www.w3.org/2000/svg">
<path fill-rule="evenodd" clip-rule="evenodd" d="M7.31644 9.2851C7.40298 9.34401 7.50479 9.37645 7.60946 9.37846L7.61705 9.38606C7.75728 9.38406 7.89103 9.32674 7.98918 9.22657L10.8371 6.37863C10.8886 6.32968 10.9296 6.27078 10.9576 6.2055C10.9856 6.14023 11 6.06994 11 5.99891C11 5.92788 10.9856 5.85759 10.9576 5.79231C10.9296 5.72703 10.8886 5.66813 10.8371 5.61918L7.98918 2.77124C7.88847 2.67053 7.75188 2.61395 7.60946 2.61395C7.46703 2.61395 7.33044 2.67053 7.22973 2.77124C7.12902 2.87195 7.07244 3.00854 7.07244 3.15097C7.07244 3.29339 7.12902 3.42998 7.22973 3.53069L9.16144 5.45647H1.40558C1.29801 5.45647 1.19485 5.51362 1.11879 5.61536C1.04273 5.71709 1 5.85507 1 5.99894C1 6.14281 1.04273 6.28078 1.11879 6.38252C1.19485 6.48425 1.29801 6.5414 1.40558 6.5414H9.16138L7.22973 8.46712C7.15746 8.54286 7.10881 8.638 7.0897 8.74092C7.07059 8.84385 7.08185 8.95011 7.12212 9.04674C7.16238 9.14337 7.2299 9.2262 7.31644 9.2851ZM9.67896 6.02541L9.70554 5.99891L9.67896 5.9724C9.67928 5.98122 9.67944 5.99007 9.67944 5.99894C9.67944 6.00778 9.67928 6.01661 9.67896 6.02541Z" fill="#2772FB"/>
<path fill-rule="evenodd" clip-rule="evenodd" d="M18.6129 5.9211C17.9578 5.82491 17.3541 5.50173 16.9098 5.00393C16.4118 4.44595 16.1545 3.71379 16.1939 2.96695C16.1528 2.5933 16.191 2.21518 16.3059 1.85727C16.4207 1.49935 16.6098 1.16966 16.8606 0.889716C17.1115 0.609767 17.4185 0.38584 17.7618 0.232538C18.105 0.0792349 18.4767 0 18.8526 0C19.2285 0 19.6001 0.0792349 19.9434 0.232538C20.2866 0.38584 20.5936 0.609767 20.8445 0.889716C21.0954 1.16966 21.2844 1.49935 21.3993 1.85727C21.5142 2.21518 21.5523 2.5933 21.5112 2.96695C21.5506 3.71379 21.2933 4.44595 20.7953 5.00393C20.3443 5.50937 19.7288 5.83479 19.062 5.92537C20.022 5.95758 20.9783 6.13795 21.8959 6.46647C22.369 6.66584 22.773 6.99985 23.0577 7.42699C23.3425 7.85412 23.4954 8.35553 23.4975 8.86888L23.3213 11.4875C23.3094 11.6263 23.2462 11.7557 23.144 11.8505C23.0419 11.9452 22.9081 11.9985 22.7688 12H14.7528C14.6134 11.9985 14.4797 11.9452 14.3775 11.8505C14.2753 11.7557 14.2121 11.6263 14.2002 11.4875L14 8.86888C14.0021 8.35553 14.155 7.85412 14.4398 7.42699C14.7245 6.99985 15.1286 6.66584 15.6016 6.46647C16.5758 6.11772 17.5934 5.93593 18.6129 5.9211ZM17.6929 1.71256C17.9834 1.36216 18.3998 1.13972 18.8526 1.09307C19.3039 1.14167 19.7183 1.36494 20.0071 1.71512C20.2959 2.06531 20.4363 2.51462 20.3981 2.96695C20.46 3.20382 20.4668 3.45174 20.4179 3.69165C20.3691 3.93156 20.2658 4.15707 20.1162 4.35085C19.9666 4.54463 19.7745 4.70152 19.5547 4.80947C19.335 4.91742 19.0934 4.97355 18.8486 4.97355C18.6037 4.97355 18.3622 4.91742 18.1424 4.80947C17.9226 4.70152 17.7306 4.54463 17.5809 4.35085C17.4313 4.15707 17.3281 3.93156 17.2792 3.69165C17.2303 3.45174 17.2371 3.20382 17.299 2.96695C17.261 2.51337 17.4024 2.06297 17.6929 1.71256ZM22.3364 10.8949H15.2733L15.1291 8.79681C15.1424 8.51627 15.2343 8.24511 15.3943 8.0143C15.5543 7.78349 15.776 7.60232 16.034 7.4915C17.8257 6.8511 19.7839 6.8511 21.5756 7.4915C21.8337 7.60232 22.0553 7.78349 22.2154 8.0143C22.3754 8.24511 22.4672 8.51627 22.4805 8.79681L22.3364 10.8949Z" fill="#2772FB"/>
<path fill-rule="evenodd" clip-rule="evenodd" d="M19.814 21.2851C19.9005 21.344 20.0024 21.3764 20.107 21.3785L20.1146 21.3861C20.2548 21.3841 20.3886 21.3267 20.4867 21.2266L23.3347 18.3786C23.3862 18.3297 23.4271 18.2708 23.4551 18.2055C23.4831 18.1402 23.4976 18.0699 23.4976 17.9989C23.4976 17.9279 23.4831 17.8576 23.4551 17.7923C23.4271 17.727 23.3862 17.6681 23.3347 17.6192L20.4867 14.7712C20.386 14.6705 20.2494 14.614 20.107 14.614C19.9646 14.614 19.828 14.6705 19.7273 14.7712C19.6266 14.8719 19.57 15.0085 19.57 15.151C19.57 15.2934 19.6266 15.43 19.7273 15.5307L21.659 17.4565H13.9031C13.7956 17.4565 13.6924 17.5136 13.6164 17.6154C13.5403 17.7171 13.4976 17.8551 13.4976 17.9989C13.4976 18.1428 13.5403 18.2808 13.6164 18.3825C13.6924 18.4842 13.7956 18.5414 13.9031 18.5414H21.6589L19.7273 20.4671C19.655 20.5429 19.6064 20.638 19.5873 20.7409C19.5681 20.8439 19.5794 20.9501 19.6197 21.0467C19.6599 21.1434 19.7275 21.2262 19.814 21.2851ZM22.1765 18.0254L22.2031 17.9989L22.1765 17.9724C22.1768 17.9812 22.177 17.9901 22.177 17.9989C22.177 18.0078 22.1768 18.0166 22.1765 18.0254Z" fill="#304B79"/>
<path fill-rule="evenodd" clip-rule="evenodd" d="M5.61293 17.9211C4.95779 17.8249 4.35406 17.5017 3.90978 17.0039C3.4118 16.4459 3.15449 15.7138 3.1939 14.9669C3.15283 14.5933 3.19097 14.2152 3.30585 13.8573C3.42073 13.4993 3.60977 13.1697 3.86063 12.8897C4.11149 12.6098 4.41854 12.3858 4.76176 12.2325C5.10498 12.0792 5.47666 12 5.85257 12C6.22847 12 6.60015 12.0792 6.94337 12.2325C7.28659 12.3858 7.59364 12.6098 7.8445 12.8897C8.09537 13.1697 8.2844 13.4993 8.39928 13.8573C8.51416 14.2152 8.55231 14.5933 8.51123 14.9669C8.55064 15.7138 8.29333 16.4459 7.79535 17.0039C7.34425 17.5094 6.72878 17.8348 6.06201 17.9254C7.02203 17.9576 7.97826 18.1379 8.89592 18.4665C9.36897 18.6658 9.77299 18.9999 10.0577 19.427C10.3425 19.8541 10.4954 20.3555 10.4975 20.8689L10.3213 23.4875C10.3094 23.6263 10.2462 23.7557 10.144 23.8505C10.0419 23.9452 9.90812 23.9985 9.76879 24H1.75275C1.61343 23.9985 1.47965 23.9452 1.3775 23.8505C1.27534 23.7557 1.21214 23.6263 1.2002 23.4875L1 20.8689C1.00209 20.3555 1.15502 19.8541 1.43978 19.427C1.72453 18.9999 2.12855 18.6658 2.60161 18.4665C3.57578 18.1177 4.59343 17.9359 5.61293 17.9211ZM4.69289 13.7126C4.9834 13.3622 5.39979 13.1397 5.85257 13.0931C6.30389 13.1417 6.71828 13.3649 7.00711 13.7151C7.29595 14.0653 7.43629 14.5146 7.39812 14.9669C7.46003 15.2038 7.4668 15.4517 7.41793 15.6917C7.36906 15.9316 7.26584 16.1571 7.1162 16.3508C6.96655 16.5446 6.77447 16.7015 6.55472 16.8095C6.33497 16.9174 6.0934 16.9736 5.84856 16.9736C5.60373 16.9736 5.36215 16.9174 5.1424 16.8095C4.92265 16.7015 4.73057 16.5446 4.58093 16.3508C4.43128 16.1571 4.32806 15.9316 4.27919 15.6917C4.23031 15.4517 4.2371 15.2038 4.29901 14.9669C4.26095 14.5134 4.40238 14.063 4.69289 13.7126ZM9.33636 22.8949H2.27328L2.12913 20.7968C2.14239 20.5163 2.23426 20.2451 2.39428 20.0143C2.55429 19.7835 2.77598 19.6023 3.03404 19.4915C4.82572 18.8511 6.78391 18.8511 8.57559 19.4915C8.83366 19.6023 9.05535 19.7835 9.21536 20.0143C9.37537 20.2451 9.46725 20.5163 9.4805 20.7968L9.33636 22.8949Z" fill="#304B79"/>
</svg>
