<svg width="72" height="24" viewBox="0 0 72 24" fill="none" xmlns="http://www.w3.org/2000/svg">
<path d="M16.23 10.64C16.134 10.6398 16.0414 10.6042 15.97 10.54L11.97 7.16002L7.96998 10.54C7.92503 10.5801 7.87145 10.6092 7.81336 10.6251C7.75528 10.641 7.69423 10.6432 7.63514 10.6316C7.57605 10.62 7.52053 10.5948 7.47279 10.5581C7.42504 10.5214 7.38642 10.4742 7.35999 10.42C7.28904 10.3082 7.25922 10.1752 7.27564 10.0438C7.29207 9.91243 7.35367 9.79082 7.44996 9.69994L11.6801 6.09997C11.7525 6.03799 11.8446 6.00402 11.94 6.00402C12.0353 6.00402 12.1275 6.03799 12.2 6.09997L16.4301 9.69994C16.5264 9.79082 16.588 9.91243 16.6044 10.0438C16.6208 10.1752 16.591 10.3082 16.52 10.42C16.4856 10.4838 16.4352 10.5375 16.3739 10.576C16.3126 10.6146 16.2424 10.6366 16.1701 10.64H16.23Z" fill="#6A6B6C"/>
<path d="M12 18C11.8621 18 11.7298 17.9452 11.6323 17.8476C11.5348 17.7501 11.48 17.6179 11.48 17.48V6.47997C11.511 6.37131 11.5767 6.27581 11.6669 6.20775C11.7571 6.1397 11.867 6.10277 11.98 6.10277C12.093 6.10277 12.203 6.1397 12.2932 6.20775C12.3834 6.27581 12.4489 6.37131 12.48 6.47997V17.48C12.48 17.6179 12.4252 17.7501 12.3276 17.8476C12.2301 17.9452 12.0979 18 11.96 18H12Z" fill="#6A6B6C"/>
<path d="M31.77 13.36C31.8652 13.3643 31.9565 13.3993 32.03 13.46L36.03 16.84L40.03 13.46C40.075 13.4199 40.1286 13.3908 40.1867 13.3749C40.2447 13.359 40.3058 13.3568 40.3649 13.3684C40.424 13.38 40.4795 13.4052 40.5272 13.4419C40.575 13.4786 40.6136 13.5258 40.64 13.5799C40.711 13.6917 40.7408 13.8248 40.7244 13.9562C40.708 14.0875 40.6463 14.2092 40.5501 14.3L36.32 17.9C36.2475 17.962 36.1554 17.9961 36.0601 17.9961C35.9647 17.9961 35.8725 17.962 35.8001 17.9L31.57 14.3C31.4737 14.2092 31.4121 14.0875 31.3956 13.9562C31.3792 13.8248 31.409 13.6917 31.48 13.5799C31.5144 13.5162 31.5648 13.4625 31.6261 13.4239C31.6874 13.3854 31.7576 13.3634 31.83 13.36H31.77Z" fill="#6A6B6C"/>
<path d="M36 5.99999C36.1379 5.99999 36.2701 6.05482 36.3677 6.15233C36.4652 6.24985 36.52 6.3821 36.52 6.52001V17.52C36.5421 17.5974 36.546 17.6788 36.5312 17.7579C36.5165 17.8371 36.4836 17.9117 36.4352 17.9759C36.3867 18.0402 36.324 18.0924 36.2519 18.1283C36.1799 18.1642 36.1005 18.1829 36.02 18.1829C35.9395 18.1829 35.8601 18.1642 35.7881 18.1283C35.716 18.0924 35.6533 18.0402 35.6048 17.9759C35.5564 17.9117 35.5235 17.8371 35.5088 17.7579C35.494 17.6788 35.4979 17.5974 35.52 17.52V6.52001C35.52 6.3821 35.5748 6.24985 35.6723 6.15233C35.7699 6.05482 35.9021 5.99999 36.04 5.99999H36Z" fill="#6A6B6C"/>
<path d="M56 16.51C55.9314 16.5111 55.8633 16.4985 55.7997 16.4727C55.7361 16.447 55.6784 16.4086 55.63 16.36C55.5341 16.2627 55.4803 16.1316 55.4803 15.995C55.4803 15.8584 55.5341 15.7273 55.63 15.63L63.63 7.62997C63.73 7.55167 63.8553 7.51266 63.9821 7.52035C64.1089 7.52804 64.2284 7.5819 64.3182 7.67172C64.4081 7.76154 64.4619 7.88111 64.4696 8.0079C64.4773 8.1347 64.4383 8.25993 64.36 8.35995L56.36 16.36C56.2646 16.4557 56.1351 16.5096 56 16.51V16.51Z" fill="#6A6B6C"/>
<path d="M64 16.51C63.8648 16.5096 63.7354 16.4557 63.64 16.36L55.64 8.35995C55.5617 8.25993 55.5227 8.1347 55.5304 8.0079C55.5381 7.88111 55.5919 7.76154 55.6817 7.67172C55.7716 7.5819 55.8911 7.52804 56.0179 7.52035C56.1447 7.51266 56.27 7.55167 56.37 7.62997L64.37 15.63C64.4659 15.7273 64.5196 15.8584 64.5196 15.995C64.5196 16.1316 64.4659 16.2627 64.37 16.36C64.3216 16.4086 64.2639 16.447 64.2003 16.4727C64.1367 16.4985 64.0686 16.5111 64 16.51V16.51Z" fill="#6A6B6C"/>
</svg>
