<svg width="96" height="48" viewBox="0 0 96 48" fill="none" xmlns="http://www.w3.org/2000/svg">
<path d="M12.05 11.54C10.52 11.54 9.27002 10.18 9.27002 8.52C9.27002 6.85 10.52 5.5 12.05 5.5C13.58 5.5 14.83 6.86 14.83 8.52C14.83 10.19 13.58 11.54 12.05 11.54Z" fill="#666666"/>
<path d="M16.23 18.5H7.76997C7.46997 18.5 7.20997 18.27 7.18997 17.98L6.99997 15.33C6.92997 14.35 7.70997 13.23 8.69997 12.87C10.83 12.13 13.16 12.13 15.28 12.87C16.28 13.23 17.06 14.35 16.99 15.33L16.81 17.98C16.79 18.27 16.54 18.5 16.23 18.5Z" fill="#666666"/>
<path fill-rule="evenodd" clip-rule="evenodd" d="M31 7C30.4477 7 30 7.44772 30 8V10V17C30 17.5523 30.4477 18 31 18H42C42.5523 18 43 17.5523 43 17V10C43 9.44772 42.5523 9 42 9H36.5V8C36.5 7.44772 36.0523 7 35.5 7H31Z" fill="#666666"/>
<path fill-rule="evenodd" clip-rule="evenodd" d="M43 12.3333H30V11.3333H43V12.3333Z" fill="white" fill-opacity="0.5"/>
<path fill-rule="evenodd" clip-rule="evenodd" d="M79 7C78.4477 7 78 7.44772 78 8V9.99999V10V17C78 17.5523 78.4477 18 79 18H88C88.5523 18 89 17.5523 89 17V9.99999C89 9.44771 88.5523 8.99999 88 8.99999H83.5V8C83.5 7.44772 83.0523 7 82.5 7H79Z" fill="#666666"/>
<path d="M79.6687 11.7423C79.7854 11.3046 80.1819 11 80.6349 11H90.6984C91.3554 11 91.8339 11.6228 91.6646 12.2577L90.3313 17.2577C90.2146 17.6954 89.8181 18 89.3651 18H79.3016C78.6446 18 78.1661 17.3772 78.3354 16.7423L79.6687 11.7423Z" fill="#9F9F9F"/>
<path d="M55 7C55 6.44772 55.4477 6 56 6H65C65.5523 6 66 6.44772 66 7V14.3571L63.7083 16.6786L61.4167 19H56C55.4477 19 55 18.5523 55 18V7Z" fill="#666666"/>
<path d="M66.0001 14.3571L61.4167 19V14.3571H66.0001Z" fill="#D9D9D9" fill-opacity="0.5"/>
<rect x="57" y="9" width="7" height="1" fill="white" fill-opacity="0.5"/>
<rect x="57" y="11" width="4" height="1" fill="white" fill-opacity="0.5"/>
<path d="M12.05 35.54C10.52 35.54 9.27002 34.18 9.27002 32.52C9.27002 30.85 10.52 29.5 12.05 29.5C13.58 29.5 14.83 30.86 14.83 32.52C14.83 34.19 13.58 35.54 12.05 35.54Z" fill="white"/>
<path d="M16.23 42.5H7.76997C7.46997 42.5 7.20997 42.27 7.18997 41.98L6.99997 39.33C6.92997 38.35 7.70997 37.23 8.69997 36.87C10.83 36.13 13.16 36.13 15.28 36.87C16.28 37.23 17.06 38.35 16.99 39.33L16.81 41.98C16.79 42.27 16.54 42.5 16.23 42.5Z" fill="white"/>
<path fill-rule="evenodd" clip-rule="evenodd" d="M31 31C30.4477 31 30 31.4477 30 32V34V41C30 41.5523 30.4477 42 31 42H42C42.5523 42 43 41.5523 43 41V34C43 33.4477 42.5523 33 42 33H36.5V32C36.5 31.4477 36.0523 31 35.5 31H31Z" fill="white"/>
<path fill-rule="evenodd" clip-rule="evenodd" d="M43 36.3333H30V35.3333H43V36.3333Z" fill="#2772FB"/>
<path fill-rule="evenodd" clip-rule="evenodd" d="M79 31C78.4477 31 78 31.4477 78 32V34V34V41C78 41.5523 78.4477 42 79 42H88C88.5523 42 89 41.5523 89 41V34C89 33.4477 88.5523 33 88 33H83.5V32C83.5 31.4477 83.0523 31 82.5 31H79Z" fill="#B7B7B7"/>
<path d="M79.6687 35.7423C79.7854 35.3046 80.1819 35 80.6349 35H90.6984C91.3554 35 91.8339 35.6228 91.6646 36.2577L90.3313 41.2577C90.2146 41.6954 89.8181 42 89.3651 42H79.3016C78.6446 42 78.1661 41.3772 78.3354 40.7423L79.6687 35.7423Z" fill="white"/>
<path d="M55 31C55 30.4477 55.4477 30 56 30H65C65.5523 30 66 30.4477 66 31V38.3571L63.7083 40.6786L61.4167 43H56C55.4477 43 55 42.5523 55 42V31Z" fill="white"/>
<path d="M66.0001 38.3571L61.4167 43V38.3571H66.0001Z" fill="#979797" fill-opacity="0.5"/>
<rect x="57" y="33" width="7" height="1" fill="#2772FB"/>
<rect x="57" y="35" width="4" height="1" fill="#2772FB"/>
</svg>
