<svg width="12" height="24" viewBox="0 0 12 24" fill="none" xmlns="http://www.w3.org/2000/svg">
<circle cx="6" cy="6" r="6" fill="#F93E3E"/>
<path fill-rule="evenodd" clip-rule="evenodd" d="M8.8337 3.96889C9.05534 3.74724 9.05534 3.38788 8.8337 3.16623C8.61205 2.94459 8.25269 2.94459 8.03104 3.16623L6.0001 5.19718L3.96915 3.16624C3.7475 2.94459 3.38814 2.94459 3.1665 3.16624C2.94485 3.38788 2.94485 3.74724 3.1665 3.96889L5.19744 5.99983L3.16623 8.03104C2.94459 8.25269 2.94459 8.61205 3.16623 8.8337C3.38788 9.05534 3.74724 9.05534 3.96889 8.8337L6.0001 6.80249L8.03131 8.8337C8.25295 9.05534 8.61231 9.05534 8.83396 8.8337C9.0556 8.61205 9.0556 8.25269 8.83396 8.03104L6.80275 5.99983L8.8337 3.96889Z" fill="white"/>
<circle cx="6" cy="18" r="6" fill="#18B772"/>
<path d="M9.79893 14.976C9.56335 14.782 9.21413 14.8152 9.01735 15.0536L5.36154 19.5104L3.95634 18.0359C3.74569 17.8141 3.39367 17.8058 3.17194 18.0165C3.06385 18.119 3.00288 18.2576 3.0001 18.4045C2.99733 18.5514 3.05001 18.6927 3.15256 18.8008L4.99015 20.7299C5.09548 20.838 5.23959 20.9017 5.39203 20.9017C5.3948 20.9017 5.40868 20.9017 5.41145 20.9017C5.56943 20.8962 5.71909 20.8214 5.81887 20.6994L9.87377 15.7576C10.0678 15.5192 10.0345 15.1672 9.79893 14.976Z" fill="white"/>
</svg>
