<svg width="12" height="12" viewBox="0 0 12 12" fill="none" xmlns="http://www.w3.org/2000/svg">
<g clip-path="url(#clip0)">
<path d="M5.18 10.37C2.33 10.37 0 8.04 0 5.19C0 2.33 2.33 0 5.18 0C8.04 0 10.36 2.33 10.36 5.19C10.37 8.04 8.04 10.37 5.18 10.37ZM5.18 1.48C3.14 1.48 1.48 3.14 1.48 5.18C1.48 7.22 3.14 8.88 5.18 8.88C7.22 8.88 8.88 7.22 8.88 5.18C8.88 3.14 7.22 1.48 5.18 1.48Z" fill="#626262"/>
<path d="M11.07 12C10.88 12 10.69 11.93 10.55 11.78L7.78 9.03C7.49 8.74 7.49 8.27 7.78 7.98C8.07 7.69 8.54 7.69 8.83 7.98L11.59 10.74C11.88 11.03 11.88 11.5 11.59 11.79C11.45 11.93 11.26 12 11.07 12Z" fill="#626262"/>
</g>
<defs>
<clipPath id="clip0">
<rect width="11.81" height="12" fill="white"/>
</clipPath>
</defs>
</svg>
