<svg width="30" height="120" viewBox="0 0 30 120" fill="none" xmlns="http://www.w3.org/2000/svg">
<path d="M21.0097 98.1319L8.28188 110.86L8.98898 111.567L21.7168 98.839L21.0097 98.1319Z" fill="#51C4C4"/>
<path d="M22.17 102.63C22.05 102.75 21.89 102.82 21.71 102.81C21.35 102.8 21.05 102.5 21.04 102.14L20.97 98.88L17.71 98.81C17.35 98.8 17.05 98.5 17.04 98.14C17.03 97.78 17.32 97.49 17.68 97.5L21.6 97.58C21.96 97.59 22.26 97.89 22.27 98.25L22.35 102.17C22.36 102.35 22.29 102.51 22.17 102.63Z" fill="#51C4C4"/>
<path d="M9.34 112.51C10.4446 112.51 11.34 111.615 11.34 110.51C11.34 109.405 10.4446 108.51 9.34 108.51C8.23543 108.51 7.34 109.405 7.34 110.51C7.34 111.615 8.23543 112.51 9.34 112.51Z" fill="#51C4C4"/>
<path d="M15 84C19.9706 84 24 79.9706 24 75C24 70.0294 19.9706 66 15 66C10.0294 66 6 70.0294 6 75C6 79.9706 10.0294 84 15 84Z" fill="#51C4C4"/>
<path d="M19 71H11V79H19V71Z" fill="white"/>
<path d="M7 50.56C6.14 50.56 5.44 49.86 5.44 49V41C5.44 40.14 6.14 39.44 7 39.44H23C23.86 39.44 24.56 40.14 24.56 41V49C24.56 49.86 23.86 50.56 23 50.56H7Z" fill="white"/>
<path d="M23 39.88C23.62 39.88 24.12 40.38 24.12 41V49C24.12 49.62 23.62 50.12 23 50.12H7C6.38 50.12 5.88 49.62 5.88 49V41C5.88 40.38 6.38 39.88 7 39.88H23ZM23 39H7C5.9 39 5 39.9 5 41V49C5 50.1 5.9 51 7 51H23C24.1 51 25 50.1 25 49V41C25 39.9 24.1 39 23 39Z" fill="#51C4C4"/>
<path d="M9 39H7C5.89543 39 5 39.8954 5 41V49C5 50.1046 5.89543 51 7 51H9C10.1046 51 11 50.1046 11 49V41C11 39.8954 10.1046 39 9 39Z" fill="#51C4C4"/>
<rect x="9" y="39" width="2" height="12" fill="#51C4C4"/>
<path d="M24 10.2H6V20.2H24V10.2Z" fill="white"/>
<path d="M24 10.2H6V11.2H24V10.2Z" fill="#51C4C4"/>
<path d="M10 14.2H6V16.2H10V14.2Z" fill="#51C4C4"/>
<path d="M17 14.2H13V16.2H17V14.2Z" fill="#51C4C4"/>
<path d="M24 14.2H20V16.2H24V14.2Z" fill="#51C4C4"/>
<path d="M24 19.2H6V20.2H24V19.2Z" fill="#51C4C4"/>
</svg>
