<svg xmlns="http://www.w3.org/2000/svg" xmlns:xlink="http://www.w3.org/1999/xlink" width="34" height="34" viewBox="0 0 34 34">
  <defs>
    <clipPath id="clip-path">
      <rect id="사각형_15528" data-name="사각형 15528" width="34" height="34" transform="translate(0.5 0.5)" fill="none" stroke="#707070" stroke-width="2"/>
    </clipPath>
  </defs>
  <g id="icon_usergp" transform="translate(-0.5 -0.5)" clip-path="url(#clip-path)">
    <g id="그룹_789" data-name="그룹 789" transform="translate(1.503 1.504)">
      <path id="패스_516" data-name="패스 516" d="M21.445,3.579a2.829,2.829,0,1,1,2.829,2.829A2.831,2.831,0,0,1,21.445,3.579Zm2.829,3.908a4.974,4.974,0,0,1,4.966,4.966c0,.718-.151.945-.243,1.015-.259.205-1.058.011-1.83-.184a12.064,12.064,0,0,0-2.9-.448,12.108,12.108,0,0,0-2.9.448c-.772.189-1.571.389-1.83.184-.092-.07-.243-.3-.243-1.015a4.974,4.974,0,0,1,4.966-4.966Z" transform="translate(-8.788 -0.254)" fill="none" stroke="#27ad98" stroke-width="2"/>
      <path id="패스_517" data-name="패스 517" d="M41.319,34.612a2.829,2.829,0,1,1,2.829,2.829A2.831,2.831,0,0,1,41.319,34.612Zm2.829,3.908a4.974,4.974,0,0,1,4.966,4.966c0,.718-.151.945-.243,1.015-.259.205-1.058.011-1.83-.184a12.064,12.064,0,0,0-2.9-.448,12.108,12.108,0,0,0-2.9.448c-.772.189-1.571.389-1.83.184-.092-.07-.243-.3-.243-1.015a4.974,4.974,0,0,1,4.966-4.966Z" transform="translate(-17.933 -14.534)" fill="none" stroke="#999" stroke-width="2"/>
      <path id="패스_518" data-name="패스 518" d="M2.9,36.166a2.829,2.829,0,1,1,2.829,2.829A2.831,2.831,0,0,1,2.9,36.166Zm2.829,3.908a4.974,4.974,0,0,1,4.966,4.966c0,.718-.151.945-.243,1.015-.259.205-1.058.011-1.83-.184a12.064,12.064,0,0,0-2.9-.448,12.107,12.107,0,0,0-2.9.448c-.772.189-1.571.389-1.83.184-.092-.07-.243-.3-.243-1.015a4.974,4.974,0,0,1,4.966-4.966Z" transform="translate(-0.254 -15.25)" fill="none" stroke="#999" stroke-width="2"/>
      <path id="패스_519" data-name="패스 519" d="M14.524,10.485a6.542,6.542,0,0,0-3.658,2.286,6.909,6.909,0,0,0-1.1,5.836" transform="translate(-4.299 -4.734)" fill="none" stroke="#999" stroke-linecap="round" stroke-width="2"/>
      <path id="패스_520" data-name="패스 520" d="M43.6,19.508a6.546,6.546,0,0,0,.654-4.264A6.909,6.909,0,0,0,40.542,10.6" transform="translate(-18.565 -4.789)" fill="none" stroke="#999" stroke-linecap="round" stroke-width="2"/>
      <path id="패스_521" data-name="패스 521" d="M20.488,40.6a5.819,5.819,0,0,0,3.306,1.734,6.106,6.106,0,0,0,4.886-1.576" transform="translate(-9.336 -18.592)" fill="none" stroke="#999" stroke-linecap="round" stroke-width="2"/>
    </g>
  </g>
</svg>
