<svg xmlns="http://www.w3.org/2000/svg" xmlns:xlink="http://www.w3.org/1999/xlink" width="34" height="34" viewBox="0 0 34 34">
  <defs>
    <clipPath id="clip-path">
      <rect id="사각형_15530" data-name="사각형 15530" width="34" height="34" transform="translate(0.092 -0.39)" fill="none"/>
    </clipPath>
  </defs>
  <g id="icon_resource_role" transform="translate(-0.092 0.39)" clip-path="url(#clip-path)">
    <g id="그룹_1210" data-name="그룹 1210" transform="translate(1.092 0.634)">
      <g id="그룹_1211" data-name="그룹 1211">
        <path id="패스_1098" data-name="패스 1098" d="M10.688,173.525H8.122a.537.537,0,0,1-.537-.537,1.972,1.972,0,1,0-3.944,0,.537.537,0,0,1-.537.537H.538A.537.537,0,0,1,0,172.988v-8.514A2.176,2.176,0,0,1,2.174,162.3h8.514a.537.537,0,0,1,.537.537v2.09a3.026,3.026,0,0,1,0,5.969v2.09a.537.537,0,0,1-.537.537m-2.076-1.074h1.539v-2.035a.537.537,0,0,1,.525-.537,1.967,1.967,0,1,0,0-3.933.537.537,0,0,1-.525-.537v-2.034H2.174a1.1,1.1,0,0,0-1.1,1.1v7.977H2.614a3.047,3.047,0,0,1,6,0" transform="translate(0.999 -151.242)" fill="#999"/>
        <path id="패스_1099" data-name="패스 1099" d="M10.687,278.878H2.173A2.176,2.176,0,0,1,0,276.7V268.19a.537.537,0,0,1,.537-.537H2.628a3.081,3.081,0,0,1,2.984-2.51,3.081,3.081,0,0,1,2.984,2.51h2.091a.537.537,0,0,1,.537.537v2.566a.537.537,0,0,1-.537.537,1.972,1.972,0,1,0,0,3.944.537.537,0,0,1,.537.537v2.566a.537.537,0,0,1-.537.537m-9.613-10.15V276.7a1.1,1.1,0,0,0,1.1,1.1H10.15v-1.539a3.047,3.047,0,0,1,0-6v-1.539H8.116a.537.537,0,0,1-.537-.525,2.011,2.011,0,0,0-1.967-1.986A2.011,2.011,0,0,0,3.645,268.2a.537.537,0,0,1-.537.525Z" transform="translate(1 -246.443)" fill="#999"/>
        <path id="패스_1100" data-name="패스 1100" d="M114.413,310.154H105.9a.537.537,0,0,1-.537-.537v-2.09a3.026,3.026,0,0,1,0-5.969v-2.09a.537.537,0,0,1,.537-.537h2.566a.537.537,0,0,1,.537.537,1.972,1.972,0,1,0,3.944,0,.537.537,0,0,1,.537-.537h2.566a.537.537,0,0,1,.537.537v8.514a2.176,2.176,0,0,1-2.173,2.173m-7.976-1.074h7.976a1.1,1.1,0,0,0,1.1-1.1V300h-1.539a3.047,3.047,0,0,1-6,0h-1.539v2.035a.537.537,0,0,1-.525.537,1.967,1.967,0,1,0,0,3.933.537.537,0,0,1,.525.537Z" transform="translate(-94.195 -277.72)" fill="#999"/>
        <path id="패스_1101" data-name="패스 1101" d="M298.737,3.718a.537.537,0,0,1-.537-.537V.537a.537.537,0,0,1,1.074,0V3.181a.537.537,0,0,1-.537.537" transform="translate(-276.044)" fill="#27ad98"/>
        <path id="패스_1102" data-name="패스 1102" d="M397.3,132.435h-2.644a.537.537,0,1,1,0-1.074H397.3a.537.537,0,0,1,0,1.074" transform="translate(-364.833 -121.601)" fill="#27ad98"/>
        <path id="패스_1103" data-name="패스 1103" d="M165.283,132.435h-2.644a.537.537,0,0,1,0-1.074h2.644a.537.537,0,0,1,0,1.074" transform="translate(-150.058 -121.601)" fill="#27ad98"/>
        <path id="패스_1104" data-name="패스 1104" d="M385.368,40.15a.537.537,0,0,1-.368-.929l2.069-1.944a.537.537,0,0,1,.736.783L385.736,40a.535.535,0,0,1-.368.146" transform="translate(-356.238 -34.374)" fill="#27ad98"/>
        <path id="패스_1105" data-name="패스 1105" d="M233.961,95.59a3.082,3.082,0,0,1-2.984-2.51h-2.091a.537.537,0,0,1-.537-.537V89.977a.537.537,0,0,1,.537-.537,1.972,1.972,0,0,0,0-3.944.537.537,0,0,1-.537-.537V82.393a.537.537,0,0,1,.537-.537H237.4a2.176,2.176,0,0,1,2.173,2.173v8.514a.537.537,0,0,1-.537.537h-2.091a3.081,3.081,0,0,1-2.984,2.51m-4.538-3.584h2.034a.537.537,0,0,1,.537.525,1.967,1.967,0,1,0,3.933,0,.537.537,0,0,1,.537-.525H238.5V84.029a1.1,1.1,0,0,0-1.1-1.1h-7.977v1.539a3.047,3.047,0,0,1,0,6Z" transform="translate(-211.383 -75.774)" fill="#27ad98"/>
        <path id="패스_1106" data-name="패스 1106" d="M184.543,40.146a.535.535,0,0,1-.368-.146l-2.069-1.944a.537.537,0,0,1,.736-.783l2.069,1.944a.537.537,0,0,1-.368.929" transform="translate(-168.419 -34.37)" fill="#27ad98"/>
      </g>
    </g>
  </g>
</svg>
