<svg xmlns="http://www.w3.org/2000/svg" xmlns:xlink="http://www.w3.org/1999/xlink" width="34" height="34" viewBox="0 0 34 34">
  <defs>
    <clipPath id="clip-path">
      <path id="path2259" d="M0-682.665H34v34H0Z" transform="translate(0 682.665)"/>
    </clipPath>
  </defs>
  <g id="icon_role" clip-path="url(#clip-path)">
    <g id="그룹_857" data-name="그룹 857" transform="translate(-0.337 -0.336)">
      <g id="g2263" transform="translate(1.337 1.336)">
        <path id="path2265" d="M-547.131-235.57h-.673a1.782,1.782,0,0,1-1.644-1.11l-.009-.022a1.783,1.783,0,0,1,.377-1.949l.476-.476a2.673,2.673,0,0,0,0-3.78l-.945-.945a2.673,2.673,0,0,0-3.78,0l-.476.476a1.783,1.783,0,0,1-1.949.377l-.022-.009a1.782,1.782,0,0,1-1.11-1.644v-.673A2.673,2.673,0,0,0-559.56-248H-560.9a2.673,2.673,0,0,0-2.673,2.673v.673a1.782,1.782,0,0,1-1.11,1.644l-.022.009a1.783,1.783,0,0,1-1.949-.377l-.476-.476a2.673,2.673,0,0,0-3.78,0l-.945.945a2.673,2.673,0,0,0,0,3.78l.476.476A1.783,1.783,0,0,1-571-236.7l-.009.022a1.782,1.782,0,0,1-1.644,1.11h-.673A2.673,2.673,0,0,0-576-232.9v1.336a2.673,2.673,0,0,0,2.673,2.673h.673a1.782,1.782,0,0,1,1.644,1.11l.009.022a1.783,1.783,0,0,1-.377,1.949l-.476.476a2.673,2.673,0,0,0,0,3.78l.945.945a2.673,2.673,0,0,0,3.78,0l.476-.476a1.783,1.783,0,0,1,1.949-.377l.022.009a1.782,1.782,0,0,1,1.11,1.644v.673a2.673,2.673,0,0,0,2.673,2.673h1.336a2.673,2.673,0,0,0,2.673-2.673v-.673a1.782,1.782,0,0,1,1.11-1.644l.022-.009a1.783,1.783,0,0,1,1.949.377l.476.476a2.673,2.673,0,0,0,3.78,0l.945-.945a2.673,2.673,0,0,0,0-3.78l-.476-.476a1.783,1.783,0,0,1-.377-1.949l.009-.022a1.782,1.782,0,0,1,1.644-1.11h.673a2.673,2.673,0,0,0,2.673-2.673V-232.9A2.673,2.673,0,0,0-547.131-235.57Z" transform="translate(575.999 247.999)" fill="none" stroke="#999" stroke-linecap="round" stroke-miterlimit="10" stroke-width="2"/>
      </g>
      <g id="g2267" transform="translate(13.632 11.694)">
        <path id="path2269" d="M0-65.858a3.475,3.475,0,0,1,3.475-3.475A3.475,3.475,0,0,1,6.95-65.858a3.475,3.475,0,0,1-3.475,3.475A3.475,3.475,0,0,1,0-65.858Z" transform="translate(0 69.333)" fill="none" stroke="#27ad98" stroke-linecap="round" stroke-linejoin="round" stroke-miterlimit="10" stroke-width="2"/>
      </g>
      <g id="g2271" transform="translate(11.828 18.707)">
        <path id="path2273" d="M0-43.119a7.245,7.245,0,0,1,5.28-2.275" transform="translate(0 45.395)" fill="none" stroke="#27ad98" stroke-linecap="round" stroke-linejoin="round" stroke-miterlimit="10" stroke-width="2"/>
      </g>
      <g id="g2275" transform="translate(17.172 18.707)">
        <path id="path2277" d="M-100.081-43.119a7.245,7.245,0,0,0-5.28-2.275" transform="translate(105.361 45.395)" fill="none" stroke="#27ad98" stroke-linecap="round" stroke-linejoin="round" stroke-miterlimit="10" stroke-width="2"/>
      </g>
    </g>
  </g>
</svg>
