<svg xmlns="http://www.w3.org/2000/svg" xmlns:xlink="http://www.w3.org/1999/xlink" width="24" height="24" viewBox="0 0 24 24">
  <defs>
    <clipPath id="clip-path">
      <rect id="사각형_15695" data-name="사각형 15695" width="24" height="24" transform="translate(-2 -2)" fill="#999"/>
    </clipPath>
  </defs>
  <g id="ico_role" transform="translate(2 2)" clip-path="url(#clip-path)">
    <path id="패스_518" data-name="패스 518" d="M8.238,0A3.158,3.158,0,1,1,5.08,3.158,3.161,3.161,0,0,1,8.238,0M9.466,10,8.114,12.345a.762.762,0,0,0,.261,1.03l1.034.636a5.4,5.4,0,0,0,0,1.225l-1.034.636a.778.778,0,0,0-.064.044H1.145A1.089,1.089,0,0,1,.3,15.544a1.089,1.089,0,0,1-.3-.875C.364,10.714,1.843,8.3,4.523,7.292a6.926,6.926,0,0,0,7.431,0,6.552,6.552,0,0,1,1.1.525.762.762,0,0,0-.4.649l-.034,1.213a5.442,5.442,0,0,0-1.06.613l-1.069-.578A.762.762,0,0,0,9.466,10Zm9.078,3.791a.762.762,0,0,1,.345-.812l.838-.516-.611-1.059-.867.469a.762.762,0,0,1-.876-.108,3.892,3.892,0,0,0-1.437-.831.762.762,0,0,1-.532-.7l-.027-.984H14.154l-.028.984a.762.762,0,0,1-.531.7,3.9,3.9,0,0,0-1.437.831.762.762,0,0,1-.876.108l-.867-.469L9.8,12.466l.838.516a.761.761,0,0,1,.345.812,3.9,3.9,0,0,0,0,1.662.762.762,0,0,1-.345.812l-.838.516.611,1.059.867-.468a.761.761,0,0,1,.876.108,3.893,3.893,0,0,0,1.437.831.762.762,0,0,1,.531.7l.028.984h1.223l.027-.983a.762.762,0,0,1,.532-.706,3.887,3.887,0,0,0,1.437-.831.762.762,0,0,1,.876-.108l.867.468.611-1.059-.838-.516a.763.763,0,0,1-.345-.812,3.89,3.89,0,0,0,0-1.661Zm-3.778-1.9a2.726,2.726,0,1,0,2.727,2.727A2.729,2.729,0,0,0,14.765,11.9m0,3.929a1.2,1.2,0,1,1,1.2-1.2,1.2,1.2,0,0,1-1.2,1.2" transform="translate(0 0)" fill="#999" fill-rule="evenodd"/>
  </g>
</svg>
