<svg xmlns="http://www.w3.org/2000/svg" xmlns:xlink="http://www.w3.org/1999/xlink" width="24" height="24" viewBox="0 0 24 24">
  <defs>
    <clipPath id="clip-path">
      <rect id="mask" width="24" height="24" transform="translate(-8 -7.5)" fill="#b621ff" opacity="0.62"/>
    </clipPath>
    <clipPath id="clip-path-2">
      <rect id="사각형_15830" data-name="사각형 15830" width="23" height="23" fill="none" stroke="#454545" stroke-width="1.5"/>
    </clipPath>
  </defs>
  <g id="ico_mon_view" transform="translate(7.5 16) rotate(-90)" clip-path="url(#clip-path)">
    <g id="img" transform="translate(15 -6.5) rotate(90)">
      <g id="_1" data-name="1" transform="translate(0 0)">
        <g id="gnb1" transform="translate(0 0)">
          <g id="그룹_1014" data-name="그룹 1014">
            <g id="그룹_1013" data-name="그룹 1013" clip-path="url(#clip-path-2)">
              <g id="그룹_1012" data-name="그룹 1012" transform="translate(0.539)">
                <g id="사각형_15829" data-name="사각형 15829" fill="none" stroke="#454545" stroke-linecap="round" stroke-linejoin="round" stroke-width="1.5">
                  <path d="M4.674,0H16.728A4.673,4.673,0,0,1,21.4,4.673v9.888a4.673,4.673,0,0,1-4.673,4.673H4.674A4.674,4.674,0,0,1,0,14.56V4.674A4.674,4.674,0,0,1,4.674,0Z" stroke="none"/>
                  <path d="M4.674.75H16.728a3.923,3.923,0,0,1,3.923,3.923v9.888a3.923,3.923,0,0,1-3.923,3.923H4.674A3.924,3.924,0,0,1,.75,14.56V4.674A3.924,3.924,0,0,1,4.674.75Z" fill="none"/>
                </g>
                <line id="선_302" data-name="선 302" x2="5.669" transform="translate(7.868 22.022)" fill="none" stroke="#454545" stroke-linecap="round" stroke-linejoin="round" stroke-width="1.5"/>
              </g>
            </g>
          </g>
        </g>
        <g id="_2" data-name="2" transform="translate(5.764 4)">
          <circle id="round" cx="2.464" cy="2.464" r="2.464" transform="translate(6.203 0.483)" fill="none" stroke="#454545" stroke-linejoin="bevel" stroke-width="1.5"/>
          <line id="line3" x1="6.584" y2="6.584" transform="translate(0.341 4.689)" fill="none" stroke="#454545" stroke-linejoin="bevel" stroke-width="1.5"/>
          <line id="line2" x2="2.042" y2="2.042" transform="translate(2.684 8.93)" fill="none" stroke="#454545" stroke-linejoin="bevel" stroke-width="1.5"/>
          <line id="line1" x2="2.042" y2="2.042" transform="translate(1.295 10.319)" fill="none" stroke="#454545" stroke-linejoin="bevel" stroke-width="1.5"/>
        </g>
      </g>
    </g>
  </g>
</svg>
