<svg xmlns="http://www.w3.org/2000/svg" xmlns:xlink="http://www.w3.org/1999/xlink" width="24" height="24" viewBox="0 0 24 24">
  <defs>
    <clipPath id="clip-path">
      <rect id="mask" width="24" height="24" transform="translate(-8 -7.5)" fill="#b621ff" opacity="0.62"/>
    </clipPath>
  </defs>
  <g id="ico_set" transform="translate(7.5 16) rotate(-90)" clip-path="url(#clip-path)">
    <g id="img" transform="translate(15 -7.5) rotate(90)">
      <g id="왼쪽버튼6" transform="translate(0 0)">
        <g id="설정">
          <g id="off">
            <g id="패스_40" data-name="패스 40" transform="translate(-1.5 -1.5)" fill="none" stroke-linecap="round" stroke-linejoin="round">
              <path d="M22.578,9.363H21.2a8.289,8.289,0,0,0-.559-1.2,8.389,8.389,0,0,0-.76-1.085l.689-1.194a2.922,2.922,0,1,0-5.06-2.922l-.686,1.188a8.227,8.227,0,0,0-2.643.006l-.69-1.193A2.921,2.921,0,1,0,6.43,5.883l.689,1.193A8.239,8.239,0,0,0,5.794,9.363H4.421a2.922,2.922,0,1,0,0,5.843H5.8a8.264,8.264,0,0,0,.559,1.2,8.3,8.3,0,0,0,.759,1.084l-.69,1.194a2.921,2.921,0,1,0,5.06,2.922l.687-1.188a8.227,8.227,0,0,0,2.643-.006l.689,1.193a2.921,2.921,0,1,0,5.06-2.921l-.689-1.193a8.2,8.2,0,0,0,1.327-2.287h1.372a2.922,2.922,0,1,0,0-5.843Z" stroke="none"/>
              <path d="M 8.958314895629883 3.000167846679688 C 8.707883834838867 3.000167846679688 8.469463348388672 3.064468383789062 8.250364303588867 3.190896987915039 C 7.571294784545898 3.583208084106445 7.337654113769531 4.454656600952148 7.729644775390625 5.133697509765625 L 8.418254852294922 6.326927185058594 C 8.729394912719727 6.866067886352539 8.675214767456055 7.541357040405273 8.282083511352539 8.023998260498047 C 7.81297492980957 8.599907875061035 7.447784423828125 9.228797912597656 7.196643829345703 9.893197059631348 C 6.976064682006836 10.47672748565674 6.417364120483398 10.86282730102539 5.793533325195312 10.86282730102539 L 4.421234130859375 10.86282730102539 C 3.637563705444336 10.86282730102539 3.000003814697266 11.50038719177246 3.000003814697266 12.2840576171875 C 3.000003814697266 13.06806755065918 3.637323379516602 13.70590782165527 4.421844482421875 13.70590782165527 L 5.801534652709961 13.70590782165527 C 6.424083709716797 13.70590782165527 6.981924057006836 14.09044742584229 7.203393936157227 14.67226791381836 C 7.348844528198242 15.05433750152588 7.498193740844727 15.37630748748779 7.659473419189453 15.65568733215332 C 7.822744369506836 15.9380578994751 8.026865005493164 16.22854614257812 8.283504486083984 16.54374694824219 C 8.67657470703125 17.02651786804199 8.730585098266602 17.70190811157227 8.419244766235352 18.24100685119629 L 7.729543685913086 19.43521690368652 C 7.337654113769531 20.11407852172852 7.571294784545898 20.98553848266602 8.250185012817383 21.37774658203125 C 8.469444274902344 21.50436782836914 8.707504272460938 21.56857681274414 8.957763671875 21.56857681274414 C 9.465383529663086 21.56857681274414 9.937873840332031 21.29615783691406 10.19161415100098 20.85626792907715 L 10.87838363647461 19.66857719421387 C 11.19033432006836 19.12909698486328 11.80336666107178 18.83868789672852 12.41841411590576 18.93901824951172 C 13.11785793304443 19.05311393737793 13.8533935546875 19.05111885070801 14.57974433898926 18.93327713012695 C 15.1948881149292 18.83345794677734 15.80767440795898 19.12438774108887 16.11917495727539 19.66414642333984 L 16.80769348144531 20.85720825195312 C 17.06109428405762 21.29616737365723 17.53396415710449 21.56884765625 18.04177474975586 21.56884765625 C 18.29209518432617 21.56884765625 18.53025436401367 21.50458717346191 18.7507438659668 21.37720680236816 C 19.07926368713379 21.18778800964355 19.31426429748535 20.88167762756348 19.41247367858887 20.5152473449707 C 19.51078414916992 20.14841842651367 19.46026420593262 19.76531791687012 19.27002334594727 19.4361686706543 L 18.58079528808594 18.2429370880127 C 18.26904296875 17.70321655273438 18.32354354858398 17.02694702148438 18.71769332885742 16.54410743713379 C 19.18717384338379 15.96900749206543 19.55234527587891 15.34056758880615 19.80308532714844 14.67623710632324 C 20.02346420288086 14.0923376083374 20.58235359191895 13.70590782165527 21.20645523071289 13.70590782165527 L 22.57815361022949 13.70590782165527 C 22.95828437805176 13.70590782165527 23.3155345916748 13.5580472946167 23.58410453796387 13.28955745697021 C 23.8524341583252 13.02129745483398 24.0001335144043 12.66462707519531 23.9999942779541 12.28467750549316 C 23.9999942779541 11.50066757202148 23.36216354370117 10.86282730102539 22.57815361022949 10.86282730102539 L 21.19845390319824 10.86282730102539 C 20.57563400268555 10.86282730102539 20.01761436462402 10.4779577255249 19.79632377624512 9.895777702331543 C 19.65275192260742 9.518058776855469 19.50397300720215 9.196990013122559 19.3415412902832 8.914387702941895 C 19.17556381225586 8.628649711608887 18.97108840942383 8.337692260742188 18.71648406982422 8.024988174438477 C 18.32354354858398 7.542387008666992 18.26942443847656 6.867267608642578 18.58046340942383 6.328227996826172 L 19.27008438110352 5.133087158203125 C 19.46015357971191 4.804086685180664 19.5107536315918 4.420907974243164 19.41256332397461 4.054157257080078 C 19.31440353393555 3.687507629394531 19.07920455932617 3.381067276000977 18.74956512451172 3.19085693359375 C 18.53058433532715 3.064336776733398 18.29266357421875 3.000177383422852 18.04233551025391 3.000167846679688 C 17.53427505493164 3.000167846679688 17.06109428405762 3.272907257080078 16.80773544311523 3.711446762084961 L 16.12219429016113 4.899147033691406 C 15.81048393249512 5.439197540283203 15.19717788696289 5.730081558227539 14.58175468444824 5.629756927490234 C 13.8817310333252 5.515644073486328 13.14562129974365 5.517610549926758 12.42057418823242 5.635417938232422 C 11.80574607849121 5.735305786132812 11.19315528869629 5.444849014282227 10.88139343261719 4.905588150024414 L 10.19083404541016 3.71110725402832 C 9.937873840332031 3.272586822509766 9.465604782104492 3.000167846679688 8.958314895629883 3.000167846679688 M 8.958311080932617 1.500167846679688 C 9.967878341674805 1.500167846679688 10.94944953918457 2.024251937866211 11.49015426635742 2.961597442626953 L 12.17999458312988 4.154836654663086 C 13.06246566772461 4.011447906494141 13.95476531982422 4.007757186889648 14.82307434082031 4.149297714233398 L 15.5086145401001 2.961597442626953 C 16.31599235534668 1.564069747924805 18.10368347167969 1.085294723510742 19.4999942779541 1.892066955566406 C 20.89814376831055 2.698837280273438 21.37630462646484 4.485906600952148 20.56891441345215 5.883447647094727 L 19.87968444824219 7.077907562255859 C 20.15476417541504 7.41575813293457 20.41322326660156 7.772678375244141 20.63968467712402 8.16282844543457 C 20.86430358886719 8.552988052368164 21.04337310791016 8.954827308654785 21.19845390319824 9.362827301025391 L 22.57815361022949 9.362827301025391 C 24.19230461120605 9.362827301025391 25.4999942779541 10.67113780975342 25.4999942779541 12.28467750549316 C 25.5006046295166 13.89821720123291 24.19230461120605 15.20590782165527 22.57815361022949 15.20590782165527 L 21.20645523071289 15.20590782165527 C 20.89568328857422 16.029296875 20.44584465026855 16.79913711547852 19.87968444824219 17.49267768859863 L 20.56891441345215 18.6859073638916 C 21.37630462646484 20.08282852172852 20.89814376831055 21.87052726745605 19.4999942779541 22.67667770385742 C 18.10245513916016 23.48405838012695 16.31538391113281 23.00467681884766 15.5086145401001 21.60713768005371 L 14.81999397277832 20.41390800476074 C 13.93630409240723 20.55729675292969 13.0446138381958 20.56098747253418 12.17692375183105 20.41944694519043 L 11.49015426635742 21.60713768005371 C 10.68399620056152 23.00467681884766 8.896928787231445 23.48344993591309 7.500003814697266 22.67667770385742 C 6.10246467590332 21.86928749084473 5.623693466186523 20.08282852172852 6.430463790893555 18.68528747558594 L 7.120304107666016 17.4908275604248 C 6.845233917236328 17.15298843383789 6.586154937744141 16.79605865478516 6.360923767089844 16.40652847290039 C 6.13569450378418 16.01637649536133 5.956613540649414 15.61329746246338 5.801534652709961 15.20590782165527 L 4.421844482421875 15.20590782165527 C 4.421449661254883 15.20590782165527 4.421091079711914 15.20590782165527 4.420698165893555 15.20590782165527 C 2.807090759277344 15.20590782165527 1.500003814697266 13.89782333374023 1.500003814697266 12.2840576171875 C 1.500003814697266 10.67113780975342 2.807693481445312 9.362827301025391 4.421234130859375 9.362827301025391 L 5.793533325195312 9.362827301025391 C 6.104303359985352 8.540678024291992 6.554153442382812 7.770217895507812 7.119073867797852 7.076677322387695 L 6.430463790893555 5.883447647094727 C 5.623693466186523 4.485906600952148 6.10246467590332 2.699447631835938 7.500003814697266 1.892066955566406 C 7.960393905639648 1.626411437988281 8.462669372558594 1.500167846679688 8.958311080932617 1.500167846679688 Z" stroke="none" fill="#454545"/>
            </g>
            <g id="패스_41" data-name="패스 41" transform="translate(-8.438 -7.678)" fill="none" stroke-linecap="round" stroke-linejoin="round">
              <path d="M23.329,16.793a3.338,3.338,0,1,1-4.56-1.222A3.339,3.339,0,0,1,23.329,16.793Z" stroke="none"/>
              <path d="M 20.43530654907227 16.62281227111816 C 20.11565589904785 16.62281227111816 19.79873657226562 16.70821189880371 19.5196361541748 16.86930274963379 C 18.64138603210449 17.37693214416504 18.33929634094238 18.50343322753906 18.84698677062988 19.38178253173828 C 19.17387580871582 19.94866180419922 19.78476524353027 20.30081176757812 20.44126510620117 20.30081176757812 C 20.76096534729004 20.30081176757812 21.07781600952148 20.21550178527832 21.35651588439941 20.05471229553223 C 22.23476600646973 19.54706192016602 22.53710556030273 18.42033195495605 22.03031539916992 17.5427417755127 C 21.70279693603516 16.97531318664551 21.09162521362305 16.62281227111816 20.43530654907227 16.62281227111816 M 20.43530464172363 15.1228141784668 C 21.58917045593262 15.1228141784668 22.71109008789062 15.72156143188477 23.32944679260254 16.79291343688965 C 24.25129508972168 18.38924217224121 23.7034969329834 20.43066215515137 22.1071662902832 21.35337257385254 C 20.51082611083984 22.27436447143555 18.46855545043945 21.728271484375 17.54755592346191 20.1310920715332 C 16.62485694885254 18.53475189208984 17.17265510559082 16.49333190917969 18.76898574829102 15.57063293457031 C 19.29481887817383 15.26713752746582 19.86897659301758 15.1228141784668 20.43530464172363 15.1228141784668 Z" stroke="none" fill="#454545"/>
            </g>
          </g>
        </g>
      </g>
    </g>
  </g>
</svg>
