<svg xmlns="http://www.w3.org/2000/svg" xmlns:xlink="http://www.w3.org/1999/xlink" width="20" height="20" viewBox="0 0 20 20">
  <defs>
    <clipPath id="clip-path">
      <rect id="mask" width="20" height="20" transform="translate(1200 673)" fill="#f9af1c" stroke="#707070" stroke-width="1"/>
    </clipPath>
  </defs>
  <g id="ico_hourglass" transform="translate(-1200 -673)" clip-path="url(#clip-path)">
    <path id="hourglass_15721207" d="M17.47,12a.47.47,0,1,0,0,.939h1.941a5.909,5.909,0,0,0-.044,3.289,4.542,4.542,0,0,0,1.622,2.2c.791.624,2.565,1.286,2.565,2.493,0,1.743-3.467,2.7-4.087,4.591a6.435,6.435,0,0,0-.031,3.391H17.47a.47.47,0,0,0,0,.939H31.556a.47.47,0,0,0,0-.939H29.431a4.8,4.8,0,0,0,.241-2.717c-.459-2.116-3.649-3.343-3.771-5.295-.059-.949,1.795-2.03,2.4-2.691a5.427,5.427,0,0,0,1.385-2.441,4.84,4.84,0,0,0-.254-2.821h2.123a.47.47,0,0,0,0-.939Zm6.809,12.925c-2.116.006-3.313.422-3.954,1,.593-2.054,3.075-2.3,3.954-4.061Zm.939.027c2.068.13,3.085.72,3.536,1.429-.451-2.065-2.55-2.932-3.536-4.649Zm-5-9.161a5.4,5.4,0,0,1,.165-2.852H28.42a4.1,4.1,0,0,1,.282,2.869C26.428,15.753,22.861,15.791,20.218,15.791Z" transform="translate(1185.487 662.078)" fill="#f9af1c" fill-rule="evenodd"/>
  </g>
</svg>
