<svg xmlns="http://www.w3.org/2000/svg" width="24" height="24"><defs><clipPath id="a"><path fill="#121212" d="M0 0h24v24H0z"/></clipPath></defs><g clip-path="url(#a)"><path fill="#121212" d="M9.936 3.973a.739.739 0 0 0-.739.739v2.909h1.479V4.712a.739.739 0 0 0-.739-.739M14.183 3.973a.739.739 0 0 0-.739.739v2.909h1.479V4.712a.739.739 0 0 0-.739-.739"/><path fill="#121212" d="M23.907 10.499a12 12 0 0 0-4.04-7.542 11.94 11.94 0 0 0-15.737 0 12 12 0 0 0-4.042 7.542 11.622 11.622 0 0 0 .3 4.412 12.223 12.223 0 0 0 1.853 3.974 11.7 11.7 0 0 0 3.162 3.061 10.938 10.938 0 0 0 4.233 1.647.74.74 0 1 0 .239-1.459 10.426 10.426 0 0 1-8.323-11.45A10.587 10.587 0 0 1 11.89 1.475H12a10.584 10.584 0 0 1 10.434 9.207 10.426 10.426 0 0 1-8.323 11.45.736.736 0 0 0-.08.018 1.18 1.18 0 0 1-.98-.1.618.618 0 0 1-.258-.481v-6.245h1.826a2.089 2.089 0 0 0 2.089-2.089V8.36H7.28v4.875a2.09 2.09 0 0 0 2.089 2.089h1.951V21.648a2.1 2.1 0 0 0 .881 1.61 2.431 2.431 0 0 0 1.414.428 3.033 3.033 0 0 0 .777-.1 10.938 10.938 0 0 0 4.2-1.641 11.7 11.7 0 0 0 3.162-3.061A12.222 12.222 0 0 0 23.6 14.91a11.623 11.623 0 0 0 .3-4.412"/><path fill="none" stroke="#121212" stroke-width="1.5" d="m1.5 7.5 20 9" data-name="ьДа 128"/></g></svg>