<svg xmlns="http://www.w3.org/2000/svg" width="16" height="16" viewBox="0 0 16 16">
  <g id="ING" transform="translate(0 0.001)">
    <path id="제외_1" data-name="제외 1" d="M-4351,245h-10a3,3,0,0,1-3-3V232a3,3,0,0,1,3-3h10a3,3,0,0,1,3,3v10A3,3,0,0,1-4351,245Zm-1-9.5a1.5,1.5,0,0,0-1.5,1.5,1.5,1.5,0,0,0,1.5,1.5,1.5,1.5,0,0,0,1.5-1.5A1.5,1.5,0,0,0-4352,235.5Zm-4,0a1.5,1.5,0,0,0-1.5,1.5,1.5,1.5,0,0,0,1.5,1.5,1.5,1.5,0,0,0,1.5-1.5A1.5,1.5,0,0,0-4356,235.5Zm-4,0a1.5,1.5,0,0,0-1.5,1.5,1.5,1.5,0,0,0,1.5,1.5,1.5,1.5,0,0,0,1.5-1.5A1.5,1.5,0,0,0-4360,235.5Z" transform="translate(4364 -229)" fill="#1863ba"/>
  </g>
</svg>
